M48
;Layer_Color=9474304
;FILE_FORMAT=4:3
METRIC,LZ
;TYPE=PLATED
T01F00S00C0.300
T02F00S00C0.800
T03F00S00C1.000
T04F00S00C1.010
T05F00S00C1.020
T06F00S00C1.050
T07F00S00C1.250
T08F00S00C3.000
;TYPE=NON_PLATED
T09F00S00C1.850
%
T01
X0121546Y0078509
X0142549Y0067154
X01444Y00652
X0119Y0072
X01178Y00744
X01055Y00745
X0103Y0072
X0107Y00695
X00934Y006855
X01008Y00786
X0073513Y0070496
X00719Y00687
X0089775Y010354
X009625
Y0101
X00898Y01106
X0135447Y0111048
X01312Y0101
X01415Y009862
X01439Y01006
X013485Y00798
X0146694Y0149802
X01476Y0151
X01165Y01532
X01038
X0077051Y0153146
X0076Y01544
T02
X010238Y008079
Y008333
Y008587
Y008841
Y009095
Y009349
Y009603
Y009857
Y010111
Y010365
Y010619
Y010873
Y011127
Y011381
Y011635
Y011889
X011762
Y011635
Y011381
Y011127
Y010873
Y010619
Y010365
Y010111
Y009857
Y009603
Y009349
Y009095
Y008841
Y008587
Y008333
Y008079
Y012143
Y012397
Y012651
Y012905
Y013159
Y013413
Y013667
Y013921
X010238
Y013667
Y013413
Y013159
Y012905
Y012651
Y012397
Y012143
T03
X0124988Y0157262
X0127443Y0157924
X0095062Y0157486
X0092557Y0157924
T04
X0158959Y00788
X0145242Y0071952
X0143296Y0070319
X0141351Y0068686
X0145336Y0063937
X0147282Y0065569
X0149227Y0067202
X0132224Y0056367
X0129837Y0055498
X012745Y0054629
X011254Y0052
X011
X010746
X009255Y0054629
X0090163Y0055498
X0087776Y0056367
X0074664Y0063937
X0072718Y0065569
X0070773Y0067202
X0074758Y0071952
X0076704Y0070319
X0078649Y0068686
X0061041Y00788
X0059771Y0081
X0058501Y00832
X0053322Y0097427
X0052881Y0099928
X005244Y010243
Y011757
X016756
Y010243
X0167119Y0099928
X0166678Y0097427
X0161499Y00832
X0160229Y0081
X0167119Y0120072
X0166678Y0122573
X0161499Y01368
X0160229Y0139
X0158959Y01412
X0145242Y0148048
X0143296Y0149681
X0141351Y0151314
X0145336Y0156063
X0147282Y0154431
X0149227Y0152798
X0078649Y0151314
X0076704Y0149681
X0074758Y0148048
X0074664Y0156063
X0072718Y0154431
X0070773Y0152798
X0061041Y01412
X0059771Y0139
X0058501Y01368
X0053322Y0122573
X0052881Y0120072
X0087776Y0163633
X0090163Y0164502
X009255Y0165371
X010746Y0168
X011
X011254
X012745Y0165371
X0129837Y0164502
X0132224Y0163633
T05
X010617Y005945
X010871
X011125
X011379
X0075Y010622
Y010876
Y01113
Y011384
X0145Y011378
Y011124
Y01087
Y010616
X011384Y0145
X01113
X010876
X010622
T06
X0075425Y0093825
X0077965
Y0096365
X0075425
X0080505
Y0093825
X0083045
X0085585
X0088125
X0090665
X0093205
Y0096365
X0090665
X0088125
X0085585
X0083045
Y0123685
Y0126225
X0085585
X0088125
X0090665
X0093205
Y0123685
X0090665
X0088125
X0085585
X0080505
Y0126225
X0077965
X0075425
Y0123685
X0077965
T07
X00698Y00835
Y00885
X00823
Y00835
X01377
Y00885
X01502
Y00835
T08
X013895Y00755
X0081045Y0075488
X013895Y01445
X008105
T09
X007605Y00815
Y00905
X014395
Y00815
M30
