G04*
G04 #@! TF.GenerationSoftware,Altium Limited,Altium Designer,25.4.2 (15)*
G04*
G04 Layer_Color=128*
%FSLAX44Y44*%
%MOMM*%
G71*
G04*
G04 #@! TF.SameCoordinates,80CFFD5A-54A5-451F-B997-A2DA6E1B210F*
G04*
G04*
G04 #@! TF.FilePolarity,Positive*
G04*
G01*
G75*
G04:AMPARAMS|DCode=54|XSize=0.95mm|YSize=0.9mm|CornerRadius=0mm|HoleSize=0mm|Usage=FLASHONLY|Rotation=230.000|XOffset=0mm|YOffset=0mm|HoleType=Round|Shape=Rectangle|*
%AMROTATEDRECTD54*
4,1,4,-0.0394,0.6531,0.6500,0.0746,0.0394,-0.6531,-0.6500,-0.0746,-0.0394,0.6531,0.0*
%
%ADD54ROTATEDRECTD54*%

G04:AMPARAMS|DCode=55|XSize=0.95mm|YSize=0.9mm|CornerRadius=0mm|HoleSize=0mm|Usage=FLASHONLY|Rotation=310.000|XOffset=0mm|YOffset=0mm|HoleType=Round|Shape=Rectangle|*
%AMROTATEDRECTD55*
4,1,4,-0.6500,0.0746,0.0394,0.6531,0.6500,-0.0746,-0.0394,-0.6531,-0.6500,0.0746,0.0*
%
%ADD55ROTATEDRECTD55*%

%ADD56R,0.9000X0.9500*%
G04:AMPARAMS|DCode=57|XSize=0.95mm|YSize=0.9mm|CornerRadius=0mm|HoleSize=0mm|Usage=FLASHONLY|Rotation=290.000|XOffset=0mm|YOffset=0mm|HoleType=Round|Shape=Rectangle|*
%AMROTATEDRECTD57*
4,1,4,-0.5853,0.2925,0.2604,0.6003,0.5853,-0.2925,-0.2604,-0.6003,-0.5853,0.2925,0.0*
%
%ADD57ROTATEDRECTD57*%

G04:AMPARAMS|DCode=58|XSize=0.95mm|YSize=0.9mm|CornerRadius=0mm|HoleSize=0mm|Usage=FLASHONLY|Rotation=77.220|XOffset=0mm|YOffset=0mm|HoleType=Round|Shape=Rectangle|*
%AMROTATEDRECTD58*
4,1,4,0.3338,-0.5628,-0.5439,-0.3637,-0.3338,0.5628,0.5439,0.3637,0.3338,-0.5628,0.0*
%
%ADD58ROTATEDRECTD58*%

G04:AMPARAMS|DCode=59|XSize=0.95mm|YSize=0.9mm|CornerRadius=0mm|HoleSize=0mm|Usage=FLASHONLY|Rotation=250.000|XOffset=0mm|YOffset=0mm|HoleType=Round|Shape=Rectangle|*
%AMROTATEDRECTD59*
4,1,4,-0.2604,0.6003,0.5853,0.2925,0.2604,-0.6003,-0.5853,-0.2925,-0.2604,0.6003,0.0*
%
%ADD59ROTATEDRECTD59*%

G04:AMPARAMS|DCode=60|XSize=0.95mm|YSize=0.9mm|CornerRadius=0mm|HoleSize=0mm|Usage=FLASHONLY|Rotation=282.232|XOffset=0mm|YOffset=0mm|HoleType=Round|Shape=Rectangle|*
%AMROTATEDRECTD60*
4,1,4,-0.5404,0.3689,0.3392,0.5596,0.5404,-0.3689,-0.3392,-0.5596,-0.5404,0.3689,0.0*
%
%ADD60ROTATEDRECTD60*%

G04:AMPARAMS|DCode=61|XSize=0.95mm|YSize=0.9mm|CornerRadius=0mm|HoleSize=0mm|Usage=FLASHONLY|Rotation=230.000|XOffset=0mm|YOffset=0mm|HoleType=Round|Shape=Rectangle|*
%AMROTATEDRECTD61*
4,1,4,-0.0394,0.6531,0.6500,0.0746,0.0394,-0.6531,-0.6500,-0.0746,-0.0394,0.6531,0.0*
%
%ADD61ROTATEDRECTD61*%

G04:AMPARAMS|DCode=62|XSize=0.95mm|YSize=0.9mm|CornerRadius=0mm|HoleSize=0mm|Usage=FLASHONLY|Rotation=210.000|XOffset=0mm|YOffset=0mm|HoleType=Round|Shape=Rectangle|*
%AMROTATEDRECTD62*
4,1,4,0.1864,0.6272,0.6364,-0.1522,-0.1864,-0.6272,-0.6364,0.1522,0.1864,0.6272,0.0*
%
%ADD62ROTATEDRECTD62*%

G04:AMPARAMS|DCode=63|XSize=0.95mm|YSize=0.9mm|CornerRadius=0mm|HoleSize=0mm|Usage=FLASHONLY|Rotation=190.000|XOffset=0mm|YOffset=0mm|HoleType=Round|Shape=Rectangle|*
%AMROTATEDRECTD63*
4,1,4,0.3896,0.5256,0.5459,-0.3607,-0.3896,-0.5256,-0.5459,0.3607,0.3896,0.5256,0.0*
%
%ADD63ROTATEDRECTD63*%

G04:AMPARAMS|DCode=64|XSize=0.95mm|YSize=0.9mm|CornerRadius=0mm|HoleSize=0mm|Usage=FLASHONLY|Rotation=170.000|XOffset=0mm|YOffset=0mm|HoleType=Round|Shape=Rectangle|*
%AMROTATEDRECTD64*
4,1,4,0.5459,0.3607,0.3896,-0.5256,-0.5459,-0.3607,-0.3896,0.5256,0.5459,0.3607,0.0*
%
%ADD64ROTATEDRECTD64*%

G04:AMPARAMS|DCode=65|XSize=0.95mm|YSize=0.9mm|CornerRadius=0mm|HoleSize=0mm|Usage=FLASHONLY|Rotation=150.000|XOffset=0mm|YOffset=0mm|HoleType=Round|Shape=Rectangle|*
%AMROTATEDRECTD65*
4,1,4,0.6364,0.1522,0.1864,-0.6272,-0.6364,-0.1522,-0.1864,0.6272,0.6364,0.1522,0.0*
%
%ADD65ROTATEDRECTD65*%

G04:AMPARAMS|DCode=66|XSize=0.95mm|YSize=0.9mm|CornerRadius=0mm|HoleSize=0mm|Usage=FLASHONLY|Rotation=310.000|XOffset=0mm|YOffset=0mm|HoleType=Round|Shape=Rectangle|*
%AMROTATEDRECTD66*
4,1,4,-0.6500,0.0746,0.0394,0.6531,0.6500,-0.0746,-0.0394,-0.6531,-0.6500,0.0746,0.0*
%
%ADD66ROTATEDRECTD66*%

G04:AMPARAMS|DCode=67|XSize=0.95mm|YSize=0.9mm|CornerRadius=0mm|HoleSize=0mm|Usage=FLASHONLY|Rotation=49.996|XOffset=0mm|YOffset=0mm|HoleType=Round|Shape=Rectangle|*
%AMROTATEDRECTD67*
4,1,4,0.0394,-0.6531,-0.6501,-0.0746,-0.0394,0.6531,0.6501,0.0746,0.0394,-0.6531,0.0*
%
%ADD67ROTATEDRECTD67*%

G04:AMPARAMS|DCode=68|XSize=0.95mm|YSize=0.9mm|CornerRadius=0mm|HoleSize=0mm|Usage=FLASHONLY|Rotation=129.997|XOffset=0mm|YOffset=0mm|HoleType=Round|Shape=Rectangle|*
%AMROTATEDRECTD68*
4,1,4,0.6500,-0.0747,-0.0394,-0.6531,-0.6500,0.0747,0.0394,0.6531,0.6500,-0.0747,0.0*
%
%ADD68ROTATEDRECTD68*%

G04:AMPARAMS|DCode=69|XSize=0.9mm|YSize=0.85mm|CornerRadius=0mm|HoleSize=0mm|Usage=FLASHONLY|Rotation=257.220|XOffset=0mm|YOffset=0mm|HoleType=Round|Shape=Rectangle|*
%AMROTATEDRECTD69*
4,1,4,-0.3149,0.5329,0.5140,0.3448,0.3149,-0.5329,-0.5140,-0.3448,-0.3149,0.5329,0.0*
%
%ADD69ROTATEDRECTD69*%

G04:AMPARAMS|DCode=70|XSize=0.9mm|YSize=0.85mm|CornerRadius=0mm|HoleSize=0mm|Usage=FLASHONLY|Rotation=282.232|XOffset=0mm|YOffset=0mm|HoleType=Round|Shape=Rectangle|*
%AMROTATEDRECTD70*
4,1,4,-0.5107,0.3497,0.3200,0.5298,0.5107,-0.3497,-0.3200,-0.5298,-0.5107,0.3497,0.0*
%
%ADD70ROTATEDRECTD70*%

%ADD71R,0.9000X0.8500*%
%ADD72R,5.0000X1.2500*%
%ADD73R,0.8500X0.9000*%
D54*
X735126Y704963D02*
D03*
X747000Y695000D02*
D03*
X714327Y640373D02*
D03*
X726201Y630410D02*
D03*
D55*
X1426063Y672018D02*
D03*
X1437937Y681982D02*
D03*
X1485673Y640373D02*
D03*
X1497546Y650337D02*
D03*
D56*
X1084500Y1700000D02*
D03*
X1100000D02*
D03*
Y500000D02*
D03*
X1115500D02*
D03*
D57*
X880435Y1658699D02*
D03*
X895000Y1664000D02*
D03*
X1305212Y536184D02*
D03*
X1319777Y541486D02*
D03*
D58*
X939442Y1549714D02*
D03*
X954558Y1546286D02*
D03*
D59*
X1305212Y1663816D02*
D03*
X1290647Y1669117D02*
D03*
X894788Y536184D02*
D03*
X909353Y530883D02*
D03*
D60*
X1259574Y1547642D02*
D03*
X1244426Y1544358D02*
D03*
D61*
X1485673Y1559627D02*
D03*
X1473799Y1569590D02*
D03*
D62*
X1619615Y1400000D02*
D03*
X1611865Y1413423D02*
D03*
X580385Y800000D02*
D03*
X588135Y786577D02*
D03*
D63*
X1690885Y1204189D02*
D03*
X1688193Y1219453D02*
D03*
X509115Y995811D02*
D03*
X511807Y980547D02*
D03*
D64*
X1690885Y995811D02*
D03*
X1693576Y1011076D02*
D03*
X509115Y1204189D02*
D03*
X506424Y1188924D02*
D03*
D65*
X1619615Y800000D02*
D03*
X1627365Y813423D02*
D03*
X580385Y1400000D02*
D03*
X572635Y1386577D02*
D03*
D66*
X714327Y1559627D02*
D03*
X702454Y1549664D02*
D03*
D67*
X1455063Y1507982D02*
D03*
X1466936Y1498018D02*
D03*
D68*
X758063Y1521019D02*
D03*
X769937Y1530981D02*
D03*
D69*
X924558Y1553286D02*
D03*
X909442Y1556714D02*
D03*
D70*
X1289574Y1554642D02*
D03*
X1274426Y1551358D02*
D03*
D71*
X1502000Y792250D02*
D03*
Y807750D02*
D03*
X698000Y774250D02*
D03*
Y789750D02*
D03*
D72*
X897750Y734600D02*
D03*
Y760000D02*
D03*
Y785400D02*
D03*
X962500Y760000D02*
D03*
Y785400D02*
D03*
Y734600D02*
D03*
X1237400Y785300D02*
D03*
Y734500D02*
D03*
Y759900D02*
D03*
X1302150Y734500D02*
D03*
Y759900D02*
D03*
Y785300D02*
D03*
X962500Y984600D02*
D03*
Y1035400D02*
D03*
Y1010000D02*
D03*
X897750Y1035400D02*
D03*
Y1010000D02*
D03*
Y984600D02*
D03*
X1237500Y1035400D02*
D03*
Y984600D02*
D03*
Y1010000D02*
D03*
X1302250Y984600D02*
D03*
Y1010000D02*
D03*
Y1035400D02*
D03*
D73*
X1151250Y757000D02*
D03*
X1166750D02*
D03*
X1166500Y772000D02*
D03*
X1151000D02*
D03*
M02*
