G04*
G04 #@! TF.GenerationSoftware,Altium Limited,Altium Designer,25.4.2 (15)*
G04*
G04 Layer_Color=8421504*
%FSLAX44Y44*%
%MOMM*%
G71*
G04*
G04 #@! TF.SameCoordinates,80CFFD5A-54A5-451F-B997-A2DA6E1B210F*
G04*
G04*
G04 #@! TF.FilePolarity,Positive*
G04*
G01*
G75*
%ADD14R,2.4000X0.8000*%
%ADD15R,0.8000X2.4000*%
D14*
X1193300Y807900D02*
D03*
X1159300Y833300D02*
D03*
X1193300Y858700D02*
D03*
X1159300Y884100D02*
D03*
X1193300Y909500D02*
D03*
X1159300Y934900D02*
D03*
X1193300Y960300D02*
D03*
X1159300Y985700D02*
D03*
X1193300Y1011100D02*
D03*
X1159300Y1036500D02*
D03*
X1193300Y1061900D02*
D03*
X1159300Y1087300D02*
D03*
X1193300Y1112700D02*
D03*
X1159300Y1138100D02*
D03*
X1193300Y1163500D02*
D03*
X1159300Y1188900D02*
D03*
X1193300Y1214300D02*
D03*
X1159300Y1239700D02*
D03*
X1193300Y1265100D02*
D03*
X1159300Y1290500D02*
D03*
X1193300Y1315900D02*
D03*
X1159300Y1341300D02*
D03*
X1193300Y1366700D02*
D03*
X1159300Y1392100D02*
D03*
X1006800D02*
D03*
X1040800Y1366700D02*
D03*
X1006800Y1341300D02*
D03*
X1040800Y1315900D02*
D03*
X1006800Y1290500D02*
D03*
X1040800Y1265100D02*
D03*
X1006800Y1239700D02*
D03*
X1040800Y1214300D02*
D03*
X1006800Y1188900D02*
D03*
X1040800Y1163500D02*
D03*
X1006800Y1138100D02*
D03*
X1040800Y1112700D02*
D03*
X1006800Y1087300D02*
D03*
X1040800Y1061900D02*
D03*
X1006800Y1036500D02*
D03*
X1040800Y1011100D02*
D03*
X1006800Y985700D02*
D03*
X1040800Y960300D02*
D03*
X1006800Y934900D02*
D03*
X1040800Y909500D02*
D03*
X1006800Y884100D02*
D03*
X1040800Y858700D02*
D03*
X1006800Y833300D02*
D03*
X1040800Y807900D02*
D03*
X968000Y795000D02*
D03*
X1002000Y769600D02*
D03*
X968000Y744200D02*
D03*
X1002000Y718800D02*
D03*
X968000Y693400D02*
D03*
X1002000Y668000D02*
D03*
X1198000Y795000D02*
D03*
X1232000Y769600D02*
D03*
X1198000Y744200D02*
D03*
X1232000Y718800D02*
D03*
D15*
X1275050Y1206500D02*
D03*
X1249650Y1172500D02*
D03*
X1300450D02*
D03*
X1325850Y1206500D02*
D03*
X1351250Y1172500D02*
D03*
X1376650Y1206500D02*
D03*
X1376450Y1028750D02*
D03*
X1351050Y994750D02*
D03*
X1325650Y1028750D02*
D03*
X1300250Y994750D02*
D03*
X1274850Y1028750D02*
D03*
X1249450Y994750D02*
D03*
M02*
