G04*
G04 #@! TF.GenerationSoftware,Altium Limited,Altium Designer,25.4.2 (15)*
G04*
G04 Layer_Color=65535*
%FSLAX44Y44*%
%MOMM*%
G71*
G04*
G04 #@! TF.SameCoordinates,80CFFD5A-54A5-451F-B997-A2DA6E1B210F*
G04*
G04*
G04 #@! TF.FilePolarity,Positive*
G04*
G01*
G75*
%ADD10C,0.2000*%
%ADD11C,0.1270*%
%ADD12C,0.3000*%
%ADD13C,0.2540*%
G36*
X1066400Y1556800D02*
X1069600D01*
Y1556600D01*
X1071200D01*
Y1556400D01*
X1072200D01*
Y1556200D01*
X1073200D01*
Y1556000D01*
X1074000D01*
Y1555800D01*
X1074800D01*
Y1555600D01*
X1075400D01*
Y1555400D01*
X1076000D01*
Y1555200D01*
X1076600D01*
Y1555000D01*
X1077000D01*
Y1554800D01*
X1077400D01*
Y1554600D01*
X1077800D01*
Y1554400D01*
X1078400D01*
Y1554200D01*
X1078600D01*
Y1554000D01*
X1079000D01*
Y1553800D01*
X1079400D01*
Y1553600D01*
X1079800D01*
Y1553400D01*
X1080000D01*
Y1553200D01*
X1080400D01*
Y1553000D01*
X1080600D01*
Y1552800D01*
X1080800D01*
Y1552600D01*
X1081200D01*
Y1552400D01*
X1081400D01*
Y1552200D01*
X1081600D01*
Y1552000D01*
X1081800D01*
Y1551800D01*
X1082000D01*
Y1551600D01*
X1082400D01*
Y1551400D01*
X1082600D01*
Y1551200D01*
X1082800D01*
Y1551000D01*
X1083000D01*
Y1550600D01*
X1083200D01*
Y1550400D01*
X1083400D01*
Y1550200D01*
X1083600D01*
Y1549800D01*
X1083800D01*
Y1549600D01*
X1084000D01*
Y1549200D01*
X1084200D01*
Y1548800D01*
X1084400D01*
Y1548400D01*
X1084600D01*
Y1548000D01*
X1084800D01*
Y1547400D01*
X1085000D01*
Y1546800D01*
X1085200D01*
Y1546000D01*
X1085400D01*
Y1545000D01*
X1085600D01*
Y1543000D01*
X1085800D01*
Y1540800D01*
X1085600D01*
Y1538400D01*
X1085400D01*
Y1537000D01*
X1085200D01*
Y1535800D01*
X1085000D01*
Y1534800D01*
X1084800D01*
Y1534000D01*
X1084600D01*
Y1533200D01*
X1084400D01*
Y1532400D01*
X1084200D01*
Y1531600D01*
X1084000D01*
Y1530800D01*
X1083800D01*
Y1530000D01*
X1083600D01*
Y1529200D01*
X1083400D01*
Y1528400D01*
X1083200D01*
Y1527600D01*
X1083000D01*
Y1526800D01*
X1082800D01*
Y1526000D01*
X1082600D01*
Y1525200D01*
X1082400D01*
Y1524400D01*
X1082200D01*
Y1523600D01*
X1082000D01*
Y1522800D01*
X1081800D01*
Y1522000D01*
X1081600D01*
Y1521200D01*
X1081400D01*
Y1520400D01*
X1081200D01*
Y1519600D01*
X1081000D01*
Y1518800D01*
X1080800D01*
Y1518000D01*
X1080600D01*
Y1517200D01*
X1080400D01*
Y1516400D01*
X1080200D01*
Y1515600D01*
X1080000D01*
Y1514800D01*
X1079800D01*
Y1514000D01*
X1079600D01*
Y1513200D01*
X1079400D01*
Y1512400D01*
X1079200D01*
Y1511600D01*
X1079000D01*
Y1510800D01*
X1078800D01*
Y1510000D01*
X1078600D01*
Y1509200D01*
X1078400D01*
Y1508400D01*
X1078200D01*
Y1507600D01*
X1078000D01*
Y1506800D01*
X1077800D01*
Y1506000D01*
X1077600D01*
Y1505200D01*
X1077400D01*
Y1504400D01*
X1077200D01*
Y1503600D01*
X1077000D01*
Y1502800D01*
X1076800D01*
Y1502000D01*
X1076600D01*
Y1501200D01*
X1076400D01*
Y1500400D01*
X1076200D01*
Y1499600D01*
X1076000D01*
Y1498800D01*
X1075800D01*
Y1498000D01*
X1075600D01*
Y1497200D01*
X1075400D01*
Y1496400D01*
X1075200D01*
Y1495600D01*
X1075000D01*
Y1494800D01*
X1074800D01*
Y1494000D01*
X1074600D01*
Y1493200D01*
X1074400D01*
Y1492400D01*
X1074200D01*
Y1491600D01*
X1074000D01*
Y1490800D01*
X1073800D01*
Y1490000D01*
X1073600D01*
Y1489200D01*
X1073400D01*
Y1488400D01*
X1073200D01*
Y1487600D01*
X1073000D01*
Y1486800D01*
X1072800D01*
Y1486000D01*
X1072600D01*
Y1485200D01*
X1072400D01*
Y1484400D01*
X1072200D01*
Y1483600D01*
X1072000D01*
Y1482800D01*
X1071800D01*
Y1482000D01*
X1071600D01*
Y1481200D01*
X1071400D01*
Y1480400D01*
X1071200D01*
Y1479600D01*
X1071000D01*
Y1478800D01*
X1070800D01*
Y1478000D01*
X1070600D01*
Y1477200D01*
X1070400D01*
Y1476400D01*
X1070200D01*
Y1475600D01*
X1070000D01*
Y1474800D01*
X1069800D01*
Y1474000D01*
X1069600D01*
Y1473200D01*
X1069400D01*
Y1472400D01*
X1069200D01*
Y1471600D01*
X1069000D01*
Y1470800D01*
X1068800D01*
Y1470000D01*
X1068600D01*
Y1469800D01*
X1037000D01*
Y1470600D01*
X1037200D01*
Y1471400D01*
X1037400D01*
Y1472200D01*
X1037600D01*
Y1473000D01*
X1037800D01*
Y1473800D01*
X1038000D01*
Y1474600D01*
X1038200D01*
Y1475400D01*
X1038400D01*
Y1476200D01*
X1038600D01*
Y1477000D01*
X1038800D01*
Y1477800D01*
X1039000D01*
Y1478600D01*
X1039200D01*
Y1479400D01*
X1039400D01*
Y1480200D01*
X1039600D01*
Y1481000D01*
X1039800D01*
Y1481800D01*
X1040000D01*
Y1482600D01*
X1040200D01*
Y1483400D01*
X1040400D01*
Y1484200D01*
X1040600D01*
Y1485000D01*
X1040800D01*
Y1485800D01*
X1041000D01*
Y1486600D01*
X1041200D01*
Y1487400D01*
X1041400D01*
Y1488200D01*
X1041600D01*
Y1489000D01*
X1041800D01*
Y1489800D01*
X1042000D01*
Y1490600D01*
X1042200D01*
Y1491400D01*
X1042400D01*
Y1492200D01*
X1042600D01*
Y1493000D01*
X1042800D01*
Y1493800D01*
X1043000D01*
Y1494600D01*
X1043200D01*
Y1495400D01*
X1043400D01*
Y1496200D01*
X1043600D01*
Y1497000D01*
X1043800D01*
Y1497800D01*
X1044000D01*
Y1498600D01*
X1044200D01*
Y1499400D01*
X1044400D01*
Y1500200D01*
X1044600D01*
Y1501000D01*
X1044800D01*
Y1501800D01*
X1045000D01*
Y1502600D01*
X1045200D01*
Y1503400D01*
X1045400D01*
Y1504200D01*
X1045600D01*
Y1505000D01*
X1045800D01*
Y1505600D01*
Y1505800D01*
X1046000D01*
Y1506600D01*
X1046200D01*
Y1507400D01*
X1046400D01*
Y1508200D01*
X1046600D01*
Y1509000D01*
X1046800D01*
Y1509800D01*
X1047000D01*
Y1510600D01*
X1047200D01*
Y1511400D01*
X1047400D01*
Y1512200D01*
X1047600D01*
Y1512800D01*
X1047800D01*
Y1513600D01*
X1048000D01*
Y1514400D01*
X1048200D01*
Y1515200D01*
X1048400D01*
Y1516000D01*
X1048600D01*
Y1516800D01*
X1048800D01*
Y1517600D01*
X1049000D01*
Y1518400D01*
X1049200D01*
Y1519200D01*
X1049400D01*
Y1520000D01*
X1049600D01*
Y1520800D01*
X1049800D01*
Y1521600D01*
X1050000D01*
Y1522400D01*
X1050200D01*
Y1523200D01*
X1050400D01*
Y1524000D01*
X1050600D01*
Y1524800D01*
X1050800D01*
Y1525600D01*
X1051000D01*
Y1526400D01*
X1051200D01*
Y1527400D01*
X1051400D01*
Y1528600D01*
X1051600D01*
Y1531400D01*
X1051400D01*
Y1532200D01*
X1051200D01*
Y1532800D01*
X1051000D01*
Y1533200D01*
X1050800D01*
Y1533600D01*
X1050600D01*
Y1534000D01*
X1050400D01*
Y1534200D01*
X1050200D01*
Y1534400D01*
X1050000D01*
Y1534600D01*
X1049800D01*
Y1534800D01*
X1049400D01*
Y1535000D01*
X1049200D01*
Y1535200D01*
X1048800D01*
Y1535400D01*
X1048200D01*
Y1535600D01*
X1047600D01*
Y1535800D01*
X1046600D01*
Y1536000D01*
X1042600D01*
Y1535800D01*
X1041400D01*
Y1535600D01*
X1040800D01*
Y1535400D01*
X1040200D01*
Y1535200D01*
X1039600D01*
Y1535000D01*
X1039200D01*
Y1534800D01*
X1038800D01*
Y1534600D01*
X1038400D01*
Y1534400D01*
X1038200D01*
Y1534200D01*
X1037800D01*
Y1534000D01*
X1037600D01*
Y1533800D01*
X1037400D01*
Y1533600D01*
X1037000D01*
Y1533400D01*
X1036800D01*
Y1533200D01*
X1036600D01*
Y1533000D01*
X1036400D01*
Y1532800D01*
X1036200D01*
Y1532600D01*
X1036000D01*
Y1532400D01*
X1035800D01*
Y1532000D01*
X1035600D01*
Y1531800D01*
X1035400D01*
Y1531600D01*
X1035200D01*
Y1531200D01*
X1035000D01*
Y1531000D01*
X1034800D01*
Y1530600D01*
X1034600D01*
Y1530200D01*
X1034400D01*
Y1529800D01*
X1034200D01*
Y1529400D01*
X1034000D01*
Y1529000D01*
X1033800D01*
Y1528600D01*
X1033600D01*
Y1528000D01*
X1033400D01*
Y1527600D01*
X1033200D01*
Y1526800D01*
X1033000D01*
Y1526200D01*
X1032800D01*
Y1525400D01*
X1032600D01*
Y1524600D01*
X1032400D01*
Y1523800D01*
X1032200D01*
Y1523000D01*
X1032000D01*
Y1522200D01*
X1031800D01*
Y1521400D01*
X1031600D01*
Y1520600D01*
X1031400D01*
Y1519800D01*
X1031200D01*
Y1519000D01*
X1031000D01*
Y1518200D01*
X1030800D01*
Y1517400D01*
X1030600D01*
Y1516600D01*
X1030400D01*
Y1515800D01*
X1030200D01*
Y1515000D01*
X1030000D01*
Y1514200D01*
X1029800D01*
Y1513600D01*
X1029600D01*
Y1512800D01*
X1029400D01*
Y1512000D01*
X1029200D01*
Y1511200D01*
X1029000D01*
Y1510400D01*
X1028800D01*
Y1509600D01*
X1028600D01*
Y1508800D01*
X1028400D01*
Y1508000D01*
X1028200D01*
Y1507200D01*
X1028000D01*
Y1506400D01*
X1027800D01*
Y1505600D01*
X1027600D01*
Y1504800D01*
X1027400D01*
Y1504000D01*
X1027200D01*
Y1503200D01*
X1027000D01*
Y1502400D01*
X1026800D01*
Y1501600D01*
X1026600D01*
Y1500800D01*
X1026400D01*
Y1500000D01*
X1026200D01*
Y1499200D01*
X1026000D01*
Y1498400D01*
X1025800D01*
Y1497600D01*
X1025600D01*
Y1496800D01*
X1025400D01*
Y1496000D01*
X1025200D01*
Y1495200D01*
X1025000D01*
Y1494400D01*
X1024800D01*
Y1493600D01*
X1024600D01*
Y1492800D01*
X1024400D01*
Y1492000D01*
X1024200D01*
Y1491200D01*
X1024000D01*
Y1490400D01*
X1023800D01*
Y1489600D01*
X1023600D01*
Y1488800D01*
X1023400D01*
Y1488000D01*
X1023200D01*
Y1487200D01*
X1023000D01*
Y1486400D01*
X1022800D01*
Y1485600D01*
X1022600D01*
Y1484800D01*
X1022400D01*
Y1484000D01*
X1022200D01*
Y1483200D01*
X1022000D01*
Y1482400D01*
X1021800D01*
Y1481600D01*
X1021600D01*
Y1480800D01*
X1021400D01*
Y1480000D01*
X1021200D01*
Y1479200D01*
X1021000D01*
Y1478400D01*
X1020800D01*
Y1477600D01*
X1020600D01*
Y1476800D01*
X1020400D01*
Y1476000D01*
X1020200D01*
Y1475200D01*
X1020000D01*
Y1474400D01*
X1019800D01*
Y1473600D01*
X1019600D01*
Y1472800D01*
X1019400D01*
Y1472000D01*
X1019200D01*
Y1471200D01*
X1019000D01*
Y1470400D01*
X1018800D01*
Y1469800D01*
X987000D01*
Y1470200D01*
X987200D01*
Y1471000D01*
X987400D01*
Y1471800D01*
X987600D01*
Y1472600D01*
X987800D01*
Y1473400D01*
X988000D01*
Y1474200D01*
X988200D01*
Y1475000D01*
X988400D01*
Y1475800D01*
X988600D01*
Y1476600D01*
X988800D01*
Y1477400D01*
X989000D01*
Y1478200D01*
X989200D01*
Y1479000D01*
X989400D01*
Y1479800D01*
X989600D01*
Y1480600D01*
X989800D01*
Y1481400D01*
X990000D01*
Y1482200D01*
X990200D01*
Y1483000D01*
X990400D01*
Y1483800D01*
X990600D01*
Y1484600D01*
X990800D01*
Y1485400D01*
X991000D01*
Y1486200D01*
X991200D01*
Y1487000D01*
X991400D01*
Y1487800D01*
X991600D01*
Y1488600D01*
X991800D01*
Y1489400D01*
X992000D01*
Y1490200D01*
X992200D01*
Y1491000D01*
X992400D01*
Y1491800D01*
X992600D01*
Y1492600D01*
X992800D01*
Y1493400D01*
X993000D01*
Y1494200D01*
X993200D01*
Y1495000D01*
X993400D01*
Y1495800D01*
X993600D01*
Y1496600D01*
X993800D01*
Y1497400D01*
X994000D01*
Y1498200D01*
X994200D01*
Y1499000D01*
X994400D01*
Y1499800D01*
X994600D01*
Y1500600D01*
X994800D01*
Y1501400D01*
X995000D01*
Y1502200D01*
X995200D01*
Y1503000D01*
X995400D01*
Y1503800D01*
X995600D01*
Y1504600D01*
X995800D01*
Y1505400D01*
X996000D01*
Y1506200D01*
X996200D01*
Y1507000D01*
X996400D01*
Y1507800D01*
X996600D01*
Y1508600D01*
X996800D01*
Y1509400D01*
X997000D01*
Y1510200D01*
X997200D01*
Y1511000D01*
X997400D01*
Y1511800D01*
X997600D01*
Y1512600D01*
X997800D01*
Y1513400D01*
X998000D01*
Y1514200D01*
X998200D01*
Y1515000D01*
X998400D01*
Y1515800D01*
X998600D01*
Y1516600D01*
X998800D01*
Y1517400D01*
X999000D01*
Y1518200D01*
X999200D01*
Y1519000D01*
X999400D01*
Y1519800D01*
X999600D01*
Y1520600D01*
X999800D01*
Y1521400D01*
X1000000D01*
Y1522200D01*
X1000200D01*
Y1523000D01*
X1000400D01*
Y1523800D01*
X1000600D01*
Y1524600D01*
X1000800D01*
Y1525400D01*
X1001000D01*
Y1526200D01*
X1001200D01*
Y1527000D01*
X1001400D01*
Y1527800D01*
X1001600D01*
Y1528600D01*
X1001800D01*
Y1529400D01*
X1002000D01*
Y1530200D01*
X1002200D01*
Y1531000D01*
X1002400D01*
Y1531800D01*
X1002600D01*
Y1532600D01*
X1002800D01*
Y1533400D01*
X1003000D01*
Y1534200D01*
X1003200D01*
Y1535000D01*
X1003400D01*
Y1535800D01*
X1003600D01*
Y1536600D01*
X1003800D01*
Y1537400D01*
X1004000D01*
Y1538200D01*
X1004200D01*
Y1539000D01*
X1004400D01*
Y1539800D01*
X1004600D01*
Y1540600D01*
X1004800D01*
Y1541400D01*
X1005000D01*
Y1542200D01*
X1005200D01*
Y1543000D01*
X1005400D01*
Y1543800D01*
X1005600D01*
Y1544600D01*
X1005800D01*
Y1545400D01*
X1006000D01*
Y1546200D01*
X1006200D01*
Y1547000D01*
X1006400D01*
Y1547800D01*
X1006600D01*
Y1548600D01*
X1006800D01*
Y1549400D01*
X1007000D01*
Y1550200D01*
X1007200D01*
Y1551000D01*
X1007400D01*
Y1551800D01*
X1007600D01*
Y1552600D01*
X1007800D01*
Y1553400D01*
X1008000D01*
Y1554200D01*
X1008200D01*
Y1554800D01*
X1039800D01*
Y1554000D01*
X1039600D01*
Y1553200D01*
X1039400D01*
Y1552200D01*
X1039200D01*
Y1551400D01*
X1039000D01*
Y1550600D01*
X1038800D01*
Y1549800D01*
X1038600D01*
Y1549000D01*
X1038400D01*
Y1548200D01*
X1038200D01*
Y1547400D01*
X1038000D01*
Y1546600D01*
X1037800D01*
Y1545800D01*
X1037600D01*
Y1544800D01*
X1037400D01*
Y1544600D01*
X1038000D01*
Y1545000D01*
X1038200D01*
Y1545200D01*
X1038400D01*
Y1545400D01*
X1038600D01*
Y1545600D01*
X1038800D01*
Y1546000D01*
X1039000D01*
Y1546200D01*
X1039200D01*
Y1546400D01*
X1039400D01*
Y1546600D01*
X1039600D01*
Y1546800D01*
X1039800D01*
Y1547000D01*
X1040000D01*
Y1547200D01*
X1040200D01*
Y1547400D01*
X1040400D01*
Y1547600D01*
X1040600D01*
Y1547800D01*
X1040800D01*
Y1548000D01*
X1041000D01*
Y1548200D01*
X1041200D01*
Y1548400D01*
X1041400D01*
Y1548600D01*
X1041600D01*
Y1548800D01*
X1041800D01*
Y1549000D01*
X1042000D01*
Y1549200D01*
X1042200D01*
Y1549400D01*
X1042600D01*
Y1549600D01*
X1042800D01*
Y1549800D01*
X1043000D01*
Y1550000D01*
X1043200D01*
Y1550200D01*
X1043600D01*
Y1550400D01*
X1043800D01*
Y1550600D01*
X1044000D01*
Y1550800D01*
X1044400D01*
Y1551000D01*
X1044600D01*
Y1551200D01*
X1044800D01*
Y1551400D01*
X1045200D01*
Y1551600D01*
X1045400D01*
Y1551800D01*
X1045800D01*
Y1552000D01*
X1046000D01*
Y1552200D01*
X1046400D01*
Y1552400D01*
X1046800D01*
Y1552600D01*
X1047200D01*
Y1552800D01*
X1047400D01*
Y1553000D01*
X1047800D01*
Y1553200D01*
X1048200D01*
Y1553400D01*
X1048600D01*
Y1553600D01*
X1049000D01*
Y1553800D01*
X1049400D01*
Y1554000D01*
X1050000D01*
Y1554200D01*
X1050400D01*
Y1554400D01*
X1051000D01*
Y1554600D01*
X1051400D01*
Y1554800D01*
X1052000D01*
Y1555000D01*
X1052600D01*
Y1555200D01*
X1053200D01*
Y1555400D01*
X1054000D01*
Y1555600D01*
X1054600D01*
Y1555800D01*
X1055400D01*
Y1556000D01*
X1056400D01*
Y1556200D01*
X1057400D01*
Y1556400D01*
X1058600D01*
Y1556600D01*
X1060400D01*
Y1556800D01*
X1064200D01*
Y1557000D01*
X1066400D01*
Y1556800D01*
D02*
G37*
G36*
X1354200Y1554600D02*
X1354000D01*
Y1554200D01*
X1353800D01*
Y1553800D01*
X1353600D01*
Y1553400D01*
X1353400D01*
Y1553000D01*
X1353200D01*
Y1552800D01*
X1353000D01*
Y1552400D01*
X1352800D01*
Y1552000D01*
X1352600D01*
Y1551600D01*
X1352400D01*
Y1551200D01*
X1352200D01*
Y1550800D01*
X1352000D01*
Y1550400D01*
X1351800D01*
Y1550200D01*
X1351600D01*
Y1549800D01*
X1351400D01*
Y1549400D01*
X1351200D01*
Y1549000D01*
X1351000D01*
Y1548600D01*
X1350800D01*
Y1548200D01*
X1350600D01*
Y1547800D01*
X1350400D01*
Y1547400D01*
X1350200D01*
Y1547200D01*
X1350000D01*
Y1546800D01*
X1349800D01*
Y1546400D01*
X1349600D01*
Y1546000D01*
X1349400D01*
Y1545600D01*
X1349200D01*
Y1545200D01*
X1349000D01*
Y1544800D01*
X1348800D01*
Y1544600D01*
X1348600D01*
Y1544200D01*
X1348400D01*
Y1543800D01*
X1348200D01*
Y1543400D01*
X1348000D01*
Y1543000D01*
X1347800D01*
Y1542600D01*
X1347600D01*
Y1542200D01*
X1347400D01*
Y1542000D01*
X1347200D01*
Y1541600D01*
X1347000D01*
Y1541200D01*
X1346800D01*
Y1540800D01*
X1346600D01*
Y1540400D01*
X1346400D01*
Y1540000D01*
X1346200D01*
Y1539600D01*
X1346000D01*
Y1539200D01*
X1345800D01*
Y1539000D01*
X1345600D01*
Y1538600D01*
X1345400D01*
Y1538200D01*
X1345200D01*
Y1537800D01*
X1345000D01*
Y1537400D01*
X1344800D01*
Y1537000D01*
X1344600D01*
Y1536600D01*
X1344400D01*
Y1536400D01*
X1344200D01*
Y1536000D01*
X1344000D01*
Y1535600D01*
X1343800D01*
Y1535200D01*
X1343600D01*
Y1534800D01*
X1343400D01*
Y1534400D01*
X1343200D01*
Y1534000D01*
X1343000D01*
Y1533800D01*
X1342800D01*
Y1533400D01*
X1342600D01*
Y1533000D01*
X1342400D01*
Y1532600D01*
X1342200D01*
Y1532200D01*
X1342000D01*
Y1531800D01*
X1341800D01*
Y1531400D01*
X1341600D01*
Y1531200D01*
X1341400D01*
Y1530800D01*
X1341200D01*
Y1530400D01*
X1341000D01*
Y1530000D01*
X1340800D01*
Y1529600D01*
X1340600D01*
Y1529200D01*
X1340400D01*
Y1528800D01*
X1340200D01*
Y1528400D01*
X1340000D01*
Y1528200D01*
X1339800D01*
Y1527800D01*
X1339600D01*
Y1527400D01*
X1339400D01*
Y1527000D01*
X1339200D01*
Y1526600D01*
X1339000D01*
Y1526200D01*
X1338800D01*
Y1525800D01*
X1338600D01*
Y1525600D01*
X1338400D01*
Y1525200D01*
X1338200D01*
Y1524800D01*
X1338000D01*
Y1524400D01*
X1337800D01*
Y1524000D01*
X1337600D01*
Y1523600D01*
X1337400D01*
Y1523200D01*
X1337200D01*
Y1523000D01*
X1337000D01*
Y1522600D01*
X1336800D01*
Y1522200D01*
X1336600D01*
Y1521800D01*
X1336400D01*
Y1521400D01*
X1336200D01*
Y1521000D01*
X1336000D01*
Y1520600D01*
X1335800D01*
Y1520200D01*
X1335600D01*
Y1520000D01*
X1335400D01*
Y1519600D01*
X1335200D01*
Y1519200D01*
X1335000D01*
Y1518800D01*
X1334800D01*
Y1518400D01*
X1334600D01*
Y1518000D01*
X1334400D01*
Y1517600D01*
X1334200D01*
Y1517400D01*
X1334000D01*
Y1517000D01*
X1333800D01*
Y1516600D01*
X1333600D01*
Y1516200D01*
X1333400D01*
Y1515800D01*
X1333200D01*
Y1515400D01*
X1333000D01*
Y1515000D01*
X1332800D01*
Y1514800D01*
X1332600D01*
Y1514400D01*
X1332400D01*
Y1514000D01*
X1332200D01*
Y1513600D01*
X1332000D01*
Y1513200D01*
X1331800D01*
Y1512800D01*
X1331600D01*
Y1512400D01*
X1331400D01*
Y1512200D01*
X1331200D01*
Y1511800D01*
X1331000D01*
Y1511400D01*
X1330800D01*
Y1511000D01*
X1330600D01*
Y1510600D01*
X1330400D01*
Y1510200D01*
X1330200D01*
Y1509800D01*
X1330000D01*
Y1509400D01*
X1329800D01*
Y1509200D01*
X1329600D01*
Y1508800D01*
X1329400D01*
Y1508400D01*
X1329200D01*
Y1508000D01*
X1329000D01*
Y1507600D01*
X1328800D01*
Y1507200D01*
X1328600D01*
Y1506800D01*
X1328400D01*
Y1506600D01*
X1328200D01*
Y1506200D01*
X1328000D01*
Y1505800D01*
X1327800D01*
Y1505400D01*
X1327600D01*
Y1505000D01*
X1327400D01*
Y1504600D01*
X1327200D01*
Y1504200D01*
X1327000D01*
Y1504000D01*
X1326800D01*
Y1503600D01*
X1326600D01*
Y1503200D01*
X1326400D01*
Y1502800D01*
X1326200D01*
Y1502400D01*
X1326000D01*
Y1502000D01*
X1325800D01*
Y1501600D01*
X1325600D01*
Y1501200D01*
X1325400D01*
Y1501000D01*
X1325200D01*
Y1500600D01*
X1325000D01*
Y1500200D01*
X1324800D01*
Y1499800D01*
X1324600D01*
Y1499400D01*
X1324400D01*
Y1499000D01*
X1324200D01*
Y1498600D01*
X1324000D01*
Y1498400D01*
X1323800D01*
Y1498000D01*
X1323600D01*
Y1497600D01*
X1323400D01*
Y1497200D01*
X1323200D01*
Y1496800D01*
X1323000D01*
Y1496400D01*
X1322800D01*
Y1496000D01*
X1322600D01*
Y1495800D01*
X1322400D01*
Y1495400D01*
X1322200D01*
Y1495000D01*
X1322000D01*
Y1494600D01*
X1321800D01*
Y1494200D01*
X1321600D01*
Y1493800D01*
X1321400D01*
Y1493400D01*
X1321200D01*
Y1493200D01*
X1321000D01*
Y1492800D01*
X1320800D01*
Y1492400D01*
X1320600D01*
Y1492000D01*
X1320400D01*
Y1491600D01*
X1320200D01*
Y1491200D01*
X1320000D01*
Y1490800D01*
X1319800D01*
Y1490400D01*
X1319600D01*
Y1490200D01*
X1319400D01*
Y1489800D01*
X1319200D01*
Y1489400D01*
X1319000D01*
Y1489000D01*
X1318800D01*
Y1488600D01*
X1318600D01*
Y1488200D01*
X1318400D01*
Y1487800D01*
X1318200D01*
Y1487600D01*
X1318000D01*
Y1487200D01*
X1317800D01*
Y1486800D01*
X1317600D01*
Y1486400D01*
X1317400D01*
Y1486000D01*
X1317200D01*
Y1485600D01*
X1317000D01*
Y1485200D01*
X1316800D01*
Y1485000D01*
X1316600D01*
Y1484600D01*
X1316400D01*
Y1484200D01*
X1316200D01*
Y1483800D01*
X1316000D01*
Y1483400D01*
X1315800D01*
Y1483000D01*
X1315600D01*
Y1482600D01*
X1315400D01*
Y1482200D01*
X1315200D01*
Y1482000D01*
X1315000D01*
Y1481600D01*
X1314800D01*
Y1481200D01*
X1314600D01*
Y1480800D01*
X1314400D01*
Y1480400D01*
X1314200D01*
Y1480000D01*
X1314000D01*
Y1479600D01*
X1313800D01*
Y1479400D01*
X1313600D01*
Y1479000D01*
X1313400D01*
Y1478600D01*
X1313200D01*
Y1478200D01*
X1313000D01*
Y1477800D01*
X1312800D01*
Y1477400D01*
X1312600D01*
Y1477000D01*
X1312400D01*
Y1476800D01*
X1312200D01*
Y1476400D01*
X1312000D01*
Y1476000D01*
X1311800D01*
Y1475600D01*
X1311600D01*
Y1475200D01*
X1311400D01*
Y1474800D01*
X1311200D01*
Y1474400D01*
X1311000D01*
Y1474200D01*
X1310800D01*
Y1473800D01*
X1310600D01*
Y1473400D01*
X1310400D01*
Y1473000D01*
X1310200D01*
Y1472600D01*
X1310000D01*
Y1472200D01*
X1309800D01*
Y1471800D01*
X1309600D01*
Y1471400D01*
X1309400D01*
Y1471200D01*
X1309200D01*
Y1470800D01*
X1309000D01*
Y1470400D01*
X1308800D01*
Y1470000D01*
X1308600D01*
Y1469600D01*
X1308400D01*
Y1469200D01*
X1308200D01*
Y1468800D01*
X1308000D01*
Y1468600D01*
X1307800D01*
Y1468200D01*
X1307600D01*
Y1467800D01*
X1307400D01*
Y1467400D01*
X1307200D01*
Y1467000D01*
X1307000D01*
Y1466600D01*
X1306800D01*
Y1466200D01*
X1306600D01*
Y1466000D01*
X1306400D01*
Y1465600D01*
X1306200D01*
Y1465200D01*
X1306000D01*
Y1464800D01*
X1305800D01*
Y1464400D01*
X1305600D01*
Y1464200D01*
X1305400D01*
Y1463800D01*
X1305200D01*
Y1463400D01*
X1305000D01*
Y1463200D01*
X1304800D01*
Y1462800D01*
X1304600D01*
Y1462600D01*
X1304400D01*
Y1462200D01*
X1304200D01*
Y1462000D01*
X1304000D01*
Y1461600D01*
X1303800D01*
Y1461400D01*
X1303600D01*
Y1461000D01*
X1303400D01*
Y1460800D01*
X1303200D01*
Y1460400D01*
X1303000D01*
Y1460200D01*
X1302800D01*
Y1460000D01*
X1302600D01*
Y1459600D01*
X1302400D01*
Y1459400D01*
X1302200D01*
Y1459200D01*
X1302000D01*
Y1459000D01*
X1301800D01*
Y1458600D01*
X1301600D01*
Y1458400D01*
X1301400D01*
Y1458200D01*
X1301200D01*
Y1458000D01*
X1301000D01*
Y1457800D01*
X1300800D01*
Y1457400D01*
X1300600D01*
Y1457200D01*
X1300400D01*
Y1457000D01*
X1300200D01*
Y1456800D01*
X1300000D01*
Y1456600D01*
X1299800D01*
Y1456400D01*
X1299600D01*
Y1456200D01*
X1299400D01*
Y1456000D01*
X1299200D01*
Y1455800D01*
X1299000D01*
Y1455600D01*
X1298800D01*
Y1455400D01*
X1298600D01*
Y1455200D01*
X1298400D01*
Y1455000D01*
X1298200D01*
Y1454800D01*
X1298000D01*
Y1454600D01*
X1297800D01*
Y1454400D01*
X1297600D01*
Y1454200D01*
X1297400D01*
Y1454000D01*
X1297200D01*
Y1453800D01*
X1297000D01*
Y1453600D01*
X1296800D01*
Y1453400D01*
X1296600D01*
Y1453200D01*
X1296400D01*
Y1453000D01*
X1296000D01*
Y1452800D01*
X1295800D01*
Y1452600D01*
X1295600D01*
Y1452400D01*
X1295400D01*
Y1452200D01*
X1295200D01*
Y1452000D01*
X1294800D01*
Y1451800D01*
X1294600D01*
Y1451600D01*
X1294400D01*
Y1451400D01*
X1294200D01*
Y1451200D01*
X1293800D01*
Y1451000D01*
X1293600D01*
Y1450800D01*
X1293200D01*
Y1450600D01*
X1293000D01*
Y1450400D01*
X1292800D01*
Y1450200D01*
X1292400D01*
Y1450000D01*
X1292200D01*
Y1449800D01*
X1291800D01*
Y1449600D01*
X1291600D01*
Y1449400D01*
X1291200D01*
Y1449200D01*
X1291000D01*
Y1449000D01*
X1290600D01*
Y1448800D01*
X1290200D01*
Y1448600D01*
X1290000D01*
Y1448400D01*
X1289600D01*
Y1448200D01*
X1289200D01*
Y1448000D01*
X1288800D01*
Y1447800D01*
X1288600D01*
Y1447600D01*
X1288200D01*
Y1447400D01*
X1287800D01*
Y1447200D01*
X1287400D01*
Y1447000D01*
X1287000D01*
Y1446800D01*
X1286600D01*
Y1446600D01*
X1286200D01*
Y1446400D01*
X1285600D01*
Y1446200D01*
X1285200D01*
Y1446000D01*
X1284800D01*
Y1445800D01*
X1284200D01*
Y1445600D01*
X1283800D01*
Y1445400D01*
X1283200D01*
Y1445200D01*
X1282600D01*
Y1445000D01*
X1282200D01*
Y1444800D01*
X1281600D01*
Y1444600D01*
X1280800D01*
Y1444400D01*
X1280200D01*
Y1444200D01*
X1279600D01*
Y1444000D01*
X1278800D01*
Y1443800D01*
X1278000D01*
Y1443600D01*
X1277000D01*
Y1443400D01*
X1276000D01*
Y1443200D01*
X1274800D01*
Y1443000D01*
X1273400D01*
Y1442800D01*
X1271600D01*
Y1442600D01*
X1250600D01*
Y1443200D01*
X1250400D01*
Y1448400D01*
X1250200D01*
Y1453800D01*
X1250000D01*
Y1459000D01*
X1249800D01*
Y1464400D01*
X1249600D01*
Y1469600D01*
X1249400D01*
Y1475000D01*
X1249200D01*
Y1480200D01*
X1249000D01*
Y1485600D01*
X1248800D01*
Y1490800D01*
X1248600D01*
Y1496200D01*
X1248400D01*
Y1501400D01*
X1248200D01*
Y1506800D01*
X1248000D01*
Y1512000D01*
X1247800D01*
Y1517400D01*
X1247600D01*
Y1522600D01*
X1247400D01*
Y1528000D01*
X1247200D01*
Y1533200D01*
X1247000D01*
Y1538600D01*
X1246800D01*
Y1543800D01*
X1246600D01*
Y1549200D01*
X1246400D01*
Y1554400D01*
X1246200D01*
Y1554800D01*
X1282800D01*
Y1552000D01*
X1282600D01*
Y1548200D01*
X1282400D01*
Y1544600D01*
X1282200D01*
Y1540800D01*
X1282000D01*
Y1537200D01*
X1281800D01*
Y1535400D01*
X1309200D01*
Y1535800D01*
X1309400D01*
Y1536200D01*
X1309600D01*
Y1536600D01*
X1309800D01*
Y1537000D01*
X1310000D01*
Y1537600D01*
X1310200D01*
Y1538000D01*
X1310400D01*
Y1538400D01*
X1310600D01*
Y1538800D01*
X1310800D01*
Y1539400D01*
X1311000D01*
Y1539800D01*
X1311200D01*
Y1540200D01*
X1311400D01*
Y1540800D01*
X1311600D01*
Y1541200D01*
X1311800D01*
Y1541600D01*
X1312000D01*
Y1542000D01*
X1312200D01*
Y1542600D01*
X1312400D01*
Y1543000D01*
X1312600D01*
Y1543400D01*
X1312800D01*
Y1543800D01*
X1313000D01*
Y1544400D01*
X1313200D01*
Y1544800D01*
X1313400D01*
Y1545200D01*
X1313600D01*
Y1545800D01*
X1313800D01*
Y1546200D01*
X1314000D01*
Y1546600D01*
X1314200D01*
Y1547000D01*
X1314400D01*
Y1547600D01*
X1314600D01*
Y1548000D01*
X1314800D01*
Y1548400D01*
X1315000D01*
Y1548800D01*
X1315200D01*
Y1549400D01*
X1315400D01*
Y1549800D01*
X1315600D01*
Y1550200D01*
X1315800D01*
Y1550800D01*
X1316000D01*
Y1551200D01*
X1316200D01*
Y1551600D01*
X1316400D01*
Y1552000D01*
X1316600D01*
Y1552600D01*
X1316800D01*
Y1553000D01*
X1317000D01*
Y1553400D01*
X1317200D01*
Y1553800D01*
X1317400D01*
Y1554400D01*
X1317600D01*
Y1554800D01*
X1354200D01*
Y1554600D01*
D02*
G37*
G36*
X992600Y1554000D02*
X992400D01*
Y1553200D01*
X992200D01*
Y1552400D01*
X992000D01*
Y1551600D01*
X991800D01*
Y1550800D01*
X991600D01*
Y1550000D01*
X991400D01*
Y1549200D01*
X991200D01*
Y1548400D01*
X991000D01*
Y1547600D01*
X990800D01*
Y1546800D01*
X990600D01*
Y1546000D01*
X990400D01*
Y1545200D01*
X990200D01*
Y1544400D01*
X990000D01*
Y1543600D01*
X989800D01*
Y1542800D01*
X989600D01*
Y1542000D01*
X989400D01*
Y1541200D01*
X989200D01*
Y1540400D01*
X989000D01*
Y1539600D01*
X988800D01*
Y1538800D01*
X988600D01*
Y1538000D01*
X988400D01*
Y1537400D01*
X988200D01*
Y1536600D01*
X988000D01*
Y1535800D01*
X987800D01*
Y1535000D01*
X987600D01*
Y1534200D01*
X987400D01*
Y1533400D01*
X987200D01*
Y1532600D01*
X987000D01*
Y1531800D01*
X986800D01*
Y1531000D01*
X986600D01*
Y1530200D01*
X986400D01*
Y1529400D01*
X986200D01*
Y1528600D01*
X986000D01*
Y1527800D01*
X985800D01*
Y1527000D01*
X985600D01*
Y1526200D01*
X985400D01*
Y1525400D01*
X985200D01*
Y1524600D01*
X985000D01*
Y1523800D01*
X984800D01*
Y1523000D01*
X984600D01*
Y1522200D01*
X984400D01*
Y1521400D01*
X984200D01*
Y1520600D01*
X984000D01*
Y1519800D01*
X983800D01*
Y1519000D01*
X983600D01*
Y1518200D01*
X983400D01*
Y1517400D01*
X983200D01*
Y1516600D01*
X983000D01*
Y1515800D01*
X982800D01*
Y1515000D01*
X982600D01*
Y1514200D01*
X982400D01*
Y1513400D01*
X982200D01*
Y1512600D01*
X982000D01*
Y1511800D01*
X981800D01*
Y1511000D01*
X981600D01*
Y1510200D01*
X981400D01*
Y1509400D01*
X981200D01*
Y1508600D01*
X981000D01*
Y1507800D01*
X980800D01*
Y1507000D01*
X980600D01*
Y1506200D01*
X980400D01*
Y1505400D01*
X980200D01*
Y1504600D01*
X980000D01*
Y1503800D01*
X979800D01*
Y1503000D01*
X979600D01*
Y1502200D01*
X979400D01*
Y1501400D01*
X979200D01*
Y1500600D01*
X979000D01*
Y1499800D01*
X978800D01*
Y1499000D01*
X978600D01*
Y1498200D01*
X978400D01*
Y1497400D01*
X978200D01*
Y1496600D01*
X978000D01*
Y1495800D01*
X977800D01*
Y1495000D01*
X977600D01*
Y1494200D01*
X977400D01*
Y1493400D01*
X977200D01*
Y1492600D01*
X977000D01*
Y1491800D01*
X976800D01*
Y1491000D01*
X976600D01*
Y1490200D01*
X976400D01*
Y1489600D01*
X976200D01*
Y1488800D01*
X976000D01*
Y1488000D01*
X975800D01*
Y1487200D01*
X975600D01*
Y1486400D01*
X975400D01*
Y1485600D01*
X975200D01*
Y1484800D01*
X975000D01*
Y1484000D01*
X974800D01*
Y1483200D01*
X974600D01*
Y1482400D01*
X974400D01*
Y1481600D01*
X974200D01*
Y1480800D01*
X974000D01*
Y1480000D01*
X973800D01*
Y1479200D01*
X973600D01*
Y1478400D01*
X973400D01*
Y1477600D01*
X973200D01*
Y1476800D01*
X973000D01*
Y1476000D01*
X972800D01*
Y1475200D01*
X972600D01*
Y1474400D01*
X972400D01*
Y1473600D01*
X972200D01*
Y1472800D01*
X972000D01*
Y1472000D01*
X971800D01*
Y1471200D01*
X971600D01*
Y1470400D01*
X971400D01*
Y1469800D01*
X971200D01*
Y1469600D01*
X939400D01*
Y1470600D01*
X939600D01*
Y1471400D01*
X939800D01*
Y1472200D01*
X940000D01*
Y1473000D01*
X940200D01*
Y1473800D01*
X940400D01*
Y1474600D01*
X940600D01*
Y1475400D01*
X940800D01*
Y1476200D01*
X941000D01*
Y1477000D01*
X941200D01*
Y1477800D01*
X941400D01*
Y1478600D01*
X941600D01*
Y1479600D01*
X941800D01*
Y1480000D01*
X941400D01*
Y1479800D01*
X941200D01*
Y1479600D01*
X941000D01*
Y1479400D01*
X940800D01*
Y1479200D01*
X940600D01*
Y1478800D01*
X940400D01*
Y1478600D01*
X940200D01*
Y1478400D01*
X940000D01*
Y1478200D01*
X939800D01*
Y1478000D01*
X939600D01*
Y1477800D01*
X939400D01*
Y1477600D01*
X939200D01*
Y1477200D01*
X939000D01*
Y1477000D01*
X938800D01*
Y1476800D01*
X938600D01*
Y1476600D01*
X938400D01*
Y1476400D01*
X938200D01*
Y1476200D01*
X938000D01*
Y1476000D01*
X937600D01*
Y1475800D01*
X937400D01*
Y1475600D01*
X937200D01*
Y1475400D01*
X937000D01*
Y1475200D01*
X936800D01*
Y1475000D01*
X936600D01*
Y1474800D01*
X936400D01*
Y1474600D01*
X936200D01*
Y1474400D01*
X935800D01*
Y1474200D01*
X935600D01*
Y1474000D01*
X935400D01*
Y1473800D01*
X935000D01*
Y1473600D01*
X934800D01*
Y1473400D01*
X934600D01*
Y1473200D01*
X934200D01*
Y1473000D01*
X934000D01*
Y1472800D01*
X933600D01*
Y1472600D01*
X933400D01*
Y1472400D01*
X933000D01*
Y1472200D01*
X932600D01*
Y1472000D01*
X932400D01*
Y1471800D01*
X932000D01*
Y1471600D01*
X931600D01*
Y1471400D01*
X931200D01*
Y1471200D01*
X931000D01*
Y1471000D01*
X930600D01*
Y1470800D01*
X930200D01*
Y1470600D01*
X929800D01*
Y1470400D01*
X929200D01*
Y1470200D01*
X928800D01*
Y1470000D01*
X928400D01*
Y1469800D01*
X927800D01*
Y1469600D01*
X927200D01*
Y1469400D01*
X926600D01*
Y1469200D01*
X926000D01*
Y1469000D01*
X925400D01*
Y1468800D01*
X924800D01*
Y1468600D01*
X924000D01*
Y1468400D01*
X923200D01*
Y1468200D01*
X922200D01*
Y1468000D01*
X921000D01*
Y1467800D01*
X919600D01*
Y1467600D01*
X917400D01*
Y1467400D01*
X910800D01*
Y1467600D01*
X908600D01*
Y1467800D01*
X907000D01*
Y1468000D01*
X905800D01*
Y1468200D01*
X905000D01*
Y1468400D01*
X904200D01*
Y1468600D01*
X903400D01*
Y1468800D01*
X902800D01*
Y1469000D01*
X902200D01*
Y1469200D01*
X901800D01*
Y1469400D01*
X901200D01*
Y1469600D01*
X900800D01*
Y1469800D01*
X900400D01*
Y1470000D01*
X900000D01*
Y1470200D01*
X899600D01*
Y1470400D01*
X899400D01*
Y1470600D01*
X899000D01*
Y1470800D01*
X898800D01*
Y1471000D01*
X898600D01*
Y1471200D01*
X898200D01*
Y1471400D01*
X898000D01*
Y1471600D01*
X897800D01*
Y1471800D01*
X897600D01*
Y1472000D01*
X897400D01*
Y1472200D01*
X897200D01*
Y1472400D01*
X897000D01*
Y1472600D01*
X896800D01*
Y1472800D01*
X896600D01*
Y1473000D01*
X896400D01*
Y1473200D01*
X896200D01*
Y1473600D01*
X896000D01*
Y1473800D01*
X895800D01*
Y1474000D01*
X895600D01*
Y1474400D01*
X895400D01*
Y1474600D01*
X895200D01*
Y1475000D01*
X895000D01*
Y1475400D01*
X894800D01*
Y1475800D01*
X894600D01*
Y1476200D01*
X894400D01*
Y1476600D01*
X894200D01*
Y1477200D01*
X894000D01*
Y1477800D01*
X893800D01*
Y1478400D01*
X893600D01*
Y1479000D01*
X893400D01*
Y1480000D01*
X893200D01*
Y1480400D01*
X893000D01*
Y1480200D01*
X892800D01*
Y1480000D01*
X892600D01*
Y1479600D01*
X892400D01*
Y1479400D01*
X892200D01*
Y1479200D01*
X892000D01*
Y1479000D01*
X891800D01*
Y1478800D01*
X891600D01*
Y1478600D01*
X891400D01*
Y1478400D01*
X891200D01*
Y1478200D01*
X891000D01*
Y1478000D01*
X890800D01*
Y1477800D01*
X890600D01*
Y1477600D01*
X890400D01*
Y1477400D01*
X890200D01*
Y1477200D01*
X890000D01*
Y1477000D01*
X889800D01*
Y1476800D01*
X889600D01*
Y1476600D01*
X889400D01*
Y1476400D01*
X889200D01*
Y1476200D01*
X889000D01*
Y1476000D01*
X888800D01*
Y1475800D01*
X888600D01*
Y1475600D01*
X888400D01*
Y1475400D01*
X888200D01*
Y1475200D01*
X887800D01*
Y1475000D01*
X887600D01*
Y1474800D01*
X887400D01*
Y1474600D01*
X887200D01*
Y1474400D01*
X886800D01*
Y1474200D01*
X886600D01*
Y1474000D01*
X886400D01*
Y1473800D01*
X886000D01*
Y1473600D01*
X885800D01*
Y1473400D01*
X885400D01*
Y1473200D01*
X885200D01*
Y1473000D01*
X884800D01*
Y1472800D01*
X884600D01*
Y1472600D01*
X884200D01*
Y1472400D01*
X883800D01*
Y1472200D01*
X883600D01*
Y1472000D01*
X883200D01*
Y1471800D01*
X882800D01*
Y1471600D01*
X882400D01*
Y1471400D01*
X882000D01*
Y1471200D01*
X881600D01*
Y1471000D01*
X881200D01*
Y1470800D01*
X880800D01*
Y1470600D01*
X880400D01*
Y1470400D01*
X879800D01*
Y1470200D01*
X879200D01*
Y1470000D01*
X878800D01*
Y1469800D01*
X878200D01*
Y1469600D01*
X877600D01*
Y1469400D01*
X877000D01*
Y1469200D01*
X876400D01*
Y1469000D01*
X875600D01*
Y1468800D01*
X875000D01*
Y1468600D01*
X874200D01*
Y1468400D01*
X873400D01*
Y1468200D01*
X872400D01*
Y1468000D01*
X871200D01*
Y1467800D01*
X869800D01*
Y1467600D01*
X867800D01*
Y1467400D01*
X861200D01*
Y1467600D01*
X859200D01*
Y1467800D01*
X857800D01*
Y1468000D01*
X856800D01*
Y1468200D01*
X855800D01*
Y1468400D01*
X855000D01*
Y1468600D01*
X854200D01*
Y1468800D01*
X853600D01*
Y1469000D01*
X853000D01*
Y1469200D01*
X852400D01*
Y1469400D01*
X852000D01*
Y1469600D01*
X851400D01*
Y1469800D01*
X851000D01*
Y1470000D01*
X850600D01*
Y1470200D01*
X850200D01*
Y1470400D01*
X849800D01*
Y1470600D01*
X849400D01*
Y1470800D01*
X849200D01*
Y1471000D01*
X848800D01*
Y1471200D01*
X848400D01*
Y1471400D01*
X848200D01*
Y1471600D01*
X848000D01*
Y1471800D01*
X847600D01*
Y1472000D01*
X847400D01*
Y1472200D01*
X847200D01*
Y1472400D01*
X847000D01*
Y1472600D01*
X846800D01*
Y1472800D01*
X846600D01*
Y1473000D01*
X846400D01*
Y1473200D01*
X846200D01*
Y1473600D01*
X846000D01*
Y1473800D01*
X845800D01*
Y1474000D01*
X845600D01*
Y1474400D01*
X845400D01*
Y1474800D01*
X845200D01*
Y1475200D01*
X845000D01*
Y1475600D01*
X844800D01*
Y1476000D01*
X844600D01*
Y1476600D01*
X844400D01*
Y1477200D01*
X844200D01*
Y1477800D01*
X844000D01*
Y1478800D01*
X843800D01*
Y1479800D01*
Y1480000D01*
Y1480200D01*
X843600D01*
Y1484400D01*
X843800D01*
Y1486200D01*
X844000D01*
Y1487600D01*
X844200D01*
Y1488600D01*
X844400D01*
Y1489600D01*
X844600D01*
Y1490600D01*
X844800D01*
Y1491400D01*
X845000D01*
Y1492200D01*
X845200D01*
Y1493000D01*
X845400D01*
Y1493800D01*
X845600D01*
Y1494600D01*
X845800D01*
Y1495400D01*
X846000D01*
Y1496200D01*
X846200D01*
Y1496800D01*
X846400D01*
Y1497600D01*
X846600D01*
Y1498400D01*
X846800D01*
Y1499200D01*
X847000D01*
Y1500000D01*
X847200D01*
Y1500800D01*
X847400D01*
Y1501600D01*
X847600D01*
Y1502400D01*
X847800D01*
Y1503200D01*
X848000D01*
Y1504000D01*
X848200D01*
Y1504800D01*
X848400D01*
Y1505600D01*
X848600D01*
Y1506400D01*
X848800D01*
Y1507200D01*
X849000D01*
Y1508000D01*
X849200D01*
Y1508800D01*
X849400D01*
Y1509600D01*
X849600D01*
Y1510400D01*
X849800D01*
Y1511200D01*
X850000D01*
Y1512000D01*
X850200D01*
Y1512800D01*
X850400D01*
Y1513600D01*
X850600D01*
Y1514400D01*
X850800D01*
Y1515200D01*
X851000D01*
Y1516000D01*
X851200D01*
Y1516800D01*
X851400D01*
Y1517600D01*
X851600D01*
Y1518400D01*
X851800D01*
Y1519200D01*
X852000D01*
Y1520000D01*
X852200D01*
Y1520800D01*
X852400D01*
Y1521600D01*
X852600D01*
Y1522400D01*
X852800D01*
Y1523200D01*
X853000D01*
Y1524000D01*
X853200D01*
Y1524800D01*
X853400D01*
Y1525600D01*
X853600D01*
Y1526400D01*
X853800D01*
Y1527200D01*
X854000D01*
Y1528000D01*
X854200D01*
Y1528800D01*
X854400D01*
Y1529600D01*
X854600D01*
Y1530400D01*
X854800D01*
Y1531200D01*
X855000D01*
Y1532000D01*
X855200D01*
Y1532800D01*
X855400D01*
Y1533600D01*
X855600D01*
Y1534400D01*
X855800D01*
Y1535200D01*
X856000D01*
Y1536000D01*
X856200D01*
Y1536800D01*
X856400D01*
Y1537600D01*
X856600D01*
Y1538400D01*
X856800D01*
Y1539200D01*
X857000D01*
Y1539800D01*
X857200D01*
Y1540400D01*
X857400D01*
Y1541000D01*
X857600D01*
Y1541600D01*
X857800D01*
Y1542000D01*
X858000D01*
Y1542400D01*
X858200D01*
Y1542800D01*
X858400D01*
Y1543200D01*
X858600D01*
Y1543600D01*
X858800D01*
Y1544000D01*
X859000D01*
Y1544400D01*
X859200D01*
Y1544600D01*
X859400D01*
Y1545000D01*
X859600D01*
Y1545200D01*
X859800D01*
Y1545600D01*
X860000D01*
Y1545800D01*
X860200D01*
Y1546000D01*
X860400D01*
Y1546200D01*
X860600D01*
Y1546600D01*
X860800D01*
Y1546800D01*
X861000D01*
Y1547000D01*
X861200D01*
Y1547200D01*
X861400D01*
Y1547400D01*
X861600D01*
Y1547600D01*
X861800D01*
Y1547800D01*
X862000D01*
Y1548000D01*
X862200D01*
Y1548200D01*
X862400D01*
Y1548400D01*
X862600D01*
Y1548600D01*
X862800D01*
Y1548800D01*
X863000D01*
Y1549000D01*
X863200D01*
Y1549200D01*
X863400D01*
Y1549400D01*
X863600D01*
Y1549600D01*
X864000D01*
Y1549800D01*
X864200D01*
Y1550000D01*
X864400D01*
Y1550200D01*
X864800D01*
Y1550400D01*
X865000D01*
Y1550600D01*
X865400D01*
Y1550800D01*
X865600D01*
Y1551000D01*
X866000D01*
Y1551200D01*
X866200D01*
Y1551400D01*
X866600D01*
Y1551600D01*
X867000D01*
Y1551800D01*
X867200D01*
Y1552000D01*
X867600D01*
Y1552200D01*
X868000D01*
Y1552400D01*
X868400D01*
Y1552600D01*
X869000D01*
Y1552800D01*
X869400D01*
Y1553000D01*
X869800D01*
Y1553200D01*
X870400D01*
Y1553400D01*
X871000D01*
Y1553600D01*
X871600D01*
Y1553800D01*
X872200D01*
Y1554000D01*
X873000D01*
Y1554200D01*
X873800D01*
Y1554400D01*
X875000D01*
Y1554600D01*
X876600D01*
Y1554800D01*
X892600D01*
Y1554600D01*
X892400D01*
Y1553800D01*
X892200D01*
Y1553000D01*
X892000D01*
Y1552200D01*
X891800D01*
Y1551400D01*
X891600D01*
Y1550600D01*
X891400D01*
Y1549800D01*
X891200D01*
Y1549000D01*
X891000D01*
Y1548200D01*
X890800D01*
Y1547400D01*
X890600D01*
Y1546600D01*
X890400D01*
Y1545800D01*
X890200D01*
Y1545000D01*
X890000D01*
Y1544200D01*
X889800D01*
Y1543400D01*
X889600D01*
Y1542600D01*
X889400D01*
Y1541800D01*
X889200D01*
Y1541000D01*
X889000D01*
Y1540200D01*
X888800D01*
Y1539400D01*
X888600D01*
Y1538600D01*
X888400D01*
Y1537800D01*
X888200D01*
Y1537000D01*
X888000D01*
Y1536200D01*
X887800D01*
Y1535400D01*
X887600D01*
Y1534600D01*
X887400D01*
Y1533800D01*
X887200D01*
Y1533000D01*
X887000D01*
Y1532200D01*
X886800D01*
Y1531400D01*
X886600D01*
Y1530600D01*
X886400D01*
Y1529800D01*
X886200D01*
Y1529000D01*
X886000D01*
Y1528200D01*
X885800D01*
Y1527400D01*
X885600D01*
Y1526600D01*
X885400D01*
Y1525800D01*
X885200D01*
Y1525000D01*
X885000D01*
Y1524200D01*
X884800D01*
Y1523400D01*
X884600D01*
Y1522600D01*
X884400D01*
Y1521800D01*
X884200D01*
Y1521000D01*
X884000D01*
Y1520200D01*
X883800D01*
Y1519400D01*
X883600D01*
Y1518600D01*
X883400D01*
Y1517800D01*
X883200D01*
Y1517000D01*
X883000D01*
Y1516200D01*
X882800D01*
Y1515400D01*
X882600D01*
Y1514600D01*
X882400D01*
Y1513800D01*
X882200D01*
Y1513000D01*
X882000D01*
Y1512200D01*
X881800D01*
Y1511400D01*
X881600D01*
Y1510600D01*
X881400D01*
Y1509800D01*
X881200D01*
Y1509000D01*
X881000D01*
Y1508200D01*
X880800D01*
Y1507400D01*
X880600D01*
Y1506600D01*
X880400D01*
Y1505800D01*
X880200D01*
Y1505000D01*
X880000D01*
Y1504200D01*
X879800D01*
Y1503400D01*
X879600D01*
Y1502600D01*
X879400D01*
Y1501800D01*
X879200D01*
Y1501000D01*
X879000D01*
Y1500200D01*
X878800D01*
Y1499400D01*
X878600D01*
Y1498600D01*
X878400D01*
Y1497800D01*
X878200D01*
Y1496800D01*
X878000D01*
Y1495400D01*
X877800D01*
Y1493400D01*
X878000D01*
Y1492400D01*
X878200D01*
Y1491800D01*
X878400D01*
Y1491400D01*
X878600D01*
Y1491000D01*
X878800D01*
Y1490800D01*
X879000D01*
Y1490400D01*
X879200D01*
Y1490200D01*
X879400D01*
Y1490000D01*
X879600D01*
Y1489800D01*
X880000D01*
Y1489600D01*
X880200D01*
Y1489400D01*
X880600D01*
Y1489200D01*
X881200D01*
Y1489000D01*
X881800D01*
Y1488800D01*
X882800D01*
Y1488600D01*
X887200D01*
Y1488800D01*
X888200D01*
Y1489000D01*
X889000D01*
Y1489200D01*
X889600D01*
Y1489400D01*
X890200D01*
Y1489600D01*
X890600D01*
Y1489800D01*
X891000D01*
Y1490000D01*
X891200D01*
Y1490200D01*
X891600D01*
Y1490400D01*
X892000D01*
Y1490600D01*
X892200D01*
Y1490800D01*
X892400D01*
Y1491000D01*
X892600D01*
Y1491200D01*
X893000D01*
Y1491400D01*
X893200D01*
Y1491600D01*
X893400D01*
Y1491800D01*
X893600D01*
Y1492000D01*
X893800D01*
Y1492400D01*
X894000D01*
Y1492600D01*
X894200D01*
Y1492800D01*
X894400D01*
Y1493000D01*
X894600D01*
Y1493400D01*
X894800D01*
Y1493600D01*
X895000D01*
Y1494000D01*
X895200D01*
Y1494400D01*
X895400D01*
Y1494800D01*
X895600D01*
Y1495200D01*
X895800D01*
Y1495600D01*
X896000D01*
Y1496000D01*
X896200D01*
Y1496600D01*
X896400D01*
Y1497200D01*
X896600D01*
Y1497800D01*
X896800D01*
Y1498400D01*
X897000D01*
Y1499200D01*
X897200D01*
Y1500000D01*
X897400D01*
Y1500800D01*
X897600D01*
Y1501600D01*
X897800D01*
Y1502400D01*
X898000D01*
Y1503200D01*
X898200D01*
Y1504000D01*
X898400D01*
Y1504800D01*
X898600D01*
Y1505600D01*
X898800D01*
Y1506400D01*
X899000D01*
Y1507200D01*
X899200D01*
Y1508000D01*
X899400D01*
Y1508800D01*
X899600D01*
Y1509600D01*
X899800D01*
Y1510400D01*
X900000D01*
Y1511200D01*
X900200D01*
Y1512000D01*
X900400D01*
Y1512800D01*
X900600D01*
Y1513600D01*
X900800D01*
Y1514400D01*
X901000D01*
Y1515200D01*
X901200D01*
Y1516000D01*
X901400D01*
Y1516800D01*
X901600D01*
Y1517600D01*
X901800D01*
Y1518400D01*
X902000D01*
Y1519200D01*
X902200D01*
Y1520000D01*
X902400D01*
Y1520800D01*
X902600D01*
Y1521600D01*
X902800D01*
Y1522400D01*
X903000D01*
Y1523200D01*
X903200D01*
Y1524000D01*
X903400D01*
Y1524800D01*
X903600D01*
Y1525600D01*
X903800D01*
Y1526400D01*
X904000D01*
Y1527200D01*
X904200D01*
Y1527800D01*
X904400D01*
Y1528600D01*
X904600D01*
Y1529400D01*
X904800D01*
Y1530200D01*
X905000D01*
Y1531000D01*
X905200D01*
Y1531800D01*
X905400D01*
Y1532600D01*
X905600D01*
Y1533400D01*
X905800D01*
Y1534200D01*
X906000D01*
Y1535000D01*
X906200D01*
Y1535800D01*
X906400D01*
Y1536600D01*
X906600D01*
Y1537400D01*
X906800D01*
Y1538200D01*
X907000D01*
Y1539000D01*
X907200D01*
Y1539800D01*
X907400D01*
Y1540600D01*
X907600D01*
Y1541400D01*
X907800D01*
Y1542200D01*
X908000D01*
Y1543000D01*
X908200D01*
Y1543800D01*
X908400D01*
Y1544600D01*
X908600D01*
Y1545400D01*
X908800D01*
Y1546200D01*
X909000D01*
Y1547000D01*
X909200D01*
Y1547800D01*
X909400D01*
Y1548600D01*
X909600D01*
Y1549400D01*
X909800D01*
Y1550200D01*
X910000D01*
Y1551000D01*
X910200D01*
Y1551800D01*
X910400D01*
Y1552600D01*
X910600D01*
Y1553400D01*
X910800D01*
Y1554200D01*
X911000D01*
Y1554800D01*
X942800D01*
Y1554600D01*
X942600D01*
Y1553800D01*
X942400D01*
Y1553000D01*
X942200D01*
Y1552200D01*
X942000D01*
Y1551400D01*
X941800D01*
Y1550600D01*
X941600D01*
Y1549800D01*
X941400D01*
Y1549000D01*
X941200D01*
Y1548200D01*
X941000D01*
Y1547400D01*
X940800D01*
Y1546600D01*
X940600D01*
Y1545800D01*
X940400D01*
Y1545000D01*
X940200D01*
Y1544200D01*
X940000D01*
Y1543400D01*
X939800D01*
Y1542600D01*
X939600D01*
Y1542000D01*
X939400D01*
Y1541200D01*
X939200D01*
Y1540400D01*
X939000D01*
Y1539600D01*
X938800D01*
Y1538800D01*
X938600D01*
Y1538000D01*
X938400D01*
Y1537200D01*
X938200D01*
Y1536400D01*
X938000D01*
Y1535600D01*
X937800D01*
Y1534800D01*
X937600D01*
Y1534000D01*
X937400D01*
Y1533200D01*
X937200D01*
Y1532400D01*
X937000D01*
Y1531600D01*
X936800D01*
Y1530800D01*
X936600D01*
Y1530000D01*
X936400D01*
Y1529200D01*
X936200D01*
Y1528400D01*
X936000D01*
Y1527600D01*
X935800D01*
Y1526800D01*
X935600D01*
Y1526000D01*
X935400D01*
Y1525200D01*
X935200D01*
Y1524400D01*
X935000D01*
Y1523600D01*
X934800D01*
Y1522800D01*
X934600D01*
Y1522000D01*
X934400D01*
Y1521200D01*
X934200D01*
Y1520400D01*
X934000D01*
Y1519600D01*
X933800D01*
Y1518800D01*
X933600D01*
Y1518000D01*
X933400D01*
Y1517200D01*
X933200D01*
Y1516400D01*
X933000D01*
Y1515600D01*
X932800D01*
Y1514800D01*
X932600D01*
Y1514000D01*
X932400D01*
Y1513200D01*
X932200D01*
Y1512400D01*
X932000D01*
Y1511600D01*
X931800D01*
Y1510800D01*
X931600D01*
Y1510000D01*
X931400D01*
Y1509200D01*
X931200D01*
Y1508400D01*
X931000D01*
Y1507600D01*
X930800D01*
Y1506800D01*
X930600D01*
Y1506000D01*
X930400D01*
Y1505200D01*
X930200D01*
Y1504400D01*
X930000D01*
Y1503600D01*
X929800D01*
Y1502800D01*
X929600D01*
Y1502200D01*
X929400D01*
Y1501400D01*
X929200D01*
Y1500600D01*
X929000D01*
Y1499800D01*
X928800D01*
Y1499000D01*
X928600D01*
Y1498000D01*
X928400D01*
Y1497200D01*
X928200D01*
Y1495800D01*
X928000D01*
Y1493200D01*
X928200D01*
Y1492400D01*
X928400D01*
Y1491800D01*
X928600D01*
Y1491400D01*
X928800D01*
Y1491000D01*
X929000D01*
Y1490600D01*
X929200D01*
Y1490400D01*
X929400D01*
Y1490200D01*
X929600D01*
Y1490000D01*
X929800D01*
Y1489800D01*
X930200D01*
Y1489600D01*
X930400D01*
Y1489400D01*
X930800D01*
Y1489200D01*
X931400D01*
Y1489000D01*
X932000D01*
Y1488800D01*
X933000D01*
Y1488600D01*
X937200D01*
Y1488800D01*
X938400D01*
Y1489000D01*
X939000D01*
Y1489200D01*
X939600D01*
Y1489400D01*
X940200D01*
Y1489600D01*
X940600D01*
Y1489800D01*
X941000D01*
Y1490000D01*
X941200D01*
Y1490200D01*
X941600D01*
Y1490400D01*
X941800D01*
Y1490600D01*
X942200D01*
Y1490800D01*
X942400D01*
Y1491000D01*
X942600D01*
Y1491200D01*
X942800D01*
Y1491400D01*
X943000D01*
Y1491600D01*
X943200D01*
Y1491800D01*
X943400D01*
Y1492000D01*
X943600D01*
Y1492200D01*
X943800D01*
Y1492400D01*
X944000D01*
Y1492600D01*
X944200D01*
Y1493000D01*
X944400D01*
Y1493200D01*
X944600D01*
Y1493600D01*
X944800D01*
Y1493800D01*
X945000D01*
Y1494200D01*
X945200D01*
Y1494600D01*
X945400D01*
Y1495000D01*
X945600D01*
Y1495400D01*
X945800D01*
Y1495800D01*
X946000D01*
Y1496400D01*
X946200D01*
Y1497000D01*
X946400D01*
Y1497600D01*
X946600D01*
Y1498200D01*
X946800D01*
Y1499000D01*
X947000D01*
Y1499800D01*
X947200D01*
Y1500600D01*
X947400D01*
Y1501400D01*
X947600D01*
Y1502200D01*
X947800D01*
Y1503000D01*
X948000D01*
Y1503800D01*
X948200D01*
Y1504600D01*
X948400D01*
Y1505400D01*
X948600D01*
Y1506200D01*
X948800D01*
Y1507000D01*
X949000D01*
Y1507800D01*
X949200D01*
Y1508600D01*
X949400D01*
Y1509400D01*
X949600D01*
Y1510200D01*
X949800D01*
Y1511000D01*
X950000D01*
Y1511800D01*
X950200D01*
Y1512600D01*
X950400D01*
Y1513400D01*
X950600D01*
Y1514200D01*
X950800D01*
Y1515000D01*
X951000D01*
Y1515800D01*
X951200D01*
Y1516600D01*
X951400D01*
Y1517400D01*
X951600D01*
Y1518000D01*
X951800D01*
Y1518800D01*
X952000D01*
Y1519600D01*
X952200D01*
Y1520400D01*
X952400D01*
Y1521200D01*
X952600D01*
Y1522000D01*
X952800D01*
Y1522800D01*
X953000D01*
Y1523600D01*
X953200D01*
Y1524400D01*
X953400D01*
Y1525200D01*
X953600D01*
Y1526000D01*
X953800D01*
Y1526800D01*
X954000D01*
Y1527600D01*
X954200D01*
Y1528400D01*
X954400D01*
Y1529200D01*
X954600D01*
Y1530000D01*
X954800D01*
Y1530800D01*
X955000D01*
Y1531600D01*
X955200D01*
Y1532400D01*
X955400D01*
Y1533200D01*
X955600D01*
Y1534000D01*
X955800D01*
Y1534800D01*
X956000D01*
Y1535600D01*
X956200D01*
Y1536400D01*
X956400D01*
Y1537200D01*
X956600D01*
Y1538000D01*
X956800D01*
Y1538800D01*
X957000D01*
Y1539600D01*
X957200D01*
Y1540400D01*
X957400D01*
Y1541200D01*
X957600D01*
Y1542000D01*
X957800D01*
Y1542800D01*
X958000D01*
Y1543600D01*
X958200D01*
Y1544400D01*
X958400D01*
Y1545200D01*
X958600D01*
Y1546000D01*
X958800D01*
Y1546800D01*
X959000D01*
Y1547600D01*
X959200D01*
Y1548400D01*
X959400D01*
Y1549200D01*
X959600D01*
Y1550000D01*
X959800D01*
Y1550800D01*
X960000D01*
Y1551600D01*
X960200D01*
Y1552400D01*
X960400D01*
Y1553200D01*
X960600D01*
Y1554000D01*
X960800D01*
Y1554800D01*
X992600D01*
Y1554000D01*
D02*
G37*
G36*
X1136000Y1554200D02*
X1135800D01*
Y1553400D01*
X1135600D01*
Y1552600D01*
X1135400D01*
Y1551800D01*
X1135200D01*
Y1551000D01*
X1135000D01*
Y1550200D01*
X1134800D01*
Y1549400D01*
X1134600D01*
Y1548600D01*
X1134400D01*
Y1547800D01*
X1134200D01*
Y1547000D01*
X1134000D01*
Y1546200D01*
X1133800D01*
Y1545400D01*
X1133600D01*
Y1544600D01*
X1133400D01*
Y1543800D01*
X1133200D01*
Y1543000D01*
X1133000D01*
Y1542200D01*
X1132800D01*
Y1541400D01*
X1132600D01*
Y1540600D01*
X1132400D01*
Y1539800D01*
X1132200D01*
Y1539000D01*
X1132000D01*
Y1538200D01*
X1131800D01*
Y1537400D01*
X1131600D01*
Y1536600D01*
X1131400D01*
Y1535800D01*
X1131200D01*
Y1535000D01*
X1131000D01*
Y1534200D01*
X1130800D01*
Y1533400D01*
X1130600D01*
Y1532600D01*
X1130400D01*
Y1531800D01*
X1130200D01*
Y1531000D01*
X1130000D01*
Y1530200D01*
X1129800D01*
Y1529400D01*
X1129600D01*
Y1528600D01*
X1129400D01*
Y1527800D01*
X1129200D01*
Y1527000D01*
X1129000D01*
Y1526200D01*
X1128800D01*
Y1525400D01*
X1128600D01*
Y1524600D01*
X1128400D01*
Y1523800D01*
X1128200D01*
Y1523000D01*
X1128000D01*
Y1522200D01*
X1127800D01*
Y1521400D01*
X1127600D01*
Y1520600D01*
X1127400D01*
Y1519800D01*
X1127200D01*
Y1519000D01*
X1127000D01*
Y1518200D01*
X1126800D01*
Y1517400D01*
X1126600D01*
Y1516600D01*
X1126400D01*
Y1515800D01*
X1126200D01*
Y1515000D01*
X1126000D01*
Y1514200D01*
X1125800D01*
Y1513400D01*
X1125600D01*
Y1512600D01*
X1125400D01*
Y1511800D01*
X1125200D01*
Y1511000D01*
X1125000D01*
Y1510200D01*
X1124800D01*
Y1509400D01*
X1124600D01*
Y1508600D01*
X1124400D01*
Y1507800D01*
X1124200D01*
Y1507000D01*
X1124000D01*
Y1506200D01*
X1123800D01*
Y1505400D01*
X1123600D01*
Y1504600D01*
X1123400D01*
Y1503800D01*
X1123200D01*
Y1503000D01*
X1123000D01*
Y1502200D01*
X1122800D01*
Y1501400D01*
X1122600D01*
Y1500600D01*
X1122400D01*
Y1499800D01*
X1122200D01*
Y1499000D01*
X1122000D01*
Y1498200D01*
X1121800D01*
Y1497400D01*
X1121600D01*
Y1496600D01*
X1121400D01*
Y1495800D01*
X1121200D01*
Y1495000D01*
X1121000D01*
Y1494200D01*
X1120800D01*
Y1493400D01*
X1120600D01*
Y1492600D01*
X1120400D01*
Y1491800D01*
X1120200D01*
Y1491000D01*
X1120000D01*
Y1490200D01*
X1119800D01*
Y1489400D01*
X1119600D01*
Y1488600D01*
X1119400D01*
Y1487800D01*
X1119200D01*
Y1487000D01*
X1119000D01*
Y1486200D01*
X1118800D01*
Y1485400D01*
X1118600D01*
Y1484600D01*
X1118400D01*
Y1483800D01*
X1118200D01*
Y1483000D01*
X1118000D01*
Y1482200D01*
X1117800D01*
Y1481400D01*
X1117600D01*
Y1480600D01*
X1117400D01*
Y1479800D01*
X1117200D01*
Y1479000D01*
X1117000D01*
Y1478200D01*
X1116800D01*
Y1477400D01*
X1116600D01*
Y1476600D01*
X1116400D01*
Y1475800D01*
X1116200D01*
Y1475000D01*
X1116000D01*
Y1474200D01*
X1115800D01*
Y1473400D01*
X1115600D01*
Y1472600D01*
X1115400D01*
Y1471800D01*
X1115200D01*
Y1471000D01*
X1115000D01*
Y1470200D01*
X1114800D01*
Y1469800D01*
X1083000D01*
Y1470000D01*
X1083200D01*
Y1470400D01*
Y1470600D01*
Y1470800D01*
X1083400D01*
Y1471600D01*
X1083600D01*
Y1472400D01*
X1083800D01*
Y1473200D01*
X1084000D01*
Y1474000D01*
X1084200D01*
Y1474800D01*
X1084400D01*
Y1475600D01*
X1084600D01*
Y1476400D01*
X1084800D01*
Y1477200D01*
X1085000D01*
Y1478000D01*
X1085200D01*
Y1478800D01*
X1085400D01*
Y1479600D01*
X1085600D01*
Y1480400D01*
X1085800D01*
Y1481200D01*
X1086000D01*
Y1482000D01*
X1086200D01*
Y1482800D01*
X1086400D01*
Y1483600D01*
X1086600D01*
Y1484400D01*
X1086800D01*
Y1485200D01*
X1087000D01*
Y1486000D01*
X1087200D01*
Y1486800D01*
X1087400D01*
Y1487600D01*
X1087600D01*
Y1488400D01*
X1087800D01*
Y1489200D01*
X1088000D01*
Y1489800D01*
X1088200D01*
Y1490600D01*
X1088400D01*
Y1491400D01*
X1088600D01*
Y1492200D01*
X1088800D01*
Y1493000D01*
X1089000D01*
Y1493800D01*
X1089200D01*
Y1494600D01*
X1089400D01*
Y1495400D01*
X1089600D01*
Y1496200D01*
X1089800D01*
Y1497000D01*
X1090000D01*
Y1497800D01*
X1090200D01*
Y1498600D01*
X1090400D01*
Y1499400D01*
X1090600D01*
Y1500200D01*
X1090800D01*
Y1501000D01*
X1091000D01*
Y1501800D01*
X1091200D01*
Y1502600D01*
X1091400D01*
Y1503400D01*
X1091600D01*
Y1504200D01*
X1091800D01*
Y1505000D01*
X1092000D01*
Y1505800D01*
X1092200D01*
Y1506600D01*
X1092400D01*
Y1507400D01*
X1092600D01*
Y1508200D01*
X1092800D01*
Y1509000D01*
X1093000D01*
Y1509800D01*
X1093200D01*
Y1510600D01*
X1093400D01*
Y1511400D01*
X1093600D01*
Y1512200D01*
X1093800D01*
Y1513000D01*
X1094000D01*
Y1513800D01*
X1094200D01*
Y1514600D01*
X1094400D01*
Y1515400D01*
X1094600D01*
Y1516200D01*
X1094800D01*
Y1517000D01*
X1095000D01*
Y1517800D01*
X1095200D01*
Y1518600D01*
X1095400D01*
Y1519400D01*
X1095600D01*
Y1520200D01*
X1095800D01*
Y1521000D01*
X1096000D01*
Y1521800D01*
X1096200D01*
Y1522600D01*
X1096400D01*
Y1523400D01*
X1096600D01*
Y1524200D01*
X1096800D01*
Y1525000D01*
X1097000D01*
Y1525800D01*
X1097200D01*
Y1526600D01*
X1097400D01*
Y1527400D01*
X1097600D01*
Y1528200D01*
X1097800D01*
Y1529000D01*
X1098000D01*
Y1529800D01*
X1098200D01*
Y1530600D01*
X1098400D01*
Y1531400D01*
X1098600D01*
Y1532200D01*
X1098800D01*
Y1533000D01*
X1099000D01*
Y1533800D01*
X1099200D01*
Y1534400D01*
X1099400D01*
Y1535200D01*
X1099600D01*
Y1536000D01*
X1099800D01*
Y1536800D01*
X1100000D01*
Y1537600D01*
X1100200D01*
Y1538400D01*
X1100400D01*
Y1539200D01*
X1100600D01*
Y1540000D01*
X1100800D01*
Y1540800D01*
X1101000D01*
Y1541600D01*
X1101200D01*
Y1542400D01*
X1101400D01*
Y1543200D01*
X1101600D01*
Y1544000D01*
X1101800D01*
Y1544800D01*
X1102000D01*
Y1545600D01*
X1102200D01*
Y1546400D01*
X1102400D01*
Y1547200D01*
X1102600D01*
Y1548000D01*
X1102800D01*
Y1548800D01*
X1103000D01*
Y1549600D01*
X1103200D01*
Y1550400D01*
X1103400D01*
Y1551200D01*
X1103600D01*
Y1552000D01*
X1103800D01*
Y1552800D01*
X1104000D01*
Y1553600D01*
X1104200D01*
Y1554400D01*
X1104400D01*
Y1554800D01*
X1136000D01*
Y1554200D01*
D02*
G37*
G36*
X1172200Y1555400D02*
X1174400D01*
Y1555200D01*
X1176000D01*
Y1555000D01*
X1177400D01*
Y1554800D01*
X1178400D01*
Y1554600D01*
X1179200D01*
Y1554400D01*
X1180000D01*
Y1554200D01*
X1180800D01*
Y1554000D01*
X1181400D01*
Y1553800D01*
X1182000D01*
Y1553600D01*
X1182400D01*
Y1553400D01*
X1183000D01*
Y1553200D01*
X1183400D01*
Y1553000D01*
X1183800D01*
Y1552800D01*
X1184200D01*
Y1552600D01*
X1184400D01*
Y1552400D01*
X1184800D01*
Y1552200D01*
X1185000D01*
Y1552000D01*
X1185400D01*
Y1551800D01*
X1185600D01*
Y1551600D01*
X1185800D01*
Y1551400D01*
X1186200D01*
Y1551200D01*
X1186400D01*
Y1551000D01*
X1186600D01*
Y1550800D01*
X1186800D01*
Y1550400D01*
X1187000D01*
Y1550200D01*
X1187200D01*
Y1550000D01*
X1187400D01*
Y1549600D01*
X1187600D01*
Y1549200D01*
X1187800D01*
Y1548800D01*
X1188000D01*
Y1548400D01*
X1188200D01*
Y1547800D01*
X1188400D01*
Y1547200D01*
X1188600D01*
Y1546200D01*
X1188800D01*
Y1544600D01*
X1189000D01*
Y1541600D01*
X1188800D01*
Y1539800D01*
X1188600D01*
Y1538400D01*
X1188400D01*
Y1537400D01*
X1188200D01*
Y1536400D01*
X1188000D01*
Y1535600D01*
X1187800D01*
Y1534800D01*
X1187600D01*
Y1534000D01*
X1187400D01*
Y1533200D01*
X1187200D01*
Y1532400D01*
X1187000D01*
Y1531600D01*
X1186800D01*
Y1530800D01*
X1186600D01*
Y1530000D01*
X1186400D01*
Y1529200D01*
X1186200D01*
Y1528400D01*
X1186000D01*
Y1527600D01*
X1185800D01*
Y1526800D01*
X1185600D01*
Y1526000D01*
X1185400D01*
Y1525200D01*
X1185200D01*
Y1524400D01*
X1185000D01*
Y1523600D01*
X1184800D01*
Y1522800D01*
X1184600D01*
Y1522000D01*
X1184400D01*
Y1521200D01*
X1184200D01*
Y1520400D01*
X1184000D01*
Y1519600D01*
X1183800D01*
Y1519000D01*
X1183600D01*
Y1518200D01*
X1183400D01*
Y1517400D01*
X1183200D01*
Y1516600D01*
X1183000D01*
Y1515800D01*
X1182800D01*
Y1515000D01*
X1182600D01*
Y1514200D01*
X1182400D01*
Y1513400D01*
X1182200D01*
Y1512600D01*
X1182000D01*
Y1511800D01*
X1181800D01*
Y1511000D01*
X1181600D01*
Y1510200D01*
X1181400D01*
Y1509400D01*
X1181200D01*
Y1508600D01*
X1181000D01*
Y1507800D01*
X1180800D01*
Y1507000D01*
X1180600D01*
Y1506200D01*
X1180400D01*
Y1505400D01*
X1180200D01*
Y1504600D01*
X1180000D01*
Y1503800D01*
X1179800D01*
Y1503000D01*
X1179600D01*
Y1502200D01*
X1179400D01*
Y1501400D01*
X1179200D01*
Y1500600D01*
X1179000D01*
Y1499800D01*
X1178800D01*
Y1499000D01*
X1178600D01*
Y1498400D01*
X1178400D01*
Y1497600D01*
X1178200D01*
Y1496800D01*
X1178000D01*
Y1496000D01*
X1177800D01*
Y1495200D01*
X1177600D01*
Y1494400D01*
X1177400D01*
Y1493600D01*
X1177200D01*
Y1492800D01*
X1177000D01*
Y1492000D01*
X1176800D01*
Y1491200D01*
X1176600D01*
Y1490400D01*
X1176400D01*
Y1489600D01*
X1176200D01*
Y1488800D01*
X1176000D01*
Y1488000D01*
X1175800D01*
Y1487200D01*
X1175600D01*
Y1486400D01*
X1175400D01*
Y1485600D01*
X1175200D01*
Y1484800D01*
X1175000D01*
Y1484000D01*
X1174800D01*
Y1483200D01*
X1174600D01*
Y1482400D01*
X1174400D01*
Y1481600D01*
X1174200D01*
Y1480800D01*
X1174000D01*
Y1480000D01*
X1173800D01*
Y1479200D01*
X1173600D01*
Y1478600D01*
X1173400D01*
Y1477800D01*
X1173200D01*
Y1477000D01*
X1173000D01*
Y1476200D01*
X1172800D01*
Y1475400D01*
X1172600D01*
Y1474600D01*
X1172400D01*
Y1473800D01*
X1172200D01*
Y1473000D01*
X1172000D01*
Y1472200D01*
X1171800D01*
Y1471400D01*
X1171600D01*
Y1470600D01*
X1171400D01*
Y1469800D01*
X1171200D01*
Y1469000D01*
X1171000D01*
Y1468200D01*
X1170800D01*
Y1467400D01*
X1170600D01*
Y1466600D01*
X1170400D01*
Y1465800D01*
X1170200D01*
Y1465000D01*
X1170000D01*
Y1464200D01*
X1169800D01*
Y1463400D01*
X1169600D01*
Y1462600D01*
X1169400D01*
Y1461800D01*
X1169200D01*
Y1461000D01*
X1169000D01*
Y1460200D01*
X1168800D01*
Y1459400D01*
X1168600D01*
Y1458600D01*
X1168400D01*
Y1458000D01*
X1168200D01*
Y1457200D01*
X1168000D01*
Y1456400D01*
X1167800D01*
Y1455600D01*
X1167600D01*
Y1454800D01*
X1167400D01*
Y1454000D01*
X1167200D01*
Y1453200D01*
X1167000D01*
Y1452400D01*
X1166800D01*
Y1451600D01*
X1166600D01*
Y1450800D01*
X1166400D01*
Y1450000D01*
X1166200D01*
Y1449200D01*
X1166000D01*
Y1448400D01*
X1165800D01*
Y1447600D01*
X1165600D01*
Y1446800D01*
X1165400D01*
Y1446000D01*
X1165200D01*
Y1445200D01*
X1165000D01*
Y1444400D01*
X1164800D01*
Y1443800D01*
X1164600D01*
Y1443600D01*
X1133000D01*
Y1444200D01*
X1133200D01*
Y1445000D01*
X1133400D01*
Y1445800D01*
X1133600D01*
Y1446600D01*
X1133800D01*
Y1447200D01*
X1134000D01*
Y1448000D01*
X1134200D01*
Y1448800D01*
X1134400D01*
Y1449600D01*
X1134600D01*
Y1450400D01*
X1134800D01*
Y1451200D01*
X1135000D01*
Y1452000D01*
X1135200D01*
Y1452800D01*
X1135400D01*
Y1453400D01*
X1135600D01*
Y1454200D01*
X1135800D01*
Y1455000D01*
X1136000D01*
Y1455800D01*
X1136200D01*
Y1456600D01*
X1136400D01*
Y1457400D01*
X1136600D01*
Y1458200D01*
X1136800D01*
Y1458800D01*
X1137000D01*
Y1459600D01*
X1137200D01*
Y1460400D01*
X1137400D01*
Y1461200D01*
X1137600D01*
Y1462000D01*
X1137800D01*
Y1462800D01*
X1138000D01*
Y1463600D01*
X1138200D01*
Y1464400D01*
X1138400D01*
Y1465000D01*
X1138600D01*
Y1465800D01*
X1138800D01*
Y1466600D01*
X1139000D01*
Y1467400D01*
X1139200D01*
Y1468200D01*
X1139400D01*
Y1469000D01*
X1139600D01*
Y1469800D01*
X1126600D01*
Y1470600D01*
X1126800D01*
Y1471400D01*
X1127000D01*
Y1472200D01*
X1127200D01*
Y1473000D01*
X1127400D01*
Y1473800D01*
X1127600D01*
Y1474600D01*
X1127800D01*
Y1475400D01*
X1128000D01*
Y1476200D01*
X1128200D01*
Y1477000D01*
X1128400D01*
Y1477800D01*
X1128600D01*
Y1478600D01*
X1128800D01*
Y1479400D01*
X1129000D01*
Y1480200D01*
X1129200D01*
Y1481000D01*
X1129400D01*
Y1481800D01*
X1129600D01*
Y1482600D01*
X1129800D01*
Y1483400D01*
X1130000D01*
Y1484200D01*
X1130200D01*
Y1485000D01*
X1130400D01*
Y1485800D01*
X1130600D01*
Y1486600D01*
X1130800D01*
Y1487400D01*
X1131000D01*
Y1488200D01*
X1131200D01*
Y1488800D01*
X1144600D01*
Y1489400D01*
X1144800D01*
Y1490200D01*
X1145000D01*
Y1491000D01*
X1145200D01*
Y1491800D01*
X1145400D01*
Y1492600D01*
X1145600D01*
Y1493600D01*
X1145800D01*
Y1494400D01*
X1146000D01*
Y1495200D01*
X1146200D01*
Y1496000D01*
X1146400D01*
Y1496800D01*
X1146600D01*
Y1497600D01*
X1146800D01*
Y1498400D01*
X1147000D01*
Y1499200D01*
X1147200D01*
Y1500000D01*
X1147400D01*
Y1500800D01*
X1147600D01*
Y1501600D01*
X1147800D01*
Y1502400D01*
X1148000D01*
Y1503200D01*
X1148200D01*
Y1504000D01*
X1148400D01*
Y1504800D01*
X1148600D01*
Y1505600D01*
X1148800D01*
Y1506400D01*
X1149000D01*
Y1507200D01*
X1149200D01*
Y1508000D01*
X1149400D01*
Y1508800D01*
X1149600D01*
Y1509600D01*
X1149800D01*
Y1510400D01*
X1150000D01*
Y1511200D01*
X1150200D01*
Y1512000D01*
X1150400D01*
Y1512800D01*
X1150600D01*
Y1513600D01*
X1150800D01*
Y1514400D01*
X1151000D01*
Y1515200D01*
X1151200D01*
Y1516000D01*
X1151400D01*
Y1516800D01*
X1151600D01*
Y1517600D01*
X1151800D01*
Y1518400D01*
X1152000D01*
Y1519200D01*
X1152200D01*
Y1520000D01*
X1152400D01*
Y1520800D01*
X1152600D01*
Y1521600D01*
X1152800D01*
Y1522400D01*
X1153000D01*
Y1523200D01*
X1153200D01*
Y1524000D01*
X1153400D01*
Y1524800D01*
X1153600D01*
Y1525600D01*
X1153800D01*
Y1526400D01*
X1154000D01*
Y1527200D01*
X1154200D01*
Y1528000D01*
X1154400D01*
Y1528800D01*
X1154600D01*
Y1529600D01*
X1154800D01*
Y1531200D01*
X1155000D01*
Y1531800D01*
X1154800D01*
Y1533000D01*
X1154600D01*
Y1533400D01*
X1154400D01*
Y1533800D01*
X1154200D01*
Y1534000D01*
X1154000D01*
Y1534400D01*
X1153800D01*
Y1534600D01*
X1153600D01*
Y1534800D01*
X1153200D01*
Y1535000D01*
X1153000D01*
Y1535200D01*
X1152600D01*
Y1535400D01*
X1152000D01*
Y1535600D01*
X1151400D01*
Y1535800D01*
X1150200D01*
Y1536000D01*
X1143000D01*
Y1536200D01*
X1143200D01*
Y1537000D01*
X1143400D01*
Y1537800D01*
X1143600D01*
Y1538600D01*
X1143800D01*
Y1539400D01*
X1144000D01*
Y1540200D01*
X1144200D01*
Y1541000D01*
X1144400D01*
Y1541800D01*
X1144600D01*
Y1542600D01*
X1144800D01*
Y1543400D01*
X1145000D01*
Y1544200D01*
X1145200D01*
Y1545000D01*
X1145400D01*
Y1545800D01*
X1145600D01*
Y1546600D01*
X1145800D01*
Y1547400D01*
X1146000D01*
Y1548200D01*
X1146200D01*
Y1549000D01*
X1146400D01*
Y1549800D01*
X1146600D01*
Y1550600D01*
X1146800D01*
Y1551200D01*
X1147000D01*
Y1552000D01*
X1147200D01*
Y1552800D01*
X1147400D01*
Y1553600D01*
X1147600D01*
Y1554400D01*
X1147800D01*
Y1554800D01*
X1148200D01*
Y1555000D01*
X1150800D01*
Y1555200D01*
X1154000D01*
Y1555400D01*
X1157800D01*
Y1555600D01*
X1172200D01*
Y1555400D01*
D02*
G37*
G36*
X1239600Y1554400D02*
X1239400D01*
Y1553800D01*
X1239200D01*
Y1553000D01*
X1239000D01*
Y1552200D01*
X1238800D01*
Y1551400D01*
X1238600D01*
Y1550600D01*
X1238400D01*
Y1549800D01*
X1238200D01*
Y1549000D01*
X1238000D01*
Y1548200D01*
X1237800D01*
Y1547400D01*
X1237600D01*
Y1546600D01*
X1237400D01*
Y1545800D01*
X1237200D01*
Y1545000D01*
X1237000D01*
Y1544200D01*
X1236800D01*
Y1543400D01*
X1236600D01*
Y1542600D01*
X1236400D01*
Y1541800D01*
X1236200D01*
Y1541000D01*
X1236000D01*
Y1540200D01*
X1235800D01*
Y1539400D01*
X1235600D01*
Y1538600D01*
X1235400D01*
Y1537800D01*
X1235200D01*
Y1537000D01*
X1235000D01*
Y1536200D01*
X1234800D01*
Y1535400D01*
X1234600D01*
Y1534600D01*
X1234400D01*
Y1533800D01*
X1234200D01*
Y1533000D01*
X1234000D01*
Y1532200D01*
X1233800D01*
Y1531400D01*
X1233600D01*
Y1530600D01*
X1233400D01*
Y1529800D01*
X1233200D01*
Y1529000D01*
X1233000D01*
Y1528200D01*
X1232800D01*
Y1527400D01*
X1232600D01*
Y1526600D01*
X1232400D01*
Y1525800D01*
X1232200D01*
Y1525000D01*
X1232000D01*
Y1524200D01*
X1231800D01*
Y1523400D01*
X1231600D01*
Y1522600D01*
X1231400D01*
Y1521800D01*
X1231200D01*
Y1521000D01*
X1231000D01*
Y1520200D01*
X1230800D01*
Y1519400D01*
X1230600D01*
Y1518600D01*
X1230400D01*
Y1517800D01*
X1230200D01*
Y1517000D01*
X1230000D01*
Y1516200D01*
X1229800D01*
Y1515400D01*
X1229600D01*
Y1514600D01*
X1229400D01*
Y1513800D01*
X1229200D01*
Y1513000D01*
X1229000D01*
Y1512200D01*
X1228800D01*
Y1511400D01*
X1228600D01*
Y1510600D01*
X1228400D01*
Y1509800D01*
X1228200D01*
Y1509000D01*
X1228000D01*
Y1508200D01*
X1227800D01*
Y1507400D01*
X1227600D01*
Y1506600D01*
X1227400D01*
Y1505800D01*
X1227200D01*
Y1505000D01*
X1227000D01*
Y1504200D01*
X1226800D01*
Y1503400D01*
X1226600D01*
Y1502600D01*
X1226400D01*
Y1501800D01*
X1226200D01*
Y1501000D01*
X1226000D01*
Y1500200D01*
X1225800D01*
Y1499400D01*
X1225600D01*
Y1498600D01*
X1225400D01*
Y1497800D01*
X1225200D01*
Y1497000D01*
X1225000D01*
Y1496200D01*
X1224800D01*
Y1495400D01*
X1224600D01*
Y1494600D01*
X1224400D01*
Y1493800D01*
X1224200D01*
Y1493000D01*
X1224000D01*
Y1492200D01*
X1223800D01*
Y1491400D01*
X1223600D01*
Y1490600D01*
X1223400D01*
Y1489800D01*
X1223200D01*
Y1489000D01*
X1223000D01*
Y1488200D01*
X1222800D01*
Y1487400D01*
X1222600D01*
Y1486600D01*
X1222400D01*
Y1485800D01*
X1222200D01*
Y1485000D01*
X1222000D01*
Y1484200D01*
X1221800D01*
Y1483400D01*
X1221600D01*
Y1482600D01*
X1221400D01*
Y1481800D01*
X1221200D01*
Y1481000D01*
X1221000D01*
Y1480200D01*
X1220800D01*
Y1479400D01*
X1220600D01*
Y1478600D01*
X1220400D01*
Y1477800D01*
X1220200D01*
Y1477000D01*
X1220000D01*
Y1476200D01*
X1219800D01*
Y1475400D01*
X1219600D01*
Y1474600D01*
X1219400D01*
Y1473800D01*
X1219200D01*
Y1473000D01*
X1219000D01*
Y1472200D01*
X1218800D01*
Y1471400D01*
X1218600D01*
Y1470600D01*
X1218400D01*
Y1469800D01*
X1218200D01*
Y1469000D01*
X1218000D01*
Y1468200D01*
X1217800D01*
Y1467400D01*
X1217600D01*
Y1466600D01*
X1217400D01*
Y1465800D01*
X1217200D01*
Y1465000D01*
X1217000D01*
Y1464200D01*
X1216800D01*
Y1463400D01*
X1216600D01*
Y1462600D01*
X1216400D01*
Y1461800D01*
X1216200D01*
Y1461000D01*
X1216000D01*
Y1460200D01*
X1215800D01*
Y1459400D01*
X1215600D01*
Y1458600D01*
X1215400D01*
Y1457800D01*
X1215200D01*
Y1457000D01*
X1215000D01*
Y1456200D01*
X1214800D01*
Y1455400D01*
X1214600D01*
Y1454600D01*
X1214400D01*
Y1453800D01*
X1214200D01*
Y1453000D01*
X1214000D01*
Y1452200D01*
X1213800D01*
Y1451400D01*
X1213600D01*
Y1450600D01*
X1213400D01*
Y1449800D01*
X1213200D01*
Y1449000D01*
X1213000D01*
Y1448200D01*
X1212800D01*
Y1447400D01*
X1212600D01*
Y1446600D01*
X1212400D01*
Y1445800D01*
X1212200D01*
Y1445000D01*
X1212000D01*
Y1444200D01*
X1211800D01*
Y1443400D01*
X1211600D01*
Y1442600D01*
X1179800D01*
Y1443400D01*
X1180000D01*
Y1444200D01*
X1180200D01*
Y1445000D01*
X1180400D01*
Y1445800D01*
X1180600D01*
Y1446600D01*
X1180800D01*
Y1447400D01*
X1181000D01*
Y1448200D01*
X1181200D01*
Y1449000D01*
X1181400D01*
Y1449800D01*
X1181600D01*
Y1450600D01*
X1181800D01*
Y1451400D01*
X1182000D01*
Y1452200D01*
X1182200D01*
Y1453000D01*
X1182400D01*
Y1453800D01*
X1182600D01*
Y1454600D01*
X1182800D01*
Y1455400D01*
X1183000D01*
Y1456000D01*
X1183200D01*
Y1456800D01*
X1183400D01*
Y1457600D01*
X1183600D01*
Y1458400D01*
X1183800D01*
Y1459200D01*
X1184000D01*
Y1460000D01*
X1184200D01*
Y1460800D01*
X1184400D01*
Y1461600D01*
X1184600D01*
Y1462400D01*
X1184800D01*
Y1463200D01*
X1185000D01*
Y1464000D01*
X1185200D01*
Y1464800D01*
X1185400D01*
Y1465600D01*
X1185600D01*
Y1466400D01*
X1185800D01*
Y1467200D01*
X1186000D01*
Y1468000D01*
X1186200D01*
Y1468800D01*
X1186400D01*
Y1469600D01*
X1186600D01*
Y1470400D01*
X1186800D01*
Y1471200D01*
X1187000D01*
Y1472000D01*
X1187200D01*
Y1472800D01*
X1187400D01*
Y1473600D01*
X1187600D01*
Y1474400D01*
X1187800D01*
Y1475200D01*
X1188000D01*
Y1476000D01*
X1188200D01*
Y1476800D01*
X1188400D01*
Y1477600D01*
X1188600D01*
Y1478400D01*
X1188800D01*
Y1479200D01*
X1189000D01*
Y1480000D01*
X1189200D01*
Y1480800D01*
X1189400D01*
Y1481600D01*
X1189600D01*
Y1482400D01*
X1189800D01*
Y1483200D01*
X1190000D01*
Y1484000D01*
X1190200D01*
Y1484800D01*
X1190400D01*
Y1485600D01*
X1190600D01*
Y1486400D01*
X1190800D01*
Y1487200D01*
X1191000D01*
Y1488000D01*
X1191200D01*
Y1488800D01*
X1191400D01*
Y1489600D01*
X1191600D01*
Y1490400D01*
X1191800D01*
Y1491200D01*
X1192000D01*
Y1492000D01*
X1192200D01*
Y1492800D01*
X1192400D01*
Y1493600D01*
X1192600D01*
Y1494400D01*
X1192800D01*
Y1495200D01*
X1193000D01*
Y1496000D01*
X1193200D01*
Y1496800D01*
X1193400D01*
Y1497600D01*
X1193600D01*
Y1498400D01*
X1193800D01*
Y1499000D01*
X1194000D01*
Y1499800D01*
X1194200D01*
Y1500600D01*
X1194400D01*
Y1501400D01*
X1194600D01*
Y1502200D01*
X1194800D01*
Y1503000D01*
X1195000D01*
Y1503800D01*
X1195200D01*
Y1504600D01*
X1195400D01*
Y1505400D01*
X1195600D01*
Y1506200D01*
X1195800D01*
Y1507000D01*
X1196000D01*
Y1507800D01*
X1196200D01*
Y1508600D01*
X1196400D01*
Y1509400D01*
X1196600D01*
Y1510200D01*
X1196800D01*
Y1511000D01*
X1197000D01*
Y1511800D01*
X1197200D01*
Y1512600D01*
X1197400D01*
Y1513400D01*
X1197600D01*
Y1514200D01*
X1197800D01*
Y1515000D01*
X1198000D01*
Y1515800D01*
X1198200D01*
Y1516600D01*
X1198400D01*
Y1517400D01*
X1198600D01*
Y1518200D01*
X1198800D01*
Y1519000D01*
X1199000D01*
Y1519800D01*
X1199200D01*
Y1520600D01*
X1199400D01*
Y1521400D01*
X1199600D01*
Y1522200D01*
X1199800D01*
Y1523000D01*
X1200000D01*
Y1523800D01*
X1200200D01*
Y1524600D01*
X1200400D01*
Y1525400D01*
X1200600D01*
Y1526200D01*
X1200800D01*
Y1527000D01*
X1201000D01*
Y1527800D01*
X1201200D01*
Y1528600D01*
X1201400D01*
Y1529400D01*
X1201600D01*
Y1530200D01*
X1201800D01*
Y1531000D01*
X1202000D01*
Y1531800D01*
X1202200D01*
Y1532600D01*
X1202400D01*
Y1533400D01*
X1202600D01*
Y1534200D01*
X1202800D01*
Y1535000D01*
X1203000D01*
Y1535800D01*
X1203200D01*
Y1536600D01*
X1203400D01*
Y1537400D01*
X1203600D01*
Y1538200D01*
X1203800D01*
Y1539000D01*
X1204000D01*
Y1539800D01*
X1204200D01*
Y1540600D01*
X1204400D01*
Y1541200D01*
X1204600D01*
Y1542000D01*
X1204800D01*
Y1542800D01*
X1205000D01*
Y1543600D01*
X1205200D01*
Y1544400D01*
X1205400D01*
Y1545200D01*
X1205600D01*
Y1546000D01*
X1205800D01*
Y1546800D01*
X1206000D01*
Y1547600D01*
X1206200D01*
Y1548400D01*
X1206400D01*
Y1549200D01*
X1206600D01*
Y1550000D01*
X1206800D01*
Y1550800D01*
X1207000D01*
Y1551600D01*
X1207200D01*
Y1552400D01*
X1207400D01*
Y1553200D01*
X1207600D01*
Y1554000D01*
X1207800D01*
Y1554800D01*
X1239600D01*
Y1554400D01*
D02*
G37*
G36*
X698691Y1262719D02*
X700029D01*
Y1262528D01*
X700985D01*
Y1262337D01*
X701559D01*
Y1262146D01*
X702132D01*
Y1261955D01*
X702514D01*
Y1261764D01*
X703088D01*
Y1261572D01*
X703470D01*
Y1261381D01*
X703661D01*
Y1261190D01*
X704044D01*
Y1260999D01*
X704426D01*
Y1260808D01*
X704617D01*
Y1260617D01*
X705000D01*
Y1260425D01*
X705191D01*
Y1260234D01*
X705573D01*
Y1260043D01*
X705764D01*
Y1259852D01*
X705956D01*
Y1259661D01*
X706147D01*
Y1259470D01*
X706529D01*
Y1259278D01*
X706720D01*
Y1259087D01*
X706911D01*
Y1258896D01*
X707103D01*
Y1258705D01*
X707294D01*
Y1258514D01*
X707485D01*
Y1258323D01*
X707676D01*
Y1257940D01*
X707867D01*
Y1257749D01*
X708058D01*
Y1257558D01*
X708250D01*
Y1257175D01*
X708441D01*
Y1256984D01*
X708632D01*
Y1256602D01*
X708823D01*
Y1256411D01*
X709014D01*
Y1256028D01*
X709206D01*
Y1255646D01*
X709397D01*
Y1255264D01*
X709588D01*
Y1254881D01*
X709779D01*
Y1254308D01*
X709970D01*
Y1253925D01*
X710162D01*
Y1253352D01*
X710353D01*
Y1252587D01*
X710544D01*
Y1251249D01*
X710735D01*
Y1228690D01*
X710544D01*
Y1225249D01*
X700220D01*
Y1241881D01*
X700029D01*
Y1250102D01*
X699838D01*
Y1250676D01*
X699647D01*
Y1251058D01*
X699456D01*
Y1251249D01*
X699265D01*
Y1251440D01*
X699073D01*
Y1251631D01*
X698882D01*
Y1251823D01*
X698500D01*
Y1252014D01*
X696397D01*
Y1251823D01*
X696206D01*
Y1251440D01*
X696014D01*
Y1251058D01*
X695823D01*
Y1250102D01*
X695632D01*
Y1236720D01*
X695441D01*
Y1235381D01*
X695250D01*
Y1234617D01*
X695059D01*
Y1234043D01*
X694867D01*
Y1233470D01*
X694676D01*
Y1233087D01*
X694485D01*
Y1232705D01*
X694294D01*
Y1232323D01*
X694103D01*
Y1231940D01*
X693912D01*
Y1231749D01*
Y1231558D01*
X693720D01*
Y1231367D01*
X693529D01*
Y1230984D01*
X693338D01*
Y1230793D01*
X693147D01*
Y1230602D01*
X692956D01*
Y1230411D01*
X692765D01*
Y1230029D01*
X692573D01*
Y1229837D01*
X692382D01*
Y1229646D01*
X692191D01*
Y1229455D01*
X692000D01*
Y1229264D01*
X691809D01*
Y1229073D01*
X691618D01*
Y1228882D01*
X691426D01*
Y1228690D01*
X691235D01*
Y1228499D01*
X691044D01*
Y1228308D01*
X690853D01*
Y1228117D01*
X690470D01*
Y1227926D01*
X690279D01*
Y1227734D01*
X690088D01*
Y1227543D01*
X689706D01*
Y1227352D01*
X689514D01*
Y1227161D01*
X689132D01*
Y1226970D01*
X688750D01*
Y1226778D01*
X688559D01*
Y1226587D01*
X688176D01*
Y1226396D01*
X687794D01*
Y1226205D01*
X687412D01*
Y1226014D01*
X686838D01*
Y1225823D01*
X686265D01*
Y1225631D01*
X685500D01*
Y1225440D01*
X684544D01*
Y1225249D01*
X680338D01*
Y1225440D01*
X679191D01*
Y1225631D01*
X678426D01*
Y1225823D01*
X677853D01*
Y1226014D01*
X677279D01*
Y1226205D01*
X676897D01*
Y1226396D01*
X676515D01*
Y1226587D01*
X676132D01*
Y1226778D01*
X675750D01*
Y1226970D01*
X675559D01*
Y1227161D01*
X675176D01*
Y1227352D01*
X674794D01*
Y1227543D01*
X674603D01*
Y1227734D01*
X674412D01*
Y1227926D01*
X674029D01*
Y1228117D01*
X673838D01*
Y1228308D01*
X673647D01*
Y1228499D01*
X673456D01*
Y1228690D01*
X673265D01*
Y1228882D01*
X673074D01*
Y1229073D01*
X672882D01*
Y1229264D01*
X672691D01*
Y1229455D01*
X672500D01*
Y1229646D01*
X672309D01*
Y1229837D01*
X672118D01*
Y1230029D01*
X671926D01*
Y1230411D01*
X671735D01*
Y1230602D01*
X671544D01*
Y1230793D01*
X671353D01*
Y1231176D01*
X671162D01*
Y1231367D01*
X670971D01*
Y1231749D01*
X670779D01*
Y1232132D01*
X670588D01*
Y1232323D01*
X670397D01*
Y1232705D01*
X670206D01*
Y1233087D01*
X670015D01*
Y1233661D01*
X669824D01*
Y1234043D01*
X669632D01*
Y1234808D01*
X669441D01*
Y1235573D01*
X669250D01*
Y1236911D01*
X669059D01*
Y1260043D01*
X679765D01*
Y1237867D01*
X679956D01*
Y1237484D01*
X680147D01*
Y1237102D01*
X680338D01*
Y1236720D01*
X680529D01*
Y1236528D01*
X680912D01*
Y1236337D01*
X681103D01*
Y1236146D01*
X681868D01*
Y1235955D01*
X682632D01*
Y1236146D01*
X683588D01*
Y1236337D01*
X683779D01*
Y1236528D01*
X684162D01*
Y1236720D01*
X684353D01*
Y1236911D01*
X684544D01*
Y1237293D01*
X684735D01*
Y1237867D01*
X684926D01*
Y1250293D01*
X685117D01*
Y1252014D01*
X685309D01*
Y1252970D01*
X685500D01*
Y1253734D01*
X685691D01*
Y1254308D01*
X685882D01*
Y1254881D01*
X686073D01*
Y1255455D01*
X686265D01*
Y1255837D01*
X686456D01*
Y1256219D01*
X686647D01*
Y1256602D01*
X686838D01*
Y1256984D01*
X687029D01*
Y1257175D01*
X687220D01*
Y1257558D01*
X687412D01*
Y1257749D01*
X687603D01*
Y1258131D01*
X687794D01*
Y1258323D01*
X687985D01*
Y1258514D01*
X688176D01*
Y1258896D01*
X688367D01*
Y1259087D01*
X688559D01*
Y1259278D01*
X688750D01*
Y1259470D01*
X688941D01*
Y1259661D01*
X689132D01*
Y1259852D01*
X689323D01*
Y1260043D01*
X689706D01*
Y1260234D01*
X689897D01*
Y1260425D01*
X690088D01*
Y1260617D01*
X690470D01*
Y1260808D01*
X690662D01*
Y1260999D01*
X691044D01*
Y1261190D01*
X691235D01*
Y1261381D01*
X691618D01*
Y1261572D01*
X692000D01*
Y1261764D01*
X692573D01*
Y1261955D01*
X692956D01*
Y1262146D01*
X693529D01*
Y1262337D01*
X694294D01*
Y1262528D01*
X695250D01*
Y1262719D01*
X696970D01*
Y1262911D01*
X698691D01*
Y1262719D01*
D02*
G37*
G36*
X1542709Y1229543D02*
X1542531D01*
Y1227949D01*
X1542354D01*
Y1226886D01*
X1542177D01*
Y1226000D01*
X1542000D01*
Y1225291D01*
X1541823D01*
Y1224583D01*
X1541646D01*
Y1224051D01*
X1541469D01*
Y1223520D01*
X1541291D01*
Y1223165D01*
X1541114D01*
Y1222634D01*
X1540937D01*
Y1222279D01*
X1540760D01*
Y1221925D01*
X1540583D01*
Y1221571D01*
X1540405D01*
Y1221216D01*
X1540228D01*
Y1220862D01*
X1540051D01*
Y1220508D01*
X1539874D01*
Y1220153D01*
X1539697D01*
Y1219976D01*
X1539520D01*
Y1219622D01*
X1539342D01*
Y1219445D01*
X1539165D01*
Y1219090D01*
X1538988D01*
Y1218913D01*
X1538811D01*
Y1218736D01*
X1538634D01*
Y1218559D01*
X1538457D01*
Y1218204D01*
X1538279D01*
Y1218027D01*
X1538102D01*
Y1217850D01*
X1537925D01*
Y1217673D01*
X1537748D01*
Y1217496D01*
X1537571D01*
Y1217319D01*
X1537394D01*
Y1217141D01*
X1537216D01*
Y1216964D01*
X1537039D01*
Y1216787D01*
X1536862D01*
Y1216610D01*
X1536685D01*
Y1216433D01*
X1536331D01*
Y1216256D01*
X1536153D01*
Y1216078D01*
X1535976D01*
Y1215901D01*
X1535622D01*
Y1215724D01*
X1535445D01*
Y1215547D01*
X1535267D01*
Y1215370D01*
X1534913D01*
Y1215193D01*
X1534559D01*
Y1215015D01*
X1534382D01*
Y1214838D01*
X1534027D01*
Y1214661D01*
X1533673D01*
Y1214484D01*
X1533319D01*
Y1214307D01*
X1532964D01*
Y1214130D01*
X1532433D01*
Y1213952D01*
X1532078D01*
Y1213775D01*
X1531547D01*
Y1213598D01*
X1531015D01*
Y1213421D01*
X1530484D01*
Y1213244D01*
X1529775D01*
Y1213067D01*
X1528889D01*
Y1212889D01*
X1527649D01*
Y1212712D01*
X1523220D01*
Y1212889D01*
X1521980D01*
Y1213067D01*
X1521094D01*
Y1213244D01*
X1520385D01*
Y1213421D01*
X1519854D01*
Y1213598D01*
X1519322D01*
Y1213775D01*
X1518791D01*
Y1213952D01*
X1518259D01*
Y1214130D01*
X1517905D01*
Y1214307D01*
X1517551D01*
Y1214484D01*
X1517196D01*
Y1214661D01*
X1516842D01*
Y1214838D01*
X1516487D01*
Y1215015D01*
X1516310D01*
Y1215193D01*
X1515956D01*
Y1215370D01*
X1515779D01*
Y1215547D01*
X1515424D01*
Y1215724D01*
X1515247D01*
Y1215901D01*
X1515070D01*
Y1216078D01*
X1514716D01*
Y1216256D01*
X1514539D01*
Y1216433D01*
X1514362D01*
Y1216610D01*
X1514184D01*
Y1216787D01*
X1514007D01*
Y1216964D01*
X1513830D01*
Y1217141D01*
X1513653D01*
Y1217319D01*
X1513476D01*
Y1217496D01*
X1513298D01*
Y1217673D01*
X1513121D01*
Y1217850D01*
X1512944D01*
Y1218027D01*
X1512767D01*
Y1218204D01*
X1512590D01*
Y1218382D01*
X1512413D01*
Y1218559D01*
X1512236D01*
Y1218913D01*
X1512058D01*
Y1219090D01*
X1511881D01*
Y1219268D01*
X1511704D01*
Y1219622D01*
X1511527D01*
Y1219799D01*
X1511350D01*
Y1220153D01*
X1511172D01*
Y1220508D01*
X1510995D01*
Y1220685D01*
X1510818D01*
Y1221039D01*
X1510641D01*
Y1221394D01*
X1510464D01*
Y1221748D01*
X1510287D01*
Y1222102D01*
X1510109D01*
Y1222634D01*
X1509932D01*
Y1222988D01*
X1509755D01*
Y1223520D01*
X1509578D01*
Y1224051D01*
X1509401D01*
Y1224583D01*
X1509223D01*
Y1225114D01*
X1509046D01*
Y1225823D01*
X1508869D01*
Y1226709D01*
X1508692D01*
Y1227772D01*
X1508515D01*
Y1229543D01*
X1508338D01*
Y1238402D01*
X1494518D01*
Y1251158D01*
X1542709D01*
Y1229543D01*
D02*
G37*
G36*
X710544Y1218176D02*
X710735D01*
Y1211293D01*
X710544D01*
Y1209382D01*
X710353D01*
Y1208426D01*
X710162D01*
Y1207661D01*
X709970D01*
Y1206896D01*
X709779D01*
Y1206323D01*
X709588D01*
Y1205749D01*
X709397D01*
Y1205367D01*
X709206D01*
Y1204985D01*
X709014D01*
Y1204411D01*
X708823D01*
Y1204029D01*
X708632D01*
Y1203838D01*
X708441D01*
Y1203455D01*
X708250D01*
Y1203073D01*
X708058D01*
Y1202691D01*
X707867D01*
Y1202499D01*
X707676D01*
Y1202117D01*
X707485D01*
Y1201926D01*
X707294D01*
Y1201543D01*
X707103D01*
Y1201352D01*
X706911D01*
Y1201161D01*
X706720D01*
Y1200779D01*
X706529D01*
Y1200588D01*
X706338D01*
Y1200396D01*
X706147D01*
Y1200205D01*
X705956D01*
Y1199823D01*
X705764D01*
Y1199632D01*
X705573D01*
Y1199441D01*
X705382D01*
Y1199249D01*
X705191D01*
Y1199058D01*
X705000D01*
Y1198867D01*
X704809D01*
Y1198676D01*
X704426D01*
Y1198485D01*
X704235D01*
Y1198294D01*
X704044D01*
Y1198102D01*
X703853D01*
Y1197911D01*
X703661D01*
Y1197720D01*
X703279D01*
Y1197529D01*
X703088D01*
Y1197338D01*
X702897D01*
Y1197146D01*
X702514D01*
Y1196955D01*
X702323D01*
Y1196764D01*
X701941D01*
Y1196573D01*
X701559D01*
Y1196382D01*
X701176D01*
Y1196190D01*
X700985D01*
Y1195999D01*
X700603D01*
Y1195808D01*
X700220D01*
Y1195617D01*
X699647D01*
Y1195426D01*
X699265D01*
Y1195235D01*
X698882D01*
Y1195043D01*
X698309D01*
Y1194852D01*
X697735D01*
Y1194661D01*
X697161D01*
Y1194470D01*
X696588D01*
Y1194279D01*
X695823D01*
Y1194088D01*
X693912D01*
Y1193896D01*
X689897D01*
Y1194088D01*
X679765D01*
Y1188735D01*
X669059D01*
Y1194088D01*
X652427D01*
Y1204411D01*
X669059D01*
Y1220661D01*
X679765D01*
Y1204411D01*
X683779D01*
Y1204602D01*
X692765D01*
Y1204793D01*
X693720D01*
Y1204985D01*
X694485D01*
Y1205176D01*
X695059D01*
Y1205367D01*
X695441D01*
Y1205558D01*
X695823D01*
Y1205749D01*
X696206D01*
Y1205940D01*
X696588D01*
Y1206132D01*
X696779D01*
Y1206323D01*
X697161D01*
Y1206514D01*
X697353D01*
Y1206705D01*
X697544D01*
Y1206896D01*
X697735D01*
Y1207087D01*
X697926D01*
Y1207279D01*
X698117D01*
Y1207470D01*
X698309D01*
Y1207661D01*
X698500D01*
Y1208043D01*
X698691D01*
Y1208235D01*
X698882D01*
Y1208617D01*
X699073D01*
Y1208999D01*
X699265D01*
Y1209382D01*
X699456D01*
Y1209955D01*
X699647D01*
Y1210529D01*
X699838D01*
Y1211485D01*
X700029D01*
Y1216264D01*
X700220D01*
Y1220661D01*
X710544D01*
Y1218176D01*
D02*
G37*
G36*
X1542709Y1193755D02*
X1524283D01*
Y1177101D01*
X1542709D01*
Y1164168D01*
X1494518D01*
Y1177101D01*
X1513298D01*
Y1193755D01*
X1494518D01*
Y1206689D01*
X1542709D01*
Y1193755D01*
D02*
G37*
G36*
X692956Y1185867D02*
X694294D01*
Y1185676D01*
X695059D01*
Y1185485D01*
X695823D01*
Y1185294D01*
X696397D01*
Y1185102D01*
X696970D01*
Y1184911D01*
X697544D01*
Y1184720D01*
X697926D01*
Y1184529D01*
X698500D01*
Y1184338D01*
X698882D01*
Y1184146D01*
X699265D01*
Y1183955D01*
X699647D01*
Y1183764D01*
X700029D01*
Y1183573D01*
X700412D01*
Y1183382D01*
X700603D01*
Y1183191D01*
X700985D01*
Y1182999D01*
X701367D01*
Y1182808D01*
X701559D01*
Y1182617D01*
X701941D01*
Y1182426D01*
X702132D01*
Y1182235D01*
X702514D01*
Y1182044D01*
X702706D01*
Y1181852D01*
X702897D01*
Y1181661D01*
X703279D01*
Y1181470D01*
X703470D01*
Y1181279D01*
X703661D01*
Y1181088D01*
X703853D01*
Y1180897D01*
X704235D01*
Y1180705D01*
X704426D01*
Y1180514D01*
X704617D01*
Y1180323D01*
X704809D01*
Y1180132D01*
X705000D01*
Y1179941D01*
X705191D01*
Y1179750D01*
X705382D01*
Y1179558D01*
X705573D01*
Y1179367D01*
X705764D01*
Y1179176D01*
X705956D01*
Y1178985D01*
X706147D01*
Y1178794D01*
X706338D01*
Y1178602D01*
X706529D01*
Y1178220D01*
X706720D01*
Y1178029D01*
X706911D01*
Y1177838D01*
X707103D01*
Y1177646D01*
X707294D01*
Y1177264D01*
X707485D01*
Y1177073D01*
X707676D01*
Y1176882D01*
X707867D01*
Y1176499D01*
X708058D01*
Y1176308D01*
X708250D01*
Y1175926D01*
X708441D01*
Y1175735D01*
X708632D01*
Y1175352D01*
X708823D01*
Y1174970D01*
X709014D01*
Y1174588D01*
X709206D01*
Y1174205D01*
X709397D01*
Y1174014D01*
X709588D01*
Y1173632D01*
X709779D01*
Y1173058D01*
X709970D01*
Y1172676D01*
X710162D01*
Y1172294D01*
X710353D01*
Y1171720D01*
X710544D01*
Y1171147D01*
X710735D01*
Y1170382D01*
X710926D01*
Y1169808D01*
X711117D01*
Y1169044D01*
X711309D01*
Y1167897D01*
X711500D01*
Y1165411D01*
X711691D01*
Y1164264D01*
X711500D01*
Y1161779D01*
X711309D01*
Y1160632D01*
X711117D01*
Y1159867D01*
X710926D01*
Y1159103D01*
X710735D01*
Y1158529D01*
X710544D01*
Y1157955D01*
X710353D01*
Y1157382D01*
X710162D01*
Y1157000D01*
X709970D01*
Y1156426D01*
X709779D01*
Y1156044D01*
X709588D01*
Y1155661D01*
X709397D01*
Y1155279D01*
X709206D01*
Y1154897D01*
X709014D01*
Y1154514D01*
X708823D01*
Y1154323D01*
X708632D01*
Y1153941D01*
X708441D01*
Y1153559D01*
X708250D01*
Y1153367D01*
X708058D01*
Y1152985D01*
X707867D01*
Y1152794D01*
X707676D01*
Y1152411D01*
X707485D01*
Y1152220D01*
X707294D01*
Y1152029D01*
X707103D01*
Y1151838D01*
X706911D01*
Y1151456D01*
X706720D01*
Y1151264D01*
X706529D01*
Y1151073D01*
X706338D01*
Y1150882D01*
X706147D01*
Y1150691D01*
X705956D01*
Y1150309D01*
X705764D01*
Y1150117D01*
X705573D01*
Y1149926D01*
X705382D01*
Y1149735D01*
X705191D01*
Y1149544D01*
X705000D01*
Y1149353D01*
X704809D01*
Y1149162D01*
X704617D01*
Y1148970D01*
X704235D01*
Y1148779D01*
X704044D01*
Y1148588D01*
X703853D01*
Y1148397D01*
X703661D01*
Y1148206D01*
X703470D01*
Y1148014D01*
X703088D01*
Y1147823D01*
X702897D01*
Y1147632D01*
X702706D01*
Y1147441D01*
X702323D01*
Y1147250D01*
X702132D01*
Y1147058D01*
X701750D01*
Y1146867D01*
X701367D01*
Y1146676D01*
X701176D01*
Y1146485D01*
X700794D01*
Y1146294D01*
X700412D01*
Y1146103D01*
X700029D01*
Y1145911D01*
X699647D01*
Y1145720D01*
X699265D01*
Y1145529D01*
X698882D01*
Y1145338D01*
X698500D01*
Y1145147D01*
X697926D01*
Y1144956D01*
X697544D01*
Y1144764D01*
X696970D01*
Y1144573D01*
X696397D01*
Y1144382D01*
X695823D01*
Y1144191D01*
X695059D01*
Y1144000D01*
X694294D01*
Y1143809D01*
X693147D01*
Y1143617D01*
X691809D01*
Y1143426D01*
X687029D01*
Y1143617D01*
X685691D01*
Y1143809D01*
X684735D01*
Y1144000D01*
X683779D01*
Y1144191D01*
X683015D01*
Y1144382D01*
X682441D01*
Y1144573D01*
X681868D01*
Y1144764D01*
X681294D01*
Y1144956D01*
X680912D01*
Y1145147D01*
X680338D01*
Y1145338D01*
X679956D01*
Y1145529D01*
X679573D01*
Y1145720D01*
X679191D01*
Y1145911D01*
X678809D01*
Y1146103D01*
X678426D01*
Y1146294D01*
X678044D01*
Y1146485D01*
X677662D01*
Y1146676D01*
X677470D01*
Y1146867D01*
X677088D01*
Y1147058D01*
X676706D01*
Y1147250D01*
X676515D01*
Y1147441D01*
X676323D01*
Y1147632D01*
X675941D01*
Y1147823D01*
X675750D01*
Y1148014D01*
X675559D01*
Y1148206D01*
X675176D01*
Y1148397D01*
X674985D01*
Y1148588D01*
X674794D01*
Y1148779D01*
X674603D01*
Y1148970D01*
X674412D01*
Y1149162D01*
X674029D01*
Y1149353D01*
X673838D01*
Y1149544D01*
X673647D01*
Y1149735D01*
X673456D01*
Y1149926D01*
X673265D01*
Y1150117D01*
X673074D01*
Y1150309D01*
X672882D01*
Y1150500D01*
X672691D01*
Y1150882D01*
X672500D01*
Y1151073D01*
X672309D01*
Y1151264D01*
X672118D01*
Y1151456D01*
X671926D01*
Y1151647D01*
X671735D01*
Y1152029D01*
X671544D01*
Y1152220D01*
X671353D01*
Y1152411D01*
X671162D01*
Y1152794D01*
X670971D01*
Y1152985D01*
X670779D01*
Y1153367D01*
X670588D01*
Y1153559D01*
X670397D01*
Y1153941D01*
X670206D01*
Y1154323D01*
X670015D01*
Y1154514D01*
X669824D01*
Y1154897D01*
X669632D01*
Y1155279D01*
X669441D01*
Y1155661D01*
X669250D01*
Y1156044D01*
X669059D01*
Y1156426D01*
X668868D01*
Y1157000D01*
X668677D01*
Y1157382D01*
X668485D01*
Y1157955D01*
X668294D01*
Y1158529D01*
X668103D01*
Y1159294D01*
X667912D01*
Y1160058D01*
X667721D01*
Y1160823D01*
X667529D01*
Y1162161D01*
X667338D01*
Y1167132D01*
X667529D01*
Y1168470D01*
X667721D01*
Y1169617D01*
X667912D01*
Y1170382D01*
X668103D01*
Y1170955D01*
X668294D01*
Y1171720D01*
X668485D01*
Y1172294D01*
X668677D01*
Y1172676D01*
X668868D01*
Y1173250D01*
X669059D01*
Y1173632D01*
X669250D01*
Y1174205D01*
X669441D01*
Y1174588D01*
X669632D01*
Y1174970D01*
X669824D01*
Y1175161D01*
X670015D01*
Y1175544D01*
X670206D01*
Y1175926D01*
X670397D01*
Y1176308D01*
X670588D01*
Y1176499D01*
X670779D01*
Y1176882D01*
X670971D01*
Y1177073D01*
X671162D01*
Y1177455D01*
X671353D01*
Y1177646D01*
X671544D01*
Y1177838D01*
X671735D01*
Y1178220D01*
X671926D01*
Y1178411D01*
X672118D01*
Y1178602D01*
X672309D01*
Y1178794D01*
X672500D01*
Y1178985D01*
X672691D01*
Y1179176D01*
X672882D01*
Y1179367D01*
X673074D01*
Y1179558D01*
X673265D01*
Y1179750D01*
X673456D01*
Y1179941D01*
X673647D01*
Y1180132D01*
X673838D01*
Y1180323D01*
X674029D01*
Y1180514D01*
X674221D01*
Y1180705D01*
X674412D01*
Y1180897D01*
X674603D01*
Y1181088D01*
X674794D01*
Y1181279D01*
X675176D01*
Y1181470D01*
X675368D01*
Y1181661D01*
X675559D01*
Y1181852D01*
X675750D01*
Y1182044D01*
X676132D01*
Y1182235D01*
X676323D01*
Y1182426D01*
X676706D01*
Y1182617D01*
X676897D01*
Y1182808D01*
X677279D01*
Y1182999D01*
X677470D01*
Y1183191D01*
X677853D01*
Y1183382D01*
X678235D01*
Y1183573D01*
X678618D01*
Y1183764D01*
X679000D01*
Y1183955D01*
X679382D01*
Y1184146D01*
X679765D01*
Y1184338D01*
X680147D01*
Y1184529D01*
X680721D01*
Y1184720D01*
X681103D01*
Y1184911D01*
X681676D01*
Y1185102D01*
X682250D01*
Y1185294D01*
X683015D01*
Y1185485D01*
X683779D01*
Y1185676D01*
X684735D01*
Y1185867D01*
X686073D01*
Y1186058D01*
X692956D01*
Y1185867D01*
D02*
G37*
G36*
X694867Y1138456D02*
X696588D01*
Y1138264D01*
X697544D01*
Y1138073D01*
X698309D01*
Y1137882D01*
X698882D01*
Y1137691D01*
X699456D01*
Y1137500D01*
X700029D01*
Y1137309D01*
X700603D01*
Y1137117D01*
X700985D01*
Y1136926D01*
X701367D01*
Y1136735D01*
X701750D01*
Y1136544D01*
X702132D01*
Y1136353D01*
X702323D01*
Y1136161D01*
X702706D01*
Y1135970D01*
X703088D01*
Y1135779D01*
X703279D01*
Y1135588D01*
X703470D01*
Y1135397D01*
X703853D01*
Y1135206D01*
X704044D01*
Y1135014D01*
X704235D01*
Y1134823D01*
X704617D01*
Y1134632D01*
X704809D01*
Y1134441D01*
X705000D01*
Y1134250D01*
X705191D01*
Y1134059D01*
X705382D01*
Y1133867D01*
X705573D01*
Y1133676D01*
X705764D01*
Y1133485D01*
X705956D01*
Y1133294D01*
X706147D01*
Y1133103D01*
X706338D01*
Y1132912D01*
X706529D01*
Y1132720D01*
X706720D01*
Y1132338D01*
X706911D01*
Y1132147D01*
X707103D01*
Y1131956D01*
X707294D01*
Y1131765D01*
X707485D01*
Y1131382D01*
X707676D01*
Y1131191D01*
X707867D01*
Y1131000D01*
X708058D01*
Y1130617D01*
X708250D01*
Y1130426D01*
X708441D01*
Y1130044D01*
X708632D01*
Y1129662D01*
X708823D01*
Y1129279D01*
X709014D01*
Y1129088D01*
X709206D01*
Y1128514D01*
X709397D01*
Y1128132D01*
X709588D01*
Y1127750D01*
X709779D01*
Y1127176D01*
X709970D01*
Y1126412D01*
X710162D01*
Y1125838D01*
X710353D01*
Y1125073D01*
X710544D01*
Y1123735D01*
X710735D01*
Y1108823D01*
X710544D01*
Y1093721D01*
X654912D01*
Y1124309D01*
X655103D01*
Y1125456D01*
X655294D01*
Y1126220D01*
X655485D01*
Y1126985D01*
X655676D01*
Y1127559D01*
X655868D01*
Y1127941D01*
X656059D01*
Y1128514D01*
X656250D01*
Y1128897D01*
X656441D01*
Y1129279D01*
X656632D01*
Y1129662D01*
X656824D01*
Y1129853D01*
X657015D01*
Y1130235D01*
X657206D01*
Y1130617D01*
X657397D01*
Y1130809D01*
X657588D01*
Y1131191D01*
X657779D01*
Y1131382D01*
X657971D01*
Y1131573D01*
X658162D01*
Y1131956D01*
X658353D01*
Y1132147D01*
X658544D01*
Y1132338D01*
X658735D01*
Y1132529D01*
X658926D01*
Y1132720D01*
X659118D01*
Y1133103D01*
X659309D01*
Y1133294D01*
X659500D01*
Y1133485D01*
X659691D01*
Y1133676D01*
X659882D01*
Y1133867D01*
X660074D01*
Y1134059D01*
X660456D01*
Y1134250D01*
X660647D01*
Y1134441D01*
X660838D01*
Y1134632D01*
X661030D01*
Y1134823D01*
X661221D01*
Y1135014D01*
X661603D01*
Y1135206D01*
X661794D01*
Y1135397D01*
X661985D01*
Y1135588D01*
X662368D01*
Y1135779D01*
X662559D01*
Y1135970D01*
X662941D01*
Y1136161D01*
X663132D01*
Y1136353D01*
X663515D01*
Y1136544D01*
X663897D01*
Y1136735D01*
X664279D01*
Y1136926D01*
X664662D01*
Y1137117D01*
X665044D01*
Y1137309D01*
X665426D01*
Y1137500D01*
X666000D01*
Y1137691D01*
X666573D01*
Y1137882D01*
X667147D01*
Y1138073D01*
X667721D01*
Y1138264D01*
X668677D01*
Y1138456D01*
X670397D01*
Y1138647D01*
X671926D01*
Y1138456D01*
X673647D01*
Y1138264D01*
X674603D01*
Y1138073D01*
X675368D01*
Y1137882D01*
X675941D01*
Y1137691D01*
X676515D01*
Y1137500D01*
X676897D01*
Y1137309D01*
X677470D01*
Y1137117D01*
X677853D01*
Y1136926D01*
X678235D01*
Y1136735D01*
X678618D01*
Y1136544D01*
X678809D01*
Y1136353D01*
X679191D01*
Y1136161D01*
X679382D01*
Y1135970D01*
X679765D01*
Y1135779D01*
X679956D01*
Y1135588D01*
X680147D01*
Y1135397D01*
X680338D01*
Y1135206D01*
X680721D01*
Y1135014D01*
X680912D01*
Y1134823D01*
X681103D01*
Y1134632D01*
X681294D01*
Y1134441D01*
X681485D01*
Y1134250D01*
X681676D01*
Y1134059D01*
X681868D01*
Y1133867D01*
X682059D01*
Y1133676D01*
X682250D01*
Y1133294D01*
X682441D01*
Y1133103D01*
X682632D01*
Y1132912D01*
X683015D01*
Y1133294D01*
X683206D01*
Y1133485D01*
X683397D01*
Y1133676D01*
X683588D01*
Y1133867D01*
X683779D01*
Y1134250D01*
X683970D01*
Y1134441D01*
X684162D01*
Y1134632D01*
X684353D01*
Y1134823D01*
X684544D01*
Y1135014D01*
X684926D01*
Y1135206D01*
X685117D01*
Y1135397D01*
X685309D01*
Y1135588D01*
X685500D01*
Y1135779D01*
X685882D01*
Y1135970D01*
X686073D01*
Y1136161D01*
X686456D01*
Y1136353D01*
X686647D01*
Y1136544D01*
X687029D01*
Y1136735D01*
X687412D01*
Y1136926D01*
X687794D01*
Y1137117D01*
X688176D01*
Y1137309D01*
X688559D01*
Y1137500D01*
X688941D01*
Y1137691D01*
X689323D01*
Y1137882D01*
X689897D01*
Y1138073D01*
X690470D01*
Y1138264D01*
X691426D01*
Y1138456D01*
X692956D01*
Y1138647D01*
X694867D01*
Y1138456D01*
D02*
G37*
G36*
X1521271Y1157967D02*
X1522688D01*
Y1157790D01*
X1523574D01*
Y1157612D01*
X1524460D01*
Y1157435D01*
X1525169D01*
Y1157258D01*
X1525700D01*
Y1157081D01*
X1526232D01*
Y1156904D01*
X1526763D01*
Y1156727D01*
X1527295D01*
Y1156549D01*
X1527826D01*
Y1156372D01*
X1528181D01*
Y1156195D01*
X1528535D01*
Y1156018D01*
X1529067D01*
Y1155841D01*
X1529421D01*
Y1155664D01*
X1529775D01*
Y1155486D01*
X1530130D01*
Y1155309D01*
X1530307D01*
Y1155132D01*
X1530661D01*
Y1154955D01*
X1531015D01*
Y1154778D01*
X1531370D01*
Y1154601D01*
X1531547D01*
Y1154423D01*
X1531901D01*
Y1154246D01*
X1532078D01*
Y1154069D01*
X1532433D01*
Y1153892D01*
X1532610D01*
Y1153715D01*
X1532964D01*
Y1153538D01*
X1533141D01*
Y1153360D01*
X1533319D01*
Y1153183D01*
X1533673D01*
Y1153006D01*
X1533850D01*
Y1152829D01*
X1534027D01*
Y1152652D01*
X1534205D01*
Y1152475D01*
X1534382D01*
Y1152297D01*
X1534736D01*
Y1152120D01*
X1534913D01*
Y1151943D01*
X1535090D01*
Y1151766D01*
X1535267D01*
Y1151589D01*
X1535445D01*
Y1151412D01*
X1535622D01*
Y1151234D01*
X1535799D01*
Y1151057D01*
X1535976D01*
Y1150880D01*
X1536153D01*
Y1150703D01*
X1536331D01*
Y1150526D01*
X1536508D01*
Y1150348D01*
X1536685D01*
Y1149994D01*
X1536862D01*
Y1149817D01*
X1537039D01*
Y1149640D01*
X1537216D01*
Y1149463D01*
X1537394D01*
Y1149285D01*
X1537571D01*
Y1148931D01*
X1537748D01*
Y1148754D01*
X1537925D01*
Y1148577D01*
X1538102D01*
Y1148222D01*
X1538279D01*
Y1148045D01*
X1538457D01*
Y1147868D01*
X1538634D01*
Y1147514D01*
X1538811D01*
Y1147337D01*
X1538988D01*
Y1146982D01*
X1539165D01*
Y1146628D01*
X1539342D01*
Y1146451D01*
X1539520D01*
Y1146096D01*
X1539697D01*
Y1145742D01*
X1539874D01*
Y1145565D01*
X1540051D01*
Y1145210D01*
X1540228D01*
Y1144856D01*
X1540405D01*
Y1144502D01*
X1540583D01*
Y1144147D01*
X1540760D01*
Y1143793D01*
X1540937D01*
Y1143262D01*
X1541114D01*
Y1142907D01*
X1541291D01*
Y1142553D01*
X1541469D01*
Y1142021D01*
X1541646D01*
Y1141490D01*
X1541823D01*
Y1140958D01*
X1542000D01*
Y1140427D01*
X1542177D01*
Y1139895D01*
X1542354D01*
Y1139187D01*
X1542531D01*
Y1138301D01*
X1542709D01*
Y1137592D01*
X1542886D01*
Y1136352D01*
X1543063D01*
Y1134935D01*
X1543240D01*
Y1129797D01*
X1543063D01*
Y1128202D01*
X1542886D01*
Y1127139D01*
X1542709D01*
Y1126253D01*
X1542531D01*
Y1125545D01*
X1542354D01*
Y1124836D01*
X1542177D01*
Y1124305D01*
X1542000D01*
Y1123773D01*
X1541823D01*
Y1123241D01*
X1541646D01*
Y1122710D01*
X1541469D01*
Y1122178D01*
X1541291D01*
Y1121824D01*
X1541114D01*
Y1121293D01*
X1540937D01*
Y1120938D01*
X1540760D01*
Y1120584D01*
X1540583D01*
Y1120230D01*
X1540405D01*
Y1119875D01*
X1540228D01*
Y1119521D01*
X1540051D01*
Y1119166D01*
X1539874D01*
Y1118812D01*
X1539697D01*
Y1118458D01*
X1539520D01*
Y1118281D01*
X1539342D01*
Y1117926D01*
X1539165D01*
Y1117749D01*
X1538988D01*
Y1117395D01*
X1538811D01*
Y1117040D01*
X1538634D01*
Y1116863D01*
X1538457D01*
Y1116686D01*
X1538279D01*
Y1116332D01*
X1538102D01*
Y1116155D01*
X1537925D01*
Y1115977D01*
X1537748D01*
Y1115623D01*
X1537571D01*
Y1115446D01*
X1537394D01*
Y1115269D01*
X1537216D01*
Y1115092D01*
X1537039D01*
Y1114737D01*
X1536862D01*
Y1114560D01*
X1536685D01*
Y1114383D01*
X1536508D01*
Y1114206D01*
X1536331D01*
Y1114029D01*
X1536153D01*
Y1113851D01*
X1535976D01*
Y1113674D01*
X1535799D01*
Y1113497D01*
X1535622D01*
Y1113320D01*
X1535445D01*
Y1113143D01*
X1535267D01*
Y1112966D01*
X1535090D01*
Y1112788D01*
X1534913D01*
Y1112611D01*
X1534736D01*
Y1112434D01*
X1534559D01*
Y1112257D01*
X1534382D01*
Y1112080D01*
X1534027D01*
Y1111903D01*
X1533850D01*
Y1111725D01*
X1533673D01*
Y1111548D01*
X1533496D01*
Y1111371D01*
X1533141D01*
Y1111194D01*
X1532964D01*
Y1111017D01*
X1532787D01*
Y1110840D01*
X1532433D01*
Y1110662D01*
X1532256D01*
Y1110485D01*
X1531901D01*
Y1110308D01*
X1531724D01*
Y1110131D01*
X1531370D01*
Y1109954D01*
X1531015D01*
Y1109777D01*
X1530838D01*
Y1109599D01*
X1530484D01*
Y1109422D01*
X1530130D01*
Y1109245D01*
X1529775D01*
Y1109068D01*
X1529421D01*
Y1108891D01*
X1529067D01*
Y1108714D01*
X1528712D01*
Y1108536D01*
X1528358D01*
Y1108359D01*
X1527826D01*
Y1108182D01*
X1527472D01*
Y1108005D01*
X1526940D01*
Y1107828D01*
X1526409D01*
Y1107651D01*
X1525878D01*
Y1107473D01*
X1525346D01*
Y1107296D01*
X1524637D01*
Y1107119D01*
X1523929D01*
Y1106942D01*
X1523043D01*
Y1106765D01*
X1521803D01*
Y1106587D01*
X1519677D01*
Y1106410D01*
X1517551D01*
Y1106587D01*
X1515424D01*
Y1106765D01*
X1514184D01*
Y1106942D01*
X1513298D01*
Y1107119D01*
X1512590D01*
Y1107296D01*
X1511881D01*
Y1107473D01*
X1511172D01*
Y1107651D01*
X1510641D01*
Y1107828D01*
X1510287D01*
Y1108005D01*
X1509755D01*
Y1108182D01*
X1509223D01*
Y1108359D01*
X1508869D01*
Y1108536D01*
X1508515D01*
Y1108714D01*
X1508161D01*
Y1108891D01*
X1507806D01*
Y1109068D01*
X1507452D01*
Y1109245D01*
X1507097D01*
Y1109422D01*
X1506743D01*
Y1109599D01*
X1506389D01*
Y1109777D01*
X1506035D01*
Y1109954D01*
X1505857D01*
Y1110131D01*
X1505503D01*
Y1110308D01*
X1505326D01*
Y1110485D01*
X1504971D01*
Y1110662D01*
X1504794D01*
Y1110840D01*
X1504440D01*
Y1111017D01*
X1504263D01*
Y1111194D01*
X1504086D01*
Y1111371D01*
X1503731D01*
Y1111548D01*
X1503554D01*
Y1111725D01*
X1503377D01*
Y1111903D01*
X1503200D01*
Y1112080D01*
X1502845D01*
Y1112257D01*
X1502668D01*
Y1112434D01*
X1502491D01*
Y1112611D01*
X1502314D01*
Y1112788D01*
X1502137D01*
Y1112966D01*
X1501960D01*
Y1113143D01*
X1501782D01*
Y1113320D01*
X1501605D01*
Y1113497D01*
X1501428D01*
Y1113674D01*
X1501251D01*
Y1113851D01*
X1501074D01*
Y1114029D01*
X1500896D01*
Y1114206D01*
X1500719D01*
Y1114383D01*
X1500542D01*
Y1114560D01*
X1500365D01*
Y1114737D01*
X1500188D01*
Y1114914D01*
X1500011D01*
Y1115269D01*
X1499834D01*
Y1115446D01*
X1499656D01*
Y1115623D01*
X1499479D01*
Y1115800D01*
X1499302D01*
Y1116155D01*
X1499125D01*
Y1116332D01*
X1498948D01*
Y1116509D01*
X1498770D01*
Y1116863D01*
X1498593D01*
Y1117040D01*
X1498416D01*
Y1117395D01*
X1498239D01*
Y1117572D01*
X1498062D01*
Y1117926D01*
X1497885D01*
Y1118103D01*
X1497708D01*
Y1118458D01*
X1497530D01*
Y1118812D01*
X1497353D01*
Y1119166D01*
X1497176D01*
Y1119521D01*
X1496999D01*
Y1119698D01*
X1496822D01*
Y1120052D01*
X1496644D01*
Y1120407D01*
X1496467D01*
Y1120938D01*
X1496290D01*
Y1121293D01*
X1496113D01*
Y1121647D01*
X1495936D01*
Y1122178D01*
X1495759D01*
Y1122533D01*
X1495582D01*
Y1123064D01*
X1495404D01*
Y1123596D01*
X1495227D01*
Y1124127D01*
X1495050D01*
Y1124659D01*
X1494873D01*
Y1125368D01*
X1494696D01*
Y1126076D01*
X1494518D01*
Y1126785D01*
X1494341D01*
Y1127848D01*
X1494164D01*
Y1129088D01*
X1493987D01*
Y1131746D01*
X1493810D01*
Y1132986D01*
X1493987D01*
Y1135643D01*
X1494164D01*
Y1136883D01*
X1494341D01*
Y1137769D01*
X1494518D01*
Y1138655D01*
X1494696D01*
Y1139364D01*
X1494873D01*
Y1140073D01*
X1495050D01*
Y1140604D01*
X1495227D01*
Y1141136D01*
X1495404D01*
Y1141667D01*
X1495582D01*
Y1142199D01*
X1495759D01*
Y1142553D01*
X1495936D01*
Y1143084D01*
X1496113D01*
Y1143439D01*
X1496290D01*
Y1143793D01*
X1496467D01*
Y1144147D01*
X1496644D01*
Y1144502D01*
X1496822D01*
Y1144856D01*
X1496999D01*
Y1145210D01*
X1497176D01*
Y1145565D01*
X1497353D01*
Y1145919D01*
X1497530D01*
Y1146096D01*
X1497708D01*
Y1146451D01*
X1497885D01*
Y1146805D01*
X1498062D01*
Y1146982D01*
X1498239D01*
Y1147337D01*
X1498416D01*
Y1147514D01*
X1498593D01*
Y1147868D01*
X1498770D01*
Y1148045D01*
X1498948D01*
Y1148400D01*
X1499125D01*
Y1148577D01*
X1499302D01*
Y1148754D01*
X1499479D01*
Y1148931D01*
X1499656D01*
Y1149285D01*
X1499834D01*
Y1149463D01*
X1500011D01*
Y1149640D01*
X1500188D01*
Y1149817D01*
X1500365D01*
Y1149994D01*
X1500542D01*
Y1150348D01*
X1500719D01*
Y1150526D01*
X1500896D01*
Y1150703D01*
X1501074D01*
Y1150880D01*
X1501251D01*
Y1151057D01*
X1501428D01*
Y1151234D01*
X1501605D01*
Y1151412D01*
X1501782D01*
Y1151589D01*
X1501960D01*
Y1151766D01*
X1502137D01*
Y1151943D01*
X1502314D01*
Y1152120D01*
X1502668D01*
Y1152297D01*
X1502845D01*
Y1152475D01*
X1503023D01*
Y1152652D01*
X1503200D01*
Y1152829D01*
X1503377D01*
Y1153006D01*
X1503554D01*
Y1153183D01*
X1503908D01*
Y1153360D01*
X1504086D01*
Y1153538D01*
X1504263D01*
Y1153715D01*
X1504617D01*
Y1153892D01*
X1504794D01*
Y1154069D01*
X1505149D01*
Y1154246D01*
X1505326D01*
Y1154423D01*
X1505680D01*
Y1154601D01*
X1505857D01*
Y1154778D01*
X1506212D01*
Y1154955D01*
X1506566D01*
Y1155132D01*
X1506920D01*
Y1155309D01*
X1507097D01*
Y1155486D01*
X1507452D01*
Y1155664D01*
X1507806D01*
Y1155841D01*
X1508338D01*
Y1156018D01*
X1508692D01*
Y1156195D01*
X1509046D01*
Y1156372D01*
X1509401D01*
Y1156549D01*
X1509932D01*
Y1156727D01*
X1510464D01*
Y1156904D01*
X1510995D01*
Y1157081D01*
X1511527D01*
Y1157258D01*
X1512058D01*
Y1157435D01*
X1512767D01*
Y1157612D01*
X1513653D01*
Y1157790D01*
X1514539D01*
Y1157967D01*
X1515956D01*
Y1158144D01*
X1521271D01*
Y1157967D01*
D02*
G37*
G36*
X1542709Y1089402D02*
Y1089225D01*
Y1066547D01*
X1531901D01*
Y1087453D01*
X1523929D01*
Y1070090D01*
X1513653D01*
Y1087453D01*
X1505326D01*
Y1065661D01*
X1494518D01*
Y1100387D01*
X1542709D01*
Y1089402D01*
D02*
G37*
G36*
X710926Y1087985D02*
X711117D01*
Y1078044D01*
X707103D01*
Y1077853D01*
X705000D01*
Y1077662D01*
X705191D01*
Y1077471D01*
X705382D01*
Y1077280D01*
X705573D01*
Y1077088D01*
X705764D01*
Y1076706D01*
X705956D01*
Y1076515D01*
X706147D01*
Y1076324D01*
X706338D01*
Y1076133D01*
X706529D01*
Y1075750D01*
X706720D01*
Y1075559D01*
X706911D01*
Y1075177D01*
X707103D01*
Y1074986D01*
X707294D01*
Y1074794D01*
X707485D01*
Y1074412D01*
X707676D01*
Y1074030D01*
X707867D01*
Y1073838D01*
X708058D01*
Y1073456D01*
X708250D01*
Y1073265D01*
X708441D01*
Y1072883D01*
X708632D01*
Y1072500D01*
X708823D01*
Y1072118D01*
X709014D01*
Y1071736D01*
X709206D01*
Y1071353D01*
X709397D01*
Y1070971D01*
X709588D01*
Y1070589D01*
X709779D01*
Y1070206D01*
X709970D01*
Y1069824D01*
X710162D01*
Y1069250D01*
X710353D01*
Y1068485D01*
X710544D01*
Y1067912D01*
X710735D01*
Y1066956D01*
X710926D01*
Y1066000D01*
X711117D01*
Y1064662D01*
X711309D01*
Y1060074D01*
X711117D01*
Y1058736D01*
X710926D01*
Y1057780D01*
X710735D01*
Y1057015D01*
X710544D01*
Y1056250D01*
X710353D01*
Y1055677D01*
X710162D01*
Y1055294D01*
X709970D01*
Y1054721D01*
X709779D01*
Y1054339D01*
X709588D01*
Y1053765D01*
X709397D01*
Y1053383D01*
X709206D01*
Y1053000D01*
X709014D01*
Y1052618D01*
X708823D01*
Y1052427D01*
X708632D01*
Y1052045D01*
X708441D01*
Y1051662D01*
X708250D01*
Y1051280D01*
X708058D01*
Y1051089D01*
X707867D01*
Y1050706D01*
X707676D01*
Y1050515D01*
X707485D01*
Y1050133D01*
X707294D01*
Y1049942D01*
X707103D01*
Y1049750D01*
X706911D01*
Y1049368D01*
X706720D01*
Y1049177D01*
X706529D01*
Y1048986D01*
X706338D01*
Y1048603D01*
X706147D01*
Y1048412D01*
X705956D01*
Y1048221D01*
X705764D01*
Y1048030D01*
X705573D01*
Y1047839D01*
X705382D01*
Y1047647D01*
X705191D01*
Y1047456D01*
X704809D01*
Y1047265D01*
X704617D01*
Y1047074D01*
X704426D01*
Y1046883D01*
X704235D01*
Y1046692D01*
X704044D01*
Y1046500D01*
X703661D01*
Y1046309D01*
X703470D01*
Y1046118D01*
X703279D01*
Y1045927D01*
X702897D01*
Y1045736D01*
X702706D01*
Y1045545D01*
X702323D01*
Y1045353D01*
X702132D01*
Y1045162D01*
X701750D01*
Y1044971D01*
X701367D01*
Y1044780D01*
X701176D01*
Y1044589D01*
X700794D01*
Y1044398D01*
X700412D01*
Y1044206D01*
X700029D01*
Y1044015D01*
X699647D01*
Y1043824D01*
X699073D01*
Y1043633D01*
X698691D01*
Y1043442D01*
X698309D01*
Y1043250D01*
X697735D01*
Y1043059D01*
X697161D01*
Y1042868D01*
X696588D01*
Y1042677D01*
X695823D01*
Y1042486D01*
X695059D01*
Y1042294D01*
X693912D01*
Y1042103D01*
X692765D01*
Y1041912D01*
X690662D01*
Y1041721D01*
X687985D01*
Y1041912D01*
X686073D01*
Y1042103D01*
X684926D01*
Y1042294D01*
X683970D01*
Y1042486D01*
X683206D01*
Y1042677D01*
X682441D01*
Y1042868D01*
X681868D01*
Y1043059D01*
X681294D01*
Y1043250D01*
X680912D01*
Y1043442D01*
X680338D01*
Y1043633D01*
X679956D01*
Y1043824D01*
X679573D01*
Y1044015D01*
X679191D01*
Y1044206D01*
X678809D01*
Y1044398D01*
X678426D01*
Y1044589D01*
X678044D01*
Y1044780D01*
X677662D01*
Y1044971D01*
X677279D01*
Y1045162D01*
X677088D01*
Y1045353D01*
X676706D01*
Y1045545D01*
X676515D01*
Y1045736D01*
X676132D01*
Y1045927D01*
X675941D01*
Y1046118D01*
X675559D01*
Y1046309D01*
X675368D01*
Y1046500D01*
X675176D01*
Y1046692D01*
X674794D01*
Y1046883D01*
X674603D01*
Y1047074D01*
X674412D01*
Y1047265D01*
X674221D01*
Y1047456D01*
X674029D01*
Y1047647D01*
X673838D01*
Y1047839D01*
X673647D01*
Y1048030D01*
X673456D01*
Y1048221D01*
X673265D01*
Y1048412D01*
X673074D01*
Y1048603D01*
X672882D01*
Y1048794D01*
X672691D01*
Y1048986D01*
X672500D01*
Y1049177D01*
X672309D01*
Y1049559D01*
X672118D01*
Y1049750D01*
X671926D01*
Y1049942D01*
X671735D01*
Y1050324D01*
X671544D01*
Y1050515D01*
X671353D01*
Y1050706D01*
X671162D01*
Y1051089D01*
X670971D01*
Y1051280D01*
X670779D01*
Y1051662D01*
X670588D01*
Y1051853D01*
X670397D01*
Y1052236D01*
X670206D01*
Y1052618D01*
X670015D01*
Y1052809D01*
X669824D01*
Y1053192D01*
X669632D01*
Y1053574D01*
X669441D01*
Y1053956D01*
X669250D01*
Y1054339D01*
X669059D01*
Y1054721D01*
X668868D01*
Y1055294D01*
X668677D01*
Y1055677D01*
X668485D01*
Y1056250D01*
X668294D01*
Y1056824D01*
X668103D01*
Y1057589D01*
X667912D01*
Y1058162D01*
X667721D01*
Y1059118D01*
X667529D01*
Y1060074D01*
X667338D01*
Y1064280D01*
X667529D01*
Y1065809D01*
X667721D01*
Y1066765D01*
X667912D01*
Y1067530D01*
X668103D01*
Y1068294D01*
X668294D01*
Y1068868D01*
X668485D01*
Y1069441D01*
X668677D01*
Y1070015D01*
X668868D01*
Y1070397D01*
X669059D01*
Y1070971D01*
X669250D01*
Y1071353D01*
X669441D01*
Y1071736D01*
X669632D01*
Y1072118D01*
X669824D01*
Y1072500D01*
X670015D01*
Y1072883D01*
X670206D01*
Y1073074D01*
X670397D01*
Y1073456D01*
X670588D01*
Y1073838D01*
X670779D01*
Y1074030D01*
X670971D01*
Y1074412D01*
X671162D01*
Y1074603D01*
X671353D01*
Y1074986D01*
X671544D01*
Y1075177D01*
X671735D01*
Y1075368D01*
X671926D01*
Y1075750D01*
X672118D01*
Y1075941D01*
X672309D01*
Y1076133D01*
X672500D01*
Y1076324D01*
X672691D01*
Y1076515D01*
X672882D01*
Y1076706D01*
X673074D01*
Y1077088D01*
X673265D01*
Y1077280D01*
X673456D01*
Y1077471D01*
X673647D01*
Y1077662D01*
X673838D01*
Y1077853D01*
X671353D01*
Y1078044D01*
X667529D01*
Y1088177D01*
X710926D01*
Y1087985D01*
D02*
G37*
G36*
X1543417Y1059283D02*
X1543772D01*
Y1058574D01*
X1543595D01*
Y1058397D01*
X1543417D01*
Y1058220D01*
X1543240D01*
Y1058043D01*
X1543063D01*
Y1057689D01*
X1542886D01*
Y1057511D01*
X1542709D01*
Y1057334D01*
X1542531D01*
Y1057157D01*
X1542354D01*
Y1056980D01*
X1542177D01*
Y1056626D01*
X1542000D01*
Y1056448D01*
X1541823D01*
Y1056271D01*
X1541646D01*
Y1056094D01*
X1541469D01*
Y1055740D01*
X1541291D01*
Y1055563D01*
X1541114D01*
Y1055385D01*
X1540937D01*
Y1055208D01*
X1540760D01*
Y1055031D01*
X1540583D01*
Y1054677D01*
X1540405D01*
Y1054500D01*
X1540228D01*
Y1054322D01*
X1540051D01*
Y1054145D01*
X1539874D01*
Y1053968D01*
X1539697D01*
Y1053614D01*
X1539520D01*
Y1053437D01*
X1539342D01*
Y1053259D01*
X1539165D01*
Y1053082D01*
X1538988D01*
Y1052728D01*
X1538811D01*
Y1052551D01*
X1538634D01*
Y1052374D01*
X1538457D01*
Y1052196D01*
X1538279D01*
Y1052019D01*
X1538102D01*
Y1051665D01*
X1537925D01*
Y1051488D01*
X1537748D01*
Y1051310D01*
X1537571D01*
Y1051133D01*
X1537394D01*
Y1050956D01*
X1537216D01*
Y1050602D01*
X1537039D01*
Y1050425D01*
X1536862D01*
Y1050247D01*
X1536685D01*
Y1050070D01*
X1536508D01*
Y1049716D01*
X1536331D01*
Y1049539D01*
X1536153D01*
Y1049362D01*
X1535976D01*
Y1049184D01*
X1535799D01*
Y1049007D01*
X1535622D01*
Y1048653D01*
X1535445D01*
Y1048476D01*
X1535267D01*
Y1048298D01*
X1535090D01*
Y1048121D01*
X1534913D01*
Y1047944D01*
X1534736D01*
Y1047590D01*
X1534559D01*
Y1047413D01*
X1534382D01*
Y1047235D01*
X1534205D01*
Y1047058D01*
X1534027D01*
Y1046704D01*
X1533850D01*
Y1046527D01*
X1533673D01*
Y1046350D01*
X1533496D01*
Y1046172D01*
X1533319D01*
Y1045995D01*
X1533141D01*
Y1045641D01*
X1532964D01*
Y1045464D01*
X1532787D01*
Y1045287D01*
X1532610D01*
Y1045109D01*
X1532433D01*
Y1044932D01*
X1532256D01*
Y1044578D01*
X1532078D01*
Y1044401D01*
X1531901D01*
Y1044224D01*
X1531724D01*
Y1044046D01*
X1531547D01*
Y1043869D01*
X1531370D01*
Y1043515D01*
X1531193D01*
Y1043338D01*
X1531015D01*
Y1043161D01*
X1530838D01*
Y1042983D01*
X1530661D01*
Y1042629D01*
X1530484D01*
Y1042452D01*
X1530307D01*
Y1042275D01*
X1530130D01*
Y1042098D01*
X1529952D01*
Y1041920D01*
X1529775D01*
Y1041566D01*
X1529598D01*
Y1041389D01*
X1529421D01*
Y1041212D01*
X1529244D01*
Y1041035D01*
X1529067D01*
Y1040857D01*
X1528889D01*
Y1040503D01*
X1528712D01*
Y1040326D01*
X1528535D01*
Y1040149D01*
X1528358D01*
Y1039972D01*
X1528181D01*
Y1039617D01*
X1528004D01*
Y1039440D01*
X1527826D01*
Y1039263D01*
X1527649D01*
Y1039086D01*
X1527472D01*
Y1038908D01*
X1527295D01*
Y1038554D01*
X1527118D01*
Y1038377D01*
X1526940D01*
Y1038200D01*
X1526763D01*
Y1038023D01*
X1526586D01*
Y1037846D01*
X1526409D01*
Y1037491D01*
X1526232D01*
Y1037314D01*
X1526055D01*
Y1037137D01*
X1525878D01*
Y1036960D01*
X1525700D01*
Y1036605D01*
X1525523D01*
Y1036428D01*
X1525346D01*
Y1036251D01*
X1525169D01*
Y1036074D01*
X1524992D01*
Y1035897D01*
X1524814D01*
Y1035542D01*
X1524637D01*
Y1035365D01*
X1524460D01*
Y1035188D01*
X1524283D01*
Y1035011D01*
X1524106D01*
Y1034834D01*
X1523929D01*
Y1034479D01*
X1523752D01*
Y1034302D01*
X1523574D01*
Y1034125D01*
X1523397D01*
Y1033948D01*
X1523220D01*
Y1033593D01*
X1523043D01*
Y1033416D01*
X1522866D01*
Y1033239D01*
X1522688D01*
Y1033062D01*
X1522511D01*
Y1032885D01*
X1522334D01*
Y1032530D01*
X1522157D01*
Y1032353D01*
X1521980D01*
Y1032176D01*
X1521803D01*
Y1031999D01*
X1521625D01*
Y1031822D01*
X1521448D01*
Y1031467D01*
X1521271D01*
Y1031290D01*
X1521094D01*
Y1031113D01*
X1520917D01*
Y1030936D01*
X1520740D01*
Y1030759D01*
X1520562D01*
Y1030404D01*
X1520385D01*
Y1030227D01*
X1520208D01*
Y1030050D01*
X1520031D01*
Y1029873D01*
X1519854D01*
Y1029519D01*
X1519677D01*
Y1029341D01*
X1519499D01*
Y1029164D01*
X1519322D01*
Y1028987D01*
X1519145D01*
Y1028810D01*
X1518968D01*
Y1028456D01*
X1518791D01*
Y1028278D01*
X1518613D01*
Y1028101D01*
X1542709D01*
Y1016054D01*
X1493278D01*
Y1016585D01*
X1493455D01*
Y1016762D01*
X1493633D01*
Y1017117D01*
X1493810D01*
Y1017294D01*
X1493987D01*
Y1017471D01*
X1494164D01*
Y1017648D01*
X1494341D01*
Y1018002D01*
X1494518D01*
Y1018180D01*
X1494696D01*
Y1018357D01*
X1494873D01*
Y1018534D01*
X1495050D01*
Y1018711D01*
X1495227D01*
Y1019065D01*
X1495404D01*
Y1019243D01*
X1495582D01*
Y1019420D01*
X1495759D01*
Y1019597D01*
X1495936D01*
Y1019774D01*
X1496113D01*
Y1020128D01*
X1496290D01*
Y1020306D01*
X1496467D01*
Y1020483D01*
X1496644D01*
Y1020660D01*
X1496822D01*
Y1021014D01*
X1496999D01*
Y1021192D01*
X1497176D01*
Y1021369D01*
X1497353D01*
Y1021546D01*
X1497530D01*
Y1021723D01*
X1497708D01*
Y1022077D01*
X1497885D01*
Y1022255D01*
X1498062D01*
Y1022432D01*
X1498239D01*
Y1022609D01*
X1498416D01*
Y1022786D01*
X1498593D01*
Y1023140D01*
X1498770D01*
Y1023318D01*
X1498948D01*
Y1023495D01*
X1499125D01*
Y1023672D01*
X1499302D01*
Y1024026D01*
X1499479D01*
Y1024203D01*
X1499656D01*
Y1024381D01*
X1499834D01*
Y1024558D01*
X1500011D01*
Y1024735D01*
X1500188D01*
Y1025089D01*
X1500365D01*
Y1025266D01*
X1500542D01*
Y1025444D01*
X1500719D01*
Y1025621D01*
X1500896D01*
Y1025975D01*
X1501074D01*
Y1026152D01*
X1501251D01*
Y1026329D01*
X1501428D01*
Y1026507D01*
X1501605D01*
Y1026684D01*
X1501782D01*
Y1027038D01*
X1501960D01*
Y1027215D01*
X1502137D01*
Y1027393D01*
X1502314D01*
Y1027570D01*
X1502491D01*
Y1027747D01*
X1502668D01*
Y1028101D01*
X1502845D01*
Y1028278D01*
X1503023D01*
Y1028456D01*
X1503200D01*
Y1028633D01*
X1503377D01*
Y1028987D01*
X1503554D01*
Y1029164D01*
X1503731D01*
Y1029341D01*
X1503908D01*
Y1029519D01*
X1504086D01*
Y1029696D01*
X1504263D01*
Y1030050D01*
X1504440D01*
Y1030227D01*
X1504617D01*
Y1030404D01*
X1504794D01*
Y1030582D01*
X1504971D01*
Y1030759D01*
X1505149D01*
Y1031113D01*
X1505326D01*
Y1031290D01*
X1505503D01*
Y1031467D01*
X1505680D01*
Y1031645D01*
X1505857D01*
Y1031999D01*
X1506035D01*
Y1032176D01*
X1506212D01*
Y1032353D01*
X1506389D01*
Y1032530D01*
X1506566D01*
Y1032708D01*
X1506743D01*
Y1033062D01*
X1506920D01*
Y1033239D01*
X1507097D01*
Y1033416D01*
X1507275D01*
Y1033593D01*
X1507452D01*
Y1033948D01*
X1507629D01*
Y1034125D01*
X1507806D01*
Y1034302D01*
X1507983D01*
Y1034479D01*
X1508161D01*
Y1034657D01*
X1508338D01*
Y1035011D01*
X1508515D01*
Y1035188D01*
X1508692D01*
Y1035365D01*
X1508869D01*
Y1035542D01*
X1509046D01*
Y1035720D01*
X1509223D01*
Y1036074D01*
X1509401D01*
Y1036251D01*
X1509578D01*
Y1036428D01*
X1509755D01*
Y1036605D01*
X1509932D01*
Y1036960D01*
X1510109D01*
Y1037137D01*
X1510287D01*
Y1037314D01*
X1510464D01*
Y1037491D01*
X1510641D01*
Y1037668D01*
X1510818D01*
Y1038023D01*
X1510995D01*
Y1038200D01*
X1511172D01*
Y1038377D01*
X1511350D01*
Y1038554D01*
X1511527D01*
Y1038908D01*
X1511704D01*
Y1039086D01*
X1511881D01*
Y1039263D01*
X1512058D01*
Y1039440D01*
X1512236D01*
Y1039617D01*
X1512413D01*
Y1039972D01*
X1512590D01*
Y1040149D01*
X1512767D01*
Y1040326D01*
X1512944D01*
Y1040503D01*
X1513121D01*
Y1040680D01*
X1513298D01*
Y1041035D01*
X1513476D01*
Y1041212D01*
X1513653D01*
Y1041389D01*
X1513830D01*
Y1041566D01*
X1514007D01*
Y1041920D01*
X1514184D01*
Y1042098D01*
X1514362D01*
Y1042275D01*
X1514539D01*
Y1042452D01*
X1514716D01*
Y1042629D01*
X1514893D01*
Y1042983D01*
X1515070D01*
Y1043161D01*
X1515247D01*
Y1043338D01*
X1515424D01*
Y1043515D01*
X1515602D01*
Y1043692D01*
X1515779D01*
Y1044046D01*
X1515956D01*
Y1044224D01*
X1516133D01*
Y1044401D01*
X1516310D01*
Y1044578D01*
X1516487D01*
Y1044932D01*
X1516665D01*
Y1045109D01*
X1516842D01*
Y1045287D01*
X1517019D01*
Y1045464D01*
X1517196D01*
Y1045641D01*
X1517373D01*
Y1045995D01*
X1517551D01*
Y1046172D01*
X1517728D01*
Y1046350D01*
X1517905D01*
Y1046527D01*
X1518082D01*
Y1046881D01*
X1518259D01*
Y1047058D01*
X1518436D01*
Y1047235D01*
X1494518D01*
Y1059460D01*
X1543417D01*
Y1059283D01*
D02*
G37*
G36*
X710544Y1025854D02*
X685882D01*
Y1025662D01*
X684926D01*
Y1025471D01*
X684353D01*
Y1025280D01*
X683779D01*
Y1025089D01*
X683206D01*
Y1024898D01*
X682823D01*
Y1024706D01*
X682632D01*
Y1024515D01*
X682250D01*
Y1024324D01*
X682059D01*
Y1024133D01*
X681676D01*
Y1023942D01*
X681485D01*
Y1023751D01*
X681294D01*
Y1023559D01*
X681103D01*
Y1023368D01*
X680912D01*
Y1023177D01*
X680721D01*
Y1022986D01*
X680529D01*
Y1022795D01*
X680338D01*
Y1022412D01*
X680147D01*
Y1022030D01*
X679956D01*
Y1021839D01*
X679765D01*
Y1021457D01*
X679573D01*
Y1020883D01*
X679382D01*
Y1020309D01*
X679191D01*
Y1019736D01*
X679000D01*
Y1018589D01*
X678809D01*
Y1016868D01*
X679000D01*
Y1015912D01*
X679191D01*
Y1015148D01*
X679382D01*
Y1014765D01*
X679573D01*
Y1014192D01*
X679765D01*
Y1013810D01*
X679956D01*
Y1013618D01*
X680147D01*
Y1013236D01*
X680338D01*
Y1013045D01*
X680529D01*
Y1012662D01*
X680721D01*
Y1012471D01*
X680912D01*
Y1012280D01*
X681103D01*
Y1012089D01*
X681294D01*
Y1011898D01*
X681485D01*
Y1011706D01*
X681676D01*
Y1011515D01*
X682059D01*
Y1011324D01*
X682250D01*
Y1011133D01*
X682632D01*
Y1010942D01*
X683015D01*
Y1010751D01*
X683397D01*
Y1010559D01*
X683779D01*
Y1010368D01*
X684353D01*
Y1010177D01*
X684926D01*
Y1009986D01*
X686073D01*
Y1009795D01*
X710544D01*
Y999280D01*
X652235D01*
Y1009795D01*
X670397D01*
Y1009986D01*
X670588D01*
Y1010177D01*
X670397D01*
Y1010559D01*
X670206D01*
Y1010751D01*
X670015D01*
Y1011133D01*
X669824D01*
Y1011515D01*
X669632D01*
Y1011706D01*
X669441D01*
Y1012089D01*
X669250D01*
Y1012662D01*
X669059D01*
Y1013045D01*
X668868D01*
Y1013618D01*
X668677D01*
Y1014192D01*
X668485D01*
Y1014957D01*
X668294D01*
Y1015912D01*
X668103D01*
Y1020309D01*
X668294D01*
Y1021265D01*
X668485D01*
Y1022030D01*
X668677D01*
Y1022795D01*
X668868D01*
Y1023368D01*
X669059D01*
Y1023942D01*
X669250D01*
Y1024324D01*
X669441D01*
Y1024898D01*
X669632D01*
Y1025280D01*
X669824D01*
Y1025662D01*
X670015D01*
Y1026236D01*
X670206D01*
Y1026618D01*
X670397D01*
Y1027001D01*
X670588D01*
Y1027192D01*
X670779D01*
Y1027574D01*
X670971D01*
Y1027956D01*
X671162D01*
Y1028148D01*
X671353D01*
Y1028530D01*
X671544D01*
Y1028721D01*
X671735D01*
Y1029103D01*
X671926D01*
Y1029295D01*
X672118D01*
Y1029486D01*
X672309D01*
Y1029868D01*
X672500D01*
Y1030059D01*
X672691D01*
Y1030250D01*
X672882D01*
Y1030442D01*
X673074D01*
Y1030633D01*
X673265D01*
Y1030824D01*
X673456D01*
Y1031015D01*
X673647D01*
Y1031206D01*
X673838D01*
Y1031398D01*
X674029D01*
Y1031589D01*
X674221D01*
Y1031780D01*
X674412D01*
Y1031971D01*
X674603D01*
Y1032162D01*
X674794D01*
Y1032353D01*
X675176D01*
Y1032545D01*
X675368D01*
Y1032736D01*
X675559D01*
Y1032927D01*
X675941D01*
Y1033118D01*
X676132D01*
Y1033309D01*
X676515D01*
Y1033501D01*
X676897D01*
Y1033692D01*
X677088D01*
Y1033883D01*
X677470D01*
Y1034074D01*
X677853D01*
Y1034265D01*
X678235D01*
Y1034456D01*
X678618D01*
Y1034648D01*
X679000D01*
Y1034839D01*
X679573D01*
Y1035030D01*
X679956D01*
Y1035221D01*
X680529D01*
Y1035412D01*
X681103D01*
Y1035603D01*
X681868D01*
Y1035795D01*
X682632D01*
Y1035986D01*
X683397D01*
Y1036177D01*
X684544D01*
Y1036368D01*
X710544D01*
Y1025854D01*
D02*
G37*
G36*
X1542709Y994439D02*
X1494518D01*
Y1007372D01*
X1542709D01*
Y994439D01*
D02*
G37*
G36*
X702514Y993736D02*
X702706D01*
Y993545D01*
X703088D01*
Y993354D01*
X703279D01*
Y993163D01*
X703470D01*
Y992971D01*
X703661D01*
Y992780D01*
X703853D01*
Y992589D01*
X704235D01*
Y992398D01*
X704426D01*
Y992207D01*
X704617D01*
Y992016D01*
X704809D01*
Y991824D01*
X705000D01*
Y991633D01*
X705191D01*
Y991442D01*
X705382D01*
Y991251D01*
X705573D01*
Y991060D01*
X705764D01*
Y990869D01*
X705956D01*
Y990677D01*
X706147D01*
Y990486D01*
X706338D01*
Y990295D01*
X706529D01*
Y989913D01*
X706720D01*
Y989721D01*
X706911D01*
Y989530D01*
X707103D01*
Y989339D01*
X707294D01*
Y988957D01*
X707485D01*
Y988765D01*
X707676D01*
Y988383D01*
X707867D01*
Y988192D01*
X708058D01*
Y987810D01*
X708250D01*
Y987618D01*
X708441D01*
Y987236D01*
X708632D01*
Y986854D01*
X708823D01*
Y986471D01*
X709014D01*
Y986089D01*
X709206D01*
Y985707D01*
X709397D01*
Y985324D01*
X709588D01*
Y984942D01*
X709779D01*
Y984369D01*
X709970D01*
Y983986D01*
X710162D01*
Y983413D01*
X710353D01*
Y982839D01*
X710544D01*
Y982074D01*
X710735D01*
Y981310D01*
X710926D01*
Y980354D01*
X711117D01*
Y978824D01*
X711309D01*
Y974619D01*
X711117D01*
Y973089D01*
X710926D01*
Y972133D01*
X710735D01*
Y971177D01*
X710544D01*
Y970413D01*
X710353D01*
Y969839D01*
X710162D01*
Y969266D01*
X709970D01*
Y968692D01*
X709779D01*
Y968119D01*
X709588D01*
Y967736D01*
X709397D01*
Y967354D01*
X709206D01*
Y966972D01*
X709014D01*
Y966589D01*
X708823D01*
Y966207D01*
X708632D01*
Y965825D01*
X708441D01*
Y965442D01*
X708250D01*
Y965060D01*
X708058D01*
Y964869D01*
X707867D01*
Y964486D01*
X707676D01*
Y964295D01*
X707485D01*
Y963913D01*
X707294D01*
Y963722D01*
X707103D01*
Y963530D01*
X706911D01*
Y963339D01*
X706720D01*
Y962957D01*
X706529D01*
Y962766D01*
X706338D01*
Y962574D01*
X706147D01*
Y962383D01*
X705956D01*
Y962192D01*
X705764D01*
Y962001D01*
X705573D01*
Y961810D01*
X705382D01*
Y961619D01*
X705191D01*
Y961428D01*
X705000D01*
Y961236D01*
X704809D01*
Y961045D01*
X704617D01*
Y960854D01*
X704426D01*
Y960663D01*
X704235D01*
Y960472D01*
X704044D01*
Y960280D01*
X703853D01*
Y960089D01*
X703470D01*
Y959898D01*
X703279D01*
Y959707D01*
X703088D01*
Y959516D01*
X702897D01*
Y959324D01*
X702514D01*
Y959133D01*
X702323D01*
Y958942D01*
X701941D01*
Y958751D01*
X701750D01*
Y958560D01*
X701367D01*
Y958369D01*
X700985D01*
Y958177D01*
X700794D01*
Y957986D01*
X700412D01*
Y957795D01*
X700029D01*
Y957604D01*
X699647D01*
Y957413D01*
X699265D01*
Y957222D01*
X698882D01*
Y957030D01*
X698500D01*
Y956839D01*
X698117D01*
Y956648D01*
X697544D01*
Y956457D01*
X697161D01*
Y956266D01*
X696397D01*
Y956075D01*
X695632D01*
Y955883D01*
X694867D01*
Y955692D01*
X693720D01*
Y955501D01*
X692382D01*
Y955310D01*
X687029D01*
Y955501D01*
X685691D01*
Y955692D01*
X684735D01*
Y955883D01*
X683970D01*
Y956075D01*
X683206D01*
Y956266D01*
X682632D01*
Y956457D01*
X682059D01*
Y956648D01*
X681485D01*
Y956839D01*
X681103D01*
Y957030D01*
X680721D01*
Y957222D01*
X680147D01*
Y957413D01*
X679765D01*
Y957604D01*
X679382D01*
Y957795D01*
X679000D01*
Y957986D01*
X678809D01*
Y958177D01*
X678426D01*
Y958369D01*
X678044D01*
Y958560D01*
X677662D01*
Y958751D01*
X677470D01*
Y958942D01*
X677088D01*
Y959133D01*
X676897D01*
Y959324D01*
X676515D01*
Y959516D01*
X676323D01*
Y959707D01*
X676132D01*
Y959898D01*
X675750D01*
Y960089D01*
X675559D01*
Y960280D01*
X675368D01*
Y960472D01*
X675176D01*
Y960663D01*
X674794D01*
Y960854D01*
X674603D01*
Y961045D01*
X674412D01*
Y961236D01*
X674221D01*
Y961428D01*
X674029D01*
Y961619D01*
X673838D01*
Y961810D01*
X673647D01*
Y962001D01*
X673456D01*
Y962192D01*
X673265D01*
Y962383D01*
X673074D01*
Y962574D01*
X672882D01*
Y962766D01*
X672691D01*
Y962957D01*
X672500D01*
Y963148D01*
X672309D01*
Y963339D01*
X672118D01*
Y963530D01*
X671926D01*
Y963722D01*
X671735D01*
Y964104D01*
X671544D01*
Y964295D01*
X671353D01*
Y964486D01*
X671162D01*
Y964869D01*
X670971D01*
Y965060D01*
X670779D01*
Y965442D01*
X670588D01*
Y965633D01*
X670397D01*
Y966016D01*
X670206D01*
Y966207D01*
X670015D01*
Y966589D01*
X669824D01*
Y966972D01*
X669632D01*
Y967354D01*
X669441D01*
Y967736D01*
X669250D01*
Y968119D01*
X669059D01*
Y968501D01*
X668868D01*
Y969074D01*
X668677D01*
Y969457D01*
X668485D01*
Y970030D01*
X668294D01*
Y970604D01*
X668103D01*
Y971177D01*
X667912D01*
Y971751D01*
X667721D01*
Y972516D01*
X667529D01*
Y973472D01*
X667338D01*
Y978633D01*
X667529D01*
Y979971D01*
X667721D01*
Y980927D01*
X667912D01*
Y981692D01*
X668103D01*
Y982457D01*
X668294D01*
Y983030D01*
X668485D01*
Y983604D01*
X668677D01*
Y983986D01*
X668868D01*
Y984560D01*
X669059D01*
Y984942D01*
X669250D01*
Y985324D01*
X669441D01*
Y985707D01*
X669632D01*
Y986089D01*
X669824D01*
Y986471D01*
X670015D01*
Y986854D01*
X670206D01*
Y987045D01*
X670397D01*
Y987427D01*
X670588D01*
Y987618D01*
X670779D01*
Y988001D01*
X670971D01*
Y988192D01*
X671162D01*
Y988574D01*
X671353D01*
Y988765D01*
X671544D01*
Y988957D01*
X671735D01*
Y989339D01*
X671926D01*
Y989530D01*
X672118D01*
Y989721D01*
X672309D01*
Y989913D01*
X672500D01*
Y990104D01*
X672691D01*
Y990486D01*
X672882D01*
Y990677D01*
X673074D01*
Y990869D01*
X673265D01*
Y991060D01*
X673456D01*
Y991251D01*
X673647D01*
Y991442D01*
X673838D01*
Y991633D01*
X674029D01*
Y991824D01*
X674221D01*
Y992016D01*
X674412D01*
Y992207D01*
X674794D01*
Y992398D01*
X674985D01*
Y992589D01*
X675176D01*
Y992780D01*
X675559D01*
Y992971D01*
X675750D01*
Y993163D01*
X675941D01*
Y993354D01*
X676323D01*
Y993545D01*
X676706D01*
Y993736D01*
X676897D01*
Y993927D01*
X677279D01*
Y993736D01*
X677470D01*
Y993545D01*
X677662D01*
Y993354D01*
X677853D01*
Y993163D01*
X678044D01*
Y992971D01*
X678235D01*
Y992780D01*
X678426D01*
Y992589D01*
X678618D01*
Y992398D01*
X678809D01*
Y992207D01*
X679000D01*
Y992016D01*
X679191D01*
Y991824D01*
X679382D01*
Y991633D01*
X679573D01*
Y991442D01*
X679765D01*
Y991251D01*
X679956D01*
Y991060D01*
X680147D01*
Y990869D01*
X680338D01*
Y990677D01*
X680721D01*
Y990486D01*
X680912D01*
Y990295D01*
X681103D01*
Y990104D01*
X681294D01*
Y989913D01*
X681485D01*
Y989721D01*
X681676D01*
Y989530D01*
X681868D01*
Y989339D01*
X682059D01*
Y989148D01*
X682250D01*
Y988957D01*
X682441D01*
Y988765D01*
X682632D01*
Y988574D01*
X682823D01*
Y988383D01*
X683015D01*
Y988192D01*
X683206D01*
Y988001D01*
X683397D01*
Y987810D01*
X683588D01*
Y987618D01*
X683779D01*
Y987427D01*
X683970D01*
Y987236D01*
X684162D01*
Y987045D01*
X684353D01*
Y986854D01*
X684544D01*
Y986663D01*
X684735D01*
Y986471D01*
X684926D01*
Y986089D01*
X684353D01*
Y985898D01*
X684162D01*
Y985707D01*
X683779D01*
Y985516D01*
X683397D01*
Y985324D01*
X683015D01*
Y985133D01*
X682823D01*
Y984942D01*
X682441D01*
Y984751D01*
X682250D01*
Y984560D01*
X682059D01*
Y984369D01*
X681676D01*
Y984177D01*
X681485D01*
Y983986D01*
X681294D01*
Y983795D01*
X681103D01*
Y983604D01*
X680912D01*
Y983413D01*
X680721D01*
Y983221D01*
X680529D01*
Y983030D01*
X680338D01*
Y982839D01*
X680147D01*
Y982457D01*
X679956D01*
Y982266D01*
X679765D01*
Y981883D01*
X679573D01*
Y981692D01*
X679382D01*
Y981310D01*
X679191D01*
Y980927D01*
X679000D01*
Y980354D01*
X678809D01*
Y979971D01*
X678618D01*
Y979207D01*
X678426D01*
Y978251D01*
X678235D01*
Y974427D01*
X678426D01*
Y973663D01*
X678618D01*
Y973089D01*
X678809D01*
Y972707D01*
X679000D01*
Y972324D01*
X679191D01*
Y971942D01*
X679382D01*
Y971751D01*
X679573D01*
Y971369D01*
X679765D01*
Y970986D01*
X679956D01*
Y970795D01*
X680147D01*
Y970604D01*
X680338D01*
Y970221D01*
X680529D01*
Y970030D01*
X680721D01*
Y969839D01*
X680912D01*
Y969648D01*
X681103D01*
Y969457D01*
X681294D01*
Y969266D01*
X681485D01*
Y969074D01*
X681676D01*
Y968883D01*
X681868D01*
Y968692D01*
X682059D01*
Y968501D01*
X682250D01*
Y968310D01*
X682632D01*
Y968119D01*
X682823D01*
Y967927D01*
X683206D01*
Y967736D01*
X683397D01*
Y967545D01*
X683779D01*
Y967354D01*
X684162D01*
Y967163D01*
X684735D01*
Y966972D01*
X685117D01*
Y966780D01*
X685691D01*
Y966589D01*
X686265D01*
Y966398D01*
X687220D01*
Y966207D01*
X688367D01*
Y966016D01*
X691044D01*
Y966207D01*
X692382D01*
Y966398D01*
X693147D01*
Y966589D01*
X693912D01*
Y966780D01*
X694294D01*
Y966972D01*
X694867D01*
Y967163D01*
X695250D01*
Y967354D01*
X695632D01*
Y967545D01*
X695823D01*
Y967736D01*
X696206D01*
Y967927D01*
X696397D01*
Y968119D01*
X696779D01*
Y968310D01*
X696970D01*
Y968501D01*
X697161D01*
Y968692D01*
X697353D01*
Y968883D01*
X697544D01*
Y969074D01*
X697735D01*
Y969266D01*
X697926D01*
Y969457D01*
X698117D01*
Y969648D01*
X698309D01*
Y970030D01*
X698500D01*
Y970221D01*
X698691D01*
Y970604D01*
X698882D01*
Y970795D01*
X699073D01*
Y971177D01*
X699265D01*
Y971560D01*
X699456D01*
Y971942D01*
X699647D01*
Y972324D01*
X699838D01*
Y972707D01*
X700029D01*
Y973280D01*
X700220D01*
Y973854D01*
X700412D01*
Y974427D01*
X700603D01*
Y978442D01*
X700412D01*
Y979207D01*
X700220D01*
Y979971D01*
X700029D01*
Y980545D01*
X699838D01*
Y980927D01*
X699647D01*
Y981310D01*
X699456D01*
Y981692D01*
X699265D01*
Y982074D01*
X699073D01*
Y982266D01*
X698882D01*
Y982648D01*
X698691D01*
Y982839D01*
X698500D01*
Y983030D01*
X698309D01*
Y983413D01*
X698117D01*
Y983604D01*
X697926D01*
Y983795D01*
X697735D01*
Y983986D01*
X697544D01*
Y984177D01*
X697353D01*
Y984369D01*
X697161D01*
Y984560D01*
X696970D01*
Y984751D01*
X696588D01*
Y984942D01*
X696397D01*
Y985133D01*
X696206D01*
Y985324D01*
X695823D01*
Y985516D01*
X695632D01*
Y985707D01*
X695250D01*
Y985898D01*
X694867D01*
Y986089D01*
X694676D01*
Y986280D01*
X694867D01*
Y986471D01*
X695059D01*
Y986663D01*
X695250D01*
Y986854D01*
X695441D01*
Y987045D01*
X695632D01*
Y987236D01*
X695823D01*
Y987427D01*
X696014D01*
Y987618D01*
X696206D01*
Y987810D01*
X696397D01*
Y988001D01*
X696588D01*
Y988192D01*
X696779D01*
Y988383D01*
X696970D01*
Y988574D01*
X697161D01*
Y988765D01*
X697353D01*
Y988957D01*
X697544D01*
Y989148D01*
X697735D01*
Y989339D01*
X697926D01*
Y989530D01*
X698117D01*
Y989721D01*
X698309D01*
Y989913D01*
X698500D01*
Y990104D01*
X698691D01*
Y990295D01*
X698882D01*
Y990486D01*
X699073D01*
Y990677D01*
X699265D01*
Y990869D01*
X699456D01*
Y991060D01*
X699647D01*
Y991251D01*
X699838D01*
Y991442D01*
X700029D01*
Y991633D01*
X700220D01*
Y991824D01*
X700412D01*
Y992016D01*
X700603D01*
Y992207D01*
X700794D01*
Y992398D01*
X700985D01*
Y992589D01*
X701176D01*
Y992780D01*
X701367D01*
Y992971D01*
X701559D01*
Y993163D01*
X701750D01*
Y993354D01*
X701941D01*
Y993545D01*
X702132D01*
Y993736D01*
X702323D01*
Y993927D01*
X702514D01*
Y993736D01*
D02*
G37*
G36*
X1494696Y989124D02*
X1495050D01*
Y988947D01*
X1495404D01*
Y988769D01*
X1495582D01*
Y988592D01*
X1495936D01*
Y988415D01*
X1496113D01*
Y988238D01*
X1496467D01*
Y988061D01*
X1496644D01*
Y987884D01*
X1496999D01*
Y987706D01*
X1497176D01*
Y987529D01*
X1497530D01*
Y987352D01*
X1497885D01*
Y987175D01*
X1498062D01*
Y986998D01*
X1498416D01*
Y986821D01*
X1498593D01*
Y986643D01*
X1498948D01*
Y986466D01*
X1499125D01*
Y986289D01*
X1499479D01*
Y986112D01*
X1499656D01*
Y985935D01*
X1500011D01*
Y985758D01*
X1500188D01*
Y985580D01*
X1500542D01*
Y985403D01*
X1500896D01*
Y985226D01*
X1501074D01*
Y985049D01*
X1501428D01*
Y984872D01*
X1501605D01*
Y984695D01*
X1501960D01*
Y984517D01*
X1502137D01*
Y984340D01*
X1502491D01*
Y984163D01*
X1502668D01*
Y983986D01*
X1503023D01*
Y983809D01*
X1503377D01*
Y983632D01*
X1503554D01*
Y983454D01*
X1503908D01*
Y983277D01*
X1504086D01*
Y983100D01*
X1504440D01*
Y982923D01*
X1504617D01*
Y982746D01*
X1504971D01*
Y982569D01*
X1505149D01*
Y982391D01*
X1505503D01*
Y982214D01*
X1505857D01*
Y982037D01*
X1506035D01*
Y981860D01*
X1506389D01*
Y981683D01*
X1506566D01*
Y981506D01*
X1506920D01*
Y981328D01*
X1507097D01*
Y981151D01*
X1507452D01*
Y980974D01*
X1507629D01*
Y980797D01*
X1507983D01*
Y980620D01*
X1508338D01*
Y980443D01*
X1508515D01*
Y980265D01*
X1508869D01*
Y980088D01*
X1509046D01*
Y979911D01*
X1509401D01*
Y979734D01*
X1509578D01*
Y979557D01*
X1509932D01*
Y979379D01*
X1510109D01*
Y979202D01*
X1510464D01*
Y979025D01*
X1510818D01*
Y978848D01*
X1510995D01*
Y978671D01*
X1511350D01*
Y978494D01*
X1511527D01*
Y978316D01*
X1511881D01*
Y978139D01*
X1512058D01*
Y977962D01*
X1512413D01*
Y977785D01*
X1512590D01*
Y977608D01*
X1512944D01*
Y977431D01*
X1513121D01*
Y977253D01*
X1513476D01*
Y977076D01*
X1513830D01*
Y976899D01*
X1514007D01*
Y976722D01*
X1514362D01*
Y976545D01*
X1514539D01*
Y976367D01*
X1514893D01*
Y976190D01*
X1515070D01*
Y976013D01*
X1515424D01*
Y975836D01*
X1515602D01*
Y975659D01*
X1515956D01*
Y975482D01*
X1516310D01*
Y975304D01*
X1516487D01*
Y975127D01*
X1516842D01*
Y974950D01*
X1517019D01*
Y974773D01*
X1517373D01*
Y974596D01*
X1517551D01*
Y974419D01*
X1517905D01*
Y974241D01*
X1518082D01*
Y974064D01*
X1518436D01*
Y973887D01*
X1518791D01*
Y973710D01*
X1518968D01*
Y973533D01*
X1519322D01*
Y973356D01*
X1519499D01*
Y973178D01*
X1519854D01*
Y973001D01*
X1520031D01*
Y972824D01*
X1520740D01*
Y973001D01*
X1520917D01*
Y973178D01*
X1521271D01*
Y973356D01*
X1521625D01*
Y973533D01*
X1521803D01*
Y973710D01*
X1522157D01*
Y973887D01*
X1522334D01*
Y974064D01*
X1522688D01*
Y974241D01*
X1523043D01*
Y974419D01*
X1523220D01*
Y974596D01*
X1523574D01*
Y974773D01*
X1523752D01*
Y974950D01*
X1524106D01*
Y975127D01*
X1524460D01*
Y975304D01*
X1524637D01*
Y975482D01*
X1524992D01*
Y975659D01*
X1525169D01*
Y975836D01*
X1525523D01*
Y976013D01*
X1525878D01*
Y976190D01*
X1526055D01*
Y976367D01*
X1526409D01*
Y976545D01*
X1526586D01*
Y976722D01*
X1526940D01*
Y976899D01*
X1527118D01*
Y977076D01*
X1527472D01*
Y977253D01*
X1527826D01*
Y977431D01*
X1528004D01*
Y977608D01*
X1528358D01*
Y977785D01*
X1528535D01*
Y977962D01*
X1528889D01*
Y978139D01*
X1529244D01*
Y978316D01*
X1529421D01*
Y978494D01*
X1529775D01*
Y978671D01*
X1529952D01*
Y978848D01*
X1530307D01*
Y979025D01*
X1530661D01*
Y979202D01*
X1530838D01*
Y979379D01*
X1531193D01*
Y979557D01*
X1531370D01*
Y979734D01*
X1531724D01*
Y979911D01*
X1532078D01*
Y980088D01*
X1532256D01*
Y980265D01*
X1532610D01*
Y980443D01*
X1532787D01*
Y980620D01*
X1533141D01*
Y980797D01*
X1533319D01*
Y980974D01*
X1533673D01*
Y981151D01*
X1534027D01*
Y981328D01*
X1534205D01*
Y981506D01*
X1534559D01*
Y981683D01*
X1534736D01*
Y981860D01*
X1535090D01*
Y982037D01*
X1535445D01*
Y982214D01*
X1535622D01*
Y982391D01*
X1535976D01*
Y982569D01*
X1536153D01*
Y982746D01*
X1536508D01*
Y982923D01*
X1536862D01*
Y983100D01*
X1537039D01*
Y983277D01*
X1537394D01*
Y983454D01*
X1537571D01*
Y983632D01*
X1537925D01*
Y983809D01*
X1538279D01*
Y983986D01*
X1538457D01*
Y984163D01*
X1538811D01*
Y984340D01*
X1538988D01*
Y984517D01*
X1539342D01*
Y984695D01*
X1539520D01*
Y984872D01*
X1539874D01*
Y985049D01*
X1540228D01*
Y985226D01*
X1540405D01*
Y985403D01*
X1540760D01*
Y985580D01*
X1540937D01*
Y985758D01*
X1541291D01*
Y985935D01*
X1541646D01*
Y986112D01*
X1541823D01*
Y986289D01*
X1542177D01*
Y986466D01*
X1542354D01*
Y986643D01*
X1542709D01*
Y972293D01*
X1542354D01*
Y972115D01*
X1542177D01*
Y971938D01*
X1541823D01*
Y971761D01*
X1541469D01*
Y971584D01*
X1541291D01*
Y971407D01*
X1540937D01*
Y971230D01*
X1540583D01*
Y971052D01*
X1540405D01*
Y970875D01*
X1540051D01*
Y970698D01*
X1539697D01*
Y970521D01*
X1539342D01*
Y970344D01*
X1539165D01*
Y970167D01*
X1538811D01*
Y969989D01*
X1538457D01*
Y969812D01*
X1538279D01*
Y969635D01*
X1537925D01*
Y969458D01*
X1537571D01*
Y969281D01*
X1537394D01*
Y969104D01*
X1537039D01*
Y968926D01*
X1536685D01*
Y968749D01*
X1536331D01*
Y968572D01*
X1536153D01*
Y968395D01*
X1535799D01*
Y968218D01*
X1535445D01*
Y968041D01*
X1535267D01*
Y967863D01*
X1534913D01*
Y967686D01*
X1534559D01*
Y967509D01*
X1534205D01*
Y967332D01*
X1534027D01*
Y967155D01*
X1533673D01*
Y966977D01*
X1533319D01*
Y966800D01*
X1533141D01*
Y966623D01*
X1532787D01*
Y966446D01*
X1532433D01*
Y966269D01*
X1532256D01*
Y966092D01*
X1531901D01*
Y965915D01*
X1531547D01*
Y965737D01*
X1531193D01*
Y965560D01*
X1531015D01*
Y965383D01*
X1530661D01*
Y965029D01*
X1531015D01*
Y964852D01*
X1531193D01*
Y964674D01*
X1531547D01*
Y964497D01*
X1531901D01*
Y964320D01*
X1532078D01*
Y964143D01*
X1532433D01*
Y963966D01*
X1532787D01*
Y963789D01*
X1533141D01*
Y963611D01*
X1533319D01*
Y963434D01*
X1533673D01*
Y963257D01*
X1534027D01*
Y963080D01*
X1534205D01*
Y962903D01*
X1534559D01*
Y962725D01*
X1534913D01*
Y962548D01*
X1535090D01*
Y962371D01*
X1535445D01*
Y962194D01*
X1535799D01*
Y962017D01*
X1535976D01*
Y961840D01*
X1536331D01*
Y961662D01*
X1536685D01*
Y961485D01*
X1536862D01*
Y961308D01*
X1537216D01*
Y961131D01*
X1537571D01*
Y960954D01*
X1537925D01*
Y960777D01*
X1538102D01*
Y960599D01*
X1538457D01*
Y960422D01*
X1538811D01*
Y960245D01*
X1538988D01*
Y960068D01*
X1539342D01*
Y959891D01*
X1539697D01*
Y959714D01*
X1539874D01*
Y959536D01*
X1540228D01*
Y959359D01*
X1540583D01*
Y959182D01*
X1540760D01*
Y959005D01*
X1541114D01*
Y958828D01*
X1541469D01*
Y958651D01*
X1541646D01*
Y958473D01*
X1542000D01*
Y958296D01*
X1542354D01*
Y958119D01*
X1542531D01*
Y957942D01*
X1542709D01*
Y944654D01*
X1542531D01*
Y944831D01*
X1542177D01*
Y945008D01*
X1541823D01*
Y945186D01*
X1541646D01*
Y945363D01*
X1541291D01*
Y945540D01*
X1541114D01*
Y945717D01*
X1540760D01*
Y945894D01*
X1540583D01*
Y946071D01*
X1540228D01*
Y946249D01*
X1540051D01*
Y946426D01*
X1539697D01*
Y946603D01*
X1539342D01*
Y946780D01*
X1539165D01*
Y946957D01*
X1538811D01*
Y947134D01*
X1538634D01*
Y947312D01*
X1538279D01*
Y947489D01*
X1538102D01*
Y947666D01*
X1537748D01*
Y947843D01*
X1537571D01*
Y948020D01*
X1537216D01*
Y948197D01*
X1536862D01*
Y948375D01*
X1536685D01*
Y948552D01*
X1536331D01*
Y948729D01*
X1536153D01*
Y948906D01*
X1535799D01*
Y949083D01*
X1535622D01*
Y949260D01*
X1535267D01*
Y949438D01*
X1535090D01*
Y949615D01*
X1534736D01*
Y949792D01*
X1534382D01*
Y949969D01*
X1534205D01*
Y950146D01*
X1533850D01*
Y950324D01*
X1533673D01*
Y950501D01*
X1533319D01*
Y950678D01*
X1533141D01*
Y950855D01*
X1532787D01*
Y951032D01*
X1532610D01*
Y951209D01*
X1532256D01*
Y951387D01*
X1531901D01*
Y951564D01*
X1531724D01*
Y951741D01*
X1531370D01*
Y951918D01*
X1531193D01*
Y952095D01*
X1530838D01*
Y952272D01*
X1530661D01*
Y952450D01*
X1530307D01*
Y952627D01*
X1529952D01*
Y952804D01*
X1529775D01*
Y952981D01*
X1529421D01*
Y953158D01*
X1529244D01*
Y953335D01*
X1528889D01*
Y953513D01*
X1528712D01*
Y953690D01*
X1528358D01*
Y953867D01*
X1528181D01*
Y954044D01*
X1527826D01*
Y954221D01*
X1527472D01*
Y954398D01*
X1527295D01*
Y954576D01*
X1526940D01*
Y954753D01*
X1526763D01*
Y954930D01*
X1526409D01*
Y955107D01*
X1526232D01*
Y955284D01*
X1525878D01*
Y955462D01*
X1525700D01*
Y955639D01*
X1525346D01*
Y955816D01*
X1524992D01*
Y955993D01*
X1524814D01*
Y956170D01*
X1524460D01*
Y956347D01*
X1524283D01*
Y956525D01*
X1523929D01*
Y956702D01*
X1523752D01*
Y956879D01*
X1523397D01*
Y957056D01*
X1523220D01*
Y957233D01*
X1522866D01*
Y957410D01*
X1522511D01*
Y957588D01*
X1522334D01*
Y957765D01*
X1521980D01*
Y957942D01*
X1521803D01*
Y958119D01*
X1521448D01*
Y958296D01*
X1521271D01*
Y958473D01*
X1520740D01*
Y958296D01*
X1520385D01*
Y958119D01*
X1520208D01*
Y957942D01*
X1519854D01*
Y957765D01*
X1519499D01*
Y957588D01*
X1519322D01*
Y957410D01*
X1518968D01*
Y957233D01*
X1518791D01*
Y957056D01*
X1518436D01*
Y956879D01*
X1518082D01*
Y956702D01*
X1517905D01*
Y956525D01*
X1517551D01*
Y956347D01*
X1517373D01*
Y956170D01*
X1517019D01*
Y955993D01*
X1516665D01*
Y955816D01*
X1516487D01*
Y955639D01*
X1516133D01*
Y955462D01*
X1515956D01*
Y955284D01*
X1515602D01*
Y955107D01*
X1515247D01*
Y954930D01*
X1515070D01*
Y954753D01*
X1514716D01*
Y954576D01*
X1514539D01*
Y954398D01*
X1514184D01*
Y954221D01*
X1514007D01*
Y954044D01*
X1513653D01*
Y953867D01*
X1513298D01*
Y953690D01*
X1513121D01*
Y953513D01*
X1512767D01*
Y953335D01*
X1512590D01*
Y953158D01*
X1512236D01*
Y952981D01*
X1511881D01*
Y952804D01*
X1511704D01*
Y952627D01*
X1511350D01*
Y952450D01*
X1511172D01*
Y952272D01*
X1510818D01*
Y952095D01*
X1510464D01*
Y951918D01*
X1510287D01*
Y951741D01*
X1509932D01*
Y951564D01*
X1509755D01*
Y951387D01*
X1509401D01*
Y951209D01*
X1509046D01*
Y951032D01*
X1508869D01*
Y950855D01*
X1508515D01*
Y950678D01*
X1508338D01*
Y950501D01*
X1507983D01*
Y950324D01*
X1507629D01*
Y950146D01*
X1507452D01*
Y949969D01*
X1507097D01*
Y949792D01*
X1506920D01*
Y949615D01*
X1506566D01*
Y949438D01*
X1506212D01*
Y949260D01*
X1506035D01*
Y949083D01*
X1505680D01*
Y948906D01*
X1505503D01*
Y948729D01*
X1505149D01*
Y948552D01*
X1504971D01*
Y948375D01*
X1504617D01*
Y948197D01*
X1504263D01*
Y948020D01*
X1504086D01*
Y947843D01*
X1503731D01*
Y947666D01*
X1503554D01*
Y947489D01*
X1503200D01*
Y947312D01*
X1502845D01*
Y947134D01*
X1502668D01*
Y946957D01*
X1502314D01*
Y946780D01*
X1502137D01*
Y946603D01*
X1501782D01*
Y946426D01*
X1501428D01*
Y946249D01*
X1501251D01*
Y946071D01*
X1500896D01*
Y945894D01*
X1500719D01*
Y945717D01*
X1500365D01*
Y945540D01*
X1500011D01*
Y945363D01*
X1499834D01*
Y945186D01*
X1499479D01*
Y945008D01*
X1499302D01*
Y944831D01*
X1498948D01*
Y944654D01*
X1498593D01*
Y944477D01*
X1498416D01*
Y944300D01*
X1498062D01*
Y944123D01*
X1497885D01*
Y943945D01*
X1497530D01*
Y943768D01*
X1497176D01*
Y943591D01*
X1496999D01*
Y943414D01*
X1496644D01*
Y943237D01*
X1496467D01*
Y943060D01*
X1496113D01*
Y942882D01*
X1495936D01*
Y942705D01*
X1495582D01*
Y942528D01*
X1495227D01*
Y942351D01*
X1495050D01*
Y942174D01*
X1494696D01*
Y941997D01*
X1494518D01*
Y956347D01*
X1494696D01*
Y956525D01*
X1495050D01*
Y956702D01*
X1495227D01*
Y956879D01*
X1495582D01*
Y957056D01*
X1495936D01*
Y957233D01*
X1496113D01*
Y957410D01*
X1496467D01*
Y957588D01*
X1496822D01*
Y957765D01*
X1496999D01*
Y957942D01*
X1497353D01*
Y958119D01*
X1497708D01*
Y958296D01*
X1497885D01*
Y958473D01*
X1498239D01*
Y958651D01*
X1498593D01*
Y958828D01*
X1498948D01*
Y959005D01*
X1499125D01*
Y959182D01*
X1499479D01*
Y959359D01*
X1499834D01*
Y959536D01*
X1500011D01*
Y959714D01*
X1500365D01*
Y959891D01*
X1500719D01*
Y960068D01*
X1500896D01*
Y960245D01*
X1501251D01*
Y960422D01*
X1501605D01*
Y960599D01*
X1501782D01*
Y960777D01*
X1502137D01*
Y960954D01*
X1502491D01*
Y961131D01*
X1502668D01*
Y961308D01*
X1503023D01*
Y961485D01*
X1503377D01*
Y961662D01*
X1503554D01*
Y961840D01*
X1503908D01*
Y962017D01*
X1504263D01*
Y962194D01*
X1504440D01*
Y962371D01*
X1504794D01*
Y962548D01*
X1505149D01*
Y962725D01*
X1505326D01*
Y962903D01*
X1505680D01*
Y963080D01*
X1506035D01*
Y963257D01*
X1506212D01*
Y963434D01*
X1506566D01*
Y963611D01*
X1506920D01*
Y963789D01*
X1507275D01*
Y963966D01*
X1507452D01*
Y964143D01*
X1507806D01*
Y964320D01*
X1508161D01*
Y964497D01*
X1508338D01*
Y964674D01*
X1508692D01*
Y964852D01*
X1509046D01*
Y965029D01*
X1509223D01*
Y965206D01*
X1509578D01*
Y965383D01*
X1509932D01*
Y965560D01*
X1510109D01*
Y965737D01*
X1510464D01*
Y965915D01*
X1510641D01*
Y966269D01*
X1510287D01*
Y966446D01*
X1510109D01*
Y966623D01*
X1509755D01*
Y966800D01*
X1509401D01*
Y966977D01*
X1509223D01*
Y967155D01*
X1508869D01*
Y967332D01*
X1508515D01*
Y967509D01*
X1508338D01*
Y967686D01*
X1507983D01*
Y967863D01*
X1507629D01*
Y968041D01*
X1507452D01*
Y968218D01*
X1507097D01*
Y968395D01*
X1506920D01*
Y968572D01*
X1506566D01*
Y968749D01*
X1506212D01*
Y968926D01*
X1506035D01*
Y969104D01*
X1505680D01*
Y969281D01*
X1505326D01*
Y969458D01*
X1505149D01*
Y969635D01*
X1504794D01*
Y969812D01*
X1504440D01*
Y969989D01*
X1504263D01*
Y970167D01*
X1503908D01*
Y970344D01*
X1503554D01*
Y970521D01*
X1503377D01*
Y970698D01*
X1503023D01*
Y970875D01*
X1502845D01*
Y971052D01*
X1502491D01*
Y971230D01*
X1502137D01*
Y971407D01*
X1501960D01*
Y971584D01*
X1501605D01*
Y971761D01*
X1501251D01*
Y971938D01*
X1501074D01*
Y972115D01*
X1500719D01*
Y972293D01*
X1500365D01*
Y972470D01*
X1500188D01*
Y972647D01*
X1499834D01*
Y972824D01*
X1499479D01*
Y973001D01*
X1499302D01*
Y973178D01*
X1498948D01*
Y973356D01*
X1498770D01*
Y973533D01*
X1498416D01*
Y973710D01*
X1498062D01*
Y973887D01*
X1497885D01*
Y974064D01*
X1497530D01*
Y974241D01*
X1497176D01*
Y974419D01*
X1496999D01*
Y974596D01*
X1496644D01*
Y974773D01*
X1496290D01*
Y974950D01*
X1496113D01*
Y975127D01*
X1495759D01*
Y975304D01*
X1495404D01*
Y975482D01*
X1495227D01*
Y975659D01*
X1494873D01*
Y975836D01*
X1494696D01*
Y976013D01*
X1494518D01*
Y989301D01*
X1494696D01*
Y989124D01*
D02*
G37*
G36*
X1106728Y727000D02*
X1155272D01*
Y708309D01*
X1148003D01*
Y709867D01*
X1147744D01*
Y719212D01*
X1059223D01*
Y718953D01*
X1058963D01*
Y717395D01*
X1059223D01*
Y708309D01*
X1051435D01*
Y727000D01*
X1096604D01*
Y727260D01*
X1099719D01*
Y736605D01*
X1099979D01*
Y755555D01*
X1106728D01*
Y727000D01*
D02*
G37*
G36*
X1094527Y683648D02*
Y683389D01*
Y677159D01*
X1089855D01*
Y679495D01*
X1089595D01*
Y679754D01*
X1089336D01*
Y679495D01*
X1089076D01*
Y679235D01*
X1088816D01*
Y678976D01*
X1088557D01*
Y678716D01*
X1088038D01*
Y678456D01*
X1087778D01*
Y678197D01*
X1087259D01*
Y677937D01*
X1086740D01*
Y677678D01*
X1086220D01*
Y677418D01*
X1085701D01*
Y677159D01*
X1084663D01*
Y676899D01*
X1080769D01*
Y677159D01*
X1079731D01*
Y677418D01*
X1078952D01*
Y677678D01*
X1078433D01*
Y677937D01*
X1077914D01*
Y678197D01*
X1077654D01*
Y678456D01*
X1077135D01*
Y678716D01*
X1076875D01*
Y678976D01*
X1076616D01*
Y679235D01*
X1076096D01*
Y679495D01*
X1075837D01*
Y679754D01*
X1075577D01*
Y680274D01*
X1075318D01*
Y680533D01*
X1075058D01*
Y680793D01*
X1074799D01*
Y681312D01*
X1074539D01*
Y681831D01*
X1074279D01*
Y682350D01*
X1074020D01*
Y682869D01*
X1073760D01*
Y683908D01*
X1073501D01*
Y685206D01*
X1073241D01*
Y688321D01*
X1073501D01*
Y689619D01*
X1073760D01*
Y690398D01*
X1074020D01*
Y691176D01*
X1074279D01*
Y691696D01*
X1074539D01*
Y692215D01*
X1074799D01*
Y692734D01*
X1075058D01*
Y692994D01*
X1075318D01*
Y693253D01*
X1075577D01*
Y693772D01*
X1075837D01*
Y694032D01*
X1076096D01*
Y694292D01*
X1076356D01*
Y694551D01*
X1076616D01*
Y694811D01*
X1077135D01*
Y695070D01*
X1077394D01*
Y695330D01*
X1077914D01*
Y695590D01*
X1078173D01*
Y695849D01*
X1078692D01*
Y696109D01*
X1079471D01*
Y696368D01*
X1080250D01*
Y696628D01*
X1081288D01*
Y696887D01*
X1084403D01*
Y696628D01*
X1085442D01*
Y696368D01*
X1085961D01*
Y696109D01*
X1086740D01*
Y695849D01*
X1087259D01*
Y695590D01*
X1087518D01*
Y695330D01*
X1088038D01*
Y695070D01*
X1088297D01*
Y694811D01*
X1088816D01*
Y694551D01*
X1089076D01*
Y694292D01*
X1089336D01*
Y694032D01*
X1089855D01*
Y696887D01*
X1094527D01*
Y683648D01*
D02*
G37*
G36*
X1044946Y696628D02*
X1046244D01*
Y696368D01*
X1047022D01*
Y696109D01*
X1047541D01*
Y695849D01*
X1048061D01*
Y695590D01*
X1048580D01*
Y695330D01*
X1048839D01*
Y695070D01*
X1049099D01*
Y694811D01*
X1049618D01*
Y694551D01*
X1049878D01*
Y694292D01*
X1050137D01*
Y694032D01*
X1050397D01*
Y693772D01*
X1050657D01*
Y693253D01*
X1050916D01*
Y692994D01*
X1051176D01*
Y692734D01*
X1051435D01*
Y692215D01*
X1051176D01*
Y691955D01*
X1050916D01*
Y691696D01*
X1050657D01*
Y691436D01*
X1050397D01*
Y691176D01*
X1050137D01*
Y690917D01*
X1049878D01*
Y690657D01*
X1049618D01*
Y690398D01*
X1049359D01*
Y690138D01*
X1049099D01*
Y689878D01*
X1048839D01*
Y689619D01*
X1048580D01*
Y689359D01*
X1048320D01*
Y689100D01*
X1048061D01*
Y688840D01*
X1047801D01*
Y689359D01*
X1047541D01*
Y689878D01*
X1047282D01*
Y690138D01*
X1047022D01*
Y690398D01*
X1046763D01*
Y690657D01*
X1046503D01*
Y690917D01*
X1046244D01*
Y691176D01*
X1045984D01*
Y691436D01*
X1045465D01*
Y691696D01*
X1044686D01*
Y691955D01*
X1042350D01*
Y691696D01*
X1041571D01*
Y691436D01*
X1041052D01*
Y691176D01*
X1040792D01*
Y690917D01*
X1040533D01*
Y690657D01*
X1040273D01*
Y690398D01*
X1040013D01*
Y690138D01*
X1039754D01*
Y689878D01*
X1039494D01*
Y689359D01*
X1039234D01*
Y688840D01*
X1038975D01*
Y687802D01*
X1038715D01*
Y685206D01*
X1038975D01*
Y684427D01*
X1039234D01*
Y683908D01*
X1039494D01*
Y683648D01*
X1039754D01*
Y683389D01*
X1040013D01*
Y683129D01*
X1040273D01*
Y682869D01*
X1040533D01*
Y682610D01*
X1040792D01*
Y682350D01*
X1041311D01*
Y682091D01*
X1041830D01*
Y681831D01*
X1042869D01*
Y681572D01*
X1044167D01*
Y681831D01*
X1045205D01*
Y682091D01*
X1045724D01*
Y682350D01*
X1046244D01*
Y682610D01*
X1046503D01*
Y682869D01*
X1046763D01*
Y683129D01*
X1047022D01*
Y683389D01*
X1047282D01*
Y683648D01*
X1047541D01*
Y684167D01*
X1047801D01*
Y684427D01*
X1048061D01*
Y684167D01*
X1048320D01*
Y683908D01*
X1048580D01*
Y683648D01*
X1048839D01*
Y683389D01*
X1049099D01*
Y683129D01*
X1049359D01*
Y682869D01*
X1049618D01*
Y682610D01*
X1049878D01*
Y682350D01*
X1050137D01*
Y682091D01*
X1050397D01*
Y681831D01*
X1050657D01*
Y681572D01*
X1050916D01*
Y681312D01*
X1051176D01*
Y681052D01*
X1051435D01*
Y680793D01*
X1051176D01*
Y680533D01*
X1050916D01*
Y680014D01*
X1050657D01*
Y679754D01*
X1050397D01*
Y679495D01*
X1050137D01*
Y679235D01*
X1049878D01*
Y678976D01*
X1049359D01*
Y678716D01*
X1049099D01*
Y678456D01*
X1048839D01*
Y678197D01*
X1048320D01*
Y677937D01*
X1047801D01*
Y677678D01*
X1047282D01*
Y677418D01*
X1046503D01*
Y677159D01*
X1045465D01*
Y676899D01*
X1041311D01*
Y677159D01*
X1040533D01*
Y677418D01*
X1039754D01*
Y677678D01*
X1039234D01*
Y677937D01*
X1038715D01*
Y678197D01*
X1038196D01*
Y678456D01*
X1037937D01*
Y678716D01*
X1037677D01*
Y678976D01*
X1037158D01*
Y679235D01*
X1036898D01*
Y679495D01*
X1036639D01*
Y679754D01*
X1036379D01*
Y680014D01*
X1036119D01*
Y680274D01*
X1035860D01*
Y680793D01*
X1035600D01*
Y681052D01*
X1035341D01*
Y681572D01*
X1035081D01*
Y681831D01*
X1034821D01*
Y682350D01*
X1034562D01*
Y683129D01*
X1034302D01*
Y683908D01*
X1034043D01*
Y684946D01*
X1033783D01*
Y688061D01*
X1034043D01*
Y689359D01*
X1034302D01*
Y690138D01*
X1034562D01*
Y690917D01*
X1034821D01*
Y691436D01*
X1035081D01*
Y691955D01*
X1035341D01*
Y692215D01*
X1035600D01*
Y692734D01*
X1035860D01*
Y692994D01*
X1036119D01*
Y693513D01*
X1036379D01*
Y693772D01*
X1036639D01*
Y694032D01*
X1036898D01*
Y694292D01*
X1037158D01*
Y694551D01*
X1037417D01*
Y694811D01*
X1037937D01*
Y695070D01*
X1038196D01*
Y695330D01*
X1038715D01*
Y695590D01*
X1038975D01*
Y695849D01*
X1039494D01*
Y696109D01*
X1040013D01*
Y696368D01*
X1040792D01*
Y696628D01*
X1041830D01*
Y696887D01*
X1044946D01*
Y696628D01*
D02*
G37*
G36*
X1172664Y691436D02*
X1162800D01*
Y691176D01*
X1162021D01*
Y690917D01*
X1161761D01*
Y690398D01*
X1161502D01*
Y689878D01*
X1161761D01*
Y689359D01*
X1162021D01*
Y689100D01*
X1162281D01*
Y688840D01*
X1169290D01*
Y688580D01*
X1170068D01*
Y688321D01*
X1170847D01*
Y688061D01*
X1171366D01*
Y687802D01*
X1171626D01*
Y687542D01*
X1171886D01*
Y687282D01*
X1172405D01*
Y686763D01*
X1172664D01*
Y686504D01*
X1172924D01*
Y686244D01*
X1173184D01*
Y685725D01*
X1173443D01*
Y685206D01*
X1173703D01*
Y684167D01*
X1173962D01*
Y682350D01*
X1173703D01*
Y681312D01*
X1173443D01*
Y680533D01*
X1173184D01*
Y680014D01*
X1172924D01*
Y679754D01*
X1172664D01*
Y679495D01*
X1172405D01*
Y678976D01*
X1172145D01*
Y678716D01*
X1171626D01*
Y678456D01*
X1171366D01*
Y678197D01*
X1171107D01*
Y677937D01*
X1170588D01*
Y677678D01*
X1170068D01*
Y677418D01*
X1169030D01*
Y677159D01*
X1156829D01*
Y682091D01*
X1168511D01*
Y682350D01*
X1168771D01*
Y682610D01*
X1169030D01*
Y683648D01*
X1168771D01*
Y683908D01*
X1167992D01*
Y684167D01*
X1160983D01*
Y684427D01*
X1160464D01*
Y684687D01*
X1159944D01*
Y684946D01*
X1159425D01*
Y685206D01*
X1159166D01*
Y685465D01*
X1158906D01*
Y685725D01*
X1158646D01*
Y685985D01*
X1158387D01*
Y686244D01*
X1158127D01*
Y686504D01*
X1157868D01*
Y686763D01*
X1157608D01*
Y687282D01*
X1157348D01*
Y687802D01*
X1157089D01*
Y688580D01*
X1156829D01*
Y691436D01*
X1157089D01*
Y692474D01*
X1157348D01*
Y692994D01*
X1157608D01*
Y693253D01*
X1157868D01*
Y693772D01*
X1158127D01*
Y694032D01*
X1158387D01*
Y694292D01*
X1158646D01*
Y694551D01*
X1158906D01*
Y694811D01*
X1159166D01*
Y695070D01*
X1159685D01*
Y695330D01*
X1159944D01*
Y695590D01*
X1160723D01*
Y695849D01*
X1161502D01*
Y696109D01*
X1172664D01*
Y691436D01*
D02*
G37*
G36*
X1147225Y696368D02*
X1147484D01*
Y696109D01*
X1154753D01*
Y691436D01*
X1147484D01*
Y691176D01*
X1147225D01*
Y685465D01*
X1147484D01*
Y684167D01*
X1147744D01*
Y683648D01*
X1148003D01*
Y683389D01*
X1148263D01*
Y683129D01*
X1148522D01*
Y682869D01*
X1148782D01*
Y682610D01*
X1149301D01*
Y682350D01*
X1149820D01*
Y682091D01*
X1154493D01*
Y681831D01*
X1154753D01*
Y677159D01*
X1149561D01*
Y677418D01*
X1148522D01*
Y677678D01*
X1147744D01*
Y677937D01*
X1147225D01*
Y678197D01*
X1146705D01*
Y678456D01*
X1146446D01*
Y678716D01*
X1145927D01*
Y678976D01*
X1145667D01*
Y679235D01*
X1145407D01*
Y679495D01*
X1145148D01*
Y679754D01*
X1144888D01*
Y680014D01*
X1144629D01*
Y680274D01*
X1144369D01*
Y680533D01*
X1144109D01*
Y680793D01*
X1143850D01*
Y681312D01*
X1143590D01*
Y681831D01*
X1143331D01*
Y682350D01*
X1143071D01*
Y683129D01*
X1142811D01*
Y683908D01*
X1142552D01*
Y691176D01*
X1142292D01*
Y691436D01*
X1140216D01*
Y696109D01*
X1142552D01*
Y703637D01*
X1147225D01*
Y696368D01*
D02*
G37*
G36*
X1111141Y702339D02*
X1112180D01*
Y702079D01*
X1112699D01*
Y701820D01*
X1113218D01*
Y701560D01*
X1113737D01*
Y701301D01*
X1113997D01*
Y701041D01*
X1114516D01*
Y700781D01*
X1114775D01*
Y700522D01*
X1115035D01*
Y700262D01*
X1115295D01*
Y700003D01*
X1115554D01*
Y699483D01*
X1115814D01*
Y699224D01*
X1116074D01*
Y698705D01*
X1116333D01*
Y698185D01*
X1116593D01*
Y697666D01*
X1116852D01*
Y696887D01*
X1117112D01*
Y695330D01*
X1117372D01*
Y694811D01*
X1117112D01*
Y693253D01*
X1116852D01*
Y692474D01*
X1116593D01*
Y691955D01*
X1116333D01*
Y691436D01*
X1116074D01*
Y691176D01*
X1115814D01*
Y690917D01*
X1115554D01*
Y690657D01*
X1115295D01*
Y690398D01*
X1115035D01*
Y690138D01*
X1114775D01*
Y689619D01*
X1115295D01*
Y689359D01*
X1115554D01*
Y689100D01*
X1115814D01*
Y688580D01*
X1116074D01*
Y688321D01*
X1116333D01*
Y687802D01*
X1116593D01*
Y687282D01*
X1116852D01*
Y686504D01*
X1117112D01*
Y684946D01*
X1117372D01*
Y684427D01*
X1117112D01*
Y682869D01*
X1116852D01*
Y682091D01*
X1116593D01*
Y681312D01*
X1116333D01*
Y681052D01*
X1116074D01*
Y680533D01*
X1115814D01*
Y680274D01*
X1115554D01*
Y679754D01*
X1115295D01*
Y679495D01*
X1115035D01*
Y679235D01*
X1114775D01*
Y678976D01*
X1114256D01*
Y678716D01*
X1113997D01*
Y678456D01*
X1113737D01*
Y678197D01*
X1113218D01*
Y677937D01*
X1112699D01*
Y677678D01*
X1111920D01*
Y677418D01*
X1111141D01*
Y677159D01*
X1096864D01*
Y702598D01*
X1111141D01*
Y702339D01*
D02*
G37*
G36*
X1058704Y696109D02*
Y695849D01*
Y695330D01*
X1058963D01*
Y695590D01*
X1059223D01*
Y695849D01*
X1059742D01*
Y696109D01*
X1060521D01*
Y696368D01*
X1061819D01*
Y696628D01*
X1063117D01*
Y696368D01*
X1064675D01*
Y696109D01*
X1065453D01*
Y695849D01*
X1065972D01*
Y695590D01*
X1066492D01*
Y695330D01*
X1067011D01*
Y695070D01*
X1067270D01*
Y694811D01*
X1067530D01*
Y694551D01*
X1068049D01*
Y694292D01*
X1068309D01*
Y694032D01*
X1068568D01*
Y693772D01*
X1068828D01*
Y693253D01*
X1069088D01*
Y692994D01*
X1069347D01*
Y692474D01*
X1069607D01*
Y692215D01*
X1069866D01*
Y691696D01*
X1070126D01*
Y690917D01*
X1070386D01*
Y690138D01*
X1070645D01*
Y688840D01*
X1070905D01*
Y677159D01*
X1065972D01*
Y689100D01*
X1065713D01*
Y689619D01*
X1065453D01*
Y690138D01*
X1065194D01*
Y690398D01*
X1064934D01*
Y690657D01*
X1064675D01*
Y690917D01*
X1064415D01*
Y691176D01*
X1063896D01*
Y691436D01*
X1063117D01*
Y691696D01*
X1061559D01*
Y691436D01*
X1060781D01*
Y691176D01*
X1060261D01*
Y690917D01*
X1060002D01*
Y690657D01*
X1059742D01*
Y690398D01*
X1059483D01*
Y690138D01*
X1059223D01*
Y689619D01*
X1058963D01*
Y689100D01*
X1058704D01*
Y677159D01*
X1053772D01*
Y703637D01*
X1058704D01*
Y696109D01*
D02*
G37*
G36*
X1130870Y696628D02*
X1132168D01*
Y696368D01*
X1132947D01*
Y696109D01*
X1133466D01*
Y695849D01*
X1133985D01*
Y695590D01*
X1134504D01*
Y695330D01*
X1134764D01*
Y695070D01*
X1135283D01*
Y694811D01*
X1135543D01*
Y694551D01*
X1135802D01*
Y694292D01*
X1136062D01*
Y694032D01*
X1136322D01*
Y693772D01*
X1136581D01*
Y693513D01*
X1136841D01*
Y693253D01*
X1137100D01*
Y692734D01*
X1137360D01*
Y692474D01*
X1137620D01*
Y691955D01*
X1137879D01*
Y691436D01*
X1138139D01*
Y690657D01*
X1138398D01*
Y689878D01*
X1138658D01*
Y688840D01*
X1138917D01*
Y684946D01*
X1138658D01*
Y683908D01*
X1138398D01*
Y683129D01*
X1138139D01*
Y682350D01*
X1137879D01*
Y681831D01*
X1137620D01*
Y681572D01*
X1137360D01*
Y681052D01*
X1137100D01*
Y680793D01*
X1136841D01*
Y680274D01*
X1136581D01*
Y680014D01*
X1136322D01*
Y679754D01*
X1136062D01*
Y679495D01*
X1135802D01*
Y679235D01*
X1135543D01*
Y678976D01*
X1135283D01*
Y678716D01*
X1134764D01*
Y678456D01*
X1134504D01*
Y678197D01*
X1133985D01*
Y677937D01*
X1133466D01*
Y677678D01*
X1132947D01*
Y677418D01*
X1132168D01*
Y677159D01*
X1131389D01*
Y676899D01*
X1127236D01*
Y677159D01*
X1126198D01*
Y677418D01*
X1125419D01*
Y677678D01*
X1124900D01*
Y677937D01*
X1124640D01*
Y678197D01*
X1124121D01*
Y678456D01*
X1123602D01*
Y678716D01*
X1123342D01*
Y678976D01*
X1123083D01*
Y679235D01*
X1122823D01*
Y679495D01*
X1122563D01*
Y679754D01*
X1122304D01*
Y680014D01*
X1122044D01*
Y680274D01*
X1121785D01*
Y680533D01*
X1121525D01*
Y680793D01*
X1121265D01*
Y681312D01*
X1121006D01*
Y681831D01*
X1120746D01*
Y682350D01*
X1120487D01*
Y682869D01*
X1120227D01*
Y683389D01*
X1119967D01*
Y684427D01*
X1119708D01*
Y686244D01*
X1119448D01*
Y687542D01*
X1119708D01*
Y689359D01*
X1119967D01*
Y690398D01*
X1120227D01*
Y690917D01*
X1120487D01*
Y691436D01*
X1120746D01*
Y691955D01*
X1121006D01*
Y692474D01*
X1121265D01*
Y692734D01*
X1121525D01*
Y693253D01*
X1121785D01*
Y693513D01*
X1122044D01*
Y693772D01*
X1122304D01*
Y694032D01*
X1122563D01*
Y694292D01*
X1122823D01*
Y694551D01*
X1123083D01*
Y694811D01*
X1123342D01*
Y695070D01*
X1123861D01*
Y695330D01*
X1124121D01*
Y695590D01*
X1124640D01*
Y695849D01*
X1125159D01*
Y696109D01*
X1125678D01*
Y696368D01*
X1126457D01*
Y696628D01*
X1127755D01*
Y696887D01*
X1130870D01*
Y696628D01*
D02*
G37*
G36*
X1155272Y654574D02*
X1051695D01*
Y654834D01*
X1051435D01*
Y673265D01*
X1058963D01*
Y662362D01*
X1059223D01*
Y662102D01*
X1147744D01*
Y673265D01*
X1155272D01*
Y654574D01*
D02*
G37*
%LPC*%
G36*
X1299600Y1513800D02*
X1280600D01*
Y1511400D01*
X1280400D01*
Y1507800D01*
X1280200D01*
Y1504200D01*
X1280000D01*
Y1500600D01*
X1279800D01*
Y1497000D01*
X1279600D01*
Y1493400D01*
X1279400D01*
Y1489800D01*
X1279200D01*
Y1486200D01*
X1279000D01*
Y1482600D01*
X1278800D01*
Y1479000D01*
X1278600D01*
Y1475400D01*
X1278400D01*
Y1471800D01*
X1278200D01*
Y1468200D01*
X1278000D01*
Y1467200D01*
X1278200D01*
Y1467600D01*
X1278400D01*
Y1468000D01*
X1278600D01*
Y1468400D01*
X1278800D01*
Y1468800D01*
X1279000D01*
Y1469200D01*
X1279200D01*
Y1469800D01*
X1279400D01*
Y1470200D01*
X1279600D01*
Y1470600D01*
X1279800D01*
Y1471000D01*
X1280000D01*
Y1471400D01*
X1280200D01*
Y1471800D01*
X1280400D01*
Y1472400D01*
X1280600D01*
Y1472800D01*
X1280800D01*
Y1473200D01*
X1281000D01*
Y1473600D01*
X1281200D01*
Y1474000D01*
X1281400D01*
Y1474400D01*
X1281600D01*
Y1475000D01*
X1281800D01*
Y1475400D01*
X1282000D01*
Y1475800D01*
X1282200D01*
Y1476200D01*
X1282400D01*
Y1476600D01*
X1282600D01*
Y1477000D01*
X1282800D01*
Y1477600D01*
X1283000D01*
Y1478000D01*
X1283200D01*
Y1478400D01*
X1283400D01*
Y1478800D01*
X1283600D01*
Y1479200D01*
X1283800D01*
Y1479600D01*
X1284000D01*
Y1480200D01*
X1284200D01*
Y1480600D01*
X1284400D01*
Y1481000D01*
X1284600D01*
Y1481400D01*
X1284800D01*
Y1481800D01*
X1285000D01*
Y1482200D01*
X1285200D01*
Y1482600D01*
X1285400D01*
Y1483200D01*
X1285600D01*
Y1483600D01*
X1285800D01*
Y1484000D01*
X1286000D01*
Y1484400D01*
X1286200D01*
Y1484800D01*
X1286400D01*
Y1485200D01*
X1286600D01*
Y1485800D01*
X1286800D01*
Y1486200D01*
X1287000D01*
Y1486600D01*
X1287200D01*
Y1487000D01*
X1287400D01*
Y1487400D01*
X1287600D01*
Y1487800D01*
X1287800D01*
Y1488400D01*
X1288000D01*
Y1488800D01*
X1288200D01*
Y1489200D01*
X1288400D01*
Y1489600D01*
X1288600D01*
Y1490000D01*
X1288800D01*
Y1490400D01*
X1289000D01*
Y1491000D01*
X1289200D01*
Y1491400D01*
X1289400D01*
Y1491800D01*
X1289600D01*
Y1492200D01*
X1289800D01*
Y1492600D01*
X1290000D01*
Y1493000D01*
X1290200D01*
Y1493600D01*
X1290400D01*
Y1494000D01*
X1290600D01*
Y1494400D01*
X1290800D01*
Y1494800D01*
X1291000D01*
Y1495200D01*
X1291200D01*
Y1495600D01*
X1291400D01*
Y1496200D01*
X1291600D01*
Y1496600D01*
X1291800D01*
Y1497000D01*
X1292000D01*
Y1497400D01*
X1292200D01*
Y1497800D01*
X1292400D01*
Y1498200D01*
X1292600D01*
Y1498400D01*
Y1498600D01*
Y1498800D01*
X1292800D01*
Y1499200D01*
X1293000D01*
Y1499600D01*
X1293200D01*
Y1500000D01*
X1293400D01*
Y1500400D01*
X1293600D01*
Y1500800D01*
X1293800D01*
Y1501200D01*
X1294000D01*
Y1501800D01*
X1294200D01*
Y1502200D01*
X1294400D01*
Y1502600D01*
X1294600D01*
Y1503000D01*
X1294800D01*
Y1503400D01*
X1295000D01*
Y1503800D01*
X1295200D01*
Y1504400D01*
X1295400D01*
Y1504800D01*
X1295600D01*
Y1505200D01*
X1295800D01*
Y1505600D01*
X1296000D01*
Y1506000D01*
X1296200D01*
Y1506400D01*
X1296400D01*
Y1507000D01*
X1296600D01*
Y1507400D01*
X1296800D01*
Y1507800D01*
X1297000D01*
Y1508200D01*
X1297200D01*
Y1508600D01*
X1297400D01*
Y1509000D01*
X1297600D01*
Y1509600D01*
X1297800D01*
Y1510000D01*
X1298000D01*
Y1510400D01*
X1298200D01*
Y1510800D01*
X1298400D01*
Y1511200D01*
X1298600D01*
Y1511600D01*
X1298800D01*
Y1512200D01*
X1299000D01*
Y1512600D01*
X1299200D01*
Y1513000D01*
X1299400D01*
Y1513400D01*
X1299600D01*
Y1513800D01*
D02*
G37*
G36*
X1531724Y1238402D02*
X1519145D01*
Y1230784D01*
X1519322D01*
Y1229898D01*
X1519499D01*
Y1229366D01*
X1519677D01*
Y1228835D01*
X1519854D01*
Y1228480D01*
X1520031D01*
Y1228303D01*
X1520208D01*
Y1227949D01*
X1520385D01*
Y1227772D01*
X1520562D01*
Y1227595D01*
X1520740D01*
Y1227417D01*
X1520917D01*
Y1227240D01*
X1521094D01*
Y1227063D01*
X1521271D01*
Y1226886D01*
X1521448D01*
Y1226709D01*
X1521625D01*
Y1226532D01*
X1521980D01*
Y1226354D01*
X1522334D01*
Y1226177D01*
X1522688D01*
Y1226000D01*
X1523220D01*
Y1225823D01*
X1524106D01*
Y1225646D01*
X1526763D01*
Y1225823D01*
X1527649D01*
Y1226000D01*
X1528181D01*
Y1226177D01*
X1528535D01*
Y1226354D01*
X1528889D01*
Y1226532D01*
X1529244D01*
Y1226709D01*
X1529421D01*
Y1226886D01*
X1529598D01*
Y1227063D01*
X1529952D01*
Y1227240D01*
X1530130D01*
Y1227417D01*
X1530307D01*
Y1227772D01*
X1530484D01*
Y1227949D01*
X1530661D01*
Y1228126D01*
X1530838D01*
Y1228480D01*
X1531015D01*
Y1228835D01*
X1531193D01*
Y1229189D01*
X1531370D01*
Y1229721D01*
X1531547D01*
Y1230429D01*
X1531724D01*
Y1238402D01*
D02*
G37*
G36*
X690279Y1175544D02*
X687794D01*
Y1175352D01*
X686647D01*
Y1175161D01*
X685882D01*
Y1174970D01*
X685309D01*
Y1174779D01*
X684926D01*
Y1174588D01*
X684353D01*
Y1174397D01*
X683970D01*
Y1174205D01*
X683588D01*
Y1174014D01*
X683397D01*
Y1173823D01*
X683015D01*
Y1173632D01*
X682632D01*
Y1173441D01*
X682441D01*
Y1173250D01*
X682250D01*
Y1173058D01*
X681868D01*
Y1172867D01*
X681676D01*
Y1172676D01*
X681485D01*
Y1172485D01*
X681294D01*
Y1172294D01*
X681103D01*
Y1172103D01*
X680912D01*
Y1171911D01*
X680721D01*
Y1171720D01*
X680529D01*
Y1171529D01*
X680338D01*
Y1171338D01*
X680147D01*
Y1171147D01*
X679956D01*
Y1170764D01*
X679765D01*
Y1170382D01*
X679573D01*
Y1170191D01*
X679382D01*
Y1169808D01*
X679191D01*
Y1169426D01*
X679000D01*
Y1168852D01*
X678809D01*
Y1168470D01*
X678618D01*
Y1167705D01*
X678426D01*
Y1167132D01*
X678235D01*
Y1165985D01*
X678044D01*
Y1163117D01*
X678235D01*
Y1161970D01*
X678426D01*
Y1161397D01*
X678618D01*
Y1160823D01*
X678809D01*
Y1160250D01*
X679000D01*
Y1159867D01*
X679191D01*
Y1159485D01*
X679382D01*
Y1159294D01*
X679573D01*
Y1158911D01*
X679765D01*
Y1158720D01*
X679956D01*
Y1158529D01*
X680147D01*
Y1158147D01*
X680338D01*
Y1157955D01*
X680529D01*
Y1157764D01*
X680721D01*
Y1157573D01*
X680912D01*
Y1157382D01*
X681103D01*
Y1157191D01*
X681485D01*
Y1157000D01*
X681676D01*
Y1156808D01*
X681868D01*
Y1156617D01*
X682059D01*
Y1156426D01*
X682441D01*
Y1156235D01*
X682632D01*
Y1156044D01*
X683015D01*
Y1155853D01*
X683397D01*
Y1155661D01*
X683588D01*
Y1155470D01*
X683970D01*
Y1155279D01*
X684544D01*
Y1155088D01*
X684926D01*
Y1154897D01*
X685500D01*
Y1154706D01*
X686265D01*
Y1154514D01*
X687220D01*
Y1154323D01*
X689514D01*
Y1154132D01*
X690279D01*
Y1154323D01*
X691809D01*
Y1154514D01*
X692765D01*
Y1154706D01*
X693338D01*
Y1154897D01*
X693912D01*
Y1155088D01*
X694294D01*
Y1155279D01*
X694676D01*
Y1155470D01*
X695059D01*
Y1155661D01*
X695441D01*
Y1155853D01*
X695823D01*
Y1156044D01*
X696014D01*
Y1156235D01*
X696397D01*
Y1156426D01*
X696588D01*
Y1156617D01*
X696970D01*
Y1156808D01*
X697161D01*
Y1157000D01*
X697353D01*
Y1157191D01*
X697544D01*
Y1157382D01*
X697735D01*
Y1157573D01*
X697926D01*
Y1157764D01*
X698117D01*
Y1157955D01*
X698309D01*
Y1158147D01*
X698500D01*
Y1158529D01*
X698691D01*
Y1158720D01*
X698882D01*
Y1158911D01*
X699073D01*
Y1159294D01*
X699265D01*
Y1159485D01*
X699456D01*
Y1159867D01*
X699647D01*
Y1160250D01*
X699838D01*
Y1160632D01*
X700029D01*
Y1161014D01*
X700220D01*
Y1161588D01*
X700412D01*
Y1162161D01*
X700603D01*
Y1163117D01*
X700794D01*
Y1167132D01*
X700603D01*
Y1167897D01*
X700412D01*
Y1168470D01*
X700220D01*
Y1168852D01*
X700029D01*
Y1169235D01*
X699838D01*
Y1169617D01*
X699647D01*
Y1169999D01*
X699456D01*
Y1170382D01*
X699265D01*
Y1170573D01*
X699073D01*
Y1170955D01*
X698882D01*
Y1171147D01*
X698691D01*
Y1171338D01*
X698500D01*
Y1171720D01*
X698309D01*
Y1171911D01*
X698117D01*
Y1172103D01*
X697926D01*
Y1172294D01*
X697735D01*
Y1172485D01*
X697353D01*
Y1172676D01*
X697161D01*
Y1172867D01*
X696970D01*
Y1173058D01*
X696779D01*
Y1173250D01*
X696397D01*
Y1173441D01*
X696206D01*
Y1173632D01*
X695823D01*
Y1173823D01*
X695632D01*
Y1174014D01*
X695250D01*
Y1174205D01*
X694867D01*
Y1174397D01*
X694294D01*
Y1174588D01*
X693912D01*
Y1174779D01*
X693338D01*
Y1174970D01*
X692765D01*
Y1175161D01*
X691809D01*
Y1175352D01*
X690279D01*
Y1175544D01*
D02*
G37*
G36*
X695059Y1127367D02*
X693147D01*
Y1127176D01*
X692191D01*
Y1126985D01*
X691618D01*
Y1126794D01*
X691235D01*
Y1126603D01*
X691044D01*
Y1126412D01*
X690662D01*
Y1126220D01*
X690470D01*
Y1126029D01*
X690279D01*
Y1125838D01*
X689897D01*
Y1125456D01*
X689706D01*
Y1125265D01*
X689514D01*
Y1125073D01*
X689323D01*
Y1124691D01*
X689132D01*
Y1124500D01*
X688941D01*
Y1124118D01*
X688750D01*
Y1123544D01*
X688559D01*
Y1122779D01*
X688367D01*
Y1105000D01*
X699456D01*
Y1114750D01*
X699647D01*
Y1122206D01*
X699456D01*
Y1123353D01*
X699265D01*
Y1123926D01*
X699073D01*
Y1124309D01*
X698882D01*
Y1124691D01*
X698691D01*
Y1124882D01*
X698500D01*
Y1125265D01*
X698309D01*
Y1125456D01*
X698117D01*
Y1125647D01*
X697926D01*
Y1125838D01*
X697735D01*
Y1126029D01*
X697353D01*
Y1126220D01*
X697161D01*
Y1126412D01*
X696970D01*
Y1126603D01*
X696588D01*
Y1126794D01*
X696206D01*
Y1126985D01*
X695823D01*
Y1127176D01*
X695059D01*
Y1127367D01*
D02*
G37*
G36*
X672500D02*
X670397D01*
Y1127176D01*
X669824D01*
Y1126985D01*
X669250D01*
Y1126794D01*
X668868D01*
Y1126603D01*
X668677D01*
Y1126412D01*
X668294D01*
Y1126220D01*
X668103D01*
Y1126029D01*
X667912D01*
Y1125838D01*
X667529D01*
Y1125456D01*
X667338D01*
Y1125265D01*
X667147D01*
Y1125073D01*
X666956D01*
Y1124691D01*
X666765D01*
Y1124500D01*
X666573D01*
Y1123926D01*
X666382D01*
Y1123544D01*
X666191D01*
Y1122779D01*
X666000D01*
Y1105000D01*
X677088D01*
Y1111118D01*
X677279D01*
Y1122397D01*
X677088D01*
Y1123353D01*
X676897D01*
Y1123926D01*
X676706D01*
Y1124309D01*
X676515D01*
Y1124691D01*
X676323D01*
Y1125073D01*
X676132D01*
Y1125265D01*
X675941D01*
Y1125456D01*
X675750D01*
Y1125647D01*
X675559D01*
Y1125838D01*
X675368D01*
Y1126029D01*
X675176D01*
Y1126220D01*
X674985D01*
Y1126412D01*
X674603D01*
Y1126603D01*
X674412D01*
Y1126794D01*
X673838D01*
Y1126985D01*
X673265D01*
Y1127176D01*
X672500D01*
Y1127367D01*
D02*
G37*
G36*
X1520385Y1145033D02*
X1516842D01*
Y1144856D01*
X1515602D01*
Y1144679D01*
X1514716D01*
Y1144502D01*
X1514007D01*
Y1144325D01*
X1513476D01*
Y1144147D01*
X1512944D01*
Y1143970D01*
X1512413D01*
Y1143793D01*
X1512058D01*
Y1143616D01*
X1511704D01*
Y1143439D01*
X1511350D01*
Y1143262D01*
X1510995D01*
Y1143084D01*
X1510818D01*
Y1142907D01*
X1510464D01*
Y1142730D01*
X1510287D01*
Y1142553D01*
X1509932D01*
Y1142376D01*
X1509755D01*
Y1142199D01*
X1509578D01*
Y1142021D01*
X1509223D01*
Y1141844D01*
X1509046D01*
Y1141667D01*
X1508869D01*
Y1141490D01*
X1508692D01*
Y1141313D01*
X1508515D01*
Y1141136D01*
X1508338D01*
Y1140958D01*
X1508161D01*
Y1140781D01*
X1507983D01*
Y1140604D01*
X1507806D01*
Y1140427D01*
X1507629D01*
Y1140073D01*
X1507452D01*
Y1139895D01*
X1507275D01*
Y1139718D01*
X1507097D01*
Y1139364D01*
X1506920D01*
Y1139010D01*
X1506743D01*
Y1138832D01*
X1506566D01*
Y1138478D01*
X1506389D01*
Y1138124D01*
X1506212D01*
Y1137769D01*
X1506035D01*
Y1137238D01*
X1505857D01*
Y1136706D01*
X1505680D01*
Y1136175D01*
X1505503D01*
Y1135466D01*
X1505326D01*
Y1134580D01*
X1505149D01*
Y1130151D01*
X1505326D01*
Y1129088D01*
X1505503D01*
Y1128557D01*
X1505680D01*
Y1127848D01*
X1505857D01*
Y1127494D01*
X1506035D01*
Y1126962D01*
X1506212D01*
Y1126608D01*
X1506389D01*
Y1126253D01*
X1506566D01*
Y1125899D01*
X1506743D01*
Y1125545D01*
X1506920D01*
Y1125368D01*
X1507097D01*
Y1125013D01*
X1507275D01*
Y1124836D01*
X1507452D01*
Y1124482D01*
X1507629D01*
Y1124305D01*
X1507806D01*
Y1124127D01*
X1507983D01*
Y1123950D01*
X1508161D01*
Y1123773D01*
X1508338D01*
Y1123596D01*
X1508515D01*
Y1123419D01*
X1508692D01*
Y1123241D01*
X1508869D01*
Y1123064D01*
X1509046D01*
Y1122887D01*
X1509223D01*
Y1122710D01*
X1509401D01*
Y1122533D01*
X1509578D01*
Y1122356D01*
X1509932D01*
Y1122178D01*
X1510109D01*
Y1122001D01*
X1510464D01*
Y1121824D01*
X1510641D01*
Y1121647D01*
X1510995D01*
Y1121470D01*
X1511350D01*
Y1121293D01*
X1511704D01*
Y1121115D01*
X1512058D01*
Y1120938D01*
X1512413D01*
Y1120761D01*
X1512767D01*
Y1120584D01*
X1513298D01*
Y1120407D01*
X1513830D01*
Y1120230D01*
X1514539D01*
Y1120052D01*
X1515247D01*
Y1119875D01*
X1516310D01*
Y1119698D01*
X1520917D01*
Y1119875D01*
X1521980D01*
Y1120052D01*
X1522688D01*
Y1120230D01*
X1523397D01*
Y1120407D01*
X1523929D01*
Y1120584D01*
X1524460D01*
Y1120761D01*
X1524814D01*
Y1120938D01*
X1525346D01*
Y1121115D01*
X1525700D01*
Y1121293D01*
X1525878D01*
Y1121470D01*
X1526232D01*
Y1121647D01*
X1526586D01*
Y1121824D01*
X1526763D01*
Y1122001D01*
X1527118D01*
Y1122178D01*
X1527295D01*
Y1122356D01*
X1527649D01*
Y1122533D01*
X1527826D01*
Y1122710D01*
X1528004D01*
Y1122887D01*
X1528181D01*
Y1123064D01*
X1528358D01*
Y1123241D01*
X1528535D01*
Y1123419D01*
X1528712D01*
Y1123596D01*
X1528889D01*
Y1123773D01*
X1529067D01*
Y1123950D01*
X1529244D01*
Y1124127D01*
X1529421D01*
Y1124305D01*
X1529598D01*
Y1124659D01*
X1529775D01*
Y1124836D01*
X1529952D01*
Y1125013D01*
X1530130D01*
Y1125368D01*
X1530307D01*
Y1125722D01*
X1530484D01*
Y1125899D01*
X1530661D01*
Y1126253D01*
X1530838D01*
Y1126608D01*
X1531015D01*
Y1127139D01*
X1531193D01*
Y1127494D01*
X1531370D01*
Y1128025D01*
X1531547D01*
Y1128734D01*
X1531724D01*
Y1129442D01*
X1531901D01*
Y1130505D01*
X1532078D01*
Y1134049D01*
X1531901D01*
Y1135112D01*
X1531724D01*
Y1135998D01*
X1531547D01*
Y1136529D01*
X1531370D01*
Y1137061D01*
X1531193D01*
Y1137592D01*
X1531015D01*
Y1137946D01*
X1530838D01*
Y1138301D01*
X1530661D01*
Y1138655D01*
X1530484D01*
Y1139010D01*
X1530307D01*
Y1139364D01*
X1530130D01*
Y1139541D01*
X1529952D01*
Y1139895D01*
X1529775D01*
Y1140073D01*
X1529598D01*
Y1140250D01*
X1529421D01*
Y1140604D01*
X1529244D01*
Y1140781D01*
X1529067D01*
Y1140958D01*
X1528889D01*
Y1141136D01*
X1528712D01*
Y1141313D01*
X1528535D01*
Y1141490D01*
X1528358D01*
Y1141667D01*
X1528181D01*
Y1141844D01*
X1528004D01*
Y1142021D01*
X1527649D01*
Y1142199D01*
X1527472D01*
Y1142376D01*
X1527295D01*
Y1142553D01*
X1526940D01*
Y1142730D01*
X1526763D01*
Y1142907D01*
X1526409D01*
Y1143084D01*
X1526232D01*
Y1143262D01*
X1525878D01*
Y1143439D01*
X1525523D01*
Y1143616D01*
X1525169D01*
Y1143793D01*
X1524637D01*
Y1143970D01*
X1524283D01*
Y1144147D01*
X1523752D01*
Y1144325D01*
X1523220D01*
Y1144502D01*
X1522511D01*
Y1144679D01*
X1521625D01*
Y1144856D01*
X1520385D01*
Y1145033D01*
D02*
G37*
G36*
X691044Y1073647D02*
X687985D01*
Y1073456D01*
X686838D01*
Y1073265D01*
X685882D01*
Y1073074D01*
X685309D01*
Y1072883D01*
X684926D01*
Y1072691D01*
X684544D01*
Y1072500D01*
X684162D01*
Y1072309D01*
X683779D01*
Y1072118D01*
X683397D01*
Y1071927D01*
X683206D01*
Y1071736D01*
X682823D01*
Y1071544D01*
X682632D01*
Y1071353D01*
X682250D01*
Y1071162D01*
X682059D01*
Y1070971D01*
X681868D01*
Y1070780D01*
X681676D01*
Y1070589D01*
X681485D01*
Y1070397D01*
X681294D01*
Y1070206D01*
X681103D01*
Y1070015D01*
X680912D01*
Y1069824D01*
X680721D01*
Y1069633D01*
X680529D01*
Y1069441D01*
X680338D01*
Y1069250D01*
X680147D01*
Y1068868D01*
X679956D01*
Y1068677D01*
X679765D01*
Y1068294D01*
X679573D01*
Y1068103D01*
X679382D01*
Y1067721D01*
X679191D01*
Y1067147D01*
X679000D01*
Y1066765D01*
X678809D01*
Y1066191D01*
X678618D01*
Y1065618D01*
X678426D01*
Y1064662D01*
X678235D01*
Y1062559D01*
X678044D01*
Y1061986D01*
X678235D01*
Y1060456D01*
X678426D01*
Y1059883D01*
X678618D01*
Y1059309D01*
X678809D01*
Y1058736D01*
X679000D01*
Y1058353D01*
X679191D01*
Y1057971D01*
X679382D01*
Y1057589D01*
X679573D01*
Y1057397D01*
X679765D01*
Y1057015D01*
X679956D01*
Y1056824D01*
X680147D01*
Y1056441D01*
X680338D01*
Y1056250D01*
X680529D01*
Y1056059D01*
X680721D01*
Y1055868D01*
X680912D01*
Y1055677D01*
X681103D01*
Y1055486D01*
X681294D01*
Y1055294D01*
X681676D01*
Y1055103D01*
X681868D01*
Y1054912D01*
X682059D01*
Y1054721D01*
X682441D01*
Y1054530D01*
X682632D01*
Y1054339D01*
X683015D01*
Y1054147D01*
X683397D01*
Y1053956D01*
X683779D01*
Y1053765D01*
X684162D01*
Y1053574D01*
X684544D01*
Y1053383D01*
X685117D01*
Y1053192D01*
X685691D01*
Y1053000D01*
X686456D01*
Y1052809D01*
X687603D01*
Y1052618D01*
X690853D01*
Y1052809D01*
X692191D01*
Y1053000D01*
X692956D01*
Y1053192D01*
X693720D01*
Y1053383D01*
X694294D01*
Y1053574D01*
X694676D01*
Y1053765D01*
X695059D01*
Y1053956D01*
X695441D01*
Y1054147D01*
X695823D01*
Y1054339D01*
X696206D01*
Y1054530D01*
X696397D01*
Y1054721D01*
X696588D01*
Y1054912D01*
X696970D01*
Y1055103D01*
X697161D01*
Y1055294D01*
X697353D01*
Y1055486D01*
X697544D01*
Y1055677D01*
X697735D01*
Y1055868D01*
X697926D01*
Y1056059D01*
X698117D01*
Y1056250D01*
X698309D01*
Y1056441D01*
X698500D01*
Y1056633D01*
X698691D01*
Y1056824D01*
X698882D01*
Y1057206D01*
X699073D01*
Y1057397D01*
X699265D01*
Y1057780D01*
X699456D01*
Y1058162D01*
X699647D01*
Y1058544D01*
X699838D01*
Y1059118D01*
X700029D01*
Y1059500D01*
X700220D01*
Y1060074D01*
X700412D01*
Y1060838D01*
X700603D01*
Y1062368D01*
X700794D01*
Y1063133D01*
X700603D01*
Y1064853D01*
X700412D01*
Y1065618D01*
X700220D01*
Y1066191D01*
X700029D01*
Y1066765D01*
X699838D01*
Y1067147D01*
X699647D01*
Y1067530D01*
X699456D01*
Y1067912D01*
X699265D01*
Y1068294D01*
X699073D01*
Y1068677D01*
X698882D01*
Y1068868D01*
X698691D01*
Y1069059D01*
X698500D01*
Y1069250D01*
X698309D01*
Y1069441D01*
X698117D01*
Y1069824D01*
X697926D01*
Y1070015D01*
X697735D01*
Y1070206D01*
X697544D01*
Y1070397D01*
X697353D01*
Y1070589D01*
X697161D01*
Y1070780D01*
X696779D01*
Y1070971D01*
X696588D01*
Y1071162D01*
X696397D01*
Y1071353D01*
X696206D01*
Y1071544D01*
X695823D01*
Y1071736D01*
X695632D01*
Y1071927D01*
X695250D01*
Y1072118D01*
X695059D01*
Y1072309D01*
X694676D01*
Y1072500D01*
X694294D01*
Y1072691D01*
X693912D01*
Y1072883D01*
X693338D01*
Y1073074D01*
X692765D01*
Y1073265D01*
X692191D01*
Y1073456D01*
X691044D01*
Y1073647D01*
D02*
G37*
G36*
X1084144Y691955D02*
X1081548D01*
Y691696D01*
X1080769D01*
Y691436D01*
X1080250D01*
Y691176D01*
X1079990D01*
Y690917D01*
X1079731D01*
Y690657D01*
X1079471D01*
Y690398D01*
X1079212D01*
Y690138D01*
X1078952D01*
Y689619D01*
X1078692D01*
Y689100D01*
X1078433D01*
Y688061D01*
X1078173D01*
Y685465D01*
X1078433D01*
Y684687D01*
X1078692D01*
Y683908D01*
X1078952D01*
Y683648D01*
X1079212D01*
Y683389D01*
X1079471D01*
Y682869D01*
X1079990D01*
Y682610D01*
X1080250D01*
Y682350D01*
X1080509D01*
Y682091D01*
X1081288D01*
Y681831D01*
X1082327D01*
Y681572D01*
X1083625D01*
Y681831D01*
X1084403D01*
Y682091D01*
X1084923D01*
Y682350D01*
X1085442D01*
Y682610D01*
X1085701D01*
Y682869D01*
X1086220D01*
Y683129D01*
X1086480D01*
Y683648D01*
X1086740D01*
Y683908D01*
X1086999D01*
Y684427D01*
X1087259D01*
Y684946D01*
X1087518D01*
Y685465D01*
X1087778D01*
Y688061D01*
X1087518D01*
Y688840D01*
X1087259D01*
Y689359D01*
X1086999D01*
Y689878D01*
X1086740D01*
Y690138D01*
X1086480D01*
Y690398D01*
X1086220D01*
Y690657D01*
X1085961D01*
Y690917D01*
X1085701D01*
Y691176D01*
X1085182D01*
Y691436D01*
X1084923D01*
Y691696D01*
X1084144D01*
Y691955D01*
D02*
G37*
G36*
X1110622Y697407D02*
X1102056D01*
Y692474D01*
X1110622D01*
Y692734D01*
X1111141D01*
Y692994D01*
X1111401D01*
Y693253D01*
X1111660D01*
Y693513D01*
X1111920D01*
Y694292D01*
X1112180D01*
Y695849D01*
X1111920D01*
Y696368D01*
X1111660D01*
Y696628D01*
X1111401D01*
Y696887D01*
X1111141D01*
Y697147D01*
X1110622D01*
Y697407D01*
D02*
G37*
G36*
Y687282D02*
X1102056D01*
Y682350D01*
X1110622D01*
Y682610D01*
X1111141D01*
Y682869D01*
X1111401D01*
Y683129D01*
X1111660D01*
Y683389D01*
X1111920D01*
Y683908D01*
X1112180D01*
Y685725D01*
X1111920D01*
Y686244D01*
X1111660D01*
Y686504D01*
X1111401D01*
Y686763D01*
X1111141D01*
Y687023D01*
X1110622D01*
Y687282D01*
D02*
G37*
G36*
X1130611Y691955D02*
X1128015D01*
Y691696D01*
X1127236D01*
Y691436D01*
X1126717D01*
Y691176D01*
X1126457D01*
Y690917D01*
X1125938D01*
Y690657D01*
X1125678D01*
Y690138D01*
X1125419D01*
Y689878D01*
X1125159D01*
Y689359D01*
X1124900D01*
Y688840D01*
X1124640D01*
Y687802D01*
X1124380D01*
Y685985D01*
X1124640D01*
Y684946D01*
X1124900D01*
Y684427D01*
X1125159D01*
Y683908D01*
X1125419D01*
Y683648D01*
X1125678D01*
Y683129D01*
X1125938D01*
Y682869D01*
X1126198D01*
Y682610D01*
X1126717D01*
Y682350D01*
X1126976D01*
Y682091D01*
X1127495D01*
Y681831D01*
X1128534D01*
Y681572D01*
X1129832D01*
Y681831D01*
X1130870D01*
Y682091D01*
X1131389D01*
Y682350D01*
X1131909D01*
Y682610D01*
X1132168D01*
Y682869D01*
X1132428D01*
Y683129D01*
X1132687D01*
Y683389D01*
X1132947D01*
Y683648D01*
X1133206D01*
Y683908D01*
X1133466D01*
Y684427D01*
X1133726D01*
Y685206D01*
X1133985D01*
Y688580D01*
X1133726D01*
Y689100D01*
X1133466D01*
Y689619D01*
X1133206D01*
Y690138D01*
X1132947D01*
Y690398D01*
X1132687D01*
Y690657D01*
X1132428D01*
Y690917D01*
X1132168D01*
Y691176D01*
X1131649D01*
Y691436D01*
X1131130D01*
Y691696D01*
X1130611D01*
Y691955D01*
D02*
G37*
%LPD*%
D10*
X1140311Y1100000D02*
G03*
X1140311Y1100000I-40311J0D01*
G01*
X1440000Y1189400D02*
G03*
X1414600Y1214800I-25400J0D01*
G01*
X1211400D02*
G03*
X1186000Y1189400I0J-25400D01*
G01*
Y1011600D02*
G03*
X1211400Y986200I25400J0D01*
G01*
X1414600D02*
G03*
X1440000Y1011600I0J25400D01*
G01*
X578705Y844641D02*
G03*
X578705Y844641I-1000J0D01*
G01*
X1141000Y1680000D02*
G03*
X1141000Y1680000I-1000J0D01*
G01*
X1336959Y1631341D02*
G03*
X1336959Y1631341I-1000J0D01*
G01*
X1504459Y1518594D02*
G03*
X1504459Y1518594I-1000J0D01*
G01*
X1623295Y1355359D02*
G03*
X1623295Y1355359I-1000J0D01*
G01*
X1679135Y1161324D02*
G03*
X1679135Y1161324I-1000J0D01*
G01*
X1665243Y959892D02*
G03*
X1665243Y959892I-1000J0D01*
G01*
X1583295Y775359D02*
G03*
X1583295Y775359I-1000J0D01*
G01*
X1443175Y629983D02*
G03*
X1443175Y629983I-1000J0D01*
G01*
X1261784Y541297D02*
G03*
X1261784Y541297I-1000J0D01*
G01*
X1061000Y520000D02*
G03*
X1061000Y520000I-1000J0D01*
G01*
X865041Y568659D02*
G03*
X865041Y568659I-1000J0D01*
G01*
X697541Y681406D02*
G03*
X697541Y681406I-1000J0D01*
G01*
X522866Y1038676D02*
G03*
X522866Y1038676I-1000J0D01*
G01*
X536757Y1240108D02*
G03*
X536757Y1240108I-1000J0D01*
G01*
X618705Y1424641D02*
G03*
X618705Y1424641I-1000J0D01*
G01*
X758825Y1570017D02*
G03*
X758825Y1570017I-1000J0D01*
G01*
X940216Y1658703D02*
G03*
X940216Y1658703I-1000J0D01*
G01*
X923468Y1597952D02*
G03*
X923468Y1597952I-1396J317D01*
G01*
X1287076Y1563481D02*
G03*
X1287076Y1563481I-1432J0D01*
G01*
X1190500Y920000D02*
Y1279000D01*
X736500Y920000D02*
X1190500D01*
X736500D02*
Y1279000D01*
X1190500Y1279000D01*
X820500Y898490D02*
Y920000D01*
Y800000D02*
Y821510D01*
X700500Y800000D02*
Y821510D01*
Y898490D02*
Y920000D01*
Y800000D02*
X820500D01*
X700500Y920000D02*
X820500D01*
X1440000Y1011600D02*
Y1189400D01*
X1211400Y1214800D02*
X1414600D01*
X1186000Y1011600D02*
Y1189400D01*
X1211400Y986200D02*
X1414600D01*
X1379500Y800000D02*
X1499500D01*
X1379500Y920000D02*
X1499500D01*
Y800000D02*
Y821510D01*
Y898490D02*
Y920000D01*
X1379500Y898490D02*
Y920000D01*
Y800000D02*
Y821510D01*
D11*
X920090Y1567497D02*
G03*
X950216Y1560663I17830J8781D01*
G01*
X955820Y1585371D02*
G03*
X925694Y1592204I-17830J-8781D01*
G01*
X1274430Y1592205D02*
G03*
X1244240Y1585660I-12445J-15496D01*
G01*
X1249608Y1560900D02*
G03*
X1279797Y1567445I12445J15496D01*
G01*
X1100000Y1100000D02*
Y1140000D01*
Y1059689D02*
Y1100000D01*
X1060000D02*
X1140000D01*
X622058Y789419D02*
X626129Y791769D01*
X577631Y763769D02*
X603352Y778619D01*
X592058Y841381D02*
X596129Y843731D01*
X547631Y815731D02*
X573352Y830581D01*
X596129Y843731D02*
X626129Y791769D01*
X547631Y815731D02*
X577631Y763769D01*
X1070000Y1664500D02*
Y1669200D01*
Y1690800D02*
Y1720500D01*
X1130000Y1664500D02*
Y1669200D01*
Y1690800D02*
Y1720500D01*
X1070000Y1664500D02*
X1130000D01*
X1070000Y1720500D02*
X1130000D01*
X1284033Y1693340D02*
X1340414Y1672819D01*
X1264880Y1640717D02*
X1321261Y1620196D01*
X1330256Y1644910D02*
X1340414Y1672819D01*
X1321261Y1620196D02*
X1322869Y1624612D01*
X1273875Y1665431D02*
X1284033Y1693340D01*
X1264880Y1640717D02*
X1266487Y1645134D01*
X1439872Y1551716D02*
X1442893Y1555316D01*
X1456778Y1571863D02*
X1475868Y1594614D01*
X1485835Y1513148D02*
X1488856Y1516749D01*
X1502740Y1533295D02*
X1521831Y1556047D01*
X1439872Y1551716D02*
X1485835Y1513148D01*
X1475868Y1594614D02*
X1521831Y1556047D01*
X1622369Y1436231D02*
X1652369Y1384269D01*
X1573871Y1408231D02*
X1603871Y1356269D01*
X1626648Y1369419D02*
X1652369Y1384269D01*
X1603871Y1356269D02*
X1607942Y1358619D01*
X1596648Y1421381D02*
X1622369Y1436231D01*
X1573871Y1408231D02*
X1577942Y1410581D01*
X1650715Y1227569D02*
X1655343Y1228385D01*
X1676615Y1232136D02*
X1705864Y1237293D01*
X1661134Y1168480D02*
X1665762Y1169296D01*
X1687034Y1173047D02*
X1716283Y1178204D01*
X1650715Y1227569D02*
X1661134Y1168480D01*
X1705864Y1237293D02*
X1716283Y1178204D01*
X1705864Y962707D02*
X1716283Y1021796D01*
X1650715Y972431D02*
X1661134Y1031520D01*
X1676615Y967864D02*
X1705864Y962707D01*
X1650715Y972431D02*
X1655343Y971615D01*
X1687034Y1026953D02*
X1716283Y1021796D01*
X1661134Y1031520D02*
X1665762Y1030704D01*
X1603871Y843731D02*
X1607942Y841381D01*
X1626648Y830581D02*
X1652369Y815731D01*
X1573871Y791769D02*
X1577942Y789419D01*
X1596648Y778619D02*
X1622369Y763769D01*
X1573871Y791769D02*
X1603871Y843731D01*
X1622369Y763769D02*
X1652369Y815731D01*
X1475868Y605386D02*
X1521831Y643953D01*
X1439872Y648284D02*
X1485835Y686852D01*
X1456778Y628137D02*
X1475868Y605386D01*
X1439872Y648284D02*
X1442893Y644684D01*
X1502740Y666705D02*
X1521831Y643953D01*
X1485835Y686852D02*
X1488856Y683251D01*
X1321261Y579804D02*
X1322869Y575387D01*
X1330256Y555090D02*
X1340414Y527181D01*
X1264880Y559283D02*
X1266487Y554866D01*
X1273875Y534569D02*
X1284033Y506660D01*
X1264880Y559283D02*
X1321261Y579804D01*
X1284033Y506660D02*
X1340414Y527181D01*
X1070000Y479500D02*
X1130000D01*
X1070000Y535500D02*
X1130000D01*
X1070000Y479500D02*
Y509200D01*
Y530800D02*
Y535500D01*
X1130000Y479500D02*
Y509200D01*
Y530800D02*
Y535500D01*
X933513Y554866D02*
X935120Y559283D01*
X915967Y506660D02*
X926125Y534569D01*
X877131Y575387D02*
X878739Y579804D01*
X859586Y527181D02*
X869744Y555090D01*
X878739Y579804D02*
X935120Y559283D01*
X859586Y527181D02*
X915967Y506660D01*
X678169Y643953D02*
X724132Y605386D01*
X714165Y686852D02*
X760128Y648284D01*
X678169Y643953D02*
X697260Y666705D01*
X711144Y683251D02*
X714165Y686852D01*
X724132Y605386D02*
X743222Y628137D01*
X757107Y644684D02*
X760128Y648284D01*
X483717Y1021796D02*
X494136Y962707D01*
X538867Y1031520D02*
X549285Y972431D01*
X483717Y1021796D02*
X512966Y1026953D01*
X534238Y1030704D02*
X538867Y1031520D01*
X494136Y962707D02*
X523385Y967864D01*
X544657Y971615D02*
X549285Y972431D01*
X534238Y1169296D02*
X538867Y1168480D01*
X483717Y1178204D02*
X512966Y1173047D01*
X544657Y1228385D02*
X549285Y1227569D01*
X494136Y1237293D02*
X523385Y1232136D01*
X538867Y1168480D02*
X549285Y1227569D01*
X483717Y1178204D02*
X494136Y1237293D01*
X547631Y1384269D02*
X577631Y1436231D01*
X596129Y1356269D02*
X626129Y1408231D01*
X577631Y1436231D02*
X603352Y1421381D01*
X622058Y1410581D02*
X626129Y1408231D01*
X547631Y1384269D02*
X573352Y1369419D01*
X592058Y1358619D02*
X596129Y1356269D01*
X711144Y1516749D02*
X714165Y1513148D01*
X678169Y1556047D02*
X697260Y1533295D01*
X757107Y1555316D02*
X760128Y1551716D01*
X724132Y1594614D02*
X743222Y1571863D01*
X714165Y1513148D02*
X760128Y1551716D01*
X678169Y1556047D02*
X724132Y1594614D01*
X859586Y1672819D02*
X915967Y1693340D01*
X878739Y1620196D02*
X935120Y1640717D01*
X915967Y1693340D02*
X926125Y1665431D01*
X933513Y1645134D02*
X935120Y1640717D01*
X859586Y1672819D02*
X869744Y1644910D01*
X877131Y1624612D02*
X878739Y1620196D01*
D12*
X1100100Y563500D02*
X1105100Y568500D01*
X1095100D02*
X1100100Y563500D01*
D13*
X955540Y1234540D02*
Y1241205D01*
X958872Y1244537D01*
X962205Y1241205D01*
Y1234540D01*
Y1239538D01*
X955540D01*
X965537Y1244537D02*
Y1234540D01*
X970535D01*
X972201Y1236206D01*
Y1242871D01*
X970535Y1244537D01*
X965537D01*
X975534Y1239538D02*
X982198D01*
X985530Y1234540D02*
X988863D01*
X987197D01*
Y1244537D01*
X985530Y1242871D01*
X1211540Y1235740D02*
Y1242404D01*
X1214872Y1245737D01*
X1218204Y1242404D01*
Y1235740D01*
Y1240738D01*
X1211540D01*
X1221537Y1245737D02*
Y1235740D01*
X1226535D01*
X1228201Y1237406D01*
Y1244071D01*
X1226535Y1245737D01*
X1221537D01*
X1231534Y1240738D02*
X1238198D01*
X1248195Y1235740D02*
X1241530D01*
X1248195Y1242404D01*
Y1244071D01*
X1246529Y1245737D01*
X1243196D01*
X1241530Y1244071D01*
X961540Y1056540D02*
Y1066537D01*
X964872Y1063204D01*
X968204Y1066537D01*
Y1056540D01*
X971537Y1061538D02*
X978201D01*
X981534Y1066537D02*
Y1056540D01*
X986532D01*
X988198Y1058206D01*
Y1064871D01*
X986532Y1066537D01*
X981534D01*
X941540Y1081540D02*
Y1091537D01*
X948204Y1081540D01*
Y1091537D01*
X958201D02*
X951537D01*
Y1081540D01*
X958201D01*
X951537Y1086538D02*
X954869D01*
X966532Y1091537D02*
X963200D01*
X961534Y1089871D01*
Y1083206D01*
X963200Y1081540D01*
X966532D01*
X968198Y1083206D01*
Y1089871D01*
X966532Y1091537D01*
X971530Y1086538D02*
X978195D01*
X981527Y1091537D02*
Y1081540D01*
X986525D01*
X988192Y1083206D01*
Y1089871D01*
X986525Y1091537D01*
X981527D01*
X1211540Y1040537D02*
X1218204D01*
X1214872D01*
Y1030540D01*
X1221537Y1040537D02*
X1228201Y1030540D01*
Y1040537D02*
X1221537Y1030540D01*
X1231534Y1035538D02*
X1238198D01*
X1241530Y1040537D02*
Y1030540D01*
X1246529D01*
X1248195Y1032206D01*
Y1033872D01*
X1246529Y1035538D01*
X1241530D01*
X1246529D01*
X1248195Y1037205D01*
Y1038871D01*
X1246529Y1040537D01*
X1241530D01*
X1251527Y1030540D02*
Y1037205D01*
X1254859Y1040537D01*
X1258192Y1037205D01*
Y1030540D01*
Y1035538D01*
X1251527D01*
X1261524Y1040537D02*
Y1030540D01*
X1268188D01*
X1271521Y1040537D02*
Y1030540D01*
X1278185D01*
X1211540Y1057540D02*
Y1067537D01*
X1216538D01*
X1218204Y1065871D01*
Y1062538D01*
X1216538Y1060872D01*
X1211540D01*
X1214872D02*
X1218204Y1057540D01*
X1221537Y1067537D02*
X1228201Y1057540D01*
Y1067537D02*
X1221537Y1057540D01*
X1231534Y1062538D02*
X1238198D01*
X1241530Y1067537D02*
Y1057540D01*
X1246529D01*
X1248195Y1059206D01*
Y1060872D01*
X1246529Y1062538D01*
X1241530D01*
X1246529D01*
X1248195Y1064204D01*
Y1065871D01*
X1246529Y1067537D01*
X1241530D01*
X1251527Y1057540D02*
Y1064204D01*
X1254859Y1067537D01*
X1258192Y1064204D01*
Y1057540D01*
Y1062538D01*
X1251527D01*
X1261524Y1067537D02*
Y1057540D01*
X1268188D01*
X1271521Y1067537D02*
Y1057540D01*
X1278185D01*
X951540Y1030540D02*
Y1040537D01*
X956538D01*
X958204Y1038871D01*
Y1035538D01*
X956538Y1033872D01*
X951540D01*
X954872D02*
X958204Y1030540D01*
X961537Y1040537D02*
X968201Y1030540D01*
Y1040537D02*
X961537Y1030540D01*
X971534Y1035538D02*
X978198D01*
X981530Y1030540D02*
Y1040537D01*
X984863Y1037205D01*
X988195Y1040537D01*
Y1030540D01*
X951540Y1013537D02*
X958204D01*
X954872D01*
Y1003540D01*
X961537Y1013537D02*
X968201Y1003540D01*
Y1013537D02*
X961537Y1003540D01*
X971534Y1008538D02*
X978198D01*
X981530Y1003540D02*
Y1013537D01*
X984863Y1010204D01*
X988195Y1013537D01*
Y1003540D01*
X971540Y1167871D02*
X973206Y1169537D01*
X976538D01*
X978204Y1167871D01*
Y1166205D01*
X976538Y1164538D01*
X974872D01*
X976538D01*
X978204Y1162872D01*
Y1161206D01*
X976538Y1159540D01*
X973206D01*
X971540Y1161206D01*
X981537Y1169537D02*
Y1162872D01*
X984869Y1159540D01*
X988201Y1162872D01*
Y1169537D01*
X1211540Y862871D02*
X1213206Y864537D01*
X1216538D01*
X1218204Y862871D01*
Y861205D01*
X1216538Y859538D01*
X1214872D01*
X1216538D01*
X1218204Y857872D01*
Y856206D01*
X1216538Y854540D01*
X1213206D01*
X1211540Y856206D01*
X1221537Y864537D02*
Y857872D01*
X1224869Y854540D01*
X1228201Y857872D01*
Y864537D01*
X1211540Y814537D02*
Y807872D01*
X1214872Y804540D01*
X1218204Y807872D01*
Y814537D01*
X1221537D02*
X1224869D01*
X1223203D01*
Y804540D01*
X1221537D01*
X1224869D01*
X1229867D02*
Y814537D01*
X1236532Y804540D01*
Y814537D01*
X988204Y810871D02*
X986538Y812537D01*
X983206D01*
X981540Y810871D01*
Y804206D01*
X983206Y802540D01*
X986538D01*
X988204Y804206D01*
Y807538D01*
X984872D01*
X991537Y802540D02*
Y812537D01*
X998201Y802540D01*
Y812537D01*
X1001534D02*
Y802540D01*
X1006532D01*
X1008198Y804206D01*
Y810871D01*
X1006532Y812537D01*
X1001534D01*
X1218204Y1167871D02*
X1216538Y1169537D01*
X1213206D01*
X1211540Y1167871D01*
Y1161206D01*
X1213206Y1159540D01*
X1216538D01*
X1218204Y1161206D01*
Y1164538D01*
X1214872D01*
X1221537Y1159540D02*
Y1169537D01*
X1228201Y1159540D01*
Y1169537D01*
X1231534D02*
Y1159540D01*
X1236532D01*
X1238198Y1161206D01*
Y1167871D01*
X1236532Y1169537D01*
X1231534D01*
X1218204Y837871D02*
X1216538Y839537D01*
X1213206D01*
X1211540Y837871D01*
Y831206D01*
X1213206Y829540D01*
X1216538D01*
X1218204Y831206D01*
Y834538D01*
X1214872D01*
X1221537Y829540D02*
Y839537D01*
X1228201Y829540D01*
Y839537D01*
X1231534D02*
Y829540D01*
X1236532D01*
X1238198Y831206D01*
Y837871D01*
X1236532Y839537D01*
X1231534D01*
X1347540Y973537D02*
X1354205D01*
X1350872D01*
Y963540D01*
X1322540D02*
Y973537D01*
X1327538D01*
X1329205Y971871D01*
Y968538D01*
X1327538Y966872D01*
X1322540D01*
X1325872D02*
X1329205Y963540D01*
X1303204Y971871D02*
X1301538Y973537D01*
X1298206D01*
X1296540Y971871D01*
Y965206D01*
X1298206Y963540D01*
X1301538D01*
X1303204Y965206D01*
Y968538D01*
X1299872D01*
X1058540Y583537D02*
Y576872D01*
X1061872Y573540D01*
X1065204Y576872D01*
Y583537D01*
X1091205Y581871D02*
X1089538Y583537D01*
X1086206D01*
X1084540Y581871D01*
Y575206D01*
X1086206Y573540D01*
X1089538D01*
X1091205Y575206D01*
Y578538D01*
X1087872D01*
X1135540Y583537D02*
Y573540D01*
X1140538D01*
X1142205Y575206D01*
Y581871D01*
X1140538Y583537D01*
X1135540D01*
X1116205Y581871D02*
X1114538Y583537D01*
X1111206D01*
X1109540Y581871D01*
Y575206D01*
X1111206Y573540D01*
X1114538D01*
X1116205Y575206D01*
Y578538D01*
X1112872D01*
X738537Y1141460D02*
X731872D01*
X728540Y1138128D01*
X731872Y1134796D01*
X738537D01*
X736871Y1108795D02*
X738537Y1110462D01*
Y1113794D01*
X736871Y1115460D01*
X730206D01*
X728540Y1113794D01*
Y1110462D01*
X730206Y1108795D01*
X733538D01*
Y1112128D01*
X728540Y1064460D02*
X735204D01*
X738537Y1061128D01*
X735204Y1057795D01*
X728540D01*
X733538D01*
Y1064460D01*
X738537Y1090460D02*
X728540D01*
Y1083795D01*
X1461463Y1108540D02*
X1471460D01*
Y1115204D01*
Y1134540D02*
X1464796D01*
X1461463Y1137872D01*
X1464796Y1141205D01*
X1471460D01*
X1466462D01*
Y1134540D01*
X1463129Y1090204D02*
X1461463Y1088538D01*
Y1085206D01*
X1463129Y1083540D01*
X1469794D01*
X1471460Y1085206D01*
Y1088538D01*
X1469794Y1090204D01*
X1466462D01*
Y1086872D01*
X1461463Y1057540D02*
X1468128D01*
X1471460Y1060872D01*
X1468128Y1064204D01*
X1461463D01*
X1245540Y973537D02*
Y966872D01*
X1248872Y963540D01*
X1252205Y966872D01*
Y973537D01*
X1084687Y793617D02*
X1079608D01*
X1077069Y791078D01*
Y780922D01*
X1079608Y778382D01*
X1084687D01*
X1087226Y780922D01*
Y791078D01*
X1084687Y793617D01*
X1092304D02*
Y778382D01*
X1102461D01*
X1117696Y793617D02*
X1107539D01*
Y778382D01*
X1117696D01*
X1107539Y786000D02*
X1112617D01*
X1122774Y793617D02*
Y778382D01*
X1130392D01*
X1132931Y780922D01*
Y791078D01*
X1130392Y793617D01*
X1122774D01*
X1460443Y1214927D02*
X1450286Y1204770D01*
Y1214927D02*
X1460443Y1204770D01*
X1455365Y1214927D02*
Y1204770D01*
X1450286Y1209849D02*
X1460443D01*
X1378804Y941618D02*
Y926383D01*
X1386422D01*
X1388961Y928922D01*
Y931461D01*
X1386422Y934000D01*
X1378804D01*
X1386422D01*
X1388961Y936539D01*
Y939078D01*
X1386422Y941618D01*
X1378804D01*
X1404196Y926383D02*
X1394039D01*
X1404196Y936539D01*
Y939078D01*
X1401657Y941618D01*
X1396578D01*
X1394039Y939078D01*
X701343Y941618D02*
Y926383D01*
X708961D01*
X711500Y928922D01*
Y931461D01*
X708961Y934000D01*
X701343D01*
X708961D01*
X711500Y936539D01*
Y939078D01*
X708961Y941618D01*
X701343D01*
X716578Y926383D02*
X721657D01*
X719118D01*
Y941618D01*
X716578Y939078D01*
X1080687Y610882D02*
Y626118D01*
X1090843Y610882D01*
Y626118D01*
X1106078D02*
X1095922D01*
Y610882D01*
X1106078D01*
X1095922Y618500D02*
X1101000D01*
X1118774Y626118D02*
X1113696D01*
X1111157Y623578D01*
Y613422D01*
X1113696Y610882D01*
X1118774D01*
X1121313Y613422D01*
Y623578D01*
X1118774Y626118D01*
X917833Y1674739D02*
X913061Y1673002D01*
X915447Y1673871D01*
X910237Y1688187D01*
X912623Y1689055D01*
X907851Y1687318D01*
X900693Y1684713D02*
X905903Y1670397D01*
X898745Y1667791D01*
X895491Y1669309D01*
X893754Y1674081D01*
X895271Y1677336D01*
X902430Y1679941D01*
X897657Y1678204D02*
X891148Y1681239D01*
X886376Y1679502D02*
X881604Y1677765D01*
X883990Y1678634D01*
X889201Y1664317D01*
X890719Y1667572D01*
X878788Y1663230D02*
X877271Y1659975D01*
X872499Y1658238D01*
X869244Y1659756D01*
X868376Y1662142D01*
X869893Y1665397D01*
X866639Y1666914D01*
X865770Y1669300D01*
X867288Y1672555D01*
X872060Y1674292D01*
X875314Y1672774D01*
X876183Y1670388D01*
X874665Y1667133D01*
X877920Y1665616D01*
X878788Y1663230D01*
X874665Y1667133D02*
X869893Y1665397D01*
X732247Y1577773D02*
X728357Y1574509D01*
X730302Y1576141D01*
X720509Y1587812D01*
X722454Y1589444D01*
X718564Y1586180D01*
X712729Y1581283D02*
X722522Y1569612D01*
X716686Y1564716D01*
X713109Y1565029D01*
X709845Y1568919D01*
X710158Y1572497D01*
X715993Y1577393D01*
X712103Y1574129D02*
X704948Y1574755D01*
X701058Y1571490D02*
X697168Y1568226D01*
X699113Y1569858D01*
X708906Y1558188D01*
X709219Y1561765D01*
X701125Y1551659D02*
X693345Y1545130D01*
X691713Y1547075D01*
X692964Y1561384D01*
X691332Y1563330D01*
X591017Y1423181D02*
X588478Y1418783D01*
X589748Y1420982D01*
X576554Y1428600D01*
X577823Y1430799D01*
X575284Y1426401D01*
X571475Y1419804D02*
X584669Y1412186D01*
X580861Y1405589D01*
X577392Y1404660D01*
X572994Y1407199D01*
X572065Y1410668D01*
X575873Y1417265D01*
X573334Y1412867D02*
X566397Y1411008D01*
X563858Y1406610D02*
X561319Y1402212D01*
X562588Y1404411D01*
X575782Y1396793D01*
X574853Y1400262D01*
X565625Y1379201D02*
X565966Y1384869D01*
X564107Y1391806D01*
X559709Y1394345D01*
X556240Y1393416D01*
X553701Y1389018D01*
X554631Y1385549D01*
X556830Y1384280D01*
X560298Y1385209D01*
X564107Y1391806D01*
X511178Y1229609D02*
X510296Y1224607D01*
X510737Y1227108D01*
X495734Y1229754D01*
X496175Y1232254D01*
X495293Y1227253D01*
X493970Y1219751D02*
X508974Y1217106D01*
X507651Y1209604D01*
X504709Y1207544D01*
X499708Y1208426D01*
X497649Y1211367D01*
X498971Y1218869D01*
X498089Y1213868D02*
X492206Y1209749D01*
X491325Y1204748D02*
X490443Y1199746D01*
X490884Y1202247D01*
X505887Y1199601D01*
X503828Y1202543D01*
X502360Y1179597D02*
X504123Y1189599D01*
X496622Y1190922D01*
X498241Y1185480D01*
X497799Y1182979D01*
X494858Y1180919D01*
X489857Y1181801D01*
X487797Y1184743D01*
X488679Y1189744D01*
X491620Y1191804D01*
X502360Y1020403D02*
X503242Y1015402D01*
X502801Y1017903D01*
X487797Y1015257D01*
X487356Y1017758D01*
X488238Y1012757D01*
X489561Y1005255D02*
X504564Y1007900D01*
X505887Y1000399D01*
X503828Y997457D01*
X498826Y996575D01*
X495885Y998635D01*
X494562Y1006137D01*
X495444Y1001135D02*
X491325Y995252D01*
X492206Y990251D02*
X493088Y985250D01*
X492647Y987751D01*
X507651Y990396D01*
X504709Y992456D01*
X495734Y970246D02*
X510737Y972892D01*
X501913Y979071D01*
X503676Y969069D01*
X565626Y820799D02*
X568165Y816401D01*
X566895Y818600D01*
X553701Y810982D01*
X552432Y813181D01*
X554971Y808783D01*
X558780Y802186D02*
X571973Y809804D01*
X575782Y803207D01*
X574853Y799738D01*
X570455Y797199D01*
X566986Y798128D01*
X563177Y804725D01*
X565717Y800327D02*
X563858Y793390D01*
X566397Y788992D02*
X568936Y784594D01*
X567667Y786793D01*
X580861Y794411D01*
X577392Y795340D01*
X583740Y784345D02*
X587209Y783416D01*
X589748Y779018D01*
X588818Y775549D01*
X586619Y774280D01*
X583151Y775209D01*
X581881Y777408D01*
X583151Y775209D01*
X582221Y771740D01*
X580022Y770471D01*
X576554Y771400D01*
X574015Y775798D01*
X574944Y779267D01*
X693345Y654870D02*
X697235Y651605D01*
X695290Y653238D01*
X685497Y641567D01*
X683552Y643199D01*
X687442Y639935D01*
X693278Y635038D02*
X703070Y646709D01*
X708906Y641813D01*
X709219Y638235D01*
X705954Y634345D01*
X702377Y634032D01*
X696542Y638928D01*
X700432Y635664D02*
X701058Y628510D01*
X704948Y625245D02*
X708838Y621981D01*
X706893Y623613D01*
X716686Y635284D01*
X713109Y634971D01*
X722454Y610556D02*
X714674Y617085D01*
X728983Y618336D01*
X730615Y620282D01*
X730302Y623859D01*
X726412Y627123D01*
X722835Y626810D01*
X872499Y541762D02*
X877271Y540025D01*
X874885Y540893D01*
X869674Y526577D01*
X867288Y527445D01*
X872060Y525709D01*
X879218Y523103D02*
X884429Y537419D01*
X891587Y534814D01*
X893105Y531559D01*
X891368Y526787D01*
X888113Y525270D01*
X880955Y527875D01*
X885727Y526138D02*
X888762Y519629D01*
X893534Y517892D02*
X898307Y516156D01*
X895920Y517024D01*
X901131Y531340D01*
X897877Y529823D01*
X905465Y513550D02*
X910237Y511813D01*
X907851Y512682D01*
X913061Y526998D01*
X909807Y525480D01*
X1074608Y497617D02*
X1079687D01*
X1077147D01*
Y482382D01*
X1074608D01*
X1079687D01*
X1087304D02*
Y497617D01*
X1094922D01*
X1097461Y495078D01*
Y490000D01*
X1094922Y487461D01*
X1087304D01*
X1092383D02*
X1097461Y482382D01*
X1102539D02*
X1107617D01*
X1105078D01*
Y497617D01*
X1102539Y495078D01*
X1115235D02*
X1117774Y497617D01*
X1122853D01*
X1125392Y495078D01*
Y484922D01*
X1122853Y482382D01*
X1117774D01*
X1115235Y484922D01*
Y495078D01*
X1288132Y527432D02*
X1292904Y529169D01*
X1290518Y528301D01*
X1295728Y513984D01*
X1293342Y513116D01*
X1298114Y514853D01*
X1305273Y517458D02*
X1300062Y531774D01*
X1307220Y534380D01*
X1310475Y532862D01*
X1312211Y528090D01*
X1310694Y524836D01*
X1303536Y522230D01*
X1308308Y523967D02*
X1314817Y520932D01*
X1318720Y525055D02*
X1321975Y523537D01*
X1326747Y525274D01*
X1328265Y528529D01*
X1324791Y538073D01*
X1321536Y539590D01*
X1316764Y537854D01*
X1315247Y534599D01*
X1316115Y532213D01*
X1319370Y530695D01*
X1326528Y533301D01*
X1472616Y626307D02*
X1476506Y629571D01*
X1474561Y627939D01*
X1484354Y616269D01*
X1482408Y614636D01*
X1486299Y617901D01*
X1492134Y622797D02*
X1482341Y634468D01*
X1488177Y639364D01*
X1491754Y639051D01*
X1495018Y635161D01*
X1494705Y631584D01*
X1488870Y626687D01*
X1492760Y629952D02*
X1499915Y629326D01*
X1495644Y642316D02*
X1495957Y645893D01*
X1499847Y649157D01*
X1503425Y648844D01*
X1505057Y646899D01*
X1504744Y643322D01*
X1508321Y643009D01*
X1509953Y641064D01*
X1509640Y637486D01*
X1505750Y634222D01*
X1502173Y634535D01*
X1500541Y636480D01*
X1500853Y640058D01*
X1497276Y640370D01*
X1495644Y642316D01*
X1500853Y640058D02*
X1504744Y643322D01*
X1612157Y782316D02*
X1614696Y786714D01*
X1613426Y784515D01*
X1626620Y776898D01*
X1625351Y774699D01*
X1627890Y779097D01*
X1631699Y785694D02*
X1618505Y793311D01*
X1622313Y799908D01*
X1625782Y800838D01*
X1630180Y798298D01*
X1631109Y794830D01*
X1627301Y788233D01*
X1629840Y792631D02*
X1636777Y794490D01*
X1626122Y806505D02*
X1631201Y815301D01*
X1633400Y814032D01*
X1637117Y800157D01*
X1639316Y798888D01*
X1689924Y976643D02*
X1690806Y981644D01*
X1690365Y979144D01*
X1705369Y976498D01*
X1704928Y973997D01*
X1705809Y978998D01*
X1707132Y986500D02*
X1692129Y989146D01*
X1693452Y996648D01*
X1696393Y998707D01*
X1701394Y997825D01*
X1703454Y994884D01*
X1702131Y987382D01*
X1703013Y992383D02*
X1708896Y996503D01*
X1696538Y1014152D02*
X1698157Y1008710D01*
X1702276Y1002827D01*
X1707277Y1001945D01*
X1710219Y1004005D01*
X1711101Y1009006D01*
X1709041Y1011947D01*
X1706540Y1012388D01*
X1703599Y1010329D01*
X1702276Y1002827D01*
X1696538Y1185848D02*
X1695656Y1190849D01*
X1696097Y1188349D01*
X1711101Y1190994D01*
X1711541Y1188494D01*
X1710660Y1193495D01*
X1709337Y1200997D02*
X1694333Y1198351D01*
X1693011Y1205853D01*
X1695070Y1208794D01*
X1700071Y1209676D01*
X1703013Y1207617D01*
X1704336Y1200115D01*
X1703454Y1205116D02*
X1707573Y1210999D01*
X1689924Y1223357D02*
X1691688Y1213355D01*
X1699190Y1214678D01*
X1695807Y1219238D01*
X1695366Y1221738D01*
X1697426Y1224680D01*
X1702427Y1225562D01*
X1705369Y1223502D01*
X1706250Y1218501D01*
X1704191Y1215559D01*
X1631201Y1384699D02*
X1628661Y1389097D01*
X1629931Y1386898D01*
X1643125Y1394515D01*
X1644394Y1392316D01*
X1641855Y1396714D01*
X1638047Y1403311D02*
X1624852Y1395694D01*
X1621044Y1402291D01*
X1621973Y1405759D01*
X1626371Y1408298D01*
X1629840Y1407369D01*
X1633649Y1400772D01*
X1631109Y1405170D02*
X1632968Y1412107D01*
X1626620Y1423102D02*
X1613426Y1415485D01*
X1623832Y1412697D01*
X1618754Y1421492D01*
X1501792Y1549211D02*
X1497902Y1552475D01*
X1499847Y1550843D01*
X1509640Y1562514D01*
X1511585Y1560881D01*
X1507695Y1564146D01*
X1501860Y1569042D02*
X1492067Y1557371D01*
X1486232Y1562268D01*
X1485918Y1565845D01*
X1489183Y1569735D01*
X1492760Y1570048D01*
X1498595Y1565152D01*
X1494705Y1568416D02*
X1494079Y1575571D01*
X1482028Y1569109D02*
X1478451Y1568797D01*
X1474561Y1572061D01*
X1474248Y1575638D01*
X1475880Y1577583D01*
X1479457Y1577896D01*
X1481402Y1576264D01*
X1479457Y1577896D01*
X1479144Y1581474D01*
X1480776Y1583419D01*
X1484354Y1583732D01*
X1488244Y1580467D01*
X1488557Y1576890D01*
X1323922Y1659541D02*
X1319150Y1661278D01*
X1321536Y1660410D01*
X1326747Y1674726D01*
X1329133Y1673857D01*
X1324361Y1675594D01*
X1317203Y1678199D02*
X1311992Y1663883D01*
X1304834Y1666489D01*
X1303316Y1669743D01*
X1305053Y1674515D01*
X1308308Y1676033D01*
X1315466Y1673427D01*
X1310694Y1675164D02*
X1307659Y1681673D01*
X1293342Y1686884D02*
X1302887Y1683410D01*
X1289868Y1677340D01*
X1289000Y1674954D01*
X1290518Y1671699D01*
X1295290Y1669962D01*
X1298544Y1671480D01*
X1116505Y1702383D02*
X1111426D01*
X1113966D01*
Y1717618D01*
X1116505D01*
X1111426D01*
X1103809D02*
Y1702383D01*
X1096191D01*
X1093652Y1704922D01*
Y1710000D01*
X1096191Y1712539D01*
X1103809D01*
X1098730D02*
X1093652Y1717618D01*
X1088574D02*
X1083495D01*
X1086034D01*
Y1702383D01*
X1088574Y1704922D01*
X1421382Y1078687D02*
X1434078D01*
X1436618Y1081226D01*
Y1086304D01*
X1434078Y1088843D01*
X1421382D01*
X1423922Y1104078D02*
X1421382Y1101539D01*
Y1096461D01*
X1423922Y1093922D01*
X1426461D01*
X1429000Y1096461D01*
Y1101539D01*
X1431539Y1104078D01*
X1434078D01*
X1436618Y1101539D01*
Y1096461D01*
X1434078Y1093922D01*
X1423922Y1109157D02*
X1421382Y1111696D01*
Y1116774D01*
X1423922Y1119314D01*
X1426461D01*
X1429000Y1116774D01*
Y1114235D01*
Y1116774D01*
X1431539Y1119314D01*
X1434078D01*
X1436618Y1116774D01*
Y1111696D01*
X1434078Y1109157D01*
X1120813Y1421882D02*
Y1434578D01*
X1118274Y1437118D01*
X1113196D01*
X1110657Y1434578D01*
Y1421882D01*
X1095422Y1424422D02*
X1097961Y1421882D01*
X1103039D01*
X1105578Y1424422D01*
Y1426961D01*
X1103039Y1429500D01*
X1097961D01*
X1095422Y1432039D01*
Y1434578D01*
X1097961Y1437118D01*
X1103039D01*
X1105578Y1434578D01*
X1080187Y1437118D02*
X1090343D01*
X1080187Y1426961D01*
Y1424422D01*
X1082726Y1421882D01*
X1087804D01*
X1090343Y1424422D01*
X780618Y1117774D02*
X767922D01*
X765382Y1115235D01*
Y1110157D01*
X767922Y1107617D01*
X780618D01*
X778078Y1092382D02*
X780618Y1094922D01*
Y1100000D01*
X778078Y1102539D01*
X775539D01*
X773000Y1100000D01*
Y1094922D01*
X770461Y1092382D01*
X767922D01*
X765382Y1094922D01*
Y1100000D01*
X767922Y1102539D01*
X765382Y1087304D02*
Y1082226D01*
Y1084765D01*
X780618D01*
X778078Y1087304D01*
M02*
