G04*
G04 #@! TF.GenerationSoftware,Altium Limited,Altium Designer,25.4.2 (15)*
G04*
G04 Layer_Physical_Order=1*
G04 Layer_Color=255*
%FSLAX44Y44*%
%MOMM*%
G71*
G04*
G04 #@! TF.SameCoordinates,80CFFD5A-54A5-451F-B997-A2DA6E1B210F*
G04*
G04*
G04 #@! TF.FilePolarity,Positive*
G04*
G01*
G75*
%ADD14R,2.4000X0.8000*%
%ADD15R,0.8000X2.4000*%
%ADD34C,0.5000*%
%ADD35C,1.8000*%
%ADD36C,1.3080*%
%ADD37R,2.0000X2.0000*%
%ADD38C,2.0000*%
%ADD39P,2.8284X4X85.0*%
%ADD40P,2.8284X4X185.0*%
%ADD41C,1.8500*%
%ADD42P,2.8284X4X345.0*%
%ADD43R,2.0000X2.0000*%
%ADD44P,2.8284X4X205.0*%
%ADD45P,2.8284X4X145.0*%
%ADD46P,2.8284X4X125.0*%
%ADD47P,2.8284X4X105.0*%
%ADD48P,2.8284X4X65.0*%
%ADD49C,1.3700*%
%ADD50C,0.5000*%
%ADD51C,0.6000*%
%ADD52C,0.4500*%
%ADD53C,6.0000*%
G36*
X1413685Y1643319D02*
X1580594Y1503266D01*
X1689535Y1314573D01*
X1727370Y1100000D01*
X1689535Y885427D01*
X1580594Y696734D01*
X1413685Y556681D01*
X1208942Y482161D01*
X991058D01*
X786315Y556681D01*
X619406Y696734D01*
X510465Y885427D01*
X472630Y1100000D01*
X510465Y1314573D01*
X619406Y1503266D01*
X786315Y1643319D01*
X991058Y1717839D01*
X1208942D01*
X1413685Y1643319D01*
D02*
G37*
%LPC*%
G36*
X1076251Y1692540D02*
X1072949D01*
X1069760Y1691685D01*
X1066900Y1690034D01*
X1064566Y1687700D01*
X1062915Y1684840D01*
X1062060Y1681651D01*
Y1678349D01*
X1062915Y1675160D01*
X1064566Y1672300D01*
X1066900Y1669966D01*
X1069760Y1668315D01*
X1072949Y1667460D01*
X1076251D01*
X1079440Y1668315D01*
X1082300Y1669966D01*
X1084634Y1672300D01*
X1086285Y1675160D01*
X1087140Y1678349D01*
Y1681651D01*
X1086285Y1684840D01*
X1084634Y1687700D01*
X1082300Y1690034D01*
X1079440Y1691685D01*
X1076251Y1692540D01*
D02*
G37*
G36*
X1273952Y1666345D02*
X1270700Y1665772D01*
X1267708Y1664377D01*
X1265178Y1662254D01*
X1263284Y1659549D01*
X1262155Y1656447D01*
X1261867Y1653157D01*
X1262441Y1649906D01*
X1263836Y1646913D01*
X1265958Y1644384D01*
X1268663Y1642490D01*
X1271766Y1641361D01*
X1275055Y1641073D01*
X1278307Y1641646D01*
X1281299Y1643042D01*
X1283829Y1645164D01*
X1285723Y1647869D01*
X1286852Y1650972D01*
X1287140Y1654261D01*
X1286566Y1657512D01*
X1285171Y1660505D01*
X1283049Y1663034D01*
X1280344Y1664928D01*
X1277241Y1666057D01*
X1273952Y1666345D01*
D02*
G37*
G36*
X878312Y1648971D02*
X875023Y1648683D01*
X871920Y1647554D01*
X869215Y1645660D01*
X867093Y1643130D01*
X865697Y1640138D01*
X865124Y1636886D01*
X865412Y1633597D01*
X866541Y1630494D01*
X868435Y1627789D01*
X870964Y1625667D01*
X873957Y1624272D01*
X877208Y1623698D01*
X880498Y1623986D01*
X883600Y1625115D01*
X886305Y1627009D01*
X888428Y1629539D01*
X889823Y1632531D01*
X890396Y1635783D01*
X890108Y1639072D01*
X888979Y1642175D01*
X887085Y1644879D01*
X884556Y1647002D01*
X881563Y1648397D01*
X878312Y1648971D01*
D02*
G37*
G36*
X1314745Y1652407D02*
X1306167Y1628840D01*
X1317101Y1624860D01*
Y1514868D01*
X1177882Y1375650D01*
X1177395Y1375780D01*
X1175005D01*
X1172695Y1375161D01*
X1170625Y1373966D01*
X1168934Y1372275D01*
X1167739Y1370205D01*
X1167120Y1367895D01*
Y1365505D01*
X1167739Y1363195D01*
X1168934Y1361125D01*
X1170625Y1359434D01*
X1172695Y1358239D01*
X1175005Y1357620D01*
X1177395D01*
X1179705Y1358239D01*
X1181775Y1359434D01*
X1182501Y1360160D01*
X1207840D01*
Y1373240D01*
X1193326D01*
X1192354Y1375587D01*
X1325874Y1509106D01*
X1326987Y1510773D01*
X1327379Y1512740D01*
Y1618905D01*
X1329459Y1620362D01*
X1329735Y1620262D01*
X1338313Y1643829D01*
X1314745Y1652407D01*
D02*
G37*
G36*
X926734Y1591838D02*
X923434Y1591710D01*
X920281Y1590733D01*
X917487Y1588972D01*
X915245Y1586549D01*
X913706Y1583627D01*
X912975Y1580407D01*
X913103Y1577108D01*
X914081Y1573954D01*
X915841Y1571161D01*
X918264Y1568918D01*
X921186Y1567379D01*
X924406Y1566649D01*
X927705Y1566777D01*
X930859Y1567754D01*
X933652Y1569515D01*
X935895Y1571938D01*
X937434Y1574859D01*
X938164Y1578079D01*
X938036Y1581379D01*
X937059Y1584532D01*
X935298Y1587326D01*
X932875Y1589569D01*
X929954Y1591107D01*
X926734Y1591838D01*
D02*
G37*
G36*
X1273387Y1591848D02*
X1270160Y1591149D01*
X1267224Y1589638D01*
X1264779Y1587419D01*
X1262992Y1584642D01*
X1261985Y1581498D01*
X1261825Y1578200D01*
X1262525Y1574973D01*
X1264036Y1572037D01*
X1266255Y1569592D01*
X1269031Y1567805D01*
X1272176Y1566798D01*
X1275474Y1566638D01*
X1278701Y1567338D01*
X1281637Y1568849D01*
X1284081Y1571068D01*
X1285868Y1573844D01*
X1286876Y1576989D01*
X1287035Y1580287D01*
X1286336Y1583514D01*
X1284825Y1586449D01*
X1282606Y1588894D01*
X1279829Y1590681D01*
X1276685Y1591689D01*
X1273387Y1591848D01*
D02*
G37*
G36*
X1453911Y1573269D02*
X1450622Y1572981D01*
X1447519Y1571852D01*
X1444814Y1569958D01*
X1442692Y1567428D01*
X1441297Y1564436D01*
X1440723Y1561184D01*
X1441011Y1557895D01*
X1442140Y1554792D01*
X1444034Y1552088D01*
X1446564Y1549965D01*
X1449556Y1548570D01*
X1452808Y1547996D01*
X1456097Y1548284D01*
X1459200Y1549413D01*
X1461904Y1551307D01*
X1464027Y1553837D01*
X1465422Y1556829D01*
X1465995Y1560081D01*
X1465708Y1563370D01*
X1464578Y1566473D01*
X1462685Y1569178D01*
X1460155Y1571300D01*
X1457163Y1572695D01*
X1453911Y1573269D01*
D02*
G37*
G36*
X1137940Y1692540D02*
X1112860D01*
Y1667460D01*
X1130673D01*
X1171061Y1627072D01*
Y1537366D01*
X1168521Y1536313D01*
X1168138Y1536697D01*
X1166102Y1537540D01*
X1163898D01*
X1161862Y1536697D01*
X1160303Y1535138D01*
X1160094Y1534631D01*
X1151366Y1525904D01*
X1150252Y1524237D01*
X1149861Y1522271D01*
Y1458309D01*
X1148615Y1457624D01*
X1147321Y1457399D01*
X1145486Y1459234D01*
X1142854Y1460754D01*
X1139919Y1461540D01*
X1136881D01*
X1133946Y1460754D01*
X1131314Y1459234D01*
X1129166Y1457086D01*
X1127646Y1454454D01*
X1126860Y1451519D01*
Y1448481D01*
X1127646Y1445546D01*
X1129166Y1442914D01*
X1131314Y1440766D01*
X1133946Y1439247D01*
X1136881Y1438460D01*
X1139919D01*
X1142854Y1439247D01*
X1145486Y1440766D01*
X1147321Y1442601D01*
X1148615Y1442376D01*
X1149861Y1441692D01*
Y1437128D01*
X1133366Y1420634D01*
X1132252Y1418967D01*
X1131861Y1417000D01*
Y1252000D01*
X1132252Y1250033D01*
X1133366Y1248366D01*
X1144166Y1237566D01*
X1144760Y1237170D01*
Y1233160D01*
X1169899D01*
X1170625Y1232434D01*
X1172695Y1231239D01*
X1175005Y1230620D01*
X1177395D01*
X1179705Y1231239D01*
X1181775Y1232434D01*
X1183466Y1234125D01*
X1184661Y1236195D01*
X1185280Y1238505D01*
Y1240895D01*
X1184661Y1243205D01*
X1183466Y1245275D01*
X1181775Y1246966D01*
X1179705Y1248161D01*
X1177395Y1248780D01*
X1175005D01*
X1172695Y1248161D01*
X1170625Y1246966D01*
X1169899Y1246240D01*
X1158297D01*
X1157800Y1246339D01*
X1149929D01*
X1142139Y1254129D01*
Y1414872D01*
X1158634Y1431366D01*
X1159748Y1433033D01*
X1160139Y1435000D01*
Y1520142D01*
X1166707Y1526711D01*
X1168138Y1527303D01*
X1168521Y1527687D01*
X1171061Y1526634D01*
Y1399618D01*
X1170625Y1399366D01*
X1169899Y1398640D01*
X1144760D01*
Y1385560D01*
X1169899D01*
X1170625Y1384834D01*
X1172695Y1383639D01*
X1175005Y1383020D01*
X1177395D01*
X1179705Y1383639D01*
X1181775Y1384834D01*
X1183466Y1386525D01*
X1184661Y1388595D01*
X1185280Y1390905D01*
Y1393295D01*
X1184661Y1395605D01*
X1183466Y1397675D01*
X1181775Y1399366D01*
X1181339Y1399618D01*
Y1629200D01*
X1180948Y1631167D01*
X1179834Y1632834D01*
X1137940Y1674727D01*
Y1692540D01*
D02*
G37*
G36*
X707174Y1540615D02*
X703922Y1540042D01*
X700930Y1538646D01*
X698400Y1536524D01*
X696507Y1533819D01*
X695377Y1530717D01*
X695089Y1527427D01*
X695663Y1524176D01*
X697058Y1521183D01*
X699181Y1518654D01*
X701885Y1516760D01*
X704988Y1515631D01*
X708277Y1515343D01*
X711529Y1515916D01*
X714521Y1517312D01*
X717051Y1519434D01*
X718945Y1522139D01*
X720074Y1525241D01*
X720362Y1528531D01*
X719789Y1531782D01*
X718393Y1534775D01*
X716271Y1537304D01*
X713566Y1539198D01*
X710463Y1540327D01*
X707174Y1540615D01*
D02*
G37*
G36*
X760390Y1549124D02*
X758400Y1548883D01*
X756653Y1547899D01*
X755415Y1546321D01*
X754876Y1544390D01*
X755117Y1542400D01*
X756101Y1540653D01*
X766713Y1528291D01*
X775106Y1518514D01*
X774145Y1515875D01*
X773858Y1512586D01*
X774431Y1509334D01*
X775826Y1506342D01*
X777949Y1503812D01*
X780654Y1501918D01*
X783756Y1500789D01*
X787046Y1500501D01*
X790297Y1501075D01*
X793290Y1502470D01*
X795819Y1504592D01*
X797713Y1507297D01*
X798842Y1510400D01*
X799130Y1513689D01*
X798557Y1516941D01*
X797161Y1519933D01*
X795039Y1522463D01*
X792334Y1524357D01*
X789231Y1525486D01*
X785942Y1525774D01*
X782882Y1525234D01*
X774511Y1534985D01*
X763899Y1547347D01*
X762321Y1548584D01*
X760390Y1549124D01*
D02*
G37*
G36*
X1475429Y1515107D02*
X1473518Y1514500D01*
X1471985Y1513207D01*
X1462605Y1501465D01*
X1455572Y1492662D01*
X1452973Y1493120D01*
X1449684Y1492832D01*
X1446581Y1491703D01*
X1443876Y1489809D01*
X1441754Y1487280D01*
X1440358Y1484287D01*
X1439785Y1481036D01*
X1440073Y1477746D01*
X1441202Y1474644D01*
X1443096Y1471939D01*
X1445625Y1469816D01*
X1448618Y1468421D01*
X1451870Y1467848D01*
X1455159Y1468136D01*
X1458262Y1469265D01*
X1460966Y1471159D01*
X1463089Y1473688D01*
X1464484Y1476680D01*
X1465057Y1479932D01*
X1464770Y1483221D01*
X1463648Y1486304D01*
X1470206Y1494514D01*
X1470997Y1495305D01*
X1471168Y1495718D01*
X1480015Y1506793D01*
X1480937Y1508573D01*
X1481107Y1510571D01*
X1480500Y1512482D01*
X1479207Y1514015D01*
X1477427Y1514937D01*
X1475429Y1515107D01*
D02*
G37*
G36*
X1039102Y1537540D02*
X1036898D01*
X1034862Y1536697D01*
X1033303Y1535138D01*
X1032460Y1533102D01*
Y1530898D01*
X1033303Y1528862D01*
X1034862Y1527303D01*
X1035831Y1526902D01*
X1039861Y1522872D01*
Y1436000D01*
X1040252Y1434034D01*
X1041366Y1432366D01*
X1060861Y1412872D01*
Y1258129D01*
X1047571Y1244839D01*
X1031318D01*
X1031066Y1245275D01*
X1029375Y1246966D01*
X1027305Y1248161D01*
X1024995Y1248780D01*
X1022605D01*
X1020295Y1248161D01*
X1018225Y1246966D01*
X1017499Y1246240D01*
X992260D01*
Y1233160D01*
X1017499D01*
X1018225Y1232434D01*
X1020295Y1231239D01*
X1022605Y1230620D01*
X1024995D01*
X1027305Y1231239D01*
X1029375Y1232434D01*
X1031066Y1234125D01*
X1031318Y1234561D01*
X1049700D01*
X1051666Y1234952D01*
X1053334Y1236066D01*
X1069634Y1252366D01*
X1070748Y1254034D01*
X1071139Y1256000D01*
Y1415000D01*
X1070748Y1416967D01*
X1069634Y1418634D01*
X1050139Y1438129D01*
Y1442731D01*
X1052679Y1443411D01*
X1052966Y1442914D01*
X1055114Y1440766D01*
X1057746Y1439247D01*
X1060681Y1438460D01*
X1063719D01*
X1066654Y1439247D01*
X1069286Y1440766D01*
X1071434Y1442914D01*
X1072954Y1445546D01*
X1073648Y1448137D01*
X1076152D01*
X1076846Y1445546D01*
X1078366Y1442914D01*
X1080514Y1440766D01*
X1083146Y1439247D01*
X1086081Y1438460D01*
X1089119D01*
X1092054Y1439247D01*
X1094686Y1440766D01*
X1096834Y1442914D01*
X1098354Y1445546D01*
X1099140Y1448481D01*
Y1451519D01*
X1098354Y1454454D01*
X1096834Y1457086D01*
X1094686Y1459234D01*
X1092054Y1460754D01*
X1089119Y1461540D01*
X1086081D01*
X1083146Y1460754D01*
X1080514Y1459234D01*
X1078366Y1457086D01*
X1076846Y1454454D01*
X1076152Y1451863D01*
X1073648D01*
X1072954Y1454454D01*
X1071434Y1457086D01*
X1069286Y1459234D01*
X1066654Y1460754D01*
X1063719Y1461540D01*
X1060681D01*
X1057746Y1460754D01*
X1055114Y1459234D01*
X1052966Y1457086D01*
X1052679Y1456589D01*
X1050139Y1457269D01*
Y1525000D01*
X1049748Y1526967D01*
X1048634Y1528634D01*
X1043098Y1534169D01*
X1042697Y1535138D01*
X1041138Y1536697D01*
X1039102Y1537540D01*
D02*
G37*
G36*
X1392061Y1477540D02*
X1386939D01*
X1381880Y1476739D01*
X1377009Y1475156D01*
X1372445Y1472831D01*
X1368302Y1469820D01*
X1364680Y1466198D01*
X1361669Y1462055D01*
X1359344Y1457491D01*
X1357761Y1452620D01*
X1356960Y1447561D01*
Y1442439D01*
X1357761Y1437380D01*
X1359344Y1432509D01*
X1361669Y1427945D01*
X1364680Y1423802D01*
X1368302Y1420180D01*
X1372445Y1417169D01*
X1377009Y1414844D01*
X1381880Y1413261D01*
X1386939Y1412460D01*
X1392061D01*
X1397120Y1413261D01*
X1401991Y1414844D01*
X1406555Y1417169D01*
X1410698Y1420180D01*
X1414320Y1423802D01*
X1417331Y1427945D01*
X1419656Y1432509D01*
X1421239Y1437380D01*
X1422040Y1442439D01*
Y1447561D01*
X1421239Y1452620D01*
X1419656Y1457491D01*
X1417331Y1462055D01*
X1414320Y1466198D01*
X1410698Y1469820D01*
X1406555Y1472831D01*
X1401991Y1475156D01*
X1397120Y1476739D01*
X1392061Y1477540D01*
D02*
G37*
G36*
X813061D02*
X807939D01*
X802880Y1476739D01*
X798009Y1475156D01*
X793445Y1472831D01*
X789302Y1469820D01*
X785680Y1466198D01*
X782669Y1462055D01*
X780344Y1457491D01*
X778761Y1452620D01*
X777960Y1447561D01*
Y1442439D01*
X778761Y1437380D01*
X780344Y1432509D01*
X782669Y1427945D01*
X785680Y1423802D01*
X789302Y1420180D01*
X793445Y1417169D01*
X798009Y1414844D01*
X802880Y1413261D01*
X807939Y1412460D01*
X813061D01*
X818120Y1413261D01*
X822991Y1414844D01*
X827555Y1417169D01*
X831698Y1420180D01*
X835320Y1423802D01*
X838331Y1427945D01*
X840656Y1432509D01*
X842239Y1437380D01*
X843040Y1442439D01*
Y1447561D01*
X842239Y1452620D01*
X840656Y1457491D01*
X838331Y1462055D01*
X835320Y1466198D01*
X831698Y1469820D01*
X827555Y1472831D01*
X822991Y1475156D01*
X818120Y1476739D01*
X813061Y1477540D01*
D02*
G37*
G36*
X1591246Y1424537D02*
X1587944D01*
X1584754Y1423683D01*
X1581895Y1422032D01*
X1579560Y1419697D01*
X1577909Y1416837D01*
X1577055Y1413648D01*
Y1410346D01*
X1577909Y1407157D01*
X1579560Y1404297D01*
X1581895Y1401963D01*
X1584754Y1400312D01*
X1587944Y1399457D01*
X1591246D01*
X1594435Y1400312D01*
X1597294Y1401963D01*
X1599629Y1404297D01*
X1601280Y1407157D01*
X1602135Y1410346D01*
Y1413648D01*
X1601280Y1416837D01*
X1599629Y1419697D01*
X1597294Y1422032D01*
X1594435Y1423683D01*
X1591246Y1424537D01*
D02*
G37*
G36*
X932991Y1669782D02*
X909424Y1661204D01*
X918002Y1637636D01*
X929952Y1641986D01*
X1018661Y1553277D01*
Y1399618D01*
X1018225Y1399366D01*
X1017499Y1398640D01*
X992260D01*
Y1385560D01*
X1017499D01*
X1018225Y1384834D01*
X1020295Y1383639D01*
X1022605Y1383020D01*
X1024995D01*
X1027305Y1383639D01*
X1029375Y1384834D01*
X1031066Y1386525D01*
X1032261Y1388595D01*
X1032880Y1390905D01*
Y1393295D01*
X1032261Y1395605D01*
X1031066Y1397675D01*
X1029375Y1399366D01*
X1028939Y1399618D01*
Y1555406D01*
X1028548Y1557372D01*
X1027434Y1559039D01*
X941331Y1645141D01*
X941569Y1646214D01*
X941569Y1646214D01*
X932991Y1669782D01*
D02*
G37*
G36*
X748186Y1578299D02*
X728974Y1562178D01*
X745095Y1542966D01*
X760025Y1555494D01*
X797239D01*
X989666Y1363066D01*
X991333Y1361952D01*
X993300Y1361561D01*
X1016282D01*
X1016534Y1361125D01*
X1018225Y1359434D01*
X1020295Y1358239D01*
X1022605Y1357620D01*
X1024995D01*
X1027305Y1358239D01*
X1029375Y1359434D01*
X1030101Y1360160D01*
X1055340D01*
Y1373240D01*
X1030101D01*
X1029375Y1373966D01*
X1027305Y1375161D01*
X1024995Y1375780D01*
X1022605D01*
X1020295Y1375161D01*
X1018225Y1373966D01*
X1016534Y1372275D01*
X1016282Y1371839D01*
X995428D01*
X803001Y1564266D01*
X801334Y1565380D01*
X799367Y1565771D01*
X758699D01*
X748186Y1578299D01*
D02*
G37*
G36*
X586656Y1380543D02*
X583354D01*
X580165Y1379688D01*
X577305Y1378038D01*
X574971Y1375703D01*
X573320Y1372843D01*
X572465Y1369654D01*
Y1366352D01*
X573320Y1363163D01*
X574971Y1360303D01*
X577305Y1357968D01*
X580165Y1356317D01*
X583354Y1355463D01*
X586656D01*
X589846Y1356317D01*
X592705Y1357968D01*
X595040Y1360303D01*
X596691Y1363163D01*
X597545Y1366352D01*
Y1369654D01*
X596691Y1372843D01*
X595040Y1375703D01*
X592705Y1378038D01*
X589846Y1379688D01*
X586656Y1380543D01*
D02*
G37*
G36*
X1411960Y1530804D02*
X1395839Y1511592D01*
X1408367Y1501080D01*
Y1486687D01*
X1408759Y1484720D01*
X1409872Y1483053D01*
X1427861Y1465065D01*
Y1420544D01*
X1353756Y1346439D01*
X1183718D01*
X1183466Y1346875D01*
X1181775Y1348566D01*
X1179705Y1349761D01*
X1177395Y1350380D01*
X1175005D01*
X1172695Y1349761D01*
X1170625Y1348566D01*
X1169899Y1347840D01*
X1144760D01*
Y1334760D01*
X1169899D01*
X1170625Y1334034D01*
X1172695Y1332839D01*
X1175005Y1332220D01*
X1177395D01*
X1179705Y1332839D01*
X1181775Y1334034D01*
X1183466Y1335725D01*
X1183718Y1336161D01*
X1355885D01*
X1357851Y1336552D01*
X1359518Y1337666D01*
X1436634Y1414782D01*
X1437748Y1416449D01*
X1438139Y1418415D01*
Y1467193D01*
X1437748Y1469160D01*
X1436634Y1470827D01*
X1418645Y1488815D01*
Y1499753D01*
X1431173Y1514683D01*
X1411960Y1530804D01*
D02*
G37*
G36*
X749124Y1498151D02*
X729912Y1482030D01*
X742440Y1467099D01*
Y1444421D01*
X742831Y1442455D01*
X743945Y1440788D01*
X847066Y1337666D01*
X848734Y1336552D01*
X850700Y1336161D01*
X992260D01*
Y1334760D01*
X1017499D01*
X1018225Y1334034D01*
X1020295Y1332839D01*
X1022605Y1332220D01*
X1024995D01*
X1027305Y1332839D01*
X1029375Y1334034D01*
X1031066Y1335725D01*
X1032261Y1337795D01*
X1032880Y1340105D01*
Y1342495D01*
X1032261Y1344805D01*
X1031066Y1346875D01*
X1029375Y1348566D01*
X1027305Y1349761D01*
X1024995Y1350380D01*
X1022605D01*
X1020295Y1349761D01*
X1018225Y1348566D01*
X1017499Y1347840D01*
X992260D01*
Y1346439D01*
X852829D01*
X752718Y1446550D01*
Y1468426D01*
X765246Y1478938D01*
X749124Y1498151D01*
D02*
G37*
G36*
X1490729Y1545646D02*
X1474608Y1526433D01*
X1487136Y1515921D01*
Y1429403D01*
X1378772Y1321039D01*
X1207840D01*
Y1322440D01*
X1182501D01*
X1181775Y1323166D01*
X1179705Y1324361D01*
X1177395Y1324980D01*
X1175005D01*
X1172695Y1324361D01*
X1170625Y1323166D01*
X1168934Y1321475D01*
X1167739Y1319405D01*
X1167120Y1317095D01*
Y1314705D01*
X1167739Y1312395D01*
X1168934Y1310325D01*
X1170625Y1308634D01*
X1172695Y1307439D01*
X1175005Y1306820D01*
X1177395D01*
X1179705Y1307439D01*
X1181775Y1308634D01*
X1182501Y1309360D01*
X1207840D01*
Y1310761D01*
X1380900D01*
X1382867Y1311152D01*
X1384534Y1312266D01*
X1495908Y1423641D01*
X1497022Y1425308D01*
X1497413Y1427274D01*
Y1514594D01*
X1509941Y1529525D01*
X1490729Y1545646D01*
D02*
G37*
G36*
X605815Y1429127D02*
X593275Y1407407D01*
X614995Y1394867D01*
X615882Y1396403D01*
X618400Y1396735D01*
X702869Y1312266D01*
X704536Y1311152D01*
X706502Y1310761D01*
X1016282D01*
X1016534Y1310325D01*
X1018225Y1308634D01*
X1020295Y1307439D01*
X1022605Y1306820D01*
X1024995D01*
X1027305Y1307439D01*
X1029375Y1308634D01*
X1030101Y1309360D01*
X1055340D01*
Y1322440D01*
X1030101D01*
X1029375Y1323166D01*
X1027305Y1324361D01*
X1024995Y1324980D01*
X1022605D01*
X1020295Y1324361D01*
X1018225Y1323166D01*
X1016534Y1321475D01*
X1016282Y1321039D01*
X708631D01*
X622245Y1407424D01*
X627535Y1416587D01*
X605815Y1429127D01*
D02*
G37*
G36*
X1619585Y1385133D02*
X1597865Y1372593D01*
X1606086Y1358353D01*
X1543371Y1295639D01*
X1183718D01*
X1183466Y1296075D01*
X1181775Y1297766D01*
X1179705Y1298961D01*
X1177395Y1299580D01*
X1175005D01*
X1172695Y1298961D01*
X1170625Y1297766D01*
X1169899Y1297040D01*
X1144760D01*
Y1283960D01*
X1169899D01*
X1170625Y1283234D01*
X1172695Y1282039D01*
X1175005Y1281420D01*
X1177395D01*
X1179705Y1282039D01*
X1181775Y1283234D01*
X1183466Y1284925D01*
X1183718Y1285361D01*
X1545500D01*
X1547466Y1285752D01*
X1549134Y1286866D01*
X1616877Y1354610D01*
X1632125Y1363413D01*
X1619585Y1385133D01*
D02*
G37*
G36*
X1024995Y1299580D02*
X1022605D01*
X1020295Y1298961D01*
X1018225Y1297766D01*
X1017499Y1297040D01*
X992260D01*
Y1295639D01*
X597992D01*
X596026Y1295248D01*
X594358Y1294134D01*
X537869Y1237644D01*
X523050Y1240257D01*
X518695Y1215558D01*
X543394Y1211203D01*
X547126Y1232366D01*
X600121Y1285361D01*
X992260D01*
Y1283960D01*
X1017499D01*
X1018225Y1283234D01*
X1020295Y1282039D01*
X1022605Y1281420D01*
X1024995D01*
X1027305Y1282039D01*
X1029375Y1283234D01*
X1031066Y1284925D01*
X1032261Y1286995D01*
X1032880Y1289305D01*
Y1291695D01*
X1032261Y1294005D01*
X1031066Y1296075D01*
X1029375Y1297766D01*
X1027305Y1298961D01*
X1024995Y1299580D01*
D02*
G37*
G36*
X944590Y1274790D02*
X919510D01*
Y1270136D01*
X916970Y1269455D01*
X916684Y1269950D01*
X914350Y1272284D01*
X911490Y1273935D01*
X908301Y1274790D01*
X904999D01*
X901810Y1273935D01*
X898950Y1272284D01*
X896616Y1269950D01*
X895363Y1267781D01*
X894610Y1267567D01*
X893290D01*
X892537Y1267781D01*
X891284Y1269950D01*
X888950Y1272284D01*
X886090Y1273935D01*
X882901Y1274790D01*
X879599D01*
X876410Y1273935D01*
X873550Y1272284D01*
X871216Y1269950D01*
X869963Y1267781D01*
X869210Y1267567D01*
X867890D01*
X867137Y1267781D01*
X865884Y1269950D01*
X863550Y1272284D01*
X860690Y1273935D01*
X857501Y1274790D01*
X854199D01*
X851010Y1273935D01*
X848150Y1272284D01*
X845816Y1269950D01*
X844563Y1267781D01*
X843810Y1267567D01*
X842490D01*
X841737Y1267781D01*
X840484Y1269950D01*
X838150Y1272284D01*
X835290Y1273935D01*
X832101Y1274790D01*
X828799D01*
X825610Y1273935D01*
X822750Y1272284D01*
X820415Y1269950D01*
X819163Y1267781D01*
X818410Y1267567D01*
X817090D01*
X816337Y1267781D01*
X815085Y1269950D01*
X812750Y1272284D01*
X809890Y1273935D01*
X806701Y1274790D01*
X803399D01*
X800210Y1273935D01*
X797350Y1272284D01*
X795015Y1269950D01*
X793763Y1267781D01*
X793010Y1267567D01*
X791690D01*
X790937Y1267781D01*
X789685Y1269950D01*
X787350Y1272284D01*
X784490Y1273935D01*
X781301Y1274790D01*
X777999D01*
X774810Y1273935D01*
X771950Y1272284D01*
X769615Y1269950D01*
X768363Y1267781D01*
X767610Y1267567D01*
X766290D01*
X765537Y1267781D01*
X764285Y1269950D01*
X761950Y1272284D01*
X759090Y1273935D01*
X755901Y1274790D01*
X752599D01*
X749410Y1273935D01*
X746550Y1272284D01*
X744215Y1269950D01*
X742565Y1267090D01*
X741710Y1263901D01*
Y1260599D01*
X742565Y1257410D01*
X744215Y1254550D01*
X746550Y1252215D01*
X749410Y1250565D01*
X752599Y1249710D01*
X755901D01*
X759090Y1250565D01*
X761950Y1252215D01*
X764285Y1254550D01*
X765537Y1256719D01*
X766290Y1256933D01*
X767610D01*
X768363Y1256719D01*
X769615Y1254550D01*
X771950Y1252215D01*
X774119Y1250963D01*
X774333Y1250210D01*
Y1248890D01*
X774119Y1248137D01*
X771950Y1246885D01*
X769615Y1244550D01*
X767965Y1241690D01*
X767110Y1238501D01*
Y1235199D01*
X767965Y1232010D01*
X769615Y1229150D01*
X771950Y1226815D01*
X774810Y1225165D01*
X777999Y1224310D01*
X781301D01*
X784490Y1225165D01*
X787350Y1226815D01*
X789685Y1229150D01*
X790937Y1231319D01*
X791690Y1231533D01*
X793010D01*
X793763Y1231319D01*
X795015Y1229150D01*
X797350Y1226815D01*
X800210Y1225165D01*
X803399Y1224310D01*
X806701D01*
X809890Y1225165D01*
X812750Y1226815D01*
X815085Y1229150D01*
X816337Y1231319D01*
X817090Y1231533D01*
X818410D01*
X819163Y1231319D01*
X820415Y1229150D01*
X822750Y1226815D01*
X825610Y1225165D01*
X828799Y1224310D01*
X832101D01*
X835290Y1225165D01*
X838150Y1226815D01*
X840484Y1229150D01*
X841737Y1231319D01*
X842490Y1231533D01*
X843810D01*
X844563Y1231319D01*
X845816Y1229150D01*
X848150Y1226815D01*
X851010Y1225165D01*
X854199Y1224310D01*
X857501D01*
X860690Y1225165D01*
X863550Y1226815D01*
X865884Y1229150D01*
X867137Y1231319D01*
X867890Y1231533D01*
X869210D01*
X869963Y1231319D01*
X871216Y1229150D01*
X873550Y1226815D01*
X876410Y1225165D01*
X879599Y1224310D01*
X882901D01*
X886090Y1225165D01*
X888950Y1226815D01*
X891284Y1229150D01*
X892537Y1231319D01*
X893290Y1231533D01*
X894610D01*
X895363Y1231319D01*
X896616Y1229150D01*
X898950Y1226815D01*
X901810Y1225165D01*
X904999Y1224310D01*
X908301D01*
X911490Y1225165D01*
X914350Y1226815D01*
X916684Y1229150D01*
X917937Y1231319D01*
X918690Y1231533D01*
X920010D01*
X920763Y1231319D01*
X922016Y1229150D01*
X924350Y1226815D01*
X927210Y1225165D01*
X930399Y1224310D01*
X933701D01*
X936890Y1225165D01*
X939750Y1226815D01*
X942085Y1229150D01*
X943735Y1232010D01*
X944590Y1235199D01*
Y1238501D01*
X943735Y1241690D01*
X942085Y1244550D01*
X939750Y1246885D01*
X939255Y1247170D01*
X939936Y1249710D01*
X944590D01*
Y1274790D01*
D02*
G37*
G36*
X1024995Y1274180D02*
X1022605D01*
X1020295Y1273561D01*
X1018225Y1272366D01*
X1016534Y1270675D01*
X1016282Y1270239D01*
X996100D01*
X994134Y1269848D01*
X992466Y1268734D01*
X938872Y1215139D01*
X645000D01*
X643034Y1214748D01*
X641366Y1213634D01*
X520767Y1093034D01*
X519653Y1091367D01*
X519262Y1089401D01*
Y1036125D01*
X509874Y1034470D01*
X514229Y1009771D01*
X538928Y1014126D01*
X534573Y1038825D01*
X531485Y1038281D01*
X529540Y1039913D01*
Y1087272D01*
X647129Y1204861D01*
X941000D01*
X942967Y1205252D01*
X944634Y1206366D01*
X998229Y1259961D01*
X1016282D01*
X1016534Y1259525D01*
X1018225Y1257834D01*
X1020295Y1256639D01*
X1022605Y1256020D01*
X1024995D01*
X1027305Y1256639D01*
X1029375Y1257834D01*
X1030101Y1258560D01*
X1055340D01*
Y1271640D01*
X1030101D01*
X1029375Y1272366D01*
X1027305Y1273561D01*
X1024995Y1274180D01*
D02*
G37*
G36*
X1666226Y1238366D02*
X1662975Y1237793D01*
X1659982Y1236397D01*
X1657453Y1234275D01*
X1655559Y1231570D01*
X1654429Y1228468D01*
X1654142Y1225178D01*
X1654715Y1221927D01*
X1656111Y1218934D01*
X1658233Y1216405D01*
X1660938Y1214511D01*
X1664040Y1213382D01*
X1667330Y1213094D01*
X1670581Y1213667D01*
X1673574Y1215063D01*
X1676103Y1217185D01*
X1677997Y1219890D01*
X1679126Y1222992D01*
X1679414Y1226282D01*
X1678841Y1229533D01*
X1677445Y1232526D01*
X1675323Y1235055D01*
X1672618Y1236949D01*
X1669515Y1238079D01*
X1666226Y1238366D01*
D02*
G37*
G36*
X1177395Y1223380D02*
X1175005D01*
X1172695Y1222761D01*
X1170625Y1221566D01*
X1168934Y1219875D01*
X1167739Y1217805D01*
X1167120Y1215495D01*
Y1213105D01*
X1167739Y1210795D01*
X1168934Y1208725D01*
X1170625Y1207034D01*
X1172695Y1205839D01*
X1175005Y1205220D01*
X1177395D01*
X1179705Y1205839D01*
X1181775Y1207034D01*
X1182501Y1207760D01*
X1207840D01*
Y1220840D01*
X1182501D01*
X1181775Y1221566D01*
X1179705Y1222761D01*
X1177395Y1223380D01*
D02*
G37*
G36*
X1024995D02*
X1022605D01*
X1020295Y1222761D01*
X1018225Y1221566D01*
X1016534Y1219875D01*
X1015339Y1217805D01*
X1014720Y1215495D01*
Y1213105D01*
X1015339Y1210795D01*
X1016534Y1208725D01*
X1018225Y1207034D01*
X1020295Y1205839D01*
X1022605Y1205220D01*
X1024995D01*
X1027305Y1205839D01*
X1029375Y1207034D01*
X1030101Y1207760D01*
X1055340D01*
Y1220840D01*
X1030101D01*
X1029375Y1221566D01*
X1027305Y1222761D01*
X1024995Y1223380D01*
D02*
G37*
G36*
X1383190Y1221040D02*
X1370110D01*
Y1191960D01*
X1383190D01*
Y1221040D01*
D02*
G37*
G36*
X1332390D02*
X1319310D01*
Y1191960D01*
X1332390D01*
Y1221040D01*
D02*
G37*
G36*
X1281590D02*
X1268510D01*
Y1191960D01*
X1281590D01*
Y1221040D01*
D02*
G37*
G36*
X1177395Y1197980D02*
X1175005D01*
X1172695Y1197361D01*
X1170625Y1196166D01*
X1169899Y1195440D01*
X1144760D01*
Y1182360D01*
X1169899D01*
X1170625Y1181634D01*
X1172695Y1180439D01*
X1175005Y1179820D01*
X1177395D01*
X1179705Y1180439D01*
X1181775Y1181634D01*
X1183466Y1183325D01*
X1184661Y1185395D01*
X1185280Y1187705D01*
Y1190095D01*
X1184661Y1192405D01*
X1183466Y1194475D01*
X1181775Y1196166D01*
X1179705Y1197361D01*
X1177395Y1197980D01*
D02*
G37*
G36*
X1024995D02*
X1022605D01*
X1020295Y1197361D01*
X1018225Y1196166D01*
X1017499Y1195440D01*
X992260D01*
Y1182360D01*
X1017499D01*
X1018225Y1181634D01*
X1020295Y1180439D01*
X1022605Y1179820D01*
X1024995D01*
X1027305Y1180439D01*
X1029375Y1181634D01*
X1031066Y1183325D01*
X1032261Y1185395D01*
X1032880Y1187705D01*
Y1190095D01*
X1032261Y1192405D01*
X1031066Y1194475D01*
X1029375Y1196166D01*
X1027305Y1197361D01*
X1024995Y1197980D01*
D02*
G37*
G36*
X524953Y1188338D02*
X521663Y1188050D01*
X518561Y1186921D01*
X515856Y1185027D01*
X513733Y1182498D01*
X512338Y1179505D01*
X511765Y1176254D01*
X512052Y1172964D01*
X513182Y1169862D01*
X515076Y1167157D01*
X517605Y1165034D01*
X520597Y1163639D01*
X523849Y1163066D01*
X527138Y1163354D01*
X530241Y1164483D01*
X532946Y1166377D01*
X535068Y1168906D01*
X536464Y1171898D01*
X537037Y1175150D01*
X536749Y1178439D01*
X535620Y1181542D01*
X533726Y1184247D01*
X531197Y1186369D01*
X528204Y1187765D01*
X524953Y1188338D01*
D02*
G37*
G36*
X1177395Y1274180D02*
X1175005D01*
X1172695Y1273561D01*
X1170625Y1272366D01*
X1168934Y1270675D01*
X1167739Y1268605D01*
X1167120Y1266295D01*
Y1263905D01*
X1167739Y1261595D01*
X1168934Y1259525D01*
X1170625Y1257834D01*
X1172695Y1256639D01*
X1175005Y1256020D01*
X1177395D01*
X1179705Y1256639D01*
X1181775Y1257834D01*
X1182501Y1258560D01*
X1207840D01*
Y1259961D01*
X1582943D01*
X1661937Y1180967D01*
X1665427Y1161175D01*
X1690126Y1165530D01*
X1685771Y1190229D01*
X1669992Y1187447D01*
X1588705Y1268734D01*
X1587038Y1269848D01*
X1585072Y1270239D01*
X1207840D01*
Y1271640D01*
X1182501D01*
X1181775Y1272366D01*
X1179705Y1273561D01*
X1177395Y1274180D01*
D02*
G37*
G36*
X1357790Y1187040D02*
X1344710D01*
Y1157960D01*
X1357790D01*
Y1187040D01*
D02*
G37*
G36*
X1256190D02*
X1243110D01*
Y1157960D01*
X1256190D01*
Y1187040D01*
D02*
G37*
G36*
X1177395Y1147180D02*
X1175005D01*
X1172695Y1146561D01*
X1170625Y1145366D01*
X1169899Y1144640D01*
X1144760D01*
Y1131560D01*
X1169899D01*
X1170625Y1130834D01*
X1172695Y1129639D01*
X1175005Y1129020D01*
X1177395D01*
X1179705Y1129639D01*
X1181775Y1130834D01*
X1183466Y1132525D01*
X1184661Y1134595D01*
X1185280Y1136905D01*
Y1139295D01*
X1184661Y1141605D01*
X1183466Y1143675D01*
X1181775Y1145366D01*
X1179705Y1146561D01*
X1177395Y1147180D01*
D02*
G37*
G36*
X1024995D02*
X1022605D01*
X1020295Y1146561D01*
X1018225Y1145366D01*
X1017499Y1144640D01*
X992260D01*
Y1131560D01*
X1017499D01*
X1018225Y1130834D01*
X1020295Y1129639D01*
X1022605Y1129020D01*
X1024995D01*
X1027305Y1129639D01*
X1029375Y1130834D01*
X1031066Y1132525D01*
X1032261Y1134595D01*
X1032880Y1136905D01*
Y1139295D01*
X1032261Y1141605D01*
X1031066Y1143675D01*
X1029375Y1145366D01*
X1027305Y1146561D01*
X1024995Y1147180D01*
D02*
G37*
G36*
X751519Y1149940D02*
X748481D01*
X745546Y1149154D01*
X742914Y1147634D01*
X740766Y1145486D01*
X739247Y1142854D01*
X738460Y1139919D01*
Y1136881D01*
X739247Y1133946D01*
X740766Y1131314D01*
X742914Y1129166D01*
X745546Y1127646D01*
X748481Y1126860D01*
X751519D01*
X754454Y1127646D01*
X757086Y1129166D01*
X759234Y1131314D01*
X760753Y1133946D01*
X761540Y1136881D01*
Y1139919D01*
X760753Y1142854D01*
X759234Y1145486D01*
X757086Y1147634D01*
X754454Y1149154D01*
X751519Y1149940D01*
D02*
G37*
G36*
X1306990Y1187040D02*
X1293910D01*
Y1157960D01*
X1299723D01*
X1350841Y1106841D01*
X1352509Y1105727D01*
X1354475Y1105336D01*
X1356441Y1105727D01*
X1358109Y1106841D01*
X1359223Y1108509D01*
X1359614Y1110475D01*
X1359223Y1112441D01*
X1358109Y1114109D01*
X1306990Y1165227D01*
Y1187040D01*
D02*
G37*
G36*
X1177395Y1121780D02*
X1175005D01*
X1172695Y1121161D01*
X1170625Y1119966D01*
X1168934Y1118275D01*
X1167739Y1116205D01*
X1167120Y1113895D01*
Y1111505D01*
X1167739Y1109195D01*
X1168934Y1107125D01*
X1170625Y1105434D01*
X1172695Y1104239D01*
X1175005Y1103620D01*
X1177395D01*
X1179705Y1104239D01*
X1181775Y1105434D01*
X1182501Y1106160D01*
X1207840D01*
Y1119240D01*
X1182501D01*
X1181775Y1119966D01*
X1179705Y1121161D01*
X1177395Y1121780D01*
D02*
G37*
G36*
X1024995D02*
X1022605D01*
X1020295Y1121161D01*
X1018225Y1119966D01*
X1016534Y1118275D01*
X1015339Y1116205D01*
X1014720Y1113895D01*
Y1111505D01*
X1015339Y1109195D01*
X1016534Y1107125D01*
X1018225Y1105434D01*
X1020295Y1104239D01*
X1022605Y1103620D01*
X1024995D01*
X1027305Y1104239D01*
X1029375Y1105434D01*
X1030101Y1106160D01*
X1055340D01*
Y1119240D01*
X1030101D01*
X1029375Y1119966D01*
X1027305Y1121161D01*
X1024995Y1121780D01*
D02*
G37*
G36*
X1451519Y1149340D02*
X1448481D01*
X1445546Y1148554D01*
X1442914Y1147034D01*
X1440766Y1144886D01*
X1439247Y1142254D01*
X1438460Y1139319D01*
Y1136281D01*
X1439247Y1133346D01*
X1440766Y1130714D01*
X1442914Y1128566D01*
X1445546Y1127047D01*
X1448137Y1126352D01*
Y1123848D01*
X1445546Y1123154D01*
X1442914Y1121634D01*
X1440766Y1119486D01*
X1439247Y1116854D01*
X1438460Y1113919D01*
Y1110881D01*
X1439247Y1107946D01*
X1440766Y1105314D01*
X1442914Y1103166D01*
X1445546Y1101646D01*
X1448481Y1100860D01*
X1451519D01*
X1454454Y1101646D01*
X1457086Y1103166D01*
X1459234Y1105314D01*
X1460754Y1107946D01*
X1461540Y1110881D01*
Y1113919D01*
X1460754Y1116854D01*
X1459234Y1119486D01*
X1457086Y1121634D01*
X1454454Y1123154D01*
X1451863Y1123848D01*
Y1126352D01*
X1454454Y1127047D01*
X1457086Y1128566D01*
X1459234Y1130714D01*
X1460754Y1133346D01*
X1461540Y1136281D01*
Y1139319D01*
X1460754Y1142254D01*
X1459234Y1144886D01*
X1457086Y1147034D01*
X1454454Y1148554D01*
X1451519Y1149340D01*
D02*
G37*
G36*
X1024995Y1096380D02*
X1022605D01*
X1020295Y1095761D01*
X1018225Y1094566D01*
X1017499Y1093840D01*
X992260D01*
Y1080760D01*
X1017499D01*
X1018225Y1080034D01*
X1020295Y1078839D01*
X1022605Y1078220D01*
X1024995D01*
X1027305Y1078839D01*
X1029375Y1080034D01*
X1031066Y1081725D01*
X1032261Y1083795D01*
X1032880Y1086105D01*
Y1088495D01*
X1032261Y1090805D01*
X1031066Y1092875D01*
X1029375Y1094566D01*
X1027305Y1095761D01*
X1024995Y1096380D01*
D02*
G37*
G36*
Y1070980D02*
X1022605D01*
X1020295Y1070361D01*
X1018225Y1069166D01*
X1016534Y1067475D01*
X1015339Y1065405D01*
X1014720Y1063095D01*
Y1060705D01*
X1015339Y1058395D01*
X1016534Y1056325D01*
X1018225Y1054634D01*
X1020295Y1053439D01*
X1022605Y1052820D01*
X1024995D01*
X1027305Y1053439D01*
X1029375Y1054634D01*
X1030101Y1055360D01*
X1055340D01*
Y1068440D01*
X1030101D01*
X1029375Y1069166D01*
X1027305Y1070361D01*
X1024995Y1070980D01*
D02*
G37*
G36*
X751519Y1099140D02*
X748481D01*
X745546Y1098354D01*
X742914Y1096834D01*
X740766Y1094686D01*
X739247Y1092054D01*
X738460Y1089119D01*
Y1086081D01*
X739247Y1083146D01*
X740766Y1080514D01*
X742914Y1078366D01*
X745546Y1076846D01*
X748137Y1076152D01*
Y1073648D01*
X745546Y1072954D01*
X742914Y1071434D01*
X740766Y1069286D01*
X739247Y1066654D01*
X738460Y1063719D01*
Y1060681D01*
X739247Y1057746D01*
X740766Y1055114D01*
X742914Y1052966D01*
X745546Y1051447D01*
X748481Y1050660D01*
X751519D01*
X754454Y1051447D01*
X757086Y1052966D01*
X759234Y1055114D01*
X760753Y1057746D01*
X761540Y1060681D01*
Y1063719D01*
X760753Y1066654D01*
X759234Y1069286D01*
X757086Y1071434D01*
X754454Y1072954D01*
X751863Y1073648D01*
Y1076152D01*
X754454Y1076846D01*
X757086Y1078366D01*
X759234Y1080514D01*
X760753Y1083146D01*
X761540Y1086081D01*
Y1089119D01*
X760753Y1092054D01*
X759234Y1094686D01*
X757086Y1096834D01*
X754454Y1098354D01*
X751519Y1099140D01*
D02*
G37*
G36*
X1451519Y1073140D02*
X1448481D01*
X1445546Y1072354D01*
X1442914Y1070834D01*
X1440766Y1068686D01*
X1439247Y1066054D01*
X1438460Y1063119D01*
Y1060081D01*
X1439247Y1057146D01*
X1440766Y1054514D01*
X1442914Y1052366D01*
X1445546Y1050846D01*
X1448481Y1050060D01*
X1451519D01*
X1454454Y1050846D01*
X1457086Y1052366D01*
X1459234Y1054514D01*
X1460754Y1057146D01*
X1461540Y1060081D01*
Y1063119D01*
X1460754Y1066054D01*
X1459234Y1068686D01*
X1457086Y1070834D01*
X1454454Y1072354D01*
X1451519Y1073140D01*
D02*
G37*
G36*
X899102Y1111540D02*
X896898D01*
X894862Y1110697D01*
X893303Y1109138D01*
X892460Y1107102D01*
Y1104898D01*
X892736Y1104231D01*
Y1037773D01*
X892210Y1036502D01*
Y1034298D01*
X893053Y1032262D01*
X894612Y1030703D01*
X896648Y1029860D01*
X898852D01*
X900888Y1030703D01*
X902447Y1032262D01*
X903290Y1034298D01*
Y1036502D01*
X903014Y1037169D01*
Y1103627D01*
X903540Y1104898D01*
Y1107102D01*
X902697Y1109138D01*
X901138Y1110697D01*
X899102Y1111540D01*
D02*
G37*
G36*
X1177395Y1045580D02*
X1175005D01*
X1172695Y1044961D01*
X1170625Y1043766D01*
X1169899Y1043040D01*
X1144760D01*
Y1029960D01*
X1169899D01*
X1170625Y1029234D01*
X1172695Y1028039D01*
X1175005Y1027420D01*
X1177395D01*
X1179705Y1028039D01*
X1181775Y1029234D01*
X1183466Y1030925D01*
X1184661Y1032995D01*
X1185280Y1035305D01*
Y1037695D01*
X1184661Y1040005D01*
X1183466Y1042075D01*
X1181775Y1043766D01*
X1179705Y1044961D01*
X1177395Y1045580D01*
D02*
G37*
G36*
X1024995D02*
X1022605D01*
X1020295Y1044961D01*
X1018225Y1043766D01*
X1017499Y1043040D01*
X992260D01*
Y1029960D01*
X1017499D01*
X1018225Y1029234D01*
X1020295Y1028039D01*
X1022605Y1027420D01*
X1024995D01*
X1027305Y1028039D01*
X1029375Y1029234D01*
X1031066Y1030925D01*
X1032261Y1032995D01*
X1032880Y1035305D01*
Y1037695D01*
X1032261Y1040005D01*
X1031066Y1042075D01*
X1029375Y1043766D01*
X1027305Y1044961D01*
X1024995Y1045580D01*
D02*
G37*
G36*
X1676151Y1036934D02*
X1672862Y1036647D01*
X1669759Y1035517D01*
X1667054Y1033623D01*
X1664932Y1031094D01*
X1663536Y1028102D01*
X1662963Y1024850D01*
X1663251Y1021561D01*
X1664380Y1018458D01*
X1666274Y1015753D01*
X1668803Y1013631D01*
X1671796Y1012235D01*
X1675047Y1011662D01*
X1678337Y1011950D01*
X1681440Y1013079D01*
X1684144Y1014973D01*
X1686267Y1017502D01*
X1687662Y1020495D01*
X1688235Y1023746D01*
X1687948Y1027036D01*
X1686818Y1030138D01*
X1684924Y1032843D01*
X1682395Y1034966D01*
X1679403Y1036361D01*
X1676151Y1036934D01*
D02*
G37*
G36*
X1177395Y1020180D02*
X1175005D01*
X1172695Y1019561D01*
X1170625Y1018366D01*
X1168934Y1016675D01*
X1167739Y1014605D01*
X1167120Y1012295D01*
Y1009905D01*
X1167739Y1007595D01*
X1168934Y1005525D01*
X1170625Y1003834D01*
X1172695Y1002639D01*
X1175005Y1002020D01*
X1177395D01*
X1179705Y1002639D01*
X1181775Y1003834D01*
X1182501Y1004560D01*
X1207840D01*
Y1017640D01*
X1182501D01*
X1181775Y1018366D01*
X1179705Y1019561D01*
X1177395Y1020180D01*
D02*
G37*
G36*
X1024995D02*
X1022605D01*
X1020295Y1019561D01*
X1018225Y1018366D01*
X1016534Y1016675D01*
X1015339Y1014605D01*
X1014720Y1012295D01*
Y1009905D01*
X1015339Y1007595D01*
X1016534Y1005525D01*
X1018225Y1003834D01*
X1020295Y1002639D01*
X1022605Y1002020D01*
X1024995D01*
X1027305Y1002639D01*
X1029375Y1003834D01*
X1030101Y1004560D01*
X1055340D01*
Y1017640D01*
X1030101D01*
X1029375Y1018366D01*
X1027305Y1019561D01*
X1024995Y1020180D01*
D02*
G37*
G36*
X1177395Y1070980D02*
X1175005D01*
X1172695Y1070361D01*
X1170625Y1069166D01*
X1168934Y1067475D01*
X1167739Y1065405D01*
X1167120Y1063095D01*
Y1060705D01*
X1167739Y1058395D01*
X1168934Y1056325D01*
X1170625Y1054634D01*
X1172695Y1053439D01*
X1175005Y1052820D01*
X1177395D01*
X1179705Y1053439D01*
X1181775Y1054634D01*
X1182501Y1055360D01*
X1207840D01*
Y1056761D01*
X1262699D01*
X1273824Y1045637D01*
X1272852Y1043290D01*
X1268310D01*
Y1014210D01*
X1281390D01*
Y1034752D01*
X1283737Y1035724D01*
X1306861Y1012599D01*
Y1010000D01*
X1307252Y1008034D01*
X1308366Y1006366D01*
X1310034Y1005252D01*
X1312000Y1004861D01*
X1313967Y1005252D01*
X1315634Y1006366D01*
X1316748Y1008034D01*
X1317139Y1010000D01*
Y1012837D01*
X1319110Y1014210D01*
X1319679Y1014210D01*
X1332190D01*
Y1035923D01*
X1338129Y1041861D01*
X1369910D01*
Y1014210D01*
X1382990D01*
Y1041861D01*
X1395871D01*
X1435366Y1002366D01*
X1435366Y1002366D01*
X1437034Y1001252D01*
X1439000Y1000861D01*
X1440966Y1001252D01*
X1442634Y1002366D01*
X1443748Y1004034D01*
X1444139Y1006000D01*
X1443748Y1007967D01*
X1442634Y1009634D01*
X1401634Y1050634D01*
X1399966Y1051748D01*
X1398000Y1052139D01*
X1336000D01*
X1334034Y1051748D01*
X1332366Y1050634D01*
X1325023Y1043290D01*
X1319110D01*
Y1018762D01*
X1318654Y1018412D01*
X1315634Y1018361D01*
X1268461Y1065534D01*
X1266794Y1066648D01*
X1264828Y1067039D01*
X1207840D01*
Y1068440D01*
X1182501D01*
X1181775Y1069166D01*
X1179705Y1070361D01*
X1177395Y1070980D01*
D02*
G37*
G36*
X1357590Y1009290D02*
X1344510D01*
Y980210D01*
X1357590D01*
Y989611D01*
X1404325D01*
X1411366Y982570D01*
X1413033Y981456D01*
X1415000Y981064D01*
X1416967Y981456D01*
X1418634Y982570D01*
X1419748Y984237D01*
X1420139Y986203D01*
X1419748Y988170D01*
X1418634Y989837D01*
X1410087Y998384D01*
X1408420Y999498D01*
X1406453Y999889D01*
X1357590D01*
Y1009290D01*
D02*
G37*
G36*
X1177395Y994780D02*
X1175005D01*
X1172695Y994161D01*
X1170625Y992966D01*
X1169899Y992240D01*
X1144760D01*
Y979160D01*
X1169899D01*
X1170625Y978434D01*
X1172695Y977239D01*
X1175005Y976620D01*
X1177395D01*
X1179705Y977239D01*
X1181775Y978434D01*
X1183466Y980125D01*
X1184661Y982195D01*
X1185280Y984505D01*
Y986895D01*
X1184661Y989205D01*
X1183466Y991275D01*
X1181775Y992966D01*
X1179705Y994161D01*
X1177395Y994780D01*
D02*
G37*
G36*
X1024995D02*
X1022605D01*
X1020295Y994161D01*
X1018225Y992966D01*
X1017499Y992240D01*
X992260D01*
Y979160D01*
X1017499D01*
X1018225Y978434D01*
X1020295Y977239D01*
X1022605Y976620D01*
X1024995D01*
X1027305Y977239D01*
X1029375Y978434D01*
X1031066Y980125D01*
X1032261Y982195D01*
X1032880Y984505D01*
Y986895D01*
X1032261Y989205D01*
X1031066Y991275D01*
X1029375Y992966D01*
X1027305Y994161D01*
X1024995Y994780D01*
D02*
G37*
G36*
X532670Y986906D02*
X529419Y986333D01*
X526426Y984937D01*
X523897Y982815D01*
X522003Y980110D01*
X520874Y977008D01*
X520586Y973718D01*
X521159Y970467D01*
X522555Y967474D01*
X524677Y964945D01*
X527382Y963051D01*
X530485Y961921D01*
X533774Y961634D01*
X537025Y962207D01*
X540018Y963603D01*
X542547Y965725D01*
X544441Y968430D01*
X545570Y971532D01*
X545858Y974822D01*
X545285Y978073D01*
X543890Y981066D01*
X541767Y983595D01*
X539062Y985489D01*
X535960Y986618D01*
X532670Y986906D01*
D02*
G37*
G36*
X1177395Y1096380D02*
X1175005D01*
X1172695Y1095761D01*
X1170625Y1094566D01*
X1169899Y1093840D01*
X1144760D01*
Y1080760D01*
X1169899D01*
X1170625Y1080034D01*
X1172695Y1078839D01*
X1175005Y1078220D01*
X1177395D01*
X1179705Y1078839D01*
X1181775Y1080034D01*
X1183466Y1081725D01*
X1183718Y1082161D01*
X1390571D01*
X1466866Y1005866D01*
X1468534Y1004752D01*
X1470500Y1004361D01*
X1548371D01*
X1582097Y970636D01*
X1583764Y969522D01*
X1585730Y969131D01*
X1651163D01*
X1652795Y967185D01*
X1652251Y964098D01*
X1676950Y959743D01*
X1681305Y984442D01*
X1656606Y988797D01*
X1654951Y979409D01*
X1587859D01*
X1554134Y1013134D01*
X1552467Y1014248D01*
X1550500Y1014639D01*
X1472629D01*
X1396334Y1090934D01*
X1394667Y1092048D01*
X1392700Y1092439D01*
X1183718D01*
X1183466Y1092875D01*
X1181775Y1094566D01*
X1179705Y1095761D01*
X1177395Y1096380D01*
D02*
G37*
G36*
X1024995Y969380D02*
X1022605D01*
X1020295Y968761D01*
X1018225Y967566D01*
X1016534Y965875D01*
X1015339Y963805D01*
X1014720Y961495D01*
Y959105D01*
X1015339Y956795D01*
X1016534Y954725D01*
X1018225Y953034D01*
X1020295Y951839D01*
X1022605Y951220D01*
X1024995D01*
X1027305Y951839D01*
X1029375Y953034D01*
X1030101Y953760D01*
X1055340D01*
Y966840D01*
X1030101D01*
X1029375Y967566D01*
X1027305Y968761D01*
X1024995Y969380D01*
D02*
G37*
G36*
Y943980D02*
X1022605D01*
X1020295Y943361D01*
X1018225Y942166D01*
X1017499Y941440D01*
X992260D01*
Y940039D01*
X983900D01*
X981934Y939648D01*
X980266Y938534D01*
X913872Y872139D01*
X830884D01*
X830203Y874679D01*
X830700Y874966D01*
X833035Y877300D01*
X834685Y880160D01*
X835540Y883349D01*
Y886651D01*
X834685Y889840D01*
X833035Y892700D01*
X830700Y895034D01*
X827840Y896685D01*
X824651Y897540D01*
X821349D01*
X818160Y896685D01*
X815300Y895034D01*
X812965Y892700D01*
X811314Y889840D01*
X810460Y886651D01*
Y883349D01*
X811314Y880160D01*
X812965Y877300D01*
X815300Y874966D01*
X815797Y874679D01*
X815116Y872139D01*
X705884D01*
X705203Y874679D01*
X705700Y874966D01*
X708034Y877300D01*
X709685Y880160D01*
X710540Y883349D01*
Y886651D01*
X709685Y889840D01*
X708034Y892700D01*
X705700Y895034D01*
X702840Y896685D01*
X699651Y897540D01*
X696349D01*
X693160Y896685D01*
X690300Y895034D01*
X687965Y892700D01*
X686314Y889840D01*
X685460Y886651D01*
Y883349D01*
X686314Y880160D01*
X687965Y877300D01*
X690300Y874966D01*
X690797Y874679D01*
X690116Y872139D01*
X620008D01*
X618042Y871748D01*
X616375Y870634D01*
X593000Y847259D01*
X590482Y847591D01*
X589595Y849127D01*
X567875Y836587D01*
X580415Y814867D01*
X602135Y827407D01*
X596845Y836570D01*
X622137Y861861D01*
X916000D01*
X917967Y862252D01*
X919634Y863366D01*
X986029Y929761D01*
X992260D01*
Y928360D01*
X1017499D01*
X1018225Y927634D01*
X1020295Y926439D01*
X1022605Y925820D01*
X1024995D01*
X1027305Y926439D01*
X1029375Y927634D01*
X1031066Y929325D01*
X1032261Y931395D01*
X1032880Y933705D01*
Y936095D01*
X1032261Y938405D01*
X1031066Y940475D01*
X1029375Y942166D01*
X1027305Y943361D01*
X1024995Y943980D01*
D02*
G37*
G36*
X963602Y1040940D02*
X961398D01*
X959362Y1040097D01*
X957803Y1038538D01*
X956960Y1036502D01*
Y1034298D01*
X957361Y1033329D01*
Y1012071D01*
X956960Y1011102D01*
Y1008898D01*
X957361Y1007929D01*
Y941128D01*
X927871Y911639D01*
X813529D01*
X801607Y923561D01*
X802921Y925838D01*
X803399Y925710D01*
X806701D01*
X809890Y926565D01*
X812750Y928215D01*
X815085Y930550D01*
X816337Y932719D01*
X817090Y932933D01*
X818410D01*
X819163Y932719D01*
X820415Y930550D01*
X822750Y928215D01*
X825610Y926565D01*
X828799Y925710D01*
X832101D01*
X835290Y926565D01*
X838150Y928215D01*
X840484Y930550D01*
X841737Y932719D01*
X842490Y932933D01*
X843810D01*
X844563Y932719D01*
X845816Y930550D01*
X848150Y928215D01*
X851010Y926565D01*
X854199Y925710D01*
X857501D01*
X860690Y926565D01*
X863550Y928215D01*
X865884Y930550D01*
X867137Y932719D01*
X867890Y932933D01*
X869210D01*
X869963Y932719D01*
X871216Y930550D01*
X873550Y928215D01*
X876410Y926565D01*
X879599Y925710D01*
X882901D01*
X886090Y926565D01*
X888950Y928215D01*
X891284Y930550D01*
X892537Y932719D01*
X893290Y932933D01*
X894610D01*
X895363Y932719D01*
X896616Y930550D01*
X898950Y928215D01*
X901810Y926565D01*
X904999Y925710D01*
X908301D01*
X911490Y926565D01*
X914350Y928215D01*
X916684Y930550D01*
X917937Y932719D01*
X918690Y932933D01*
X920010D01*
X920763Y932719D01*
X922016Y930550D01*
X924350Y928215D01*
X927210Y926565D01*
X930399Y925710D01*
X933701D01*
X936890Y926565D01*
X939750Y928215D01*
X942085Y930550D01*
X943735Y933410D01*
X944590Y936599D01*
Y939901D01*
X943735Y943090D01*
X942085Y945950D01*
X939750Y948285D01*
X937581Y949537D01*
X937367Y950290D01*
Y951610D01*
X937581Y952363D01*
X939750Y953615D01*
X942085Y955950D01*
X943735Y958810D01*
X944590Y961999D01*
Y965301D01*
X943735Y968490D01*
X942085Y971350D01*
X939750Y973684D01*
X936890Y975335D01*
X933701Y976190D01*
X930399D01*
X927210Y975335D01*
X924350Y973684D01*
X922016Y971350D01*
X920763Y969181D01*
X920010Y968967D01*
X918690D01*
X917937Y969181D01*
X916684Y971350D01*
X914350Y973684D01*
X911490Y975335D01*
X908301Y976190D01*
X904999D01*
X901810Y975335D01*
X898950Y973684D01*
X896616Y971350D01*
X895363Y969181D01*
X894610Y968967D01*
X893290D01*
X892537Y969181D01*
X891284Y971350D01*
X888950Y973684D01*
X886090Y975335D01*
X882901Y976190D01*
X879599D01*
X876410Y975335D01*
X873550Y973684D01*
X871216Y971350D01*
X869963Y969181D01*
X869210Y968967D01*
X867890D01*
X867137Y969181D01*
X865884Y971350D01*
X863550Y973684D01*
X860690Y975335D01*
X857501Y976190D01*
X854199D01*
X851010Y975335D01*
X848150Y973684D01*
X845816Y971350D01*
X844563Y969181D01*
X843810Y968967D01*
X842490D01*
X841737Y969181D01*
X840484Y971350D01*
X838150Y973684D01*
X835290Y975335D01*
X832101Y976190D01*
X828799D01*
X825610Y975335D01*
X822750Y973684D01*
X820415Y971350D01*
X819163Y969181D01*
X818410Y968967D01*
X817090D01*
X816337Y969181D01*
X815085Y971350D01*
X812750Y973684D01*
X809890Y975335D01*
X806701Y976190D01*
X803399D01*
X800210Y975335D01*
X797350Y973684D01*
X795015Y971350D01*
X793763Y969181D01*
X793010Y968967D01*
X791690D01*
X790937Y969181D01*
X789685Y971350D01*
X787350Y973684D01*
X784490Y975335D01*
X781301Y976190D01*
X777999D01*
X774810Y975335D01*
X771950Y973684D01*
X769615Y971350D01*
X768363Y969181D01*
X767610Y968967D01*
X766290D01*
X765537Y969181D01*
X764285Y971350D01*
X761950Y973684D01*
X759090Y975335D01*
X755901Y976190D01*
X752599D01*
X749410Y975335D01*
X746550Y973684D01*
X744215Y971350D01*
X742565Y968490D01*
X741710Y965301D01*
Y961999D01*
X742565Y958810D01*
X744215Y955950D01*
X746550Y953615D01*
X749410Y951965D01*
X752599Y951110D01*
X755901D01*
X759090Y951965D01*
X761950Y953615D01*
X764285Y955950D01*
X765537Y958119D01*
X766290Y958333D01*
X767610D01*
X768363Y958119D01*
X769615Y955950D01*
X771950Y953615D01*
X774119Y952363D01*
X774333Y951610D01*
Y950290D01*
X774119Y949537D01*
X771950Y948285D01*
X769615Y945950D01*
X767965Y943090D01*
X767110Y939901D01*
Y936599D01*
X767965Y933410D01*
X769615Y930550D01*
X771950Y928215D01*
X774810Y926565D01*
X777999Y925710D01*
X781301D01*
X784157Y926475D01*
X807766Y902866D01*
X809434Y901752D01*
X811400Y901361D01*
X930000D01*
X931966Y901752D01*
X933634Y902866D01*
X966134Y935366D01*
X967247Y937033D01*
X967639Y939000D01*
Y1007929D01*
X968040Y1008898D01*
Y1011102D01*
X967639Y1012071D01*
Y1033329D01*
X968040Y1034298D01*
Y1036502D01*
X967197Y1038538D01*
X965638Y1040097D01*
X963602Y1040940D01*
D02*
G37*
G36*
X1024995Y918580D02*
X1022605D01*
X1020295Y917961D01*
X1018225Y916766D01*
X1016534Y915075D01*
X1016282Y914639D01*
X995000D01*
X993034Y914248D01*
X991366Y913134D01*
X937372Y859139D01*
X773000D01*
X771033Y858748D01*
X769366Y857634D01*
X704092Y792359D01*
X702978Y790692D01*
X702587Y788726D01*
Y685406D01*
X690059Y670475D01*
X709271Y654354D01*
X725392Y673567D01*
X718401Y679433D01*
X719188Y681499D01*
X719418Y681895D01*
X721268Y682389D01*
X722860Y683608D01*
X737936Y700761D01*
X739031Y701622D01*
X743988Y707416D01*
X747027Y706880D01*
X750316Y707168D01*
X753419Y708297D01*
X756124Y710191D01*
X758246Y712720D01*
X759642Y715713D01*
X760215Y718964D01*
X759927Y722254D01*
X758798Y725356D01*
X756904Y728061D01*
X754375Y730183D01*
X751382Y731579D01*
X748130Y732152D01*
X744841Y731864D01*
X741739Y730735D01*
X739034Y728841D01*
X736911Y726312D01*
X735516Y723319D01*
X734943Y720068D01*
X735230Y716778D01*
X736198Y714120D01*
X732053Y709276D01*
X731087Y708536D01*
X715404Y690693D01*
X714277Y690825D01*
X712864Y691531D01*
Y786597D01*
X747622Y821355D01*
X749655Y819795D01*
X749513Y819551D01*
X748710Y816552D01*
Y813448D01*
X749513Y810449D01*
X751066Y807761D01*
X753261Y805566D01*
X755949Y804014D01*
X758948Y803210D01*
X762052D01*
X765051Y804014D01*
X767739Y805566D01*
X769934Y807761D01*
X771487Y810449D01*
X772290Y813448D01*
Y816552D01*
X771487Y819551D01*
X769934Y822239D01*
X767739Y824434D01*
X765051Y825986D01*
X762052Y826790D01*
X758948D01*
X755949Y825986D01*
X755705Y825845D01*
X754145Y827878D01*
X775128Y848861D01*
X816848D01*
X817529Y846321D01*
X815300Y845034D01*
X812965Y842700D01*
X811314Y839840D01*
X810460Y836651D01*
Y833349D01*
X811314Y830160D01*
X812965Y827300D01*
X815300Y824966D01*
X818160Y823315D01*
X821349Y822460D01*
X824651D01*
X827840Y823315D01*
X830700Y824966D01*
X833035Y827300D01*
X834685Y830160D01*
X835540Y833349D01*
Y836651D01*
X834685Y839840D01*
X833035Y842700D01*
X830700Y845034D01*
X828471Y846321D01*
X829152Y848861D01*
X939500D01*
X941467Y849252D01*
X943134Y850366D01*
X997129Y904361D01*
X1016282D01*
X1016534Y903925D01*
X1018225Y902234D01*
X1020295Y901039D01*
X1022605Y900420D01*
X1024995D01*
X1027305Y901039D01*
X1029375Y902234D01*
X1030101Y902960D01*
X1055340D01*
Y916040D01*
X1030101D01*
X1029375Y916766D01*
X1027305Y917961D01*
X1024995Y918580D01*
D02*
G37*
G36*
X1441052Y916790D02*
X1437948D01*
X1434949Y915986D01*
X1432261Y914434D01*
X1430066Y912239D01*
X1428513Y909551D01*
X1427710Y906552D01*
Y903448D01*
X1428513Y900449D01*
X1430066Y897761D01*
X1432261Y895566D01*
X1434949Y894014D01*
X1437948Y893210D01*
X1441052D01*
X1444051Y894014D01*
X1446739Y895566D01*
X1448934Y897761D01*
X1450486Y900449D01*
X1451290Y903448D01*
Y906552D01*
X1450486Y909551D01*
X1448934Y912239D01*
X1446739Y914434D01*
X1444051Y915986D01*
X1441052Y916790D01*
D02*
G37*
G36*
X762052D02*
X758948D01*
X755949Y915986D01*
X753261Y914434D01*
X751066Y912239D01*
X749513Y909551D01*
X748710Y906552D01*
Y903448D01*
X749513Y900449D01*
X751066Y897761D01*
X753261Y895566D01*
X755949Y894014D01*
X758948Y893210D01*
X762052D01*
X765051Y894014D01*
X767739Y895566D01*
X769934Y897761D01*
X771487Y900449D01*
X772290Y903448D01*
Y906552D01*
X771487Y909551D01*
X769934Y912239D01*
X767739Y914434D01*
X765051Y915986D01*
X762052Y916790D01*
D02*
G37*
G36*
X1024995Y893180D02*
X1022605D01*
X1020295Y892561D01*
X1018225Y891366D01*
X1017499Y890640D01*
X992260D01*
Y887472D01*
X991634Y887348D01*
X989966Y886234D01*
X848366Y744634D01*
X847252Y742967D01*
X846861Y741000D01*
Y699128D01*
X839734Y692001D01*
X799879D01*
X784948Y704529D01*
X768827Y685317D01*
X788039Y669196D01*
X798552Y681724D01*
X841862D01*
X843829Y682115D01*
X845496Y683229D01*
X855634Y693366D01*
X856748Y695033D01*
X857139Y697000D01*
Y738872D01*
X995729Y877461D01*
X1005300D01*
X1005797Y877560D01*
X1017499D01*
X1018225Y876834D01*
X1020295Y875639D01*
X1022605Y875020D01*
X1024995D01*
X1027305Y875639D01*
X1029375Y876834D01*
X1031066Y878525D01*
X1032261Y880595D01*
X1032880Y882905D01*
Y885295D01*
X1032261Y887605D01*
X1031066Y889675D01*
X1029375Y891366D01*
X1027305Y892561D01*
X1024995Y893180D01*
D02*
G37*
G36*
X1503651Y897540D02*
X1500349D01*
X1497160Y896685D01*
X1494300Y895034D01*
X1491965Y892700D01*
X1490315Y889840D01*
X1489460Y886651D01*
Y883349D01*
X1490315Y880160D01*
X1491965Y877300D01*
X1494300Y874966D01*
X1497160Y873315D01*
X1500349Y872460D01*
X1503651D01*
X1506840Y873315D01*
X1509700Y874966D01*
X1512034Y877300D01*
X1513685Y880160D01*
X1514540Y883349D01*
Y886651D01*
X1513685Y889840D01*
X1512034Y892700D01*
X1509700Y895034D01*
X1506840Y896685D01*
X1503651Y897540D01*
D02*
G37*
G36*
X1255990Y1009290D02*
X1242910D01*
Y980210D01*
X1255990D01*
Y989611D01*
X1259622D01*
X1363242Y885991D01*
X1364460Y885177D01*
Y883349D01*
X1365315Y880160D01*
X1366965Y877300D01*
X1369300Y874966D01*
X1372160Y873315D01*
X1375349Y872460D01*
X1378651D01*
X1381840Y873315D01*
X1384700Y874966D01*
X1387034Y877300D01*
X1388685Y880160D01*
X1389540Y883349D01*
Y886651D01*
X1388685Y889840D01*
X1387034Y892700D01*
X1384700Y895034D01*
X1381840Y896685D01*
X1378651Y897540D01*
X1375349D01*
X1372160Y896685D01*
X1369300Y895034D01*
X1369017Y894751D01*
X1265384Y998384D01*
X1263717Y999498D01*
X1261750Y999889D01*
X1255990D01*
Y1009290D01*
D02*
G37*
G36*
X1024995Y867780D02*
X1022605D01*
X1020295Y867161D01*
X1018225Y865966D01*
X1016534Y864275D01*
X1016282Y863839D01*
X1000200D01*
X998233Y863448D01*
X996566Y862334D01*
X874127Y739894D01*
X873013Y738227D01*
X872621Y736260D01*
Y581095D01*
X870541Y579638D01*
X870265Y579738D01*
X861687Y556171D01*
X885255Y547593D01*
X893833Y571160D01*
X882899Y575140D01*
Y734132D01*
X951353Y802586D01*
X953460Y801101D01*
X953460Y799182D01*
Y788460D01*
X982540D01*
Y801540D01*
X955959D01*
X953899Y801540D01*
X952414Y803647D01*
X1002328Y853561D01*
X1016282D01*
X1016534Y853125D01*
X1018225Y851434D01*
X1020295Y850239D01*
X1022605Y849620D01*
X1024995D01*
X1027305Y850239D01*
X1029375Y851434D01*
X1030101Y852160D01*
X1055340D01*
Y865240D01*
X1030101D01*
X1029375Y865966D01*
X1027305Y867161D01*
X1024995Y867780D01*
D02*
G37*
G36*
Y1172580D02*
X1022605D01*
X1020295Y1171961D01*
X1018225Y1170766D01*
X1016534Y1169075D01*
X1015339Y1167005D01*
X1014720Y1164695D01*
Y1162305D01*
X1015339Y1159995D01*
X1016534Y1157925D01*
X1018225Y1156234D01*
X1020295Y1155039D01*
X1022605Y1154420D01*
X1024995D01*
X1027305Y1155039D01*
X1029375Y1156234D01*
X1030101Y1156960D01*
X1041804D01*
X1042300Y1156861D01*
X1052943D01*
X1054366Y1155437D01*
X1054366Y1155437D01*
X1109861Y1099942D01*
Y879000D01*
X1110252Y877033D01*
X1111366Y875366D01*
X1131666Y855066D01*
X1133334Y853952D01*
X1135300Y853561D01*
X1168682D01*
X1168934Y853125D01*
X1170625Y851434D01*
X1172695Y850239D01*
X1175005Y849620D01*
X1177395D01*
X1179705Y850239D01*
X1181775Y851434D01*
X1182501Y852160D01*
X1200573D01*
X1229861Y822871D01*
Y776140D01*
X1219900D01*
X1218127Y776140D01*
X1216803Y778408D01*
X1218674Y780279D01*
X1218765Y780415D01*
X1218907Y780557D01*
X1219188Y780978D01*
X1220161Y781951D01*
X1221005Y783987D01*
Y786191D01*
X1220161Y788227D01*
X1218603Y789786D01*
X1216567Y790629D01*
X1214363D01*
X1212540Y791847D01*
Y801540D01*
X1207840D01*
Y814440D01*
X1182501D01*
X1181775Y815166D01*
X1179705Y816361D01*
X1177395Y816980D01*
X1175005D01*
X1172695Y816361D01*
X1170625Y815166D01*
X1168934Y813475D01*
X1167739Y811405D01*
X1167120Y809095D01*
Y806705D01*
X1167739Y804395D01*
X1168934Y802325D01*
X1170625Y800634D01*
X1172695Y799439D01*
X1175005Y798820D01*
X1177395D01*
X1179705Y799439D01*
X1180920Y800140D01*
X1183172Y799107D01*
X1183460Y798792D01*
Y788460D01*
X1208115D01*
X1209740Y786423D01*
X1209780Y785920D01*
X1203999Y780139D01*
X1187129D01*
X1168634Y798634D01*
X1166967Y799748D01*
X1165000Y800139D01*
X1017000D01*
X1015033Y799748D01*
X1013366Y798634D01*
X1007720Y792987D01*
X1005435Y794295D01*
X1005684Y795546D01*
Y826760D01*
X1017499D01*
X1018225Y826034D01*
X1020295Y824839D01*
X1022605Y824220D01*
X1024995D01*
X1027305Y824839D01*
X1029375Y826034D01*
X1031066Y827725D01*
X1032261Y829795D01*
X1032880Y832105D01*
Y834495D01*
X1032261Y836805D01*
X1031066Y838875D01*
X1029375Y840566D01*
X1027305Y841761D01*
X1024995Y842380D01*
X1022605D01*
X1020295Y841761D01*
X1018225Y840566D01*
X1017499Y839840D01*
X992260D01*
Y826760D01*
X995407D01*
Y797674D01*
X982871Y785139D01*
X970000D01*
X968034Y784748D01*
X966366Y783634D01*
X909866Y727134D01*
X908752Y725467D01*
X908361Y723500D01*
Y663000D01*
X908752Y661033D01*
X909866Y659366D01*
X1052866Y516366D01*
X1054533Y515252D01*
X1056500Y514861D01*
X1062060D01*
Y507460D01*
X1087140D01*
Y532540D01*
X1062060D01*
Y525139D01*
X1058628D01*
X918639Y665128D01*
Y721372D01*
X972129Y774861D01*
X985000D01*
X987460Y772761D01*
Y763060D01*
X1016540D01*
Y776140D01*
X991999D01*
X990947Y778680D01*
X1000113Y787846D01*
X1001041Y787552D01*
X1002460Y786601D01*
Y784898D01*
X1003303Y782862D01*
X1004862Y781303D01*
X1006898Y780460D01*
X1009102D01*
X1011138Y781303D01*
X1012697Y782862D01*
X1013098Y783831D01*
X1019128Y789861D01*
X1162871D01*
X1181366Y771366D01*
X1183034Y770252D01*
X1185000Y769861D01*
X1206128D01*
X1208094Y770252D01*
X1209761Y771366D01*
X1215192Y776797D01*
X1217460Y775473D01*
X1217460Y773876D01*
Y763060D01*
X1227168D01*
X1227252Y762634D01*
X1228366Y760966D01*
X1244861Y744472D01*
Y646729D01*
X1129907Y531775D01*
X1127051Y532540D01*
X1123749D01*
X1120560Y531685D01*
X1117700Y530034D01*
X1115366Y527700D01*
X1113715Y524840D01*
X1112860Y521651D01*
Y518349D01*
X1113715Y515160D01*
X1115366Y512300D01*
X1117700Y509966D01*
X1120560Y508315D01*
X1123749Y507460D01*
X1127051D01*
X1130240Y508315D01*
X1133100Y509966D01*
X1135434Y512300D01*
X1137085Y515160D01*
X1137940Y518349D01*
Y521651D01*
X1137175Y524507D01*
X1253634Y640966D01*
X1254748Y642633D01*
X1255139Y644600D01*
Y746600D01*
X1254748Y748567D01*
X1253634Y750234D01*
X1243154Y760713D01*
X1244126Y763060D01*
X1246540D01*
Y776140D01*
X1240139D01*
Y825000D01*
X1239748Y826966D01*
X1238634Y828634D01*
X1207840Y859427D01*
Y865240D01*
X1182501D01*
X1181775Y865966D01*
X1179705Y867161D01*
X1177395Y867780D01*
X1175005D01*
X1172695Y867161D01*
X1170625Y865966D01*
X1168934Y864275D01*
X1168682Y863839D01*
X1137429D01*
X1120139Y881128D01*
Y1102071D01*
X1119748Y1104037D01*
X1118634Y1105705D01*
X1061634Y1162705D01*
X1061634Y1162705D01*
X1058705Y1165634D01*
X1057038Y1166748D01*
X1055340Y1167085D01*
Y1170040D01*
X1030101D01*
X1029375Y1170766D01*
X1027305Y1171961D01*
X1024995Y1172580D01*
D02*
G37*
G36*
X1503651Y847540D02*
X1500349D01*
X1497160Y846685D01*
X1494300Y845034D01*
X1491965Y842700D01*
X1490487Y840139D01*
X1413000D01*
X1411033Y839748D01*
X1409366Y838634D01*
X1373871Y803139D01*
X1350571D01*
X1349602Y803540D01*
X1347398D01*
X1345362Y802697D01*
X1343803Y801138D01*
X1342960Y799102D01*
Y796898D01*
X1343803Y794862D01*
X1345362Y793303D01*
X1347398Y792460D01*
X1349602D01*
X1350571Y792861D01*
X1376000D01*
X1377966Y793252D01*
X1379634Y794366D01*
X1415128Y829861D01*
X1490487D01*
X1491965Y827300D01*
X1494300Y824966D01*
X1497160Y823315D01*
X1500349Y822460D01*
X1503651D01*
X1506840Y823315D01*
X1509700Y824966D01*
X1512034Y827300D01*
X1513685Y830160D01*
X1514540Y833349D01*
Y836651D01*
X1513685Y839840D01*
X1512034Y842700D01*
X1509700Y845034D01*
X1506840Y846685D01*
X1503651Y847540D01*
D02*
G37*
G36*
X1378651D02*
X1375349D01*
X1372160Y846685D01*
X1369300Y845034D01*
X1366965Y842700D01*
X1365315Y839840D01*
X1364460Y836651D01*
Y833349D01*
X1365315Y830160D01*
X1366965Y827300D01*
X1369300Y824966D01*
X1372160Y823315D01*
X1375349Y822460D01*
X1378651D01*
X1381840Y823315D01*
X1384700Y824966D01*
X1387034Y827300D01*
X1388685Y830160D01*
X1389540Y833349D01*
Y836651D01*
X1388685Y839840D01*
X1387034Y842700D01*
X1384700Y845034D01*
X1381840Y846685D01*
X1378651Y847540D01*
D02*
G37*
G36*
X699651D02*
X696349D01*
X693160Y846685D01*
X690300Y845034D01*
X687965Y842700D01*
X686314Y839840D01*
X685460Y836651D01*
Y833349D01*
X686314Y830160D01*
X687965Y827300D01*
X690300Y824966D01*
X693160Y823315D01*
X696349Y822460D01*
X699651D01*
X702840Y823315D01*
X705700Y824966D01*
X708034Y827300D01*
X709685Y830160D01*
X710540Y833349D01*
Y836651D01*
X709685Y839840D01*
X708034Y842700D01*
X705700Y845034D01*
X702840Y846685D01*
X699651Y847540D01*
D02*
G37*
G36*
X1616646Y844537D02*
X1613344D01*
X1610155Y843682D01*
X1607295Y842031D01*
X1604960Y839697D01*
X1603309Y836837D01*
X1602455Y833648D01*
Y830346D01*
X1603309Y827157D01*
X1604960Y824297D01*
X1607295Y821963D01*
X1610155Y820312D01*
X1613344Y819457D01*
X1616646D01*
X1619835Y820312D01*
X1622695Y821963D01*
X1625029Y824297D01*
X1626680Y827157D01*
X1627535Y830346D01*
Y833648D01*
X1626680Y836837D01*
X1625029Y839697D01*
X1622695Y842031D01*
X1619835Y843682D01*
X1616646Y844537D01*
D02*
G37*
G36*
X1441052Y826790D02*
X1437948D01*
X1434949Y825986D01*
X1432261Y824434D01*
X1430066Y822239D01*
X1428513Y819551D01*
X1427710Y816552D01*
Y813448D01*
X1428513Y810449D01*
X1430066Y807761D01*
X1432261Y805566D01*
X1434949Y804014D01*
X1437948Y803210D01*
X1441052D01*
X1444051Y804014D01*
X1446739Y805566D01*
X1448934Y807761D01*
X1450486Y810449D01*
X1451290Y813448D01*
Y816552D01*
X1450486Y819551D01*
X1448934Y822239D01*
X1446739Y824434D01*
X1444051Y825986D01*
X1441052Y826790D01*
D02*
G37*
G36*
X612056Y800543D02*
X608754D01*
X605565Y799688D01*
X602705Y798037D01*
X600371Y795703D01*
X598720Y792843D01*
X597865Y789654D01*
Y786352D01*
X598720Y783163D01*
X600371Y780303D01*
X602705Y777968D01*
X605565Y776318D01*
X608754Y775463D01*
X612056D01*
X615246Y776318D01*
X618105Y777968D01*
X620440Y780303D01*
X622091Y783163D01*
X622945Y786352D01*
Y789654D01*
X622091Y792843D01*
X620440Y795703D01*
X618105Y798037D01*
X615246Y799688D01*
X612056Y800543D01*
D02*
G37*
G36*
X1177395Y969380D02*
X1175005D01*
X1172695Y968761D01*
X1170625Y967566D01*
X1168934Y965875D01*
X1167739Y963805D01*
X1167120Y961495D01*
Y959105D01*
X1167739Y956795D01*
X1168934Y954725D01*
X1170625Y953034D01*
X1172695Y951839D01*
X1175005Y951220D01*
X1177395D01*
X1179705Y951839D01*
X1181775Y953034D01*
X1182501Y953760D01*
X1207840D01*
Y955161D01*
X1259071Y955161D01*
X1357866Y856366D01*
X1359534Y855252D01*
X1361500Y854861D01*
X1515469D01*
X1577755Y792576D01*
X1572465Y783413D01*
X1594185Y770873D01*
X1606725Y792593D01*
X1585005Y805133D01*
X1584118Y803597D01*
X1581600Y803265D01*
X1521231Y863634D01*
X1519564Y864748D01*
X1517598Y865139D01*
X1363629D01*
X1264834Y963934D01*
X1263166Y965048D01*
X1261200Y965439D01*
X1207840Y965439D01*
Y966840D01*
X1182501D01*
X1181775Y967566D01*
X1179705Y968761D01*
X1177395Y969380D01*
D02*
G37*
G36*
X1212540Y750740D02*
X1183460D01*
Y749139D01*
X1178000D01*
X1177504Y749040D01*
X1176998D01*
X1176530Y748846D01*
X1176033Y748748D01*
X1175613Y748466D01*
X1175145Y748273D01*
X1174787Y747915D01*
X1174366Y747634D01*
X1174085Y747213D01*
X1173727Y746855D01*
X1173534Y746387D01*
X1173252Y745966D01*
X1173154Y745470D01*
X1172960Y745003D01*
Y744496D01*
X1172861Y744000D01*
X1172960Y743504D01*
Y742998D01*
X1173154Y742530D01*
X1173252Y742033D01*
X1173534Y741613D01*
X1173727Y741145D01*
X1174085Y740787D01*
X1174366Y740366D01*
X1174787Y740085D01*
X1175145Y739727D01*
X1175613Y739534D01*
X1176033Y739252D01*
X1176530Y739154D01*
X1176998Y738960D01*
X1177504D01*
X1178000Y738861D01*
X1183460D01*
Y737660D01*
X1212540D01*
Y750740D01*
D02*
G37*
G36*
X982540D02*
X953460D01*
Y737660D01*
X982540D01*
Y739861D01*
X1055000D01*
X1055496Y739960D01*
X1056003D01*
X1056470Y740154D01*
X1056966Y740252D01*
X1057387Y740534D01*
X1057855Y740727D01*
X1058213Y741085D01*
X1058634Y741366D01*
X1058915Y741787D01*
X1059273Y742145D01*
X1059466Y742613D01*
X1059748Y743034D01*
X1059846Y743530D01*
X1060040Y743997D01*
Y744504D01*
X1060139Y745000D01*
X1060040Y745496D01*
Y746003D01*
X1059846Y746470D01*
X1059748Y746966D01*
X1059466Y747387D01*
X1059273Y747855D01*
X1058915Y748213D01*
X1058634Y748634D01*
X1058213Y748915D01*
X1057855Y749273D01*
X1057387Y749466D01*
X1056966Y749748D01*
X1056470Y749846D01*
X1056003Y750040D01*
X1055496D01*
X1055000Y750139D01*
X982540D01*
Y750740D01*
D02*
G37*
G36*
X813008Y787421D02*
X807886D01*
X802827Y786619D01*
X797956Y785037D01*
X793392Y782711D01*
X789249Y779701D01*
X785627Y776079D01*
X782616Y771935D01*
X780291Y767372D01*
X778708Y762501D01*
X777907Y757442D01*
Y752320D01*
X778708Y747261D01*
X780291Y742390D01*
X782616Y737826D01*
X785627Y733682D01*
X789249Y730061D01*
X793392Y727050D01*
X797956Y724725D01*
X802827Y723142D01*
X807886Y722341D01*
X813008D01*
X818067Y723142D01*
X822938Y724725D01*
X827502Y727050D01*
X831645Y730061D01*
X835267Y733682D01*
X838278Y737826D01*
X840603Y742390D01*
X842186Y747261D01*
X842987Y752320D01*
Y757442D01*
X842186Y762501D01*
X840603Y767372D01*
X838278Y771935D01*
X835267Y776079D01*
X831645Y779701D01*
X827502Y782711D01*
X822938Y785037D01*
X818067Y786619D01*
X813008Y787421D01*
D02*
G37*
G36*
X1191102Y725540D02*
X1188898D01*
X1187929Y725139D01*
X1175000D01*
X1173034Y724748D01*
X1171366Y723634D01*
X1102871Y655139D01*
X971628D01*
X939098Y687669D01*
X938697Y688638D01*
X937138Y690197D01*
X935102Y691040D01*
X932898D01*
X930862Y690197D01*
X929303Y688638D01*
X928460Y686602D01*
Y684398D01*
X929303Y682362D01*
X930862Y680803D01*
X931831Y680402D01*
X965866Y646366D01*
X967533Y645252D01*
X969500Y644861D01*
X1105000D01*
X1106966Y645252D01*
X1108634Y646366D01*
X1177129Y714861D01*
X1187929D01*
X1188898Y714460D01*
X1191102D01*
X1193138Y715303D01*
X1194697Y716862D01*
X1195540Y718898D01*
Y721102D01*
X1194697Y723138D01*
X1193138Y724697D01*
X1191102Y725540D01*
D02*
G37*
G36*
X1016540Y725340D02*
X987460D01*
Y712260D01*
X1016540D01*
Y714861D01*
X1030000D01*
X1030496Y714960D01*
X1031003D01*
X1031470Y715154D01*
X1031966Y715252D01*
X1032387Y715534D01*
X1032855Y715727D01*
X1033213Y716085D01*
X1033634Y716366D01*
X1033915Y716787D01*
X1034273Y717145D01*
X1034466Y717613D01*
X1034748Y718034D01*
X1034846Y718530D01*
X1035040Y718997D01*
Y719504D01*
X1035139Y720000D01*
X1035040Y720496D01*
Y721003D01*
X1034846Y721470D01*
X1034748Y721966D01*
X1034466Y722387D01*
X1034273Y722855D01*
X1033915Y723213D01*
X1033634Y723634D01*
X1033213Y723915D01*
X1032855Y724273D01*
X1032387Y724466D01*
X1031966Y724748D01*
X1031470Y724846D01*
X1031003Y725040D01*
X1030496D01*
X1030000Y725139D01*
X1016540D01*
Y725340D01*
D02*
G37*
G36*
X1177395Y943980D02*
X1175005D01*
X1172695Y943361D01*
X1170625Y942166D01*
X1169899Y941440D01*
X1144760D01*
Y928360D01*
X1169899D01*
X1170625Y927634D01*
X1172695Y926439D01*
X1175005Y925820D01*
X1177395D01*
X1179705Y926439D01*
X1181775Y927634D01*
X1183466Y929325D01*
X1183718Y929761D01*
X1249971D01*
X1303861Y875872D01*
Y756663D01*
X1304252Y754697D01*
X1305366Y753029D01*
X1342513Y715882D01*
X1344180Y714769D01*
X1346147Y714377D01*
X1440363D01*
X1450876Y701849D01*
X1470088Y717971D01*
X1453967Y737183D01*
X1439037Y724655D01*
X1407215D01*
X1406555Y727169D01*
X1410698Y730180D01*
X1414320Y733802D01*
X1417331Y737945D01*
X1419656Y742509D01*
X1421239Y747380D01*
X1422040Y752439D01*
Y757561D01*
X1421239Y762620D01*
X1419656Y767491D01*
X1417331Y772055D01*
X1414320Y776198D01*
X1410698Y779820D01*
X1406555Y782831D01*
X1401991Y785156D01*
X1397120Y786739D01*
X1392061Y787540D01*
X1386939D01*
X1381880Y786739D01*
X1377009Y785156D01*
X1372445Y782831D01*
X1368302Y779820D01*
X1364680Y776198D01*
X1361669Y772055D01*
X1359344Y767491D01*
X1357761Y762620D01*
X1356960Y757561D01*
Y752439D01*
X1357761Y747380D01*
X1359344Y742509D01*
X1361669Y737945D01*
X1364680Y733802D01*
X1368302Y730180D01*
X1372445Y727169D01*
X1371785Y724655D01*
X1348276D01*
X1314139Y758792D01*
Y878000D01*
X1313748Y879967D01*
X1312634Y881634D01*
X1255734Y938534D01*
X1254066Y939648D01*
X1252100Y940039D01*
X1183718D01*
X1183466Y940475D01*
X1181775Y942166D01*
X1179705Y943361D01*
X1177395Y943980D01*
D02*
G37*
G36*
X1069994Y700139D02*
X977494Y700039D01*
X977100Y699960D01*
X976699Y699976D01*
X976471Y699940D01*
X953460D01*
Y686860D01*
X982540D01*
Y689767D01*
X1070006Y689861D01*
X1070499Y689960D01*
X1071003D01*
X1071473Y690155D01*
X1071972Y690255D01*
X1072390Y690535D01*
X1072855Y690727D01*
X1073215Y691087D01*
X1073637Y691370D01*
X1073917Y691789D01*
X1074273Y692145D01*
X1074467Y692615D01*
X1074750Y693039D01*
X1074847Y693532D01*
X1075040Y693997D01*
Y694506D01*
X1075139Y695006D01*
X1075040Y695499D01*
Y696003D01*
X1074845Y696473D01*
X1074745Y696972D01*
X1074465Y697390D01*
X1074273Y697855D01*
X1073913Y698215D01*
X1073630Y698638D01*
X1073211Y698917D01*
X1072855Y699273D01*
X1072385Y699467D01*
X1071961Y699750D01*
X1071468Y699847D01*
X1071003Y700040D01*
X1070494D01*
X1069994Y700139D01*
D02*
G37*
G36*
X1016540Y674540D02*
X987460D01*
Y661460D01*
X1016540D01*
Y674540D01*
D02*
G37*
G36*
X1491723Y684657D02*
X1488471Y684084D01*
X1485479Y682688D01*
X1482949Y680566D01*
X1481055Y677861D01*
X1479926Y674759D01*
X1479638Y671469D01*
X1480211Y668218D01*
X1481607Y665225D01*
X1483729Y662696D01*
X1486434Y660802D01*
X1489537Y659673D01*
X1492826Y659385D01*
X1496078Y659958D01*
X1499070Y661354D01*
X1501600Y663476D01*
X1503493Y666181D01*
X1504623Y669283D01*
X1504910Y672573D01*
X1504337Y675824D01*
X1502942Y678817D01*
X1500819Y681346D01*
X1498115Y683240D01*
X1495012Y684369D01*
X1491723Y684657D01*
D02*
G37*
G36*
X747192Y652004D02*
X743903Y651716D01*
X740800Y650586D01*
X738096Y648693D01*
X735973Y646163D01*
X734578Y643171D01*
X734005Y639919D01*
X734292Y636630D01*
X735422Y633527D01*
X737316Y630822D01*
X739845Y628700D01*
X742837Y627305D01*
X746089Y626731D01*
X749378Y627019D01*
X752481Y628148D01*
X755186Y630042D01*
X757308Y632571D01*
X758704Y635564D01*
X759277Y638816D01*
X758989Y642105D01*
X757860Y645208D01*
X755966Y647912D01*
X753437Y650035D01*
X750444Y651430D01*
X747192Y652004D01*
D02*
G37*
G36*
X1177395Y918580D02*
X1175005D01*
X1172695Y917961D01*
X1170625Y916766D01*
X1168934Y915075D01*
X1167739Y913005D01*
X1167120Y910695D01*
Y908305D01*
X1167739Y905995D01*
X1168934Y903925D01*
X1170625Y902234D01*
X1172695Y901039D01*
X1175005Y900420D01*
X1177395D01*
X1179705Y901039D01*
X1181775Y902234D01*
X1182501Y902960D01*
X1207840D01*
Y904361D01*
X1239371D01*
X1283361Y860371D01*
Y701500D01*
X1283752Y699533D01*
X1284866Y697866D01*
X1346999Y635734D01*
X1348666Y634620D01*
X1350633Y634229D01*
X1441301D01*
X1451814Y621701D01*
X1471026Y637822D01*
X1454905Y657034D01*
X1451198Y653924D01*
X1448232Y654751D01*
X1447868Y655383D01*
X1430163Y675625D01*
X1424936Y681601D01*
X1425855Y684125D01*
X1426142Y687414D01*
X1425569Y690666D01*
X1424174Y693658D01*
X1422051Y696188D01*
X1419346Y698082D01*
X1416244Y699211D01*
X1412955Y699499D01*
X1409703Y698925D01*
X1406710Y697530D01*
X1404181Y695407D01*
X1402287Y692703D01*
X1401158Y689600D01*
X1400870Y686311D01*
X1401443Y683059D01*
X1402839Y680067D01*
X1404961Y677537D01*
X1407666Y675643D01*
X1410769Y674514D01*
X1414058Y674226D01*
X1417241Y674788D01*
X1420699Y670834D01*
Y670583D01*
X1421428Y668823D01*
X1422775Y667476D01*
X1424126Y666916D01*
X1440132Y648617D01*
X1439979Y646022D01*
X1438533Y644506D01*
X1352761D01*
X1293639Y703628D01*
Y862500D01*
X1293248Y864466D01*
X1292134Y866134D01*
X1245134Y913134D01*
X1243467Y914248D01*
X1241500Y914639D01*
X1207840D01*
Y916040D01*
X1182501D01*
X1181775Y916766D01*
X1179705Y917961D01*
X1177395Y918580D01*
D02*
G37*
G36*
X1139136Y603890D02*
X1136664D01*
X1134276Y603250D01*
X1132134Y602014D01*
X1130386Y600266D01*
X1129150Y598124D01*
X1128510Y595736D01*
Y593264D01*
X1129150Y590876D01*
X1130386Y588734D01*
X1132134Y586986D01*
X1134276Y585750D01*
X1136664Y585110D01*
X1139136D01*
X1141524Y585750D01*
X1143666Y586986D01*
X1145414Y588734D01*
X1146650Y590876D01*
X1147290Y593264D01*
Y595736D01*
X1146650Y598124D01*
X1145414Y600266D01*
X1143666Y602014D01*
X1141524Y603250D01*
X1139136Y603890D01*
D02*
G37*
G36*
X1062936D02*
X1060464D01*
X1058076Y603250D01*
X1055934Y602014D01*
X1054186Y600266D01*
X1052950Y598124D01*
X1052310Y595736D01*
Y593264D01*
X1052950Y590876D01*
X1054186Y588734D01*
X1055934Y586986D01*
X1058076Y585750D01*
X1060464Y585110D01*
X1062936D01*
X1065324Y585750D01*
X1067466Y586986D01*
X1069214Y588734D01*
X1070450Y590876D01*
X1071090Y593264D01*
Y595736D01*
X1070450Y598124D01*
X1069214Y600266D01*
X1067466Y602014D01*
X1065324Y603250D01*
X1062936Y603890D01*
D02*
G37*
G36*
X1322792Y576302D02*
X1319502Y576014D01*
X1316400Y574885D01*
X1313695Y572991D01*
X1311573Y570461D01*
X1310177Y567469D01*
X1309604Y564217D01*
X1309892Y560928D01*
X1311021Y557825D01*
X1312915Y555121D01*
X1315444Y552998D01*
X1318436Y551603D01*
X1321688Y551029D01*
X1324978Y551317D01*
X1328080Y552447D01*
X1330785Y554340D01*
X1332907Y556870D01*
X1334303Y559862D01*
X1334876Y563114D01*
X1334588Y566403D01*
X1333459Y569506D01*
X1331565Y572211D01*
X1329036Y574333D01*
X1326043Y575728D01*
X1322792Y576302D01*
D02*
G37*
G36*
X924945Y558927D02*
X921693Y558354D01*
X918701Y556958D01*
X916171Y554836D01*
X914277Y552131D01*
X913148Y549029D01*
X912860Y545739D01*
X913434Y542488D01*
X914829Y539495D01*
X916952Y536966D01*
X919656Y535072D01*
X922759Y533943D01*
X926048Y533655D01*
X929300Y534228D01*
X932292Y535624D01*
X934822Y537746D01*
X936716Y540451D01*
X937845Y543553D01*
X938133Y546843D01*
X937559Y550094D01*
X936164Y553087D01*
X934042Y555616D01*
X931337Y557510D01*
X928234Y558639D01*
X924945Y558927D01*
D02*
G37*
G36*
X1177395Y893180D02*
X1175005D01*
X1172695Y892561D01*
X1170625Y891366D01*
X1169899Y890640D01*
X1144760D01*
Y877560D01*
X1169899D01*
X1170625Y876834D01*
X1172695Y875639D01*
X1175005Y875020D01*
X1177395D01*
X1179705Y875639D01*
X1181775Y876834D01*
X1183466Y878525D01*
X1183718Y878961D01*
X1213772D01*
X1264861Y827871D01*
Y556126D01*
X1258431Y553786D01*
X1267009Y530218D01*
X1290576Y538796D01*
X1281998Y562364D01*
X1277219Y560624D01*
X1275139Y562081D01*
Y830000D01*
X1274748Y831966D01*
X1273634Y833634D01*
X1219534Y887734D01*
X1217867Y888848D01*
X1215900Y889239D01*
X1183718D01*
X1183466Y889675D01*
X1181775Y891366D01*
X1179705Y892561D01*
X1177395Y893180D01*
D02*
G37*
%LPD*%
D14*
X1193300Y807900D02*
D03*
X1159300Y833300D02*
D03*
X1193300Y858700D02*
D03*
X1159300Y884100D02*
D03*
X1193300Y909500D02*
D03*
X1159300Y934900D02*
D03*
X1193300Y960300D02*
D03*
X1159300Y985700D02*
D03*
X1193300Y1011100D02*
D03*
X1159300Y1036500D02*
D03*
X1193300Y1061900D02*
D03*
X1159300Y1087300D02*
D03*
X1193300Y1112700D02*
D03*
X1159300Y1138100D02*
D03*
X1193300Y1163500D02*
D03*
X1159300Y1188900D02*
D03*
X1193300Y1214300D02*
D03*
X1159300Y1239700D02*
D03*
X1193300Y1265100D02*
D03*
X1159300Y1290500D02*
D03*
X1193300Y1315900D02*
D03*
X1159300Y1341300D02*
D03*
X1193300Y1366700D02*
D03*
X1159300Y1392100D02*
D03*
X1006800D02*
D03*
X1040800Y1366700D02*
D03*
X1006800Y1341300D02*
D03*
X1040800Y1315900D02*
D03*
X1006800Y1290500D02*
D03*
X1040800Y1265100D02*
D03*
X1006800Y1239700D02*
D03*
X1040800Y1214300D02*
D03*
X1006800Y1188900D02*
D03*
X1040800Y1163500D02*
D03*
X1006800Y1138100D02*
D03*
X1040800Y1112700D02*
D03*
X1006800Y1087300D02*
D03*
X1040800Y1061900D02*
D03*
X1006800Y1036500D02*
D03*
X1040800Y1011100D02*
D03*
X1006800Y985700D02*
D03*
X1040800Y960300D02*
D03*
X1006800Y934900D02*
D03*
X1040800Y909500D02*
D03*
X1006800Y884100D02*
D03*
X1040800Y858700D02*
D03*
X1006800Y833300D02*
D03*
X1040800Y807900D02*
D03*
X968000Y795000D02*
D03*
X1002000Y769600D02*
D03*
X968000Y744200D02*
D03*
X1002000Y718800D02*
D03*
X968000Y693400D02*
D03*
X1002000Y668000D02*
D03*
X1198000Y795000D02*
D03*
X1232000Y769600D02*
D03*
X1198000Y744200D02*
D03*
X1232000Y718800D02*
D03*
D15*
X1275050Y1206500D02*
D03*
X1249650Y1172500D02*
D03*
X1300450D02*
D03*
X1325850Y1206500D02*
D03*
X1351250Y1172500D02*
D03*
X1376650Y1206500D02*
D03*
X1376450Y1028750D02*
D03*
X1351050Y994750D02*
D03*
X1325650Y1028750D02*
D03*
X1300250Y994750D02*
D03*
X1274850Y1028750D02*
D03*
X1249450Y994750D02*
D03*
D34*
X1058000Y1159071D02*
Y1159071D01*
X1115000Y879000D02*
Y1102071D01*
X1058000Y1159071D02*
X1115000Y1102071D01*
X1055071Y1162000D02*
X1058000Y1159071D01*
X1040800Y1163500D02*
X1042300Y1162000D01*
X1055071D01*
X735126Y704963D02*
X747579Y719516D01*
X1466620Y1498258D02*
X1476000Y1510000D01*
X1235000Y766100D02*
Y825000D01*
X1049700Y1239700D02*
X1066000Y1256000D01*
Y1415000D01*
X1023800Y1239700D02*
X1049700D01*
X1137000Y1252000D02*
X1147800Y1241200D01*
X1137000Y1417000D02*
X1155000Y1435000D01*
X1137000Y1252000D02*
Y1417000D01*
X1147800Y1241200D02*
X1157800D01*
X1159300Y1239700D01*
X1197800Y744000D02*
X1198000Y744200D01*
X1178000Y744000D02*
X1197800D01*
X969500Y650000D02*
X1105000D01*
X1175000Y720000D01*
X1190000D01*
X968800Y745000D02*
X1055000D01*
X968000Y744200D02*
X968800Y745000D01*
X1011500Y720000D02*
X1030000D01*
X1002000Y718800D02*
X1011500Y720000D01*
X977500Y694900D02*
X1070000Y695000D01*
X968000Y693400D02*
X977500Y694900D01*
X934000Y685500D02*
X969500Y650000D01*
X970000Y780000D02*
X985000D01*
X1000546Y795546D01*
X913500Y723500D02*
X970000Y780000D01*
X913500Y663000D02*
Y723500D01*
X1000546Y795546D02*
Y831800D01*
X1201300Y858700D02*
X1235000Y825000D01*
X1232000Y764600D02*
X1233500D01*
X1235000Y766100D01*
X1250000Y644600D02*
Y746600D01*
X1125400Y520000D02*
X1250000Y644600D01*
X1232000Y764600D02*
X1250000Y746600D01*
X1215900Y884100D02*
X1270000Y830000D01*
Y550794D02*
Y830000D01*
Y550794D02*
X1274503Y546291D01*
X1206128Y775000D02*
X1215040Y783912D01*
X1185000Y775000D02*
X1206128D01*
X1165000Y795000D02*
X1185000Y775000D01*
X1017000Y795000D02*
X1165000D01*
X1215040Y783912D02*
Y783958D01*
X1215273Y784898D02*
X1215465Y785089D01*
X1215273Y784191D02*
Y784898D01*
X1008000Y786000D02*
X1017000Y795000D01*
X1215040Y783958D02*
X1215273Y784191D01*
X1002046Y833300D02*
X1023800D01*
X1000546Y831800D02*
X1002046Y833300D01*
X1176200Y1290500D02*
X1545500D01*
X1614995Y1359995D02*
Y1368003D01*
X1545500Y1290500D02*
X1614995Y1359995D01*
X1312000Y1010000D02*
Y1014728D01*
X1413506Y1486687D02*
Y1513138D01*
Y1486687D02*
X1433000Y1467193D01*
X1452421Y1480484D02*
X1466620Y1498258D01*
X770612Y1531638D02*
X786494Y1513138D01*
X747579Y1444421D02*
X850700Y1341300D01*
X747579Y1444421D02*
Y1480484D01*
X760000Y1544000D02*
X770612Y1531638D01*
X1426295Y672242D02*
X1444000Y652000D01*
X841862Y686862D02*
X852000Y697000D01*
X786494Y686862D02*
X841862D01*
X719000Y687000D02*
X734946Y705143D01*
X1346147Y719516D02*
X1452421D01*
X1309000Y756663D02*
X1346147Y719516D01*
X1413506Y686862D02*
X1426295Y672242D01*
X746293Y717984D02*
X749194D01*
X1413000Y835000D02*
X1502000D01*
X1376000Y798000D02*
X1413000Y835000D01*
X1348500Y798000D02*
X1376000D01*
X1176200Y934900D02*
X1252100D01*
X1309000Y756663D02*
Y878000D01*
X1252100Y934900D02*
X1309000Y878000D01*
X1176200Y1087300D02*
X1392700D01*
X1470500Y1009500D02*
X1550500D01*
X1392700Y1087300D02*
X1470500Y1009500D01*
X1264828Y1061900D02*
X1312000Y1014728D01*
X1176200Y1061900D02*
X1264828D01*
X1439000Y1006000D02*
Y1006000D01*
X1398000Y1047000D02*
X1439000Y1006000D01*
X1325650Y1028750D02*
Y1036750D01*
X1327150Y1038250D01*
X1327250D01*
X1336000Y1047000D01*
X1398000D01*
X1406453Y994750D02*
X1415000Y986203D01*
X1351050Y994750D02*
X1406453D01*
X1161300Y1239700D02*
X1176200D01*
X1193300Y1265100D02*
X1585072D01*
X1674470Y1175702D01*
X1675599D01*
X1492274Y1427274D02*
Y1527979D01*
X1380900Y1315900D02*
X1492274Y1427274D01*
X1193300Y1315900D02*
X1380900D01*
X1433000Y1418415D02*
Y1467193D01*
X1176200Y1341300D02*
X1355885D01*
X1433000Y1418415D01*
X1322240Y1512740D02*
Y1636334D01*
X1176200Y1366700D02*
X1322240Y1512740D01*
X1176200Y1392100D02*
Y1629200D01*
X1125400Y1680000D02*
X1176200Y1629200D01*
X925497Y1653709D02*
X1023800Y1555406D01*
Y1392100D02*
Y1555406D01*
X799367Y1560633D02*
X993300Y1366700D01*
X850700Y1341300D02*
X1006800D01*
X706502Y1315900D02*
X1023800D01*
X610405Y1411997D02*
X706502Y1315900D01*
X746641Y1560633D02*
X799367D01*
X533222Y1225730D02*
X597992Y1290500D01*
X1023800D01*
X993300Y1366700D02*
X1023800D01*
X996100Y1265100D02*
X1023800D01*
X941000Y1210000D02*
X996100Y1265100D01*
X645000Y1210000D02*
X941000D01*
X524401Y1089401D02*
X645000Y1210000D01*
X524401Y1024298D02*
Y1089401D01*
X585005Y831997D02*
X620008Y867000D01*
X916000D01*
X983900Y934900D01*
X1006800D01*
X1023800D01*
X707726Y672021D02*
Y788726D01*
X773000Y854000D01*
X939500D01*
X995000Y909500D01*
X1023800D01*
X852000Y697000D02*
Y741000D01*
X993600Y882600D01*
X1005300D02*
X1006800Y884100D01*
X993600Y882600D02*
X1005300D01*
X877760Y563666D02*
Y736260D01*
X1000200Y858700D01*
X1023800D01*
X913500Y663000D02*
X1056500Y520000D01*
X1074600D01*
X1193300Y858700D02*
X1201300D01*
X1176200Y884100D02*
X1215900D01*
X1193300Y909500D02*
X1241500D01*
X1288500Y862500D01*
Y701500D02*
Y862500D01*
Y701500D02*
X1350633Y639367D01*
X1453359D01*
X1201300Y960300D02*
X1261200Y960300D01*
X1517598Y860000D02*
X1589595Y788003D01*
X1361500Y860000D02*
X1517598D01*
X1261200Y960300D02*
X1361500Y860000D01*
X1193300Y960300D02*
X1201300D01*
X1176200D02*
X1193300D01*
X1249450Y994750D02*
X1261750D01*
X1366876Y889624D01*
X1368317D02*
X1372941Y885000D01*
X1377000D01*
X1366876Y889624D02*
X1368317D01*
X1550500Y1009500D02*
X1585730Y974270D01*
X1666778D01*
X1115000Y879000D02*
X1135300Y858700D01*
X1155000Y1522271D02*
X1164729Y1532000D01*
X1155000Y1435000D02*
Y1522271D01*
X1164729Y1532000D02*
X1165000D01*
X1045000Y1436000D02*
X1066000Y1415000D01*
X1045000Y1436000D02*
Y1525000D01*
X1038000Y1532000D02*
X1045000Y1525000D01*
X727183Y1544306D02*
X759323Y1506004D01*
X1300450Y1164500D02*
X1354475Y1110475D01*
X1300450Y1164500D02*
Y1172500D01*
X897875Y1105875D02*
X898000Y1106000D01*
X897750Y1035400D02*
X897875Y1035525D01*
Y1105875D01*
X811400Y906500D02*
X930000D01*
X962500Y1010000D02*
Y1035400D01*
Y939000D02*
Y1010000D01*
X930000Y906500D02*
X962500Y939000D01*
X779650Y938250D02*
X811400Y906500D01*
X1135300Y858700D02*
X1176200D01*
D35*
X750000Y1138400D02*
D03*
Y1062200D02*
D03*
Y1087600D02*
D03*
Y1113000D02*
D03*
X1113000Y1450000D02*
D03*
X1087600D02*
D03*
X1062200D02*
D03*
X1138400D02*
D03*
X1450000Y1061600D02*
D03*
Y1137800D02*
D03*
Y1112400D02*
D03*
Y1087000D02*
D03*
D36*
X1023800Y807900D02*
D03*
Y833300D02*
D03*
X1176200Y1163500D02*
D03*
X1023800Y858700D02*
D03*
Y884100D02*
D03*
Y909500D02*
D03*
Y934900D02*
D03*
Y960300D02*
D03*
Y985700D02*
D03*
Y1011100D02*
D03*
Y1036500D02*
D03*
Y1061900D02*
D03*
Y1087300D02*
D03*
Y1112700D02*
D03*
Y1138100D02*
D03*
X1176200D02*
D03*
Y1112700D02*
D03*
Y1087300D02*
D03*
Y1061900D02*
D03*
Y1036500D02*
D03*
Y1011100D02*
D03*
Y985700D02*
D03*
Y960300D02*
D03*
Y934900D02*
D03*
Y909500D02*
D03*
Y884100D02*
D03*
Y858700D02*
D03*
Y833300D02*
D03*
Y807900D02*
D03*
X1023800Y1188900D02*
D03*
Y1214300D02*
D03*
Y1239700D02*
D03*
Y1265100D02*
D03*
Y1290500D02*
D03*
Y1315900D02*
D03*
Y1341300D02*
D03*
Y1366700D02*
D03*
Y1392100D02*
D03*
X1176200D02*
D03*
Y1366700D02*
D03*
Y1341300D02*
D03*
Y1315900D02*
D03*
Y1290500D02*
D03*
Y1265100D02*
D03*
Y1239700D02*
D03*
Y1214300D02*
D03*
Y1188900D02*
D03*
X1023800Y1163500D02*
D03*
D37*
X932050Y1262250D02*
D03*
D38*
X906650D02*
D03*
X881250D02*
D03*
X855850D02*
D03*
X830450D02*
D03*
X805050D02*
D03*
X779650D02*
D03*
X754250D02*
D03*
X932050Y938250D02*
D03*
X906650D02*
D03*
X881250D02*
D03*
X855850D02*
D03*
X830450D02*
D03*
X805050D02*
D03*
X779650D02*
D03*
X754250D02*
D03*
Y963650D02*
D03*
X779650D02*
D03*
X805050D02*
D03*
X830450D02*
D03*
X855850D02*
D03*
X881250D02*
D03*
X906650D02*
D03*
X932050D02*
D03*
X754250Y1236850D02*
D03*
X779650D02*
D03*
X805050D02*
D03*
X830450D02*
D03*
X855850D02*
D03*
X881250D02*
D03*
X906650D02*
D03*
X932050D02*
D03*
X786494Y1513138D02*
D03*
X767036Y1496811D02*
D03*
X1432964Y703189D02*
D03*
X1413506Y686862D02*
D03*
X767036Y703189D02*
D03*
X747579Y719516D02*
D03*
X698000Y885000D02*
D03*
X823000D02*
D03*
X698000Y835000D02*
D03*
X823000D02*
D03*
X597705Y810000D02*
D03*
X610405Y788003D02*
D03*
X1100000Y1680000D02*
D03*
X1074600D02*
D03*
X1274503Y1653709D02*
D03*
X1298372Y1645022D02*
D03*
X1472817Y1544306D02*
D03*
X1453359Y1560633D02*
D03*
X1589595Y1411997D02*
D03*
X1602295Y1390000D02*
D03*
X1671189Y1200716D02*
D03*
X1666778Y1225730D02*
D03*
X1675599Y1024298D02*
D03*
X1671189Y999284D02*
D03*
X1602295Y810000D02*
D03*
X1614995Y831997D02*
D03*
X1492274Y672021D02*
D03*
X1472817Y655694D02*
D03*
X1298372Y554978D02*
D03*
X1322240Y563666D02*
D03*
X1125400Y520000D02*
D03*
X1100000D02*
D03*
X901628Y554978D02*
D03*
X925497Y546291D02*
D03*
X746641Y639367D02*
D03*
X727183Y655694D02*
D03*
X533222Y974270D02*
D03*
X528811Y999284D02*
D03*
Y1200716D02*
D03*
X524401Y1175702D02*
D03*
X585005Y1368003D02*
D03*
X597705Y1390000D02*
D03*
X727183Y1544306D02*
D03*
X707726Y1527979D02*
D03*
X877760Y1636334D02*
D03*
X901628Y1645022D02*
D03*
X1452421Y1480484D02*
D03*
X1432964Y1496811D02*
D03*
X950621Y1574863D02*
D03*
X925570Y1579243D02*
D03*
X1249876Y1572621D02*
D03*
X1274430Y1579243D02*
D03*
X1377000Y885000D02*
D03*
X1502000D02*
D03*
X1377000Y835000D02*
D03*
X1502000D02*
D03*
D39*
X747579Y1480484D02*
D03*
X1452421Y719516D02*
D03*
X1453359Y639367D02*
D03*
X746641Y1560633D02*
D03*
D40*
X786494Y686862D02*
D03*
X1492274Y1527979D02*
D03*
X707726Y672021D02*
D03*
X1413506Y1513138D02*
D03*
D41*
X760500Y815000D02*
D03*
Y905000D02*
D03*
X1439500Y815000D02*
D03*
Y905000D02*
D03*
D42*
X585005Y831997D02*
D03*
X1614995Y1368003D02*
D03*
D43*
X1125400Y1680000D02*
D03*
X1074600Y520000D02*
D03*
D44*
X1322240Y1636334D02*
D03*
X877760Y563666D02*
D03*
D45*
X1675599Y1175702D02*
D03*
X524401Y1024298D02*
D03*
D46*
X1666778Y974270D02*
D03*
X533222Y1225730D02*
D03*
D47*
X1589595Y788003D02*
D03*
X610405Y1411997D02*
D03*
D48*
X1274503Y546291D02*
D03*
X925497Y1653709D02*
D03*
D49*
X1061700Y594500D02*
D03*
X1137900D02*
D03*
X1112500D02*
D03*
X1087100D02*
D03*
D50*
X1178000Y744000D02*
D03*
X1055000Y745000D02*
D03*
X1030000Y720000D02*
D03*
X1070000Y695000D02*
D03*
D51*
X1190000Y720000D02*
D03*
X1215465Y785089D02*
D03*
X1165000Y1532000D02*
D03*
X1038000D02*
D03*
X1348500Y798000D02*
D03*
X1008000Y786000D02*
D03*
X962500Y1035400D02*
D03*
Y1010000D02*
D03*
X934000Y685500D02*
D03*
X897750Y1035400D02*
D03*
X898000Y1106000D02*
D03*
D52*
X1312000Y1010000D02*
D03*
X1466936Y1498018D02*
D03*
X1476000Y1510000D02*
D03*
X770512Y1531463D02*
D03*
X760000Y1544000D02*
D03*
X735126Y704963D02*
D03*
X1425489Y671536D02*
D03*
X719000Y687000D02*
D03*
X1444000Y652000D02*
D03*
X1439000Y1006000D02*
D03*
X1415000Y986203D02*
D03*
X1354475Y1110475D02*
D03*
D53*
X1389500Y1445000D02*
D03*
X810500D02*
D03*
X810447Y754881D02*
D03*
X1389500Y755000D02*
D03*
M02*
