G04*
G04 #@! TF.GenerationSoftware,Altium Limited,Altium Designer,25.4.2 (15)*
G04*
G04 Layer_Color=16711935*
%FSLAX44Y44*%
%MOMM*%
G71*
G04*
G04 #@! TF.SameCoordinates,80CFFD5A-54A5-451F-B997-A2DA6E1B210F*
G04*
G04*
G04 #@! TF.FilePolarity,Negative*
G04*
G01*
G75*
%ADD18C,2.0032*%
%ADD19C,1.5112*%
%ADD20R,2.2032X2.2032*%
%ADD21C,2.2032*%
%ADD22P,3.1158X4X85.0*%
%ADD23P,3.1158X4X185.0*%
%ADD24C,2.0532*%
%ADD25P,3.1158X4X345.0*%
%ADD26R,2.2032X2.2032*%
%ADD27P,3.1158X4X205.0*%
%ADD28P,3.1158X4X145.0*%
%ADD29P,3.1158X4X125.0*%
%ADD30P,3.1158X4X105.0*%
%ADD31P,3.1158X4X65.0*%
%ADD32C,1.5732*%
%ADD33C,6.2032*%
G04:AMPARAMS|DCode=74|XSize=1.1532mm|YSize=1.1032mm|CornerRadius=0mm|HoleSize=0mm|Usage=FLASHONLY|Rotation=230.000|XOffset=0mm|YOffset=0mm|HoleType=Round|Shape=Rectangle|*
%AMROTATEDRECTD74*
4,1,4,-0.0519,0.7963,0.7932,0.0871,0.0519,-0.7963,-0.7932,-0.0871,-0.0519,0.7963,0.0*
%
%ADD74ROTATEDRECTD74*%

G04:AMPARAMS|DCode=75|XSize=1.1532mm|YSize=1.1032mm|CornerRadius=0mm|HoleSize=0mm|Usage=FLASHONLY|Rotation=310.000|XOffset=0mm|YOffset=0mm|HoleType=Round|Shape=Rectangle|*
%AMROTATEDRECTD75*
4,1,4,-0.7932,0.0871,0.0519,0.7963,0.7932,-0.0871,-0.0519,-0.7963,-0.7932,0.0871,0.0*
%
%ADD75ROTATEDRECTD75*%

%ADD76R,1.1032X1.1532*%
G04:AMPARAMS|DCode=77|XSize=1.1532mm|YSize=1.1032mm|CornerRadius=0mm|HoleSize=0mm|Usage=FLASHONLY|Rotation=290.000|XOffset=0mm|YOffset=0mm|HoleType=Round|Shape=Rectangle|*
%AMROTATEDRECTD77*
4,1,4,-0.7156,0.3532,0.3211,0.7305,0.7156,-0.3532,-0.3211,-0.7305,-0.7156,0.3532,0.0*
%
%ADD77ROTATEDRECTD77*%

G04:AMPARAMS|DCode=78|XSize=1.1532mm|YSize=1.1032mm|CornerRadius=0mm|HoleSize=0mm|Usage=FLASHONLY|Rotation=77.220|XOffset=0mm|YOffset=0mm|HoleType=Round|Shape=Rectangle|*
%AMROTATEDRECTD78*
4,1,4,0.4104,-0.6843,-0.6655,-0.4403,-0.4104,0.6843,0.6655,0.4403,0.4104,-0.6843,0.0*
%
%ADD78ROTATEDRECTD78*%

G04:AMPARAMS|DCode=79|XSize=1.1532mm|YSize=1.1032mm|CornerRadius=0mm|HoleSize=0mm|Usage=FLASHONLY|Rotation=250.000|XOffset=0mm|YOffset=0mm|HoleType=Round|Shape=Rectangle|*
%AMROTATEDRECTD79*
4,1,4,-0.3211,0.7305,0.7156,0.3532,0.3211,-0.7305,-0.7156,-0.3532,-0.3211,0.7305,0.0*
%
%ADD79ROTATEDRECTD79*%

G04:AMPARAMS|DCode=80|XSize=1.1532mm|YSize=1.1032mm|CornerRadius=0mm|HoleSize=0mm|Usage=FLASHONLY|Rotation=282.232|XOffset=0mm|YOffset=0mm|HoleType=Round|Shape=Rectangle|*
%AMROTATEDRECTD80*
4,1,4,-0.6612,0.4466,0.4169,0.6804,0.6612,-0.4466,-0.4169,-0.6804,-0.6612,0.4466,0.0*
%
%ADD80ROTATEDRECTD80*%

G04:AMPARAMS|DCode=81|XSize=1.1532mm|YSize=1.1032mm|CornerRadius=0mm|HoleSize=0mm|Usage=FLASHONLY|Rotation=230.000|XOffset=0mm|YOffset=0mm|HoleType=Round|Shape=Rectangle|*
%AMROTATEDRECTD81*
4,1,4,-0.0519,0.7963,0.7932,0.0871,0.0519,-0.7963,-0.7932,-0.0871,-0.0519,0.7963,0.0*
%
%ADD81ROTATEDRECTD81*%

G04:AMPARAMS|DCode=82|XSize=1.1532mm|YSize=1.1032mm|CornerRadius=0mm|HoleSize=0mm|Usage=FLASHONLY|Rotation=210.000|XOffset=0mm|YOffset=0mm|HoleType=Round|Shape=Rectangle|*
%AMROTATEDRECTD82*
4,1,4,0.2236,0.7660,0.7752,-0.1894,-0.2236,-0.7660,-0.7752,0.1894,0.2236,0.7660,0.0*
%
%ADD82ROTATEDRECTD82*%

G04:AMPARAMS|DCode=83|XSize=1.1532mm|YSize=1.1032mm|CornerRadius=0mm|HoleSize=0mm|Usage=FLASHONLY|Rotation=190.000|XOffset=0mm|YOffset=0mm|HoleType=Round|Shape=Rectangle|*
%AMROTATEDRECTD83*
4,1,4,0.4721,0.6434,0.6636,-0.4431,-0.4721,-0.6434,-0.6636,0.4431,0.4721,0.6434,0.0*
%
%ADD83ROTATEDRECTD83*%

G04:AMPARAMS|DCode=84|XSize=1.1532mm|YSize=1.1032mm|CornerRadius=0mm|HoleSize=0mm|Usage=FLASHONLY|Rotation=170.000|XOffset=0mm|YOffset=0mm|HoleType=Round|Shape=Rectangle|*
%AMROTATEDRECTD84*
4,1,4,0.6636,0.4431,0.4721,-0.6434,-0.6636,-0.4431,-0.4721,0.6434,0.6636,0.4431,0.0*
%
%ADD84ROTATEDRECTD84*%

G04:AMPARAMS|DCode=85|XSize=1.1532mm|YSize=1.1032mm|CornerRadius=0mm|HoleSize=0mm|Usage=FLASHONLY|Rotation=150.000|XOffset=0mm|YOffset=0mm|HoleType=Round|Shape=Rectangle|*
%AMROTATEDRECTD85*
4,1,4,0.7752,0.1894,0.2236,-0.7660,-0.7752,-0.1894,-0.2236,0.7660,0.7752,0.1894,0.0*
%
%ADD85ROTATEDRECTD85*%

G04:AMPARAMS|DCode=86|XSize=1.1532mm|YSize=1.1032mm|CornerRadius=0mm|HoleSize=0mm|Usage=FLASHONLY|Rotation=310.000|XOffset=0mm|YOffset=0mm|HoleType=Round|Shape=Rectangle|*
%AMROTATEDRECTD86*
4,1,4,-0.7932,0.0871,0.0519,0.7963,0.7932,-0.0871,-0.0519,-0.7963,-0.7932,0.0871,0.0*
%
%ADD86ROTATEDRECTD86*%

G04:AMPARAMS|DCode=87|XSize=1.1532mm|YSize=1.1032mm|CornerRadius=0mm|HoleSize=0mm|Usage=FLASHONLY|Rotation=49.996|XOffset=0mm|YOffset=0mm|HoleType=Round|Shape=Rectangle|*
%AMROTATEDRECTD87*
4,1,4,0.0519,-0.7963,-0.7932,-0.0871,-0.0519,0.7963,0.7932,0.0871,0.0519,-0.7963,0.0*
%
%ADD87ROTATEDRECTD87*%

G04:AMPARAMS|DCode=88|XSize=1.1532mm|YSize=1.1032mm|CornerRadius=0mm|HoleSize=0mm|Usage=FLASHONLY|Rotation=129.997|XOffset=0mm|YOffset=0mm|HoleType=Round|Shape=Rectangle|*
%AMROTATEDRECTD88*
4,1,4,0.7932,-0.0872,-0.0520,-0.7963,-0.7932,0.0872,0.0520,0.7963,0.7932,-0.0872,0.0*
%
%ADD88ROTATEDRECTD88*%

G04:AMPARAMS|DCode=89|XSize=1.1032mm|YSize=1.0532mm|CornerRadius=0mm|HoleSize=0mm|Usage=FLASHONLY|Rotation=257.220|XOffset=0mm|YOffset=0mm|HoleType=Round|Shape=Rectangle|*
%AMROTATEDRECTD89*
4,1,4,-0.3915,0.6544,0.6356,0.4215,0.3915,-0.6544,-0.6356,-0.4215,-0.3915,0.6544,0.0*
%
%ADD89ROTATEDRECTD89*%

G04:AMPARAMS|DCode=90|XSize=1.1032mm|YSize=1.0532mm|CornerRadius=0mm|HoleSize=0mm|Usage=FLASHONLY|Rotation=282.232|XOffset=0mm|YOffset=0mm|HoleType=Round|Shape=Rectangle|*
%AMROTATEDRECTD90*
4,1,4,-0.6315,0.4275,0.3978,0.6506,0.6315,-0.4275,-0.3978,-0.6506,-0.6315,0.4275,0.0*
%
%ADD90ROTATEDRECTD90*%

%ADD91R,1.1032X1.0532*%
%ADD92R,5.2032X1.4532*%
%ADD93R,1.0532X1.1032*%
D18*
X750000Y1138400D02*
D03*
Y1062200D02*
D03*
Y1087600D02*
D03*
Y1113000D02*
D03*
X1113000Y1450000D02*
D03*
X1087600D02*
D03*
X1062200D02*
D03*
X1138400D02*
D03*
X1450000Y1061600D02*
D03*
Y1137800D02*
D03*
Y1112400D02*
D03*
Y1087000D02*
D03*
D19*
X1023800Y807900D02*
D03*
Y833300D02*
D03*
X1176200Y1163500D02*
D03*
X1023800Y858700D02*
D03*
Y884100D02*
D03*
Y909500D02*
D03*
Y934900D02*
D03*
Y960300D02*
D03*
Y985700D02*
D03*
Y1011100D02*
D03*
Y1036500D02*
D03*
Y1061900D02*
D03*
Y1087300D02*
D03*
Y1112700D02*
D03*
Y1138100D02*
D03*
X1176200D02*
D03*
Y1112700D02*
D03*
Y1087300D02*
D03*
Y1061900D02*
D03*
Y1036500D02*
D03*
Y1011100D02*
D03*
Y985700D02*
D03*
Y960300D02*
D03*
Y934900D02*
D03*
Y909500D02*
D03*
Y884100D02*
D03*
Y858700D02*
D03*
Y833300D02*
D03*
Y807900D02*
D03*
X1023800Y1188900D02*
D03*
Y1214300D02*
D03*
Y1239700D02*
D03*
Y1265100D02*
D03*
Y1290500D02*
D03*
Y1315900D02*
D03*
Y1341300D02*
D03*
Y1366700D02*
D03*
Y1392100D02*
D03*
X1176200D02*
D03*
Y1366700D02*
D03*
Y1341300D02*
D03*
Y1315900D02*
D03*
Y1290500D02*
D03*
Y1265100D02*
D03*
Y1239700D02*
D03*
Y1214300D02*
D03*
Y1188900D02*
D03*
X1023800Y1163500D02*
D03*
D20*
X932050Y1262250D02*
D03*
D21*
X906650D02*
D03*
X881250D02*
D03*
X855850D02*
D03*
X830450D02*
D03*
X805050D02*
D03*
X779650D02*
D03*
X754250D02*
D03*
X932050Y938250D02*
D03*
X906650D02*
D03*
X881250D02*
D03*
X855850D02*
D03*
X830450D02*
D03*
X805050D02*
D03*
X779650D02*
D03*
X754250D02*
D03*
Y963650D02*
D03*
X779650D02*
D03*
X805050D02*
D03*
X830450D02*
D03*
X855850D02*
D03*
X881250D02*
D03*
X906650D02*
D03*
X932050D02*
D03*
X754250Y1236850D02*
D03*
X779650D02*
D03*
X805050D02*
D03*
X830450D02*
D03*
X855850D02*
D03*
X881250D02*
D03*
X906650D02*
D03*
X932050D02*
D03*
X786494Y1513138D02*
D03*
X767036Y1496811D02*
D03*
X1432964Y703189D02*
D03*
X1413506Y686862D02*
D03*
X767036Y703189D02*
D03*
X747579Y719516D02*
D03*
X698000Y885000D02*
D03*
X823000D02*
D03*
X698000Y835000D02*
D03*
X823000D02*
D03*
X597705Y810000D02*
D03*
X610405Y788003D02*
D03*
X1100000Y1680000D02*
D03*
X1074600D02*
D03*
X1274503Y1653709D02*
D03*
X1298372Y1645022D02*
D03*
X1472817Y1544306D02*
D03*
X1453359Y1560633D02*
D03*
X1589595Y1411997D02*
D03*
X1602295Y1390000D02*
D03*
X1671189Y1200716D02*
D03*
X1666778Y1225730D02*
D03*
X1675599Y1024298D02*
D03*
X1671189Y999284D02*
D03*
X1602295Y810000D02*
D03*
X1614995Y831997D02*
D03*
X1492274Y672021D02*
D03*
X1472817Y655694D02*
D03*
X1298372Y554978D02*
D03*
X1322240Y563666D02*
D03*
X1125400Y520000D02*
D03*
X1100000D02*
D03*
X901628Y554978D02*
D03*
X925497Y546291D02*
D03*
X746641Y639367D02*
D03*
X727183Y655694D02*
D03*
X533222Y974270D02*
D03*
X528811Y999284D02*
D03*
Y1200716D02*
D03*
X524401Y1175702D02*
D03*
X585005Y1368003D02*
D03*
X597705Y1390000D02*
D03*
X727183Y1544306D02*
D03*
X707726Y1527979D02*
D03*
X877760Y1636334D02*
D03*
X901628Y1645022D02*
D03*
X1452421Y1480484D02*
D03*
X1432964Y1496811D02*
D03*
X950621Y1574863D02*
D03*
X925570Y1579243D02*
D03*
X1249876Y1572621D02*
D03*
X1274430Y1579243D02*
D03*
X1377000Y885000D02*
D03*
X1502000D02*
D03*
X1377000Y835000D02*
D03*
X1502000D02*
D03*
D22*
X747579Y1480484D02*
D03*
X1452421Y719516D02*
D03*
X1453359Y639367D02*
D03*
X746641Y1560633D02*
D03*
D23*
X786494Y686862D02*
D03*
X1492274Y1527979D02*
D03*
X707726Y672021D02*
D03*
X1413506Y1513138D02*
D03*
D24*
X760500Y815000D02*
D03*
Y905000D02*
D03*
X1439500Y815000D02*
D03*
Y905000D02*
D03*
D25*
X585005Y831997D02*
D03*
X1614995Y1368003D02*
D03*
D26*
X1125400Y1680000D02*
D03*
X1074600Y520000D02*
D03*
D27*
X1322240Y1636334D02*
D03*
X877760Y563666D02*
D03*
D28*
X1675599Y1175702D02*
D03*
X524401Y1024298D02*
D03*
D29*
X1666778Y974270D02*
D03*
X533222Y1225730D02*
D03*
D30*
X1589595Y788003D02*
D03*
X610405Y1411997D02*
D03*
D31*
X1274503Y546291D02*
D03*
X925497Y1653709D02*
D03*
D32*
X1061700Y594500D02*
D03*
X1137900D02*
D03*
X1112500D02*
D03*
X1087100D02*
D03*
D33*
X1389500Y1445000D02*
D03*
X810500D02*
D03*
X810447Y754881D02*
D03*
X1389500Y755000D02*
D03*
D74*
X735126Y704963D02*
D03*
X747000Y695000D02*
D03*
X714327Y640373D02*
D03*
X726201Y630410D02*
D03*
D75*
X1426063Y672018D02*
D03*
X1437937Y681982D02*
D03*
X1485673Y640373D02*
D03*
X1497546Y650337D02*
D03*
D76*
X1084500Y1700000D02*
D03*
X1100000D02*
D03*
Y500000D02*
D03*
X1115500D02*
D03*
D77*
X880435Y1658699D02*
D03*
X895000Y1664000D02*
D03*
X1305212Y536184D02*
D03*
X1319777Y541486D02*
D03*
D78*
X939442Y1549714D02*
D03*
X954558Y1546286D02*
D03*
D79*
X1305212Y1663816D02*
D03*
X1290647Y1669117D02*
D03*
X894788Y536184D02*
D03*
X909353Y530883D02*
D03*
D80*
X1259574Y1547642D02*
D03*
X1244426Y1544358D02*
D03*
D81*
X1485673Y1559627D02*
D03*
X1473799Y1569590D02*
D03*
D82*
X1619615Y1400000D02*
D03*
X1611865Y1413423D02*
D03*
X580385Y800000D02*
D03*
X588135Y786577D02*
D03*
D83*
X1690885Y1204189D02*
D03*
X1688193Y1219453D02*
D03*
X509115Y995811D02*
D03*
X511807Y980547D02*
D03*
D84*
X1690885Y995811D02*
D03*
X1693576Y1011076D02*
D03*
X509115Y1204189D02*
D03*
X506424Y1188924D02*
D03*
D85*
X1619615Y800000D02*
D03*
X1627365Y813423D02*
D03*
X580385Y1400000D02*
D03*
X572635Y1386577D02*
D03*
D86*
X714327Y1559627D02*
D03*
X702454Y1549664D02*
D03*
D87*
X1455063Y1507982D02*
D03*
X1466936Y1498018D02*
D03*
D88*
X758063Y1521019D02*
D03*
X769937Y1530981D02*
D03*
D89*
X924558Y1553286D02*
D03*
X909442Y1556714D02*
D03*
D90*
X1289574Y1554642D02*
D03*
X1274426Y1551358D02*
D03*
D91*
X1502000Y792250D02*
D03*
Y807750D02*
D03*
X698000Y774250D02*
D03*
Y789750D02*
D03*
D92*
X897750Y734600D02*
D03*
Y760000D02*
D03*
Y785400D02*
D03*
X962500Y760000D02*
D03*
Y785400D02*
D03*
Y734600D02*
D03*
X1237400Y785300D02*
D03*
Y734500D02*
D03*
Y759900D02*
D03*
X1302150Y734500D02*
D03*
Y759900D02*
D03*
Y785300D02*
D03*
X962500Y984600D02*
D03*
Y1035400D02*
D03*
Y1010000D02*
D03*
X897750Y1035400D02*
D03*
Y1010000D02*
D03*
Y984600D02*
D03*
X1237500Y1035400D02*
D03*
Y984600D02*
D03*
Y1010000D02*
D03*
X1302250Y984600D02*
D03*
Y1010000D02*
D03*
Y1035400D02*
D03*
D93*
X1151250Y757000D02*
D03*
X1166750D02*
D03*
X1166500Y772000D02*
D03*
X1151000D02*
D03*
M02*
