G04*
G04 #@! TF.GenerationSoftware,Altium Limited,Altium Designer,25.4.2 (15)*
G04*
G04 Layer_Physical_Order=2*
G04 Layer_Color=16711680*
%FSLAX44Y44*%
%MOMM*%
G71*
G04*
G04 #@! TF.SameCoordinates,EEABE1AA-3A69-4D6F-ADE4-9D398D027295*
G04*
G04*
G04 #@! TF.FilePolarity,Positive*
G04*
G01*
G75*
%ADD14C,0.2540*%
%ADD260C,0.4000*%
%ADD261C,0.5000*%
%ADD263C,1.3080*%
%ADD264C,1.3980*%
G04:AMPARAMS|DCode=265|XSize=1.398mm|YSize=1.398mm|CornerRadius=0mm|HoleSize=0mm|Usage=FLASHONLY|Rotation=90.000|XOffset=0mm|YOffset=0mm|HoleType=Round|Shape=Octagon|*
%AMOCTAGOND265*
4,1,8,0.3495,0.6990,-0.3495,0.6990,-0.6990,0.3495,-0.6990,-0.3495,-0.3495,-0.6990,0.3495,-0.6990,0.6990,-0.3495,0.6990,0.3495,0.3495,0.6990,0.0*
%
%ADD265OCTAGOND265*%

%ADD266R,1.0000X1.0000*%
%ADD267C,1.0000*%
%ADD268C,1.9304*%
%ADD269C,1.8796*%
%ADD270C,0.5000*%
%ADD271C,0.4500*%
%ADD272C,6.0000*%
%ADD273R,2.4000X0.8000*%
G36*
X1157763Y1837185D02*
X1158960Y1835002D01*
Y1832997D01*
X1159727Y1831145D01*
X1159843Y1831030D01*
X1150083Y1723669D01*
X1147472Y1723004D01*
X1147437Y1723057D01*
X1126824Y1743670D01*
X1127876Y1746210D01*
X1127953D01*
X1129713Y1746939D01*
X1131061Y1748287D01*
X1131790Y1750047D01*
Y1751953D01*
X1131061Y1753713D01*
X1130885Y1753889D01*
Y1781111D01*
X1131061Y1781287D01*
X1131790Y1783047D01*
Y1784953D01*
X1131061Y1786713D01*
X1129713Y1788061D01*
X1127953Y1788790D01*
X1126047D01*
X1124287Y1788061D01*
X1122939Y1786713D01*
X1122210Y1784953D01*
Y1783047D01*
X1122939Y1781287D01*
X1123115Y1781111D01*
Y1753889D01*
X1122939Y1753713D01*
X1122210Y1751953D01*
Y1751876D01*
X1119670Y1750824D01*
X1096098Y1774396D01*
X1094838Y1775238D01*
X1093351Y1775533D01*
X1008495D01*
X1008319Y1775710D01*
X1006559Y1776439D01*
X1004653D01*
X1002893Y1775710D01*
X1001545Y1774362D01*
X1000816Y1772602D01*
Y1770696D01*
X1001545Y1768936D01*
X1002893Y1767588D01*
X1004653Y1766859D01*
X1006559D01*
X1008319Y1767588D01*
X1008495Y1767764D01*
X1091742D01*
X1140805Y1718701D01*
Y1712194D01*
X1140151Y1711734D01*
X1138265Y1711228D01*
X1095747Y1753747D01*
X1094487Y1754589D01*
X1093000Y1754885D01*
X897747D01*
X897504Y1754836D01*
X897256Y1754854D01*
X896767Y1754690D01*
X896260Y1754589D01*
X896054Y1754451D01*
X895819Y1754373D01*
X763761Y1678885D01*
X743657D01*
X743293Y1679249D01*
X741532Y1679978D01*
X739627D01*
X737866Y1679249D01*
X736519Y1677901D01*
X735790Y1676141D01*
Y1674235D01*
X736519Y1672475D01*
X737866Y1671127D01*
X739627Y1670398D01*
X741532D01*
X743265Y1671115D01*
X764118D01*
X764118Y1671115D01*
X764119Y1671115D01*
X764793Y1671115D01*
X765036Y1671164D01*
X765283Y1671146D01*
X765773Y1671310D01*
X766280Y1671411D01*
X766486Y1671549D01*
X766721Y1671627D01*
X767307Y1671962D01*
X767307Y1671962D01*
X767307Y1671962D01*
X898779Y1747115D01*
X1091391D01*
X1132115Y1706391D01*
Y1702490D01*
X1129575Y1701881D01*
X1127831Y1705305D01*
X1124820Y1709448D01*
X1121198Y1713070D01*
X1117055Y1716081D01*
X1112491Y1718406D01*
X1107620Y1719989D01*
X1102561Y1720790D01*
X1097439D01*
X1092380Y1719989D01*
X1087509Y1718406D01*
X1082945Y1716081D01*
X1078802Y1713070D01*
X1075180Y1709448D01*
X1072169Y1705305D01*
X1069844Y1700741D01*
X1068425Y1696373D01*
X1065885Y1696775D01*
Y1728000D01*
X1065589Y1729487D01*
X1064747Y1730747D01*
X1055747Y1739747D01*
X1054487Y1740589D01*
X1053000Y1740885D01*
X927564D01*
X927301Y1740832D01*
X927034Y1740848D01*
X926565Y1740686D01*
X926078Y1740589D01*
X925855Y1740440D01*
X925602Y1740352D01*
X679664Y1596366D01*
X679174Y1595931D01*
X678662Y1595523D01*
X646966Y1558065D01*
X625969Y1557721D01*
X598849D01*
X598673Y1557897D01*
X596913Y1558626D01*
X595007D01*
X593247Y1557897D01*
X591899Y1556550D01*
X591170Y1554789D01*
Y1552883D01*
X591899Y1551123D01*
X593247Y1549775D01*
X595007Y1549046D01*
X596913D01*
X598673Y1549775D01*
X598849Y1549951D01*
X626000D01*
X626032Y1549958D01*
X626064Y1549952D01*
X648856Y1550325D01*
X648985Y1550353D01*
X649115Y1550338D01*
X649721Y1550512D01*
X650338Y1550645D01*
X650446Y1550720D01*
X650572Y1550756D01*
X651066Y1551149D01*
X651584Y1551508D01*
X652027Y1548092D01*
X545229Y1420816D01*
X545013Y1420422D01*
X544780Y1420037D01*
X468961Y1211726D01*
X468892Y1211281D01*
X468804Y1210840D01*
Y1124194D01*
X468154Y1123737D01*
X466264Y1123229D01*
X427885Y1161609D01*
Y1238356D01*
X430047Y1240210D01*
X431953D01*
X433713Y1240939D01*
X435061Y1242287D01*
X435790Y1244047D01*
Y1244296D01*
X445609Y1254115D01*
X460111D01*
X460287Y1253939D01*
X462047Y1253210D01*
X463953D01*
X465713Y1253939D01*
X467061Y1255287D01*
X467790Y1257047D01*
Y1258953D01*
X467061Y1260713D01*
X465713Y1262061D01*
X463953Y1262790D01*
X462047D01*
X460287Y1262061D01*
X460111Y1261885D01*
X444000D01*
X442513Y1261589D01*
X441253Y1260747D01*
X430425Y1249918D01*
X429850Y1249959D01*
X427885Y1251644D01*
Y1277036D01*
X455650Y1304801D01*
X455899D01*
X457659Y1305530D01*
X459007Y1306877D01*
X459736Y1308638D01*
Y1310544D01*
X459007Y1312304D01*
X457659Y1313651D01*
X455899Y1314381D01*
X453993D01*
X452233Y1313651D01*
X450885Y1312304D01*
X450156Y1310544D01*
Y1310294D01*
X421253Y1281392D01*
X420411Y1280131D01*
X420115Y1278645D01*
Y1160000D01*
X420411Y1158513D01*
X421253Y1157253D01*
X460115Y1118391D01*
Y983323D01*
X460247Y982662D01*
X460350Y981995D01*
X537021Y771343D01*
X537065Y771269D01*
X537082Y771185D01*
X537457Y770624D01*
X537807Y770047D01*
X537876Y769996D01*
X537924Y769924D01*
X539595Y768253D01*
X540224Y767834D01*
X540856Y767411D01*
X540856Y767411D01*
X542342Y767115D01*
X543058Y767115D01*
X639883D01*
X639883Y767115D01*
X640808D01*
X641389Y767231D01*
X641978Y767296D01*
X642127Y767378D01*
X642294Y767411D01*
X642787Y767740D01*
X643306Y768026D01*
X644015Y768621D01*
X644015Y768621D01*
X954472Y1029396D01*
X954578Y1029529D01*
X954720Y1029623D01*
X955049Y1030116D01*
X955420Y1030578D01*
X955467Y1030742D01*
X955562Y1030884D01*
X955677Y1031465D01*
X955843Y1032034D01*
X955824Y1032203D01*
X955858Y1032370D01*
Y1296364D01*
X992536Y1333043D01*
X993460Y1332660D01*
Y1332660D01*
X1018699D01*
X1019425Y1331934D01*
X1021495Y1330739D01*
X1023805Y1330120D01*
X1026195D01*
X1028505Y1330739D01*
X1030575Y1331934D01*
X1032266Y1333625D01*
X1033461Y1335695D01*
X1034080Y1338005D01*
Y1340395D01*
X1033461Y1342705D01*
X1032266Y1344775D01*
X1030575Y1346466D01*
X1028505Y1347661D01*
X1026195Y1348280D01*
X1023805D01*
X1021495Y1347661D01*
X1019425Y1346466D01*
X1018699Y1345740D01*
X993460D01*
Y1343085D01*
X993200D01*
X991713Y1342789D01*
X990453Y1341947D01*
X949226Y1300720D01*
X948384Y1299460D01*
X948088Y1297973D01*
Y1034181D01*
X639393Y774885D01*
X543999D01*
X543511Y776228D01*
X545176Y779078D01*
X545304Y779099D01*
X545350Y779065D01*
X545382Y779017D01*
X545756Y778767D01*
X546119Y778501D01*
X546175Y778488D01*
X546222Y778456D01*
X546664Y778368D01*
X547100Y778261D01*
X547157Y778270D01*
X547213Y778259D01*
X634085D01*
X634472Y778336D01*
X634864Y778379D01*
X634964Y778434D01*
X635076Y778456D01*
X635404Y778675D01*
X635750Y778865D01*
X941665Y1035558D01*
X941736Y1035647D01*
X941831Y1035710D01*
X942050Y1036038D01*
X942297Y1036346D01*
X942329Y1036455D01*
X942393Y1036550D01*
X942470Y1036937D01*
X942580Y1037316D01*
X942568Y1037429D01*
X942590Y1037542D01*
Y1645040D01*
X942582Y1645080D01*
X942589Y1645121D01*
X942483Y1645574D01*
X942393Y1646031D01*
X942370Y1646065D01*
X942360Y1646105D01*
X942090Y1646484D01*
X941831Y1646871D01*
X941797Y1646894D01*
X941773Y1646927D01*
X883460Y1701696D01*
X883350Y1701765D01*
X883264Y1701863D01*
X882924Y1702031D01*
X882603Y1702231D01*
X882475Y1702253D01*
X882358Y1702310D01*
X881980Y1702335D01*
X881606Y1702397D01*
X881479Y1702368D01*
X881349Y1702376D01*
X881283Y1702459D01*
X881894Y1705760D01*
X928618Y1733115D01*
X1051391D01*
X1058115Y1726391D01*
Y1678435D01*
X1058247Y1677773D01*
X1056306Y1675980D01*
X1056219Y1675940D01*
X1054316Y1675940D01*
X1031301D01*
X1030575Y1676666D01*
X1028505Y1677861D01*
X1026195Y1678480D01*
X1023805D01*
X1021495Y1677861D01*
X1019425Y1676666D01*
X1017734Y1674975D01*
X1016539Y1672905D01*
X1015920Y1670595D01*
Y1668205D01*
X1016539Y1665895D01*
X1017734Y1663825D01*
X1019425Y1662134D01*
X1021495Y1660939D01*
X1023805Y1660320D01*
X1026195D01*
X1028505Y1660939D01*
X1030575Y1662134D01*
X1031301Y1662860D01*
X1056540D01*
Y1673533D01*
X1056540Y1673565D01*
X1056540Y1673565D01*
X1056540Y1675177D01*
X1058856Y1675894D01*
X1059253Y1675688D01*
X1059484Y1675458D01*
X1144489Y1590453D01*
X1145749Y1589611D01*
X1145960Y1589569D01*
Y1586660D01*
X1171099D01*
X1171825Y1585934D01*
X1173895Y1584739D01*
X1176205Y1584120D01*
X1178595D01*
X1180905Y1584739D01*
X1182975Y1585934D01*
X1184666Y1587625D01*
X1185861Y1589695D01*
X1186480Y1592005D01*
Y1594395D01*
X1185861Y1596705D01*
X1184666Y1598775D01*
X1182975Y1600466D01*
X1180905Y1601661D01*
X1178595Y1602280D01*
X1176205D01*
X1173895Y1601661D01*
X1171825Y1600466D01*
X1171099Y1599740D01*
X1146189D01*
X1091838Y1654091D01*
X1093129Y1656393D01*
X1097439Y1655710D01*
X1102561D01*
X1107620Y1656511D01*
X1112491Y1658094D01*
X1117055Y1660419D01*
X1121198Y1663430D01*
X1124820Y1667052D01*
X1127831Y1671195D01*
X1129575Y1674619D01*
X1132115Y1674010D01*
Y1635488D01*
X1132411Y1634001D01*
X1133253Y1632741D01*
X1150141Y1615853D01*
X1151401Y1615011D01*
X1152888Y1614715D01*
X1169158D01*
X1170134Y1613025D01*
X1171825Y1611334D01*
X1173895Y1610139D01*
X1176205Y1609520D01*
X1178595D01*
X1180905Y1610139D01*
X1182975Y1611334D01*
X1183701Y1612060D01*
X1209040D01*
Y1625140D01*
X1183701D01*
X1182975Y1625866D01*
X1180905Y1627061D01*
X1178595Y1627680D01*
X1176205D01*
X1173895Y1627061D01*
X1171825Y1625866D01*
X1170134Y1624175D01*
X1169158Y1622485D01*
X1154497D01*
X1139885Y1637097D01*
Y1665116D01*
X1140539Y1665576D01*
X1142425Y1666082D01*
X1155620Y1652887D01*
X1154648Y1650540D01*
X1145960D01*
Y1637460D01*
X1171099D01*
X1171825Y1636734D01*
X1173895Y1635539D01*
X1176205Y1634920D01*
X1178595D01*
X1180905Y1635539D01*
X1182975Y1636734D01*
X1184666Y1638425D01*
X1185861Y1640495D01*
X1186480Y1642805D01*
Y1645195D01*
X1185861Y1647505D01*
X1184666Y1649575D01*
X1182975Y1651266D01*
X1180905Y1652461D01*
X1178595Y1653080D01*
X1176205D01*
X1173895Y1652461D01*
X1171825Y1651266D01*
X1171099Y1650540D01*
X1168954D01*
X1148575Y1670919D01*
Y1716979D01*
X1149465Y1717461D01*
X1151115Y1717660D01*
X1151625Y1717248D01*
X1152145Y1716727D01*
X1152399Y1716622D01*
X1152612Y1716450D01*
X1153317Y1716242D01*
X1153997Y1715960D01*
X1154272D01*
X1154535Y1715882D01*
X1155266Y1715960D01*
X1156003D01*
X1156256Y1716065D01*
X1156529Y1716094D01*
X1157175Y1716446D01*
X1157855Y1716727D01*
X1158049Y1716921D01*
X1158290Y1717052D01*
X1158752Y1717625D01*
X1159273Y1718145D01*
X1159378Y1718398D01*
X1159550Y1718612D01*
X1159758Y1719317D01*
X1160040Y1719998D01*
Y1720272D01*
X1160118Y1720535D01*
X1170118Y1830535D01*
X1169906Y1832529D01*
X1171591Y1834747D01*
X1355616Y1802298D01*
X1580401Y1672519D01*
X1747242Y1473685D01*
X1836016Y1229780D01*
Y970220D01*
X1747242Y726315D01*
X1580401Y527481D01*
X1468008Y462591D01*
X1467753Y462368D01*
X1467472Y462180D01*
X1467377Y462038D01*
X1467248Y461925D01*
X1467099Y461621D01*
X1466910Y461340D01*
X1466877Y461172D01*
X1466801Y461019D01*
X1466779Y460681D01*
X1466713Y460349D01*
Y276609D01*
X1464173Y275928D01*
X1463133Y277730D01*
X1460910Y279953D01*
X1458277Y281473D01*
X1459621Y499638D01*
X1459790Y500047D01*
Y501953D01*
X1459061Y503713D01*
X1458341Y504433D01*
X1458330Y506854D01*
X1458541Y507467D01*
X1553918Y561622D01*
X1554313Y561963D01*
X1554747Y562253D01*
X1554881Y562455D01*
X1555065Y562613D01*
X1555299Y563079D01*
X1555589Y563513D01*
X1555636Y563751D01*
X1555745Y563968D01*
X1555783Y564488D01*
X1555885Y565000D01*
Y664111D01*
X1556061Y664287D01*
X1556790Y666047D01*
Y667953D01*
X1556061Y669713D01*
X1554713Y671061D01*
X1552953Y671790D01*
X1551047D01*
X1549287Y671061D01*
X1547939Y669713D01*
X1547425Y668471D01*
X1544885Y668976D01*
Y699395D01*
X1544851Y699564D01*
X1544870Y699735D01*
X1544704Y700302D01*
X1544589Y700882D01*
X1544493Y701025D01*
X1544445Y701190D01*
X1544075Y701651D01*
X1543747Y702142D01*
X1543604Y702237D01*
X1543496Y702372D01*
X1207885Y983801D01*
Y1071000D01*
X1207589Y1072487D01*
X1206747Y1073747D01*
X1153380Y1127113D01*
X1154352Y1129460D01*
X1171099D01*
X1171825Y1128734D01*
X1173895Y1127539D01*
X1176205Y1126920D01*
X1178595D01*
X1180905Y1127539D01*
X1182975Y1128734D01*
X1184666Y1130425D01*
X1185861Y1132495D01*
X1186480Y1134805D01*
Y1137195D01*
X1185861Y1139505D01*
X1184666Y1141575D01*
X1182975Y1143266D01*
X1180905Y1144461D01*
X1178595Y1145080D01*
X1176205D01*
X1173895Y1144461D01*
X1171825Y1143266D01*
X1171099Y1142540D01*
X1145960D01*
Y1137852D01*
X1143613Y1136880D01*
X1139885Y1140609D01*
Y1385279D01*
X1143613Y1389008D01*
X1145960Y1388036D01*
Y1383460D01*
X1171099D01*
X1171825Y1382734D01*
X1173895Y1381539D01*
X1176205Y1380920D01*
X1178595D01*
X1180905Y1381539D01*
X1182975Y1382734D01*
X1184666Y1384425D01*
X1185861Y1386495D01*
X1186480Y1388805D01*
Y1391195D01*
X1185861Y1393505D01*
X1184666Y1395575D01*
X1182975Y1397266D01*
X1180905Y1398461D01*
X1178595Y1399080D01*
X1176205D01*
X1173895Y1398461D01*
X1171825Y1397266D01*
X1171099Y1396540D01*
X1154464D01*
X1153492Y1398887D01*
X1166121Y1411515D01*
X1169158D01*
X1170134Y1409825D01*
X1171825Y1408134D01*
X1173895Y1406939D01*
X1176205Y1406320D01*
X1178595D01*
X1180905Y1406939D01*
X1182975Y1408134D01*
X1183701Y1408860D01*
X1209040D01*
Y1421940D01*
X1183701D01*
X1182975Y1422666D01*
X1180905Y1423861D01*
X1178595Y1424480D01*
X1176205D01*
X1173895Y1423861D01*
X1171825Y1422666D01*
X1170134Y1420975D01*
X1169158Y1419285D01*
X1164512D01*
X1163025Y1418989D01*
X1161765Y1418147D01*
X1133253Y1389635D01*
X1132411Y1388375D01*
X1132115Y1386888D01*
Y1139000D01*
X1132411Y1137513D01*
X1133253Y1136253D01*
X1200115Y1069391D01*
Y981989D01*
X1200149Y981821D01*
X1200130Y981649D01*
X1200296Y981082D01*
X1200411Y980503D01*
X1200507Y980360D01*
X1200555Y980194D01*
X1200925Y979734D01*
X1201253Y979242D01*
X1201396Y979147D01*
X1201504Y979013D01*
X1537115Y697583D01*
Y589193D01*
X1423749Y520782D01*
X1423414Y520477D01*
X1422490Y519860D01*
X1421087Y517759D01*
X1421047Y517560D01*
X1420049Y515278D01*
X1415603Y505191D01*
X1415287Y505061D01*
X1413939Y503713D01*
X1413210Y501953D01*
Y500047D01*
X1413939Y498287D01*
X1415287Y496939D01*
X1417047Y496210D01*
X1418953D01*
X1420713Y496939D01*
X1422061Y498287D01*
X1422790Y500047D01*
Y501953D01*
X1422730Y502098D01*
X1428055Y514178D01*
X1428138Y514212D01*
X1428217Y514404D01*
X1543007Y583674D01*
X1543355Y583991D01*
X1543747Y584253D01*
X1543910Y584497D01*
X1544127Y584695D01*
X1544327Y585122D01*
X1544589Y585513D01*
X1544646Y585802D01*
X1544771Y586067D01*
X1544793Y586538D01*
X1544885Y587000D01*
Y662822D01*
X1547425Y663866D01*
X1548115Y663168D01*
Y567262D01*
X1432978Y501887D01*
X1432381Y501548D01*
X1430975Y500539D01*
X1431010Y500504D01*
X1430253Y499747D01*
X1429411Y498487D01*
X1429115Y497000D01*
Y252639D01*
X1428939Y252463D01*
X1428210Y250703D01*
Y248797D01*
X1428939Y247037D01*
X1430287Y245689D01*
X1432047Y244960D01*
X1433953D01*
X1435713Y245689D01*
X1437061Y247037D01*
X1437790Y248797D01*
Y250703D01*
X1437061Y252463D01*
X1436885Y252639D01*
Y495171D01*
X1447670Y501295D01*
X1450111Y500096D01*
X1450288Y499860D01*
X1450363Y499678D01*
X1449019Y281537D01*
X1448972Y281525D01*
X1446250Y279953D01*
X1444027Y277730D01*
X1442455Y275008D01*
X1441642Y271972D01*
Y268828D01*
X1442455Y265792D01*
X1444027Y263070D01*
X1446250Y260847D01*
X1448972Y259275D01*
X1449454Y259146D01*
Y256517D01*
X1448874Y256361D01*
X1446094Y254756D01*
X1443824Y252486D01*
X1442219Y249706D01*
X1441388Y246605D01*
Y243395D01*
X1442219Y240294D01*
X1443824Y237514D01*
X1446094Y235244D01*
X1448874Y233639D01*
X1451975Y232808D01*
X1455185D01*
X1458286Y233639D01*
X1461066Y235244D01*
X1463336Y237514D01*
X1464173Y238964D01*
X1466713Y238284D01*
Y182938D01*
X1421597D01*
X1230089Y374446D01*
X1229900Y374573D01*
X1229743Y374737D01*
X1229484Y374851D01*
X1229249Y375008D01*
X1229026Y375052D01*
X1228818Y375144D01*
X1228535Y375150D01*
X1228258Y375205D01*
X1228035Y375161D01*
X1227808Y375166D01*
X1100000Y352630D01*
X972192Y375166D01*
X971965Y375161D01*
X971742Y375205D01*
X971465Y375150D01*
X971182Y375144D01*
X970974Y375052D01*
X970751Y375008D01*
X970516Y374851D01*
X970257Y374737D01*
X970100Y374573D01*
X969911Y374446D01*
X778403Y182938D01*
X733287D01*
Y460349D01*
X733221Y460681D01*
X733198Y461019D01*
X733123Y461172D01*
X733090Y461340D01*
X732901Y461621D01*
X732752Y461925D01*
X732623Y462038D01*
X732528Y462180D01*
X732247Y462368D01*
X731992Y462591D01*
X619600Y527481D01*
X452758Y726315D01*
X363984Y970220D01*
Y1229780D01*
X452758Y1473685D01*
X619600Y1672519D01*
X844384Y1802298D01*
X1100000Y1847370D01*
X1157763Y1837185D01*
D02*
G37*
G36*
X482556Y951590D02*
X482588Y951542D01*
X482962Y951292D01*
X483325Y951027D01*
X483381Y951013D01*
X483428Y950981D01*
X483870Y950893D01*
X484306Y950786D01*
X484363Y950795D01*
X484419Y950784D01*
X578382D01*
X604466Y879118D01*
X530749Y823889D01*
X530663Y823793D01*
X530552Y823726D01*
X530328Y823420D01*
X530074Y823137D01*
X530031Y823015D01*
X529955Y822911D01*
X529865Y822542D01*
X529739Y822184D01*
X527578Y821719D01*
X527239Y821686D01*
X526941Y821751D01*
X480717Y948753D01*
X482382Y951603D01*
X482510Y951624D01*
X482556Y951590D01*
D02*
G37*
%LPC*%
G36*
X1240953Y1756790D02*
X1239047D01*
X1237287Y1756061D01*
X1235939Y1754713D01*
X1235210Y1752953D01*
Y1751047D01*
X1235371Y1750658D01*
Y1726282D01*
X1235210Y1725893D01*
Y1723987D01*
X1235939Y1722227D01*
X1237287Y1720879D01*
X1239047Y1720150D01*
X1240953D01*
X1242713Y1720879D01*
X1244061Y1722227D01*
X1244790Y1723987D01*
Y1725893D01*
X1244629Y1726282D01*
Y1750658D01*
X1244790Y1751047D01*
Y1752953D01*
X1244061Y1754713D01*
X1242713Y1756061D01*
X1240953Y1756790D01*
D02*
G37*
G36*
X1178595Y1729280D02*
X1176205D01*
X1173895Y1728661D01*
X1171825Y1727466D01*
X1170134Y1725775D01*
X1168939Y1723705D01*
X1168320Y1721395D01*
Y1719005D01*
X1168939Y1716695D01*
X1170134Y1714625D01*
X1171825Y1712934D01*
X1173895Y1711739D01*
X1176205Y1711120D01*
X1178595D01*
X1180905Y1711739D01*
X1182975Y1712934D01*
X1183701Y1713660D01*
X1209040D01*
Y1726740D01*
X1183701D01*
X1182975Y1727466D01*
X1180905Y1728661D01*
X1178595Y1729280D01*
D02*
G37*
G36*
X1026195Y1703880D02*
X1023805D01*
X1021495Y1703261D01*
X1019425Y1702066D01*
X1018699Y1701340D01*
X993460D01*
Y1688260D01*
X1018699D01*
X1019425Y1687534D01*
X1021495Y1686339D01*
X1023805Y1685720D01*
X1026195D01*
X1028505Y1686339D01*
X1030575Y1687534D01*
X1032266Y1689225D01*
X1033461Y1691295D01*
X1034080Y1693605D01*
Y1695995D01*
X1033461Y1698305D01*
X1032266Y1700375D01*
X1030575Y1702066D01*
X1028505Y1703261D01*
X1026195Y1703880D01*
D02*
G37*
G36*
X1342267Y1740885D02*
X1312000D01*
X1310513Y1740589D01*
X1309253Y1739747D01*
X1228253Y1658747D01*
X1227411Y1657487D01*
X1227115Y1656000D01*
Y1573609D01*
X1199791Y1546285D01*
X1185642D01*
X1184666Y1547975D01*
X1182975Y1549666D01*
X1180905Y1550861D01*
X1178595Y1551480D01*
X1176205D01*
X1173895Y1550861D01*
X1171825Y1549666D01*
X1171099Y1548940D01*
X1145960D01*
Y1535860D01*
X1171099D01*
X1171825Y1535134D01*
X1173895Y1533939D01*
X1176205Y1533320D01*
X1178595D01*
X1180905Y1533939D01*
X1182975Y1535134D01*
X1184666Y1536825D01*
X1185642Y1538515D01*
X1201400D01*
X1202887Y1538811D01*
X1204147Y1539653D01*
X1233747Y1569253D01*
X1234589Y1570513D01*
X1234885Y1572000D01*
Y1654391D01*
X1313609Y1733115D01*
X1341203D01*
X1448449Y1669549D01*
X1449879Y1669046D01*
X1451392Y1669128D01*
X1457664Y1670731D01*
X1458465Y1670399D01*
X1460370D01*
X1462131Y1671129D01*
X1463478Y1672476D01*
X1464208Y1674237D01*
Y1676142D01*
X1463478Y1677903D01*
X1462131Y1679250D01*
X1460370Y1679980D01*
X1458465D01*
X1456704Y1679250D01*
X1455703Y1678249D01*
X1451026Y1677053D01*
X1344248Y1740342D01*
X1343986Y1740434D01*
X1343754Y1740589D01*
X1343277Y1740684D01*
X1342819Y1740845D01*
X1342541Y1740830D01*
X1342267Y1740885D01*
D02*
G37*
G36*
X1178595Y1678480D02*
X1176205D01*
X1173895Y1677861D01*
X1171825Y1676666D01*
X1170134Y1674975D01*
X1168939Y1672905D01*
X1168320Y1670595D01*
Y1668205D01*
X1168939Y1665895D01*
X1170134Y1663825D01*
X1171825Y1662134D01*
X1173895Y1660939D01*
X1176205Y1660320D01*
X1178595D01*
X1180905Y1660939D01*
X1182975Y1662134D01*
X1183701Y1662860D01*
X1209040D01*
Y1675940D01*
X1183701D01*
X1182975Y1676666D01*
X1180905Y1677861D01*
X1178595Y1678480D01*
D02*
G37*
G36*
X1026195Y1653080D02*
X1023805D01*
X1021495Y1652461D01*
X1019425Y1651266D01*
X1018699Y1650540D01*
X993460D01*
Y1637460D01*
X1018699D01*
X1019425Y1636734D01*
X1021495Y1635539D01*
X1023805Y1634920D01*
X1026195D01*
X1028505Y1635539D01*
X1030575Y1636734D01*
X1032266Y1638425D01*
X1033461Y1640495D01*
X1034080Y1642805D01*
Y1645195D01*
X1033461Y1647505D01*
X1032266Y1649575D01*
X1030575Y1651266D01*
X1028505Y1652461D01*
X1026195Y1653080D01*
D02*
G37*
G36*
X681953Y1645790D02*
X680047D01*
X678287Y1645061D01*
X676939Y1643713D01*
X676210Y1641953D01*
Y1640047D01*
X676939Y1638287D01*
X678287Y1636939D01*
X680047Y1636210D01*
X681953D01*
X682546Y1636456D01*
X710342Y1627860D01*
X711549Y1626653D01*
X713310Y1625924D01*
X715215D01*
X716976Y1626653D01*
X718323Y1628000D01*
X719053Y1629761D01*
Y1631667D01*
X718323Y1633427D01*
X716976Y1634774D01*
X715215Y1635504D01*
X713310D01*
X712717Y1635258D01*
X684920Y1643854D01*
X683713Y1645061D01*
X681953Y1645790D01*
D02*
G37*
G36*
X1026195Y1627680D02*
X1023805D01*
X1021495Y1627061D01*
X1019425Y1625866D01*
X1017734Y1624175D01*
X1016539Y1622105D01*
X1015920Y1619795D01*
Y1617405D01*
X1016539Y1615095D01*
X1017734Y1613025D01*
X1019425Y1611334D01*
X1021495Y1610139D01*
X1023805Y1609520D01*
X1026195D01*
X1028505Y1610139D01*
X1030575Y1611334D01*
X1031301Y1612060D01*
X1056540D01*
Y1625140D01*
X1031301D01*
X1030575Y1625866D01*
X1028505Y1627061D01*
X1026195Y1627680D01*
D02*
G37*
G36*
X1320772Y1709885D02*
X1305000D01*
X1303513Y1709589D01*
X1302253Y1708747D01*
X1243253Y1649747D01*
X1242411Y1648487D01*
X1242115Y1647000D01*
Y1552609D01*
X1211580Y1522074D01*
X1209040Y1523126D01*
Y1523540D01*
X1183701D01*
X1182975Y1524266D01*
X1180905Y1525461D01*
X1178595Y1526080D01*
X1176205D01*
X1173895Y1525461D01*
X1171825Y1524266D01*
X1170134Y1522575D01*
X1168939Y1520505D01*
X1168320Y1518195D01*
Y1515805D01*
X1168939Y1513495D01*
X1170134Y1511425D01*
X1171825Y1509734D01*
X1173895Y1508539D01*
X1176205Y1507920D01*
X1178595D01*
X1180905Y1508539D01*
X1182975Y1509734D01*
X1183701Y1510460D01*
X1209040D01*
Y1513115D01*
X1212000D01*
X1213487Y1513411D01*
X1214747Y1514253D01*
X1248747Y1548253D01*
X1249589Y1549513D01*
X1249885Y1551000D01*
Y1645391D01*
X1306609Y1702115D01*
X1313275D01*
X1314281Y1699575D01*
X1258227Y1646927D01*
X1258203Y1646894D01*
X1258169Y1646871D01*
X1257910Y1646484D01*
X1257640Y1646105D01*
X1257630Y1646065D01*
X1257607Y1646031D01*
X1257517Y1645574D01*
X1257411Y1645121D01*
X1257418Y1645080D01*
X1257410Y1645040D01*
Y1037542D01*
X1257433Y1037429D01*
X1257420Y1037316D01*
X1257531Y1036937D01*
X1257607Y1036550D01*
X1257671Y1036455D01*
X1257703Y1036346D01*
X1257950Y1036038D01*
X1258169Y1035710D01*
X1258264Y1035647D01*
X1258335Y1035558D01*
X1563583Y779425D01*
X1562726Y776885D01*
X1551797D01*
X1253885Y1026863D01*
Y1284000D01*
X1253589Y1285487D01*
X1252747Y1286747D01*
X1197547Y1341947D01*
X1196287Y1342789D01*
X1194800Y1343085D01*
X1185642D01*
X1184666Y1344775D01*
X1182975Y1346466D01*
X1180905Y1347661D01*
X1178595Y1348280D01*
X1176205D01*
X1173895Y1347661D01*
X1171825Y1346466D01*
X1171099Y1345740D01*
X1145960D01*
Y1332660D01*
X1171099D01*
X1171825Y1331934D01*
X1173895Y1330739D01*
X1176205Y1330120D01*
X1178595D01*
X1180905Y1330739D01*
X1182975Y1331934D01*
X1184666Y1333625D01*
X1185642Y1335315D01*
X1193191D01*
X1205820Y1322687D01*
X1204848Y1320340D01*
X1183701D01*
X1182975Y1321066D01*
X1180905Y1322261D01*
X1178595Y1322880D01*
X1176205D01*
X1173895Y1322261D01*
X1171825Y1321066D01*
X1170134Y1319375D01*
X1168939Y1317305D01*
X1168320Y1314995D01*
Y1312605D01*
X1168939Y1310295D01*
X1170134Y1308225D01*
X1171825Y1306534D01*
X1173895Y1305339D01*
X1176205Y1304720D01*
X1178595D01*
X1180905Y1305339D01*
X1182975Y1306534D01*
X1183701Y1307260D01*
X1191246D01*
X1235115Y1263391D01*
Y1014397D01*
X1235115Y1013359D01*
X1235263Y1012619D01*
X1235411Y1011872D01*
X1235411Y1011872D01*
X1235411Y1011872D01*
X1235796Y1011296D01*
X1236253Y1010612D01*
X1237160Y1009705D01*
X1237303Y1009609D01*
X1237410Y1009475D01*
X1535887Y759024D01*
X1536405Y758740D01*
X1536897Y758411D01*
X1537065Y758378D01*
X1537215Y758295D01*
X1537803Y758231D01*
X1538383Y758115D01*
X1679000D01*
X1680487Y758411D01*
X1681747Y759253D01*
X1691183Y768690D01*
X1693813Y767728D01*
X1693846Y767340D01*
X1681391Y754885D01*
X1528838D01*
X1231885Y1001396D01*
X1231885Y1239000D01*
Y1250888D01*
X1231589Y1252375D01*
X1230747Y1253635D01*
X1193235Y1291147D01*
X1191975Y1291989D01*
X1190488Y1292285D01*
X1185642D01*
X1184666Y1293975D01*
X1182975Y1295666D01*
X1180905Y1296861D01*
X1178595Y1297480D01*
X1176205D01*
X1173895Y1296861D01*
X1171825Y1295666D01*
X1171099Y1294940D01*
X1145960D01*
Y1281860D01*
X1171099D01*
X1171825Y1281134D01*
X1173895Y1279939D01*
X1176205Y1279320D01*
X1178595D01*
X1180905Y1279939D01*
X1182975Y1281134D01*
X1184666Y1282825D01*
X1185642Y1284515D01*
X1188879D01*
X1201508Y1271887D01*
X1200536Y1269540D01*
X1183701D01*
X1182975Y1270266D01*
X1180905Y1271461D01*
X1178595Y1272080D01*
X1176205D01*
X1173895Y1271461D01*
X1171825Y1270266D01*
X1170134Y1268575D01*
X1168939Y1266505D01*
X1168320Y1264195D01*
Y1261805D01*
X1168939Y1259495D01*
X1170134Y1257425D01*
X1171825Y1255734D01*
X1173895Y1254539D01*
X1176205Y1253920D01*
X1178595D01*
X1180905Y1254539D01*
X1180945Y1254562D01*
X1212115Y1223391D01*
Y992070D01*
X1212115Y991032D01*
X1212262Y990293D01*
X1212411Y989546D01*
X1212411Y989546D01*
X1212411Y989546D01*
X1212796Y988969D01*
X1213253Y988286D01*
X1214166Y987372D01*
X1214314Y987274D01*
X1214425Y987136D01*
X1588102Y675474D01*
X1589433Y674749D01*
X1590940Y674588D01*
X1631924Y678297D01*
X1633515Y677638D01*
X1635421D01*
X1637182Y678367D01*
X1638529Y679714D01*
X1639258Y681475D01*
Y683381D01*
X1638529Y685141D01*
X1637182Y686488D01*
X1635421Y687218D01*
X1633515D01*
X1631755Y686488D01*
X1631309Y686042D01*
X1591842Y682471D01*
X1219885Y992699D01*
Y1225000D01*
X1219589Y1226487D01*
X1218747Y1227747D01*
X1192380Y1254113D01*
X1193352Y1256460D01*
X1209040D01*
Y1261036D01*
X1211387Y1262008D01*
X1224115Y1249279D01*
Y1239050D01*
X1224115Y999580D01*
X1224145Y999431D01*
X1224123Y999221D01*
X1224316Y998573D01*
X1224411Y998093D01*
X1224496Y997966D01*
X1224555Y997768D01*
X1224972Y997254D01*
X1225253Y996833D01*
X1225385Y996745D01*
X1225510Y996591D01*
X1524954Y748011D01*
X1525466Y747734D01*
X1525949Y747411D01*
X1526127Y747376D01*
X1526287Y747289D01*
X1526865Y747229D01*
X1527436Y747115D01*
X1683000D01*
X1684487Y747411D01*
X1685747Y748253D01*
X1701247Y763753D01*
X1701277Y763798D01*
X1701322Y763830D01*
X1701697Y764427D01*
X1702089Y765013D01*
X1702100Y765067D01*
X1702128Y765113D01*
X1731449Y841810D01*
X1731576Y841862D01*
X1732923Y843210D01*
X1733652Y844970D01*
Y846876D01*
X1732923Y848636D01*
X1731576Y849984D01*
X1729815Y850713D01*
X1727910D01*
X1726374Y850077D01*
X1725602Y850477D01*
X1724260Y851687D01*
X1770646Y977761D01*
X1770752Y978434D01*
X1770885Y979102D01*
Y1112189D01*
X1777541Y1118846D01*
X1777790D01*
X1779551Y1119575D01*
X1780898Y1120922D01*
X1781627Y1122683D01*
Y1124588D01*
X1780898Y1126349D01*
X1779551Y1127696D01*
X1777790Y1128426D01*
X1775885D01*
X1774124Y1127696D01*
X1772777Y1126349D01*
X1772047Y1124588D01*
Y1124339D01*
X1764253Y1116545D01*
X1763411Y1115285D01*
X1763115Y1113798D01*
Y979794D01*
X1702275Y814434D01*
X1699887Y815300D01*
X1741658Y932116D01*
X1741755Y932773D01*
X1741885Y933424D01*
Y1182356D01*
X1744047Y1184210D01*
X1745953D01*
X1747713Y1184939D01*
X1748068Y1185294D01*
X1775282Y1186944D01*
X1775287Y1186939D01*
X1777047Y1186210D01*
X1778953D01*
X1780713Y1186939D01*
X1782061Y1188287D01*
X1782790Y1190047D01*
Y1191953D01*
X1782061Y1193713D01*
X1780713Y1195061D01*
X1778953Y1195790D01*
X1777047D01*
X1775287Y1195061D01*
X1774932Y1194706D01*
X1747718Y1193056D01*
X1747713Y1193061D01*
X1745953Y1193790D01*
X1744047D01*
X1741885Y1195643D01*
Y1300928D01*
X1745758Y1304801D01*
X1746007D01*
X1747767Y1305530D01*
X1749115Y1306878D01*
X1749844Y1308638D01*
Y1310544D01*
X1749115Y1312304D01*
X1747767Y1313652D01*
X1746007Y1314381D01*
X1744101D01*
X1742341Y1313652D01*
X1740993Y1312304D01*
X1740264Y1310544D01*
Y1310295D01*
X1735253Y1305284D01*
X1734411Y1304023D01*
X1734115Y1302537D01*
Y934097D01*
X1682739Y790418D01*
X1682712Y790412D01*
X1682712D01*
X1682681Y790336D01*
X1681099Y788514D01*
X1669885Y776885D01*
X1655998D01*
X1655348Y777890D01*
X1654894Y779425D01*
X1654929Y779483D01*
X1655179Y779857D01*
X1655190Y779914D01*
X1655220Y779963D01*
X1670132Y820931D01*
X1670151Y821059D01*
X1670207Y821175D01*
X1670227Y821554D01*
X1670285Y821930D01*
X1670255Y822055D01*
X1670262Y822184D01*
X1670135Y822542D01*
X1670045Y822911D01*
X1669969Y823015D01*
X1669926Y823137D01*
X1669672Y823420D01*
X1669447Y823726D01*
X1669337Y823793D01*
X1669251Y823889D01*
X1595534Y879118D01*
X1621618Y950784D01*
X1715581D01*
X1715637Y950795D01*
X1715694Y950786D01*
X1716131Y950893D01*
X1716572Y950981D01*
X1716620Y951013D01*
X1716675Y951027D01*
X1717038Y951292D01*
X1717412Y951542D01*
X1717444Y951590D01*
X1717490Y951624D01*
X1717723Y952008D01*
X1717973Y952383D01*
X1717984Y952439D01*
X1718014Y952488D01*
X1731039Y988274D01*
X1731108Y988719D01*
X1731196Y989160D01*
Y1210840D01*
X1731108Y1211281D01*
X1731039Y1211726D01*
X1655220Y1420037D01*
X1654987Y1420422D01*
X1654771Y1420816D01*
X1516993Y1585013D01*
X1518651Y1586988D01*
X1587797Y1546970D01*
X1588479Y1546738D01*
X1589154Y1546492D01*
X1589194Y1546494D01*
X1589232Y1546481D01*
X1589950Y1546527D01*
X1590669Y1546559D01*
X1602241Y1549397D01*
X1603085Y1549048D01*
X1604991D01*
X1606751Y1549777D01*
X1608099Y1551124D01*
X1608828Y1552885D01*
Y1554790D01*
X1608099Y1556551D01*
X1606751Y1557899D01*
X1604991Y1558628D01*
X1603085D01*
X1601325Y1557899D01*
X1600362Y1556936D01*
X1590336Y1554477D01*
X1519875Y1595257D01*
X1519755Y1597252D01*
X1519932Y1598158D01*
X1520167Y1598393D01*
X1557470Y1601863D01*
X1559047Y1601210D01*
X1560953D01*
X1562713Y1601939D01*
X1564061Y1603287D01*
X1564790Y1605047D01*
Y1606953D01*
X1564061Y1608713D01*
X1562713Y1610061D01*
X1560953Y1610790D01*
X1559047D01*
X1557287Y1610061D01*
X1556833Y1609607D01*
X1519530Y1606137D01*
X1517953Y1606790D01*
X1516047D01*
X1514287Y1606061D01*
X1512939Y1604713D01*
X1512210Y1602953D01*
Y1602628D01*
X1509670Y1601163D01*
X1322718Y1709362D01*
X1322473Y1709445D01*
X1322259Y1709589D01*
X1321762Y1709688D01*
X1321283Y1709851D01*
X1321025Y1709834D01*
X1320772Y1709885D01*
D02*
G37*
G36*
X1026195Y1602280D02*
X1023805D01*
X1021495Y1601661D01*
X1019425Y1600466D01*
X1018699Y1599740D01*
X993460D01*
Y1586660D01*
X1018699D01*
X1019425Y1585934D01*
X1021495Y1584739D01*
X1023805Y1584120D01*
X1026195D01*
X1028505Y1584739D01*
X1030575Y1585934D01*
X1032266Y1587625D01*
X1033461Y1589695D01*
X1034080Y1592005D01*
Y1594395D01*
X1033461Y1596705D01*
X1032266Y1598775D01*
X1030575Y1600466D01*
X1028505Y1601661D01*
X1026195Y1602280D01*
D02*
G37*
G36*
X1195348Y1776437D02*
X1193442D01*
X1191682Y1775708D01*
X1190334Y1774361D01*
X1189605Y1772600D01*
Y1770695D01*
X1190334Y1768934D01*
X1190510Y1768758D01*
Y1752605D01*
X1190806Y1751118D01*
X1191648Y1749858D01*
X1212115Y1729391D01*
Y1582909D01*
X1203546Y1574340D01*
X1183701D01*
X1182975Y1575066D01*
X1180905Y1576261D01*
X1178595Y1576880D01*
X1176205D01*
X1173895Y1576261D01*
X1171825Y1575066D01*
X1170134Y1573375D01*
X1168939Y1571305D01*
X1168320Y1568995D01*
Y1566605D01*
X1168939Y1564295D01*
X1170134Y1562225D01*
X1171825Y1560534D01*
X1173895Y1559339D01*
X1176205Y1558720D01*
X1178595D01*
X1180905Y1559339D01*
X1182975Y1560534D01*
X1183701Y1561260D01*
X1209040D01*
Y1568846D01*
X1218747Y1578553D01*
X1219589Y1579813D01*
X1219885Y1581300D01*
Y1731000D01*
X1219589Y1732487D01*
X1218747Y1733747D01*
X1198279Y1754214D01*
Y1768758D01*
X1198456Y1768934D01*
X1199185Y1770695D01*
Y1772600D01*
X1198456Y1774361D01*
X1197108Y1775708D01*
X1195348Y1776437D01*
D02*
G37*
G36*
X1026195Y1576880D02*
X1023805D01*
X1021495Y1576261D01*
X1019425Y1575066D01*
X1017734Y1573375D01*
X1016539Y1571305D01*
X1015920Y1568995D01*
Y1566605D01*
X1016539Y1564295D01*
X1017734Y1562225D01*
X1019425Y1560534D01*
X1021495Y1559339D01*
X1023805Y1558720D01*
X1026195D01*
X1028505Y1559339D01*
X1030575Y1560534D01*
X1031301Y1561260D01*
X1056540D01*
Y1574340D01*
X1031301D01*
X1030575Y1575066D01*
X1028505Y1576261D01*
X1026195Y1576880D01*
D02*
G37*
G36*
X1117465Y1574680D02*
X1107935D01*
X1103170Y1569915D01*
Y1560385D01*
X1107935Y1555620D01*
X1117465D01*
X1122230Y1560385D01*
Y1569915D01*
X1117465Y1574680D01*
D02*
G37*
G36*
X1088555D02*
X1086045D01*
X1083622Y1574030D01*
X1081448Y1572776D01*
X1079674Y1571001D01*
X1078419Y1568828D01*
X1077770Y1566405D01*
Y1563895D01*
X1078358Y1561702D01*
X1040196Y1523540D01*
X1031301D01*
X1030575Y1524266D01*
X1028505Y1525461D01*
X1026195Y1526080D01*
X1023805D01*
X1021495Y1525461D01*
X1019425Y1524266D01*
X1017734Y1522575D01*
X1016539Y1520505D01*
X1015920Y1518195D01*
Y1515805D01*
X1016539Y1513495D01*
X1017734Y1511425D01*
X1019425Y1509734D01*
X1021495Y1508539D01*
X1023805Y1507920D01*
X1026195D01*
X1028505Y1508539D01*
X1030575Y1509734D01*
X1031301Y1510460D01*
X1051648D01*
X1052620Y1508113D01*
X1039991Y1495485D01*
X1033242D01*
X1032266Y1497175D01*
X1030575Y1498866D01*
X1028505Y1500061D01*
X1026195Y1500680D01*
X1023805D01*
X1021495Y1500061D01*
X1019425Y1498866D01*
X1018699Y1498140D01*
X993460D01*
Y1485060D01*
X1018699D01*
X1019425Y1484334D01*
X1021495Y1483139D01*
X1023805Y1482520D01*
X1026195D01*
X1028505Y1483139D01*
X1030575Y1484334D01*
X1032266Y1486025D01*
X1033242Y1487715D01*
X1041600D01*
X1043087Y1488011D01*
X1044347Y1488853D01*
X1085784Y1530290D01*
X1086045Y1530220D01*
X1088555D01*
X1090978Y1530869D01*
X1093152Y1532124D01*
X1094926Y1533898D01*
X1096180Y1536071D01*
X1096830Y1538495D01*
Y1541005D01*
X1096180Y1543428D01*
X1094926Y1545602D01*
X1093152Y1547376D01*
X1090978Y1548631D01*
X1088555Y1549280D01*
X1086045D01*
X1083622Y1548631D01*
X1081448Y1547376D01*
X1079674Y1545602D01*
X1078419Y1543428D01*
X1077770Y1541005D01*
Y1538495D01*
X1078419Y1536071D01*
X1079209Y1534703D01*
X1058887Y1514380D01*
X1056540Y1515352D01*
Y1523540D01*
X1054502D01*
X1053530Y1525887D01*
X1083851Y1556208D01*
X1086045Y1555620D01*
X1088555D01*
X1090978Y1556269D01*
X1093152Y1557524D01*
X1094926Y1559298D01*
X1096180Y1561472D01*
X1096830Y1563895D01*
Y1566405D01*
X1096180Y1568828D01*
X1094926Y1571001D01*
X1093152Y1572776D01*
X1090978Y1574030D01*
X1088555Y1574680D01*
D02*
G37*
G36*
X1026195Y1551480D02*
X1023805D01*
X1021495Y1550861D01*
X1019425Y1549666D01*
X1018699Y1548940D01*
X993460D01*
Y1535860D01*
X1018699D01*
X1019425Y1535134D01*
X1021495Y1533939D01*
X1023805Y1533320D01*
X1026195D01*
X1028505Y1533939D01*
X1030575Y1535134D01*
X1032266Y1536825D01*
X1033461Y1538895D01*
X1034080Y1541205D01*
Y1543595D01*
X1033461Y1545905D01*
X1032266Y1547975D01*
X1030575Y1549666D01*
X1028505Y1550861D01*
X1026195Y1551480D01*
D02*
G37*
G36*
X1113955Y1523880D02*
X1111445D01*
X1109022Y1523230D01*
X1106848Y1521976D01*
X1105074Y1520202D01*
X1104662Y1519489D01*
X1095338D01*
X1094926Y1520202D01*
X1093152Y1521976D01*
X1090978Y1523230D01*
X1088555Y1523880D01*
X1086045D01*
X1083622Y1523230D01*
X1081448Y1521976D01*
X1079674Y1520202D01*
X1078419Y1518028D01*
X1077770Y1515605D01*
Y1513095D01*
X1078419Y1510672D01*
X1079674Y1508498D01*
X1081448Y1506724D01*
X1083622Y1505469D01*
X1086045Y1504820D01*
X1088555D01*
X1090978Y1505469D01*
X1093152Y1506724D01*
X1094926Y1508498D01*
X1095338Y1509211D01*
X1104662D01*
X1105074Y1508498D01*
X1106848Y1506724D01*
X1109022Y1505469D01*
X1111445Y1504820D01*
X1113955D01*
X1116378Y1505469D01*
X1118552Y1506724D01*
X1120326Y1508498D01*
X1121581Y1510672D01*
X1122230Y1513095D01*
Y1515605D01*
X1121581Y1518028D01*
X1120326Y1520202D01*
X1118552Y1521976D01*
X1116378Y1523230D01*
X1113955Y1523880D01*
D02*
G37*
G36*
X1178595Y1500680D02*
X1176205D01*
X1173895Y1500061D01*
X1171825Y1498866D01*
X1171099Y1498140D01*
X1145960D01*
Y1489454D01*
X1066253Y1409747D01*
X1065411Y1408487D01*
X1065115Y1407000D01*
Y1154609D01*
X1031367Y1120861D01*
X1028885Y1121971D01*
Y1127758D01*
X1030575Y1128734D01*
X1032266Y1130425D01*
X1033461Y1132495D01*
X1034080Y1134805D01*
Y1137195D01*
X1033461Y1139505D01*
X1032266Y1141575D01*
X1030575Y1143266D01*
X1028505Y1144461D01*
X1026195Y1145080D01*
X1023805D01*
X1021495Y1144461D01*
X1019425Y1143266D01*
X1018699Y1142540D01*
X993460D01*
Y1129460D01*
X1018699D01*
X1019425Y1128734D01*
X1021115Y1127758D01*
Y1122609D01*
X992253Y1093747D01*
X991411Y1092487D01*
X991115Y1091000D01*
Y996580D01*
X634417Y698139D01*
X634308Y698003D01*
X634163Y697907D01*
X633253Y696997D01*
X632719Y696197D01*
X632411Y695736D01*
X632411Y695736D01*
X632411Y695736D01*
X632276Y695057D01*
X632115Y694250D01*
X632115Y693212D01*
Y552921D01*
X632115Y551995D01*
X632253Y551305D01*
X632411Y550508D01*
X632411Y550508D01*
X632411Y550508D01*
X632834Y549875D01*
X633253Y549248D01*
X634530Y547971D01*
X634958Y547685D01*
X635346Y547347D01*
X737818Y488627D01*
Y265047D01*
X738114Y263561D01*
X738956Y262300D01*
X740220Y261036D01*
Y252235D01*
X744985Y247470D01*
X754515D01*
X759280Y252235D01*
Y261765D01*
X754515Y266530D01*
X745714D01*
X745587Y266656D01*
Y489406D01*
X745587Y490333D01*
X745391Y491321D01*
X745292Y491819D01*
X745292Y491819D01*
X745292Y491819D01*
X744868Y492453D01*
X744450Y493080D01*
X743173Y494357D01*
X742745Y494643D01*
X742357Y494981D01*
X639885Y553701D01*
Y692583D01*
X997493Y991786D01*
X997602Y991921D01*
X997747Y992018D01*
X998074Y992508D01*
X998443Y992966D01*
X998492Y993134D01*
X998589Y993279D01*
X998704Y993856D01*
X998869Y994421D01*
X998851Y994594D01*
X998885Y994765D01*
Y1089391D01*
X1001633Y1092139D01*
X1004115Y1091030D01*
Y988149D01*
X648502Y689553D01*
X648395Y689419D01*
X648253Y689324D01*
X647924Y688832D01*
X647554Y688370D01*
X647506Y688206D01*
X647411Y688064D01*
X647296Y687483D01*
X647130Y686915D01*
X647149Y686745D01*
X647115Y686578D01*
Y564136D01*
X647215Y563637D01*
X647248Y563130D01*
X647361Y562900D01*
X647411Y562649D01*
X647693Y562226D01*
X647918Y561771D01*
X648111Y561602D01*
X648253Y561389D01*
X648676Y561106D01*
X649058Y560771D01*
X765036Y493811D01*
X766471Y493324D01*
X767984Y493423D01*
X779998Y496642D01*
X780750Y496331D01*
X782656D01*
X784416Y497060D01*
X785764Y498408D01*
X786493Y500168D01*
Y502074D01*
X785764Y503834D01*
X784416Y505182D01*
X782656Y505911D01*
X780750D01*
X778990Y505182D01*
X777943Y504135D01*
X767527Y501344D01*
X654885Y566378D01*
Y684767D01*
X1010498Y983363D01*
X1010575Y983459D01*
X1010705Y983473D01*
X1011383Y983315D01*
X1013115Y982564D01*
Y976284D01*
X673513Y693346D01*
X673401Y693207D01*
X673253Y693109D01*
X672928Y692622D01*
X672561Y692167D01*
X672510Y691997D01*
X672411Y691848D01*
X672297Y691275D01*
X672131Y690714D01*
X672150Y690536D01*
X672115Y690362D01*
Y599838D01*
X672214Y599345D01*
X672245Y598843D01*
X672360Y598608D01*
X672411Y598352D01*
X672691Y597933D01*
X672912Y597481D01*
X673108Y597309D01*
X673253Y597091D01*
X673671Y596812D01*
X674049Y596479D01*
X829829Y505997D01*
X830118Y502892D01*
X829939Y502713D01*
X829210Y500953D01*
Y499047D01*
X829939Y497287D01*
X830115Y497111D01*
Y473000D01*
X830411Y471513D01*
X831253Y470253D01*
X836210Y465296D01*
Y465047D01*
X836939Y463287D01*
X838287Y461939D01*
X840047Y461210D01*
X841953D01*
X843713Y461939D01*
X845061Y463287D01*
X845790Y465047D01*
Y466953D01*
X845061Y468713D01*
X843713Y470061D01*
X841953Y470790D01*
X841704D01*
X837885Y474609D01*
Y497111D01*
X838061Y497287D01*
X838392Y498086D01*
X841137Y499429D01*
X954399Y433643D01*
X954715Y432880D01*
X956062Y431533D01*
X957823Y430803D01*
X959729D01*
X961489Y431533D01*
X962837Y432880D01*
X963566Y434641D01*
Y436546D01*
X962837Y438307D01*
X961489Y439654D01*
X959729Y440383D01*
X958263D01*
X679885Y602074D01*
Y688542D01*
X1019487Y971480D01*
X1019575Y971590D01*
X1019684Y971601D01*
X1021146Y971300D01*
X1022119Y970814D01*
X1022180Y970772D01*
X1022411Y969613D01*
X1023253Y968353D01*
X1039183Y952424D01*
X1038960Y951593D01*
Y949607D01*
X1039474Y947690D01*
X1040467Y945970D01*
X1041870Y944566D01*
X1043590Y943574D01*
X1045507Y943060D01*
X1045573D01*
X1046337Y941700D01*
X1045617Y940419D01*
X1045507Y940340D01*
X1043590Y939826D01*
X1041870Y938833D01*
X1040467Y937430D01*
X1039474Y935710D01*
X1038960Y933793D01*
Y931807D01*
X1039474Y929890D01*
X1040467Y928170D01*
X1041870Y926767D01*
X1043590Y925774D01*
X1045507Y925260D01*
X1047493D01*
X1049110Y924019D01*
Y917000D01*
X1049307Y916009D01*
X1049869Y915169D01*
X1050709Y914607D01*
X1051700Y914410D01*
X1148200D01*
X1149191Y914607D01*
X1150031Y915169D01*
X1150593Y916009D01*
X1150790Y917000D01*
X1150790Y950132D01*
X1153330Y951960D01*
X1154493D01*
X1156410Y952474D01*
X1158130Y953466D01*
X1159533Y954870D01*
X1160526Y956590D01*
X1161040Y958507D01*
Y960493D01*
X1160526Y962410D01*
X1159533Y964130D01*
X1158130Y965534D01*
X1156410Y966526D01*
X1154493Y967040D01*
X1153899D01*
X1153841Y967220D01*
X1153997Y967830D01*
X1155595Y970055D01*
X1156410Y970274D01*
X1158130Y971266D01*
X1159533Y972670D01*
X1160526Y974390D01*
X1161040Y976307D01*
Y978293D01*
X1160526Y980210D01*
X1159533Y981930D01*
X1158130Y983334D01*
X1156410Y984326D01*
X1154493Y984840D01*
X1153899D01*
X1153841Y985020D01*
X1153997Y985630D01*
X1155595Y987856D01*
X1156410Y988074D01*
X1158130Y989066D01*
X1159533Y990470D01*
X1160526Y992190D01*
X1161040Y994107D01*
Y996093D01*
X1160526Y998010D01*
X1159533Y999730D01*
X1158130Y1001134D01*
X1156410Y1002126D01*
X1154493Y1002640D01*
X1153899D01*
X1153841Y1002820D01*
X1153997Y1003430D01*
X1155595Y1005656D01*
X1156410Y1005874D01*
X1158130Y1006867D01*
X1159533Y1008270D01*
X1160526Y1009990D01*
X1161040Y1011907D01*
Y1013893D01*
X1160526Y1015810D01*
X1159533Y1017530D01*
X1158130Y1018933D01*
X1156410Y1019926D01*
X1154493Y1020440D01*
X1152507D01*
X1150790Y1021758D01*
Y1039131D01*
X1153330Y1040960D01*
X1154493D01*
X1156410Y1041474D01*
X1158130Y1042467D01*
X1159533Y1043870D01*
X1160526Y1045590D01*
X1161040Y1047507D01*
Y1049493D01*
X1160526Y1051410D01*
X1159533Y1053130D01*
X1158130Y1054533D01*
X1156410Y1055526D01*
X1154861Y1055941D01*
X1154297Y1056390D01*
X1153074Y1058580D01*
X1153135Y1058760D01*
X1161040D01*
Y1073840D01*
X1150790D01*
Y1081000D01*
X1150593Y1081991D01*
X1150031Y1082831D01*
X1149191Y1083393D01*
X1148200Y1083590D01*
X1051700Y1083590D01*
X1050709Y1083393D01*
X1049869Y1082831D01*
X1049307Y1081991D01*
X1049110Y1081000D01*
Y1065681D01*
X1047493Y1064440D01*
X1045507D01*
X1043590Y1063926D01*
X1041870Y1062933D01*
X1040467Y1061530D01*
X1039474Y1059810D01*
X1038960Y1057893D01*
Y1055907D01*
X1039474Y1053990D01*
X1040467Y1052270D01*
X1041870Y1050866D01*
X1043590Y1049874D01*
X1044743Y1049565D01*
Y1046935D01*
X1043590Y1046626D01*
X1041870Y1045633D01*
X1040467Y1044230D01*
X1039474Y1042510D01*
X1038960Y1040593D01*
Y1038607D01*
X1039474Y1036690D01*
X1040467Y1034970D01*
X1041870Y1033566D01*
X1043590Y1032574D01*
X1045507Y1032060D01*
X1045573D01*
X1046337Y1030700D01*
X1045617Y1029419D01*
X1045507Y1029340D01*
X1043590Y1028826D01*
X1041870Y1027833D01*
X1040467Y1026430D01*
X1039474Y1024710D01*
X1038960Y1022793D01*
Y1020807D01*
X1039474Y1018890D01*
X1040467Y1017170D01*
X1041870Y1015766D01*
X1043590Y1014774D01*
X1045507Y1014260D01*
X1045573D01*
X1046337Y1012900D01*
X1045617Y1011619D01*
X1045507Y1011540D01*
X1043590Y1011026D01*
X1041870Y1010033D01*
X1040467Y1008630D01*
X1039474Y1006910D01*
X1038960Y1004993D01*
Y1003007D01*
X1039474Y1001090D01*
X1040467Y999370D01*
X1041870Y997966D01*
X1043590Y996974D01*
X1045507Y996460D01*
X1045573D01*
X1046337Y995100D01*
X1045617Y993820D01*
X1045507Y993740D01*
X1043590Y993226D01*
X1041870Y992234D01*
X1040467Y990830D01*
X1039474Y989110D01*
X1038960Y987193D01*
Y985207D01*
X1039474Y983290D01*
X1040467Y981570D01*
X1041870Y980166D01*
X1043590Y979174D01*
X1045507Y978660D01*
X1045573D01*
X1046337Y977300D01*
X1045617Y976020D01*
X1045507Y975940D01*
X1043590Y975426D01*
X1041870Y974434D01*
X1040467Y973030D01*
X1039474Y971310D01*
X1038960Y969393D01*
Y967407D01*
X1039026Y967159D01*
X1036749Y965845D01*
X1029885Y972709D01*
Y1066391D01*
X1104747Y1141253D01*
X1105589Y1142513D01*
X1105885Y1144000D01*
Y1366111D01*
X1106061Y1366287D01*
X1106790Y1368047D01*
Y1369953D01*
X1106061Y1371713D01*
X1104713Y1373061D01*
X1102953Y1373790D01*
X1101047D01*
X1099287Y1373061D01*
X1097939Y1371713D01*
X1097210Y1369953D01*
Y1368047D01*
X1097939Y1366287D01*
X1098115Y1366111D01*
Y1145609D01*
X1023425Y1070918D01*
X1022698Y1070988D01*
X1020885Y1071774D01*
Y1075391D01*
X1088747Y1143253D01*
X1089589Y1144513D01*
X1089885Y1146000D01*
Y1389391D01*
X1143613Y1443120D01*
X1145960Y1442148D01*
Y1434260D01*
X1147448D01*
X1148420Y1431913D01*
X1116253Y1399747D01*
X1115411Y1398487D01*
X1115115Y1397000D01*
Y1135000D01*
X1115411Y1133513D01*
X1116253Y1132253D01*
X1188115Y1060391D01*
Y972235D01*
X1188149Y972067D01*
X1188130Y971896D01*
X1188296Y971328D01*
X1188411Y970748D01*
X1188506Y970606D01*
X1188554Y970441D01*
X1188924Y969980D01*
X1189253Y969488D01*
X1189396Y969393D01*
X1189503Y969259D01*
X1521115Y691003D01*
Y611956D01*
X1514354Y608043D01*
X1514249Y608107D01*
X1512686Y610041D01*
X1512719Y610208D01*
X1512795Y610361D01*
X1512817Y610699D01*
X1512883Y611031D01*
Y683926D01*
X1512861Y684038D01*
X1512873Y684151D01*
X1512763Y684530D01*
X1512686Y684917D01*
X1512623Y685012D01*
X1512590Y685122D01*
X1512344Y685429D01*
X1512125Y685757D01*
X1512030Y685820D01*
X1511958Y685910D01*
X1261665Y895930D01*
X1261319Y896120D01*
X1260991Y896339D01*
X1260879Y896362D01*
X1260779Y896417D01*
X1260387Y896460D01*
X1260000Y896536D01*
X940000D01*
X939613Y896460D01*
X939221Y896417D01*
X939121Y896362D01*
X939009Y896339D01*
X938681Y896120D01*
X938335Y895930D01*
X688042Y685910D01*
X687971Y685820D01*
X687876Y685757D01*
X687656Y685429D01*
X687410Y685122D01*
X687378Y685012D01*
X687314Y684917D01*
X687237Y684530D01*
X687127Y684151D01*
X687139Y684038D01*
X687117Y683926D01*
Y611031D01*
X687183Y610699D01*
X687205Y610361D01*
X687281Y610208D01*
X687314Y610040D01*
X687502Y609759D01*
X687652Y609455D01*
X687781Y609342D01*
X687876Y609200D01*
X688157Y609012D01*
X688412Y608789D01*
X880393Y497948D01*
X880818Y497804D01*
X881238Y497641D01*
X1099550Y459146D01*
X1100000Y459156D01*
X1100450Y459146D01*
X1318762Y497641D01*
X1319456Y495279D01*
X1241860Y450382D01*
X1240721Y449382D01*
X1240052Y448022D01*
X1237998Y440327D01*
X1236955Y439285D01*
X1236226Y437524D01*
Y435619D01*
X1236955Y433858D01*
X1238303Y432511D01*
X1240063Y431782D01*
X1241969D01*
X1243729Y432511D01*
X1245077Y433858D01*
X1245806Y435619D01*
Y437524D01*
X1245493Y438280D01*
X1247143Y444463D01*
X1526945Y606353D01*
X1527326Y606687D01*
X1527747Y606968D01*
X1527890Y607183D01*
X1528084Y607353D01*
X1528308Y607808D01*
X1528589Y608229D01*
X1528639Y608482D01*
X1528753Y608713D01*
X1528786Y609218D01*
X1528885Y609715D01*
Y692815D01*
X1528851Y692983D01*
X1528870Y693154D01*
X1528704Y693721D01*
X1528589Y694302D01*
X1528494Y694444D01*
X1528446Y694609D01*
X1528076Y695070D01*
X1527747Y695562D01*
X1527604Y695657D01*
X1527497Y695791D01*
X1195885Y974046D01*
Y1062000D01*
X1195589Y1063487D01*
X1194747Y1064747D01*
X1122885Y1136609D01*
Y1395391D01*
X1161754Y1434260D01*
X1171099D01*
X1171825Y1433534D01*
X1173895Y1432339D01*
X1176205Y1431720D01*
X1178595D01*
X1180905Y1432339D01*
X1182975Y1433534D01*
X1184666Y1435225D01*
X1185861Y1437295D01*
X1186480Y1439605D01*
Y1441995D01*
X1185861Y1444305D01*
X1184666Y1446375D01*
X1182975Y1448066D01*
X1180905Y1449261D01*
X1178595Y1449880D01*
X1176205D01*
X1173895Y1449261D01*
X1171825Y1448066D01*
X1171099Y1447340D01*
X1151152D01*
X1150180Y1449687D01*
X1162809Y1462315D01*
X1169158D01*
X1170134Y1460625D01*
X1171825Y1458934D01*
X1173895Y1457739D01*
X1176205Y1457120D01*
X1178595D01*
X1180905Y1457739D01*
X1182975Y1458934D01*
X1183701Y1459660D01*
X1209040D01*
Y1472740D01*
X1183701D01*
X1182975Y1473466D01*
X1180905Y1474661D01*
X1178595Y1475280D01*
X1176205D01*
X1173895Y1474661D01*
X1171825Y1473466D01*
X1170134Y1471775D01*
X1169158Y1470085D01*
X1161200D01*
X1159713Y1469789D01*
X1158453Y1468947D01*
X1083253Y1393747D01*
X1082411Y1392487D01*
X1082115Y1391000D01*
Y1147609D01*
X1014425Y1079918D01*
X1013698Y1079988D01*
X1011885Y1080774D01*
Y1090391D01*
X1071747Y1150253D01*
X1072589Y1151513D01*
X1072885Y1153000D01*
Y1405391D01*
X1152517Y1485023D01*
X1152542Y1485060D01*
X1171099D01*
X1171825Y1484334D01*
X1173895Y1483139D01*
X1176205Y1482520D01*
X1178595D01*
X1180905Y1483139D01*
X1182975Y1484334D01*
X1184666Y1486025D01*
X1185861Y1488095D01*
X1186480Y1490405D01*
Y1492795D01*
X1185861Y1495105D01*
X1184666Y1497175D01*
X1182975Y1498866D01*
X1180905Y1500061D01*
X1178595Y1500680D01*
D02*
G37*
G36*
X1026195Y1475280D02*
X1023805D01*
X1021495Y1474661D01*
X1019425Y1473466D01*
X1017734Y1471775D01*
X1016539Y1469705D01*
X1015920Y1467395D01*
Y1465005D01*
X1016539Y1462695D01*
X1017734Y1460625D01*
X1019425Y1458934D01*
X1021495Y1457739D01*
X1023805Y1457120D01*
X1026195D01*
X1028505Y1457739D01*
X1030575Y1458934D01*
X1031301Y1459660D01*
X1056540D01*
Y1472740D01*
X1031301D01*
X1030575Y1473466D01*
X1028505Y1474661D01*
X1026195Y1475280D01*
D02*
G37*
G36*
Y1449880D02*
X1023805D01*
X1021495Y1449261D01*
X1019425Y1448066D01*
X1018699Y1447340D01*
X993460D01*
Y1434260D01*
X1018699D01*
X1019425Y1433534D01*
X1021495Y1432339D01*
X1023805Y1431720D01*
X1026195D01*
X1028505Y1432339D01*
X1030575Y1433534D01*
X1032266Y1435225D01*
X1033461Y1437295D01*
X1034080Y1439605D01*
Y1441995D01*
X1033461Y1444305D01*
X1032266Y1446375D01*
X1030575Y1448066D01*
X1028505Y1449261D01*
X1026195Y1449880D01*
D02*
G37*
G36*
Y1424480D02*
X1023805D01*
X1021495Y1423861D01*
X1019425Y1422666D01*
X1017734Y1420975D01*
X1016539Y1418905D01*
X1015920Y1416595D01*
Y1414205D01*
X1016539Y1411895D01*
X1017734Y1409825D01*
X1019425Y1408134D01*
X1021495Y1406939D01*
X1023805Y1406320D01*
X1026195D01*
X1028505Y1406939D01*
X1030575Y1408134D01*
X1031301Y1408860D01*
X1056540D01*
Y1421940D01*
X1031301D01*
X1030575Y1422666D01*
X1028505Y1423861D01*
X1026195Y1424480D01*
D02*
G37*
G36*
Y1399080D02*
X1023805D01*
X1021495Y1398461D01*
X1019425Y1397266D01*
X1018699Y1396540D01*
X993460D01*
Y1383460D01*
X1018699D01*
X1019425Y1382734D01*
X1021495Y1381539D01*
X1023805Y1380920D01*
X1026195D01*
X1028505Y1381539D01*
X1030575Y1382734D01*
X1032266Y1384425D01*
X1033461Y1386495D01*
X1034080Y1388805D01*
Y1391195D01*
X1033461Y1393505D01*
X1032266Y1395575D01*
X1030575Y1397266D01*
X1028505Y1398461D01*
X1026195Y1399080D01*
D02*
G37*
G36*
Y1373680D02*
X1023805D01*
X1021495Y1373061D01*
X1019425Y1371866D01*
X1017734Y1370175D01*
X1016539Y1368105D01*
X1015920Y1365795D01*
Y1363405D01*
X1016539Y1361095D01*
X1017734Y1359025D01*
X1019425Y1357334D01*
X1021495Y1356139D01*
X1023805Y1355520D01*
X1026195D01*
X1028505Y1356139D01*
X1030575Y1357334D01*
X1031301Y1358060D01*
X1056540D01*
Y1371140D01*
X1031301D01*
X1030575Y1371866D01*
X1028505Y1373061D01*
X1026195Y1373680D01*
D02*
G37*
G36*
Y1322880D02*
X1023805D01*
X1021495Y1322261D01*
X1019425Y1321066D01*
X1017734Y1319375D01*
X1016758Y1317685D01*
X1005800D01*
X1004313Y1317389D01*
X1003053Y1316547D01*
X960253Y1273747D01*
X959411Y1272487D01*
X959115Y1271000D01*
Y1024494D01*
X644957Y760885D01*
X535820D01*
X454885Y983008D01*
Y1095799D01*
X454589Y1097285D01*
X453747Y1098546D01*
X427953Y1124339D01*
Y1124588D01*
X427224Y1126349D01*
X425876Y1127696D01*
X424116Y1128426D01*
X422210D01*
X420450Y1127696D01*
X419102Y1126349D01*
X418373Y1124588D01*
Y1122683D01*
X419102Y1120922D01*
X420450Y1119575D01*
X422210Y1118846D01*
X422459D01*
X447115Y1094190D01*
Y982322D01*
X447247Y981660D01*
X447350Y980992D01*
X529451Y755670D01*
X529496Y755597D01*
X529512Y755513D01*
X529887Y754952D01*
X530238Y754375D01*
X530307Y754324D01*
X530354Y754253D01*
X530916Y753878D01*
X531461Y753479D01*
X531544Y753458D01*
X531615Y753411D01*
X532277Y753279D01*
X532933Y753119D01*
X533018Y753132D01*
X533101Y753115D01*
X646371D01*
X646951Y753231D01*
X647539Y753295D01*
X647690Y753378D01*
X647858Y753411D01*
X648350Y753740D01*
X648868Y754024D01*
X965497Y1019707D01*
X965604Y1019841D01*
X965747Y1019936D01*
X966076Y1020428D01*
X966446Y1020889D01*
X966494Y1021054D01*
X966589Y1021197D01*
X969115Y1020878D01*
Y1013974D01*
X649050Y744885D01*
X528540D01*
X495155Y841110D01*
X495026Y841330D01*
X494959Y841576D01*
X494646Y841978D01*
X494389Y842417D01*
X494185Y842571D01*
X494029Y842773D01*
X493586Y843025D01*
X493180Y843332D01*
X492933Y843396D01*
X492712Y843523D01*
X476081Y849056D01*
X474778Y850359D01*
X473017Y851088D01*
X471112D01*
X469351Y850359D01*
X468004Y849011D01*
X467275Y847251D01*
Y845345D01*
X468004Y843585D01*
X469351Y842237D01*
X471112Y841508D01*
X473017D01*
X473525Y841718D01*
X488443Y836755D01*
X522105Y739727D01*
X522164Y739627D01*
X522187Y739513D01*
X522545Y738977D01*
X522872Y738419D01*
X522964Y738349D01*
X523029Y738253D01*
X523566Y737894D01*
X524081Y737505D01*
X524193Y737475D01*
X524289Y737411D01*
X524922Y737285D01*
X525547Y737122D01*
X525662Y737138D01*
X525776Y737115D01*
X650466D01*
X651048Y737231D01*
X651637Y737296D01*
X651786Y737378D01*
X651952Y737411D01*
X652446Y737741D01*
X652966Y738027D01*
X975500Y1009191D01*
X975606Y1009324D01*
X975747Y1009418D01*
X976077Y1009911D01*
X976448Y1010374D01*
X976495Y1010537D01*
X976589Y1010678D01*
X976705Y1011260D01*
X976870Y1011830D01*
X976852Y1011998D01*
X976885Y1012165D01*
Y1252391D01*
X1006354Y1281860D01*
X1018699D01*
X1019425Y1281134D01*
X1021495Y1279939D01*
X1023805Y1279320D01*
X1026195D01*
X1028505Y1279939D01*
X1030575Y1281134D01*
X1032266Y1282825D01*
X1033461Y1284895D01*
X1034080Y1287205D01*
Y1289595D01*
X1033461Y1291905D01*
X1032266Y1293975D01*
X1030575Y1295666D01*
X1028505Y1296861D01*
X1026195Y1297480D01*
X1023805D01*
X1021495Y1296861D01*
X1019425Y1295666D01*
X1018699Y1294940D01*
X996026D01*
X994974Y1297480D01*
X1007409Y1309915D01*
X1016758D01*
X1017734Y1308225D01*
X1019425Y1306534D01*
X1021495Y1305339D01*
X1023805Y1304720D01*
X1026195D01*
X1028505Y1305339D01*
X1030575Y1306534D01*
X1031301Y1307260D01*
X1056540D01*
Y1320340D01*
X1031301D01*
X1030575Y1321066D01*
X1028505Y1322261D01*
X1026195Y1322880D01*
D02*
G37*
G36*
Y1272080D02*
X1023805D01*
X1021495Y1271461D01*
X1019425Y1270266D01*
X1017734Y1268575D01*
X1016758Y1266885D01*
X1002000D01*
X1000513Y1266589D01*
X999253Y1265747D01*
X981253Y1247747D01*
X980411Y1246487D01*
X980115Y1245000D01*
Y1005576D01*
X598954Y686925D01*
X569226D01*
X569050Y687101D01*
X567289Y687830D01*
X565384D01*
X563623Y687101D01*
X562276Y685753D01*
X561546Y683993D01*
Y682087D01*
X562276Y680327D01*
X563623Y678979D01*
X565384Y678250D01*
X567289D01*
X569050Y678979D01*
X569226Y679155D01*
X600364D01*
X600941Y679270D01*
X601525Y679333D01*
X601679Y679417D01*
X601850Y679451D01*
X602339Y679778D01*
X602855Y680060D01*
X986492Y1000780D01*
X986601Y1000916D01*
X986747Y1001013D01*
X987074Y1001502D01*
X987442Y1001960D01*
X987492Y1002128D01*
X987589Y1002273D01*
X987704Y1002850D01*
X987869Y1003415D01*
X987850Y1003588D01*
X987885Y1003760D01*
Y1243391D01*
X1003609Y1259115D01*
X1016758D01*
X1017734Y1257425D01*
X1019425Y1255734D01*
X1021495Y1254539D01*
X1023805Y1253920D01*
X1026195D01*
X1028505Y1254539D01*
X1030575Y1255734D01*
X1031301Y1256460D01*
X1056540D01*
Y1269540D01*
X1031301D01*
X1030575Y1270266D01*
X1028505Y1271461D01*
X1026195Y1272080D01*
D02*
G37*
G36*
X1178595Y1246680D02*
X1176205D01*
X1173895Y1246061D01*
X1171825Y1244866D01*
X1171099Y1244140D01*
X1145960D01*
Y1231060D01*
X1171099D01*
X1171825Y1230334D01*
X1173895Y1229139D01*
X1176205Y1228520D01*
X1178595D01*
X1180905Y1229139D01*
X1182975Y1230334D01*
X1184666Y1232025D01*
X1185861Y1234095D01*
X1186480Y1236405D01*
Y1238795D01*
X1185861Y1241105D01*
X1184666Y1243175D01*
X1182975Y1244866D01*
X1180905Y1246061D01*
X1178595Y1246680D01*
D02*
G37*
G36*
X1026195D02*
X1023805D01*
X1021495Y1246061D01*
X1019425Y1244866D01*
X1018699Y1244140D01*
X993460D01*
Y1231060D01*
X1018699D01*
X1019425Y1230334D01*
X1021495Y1229139D01*
X1023805Y1228520D01*
X1026195D01*
X1028505Y1229139D01*
X1030575Y1230334D01*
X1032266Y1232025D01*
X1033461Y1234095D01*
X1034080Y1236405D01*
Y1238795D01*
X1033461Y1241105D01*
X1032266Y1243175D01*
X1030575Y1244866D01*
X1028505Y1246061D01*
X1026195Y1246680D01*
D02*
G37*
G36*
X1178595Y1221280D02*
X1176205D01*
X1173895Y1220661D01*
X1171825Y1219466D01*
X1170134Y1217775D01*
X1168939Y1215705D01*
X1168320Y1213395D01*
Y1211005D01*
X1168939Y1208695D01*
X1170134Y1206625D01*
X1171825Y1204934D01*
X1173895Y1203739D01*
X1176205Y1203120D01*
X1178595D01*
X1180905Y1203739D01*
X1182975Y1204934D01*
X1183701Y1205660D01*
X1209040D01*
Y1218740D01*
X1183701D01*
X1182975Y1219466D01*
X1180905Y1220661D01*
X1178595Y1221280D01*
D02*
G37*
G36*
X1026195D02*
X1023805D01*
X1021495Y1220661D01*
X1019425Y1219466D01*
X1017734Y1217775D01*
X1016539Y1215705D01*
X1015920Y1213395D01*
Y1211005D01*
X1016539Y1208695D01*
X1017734Y1206625D01*
X1019425Y1204934D01*
X1021495Y1203739D01*
X1023805Y1203120D01*
X1026195D01*
X1028505Y1203739D01*
X1030575Y1204934D01*
X1031301Y1205660D01*
X1056540D01*
Y1218740D01*
X1031301D01*
X1030575Y1219466D01*
X1028505Y1220661D01*
X1026195Y1221280D01*
D02*
G37*
G36*
X1178595Y1195880D02*
X1176205D01*
X1173895Y1195261D01*
X1171825Y1194066D01*
X1171099Y1193340D01*
X1145960D01*
Y1180260D01*
X1171099D01*
X1171825Y1179534D01*
X1173895Y1178339D01*
X1176205Y1177720D01*
X1178595D01*
X1180905Y1178339D01*
X1182975Y1179534D01*
X1184666Y1181225D01*
X1185861Y1183295D01*
X1186480Y1185605D01*
Y1187995D01*
X1185861Y1190305D01*
X1184666Y1192375D01*
X1182975Y1194066D01*
X1180905Y1195261D01*
X1178595Y1195880D01*
D02*
G37*
G36*
X1026195D02*
X1023805D01*
X1021495Y1195261D01*
X1019425Y1194066D01*
X1018699Y1193340D01*
X993460D01*
Y1180260D01*
X1018699D01*
X1019425Y1179534D01*
X1021495Y1178339D01*
X1023805Y1177720D01*
X1026195D01*
X1028505Y1178339D01*
X1030575Y1179534D01*
X1032266Y1181225D01*
X1033461Y1183295D01*
X1034080Y1185605D01*
Y1187995D01*
X1033461Y1190305D01*
X1032266Y1192375D01*
X1030575Y1194066D01*
X1028505Y1195261D01*
X1026195Y1195880D01*
D02*
G37*
G36*
X1178595Y1170480D02*
X1176205D01*
X1173895Y1169861D01*
X1171825Y1168666D01*
X1170134Y1166975D01*
X1168939Y1164905D01*
X1168320Y1162595D01*
Y1160205D01*
X1168939Y1157895D01*
X1170134Y1155825D01*
X1171825Y1154134D01*
X1173895Y1152939D01*
X1176205Y1152320D01*
X1178595D01*
X1180905Y1152939D01*
X1182975Y1154134D01*
X1183701Y1154860D01*
X1209040D01*
Y1167940D01*
X1183701D01*
X1182975Y1168666D01*
X1180905Y1169861D01*
X1178595Y1170480D01*
D02*
G37*
G36*
X1026195D02*
X1023805D01*
X1021495Y1169861D01*
X1019425Y1168666D01*
X1017734Y1166975D01*
X1016539Y1164905D01*
X1015920Y1162595D01*
Y1160205D01*
X1016539Y1157895D01*
X1017734Y1155825D01*
X1019425Y1154134D01*
X1021495Y1152939D01*
X1023805Y1152320D01*
X1026195D01*
X1028505Y1152939D01*
X1030575Y1154134D01*
X1031301Y1154860D01*
X1056540D01*
Y1167940D01*
X1031301D01*
X1030575Y1168666D01*
X1028505Y1169861D01*
X1026195Y1170480D01*
D02*
G37*
G36*
X1186953Y963540D02*
X1185047D01*
X1183287Y962811D01*
X1181939Y961463D01*
X1181210Y959703D01*
Y957797D01*
X1181939Y956037D01*
X1183287Y954689D01*
X1185047Y953960D01*
X1186953D01*
X1188713Y954689D01*
X1190061Y956037D01*
X1190790Y957797D01*
Y959703D01*
X1190061Y961463D01*
X1188713Y962811D01*
X1186953Y963540D01*
D02*
G37*
G36*
X1651061Y933040D02*
X1645939D01*
X1640880Y932239D01*
X1636009Y930656D01*
X1631445Y928331D01*
X1627302Y925320D01*
X1623680Y921698D01*
X1620669Y917555D01*
X1618344Y912991D01*
X1616761Y908120D01*
X1615960Y903061D01*
Y897939D01*
X1616761Y892880D01*
X1618344Y888009D01*
X1620669Y883445D01*
X1623680Y879302D01*
X1627302Y875680D01*
X1631445Y872669D01*
X1636009Y870344D01*
X1640880Y868761D01*
X1645939Y867960D01*
X1651061D01*
X1656120Y868761D01*
X1660991Y870344D01*
X1665555Y872669D01*
X1669698Y875680D01*
X1673320Y879302D01*
X1676331Y883445D01*
X1678656Y888009D01*
X1680239Y892880D01*
X1681040Y897939D01*
Y903061D01*
X1680239Y908120D01*
X1678656Y912991D01*
X1676331Y917555D01*
X1673320Y921698D01*
X1669698Y925320D01*
X1665555Y928331D01*
X1660991Y930656D01*
X1656120Y932239D01*
X1651061Y933040D01*
D02*
G37*
G36*
X1601953Y742790D02*
X1600047D01*
X1598287Y742061D01*
X1596939Y740713D01*
X1596210Y738953D01*
Y737047D01*
X1596939Y735287D01*
X1598287Y733939D01*
X1600047Y733210D01*
X1601953D01*
X1603713Y733939D01*
X1603742Y733968D01*
X1674958Y730268D01*
X1675287Y729939D01*
X1677047Y729210D01*
X1678953D01*
X1680713Y729939D01*
X1682061Y731287D01*
X1682790Y733047D01*
Y734953D01*
X1682061Y736713D01*
X1680713Y738061D01*
X1678953Y738790D01*
X1677047D01*
X1675287Y738061D01*
X1675258Y738032D01*
X1604042Y741732D01*
X1603713Y742061D01*
X1601953Y742790D01*
D02*
G37*
G36*
X511953Y731790D02*
X510047D01*
X508287Y731061D01*
X506939Y729713D01*
X506210Y727953D01*
Y726047D01*
X506939Y724287D01*
X508287Y722939D01*
X510047Y722210D01*
X511953D01*
X513713Y722939D01*
X513855Y723081D01*
X591076Y722150D01*
X591287Y721939D01*
X593047Y721210D01*
X594953D01*
X596713Y721939D01*
X598061Y723287D01*
X598790Y725047D01*
Y726953D01*
X598061Y728713D01*
X596713Y730061D01*
X594953Y730790D01*
X593047D01*
X591287Y730061D01*
X591145Y729919D01*
X513924Y730850D01*
X513713Y731061D01*
X511953Y731790D01*
D02*
G37*
G36*
X1553953Y694790D02*
X1552047D01*
X1550287Y694061D01*
X1548939Y692713D01*
X1548210Y690953D01*
Y689047D01*
X1548939Y687287D01*
X1550287Y685939D01*
X1550781Y685734D01*
X1580264Y658077D01*
X1580383Y657789D01*
X1581731Y656442D01*
X1583491Y655713D01*
X1585397D01*
X1587157Y656442D01*
X1588505Y657789D01*
X1589234Y659550D01*
Y661456D01*
X1588505Y663216D01*
X1587157Y664563D01*
X1586663Y664768D01*
X1557180Y692426D01*
X1557061Y692713D01*
X1555713Y694061D01*
X1553953Y694790D01*
D02*
G37*
G36*
X1368953Y504790D02*
X1367047D01*
X1365287Y504061D01*
X1363939Y502713D01*
X1363210Y500953D01*
Y499047D01*
X1363811Y497597D01*
X1359209Y457929D01*
X1358683Y457403D01*
X1357953Y455643D01*
Y453737D01*
X1358683Y451977D01*
X1360030Y450629D01*
X1361791Y449900D01*
X1363696D01*
X1365457Y450629D01*
X1366804Y451977D01*
X1367533Y453737D01*
Y455643D01*
X1366933Y457093D01*
X1371535Y496761D01*
X1372061Y497287D01*
X1372790Y499047D01*
Y500953D01*
X1372061Y502713D01*
X1370713Y504061D01*
X1368953Y504790D01*
D02*
G37*
%LPD*%
G36*
X1246115Y1282391D02*
Y1025150D01*
X1246411Y1023664D01*
X1247253Y1022403D01*
X1247866Y1021791D01*
X1247986Y1021711D01*
X1248084Y1021589D01*
X1547887Y770024D01*
X1548405Y769740D01*
X1548897Y769411D01*
X1549065Y769378D01*
X1549215Y769295D01*
X1549803Y769231D01*
X1550383Y769115D01*
X1671536D01*
X1671571Y769122D01*
X1671606Y769116D01*
X1672313Y769270D01*
X1673022Y769411D01*
X1673052Y769431D01*
X1673087Y769439D01*
X1673682Y769852D01*
X1674283Y770253D01*
X1674303Y770283D01*
X1674332Y770303D01*
X1686746Y783177D01*
X1688437Y784891D01*
X1688696Y784881D01*
X1690443Y782273D01*
X1688500Y776994D01*
X1677391Y765885D01*
X1539797D01*
X1242885Y1015024D01*
Y1265000D01*
X1242589Y1266487D01*
X1241747Y1267747D01*
X1204580Y1304913D01*
X1205552Y1307260D01*
X1209040D01*
Y1316148D01*
X1211387Y1317120D01*
X1246115Y1282391D01*
D02*
G37*
%LPC*%
G36*
X554061Y932790D02*
X548939D01*
X543880Y931989D01*
X539009Y930406D01*
X534445Y928081D01*
X530302Y925070D01*
X526680Y921448D01*
X523669Y917305D01*
X521344Y912741D01*
X519761Y907870D01*
X518960Y902811D01*
Y897689D01*
X519761Y892630D01*
X521344Y887759D01*
X523669Y883195D01*
X526680Y879052D01*
X530302Y875430D01*
X534445Y872419D01*
X539009Y870094D01*
X543880Y868511D01*
X548939Y867710D01*
X554061D01*
X559120Y868511D01*
X563991Y870094D01*
X568555Y872419D01*
X572698Y875430D01*
X576320Y879052D01*
X579331Y883195D01*
X581656Y887759D01*
X583239Y892630D01*
X584040Y897689D01*
Y902811D01*
X583239Y907870D01*
X581656Y912741D01*
X579331Y917305D01*
X576320Y921448D01*
X572698Y925070D01*
X568555Y928081D01*
X563991Y930406D01*
X559120Y931989D01*
X554061Y932790D01*
D02*
G37*
%LPD*%
D14*
X1434299Y498170D02*
G03*
X1433757Y497757I1254J-2209D01*
G01*
X1425756Y517456D02*
G03*
X1424693Y516181I1312J-2175D01*
G01*
X1685621Y787607D02*
G03*
X1686184Y788514I-1828J1763D01*
G01*
X636910Y695160D02*
X995000Y994765D01*
X636000Y552921D02*
Y693212D01*
X636000Y694250D01*
X636000Y552921D02*
X636000Y551995D01*
X637277Y550718D02*
X740426Y491610D01*
X636000Y694250D02*
X636910Y695160D01*
X636000Y551995D02*
X637277Y550718D01*
X740426Y491610D02*
X741703Y490333D01*
X741703Y265047D02*
Y489406D01*
X741703Y490333D02*
X741703Y489406D01*
Y265047D02*
X749750Y257000D01*
X566336Y683040D02*
X600364D01*
X984000Y1003760D02*
Y1245000D01*
X600364Y683040D02*
X984000Y1003760D01*
X995000Y994765D02*
Y1091000D01*
X651000Y686578D02*
X1008000Y986338D01*
Y1092000D01*
X651000Y564136D02*
Y686578D01*
X1017000Y974465D02*
Y1077000D01*
X676000Y599838D02*
Y690362D01*
X1017000Y974465D01*
X651000Y564136D02*
X766978Y497175D01*
X533101Y757000D02*
X646371D01*
X650466Y741000D02*
X973000Y1012165D01*
X639883Y771000D02*
X640808D01*
X641516Y771595D02*
X951973Y1032370D01*
X646371Y757000D02*
X963000Y1022683D01*
X543058Y771000D02*
X639883D01*
X639883Y771000D01*
X525776Y741000D02*
X650466D01*
X640808Y771000D02*
X641516Y771595D01*
X984000Y1245000D02*
X1002000Y1263000D01*
X973000Y1012165D02*
Y1254000D01*
X1007400Y1288400D01*
X1008000Y1092000D02*
X1069000Y1153000D01*
X1017000Y1077000D02*
X1086000Y1146000D01*
X995000Y1091000D02*
X1025000Y1121000D01*
Y1136000D01*
X1216913Y990119D02*
X1590590Y678457D01*
X1552000Y565000D02*
Y667000D01*
X1434299Y498170D02*
X1552000Y565000D01*
X1433000Y497000D02*
X1433757Y497757D01*
X1433000Y249750D02*
Y497000D01*
X1227991Y999580D02*
X1527436Y751000D01*
X1538383Y762000D02*
X1679000D01*
X1527436Y751000D02*
X1683000D01*
X1228000Y1239000D02*
Y1250888D01*
X1424690Y516173D02*
X1424693Y516181D01*
X1541000Y587000D02*
Y699395D01*
X1425756Y517456D02*
X1541000Y587000D01*
X834000Y473000D02*
Y500000D01*
Y473000D02*
X841000Y466000D01*
X1119000Y1135000D02*
X1192000Y1062000D01*
X1119000Y1135000D02*
Y1397000D01*
X1192000Y972235D02*
Y1062000D01*
X1169125Y979375D02*
X1169250Y979250D01*
X1169125Y979375D02*
Y1028625D01*
X1169000Y1028750D02*
X1169125Y1028625D01*
X1136000Y1139000D02*
X1204000Y1071000D01*
Y981989D02*
Y1071000D01*
X1136000Y1139000D02*
Y1386888D01*
X1026000Y1068000D02*
X1102000Y1144000D01*
Y1368404D01*
X1086000Y1146000D02*
Y1391000D01*
X1161200Y1466200D01*
X1119000Y1397000D02*
X1162800Y1440800D01*
X1136000Y1386888D02*
X1164512Y1415400D01*
X1026000Y971100D02*
Y1068000D01*
Y971100D02*
X1046500Y950600D01*
X1161200Y1466200D02*
X1177400D01*
X1069000Y1153000D02*
Y1407000D01*
X1362744Y454690D02*
X1368000Y500000D01*
X1525000Y609715D02*
Y692815D01*
X1241016Y436572D02*
X1243805Y447020D01*
X1525000Y609715D01*
X1601000Y738000D02*
X1678000Y734000D01*
X1683000Y751000D02*
X1698500Y766500D01*
X1679000Y762000D02*
X1691851Y774851D01*
X1239907Y1012451D02*
X1538383Y762000D01*
X1671536Y773000D02*
X1685621Y787607D01*
X1550383Y773000D02*
X1671536D01*
X1250581Y1024565D02*
X1550383Y773000D01*
X1698500Y766500D02*
X1728862Y845923D01*
X511000Y727000D02*
X594000Y726000D01*
X444000Y1258000D02*
X463000D01*
X431000Y1245000D02*
X444000Y1258000D01*
X424000Y1160000D02*
Y1278645D01*
Y1160000D02*
X464000Y1120000D01*
X424000Y1278645D02*
X454946Y1309591D01*
X464000Y983323D02*
Y1120000D01*
Y983323D02*
X540671Y772671D01*
X681000Y1641000D02*
X714262Y1630714D01*
X681627Y1593014D02*
X927564Y1737000D01*
X626000Y1553836D02*
X648793Y1554209D01*
X681627Y1593014D01*
X927564Y1737000D02*
X1053000D01*
X1127000Y1751000D02*
Y1784000D01*
X1093351Y1771649D02*
X1144690Y1720310D01*
Y1669310D02*
Y1720310D01*
X1005606Y1771649D02*
X1093351D01*
X1745000Y1189000D02*
X1778000Y1191000D01*
X1517000Y1602000D02*
X1560000Y1606000D01*
X1738000Y1302537D02*
X1745054Y1309591D01*
X1686184Y788514D02*
X1738000Y933424D01*
Y1302537D01*
X1589743Y1550332D02*
X1604038Y1553838D01*
X1305000Y1706000D02*
X1320772D01*
X1589743Y1550332D01*
X1246000Y1647000D02*
X1305000Y1706000D01*
X1342267Y1737000D02*
X1450430Y1672891D01*
X595960Y1553836D02*
X626000D01*
X540671Y772671D02*
X542342Y771000D01*
X543058Y771000D01*
X491485Y839837D02*
X525776Y741000D01*
X472065Y846298D02*
X491485Y839837D01*
X451000Y982322D02*
X533101Y757000D01*
X451000Y982322D02*
Y1095799D01*
X423163Y1123636D02*
X451000Y1095799D01*
X1062000Y1678435D02*
X1147235Y1593200D01*
X1160500D02*
X1177400D01*
X1062000Y1678435D02*
Y1728000D01*
X1147235Y1593200D02*
X1160500D01*
X1025000Y1491600D02*
X1041600D01*
X1087300Y1537300D02*
Y1539750D01*
X1041600Y1491600D02*
X1087300Y1537300D01*
X1039150Y1517000D02*
X1087300Y1565150D01*
X1025000Y1517000D02*
X1039150D01*
X1192000Y972235D02*
X1525000Y692815D01*
X1204000Y981989D02*
X1541000Y699395D01*
X1178000Y1263000D02*
X1216000Y1225000D01*
Y992070D02*
Y1225000D01*
X1216000Y991032D02*
X1216913Y990119D01*
X1216000Y992070D02*
X1216000Y991032D01*
X1418000Y501000D02*
X1424693Y516181D01*
X1162800Y1440800D02*
X1177400D01*
X1069000Y1407000D02*
X1149770Y1487770D01*
Y1488870D01*
X1152500Y1491600D02*
X1177400D01*
X1149770Y1488870D02*
X1152500Y1491600D01*
X1164512Y1415400D02*
X1177400D01*
X1194800Y1339200D02*
X1250000Y1284000D01*
X1177400Y1339200D02*
X1194800D01*
X1190200Y1313800D02*
X1239000Y1265000D01*
X1177400Y1313800D02*
X1190200D01*
X1190488Y1288400D02*
X1228000Y1250888D01*
X1177400Y1288400D02*
X1190488D01*
X1177400Y1263000D02*
X1178000D01*
X1250000Y1025150D02*
Y1284000D01*
X1239000Y1014397D02*
Y1265000D01*
Y1014397D02*
X1239000Y1013359D01*
X1239907Y1012451D01*
X1767000Y979102D02*
Y1113798D01*
X1691851Y774851D02*
X1767000Y979102D01*
Y1113798D02*
X1776837Y1123636D01*
X1228000Y999580D02*
X1228000Y1239050D01*
X1250000Y1025150D02*
X1250612Y1024538D01*
X1590590Y678457D02*
X1634468Y682428D01*
X1231000Y1572000D02*
Y1656000D01*
X1201400Y1542400D02*
X1231000Y1572000D01*
Y1656000D02*
X1312000Y1737000D01*
X1216000Y1581300D02*
Y1731000D01*
X1203800Y1569100D02*
X1216000Y1581300D01*
X1194395Y1752605D02*
X1216000Y1731000D01*
X1312000Y1737000D02*
X1342267D01*
X1246000Y1551000D02*
Y1647000D01*
X1212000Y1517000D02*
X1246000Y1551000D01*
X1194500Y1517000D02*
X1212000D01*
X676000Y599838D02*
X958776Y435593D01*
X766978Y497175D02*
X781703Y501121D01*
X1450430Y1672891D02*
X1459418Y1675190D01*
X1194395Y1752605D02*
Y1771647D01*
X740806Y1675000D02*
X764118D01*
X764793Y1675000D02*
X765379Y1675335D01*
X897747Y1751000D01*
X764118Y1675000D02*
X764793Y1675000D01*
X1008000Y1339200D02*
X1025000D01*
X423163Y1123636D02*
X423163D01*
X963000Y1271000D02*
X1005800Y1313800D01*
X963000Y1022683D02*
Y1271000D01*
X1005800Y1313800D02*
X1025000D01*
X1179150Y1518750D02*
X1187750D01*
X1177400Y1517000D02*
X1179150Y1518750D01*
X951973Y1032370D02*
Y1297973D01*
X993200Y1339200D02*
X1008000D01*
X951973Y1297973D02*
X993200Y1339200D01*
X1007400Y1288400D02*
X1025000D01*
X1002000Y1263000D02*
X1025000D01*
X1203800Y1567800D02*
Y1569100D01*
X1177400Y1567800D02*
X1203800D01*
X1177400Y1542400D02*
X1201400D01*
X897747Y1751000D02*
X1093000D01*
X1136000Y1635488D02*
Y1708000D01*
X1093000Y1751000D02*
X1136000Y1708000D01*
X1152888Y1618600D02*
X1177400D01*
X1136000Y1635488D02*
X1152888Y1618600D01*
X1053000Y1737000D02*
X1062000Y1728000D01*
X1175383Y1646017D02*
X1177400Y1644000D01*
X1167983Y1646017D02*
X1175383D01*
X1144690Y1669310D02*
X1167983Y1646017D01*
D260*
X1553000Y690000D02*
X1584444Y660503D01*
X1240000Y1724940D02*
Y1752000D01*
X1453580Y270400D02*
X1455000Y501000D01*
D261*
X1155000Y1721000D02*
X1165000Y1831000D01*
X1087300Y1514350D02*
X1112700D01*
D263*
X1025000Y1720200D02*
D03*
Y1694800D02*
D03*
X1177400Y1364600D02*
D03*
X1025000Y1669400D02*
D03*
Y1644000D02*
D03*
Y1618600D02*
D03*
Y1593200D02*
D03*
Y1567800D02*
D03*
Y1542400D02*
D03*
Y1517000D02*
D03*
Y1491600D02*
D03*
Y1466200D02*
D03*
Y1440800D02*
D03*
Y1415400D02*
D03*
Y1390000D02*
D03*
X1177400D02*
D03*
Y1415400D02*
D03*
Y1440800D02*
D03*
Y1466200D02*
D03*
Y1491600D02*
D03*
Y1517000D02*
D03*
Y1542400D02*
D03*
Y1567800D02*
D03*
Y1593200D02*
D03*
Y1618600D02*
D03*
Y1644000D02*
D03*
Y1669400D02*
D03*
Y1694800D02*
D03*
Y1720200D02*
D03*
X1025000Y1339200D02*
D03*
Y1313800D02*
D03*
Y1288400D02*
D03*
Y1263000D02*
D03*
Y1237600D02*
D03*
Y1212200D02*
D03*
Y1186800D02*
D03*
Y1161400D02*
D03*
Y1136000D02*
D03*
X1177400D02*
D03*
Y1161400D02*
D03*
Y1186800D02*
D03*
Y1212200D02*
D03*
Y1237600D02*
D03*
Y1263000D02*
D03*
Y1288400D02*
D03*
Y1313800D02*
D03*
Y1339200D02*
D03*
X1025000Y1364600D02*
D03*
D264*
X1112700Y1514350D02*
D03*
Y1539750D02*
D03*
X1087300Y1514350D02*
D03*
Y1539750D02*
D03*
Y1565150D02*
D03*
X749750Y231600D02*
D03*
D265*
X1112700Y1565150D02*
D03*
X749750Y257000D02*
D03*
D266*
X1153500Y1066300D02*
D03*
D267*
Y1048500D02*
D03*
Y977300D02*
D03*
X1046500Y1004000D02*
D03*
Y986200D02*
D03*
Y968400D02*
D03*
Y950600D02*
D03*
Y1056900D02*
D03*
Y1021800D02*
D03*
Y932800D02*
D03*
Y1039600D02*
D03*
X1153500Y941700D02*
D03*
Y959500D02*
D03*
Y995100D02*
D03*
Y1012900D02*
D03*
Y1030700D02*
D03*
D268*
X1453580Y245000D02*
D03*
D269*
Y270400D02*
D03*
Y219600D02*
D03*
D270*
X1049000Y1161000D02*
D03*
X1164000Y1834000D02*
D03*
X1155000Y1721000D02*
D03*
D271*
X1552000Y667000D02*
D03*
X1433000Y249750D02*
D03*
X1553000Y690000D02*
D03*
X834000Y500000D02*
D03*
X1169125Y1028625D02*
D03*
Y979375D02*
D03*
X1584444Y660503D02*
D03*
X1240000Y1724940D02*
D03*
Y1752000D02*
D03*
X1186000Y958750D02*
D03*
X1102000Y1369000D02*
D03*
X1455000Y501000D02*
D03*
X1368000Y500000D02*
D03*
X1362744Y454690D02*
D03*
X1601000Y738000D02*
D03*
X594000Y726000D02*
D03*
X511000Y727000D02*
D03*
X463000Y1258000D02*
D03*
X714262Y1630714D02*
D03*
X1127000Y1751000D02*
D03*
X1745000Y1189000D02*
D03*
X1517000Y1602000D02*
D03*
X1560000Y1606000D02*
D03*
X1778000Y1191000D02*
D03*
X1678000Y734000D02*
D03*
X841000Y466000D02*
D03*
X1127000Y1784000D02*
D03*
X461000Y877000D02*
D03*
X431000Y1245000D02*
D03*
X681000Y1641000D02*
D03*
X1418000Y501000D02*
D03*
X1241016Y436572D02*
D03*
X770000Y1691000D02*
D03*
X958776Y435593D02*
D03*
X781703Y501121D02*
D03*
X423163Y1123636D02*
D03*
X454946Y1309591D02*
D03*
X595960Y1553836D02*
D03*
X740580Y1675188D02*
D03*
X1005606Y1771649D02*
D03*
X1194395Y1771647D02*
D03*
X1459418Y1675190D02*
D03*
X1604038Y1553838D02*
D03*
X1745054Y1309591D02*
D03*
X1776837Y1123636D02*
D03*
X1728862Y845923D02*
D03*
X1634468Y682428D02*
D03*
X472065Y846298D02*
D03*
X566336Y683040D02*
D03*
X575000Y1528000D02*
D03*
X811000Y452000D02*
D03*
X991449Y429666D02*
D03*
X903541Y414861D02*
D03*
X509315Y700629D02*
D03*
X391153Y1174501D02*
D03*
X604891Y1612713D02*
D03*
X1050351Y1810016D02*
D03*
X1518356Y1675818D02*
D03*
X1791578Y1272430D02*
D03*
X1740615Y787551D02*
D03*
X1389901Y448871D02*
D03*
X1802754Y1197188D02*
D03*
X664447Y1660004D02*
D03*
X1126311Y1808947D02*
D03*
X1575864Y1626180D02*
D03*
X1777000Y1090500D02*
D03*
X1812500Y1109150D02*
D03*
X1733875Y1340821D02*
D03*
X1625000Y1528000D02*
D03*
X1431000Y1692000D02*
D03*
X1448000Y1721000D02*
D03*
X1227000Y1766000D02*
D03*
X1214000Y1802000D02*
D03*
X968000Y1799000D02*
D03*
X973000Y1765000D02*
D03*
X736000Y1711000D02*
D03*
X549000Y1550000D02*
D03*
X406000Y1249000D02*
D03*
X466000Y1341000D02*
D03*
X428000Y1335000D02*
D03*
X388000Y1091000D02*
D03*
X423000D02*
D03*
X434000Y848000D02*
D03*
X472870Y768306D02*
D03*
X560846Y635661D02*
D03*
X587505Y657564D02*
D03*
X752766Y517573D02*
D03*
X752174Y479263D02*
D03*
X832798Y442798D02*
D03*
X985460Y397721D02*
D03*
X1208377Y430658D02*
D03*
X1232562Y400898D02*
D03*
X1317753Y424800D02*
D03*
X1463687Y488391D02*
D03*
X1447234Y517573D02*
D03*
X1613282Y656904D02*
D03*
X1650907Y649668D02*
D03*
X1700819Y722736D02*
D03*
X1740374Y877033D02*
D03*
X1771735Y865254D02*
D03*
X1765471Y1351957D02*
D03*
X1638516Y1565119D02*
D03*
D272*
X1100000Y1688250D02*
D03*
X551500Y900250D02*
D03*
X1648500Y900500D02*
D03*
D273*
X1194500Y1720200D02*
D03*
X1160500Y1694800D02*
D03*
X1194500Y1669400D02*
D03*
X1160500Y1644000D02*
D03*
X1194500Y1618600D02*
D03*
X1160500Y1593200D02*
D03*
X1194500Y1567800D02*
D03*
X1160500Y1542400D02*
D03*
X1194500Y1517000D02*
D03*
X1160500Y1491600D02*
D03*
X1194500Y1466200D02*
D03*
X1160500Y1440800D02*
D03*
X1194500Y1415400D02*
D03*
X1160500Y1390000D02*
D03*
X1194500Y1364600D02*
D03*
X1160500Y1339200D02*
D03*
X1194500Y1313800D02*
D03*
X1160500Y1288400D02*
D03*
X1194500Y1263000D02*
D03*
X1160500Y1237600D02*
D03*
X1194500Y1212200D02*
D03*
X1160500Y1186800D02*
D03*
X1194500Y1161400D02*
D03*
X1160500Y1136000D02*
D03*
X1008000D02*
D03*
X1042000Y1161400D02*
D03*
X1008000Y1186800D02*
D03*
X1042000Y1212200D02*
D03*
X1008000Y1237600D02*
D03*
X1042000Y1263000D02*
D03*
X1008000Y1288400D02*
D03*
X1042000Y1313800D02*
D03*
X1008000Y1339200D02*
D03*
X1042000Y1364600D02*
D03*
X1008000Y1390000D02*
D03*
X1042000Y1415400D02*
D03*
X1008000Y1440800D02*
D03*
X1042000Y1466200D02*
D03*
X1008000Y1491600D02*
D03*
X1042000Y1517000D02*
D03*
X1008000Y1542400D02*
D03*
X1042000Y1567800D02*
D03*
X1008000Y1593200D02*
D03*
X1042000Y1618600D02*
D03*
X1008000Y1644000D02*
D03*
X1042000Y1669400D02*
D03*
X1008000Y1694800D02*
D03*
X1042000Y1720200D02*
D03*
M02*
