G04*
G04 #@! TF.GenerationSoftware,Altium Limited,Altium Designer,25.4.2 (15)*
G04*
G04 Layer_Color=32896*
%FSLAX44Y44*%
%MOMM*%
G71*
G04*
G04 #@! TF.SameCoordinates,EEABE1AA-3A69-4D6F-ADE4-9D398D027295*
G04*
G04*
G04 #@! TF.FilePolarity,Positive*
G04*
G01*
G75*
%ADD10C,0.2000*%
%ADD12C,0.1270*%
%ADD14C,0.2540*%
D10*
X1155450Y1514350D02*
G03*
X1155450Y1514350I-1000J0D01*
G01*
X1095550Y1075200D02*
G03*
X1104450Y1075200I4450J0D01*
G01*
X1135250Y1067300D02*
G03*
X1135250Y1067300I-3000J0D01*
G01*
X1140150Y932800D02*
Y1075200D01*
X1059850Y932800D02*
X1140150D01*
X1059850D02*
Y1075200D01*
X1095550D01*
X1104450D02*
X1140150D01*
D12*
X1055550Y1463550D02*
X1144450D01*
X1055550Y1615950D02*
X1144450D01*
Y1463550D02*
Y1615950D01*
X1055550Y1463550D02*
Y1615950D01*
D14*
X1126540Y1560463D02*
Y1570460D01*
X1131538D01*
X1133204Y1568794D01*
Y1567128D01*
X1131538Y1565462D01*
X1126540D01*
X1131538D01*
X1133204Y1563795D01*
Y1562129D01*
X1131538Y1560463D01*
X1126540D01*
X1136537D02*
Y1567128D01*
X1139869Y1570460D01*
X1143201Y1567128D01*
Y1560463D01*
X1066540D02*
X1073204D01*
X1069872D01*
Y1570460D01*
X1066540Y1544460D02*
Y1534463D01*
X1071538D01*
X1073204Y1536129D01*
Y1539462D01*
X1071538Y1541128D01*
X1066540D01*
X1069872D02*
X1073204Y1544460D01*
X1066540Y1509463D02*
Y1519460D01*
X1071538D01*
X1073204Y1517794D01*
Y1516128D01*
X1071538Y1514462D01*
X1066540D01*
X1071538D01*
X1073204Y1512796D01*
Y1511129D01*
X1071538Y1509463D01*
X1066540D01*
X1126540D02*
Y1519460D01*
X1131538D01*
X1133204Y1517794D01*
Y1516128D01*
X1131538Y1514462D01*
X1126540D01*
X1131538D01*
X1133204Y1512796D01*
Y1511129D01*
X1131538Y1509463D01*
X1126540D01*
X1132205Y1536129D02*
X1130538Y1534463D01*
X1127206D01*
X1125540Y1536129D01*
Y1542794D01*
X1127206Y1544460D01*
X1130538D01*
X1132205Y1542794D01*
Y1539462D01*
X1128872D01*
X1098000Y1441382D02*
X1092922D01*
X1095461D01*
Y1454078D01*
X1092922Y1456617D01*
X1090383D01*
X1087843Y1454078D01*
X1103078Y1456617D02*
X1108157D01*
X1105618D01*
Y1441382D01*
X1103078Y1443922D01*
X1110157Y1084382D02*
Y1099617D01*
X1105078Y1094539D01*
X1100000Y1099617D01*
Y1084382D01*
X1094922D02*
X1089843D01*
X1092382D01*
Y1099617D01*
X1094922Y1097078D01*
M02*
