G04*
G04 #@! TF.GenerationSoftware,Altium Limited,Altium Designer,25.4.2 (15)*
G04*
G04 Layer_Color=0*
%FSLAX44Y44*%
%MOMM*%
G71*
G04*
G04 #@! TF.SameCoordinates,EEABE1AA-3A69-4D6F-ADE4-9D398D027295*
G04*
G04*
G04 #@! TF.FilePolarity,Positive*
G04*
G01*
G75*
%ADD275C,0.0254*%
G36*
X484419Y953374D02*
X471394Y989160D01*
Y1210840D01*
X547213Y1419151D01*
X689707Y1588969D01*
X881687Y1699809D01*
X940000Y1645040D01*
Y1037542D01*
X634085Y780848D01*
X547213D01*
X532302Y821817D01*
X607557Y878198D01*
X580195Y953374D01*
X484419D01*
D02*
G37*
G36*
X1051700Y917000D02*
X1148200D01*
X1148200Y1081000D01*
X1051700Y1081000D01*
Y917000D01*
D02*
G37*
G36*
X689707Y611031D02*
X881687Y500191D01*
X1100000Y461697D01*
X1318313Y500191D01*
X1510293Y611031D01*
Y683926D01*
X1260000Y893947D01*
X940000D01*
X689707Y683926D01*
Y611031D01*
D02*
G37*
G36*
X1260000Y1037542D02*
Y1645040D01*
X1318313Y1699809D01*
X1510293Y1588969D01*
X1652787Y1419151D01*
X1728606Y1210840D01*
Y989160D01*
X1715581Y953374D01*
X1619805D01*
X1592443Y878198D01*
X1667698Y821817D01*
X1652787Y780848D01*
X1565915D01*
X1260000Y1037542D01*
D02*
G37*
D275*
X730697Y180349D02*
Y460349D01*
X617909Y525467D01*
X450481Y725000D01*
X361394Y969764D01*
Y1230236D01*
X450481Y1475000D01*
X617909Y1674533D01*
X843485Y1804769D01*
X1100000Y1850000D01*
X1356515Y1804769D01*
X1582091Y1674533D01*
X1749519Y1475000D01*
X1838606Y1230236D01*
Y969764D01*
X1749519Y725000D01*
X1582091Y525467D01*
X1469303Y460349D01*
Y180349D01*
X1420524D01*
X1228258Y372615D01*
X1100000Y350000D01*
X971742Y372615D01*
X779476Y180349D01*
X730697D01*
M02*
