G04*
G04 #@! TF.GenerationSoftware,Altium Limited,Altium Designer,25.4.2 (15)*
G04*
G04 Layer_Color=128*
%FSLAX44Y44*%
%MOMM*%
G71*
G04*
G04 #@! TF.SameCoordinates,EEABE1AA-3A69-4D6F-ADE4-9D398D027295*
G04*
G04*
G04 #@! TF.FilePolarity,Positive*
G04*
G01*
G75*
%ADD273R,2.4000X0.8000*%
D273*
X1194500Y1720200D02*
D03*
X1160500Y1694800D02*
D03*
X1194500Y1669400D02*
D03*
X1160500Y1644000D02*
D03*
X1194500Y1618600D02*
D03*
X1160500Y1593200D02*
D03*
X1194500Y1567800D02*
D03*
X1160500Y1542400D02*
D03*
X1194500Y1517000D02*
D03*
X1160500Y1491600D02*
D03*
X1194500Y1466200D02*
D03*
X1160500Y1440800D02*
D03*
X1194500Y1415400D02*
D03*
X1160500Y1390000D02*
D03*
X1194500Y1364600D02*
D03*
X1160500Y1339200D02*
D03*
X1194500Y1313800D02*
D03*
X1160500Y1288400D02*
D03*
X1194500Y1263000D02*
D03*
X1160500Y1237600D02*
D03*
X1194500Y1212200D02*
D03*
X1160500Y1186800D02*
D03*
X1194500Y1161400D02*
D03*
X1160500Y1136000D02*
D03*
X1008000D02*
D03*
X1042000Y1161400D02*
D03*
X1008000Y1186800D02*
D03*
X1042000Y1212200D02*
D03*
X1008000Y1237600D02*
D03*
X1042000Y1263000D02*
D03*
X1008000Y1288400D02*
D03*
X1042000Y1313800D02*
D03*
X1008000Y1339200D02*
D03*
X1042000Y1364600D02*
D03*
X1008000Y1390000D02*
D03*
X1042000Y1415400D02*
D03*
X1008000Y1440800D02*
D03*
X1042000Y1466200D02*
D03*
X1008000Y1491600D02*
D03*
X1042000Y1517000D02*
D03*
X1008000Y1542400D02*
D03*
X1042000Y1567800D02*
D03*
X1008000Y1593200D02*
D03*
X1042000Y1618600D02*
D03*
X1008000Y1644000D02*
D03*
X1042000Y1669400D02*
D03*
X1008000Y1694800D02*
D03*
X1042000Y1720200D02*
D03*
M02*
