M48
;Layer_Color=9474304
;FILE_FORMAT=4:4
METRIC,LZ
;TYPE=PLATED
T01F00S00C0.3000
T02F00S00C0.7000
T03F00S00C0.8000
T04F00S00C0.8900
T05F00S00C1.0160
T06F00S00C3.0000
%
T01
X01433Y0024975
X01613282Y00656904
X01650907Y00649668
X01634468Y00682428
X01601Y00738
X01678Y00734
X01700819Y00722736
X01740615Y00787551
X01584444Y00660503
X01552Y00667
X01553Y0069
X01447234Y00517573
X01455Y00501
X01463687Y00488391
X01418Y00501
X01368Y005
X01362744Y0045469
X01389901Y00448871
X01317753Y004248
X01241016Y00436572
X01208377Y00430658
X01232562Y00400898
X0098546Y00397721
X00991449Y00429666
X00958776Y00435593
X00903541Y00414861
X00832798Y00442798
X00811Y00452
X00841Y00466
X00834Y005
X00781703Y00501121
X00752766Y00517573
X00752174Y00479263
X00587505Y00657564
X00566336Y0068304
X00560846Y00635661
X00509315Y00700629
X00511Y00727
X0047287Y00768306
X00594Y00726
X00388Y01091
X00391153Y01174501
X00423163Y01123636
X00423Y01091
X00461Y00877
X00472065Y00846298
X00434Y00848
X01186Y0095875
X01169125Y00979375
Y01028625
X01049Y01161
X01745Y01189
X01776837Y01123636
X01777Y010905
X018125Y0110915
X01771735Y00865254
X01740374Y00877033
X01728862Y00845923
X01778Y01191
X01802754Y01197188
X01791578Y0127243
X01745054Y01309591
X01733875Y01340821
X01765471Y01351957
X01625Y01528
X01604038Y01553838
X01638516Y01565119
X01102Y01369
X00466Y01341
X00454946Y01309591
X00428Y01335
X00431Y01245
X00406Y01249
X00463Y01258
X00549Y0155
X00575Y01528
X0059596Y01553836
X00604891Y01612713
X00681Y01641
X00664447Y01660004
X00714262Y01630714
X0074058Y01675188
X00736Y01711
X0077Y01691
X00973Y01765
X00968Y01799
X01005606Y01771649
X01050351Y01810016
X01126311Y01808947
X01127Y01784
Y01751
X01155Y01721
X01164Y01834
X01214Y01802
X01227Y01766
X0124Y01752
Y0172494
X01194395Y01771647
X01448Y01721
X01431Y01692
X01459418Y0167519
X01518356Y01675818
X01517Y01602
X0156Y01606
X01575864Y0162618
T02
X010465Y009328
Y009506
Y009684
Y009862
Y01004
Y010218
Y010396
Y010569
X011535Y010485
Y010663
Y010307
Y010129
Y009951
Y009773
Y009595
Y009417
T03
X01025Y01136
Y011614
Y011868
X011774
Y011614
Y01136
Y012122
Y012376
Y01263
Y012884
Y013138
Y013392
Y013646
Y0139
Y014154
Y014408
Y014662
Y014916
Y01517
Y015424
Y015678
X01025
Y015424
Y01517
Y014916
Y014662
Y014408
Y014154
Y0139
Y013646
Y013392
Y013138
Y012884
Y01263
Y012376
Y012122
Y015932
Y016186
Y01644
Y016694
Y016948
Y017202
X011774
Y016948
Y016694
Y01644
Y016186
Y015932
T04
X0074975Y002316
Y00257
X010873Y0151435
X011127
Y0153975
Y0156515
X010873
Y0153975
T05
X0145358Y002196
Y00245
Y002704
T06
X005515Y0090025
X016485Y009005
X011Y0168825
M30
