**ABCDEFGHIJKLMNOPQRSTUVWXYZabcdefghijklmnopqrstuvwxyz**************************
**PARASOLID !"#$%&'()*+,-./:;<=>?@[\]^_`{|}~0123456789**************************
**PART1;
MC=AMD64;
MC_MODEL=Intel64 Family 6 Model 165 Stepping 3, GenuineIntel;
MC_ID=unknown;
OS=Windows_NT;
OS_RELEASE=unknown;
FRU=Parasolid Version 35.1, build 251, 11- 4-2023;
APPL=SOLIDWORKS 2024-2024078;
SITE=;
USER=unknown;
FORMAT=text;
GUISE=transmit;
KEY=makeProjectedPlanarWire;
FILE=makeProjectedPlanarWire.x_t;
DATE=Mon Sep 23 00:50:52 2024;
**PART2;
SCH=SCH_3501251_35102;
USFLD_SIZE=0;
**PART3;
**END_OF_HEADER*****************************************************************
T51 : TRANSMIT FILE created by modeller version 350125123 SCH_3501251_35102_1300
6231 0 12 36 CCCI7 lattice222 0 CCCI4 mesh1006 0 I8 polyline1008 0 CCCCCCCDI5 ow
ner1040 0 CCCI16 boundary_lattice222 0 CCCI13 boundary_mesh1006 0 I17 boundary_p
olyline1008 0 CCCA16 index_map_offset0 0 1 dA9 index_map82 0 A17 node_id_index_m
ap82 0 A20 schema_embedding_map82 0 A5 child12 0 A14 lowest_node_id0 0 1 dA16 me
sh_offset_data206 0 Z1 86 2 3 0 0 0 0 0 0 0 1e3 1e-8 0 4 0 1 0 3 1 5 0 6 7 8 0 0
 9 10 11 0 0 0 0 0 0 0 81 255 2 2 77 12 1 0 0 0 0 13 0 70 11 CI9 list_type0 0 1
 uI10 notransmit0 0 1 lCCCDCCDI12 finger_index0 0 1 dI12 finger_block1012 0 CZ3
 0 4 T1 0 0 2 20 1 14 14 13 255 5 82 0 1 0 15 0 0 9 15 50 255 6 3 0 15 0 0 0 +0
 0 0 0 1 0 0 0 1 30 255 7 38 0 10 16 0 0 +.017 0 .012 1 0 -1020425574104004e-31
 29 255 8 74 0 11 17 0 -.017 0 .012 19 9 CCCCCCI5 frame230 0 CA5 owner12 0 Z9 81
 0 1 0 0 5 0 V0 16 255 10 36 0 ?18 0 19 7 0 0 1 18 255 11 72 0 20 0 21 8 ?1 17 2
55 20 0 0 0 0 11 22 23 0 24 +18 21 69 0 25 11 26 17 ?1 17 25 0 27 24 28 21 29 19
 0 18 -18 26 66 0 28 21 30 31 ?1 29 17 71 0 21 31 8 .017 0 .012 29 31 68 0 26 32
 17 .017 0 -.012 29 32 65 0 30 33 31 -.017 0 -.012 18 30 63 0 22 26 34 32 ?1 29
 33 62 0 34 35 32 -.022 0 -.013 18 34 60 0 36 30 37 33 ?1 29 35 59 0 37 38 33 .0
22 0 -.013 18 37 57 0 39 34 40 35 ?1 29 38 56 0 40 41 35 .022 0 -.00705 18 40 54
 0 42 37 43 38 ?1 29 41 53 0 43 44 38 .022 0 -499999999999923e-19 18 43 51 0 45
 40 46 41 ?1 29 44 50 0 46 47 41 .022 0 500000000000066e-19 18 46 48 0 48 43 49
 44 ?1 29 47 47 0 49 50 44 .022 0 .00705 18 49 45 0 51 46 52 47 ?1 29 50 44 0 52
 53 47 .022 0 .013 18 52 42 0 54 49 55 50 ?1 29 53 41 0 55 0 50 -.022 0 .013 18
 55 39 0 56 52 0 53 ?1 17 56 0 57 54 58 55 36 59 0 60 -15 255 57 7 0 56 15 27 17
 54 0 57 51 56 52 60 61 0 62 -17 58 0 57 56 39 34 63 64 0 0 -17 36 0 0 0 0 34 56
 59 0 58 +16 59 9 0 ?36 61 0 65 0 0 1 17 60 0 0 0 0 55 54 61 0 0 +16 61 12 0 ?60
 66 59 67 0 0 1 16 66 15 0 ?62 68 61 69 70 68 1 30 67 14 0 61 65 69 0 +-.022 0 .
013 -1 0 -3942553354492745e-32 30 65 11 0 59 0 67 0 +-.022 0 -.013 0 0 -1 30 69
 17 0 66 67 71 0 +.022 0 .013 -1334402673828312e-31 0 1 30 71 22 0 72 69 73 0 +.
022 0 293568588242229e-32 1334402673828314e-31 0 -1 16 72 20 0 ?42 70 74 71 0 0
 1 30 73 26 0 64 71 75 0 +.022 0 -.013 1 0 788510670898549e-31 16 64 24 0 ?63 23
 70 73 0 0 1 30 75 29 0 23 73 76 0 +-.017 0 .012 0 0 1 16 23 27 0 ?20 77 64 75 0
 0 1 30 76 32 0 77 75 16 0 +-.017 0 -.012 -1 0 0 16 77 30 0 ?78 19 23 76 0 0 1 3
0 16 35 0 19 76 7 0 +.017 0 -.012 -289120579329468e-30 0 -1 16 19 33 0 ?29 10 77
 16 0 0 1 17 29 0 0 0 0 26 25 19 0 0 +17 78 0 0 0 0 30 28 77 0 0 +17 28 0 27 25
 22 26 78 77 0 29 -15 27 8 0 22 15 0 17 22 0 27 28 24 30 20 23 0 78 -17 24 0 27
 22 25 11 18 10 0 0 -17 18 0 0 0 0 21 24 10 0 0 +14 255 15 1 79 ?0 0 57 5 6 +0 0
 0 0 5 81 1 79 86 80 15 0 0 0 0 81 80 7 CCCCCDI12 legal_owners0 16 1 lCZ1 80 82
 83 9000 1 1 1 1 1 1 1 1 0 FFFFTFTFFFFFFFFF1 82 255 1 81 -641400688 79 255 14 83
 SWEntUnchanged17 63 0 0 0 0 37 58 64 0 0 +16 70 23 0 ?84 64 72 69 74 66 1 17 84
 0 0 0 0 40 39 70 0 0 +16 74 19 0 ?85 72 68 69 68 70 1 17 85 0 0 0 0 46 45 74 0
 0 +16 68 18 0 ?86 74 66 69 66 74 1 17 86 0 0 0 0 49 48 68 0 0 +17 48 0 57 45 51
 46 86 68 0 85 -17 45 0 57 42 48 43 85 74 0 87 -17 51 0 57 48 54 49 62 66 0 86 -
17 62 0 0 0 0 52 51 66 0 0 +17 42 0 57 39 45 40 87 72 0 84 +17 87 0 0 0 0 43 42
 72 0 0 -17 39 0 57 58 42 37 84 70 0 63 -74 4 CI16 index_map_offset0 0 1 dCCZ20
 14 2 0 0 2 79 0 0 0 0 0 0 0 0 0 0 0 0 0 0 0 0 0 0 80 2 12 88 89 9000 0 0 0 0 3
 5 0 0 0 FFTFTTTFFTFFFFFF10 10 98 255 13 13 66 111 115 115 45 69 120 116 114 117
 100 101 52 79 23 89 SWIMPLICITBODYNAME_ID_U1 0 
