**ABCDEFGHIJKLMNOPQRSTUVWXYZabcdefghijklmnopqrstuvwxyz**************************
**PARASOLID !"#$%&'()*+,-./:;<=>?@[\]^_`{|}~0123456789**************************
**PART1;
MC=AMD64;
MC_MODEL=Intel64 Family 6 Model 165 Stepping 3, GenuineIntel;
MC_ID=unknown;
OS=Windows_NT;
OS_RELEASE=unknown;
FRU=CAD Exchanger 3.23.0 (cadexchanger.com);
APPL=unknown;
SITE=unknown;
USER=unknown;
FORMAT=text;
GUISE=transmit;
KEY=DIO_RS3B-13-F_DIO_RS3B-13-F;
FILE=DIO_RS3B-13-F_DIO_RS3B-13-F.x_t;
DATE=Thu Jan 23 23:25:18 2025;
**PART2;
SCH=SCH_1200000_12103;
USFLD_SIZE=0;
**PART3;
**END_OF_HEADER*****************************************************************
T51 : TRANSMIT FILE created by modeller version 120000017 SCH_1200000_121030 74
 4 1 4 0 2 105 540 725 12 2 68 0 3 0 0 0 0 1000.0 1.0e-08 0 0 0 1 0 1 1 12 14 20
 18 9 19 17 70 3 0 2 0 0 4 1 20 0 4 4 1 T74 20 4 1 0 5 0 0 0 0 0 0 0 0 0 0 0 0 0
 0 0 0 0 0 0 81 1 5 7 6 13 0 0 42 0 8 80 1 6 0 7 8001 0 0 0 0 3 5 0 0 0 FFFFTFTF
FFFFFF2 79 15 7 SDL/TYSA_COLOUR83 3 8 0.26274511218071 0.26274511218071 0.262745
11218071 19 9 1 0 2 11 0 10 V13 10 2 0 2 0 0 0 0 9 13 19 11 3 0 2 0 9 12 S13 12
 4 0 2 0 13 0 0 11 0 14 13 5 5 1.0e-08 40 0 15 12 14 +0 0 40 0 10 50 14 6 0 13 4
1 0 0 +0.0041499992 0.0027540004 0.0024 1.224646799147353e-16 1.0 2.449293598294
707e-16 -2.999519565323715e-32 -2.449293598294707e-16 1.0 15 15 8 0 16 13 0 17 1
6 0 15 24 36 17 21 19 0 29 -18 17 9 0 16 0 22 18 ?2 29 18 10 0 17 23 0 0.0025869
992 0.0027540004 0.0024 16 19 11 0 ?21 0 27 20 0 0 2 30 20 12 0 19 28 0 0 +0.002
5869992 0.0027540004 0.0024 1.0 -1.224646799147353e-16 0.0 17 21 0 99 90 50 22 1
6 19 0 36 +18 22 13 0 21 17 25 23 ?2 29 23 14 0 22 26 18 0.0041499992 0.00275400
04 0.0024 17 24 0 15 30 16 25 29 27 0 57 -18 25 15 0 24 22 31 26 ?2 29 26 16 0 2
5 32 23 0.0025869992 0.0027540004 0.002451 16 27 17 0 ?29 19 33 28 0 0 2 30 28 1
8 0 27 34 20 0 +0.0025869992 0.0027540004 0.002451 2.999519565323715e-32 2.44929
3598294707e-16 -1.0 17 29 0 44 45 57 17 24 27 0 50 +17 30 0 15 36 24 31 35 33 0
 94 -18 31 19 0 39 25 46 32 ?2 29 32 20 0 31 47 26 0.0041499992 0.0027540004 0.0
02451 16 33 21 0 ?35 27 37 34 0 0 2 30 34 22 0 33 38 28 0 +0.0041499992 0.002754
0004 0.002451 -1.0 1.224646799147353e-16 0.0 17 35 0 104 60 94 25 30 33 0 0 +17
 36 0 15 16 30 22 39 37 0 87 -16 37 23 0 ?39 33 48 38 0 0 2 30 38 24 0 37 49 34
 0 +0.0041499992 0.0027540004 0.0024 -2.999519565323715e-32 -2.449293598294707e-
16 1.0 17 39 0 86 91 87 31 36 37 0 30 +14 40 25 42 1.0e-08 61 13 44 12 41 +0 0 6
1 13 10 50 41 26 0 40 62 14 0 +0.0025869992 0.0027540004 0.0024 -1.0 1.224646799
147353e-16 0.0 -2.999519565323715e-32 -2.449293598294707e-16 1.0 81 1 42 27 6 40
 0 0 63 5 43 83 3 43 0.26274511218071 0.26274511218071 0.26274511218071 15 44 28
 0 45 40 0 17 45 0 44 51 29 46 50 48 0 56 -18 46 29 0 45 31 52 47 ?2 29 47 30 0
 46 53 32 0.0025869992 -0.0031539996 0.0024 16 48 31 0 ?50 37 54 49 0 0 2 30 49
 32 0 48 55 38 0 +0.0025869992 -0.0031539996 0.0024 1.224646799147353e-16 1.0 2.
449293598294707e-16 17 50 0 99 21 71 17 45 48 0 0 +17 51 0 44 57 45 52 56 54 0 0
 -18 52 33 0 60 46 67 53 ?2 29 53 34 0 52 68 47 0.0025869992 -0.0031539996 0.002
451 16 54 35 0 ?56 48 58 55 0 0 2 30 55 36 0 54 59 49 0 +0.0025869992 -0.0031539
996 0.002451 2.999519565323715e-32 2.449293598294707e-16 -1.0 17 56 0 65 66 78 4
6 51 54 0 71 +17 57 0 44 29 51 25 60 58 0 35 -16 58 37 0 ?60 54 69 59 0 0 2 30 5
9 38 0 58 70 55 0 +0.0025869992 0.0027540004 0.002451 -1.224646799147353e-16 -1.
0 -2.449293598294707e-16 17 60 0 104 81 35 52 57 58 0 78 +14 61 39 63 1.0e-08 82
 40 65 12 62 +0 0 82 40 10 50 62 40 0 61 83 41 0 +0.0025869992 -0.0031539996 0.0
024 -1.224646799147353e-16 -1.0 -2.449293598294707e-16 -2.999519565323715e-32 -2
.449293598294707e-16 1.0 81 1 63 41 6 61 0 0 84 42 64 83 3 64 0.26274511218071 0
.26274511218071 0.26274511218071 15 65 42 0 66 61 0 17 66 0 65 72 56 67 71 69 0
 0 -18 67 43 0 77 52 73 68 ?2 29 68 44 0 67 74 53 0.0041499992 -0.0031539996 0.0
024 16 69 45 0 ?71 58 75 70 0 0 2 30 70 46 0 69 76 59 0 +0.0041499992 -0.0031539
996 0.0024 -1.0 1.224646799147353e-16 0.0 17 71 0 99 50 90 46 66 69 0 0 +17 72 0
 65 78 66 73 77 75 0 91 -18 73 47 0 81 67 0 74 ?2 29 74 48 0 73 0 68 0.004149999
2 -0.0031539996 0.002451 16 75 49 0 ?77 69 79 76 0 0 2 30 76 50 0 75 80 70 0 +0.
0041499992 -0.0031539996 0.002451 2.999519565323715e-32 2.449293598294707e-16 -1
.0 17 77 0 86 87 91 67 72 75 0 90 +17 78 0 65 56 72 52 81 79 0 51 -16 79 51 0 ?8
1 75 88 80 0 0 2 30 80 52 0 79 89 76 0 +0.0025869992 -0.0031539996 0.002451 1.0
 -1.224646799147353e-16 0.0 17 81 0 104 94 60 73 78 79 0 72 +14 82 53 84 1.0e-08
 95 61 86 12 83 +0 0 95 61 10 50 83 54 0 82 96 62 0 +0.0041499992 -0.0031539996
 0.0024 1.0 -1.224646799147353e-16 0.0 -2.999519565323715e-32 -2.449293598294707
e-16 1.0 81 1 84 55 6 82 0 0 97 63 85 83 3 85 0.26274511218071 0.26274511218071
 0.26274511218071 15 86 56 0 87 82 0 17 87 0 86 39 77 22 90 88 0 0 -16 88 57 0 ?
90 79 92 89 0 0 2 30 89 58 0 88 93 80 0 +0.0041499992 0.0027540004 0.0024 -1.224
646799147353e-16 -1.0 -2.449293598294707e-16 17 90 0 99 71 21 67 87 88 0 66 +17
 91 0 86 77 39 73 94 92 0 0 -16 92 59 0 ?94 88 0 93 0 0 2 30 93 60 0 92 0 89 0 +
0.0041499992 -0.0031539996 0.002451 1.224646799147353e-16 1.0 2.449293598294707e
-16 17 94 0 104 35 81 31 91 92 0 0 +14 95 61 97 1.0e-08 100 82 99 12 96 +0 0 100
 82 10 50 96 62 0 95 101 83 0 +0.0041499992 -0.0031539996 0.0024 2.9995195653237
15e-32 2.449293598294707e-16 -1.0 -1.224646799147353e-16 -1.0 -2.449293598294707
e-16 81 1 97 63 6 95 0 0 102 84 98 83 3 98 0.26274511218071 0.26274511218071 0.2
6274511218071 15 99 64 0 71 95 0 14 100 65 102 1.0e-08 0 95 104 12 101 +0 0 0 95
 10 50 101 66 0 100 0 96 0 +0.0041499992 0.0027540004 0.002451 -2.99951956532371
5e-32 -2.449293598294707e-16 1.0 -1.224646799147353e-16 -1.0 -2.449293598294707e
-16 81 1 102 67 6 100 0 0 0 97 103 83 3 103 0.26274511218071 0.26274511218071 0.
26274511218071 15 104 68 0 35 100 0 12 105 210 0 106 0 0 0 0 1000.0 1.0e-08 0 0
 0 1 0 1 1 113 115 121 119 110 120 118 70 106 0 105 0 0 4 1 20 0 107 107 1 T74 2
0 107 1 0 108 0 0 0 0 0 0 0 0 0 0 0 0 0 0 0 0 0 0 0 81 1 108 7 6 114 0 0 144 0 1
09 83 3 109 0.26274511218071 0.26274511218071 0.26274511218071 19 110 1 0 105 11
2 0 111 V13 111 2 0 105 0 0 0 0 110 114 19 112 3 0 105 0 110 113 S13 113 4 0 105
 0 114 0 0 112 0 14 114 5 108 1.0e-08 141 0 116 113 115 +0 0 141 0 111 50 115 6
 0 114 142 0 0 +0.0043059992 0.0029100004 0.0024 -2.999519565323715e-32 -2.44929
3598294707e-16 1.0 -1.224646799147353e-16 -1.0 -2.449293598294707e-16 15 116 8 0
 117 114 0 17 117 0 116 125 137 118 122 120 0 130 -18 118 9 0 117 0 123 119 ?105
 29 119 10 0 118 124 0 -0.0035060008 0.0029100004 0.0024 16 120 11 0 ?122 0 128
 121 0 0 105 30 121 12 0 120 129 0 0 +-0.0035060008 0.0029100004 0.0024 1.0 -1.2
24646799147353e-16 0.0 17 122 0 271 265 187 123 117 120 0 137 +18 123 13 0 122 1
18 126 124 ?105 29 124 14 0 123 127 119 0.0043059992 0.0029100004 0.0024 17 125
 0 116 131 117 126 130 128 0 136 -18 126 15 0 125 123 132 127 ?105 29 127 16 0 1
26 133 124 -0.0035060008 -0.0033099996 0.0024 16 128 17 0 ?130 120 134 129 0 0 1
05 30 129 18 0 128 135 121 0 +-0.0035060008 -0.0033099996 0.0024 1.2246467991473
53e-16 1.0 2.449293598294707e-16 17 130 0 146 182 176 118 125 128 0 187 +17 131
 0 116 137 125 132 136 134 0 221 -18 132 19 0 131 126 148 133 ?105 29 133 20 0 1
32 149 127 0.0043059992 -0.0033099996 0.0024 16 134 21 0 ?136 128 138 135 0 0 10
5 30 135 22 0 134 139 129 0 +0.0043059992 -0.0033099996 0.0024 -1.0 1.2246467991
47353e-16 0.0 17 136 0 193 181 221 126 131 134 0 176 +17 137 0 116 117 131 123 1
40 138 0 260 -16 138 23 0 ?140 134 150 139 0 0 105 30 139 24 0 138 154 135 0 +0.
0043059992 0.0029100004 0.0024 -1.224646799147353e-16 -1.0 -2.449293598294707e-1
6 17 140 0 232 226 260 132 137 138 0 0 +14 141 25 144 1.0e-08 188 114 146 113 14
2 +0 0 188 114 111 50 142 26 0 141 189 115 143 +-0.0035060008 0.0029100004 0.001
06 -1.0 1.224646799147353e-16 0.0 -2.999519565323715e-32 -2.449293598294707e-16
 1.0 141 143 168 143 143 142 81 1 144 27 6 141 0 0 191 108 145 83 3 145 0.262745
11218071 0.26274511218071 0.26274511218071 15 146 28 0 147 141 0 17 147 0 146 17
6 182 148 151 150 167 181 -18 148 29 0 147 132 152 149 3.659727366103481e-07 105
 29 149 30 0 148 153 133 -0.0035060008 -0.0033099996 0.00106 16 150 31 0 3.65972
7366098405e-07 151 138 177 0 0 0 105 17 151 0 300 332 311 152 147 150 154 272 +1
8 152 32 0 151 148 195 153 4.46024472740529e-07 105 29 153 33 0 152 196 149 -0.0
035060008 0.0029100004 0.00106 133 154 34 0 151 155 139 0 +155 -0.00350636234689
9 -0.0033099996 0.001059943279586 -0.003506362346899 0.0029100004 0.001059943279
586 0.0 6.22 137 155 35 0 105 167 154 156 +157 161 0 0.0 141 156 154 156 156 155
 50 157 82 0 297 202 267 158 +-0.0033680008 0.0027720004 1.780000000000007e-04 -
0.987916524580361 1.589457241830412e-16 -0.154986904159874 -0.154986904159874 -2
.229893403215084e-16 0.987916524580361 141 158 324 159 160 157 141 159 155 160 1
58 157 141 160 345 158 159 157 134 161 0 0 0 0 0 0 +162 166 136 162 1 2 2 2 1 FF
F1 163 164 165 45 4 163 8.92730567453941e-04 -0.006082 8.92730567453941e-04 1.37
9999999999999e-04 127 2 164 2 2 128 2 165 0.0 6.22 135 166 1 0 133 167 36 0 147
 168 155 0 +168 -0.0035060008 0.0029100004 0.00106 -0.0035060008 -0.0033099996 0
.00106 6.22 0.0 137 168 37 0 105 178 167 169 -142 170 0 0.0 141 169 167 169 169
 168 134 170 0 0 0 0 0 0 +171 175 136 171 1 2 2 2 1 FFF1 172 173 174 45 4 172 0.
0 -0.00622 0.0 0.0 127 2 173 2 2 128 2 174 0.0 6.22 135 175 1 0 17 176 0 146 130
 147 126 181 177 0 0 -16 177 38 0 ?181 150 183 178 0 0 105 133 178 39 0 177 179
 168 0 +179 -0.0035060008 -0.0033099996 0.0024 -0.0035060008 -0.0033099996 0.001
06 0.0 0.00134 30 179 40 0 105 184 178 180 +-0.0035060008 -0.0033099996 0.0024 2
.999519565323715e-32 2.449293598294707e-16 -1.0 141 180 178 180 180 179 17 181 0
 193 194 136 148 176 177 0 311 +17 182 0 146 147 130 152 187 183 0 0 -16 183 41
 0 ?187 177 197 184 0 0 105 133 184 42 0 183 185 179 0 +185 -0.0035060008 0.0029
100004 0.00106 -0.0035060008 0.0029100004 0.0024 0.0 0.00134 30 185 43 0 105 199
 184 186 +-0.0035060008 0.0029100004 0.00106 -2.999519565323715e-32 -2.449293598
294707e-16 1.0 141 186 184 186 186 185 17 187 0 271 122 272 118 182 183 0 0 +14
 188 44 191 1.0e-08 227 141 193 113 189 +0 0 227 141 111 50 189 45 0 188 228 142
 190 +-0.0035060008 -0.0033099996 0.00106 -1.224646799147353e-16 -1.0 -2.4492935
98294707e-16 -2.999519565323715e-32 -2.449293598294707e-16 1.0 141 190 213 190 1
90 189 81 1 191 46 6 188 0 0 230 144 192 83 3 192 0.26274511218071 0.26274511218
071 0.26274511218071 15 193 47 0 194 188 0 17 194 0 193 221 181 195 198 197 212
 0 -18 195 48 0 379 152 234 196 3.659727366103481e-07 105 29 196 49 0 195 235 15
3 0.0043059992 -0.0033099996 0.00106 16 197 50 0 3.659727366103481e-07 198 183 2
22 0 0 0 105 17 198 0 356 313 379 148 194 197 199 0 +133 199 51 0 198 200 185 0
 +200 0.0043059992 -0.003310361146899 0.001059943279586 -0.0035060008 -0.0033103
61146899 0.001059943279586 0.0 7.812 137 200 52 0 105 212 199 201 +202 206 0 0.0
 141 201 199 201 201 200 50 202 103 0 353 241 157 203 +-0.0033680008 -0.00317199
96 1.779999999999993e-04 -1.209848809652116e-16 -0.987916524580361 -0.1549869041
59875 -1.898042160891481e-17 -0.154986904159875 0.987916524580361 141 203 392 20
4 205 202 141 204 200 205 203 202 141 205 315 203 204 202 134 206 0 0 0 0 0 0 +2
07 211 136 207 1 2 2 2 1 FFF1 208 209 210 45 4 208 8.927305674539406e-04 -0.0076
74 8.927305674539406e-04 1.380000000000008e-04 127 2 209 2 2 128 2 210 0.0 7.812
 135 211 1 0 133 212 53 0 194 213 200 0 +213 -0.0035060008 -0.0033099996 0.00106
 0.0043059992 -0.0033099996 0.00106 7.812 0.0 137 213 54 0 105 223 212 214 -189
 215 0 0.0 141 214 212 214 214 213 134 215 0 0 0 0 0 0 +216 220 136 216 1 2 2 2
 1 FFF1 217 218 219 45 4 217 0.0 -0.007812 0.0 0.0 127 2 218 2 2 128 2 219 0.0 7
.812 135 220 1 0 17 221 0 193 136 194 132 226 222 0 140 -16 222 55 0 ?226 197 23
6 223 0 0 105 133 223 56 0 222 224 213 0 +224 0.0043059992 -0.0033099996 0.0024
 0.0043059992 -0.0033099996 0.00106 0.0 0.00134 30 224 57 0 105 238 223 225 +0.0
043059992 -0.0033099996 0.0024 2.999519565323715e-32 2.449293598294707e-16 -1.0
 141 225 223 225 225 224 17 226 0 232 233 140 195 221 222 0 237 +14 227 58 230 1
.0e-08 266 188 232 113 228 +0 0 266 188 111 50 228 59 0 227 267 189 229 +0.00430
59992 -0.0033099996 0.00106 1.0 -1.224646799147353e-16 0.0 -2.999519565323715e-3
2 -2.449293598294707e-16 1.0 141 229 252 229 229 228 81 1 230 60 6 227 0 0 269 1
91 231 83 3 231 0.26274511218071 0.26274511218071 0.26274511218071 15 232 61 0 2
33 227 0 17 233 0 232 260 226 234 237 236 251 0 -18 234 62 0 265 195 302 235 3.6
59727366107523e-07 105 29 235 63 0 234 303 196 0.0043059992 0.0029100004 0.00106
 16 236 64 0 3.659727366102792e-07 237 222 261 0 0 0 105 17 237 0 403 381 412 19
5 233 236 238 194 +133 238 65 0 237 239 224 0 +239 0.004306360746899 0.002910000
4 0.001059943279586 0.004306360746899 -0.0033099996 0.001059943279586 0.0 6.22 1
37 239 66 0 105 251 238 240 +241 245 0 0.0 141 240 238 240 240 239 50 241 126 0
 400 278 202 242 +0.0041679992 -0.0031719996 1.779999999999993e-04 0.98791652458
0361 -8.302403774738204e-17 -0.154986904159874 0.154986904159874 -2.609501835393
38e-16 0.987916524580361 141 242 425 243 244 241 141 243 239 244 242 241 141 244
 383 242 243 241 134 245 0 0 0 0 0 0 +246 250 136 246 1 2 2 2 1 FFF1 247 248 249
 45 4 247 8.92730567453941e-04 -0.006082 8.92730567453941e-04 1.379999999999999e
-04 127 2 248 2 2 128 2 249 0.0 6.22 135 250 1 0 133 251 67 0 233 252 239 0 +252
 0.0043059992 -0.0033099996 0.00106 0.0043059992 0.0029100004 0.00106 6.22 0.0 1
37 252 68 0 105 262 251 253 -228 254 0 0.0 141 253 251 253 253 252 134 254 0 0 0
 0 0 0 +255 259 136 255 1 2 2 2 1 FFF1 256 257 258 45 4 256 0.0 -0.00622 0.0 0.0
 127 2 257 2 2 128 2 258 0.0 6.22 135 259 1 0 17 260 0 232 140 233 123 265 261 0
 0 -16 261 69 0 ?265 236 273 262 0 0 105 133 262 70 0 261 263 252 0 +263 0.00430
59992 0.0029100004 0.0024 0.0043059992 0.0029100004 0.00106 0.0 0.00134 30 263 7
1 0 105 275 262 264 +0.0043059992 0.0029100004 0.0024 2.999519565323715e-32 2.44
9293598294707e-16 -1.0 141 264 262 264 264 263 17 265 0 271 272 122 234 260 261
 0 412 +14 266 72 269 1.0e-08 297 227 271 113 267 +0 0 297 227 111 50 267 73 0 2
66 157 228 268 +0.0043059992 0.0029100004 0.00106 1.224646799147353e-16 1.0 2.44
9293598294707e-16 -2.999519565323715e-32 -2.449293598294707e-16 1.0 141 268 289
 268 268 267 81 1 269 74 6 266 0 0 298 230 270 83 3 270 0.26274511218071 0.26274
511218071 0.26274511218071 15 271 75 0 272 266 0 17 272 0 271 187 265 152 274 27
3 288 334 -16 273 76 0 3.659727366107523e-07 274 261 304 0 0 0 105 17 274 0 436
 414 334 234 272 273 275 233 +133 275 77 0 274 276 263 0 +276 -0.0035060008 0.00
2910361946899 0.001059943279586 0.0043059992 0.002910361946899 0.001059943279586
 0.0 7.812 137 276 78 0 105 288 275 277 +278 282 0 0.0 141 277 275 277 277 276 5
0 278 140 0 433 458 241 279 +0.0041679992 0.0027720004 1.780000000000007e-04 1.2
09848809652116e-16 0.987916524580361 -0.154986904159874 1.898042160891475e-17 0.
154986904159874 0.987916524580361 141 279 336 280 281 278 141 280 276 281 279 27
8 141 281 416 279 280 278 134 282 0 0 0 0 0 0 +283 287 136 283 1 2 2 2 1 FFF1 28
4 285 286 45 4 284 8.927305674539406e-04 -0.007674 8.927305674539406e-04 1.38000
0000000008e-04 127 2 285 2 2 128 2 286 0.0 7.812 135 287 1 0 133 288 79 0 272 28
9 276 0 +289 0.0043059992 0.0029100004 0.00106 -0.0035060008 0.0029100004 0.0010
6 7.812 0.0 137 289 80 0 105 305 288 290 -267 291 0 0.0 141 290 288 290 290 289
 134 291 0 0 0 0 0 0 +292 296 136 292 1 2 2 2 1 FFF1 293 294 295 45 4 293 0.0 -0
.007812 0.0 0.0 127 2 294 2 2 128 2 295 0.0 7.812 135 296 1 0 14 297 81 298 1.0e
-08 353 266 300 113 157 +0 0 353 266 111 81 1 298 83 6 297 0 0 354 269 299 83 3
 299 0.26274511218071 0.26274511218071 0.26274511218071 15 300 84 0 301 297 0 17
 301 0 300 311 332 302 308 304 0 313 -18 302 85 0 301 234 309 303 3.659727366099
093e-07 105 29 303 86 0 302 310 235 -0.0033680008 -0.0031719996 1.77999999999999
3e-04 16 304 87 0 ?308 273 312 305 0 0 105 133 305 88 0 304 306 289 0 +306 -0.00
33680008 -0.0031719996 1.779999999999993e-04 -0.0033680008 0.0027720004 1.780000
000000007e-04 0.0 0.005944 30 306 89 0 105 314 305 307 +-0.0033680008 -0.0031719
996 1.779999999999993e-04 1.224646799147353e-16 1.0 2.449293598294707e-16 141 30
7 305 307 307 306 17 308 0 529 456 364 309 301 304 0 451 +18 309 90 0 308 302 35
8 310 1.048106722323525e-07 105 29 310 91 0 309 359 303 -0.0033680008 0.00277200
04 1.780000000000007e-04 17 311 0 300 151 301 148 313 312 323 198 -16 312 92 0 3
.659727366099093e-07 313 304 333 0 0 0 105 17 313 0 356 357 198 302 311 312 314
 364 +133 314 93 0 313 315 306 0 +315 -0.0035060008 -0.003310361146899 0.0010599
43279586 -0.003367748838381 -0.00317200564212 1.780385136403409e-04 0.0 0.903333
75160639 137 315 94 0 105 323 314 316 +202 317 0 0.0 141 316 314 316 316 315 134
 317 0 0 0 0 0 0 +318 322 136 318 1 2 2 2 1 FFF1 319 320 321 45 4 319 8.92730567
4539406e-04 1.380000000000003e-04 3.898471114038848e-08 -2.51961618742691e-07 12
7 2 320 2 2 128 2 321 0.0 0.90333375160639 135 322 1 0 133 323 95 0 311 324 315
 0 +324 -0.00336800684212 -0.003171747638381 1.780385136403411e-04 -0.0035063623
46899 -0.0033099996 0.001059943279586 0.90333375160639 0.0 137 324 96 0 105 335
 323 325 -157 326 0 0.0 141 325 323 325 325 324 134 326 0 0 0 0 0 0 +327 331 136
 327 1 2 2 2 1 FFF1 328 329 330 45 4 328 8.92730567453941e-04 -0.006082 3.898471
114061053e-08 -0.005943748038381 127 2 329 2 2 128 2 330 0.0 0.90333375160639 13
5 331 1 0 17 332 0 300 301 151 309 334 333 344 0 -16 333 97 0 1.048106722323525e
-07 334 312 360 0 0 0 105 17 334 0 436 274 451 152 332 333 335 182 +133 335 98 0
 334 336 324 0 +336 -0.0033680008 0.0027720004 1.780000000000007e-04 -0.00350625
2761619 0.002910355904779 0.001059904765945 0.0 0.90333375160639 137 336 99 0 10
5 344 335 337 +278 338 0 0.0 141 337 335 337 337 336 134 338 0 0 0 0 0 0 +339 34
3 136 339 1 2 2 2 1 FFF1 340 341 342 45 4 340 0.0 -0.007536 8.926915827428003e-0
4 -0.007674251961619 127 2 341 2 2 128 2 342 0.0 0.90333375160639 135 343 1 0 13
3 344 100 0 332 345 336 0 +345 -0.003506356304779 0.002910252361619 0.0010599047
65945 -0.0033680008 0.0027720004 1.780000000000007e-04 0.90333375160639 0.0 137
 345 101 0 105 361 344 346 -157 347 0 0.0 141 346 344 346 346 345 134 347 0 0 0
 0 0 0 +348 352 136 348 1 2 2 2 1 FFF1 349 350 351 45 4 349 0.0 0.0 8.9269158274
28003e-04 1.38251961618743e-04 127 2 350 2 2 128 2 351 0.0 0.90333375160639 135
 352 1 0 14 353 102 354 1.0e-08 400 297 356 113 202 +0 0 400 297 111 81 1 354 10
4 6 353 0 0 401 298 355 83 3 355 0.26274511218071 0.26274511218071 0.26274511218
071 15 356 105 0 357 353 0 17 357 0 356 365 313 358 364 360 0 370 -18 358 106 0
 470 309 366 359 ?105 29 359 107 0 358 367 310 -0.0018900008 -0.0031719996 1.779
999999999993e-04 16 360 108 0 ?364 333 368 361 0 0 105 133 361 109 0 360 362 345
 0 +362 -0.0018900008 -0.0031719996 1.779999999999993e-04 -0.0033680008 -0.00317
19996 1.779999999999993e-04 0.0 0.001478 30 362 110 0 105 369 361 363 +-0.001890
0008 -0.0031719996 1.779999999999993e-04 -1.0 1.224646799147353e-16 0.0 141 363
 361 363 363 362 17 364 0 529 308 477 302 357 360 0 0 +17 365 0 356 371 357 366
 370 368 0 0 -18 366 111 0 378 358 372 367 ?105 29 367 112 0 366 373 359 0.00268
99992 -0.0031719996 1.779999999999993e-04 16 368 113 0 ?370 360 374 369 0 0 105
 30 369 114 0 368 375 362 0 +0.0026899992 -0.0031719996 1.779999999999993e-04 -1
.0 1.224646799147353e-16 0.0 17 370 0 539 473 506 358 365 368 0 0 +17 371 0 356
 379 365 372 378 374 0 381 -18 372 115 0 371 366 405 373 3.659727366103481e-07 1
05 29 373 116 0 372 406 367 0.0041679992 -0.0031719996 1.779999999999993e-04 16
 374 117 0 ?378 368 380 375 0 0 105 133 375 118 0 374 376 369 0 +376 0.004167999
2 -0.0031719996 1.779999999999993e-04 0.0026899992 -0.0031719996 1.7799999999999
93e-04 0.0 0.001478 30 376 119 0 105 382 375 377 +0.0041679992 -0.0031719996 1.7
79999999999993e-04 -1.0 1.224646799147353e-16 0.0 141 377 375 377 377 376 17 378
 0 524 502 411 366 371 374 0 506 +17 379 0 356 198 371 195 381 380 391 226 -16 3
80 120 0 3.659727366103481e-07 381 374 407 0 0 0 105 17 381 0 403 404 237 372 37
9 380 382 411 +133 382 121 0 381 383 376 0 +383 0.004306360746899 -0.0033099996
 0.001059943279586 0.00416800524212 -0.003171747638381 1.780385136403411e-04 0.0
 0.90333375160639 137 383 122 0 105 391 382 384 +241 385 0 0.0 141 384 382 384 3
84 383 134 385 0 0 0 0 0 0 +386 390 136 386 1 2 2 2 1 FFF1 387 388 389 45 4 387
 8.92730567453941e-04 1.379999999999999e-04 3.898471114061053e-08 -2.51961618743
1351e-07 127 2 388 2 2 128 2 389 0.0 0.90333375160639 135 390 1 0 133 391 123 0
 379 392 383 0 +392 0.004167747238381 -0.00317200564212 1.780385136403409e-04 0.
0043059992 -0.003310361146899 0.001059943279586 0.90333375160639 0.0 137 392 124
 0 105 408 391 393 -202 394 0 0.0 141 393 391 393 393 392 134 394 0 0 0 0 0 0 +3
95 399 136 395 1 2 2 2 1 FFF1 396 397 398 45 4 396 8.927305674539406e-04 -0.0076
74 3.898471114038848e-08 -0.007535748038381 127 2 397 2 2 128 2 398 0.0 0.903333
75160639 135 399 1 0 14 400 125 401 1.0e-08 433 353 403 113 241 +0 0 433 353 111
 81 1 401 127 6 400 0 0 434 354 402 83 3 402 0.26274511218071 0.26274511218071 0
.26274511218071 15 403 128 0 404 400 0 17 404 0 403 412 381 405 411 407 0 444 -1
8 405 129 0 404 372 438 406 3.659727366103137e-07 105 29 406 130 0 405 439 373 0
.0041679992 0.0027720004 1.780000000000007e-04 16 407 131 0 ?411 380 413 408 0 0
 105 133 408 132 0 407 409 392 0 +409 0.0041679992 0.0027720004 1.78000000000000
7e-04 0.0041679992 -0.0031719996 1.779999999999993e-04 0.0 0.005944 30 409 133 0
 105 415 408 410 +0.0041679992 0.0027720004 1.780000000000007e-04 -1.22464679914
7353e-16 -1.0 -2.449293598294707e-16 141 410 408 410 410 409 17 411 0 524 378 44
4 372 404 407 0 0 +17 412 0 403 237 404 234 414 413 424 274 -16 413 134 0 3.6597
27366103137e-07 414 407 440 0 0 0 105 17 414 0 436 437 274 405 412 413 415 0 +13
3 415 135 0 414 416 409 0 +416 0.0043059992 0.002910361946899 0.001059943279586
 0.004167747238381 0.00277200644212 1.780385136403423e-04 0.0 0.90333375160639 1
37 416 136 0 105 424 415 417 +278 418 0 0.0 141 417 415 417 417 416 134 418 0 0
 0 0 0 0 +419 423 136 419 1 2 2 2 1 FFF1 420 421 422 45 4 420 8.927305674539406e
-04 1.380000000000003e-04 3.898471114038848e-08 -2.51961618742691e-07 127 2 421
 2 2 128 2 422 0.0 0.90333375160639 135 423 1 0 133 424 137 0 412 425 416 0 +425
 0.00416800524212 0.002771748438381 1.780385136403426e-04 0.004306360746899 0.00
29100004 0.001059943279586 0.90333375160639 0.0 137 425 138 0 105 441 424 426 -2
41 427 0 0.0 141 426 424 426 426 425 134 427 0 0 0 0 0 0 +428 432 136 428 1 2 2
 2 1 FFF1 429 430 431 45 4 429 8.92730567453941e-04 -0.006082 3.898471114061053e
-08 -0.005943748038381 127 2 430 2 2 128 2 431 0.0 0.90333375160639 135 432 1 0
 14 433 139 434 1.0e-08 457 400 436 113 278 +0 0 457 400 111 81 1 434 141 6 433
 0 0 459 401 435 83 3 435 0.26274511218071 0.26274511218071 0.26274511218071 15
 436 142 0 437 433 0 17 437 0 436 445 414 438 444 440 0 495 -18 438 143 0 437 40
5 446 439 ?105 29 439 144 0 438 447 406 0.0026899992 0.0027720004 1.780000000000
007e-04 16 440 145 0 ?444 413 448 441 0 0 105 133 441 146 0 440 442 425 0 +442 0
.0026899992 0.0027720004 1.780000000000007e-04 0.0041679992 0.0027720004 1.78000
0000000007e-04 0.0 0.001478 30 442 147 0 105 449 441 443 +0.0026899992 0.0027720
004 1.780000000000007e-04 1.0 -1.224646799147353e-16 0.0 141 443 441 443 443 442
 17 444 0 524 411 502 405 437 440 0 414 +17 445 0 436 451 437 446 450 448 0 0 -1
8 446 148 0 474 438 463 447 ?105 29 447 149 0 446 464 439 -0.0018900008 0.002772
0004 1.780000000000007e-04 16 448 150 0 ?450 440 452 449 0 0 105 30 449 151 0 44
8 453 442 0 +-0.0018900008 0.0027720004 1.780000000000007e-04 1.0 -1.22464679914
7353e-16 0.0 17 450 0 534 498 481 438 445 448 0 502 +17 451 0 436 334 445 309 45
6 452 0 332 -16 452 152 0 ?456 448 465 453 0 0 105 133 453 153 0 452 454 449 0 +
454 -0.0033680008 0.0027720004 1.780000000000007e-04 -0.0018900008 0.0027720004
 1.780000000000007e-04 0.0 0.001478 30 454 154 0 105 466 453 455 +-0.0033680008
 0.0027720004 1.780000000000007e-04 1.0 -1.224646799147353e-16 0.0 141 455 453 4
55 455 454 17 456 0 529 477 308 446 451 452 0 445 +14 457 155 459 1.0e-08 482 43
3 461 113 458 +0 0 482 433 111 50 458 156 0 457 483 278 0 +-0.0018900008 0.00277
20004 7.279300574131867e-19 -1.0 1.224646799147353e-16 0.0 -2.999519565323715e-3
2 -2.449293598294707e-16 1.0 81 1 459 157 6 457 0 0 484 434 460 83 3 460 0.26274
511218071 0.26274511218071 0.26274511218071 15 461 158 0 462 457 0 17 462 0 461
 470 478 463 467 465 0 512 -18 463 159 0 473 446 468 464 ?105 29 464 160 0 463 4
69 447 -0.0018900008 -0.0031719996 -7.279300574131867e-19 16 465 161 0 ?467 452
 471 466 0 0 105 30 466 162 0 465 472 454 0 +-0.0018900008 -0.0031719996 -7.2793
00574131867e-19 1.224646799147353e-16 1.0 2.449293598294707e-16 17 467 0 511 516
 512 468 462 465 0 519 +18 468 163 0 478 463 488 469 ?105 29 469 164 0 468 489 4
64 -0.0018900008 0.0027720004 7.279300574131867e-19 17 470 0 461 474 462 358 473
 471 0 477 -16 471 165 0 ?473 465 475 472 0 0 105 30 472 166 0 471 476 466 0 +-0
.0018900008 -0.0031719996 1.779999999999993e-04 2.999519565323715e-32 2.44929359
8294707e-16 -1.0 17 473 0 539 515 370 463 470 471 0 462 +17 474 0 461 478 470 44
6 477 475 0 481 -16 475 167 0 ?477 471 479 476 0 0 105 30 476 168 0 475 480 472
 0 +-0.0018900008 0.0027720004 1.780000000000007e-04 -1.224646799147353e-16 -1.0
 -2.449293598294707e-16 17 477 0 529 364 456 358 474 475 0 357 +17 478 0 461 462
 474 468 481 479 0 467 -16 479 169 0 ?481 475 490 480 0 0 105 30 480 170 0 479 4
91 476 0 +-0.0018900008 0.0027720004 7.279300574131867e-19 -2.999519565323715e-3
2 -2.449293598294707e-16 1.0 17 481 0 534 450 519 446 478 479 0 456 +14 482 171
 484 1.0e-08 507 457 486 113 483 +0 0 507 457 111 50 483 172 0 482 508 458 0 +0.
0026899992 -0.0031719996 -7.279300574131867e-19 1.0 -1.224646799147353e-16 0.0 -
2.999519565323715e-32 -2.449293598294707e-16 1.0 81 1 484 173 6 482 0 0 509 459
 485 83 3 485 0.26274511218071 0.26274511218071 0.26274511218071 15 486 174 0 48
7 482 0 17 487 0 486 495 503 488 492 490 0 516 -18 488 175 0 498 468 493 489 ?10
5 29 489 176 0 488 494 469 0.0026899992 0.0027720004 7.279300574131867e-19 16 49
0 177 0 ?492 479 496 491 0 0 105 30 491 178 0 490 497 480 0 +0.0026899992 0.0027
720004 7.279300574131867e-19 -1.224646799147353e-16 -1.0 -2.449293598294707e-16
 17 492 0 511 512 516 493 487 490 0 503 +18 493 179 0 492 488 0 494 ?105 29 494
 180 0 493 0 489 0.0026899992 -0.0031719996 -7.279300574131867e-19 17 495 0 486
 499 487 438 498 496 0 450 -16 496 181 0 ?498 490 500 497 0 0 105 30 497 182 0 4
96 501 491 0 +0.0026899992 0.0027720004 1.780000000000007e-04 2.999519565323715e
-32 2.449293598294707e-16 -1.0 17 498 0 534 519 450 488 495 496 0 487 +17 499 0
 486 503 495 366 502 500 0 365 -16 500 183 0 ?502 496 504 501 0 0 105 30 501 184
 0 500 505 497 0 +0.0026899992 -0.0031719996 1.779999999999993e-04 1.22464679914
7353e-16 1.0 2.449293598294707e-16 17 502 0 524 444 378 438 499 500 0 0 +17 503
 0 486 487 499 493 506 504 0 515 -16 504 185 0 ?506 500 513 505 0 0 105 30 505 1
86 0 504 514 501 0 +0.0026899992 -0.0031719996 -7.279300574131867e-19 -2.9995195
65323715e-32 -2.449293598294707e-16 1.0 17 506 0 539 370 515 366 503 504 0 499 +
14 507 187 509 1.0e-08 520 482 511 113 508 +0 0 520 482 111 50 508 188 0 507 521
 483 0 +0.0026899992 -0.0031719996 -7.279300574131867e-19 2.999519565323715e-32
 2.449293598294707e-16 -1.0 -1.224646799147353e-16 -1.0 -2.449293598294707e-16 8
1 1 509 189 6 507 0 0 522 484 510 83 3 510 0.26274511218071 0.26274511218071 0.2
6274511218071 15 511 190 0 512 507 0 17 512 0 511 467 492 463 515 513 0 0 -16 51
3 191 0 ?515 504 517 514 0 0 105 30 514 192 0 513 518 505 0 +-0.0018900008 -0.00
31719996 -7.279300574131867e-19 1.0 -1.224646799147353e-16 0.0 17 515 0 539 506
 473 493 512 513 0 0 +17 516 0 511 492 467 488 519 517 0 0 -16 517 193 0 ?519 51
3 0 518 0 0 105 30 518 194 0 517 0 514 0 +0.0026899992 0.0027720004 7.2793005741
31867e-19 -1.0 1.224646799147353e-16 0.0 17 519 0 534 481 498 468 516 517 0 0 +1
4 520 195 522 1.0e-08 525 507 524 113 521 +0 0 525 507 111 50 521 196 0 520 526
 508 0 +0.0041679992 -0.0031719996 1.779999999999993e-04 2.999519565323715e-32 2
.449293598294707e-16 -1.0 -1.224646799147353e-16 -1.0 -2.449293598294707e-16 81
 1 522 197 6 520 0 0 527 509 523 83 3 523 0.26274511218071 0.26274511218071 0.26
274511218071 15 524 198 0 378 520 0 14 525 199 527 1.0e-08 530 520 529 113 526 +
0 0 530 520 111 50 526 200 0 525 531 521 0 +-0.0018900008 -0.0031719996 1.779999
999999993e-04 2.999519565323715e-32 2.449293598294707e-16 -1.0 -1.22464679914735
3e-16 -1.0 -2.449293598294707e-16 81 1 527 201 6 525 0 0 532 522 528 83 3 528 0.
26274511218071 0.26274511218071 0.26274511218071 15 529 202 0 364 525 0 14 530 2
03 532 1.0e-08 535 525 534 113 531 +0 0 535 525 111 50 531 204 0 530 536 526 0 +
0.0026899992 0.0027720004 7.279300574131867e-19 1.224646799147353e-16 1.0 2.4492
93598294707e-16 -2.999519565323715e-32 -2.449293598294707e-16 1.0 81 1 532 205 6
 530 0 0 537 527 533 83 3 533 0.26274511218071 0.26274511218071 0.26274511218071
 15 534 206 0 519 530 0 14 535 207 537 1.0e-08 0 530 539 113 536 +0 0 0 530 111
 50 536 208 0 535 0 531 0 +-0.0018900008 -0.0031719996 -7.279300574131867e-19 -1
.224646799147353e-16 -1.0 -2.449293598294707e-16 -2.999519565323715e-32 -2.44929
3598294707e-16 1.0 81 1 537 209 6 535 0 0 0 532 538 83 3 538 0.26274511218071 0.
26274511218071 0.26274511218071 15 539 210 0 515 535 0 12 540 124 0 541 0 0 0 0
 1000.0 1.0e-08 0 0 0 1 0 1 1 548 550 556 554 545 555 553 70 541 0 540 0 0 4 1 2
0 0 542 542 1 T74 20 542 1 0 543 0 0 0 0 0 0 0 0 0 0 0 0 0 0 0 0 0 0 0 81 1 543
 7 6 549 0 0 578 0 544 83 3 544 0.26274511218071 0.26274511218071 0.262745112180
71 19 545 1 0 540 547 0 546 V13 546 2 0 540 0 0 0 0 545 549 19 547 3 0 540 0 545
 548 S13 548 4 0 540 0 549 0 0 547 0 14 549 5 543 1.0e-08 576 0 551 548 550 +0 0
 576 0 546 50 550 6 0 549 577 0 0 +-0.0036650008 -0.0017899996 0.001264 -2.99951
9565323715e-32 -2.449293598294707e-16 1.0 -1.224646799147353e-16 -1.0 -2.4492935
98294707e-16 15 551 8 0 552 549 0 17 552 0 551 560 572 553 557 555 0 565 -18 553
 9 0 552 0 558 554 ?540 29 554 10 0 553 559 0 -0.0035060008 -0.0017899996 0.0012
64 16 555 11 0 ?557 0 563 556 0 0 540 30 556 12 0 555 564 0 0 +-0.0035060008 -0.
0017899996 0.001264 -1.0 1.224646799147353e-16 0.0 17 557 0 719 621 646 558 552
 555 0 572 +18 558 13 0 557 553 561 559 ?540 29 559 14 0 558 562 554 -0.00366500
08 -0.0017899996 0.001264 17 560 0 551 566 552 561 565 563 0 571 -18 561 15 0 56
0 558 567 562 ?540 29 562 16 0 561 568 559 -0.0035060008 0.0013900004 0.001264 1
6 563 17 0 ?565 555 569 564 0 0 540 30 564 18 0 563 570 556 0 +-0.0035060008 0.0
013900004 0.001264 -1.224646799147353e-16 -1.0 -2.449293598294707e-16 17 565 0 6
30 643 639 553 560 563 0 646 +17 566 0 551 572 560 567 571 569 0 575 -18 567 19
 0 566 561 582 568 ?540 29 568 20 0 567 583 562 -0.0036650008 0.0013900004 0.001
264 16 569 21 0 ?571 563 573 570 0 0 540 30 570 22 0 569 574 564 0 +-0.003665000
8 0.0013900004 0.001264 1.0 -1.224646799147353e-16 0.0 17 571 0 724 642 625 561
 566 569 0 639 +17 572 0 551 552 566 558 575 573 0 618 -16 573 23 0 ?575 569 584
 574 0 0 540 30 574 24 0 573 585 570 0 +-0.0036650008 -0.0017899996 0.001264 1.2
24646799147353e-16 1.0 2.449293598294707e-16 17 575 0 609 622 618 567 572 573 0
 625 +14 576 25 578 1.0e-08 605 549 580 548 577 +0 0 605 549 546 50 577 26 0 576
 606 550 0 +-0.0035380008 -0.0017899996 1.269999999999996e-04 -2.999519565323715
e-32 -2.449293598294707e-16 1.0 -1.224646799147353e-16 -1.0 -2.449293598294707e-
16 81 1 578 27 6 576 0 0 607 543 579 83 3 579 0.26274511218071 0.26274511218071
 0.26274511218071 15 580 28 0 581 576 0 17 581 0 580 589 601 582 586 584 0 594 -
18 582 29 0 667 567 587 583 ?540 29 583 30 0 582 588 568 -0.0021450008 -0.001789
9996 1.269999999999996e-04 16 584 31 0 ?586 573 592 585 0 0 540 30 585 32 0 584
 593 574 0 +-0.0021450008 -0.0017899996 1.269999999999996e-04 -1.0 1.22464679914
7353e-16 0.0 17 586 0 719 688 667 587 581 584 0 601 +18 587 33 0 685 582 590 588
 ?540 29 588 34 0 587 591 583 -0.0035380008 -0.0017899996 1.269999999999996e-04
 17 589 0 580 595 581 590 594 592 0 0 -18 590 35 0 660 587 596 591 ?540 29 591 3
6 0 590 597 588 -0.0021450008 0.0013900004 1.270000000000004e-04 16 592 37 0 ?59
4 584 598 593 0 0 540 30 593 38 0 592 599 585 0 +-0.0021450008 0.0013900004 1.27
0000000000004e-04 -1.224646799147353e-16 -1.0 -2.449293598294707e-16 17 594 0 65
1 664 660 582 589 592 0 0 +17 595 0 580 601 589 596 600 598 0 604 -18 596 39 0 6
78 590 611 597 ?540 29 597 40 0 596 612 591 -0.0035380008 0.0013900004 1.2700000
00000004e-04 16 598 41 0 ?600 592 602 599 0 0 540 30 599 42 0 598 603 593 0 +-0.
0035380008 0.0013900004 1.270000000000004e-04 1.0 -1.224646799147353e-16 0.0 17
 600 0 724 663 678 590 595 598 0 589 +17 601 0 580 581 595 587 604 602 0 0 -16 6
02 43 0 ?604 598 613 603 0 0 540 30 603 44 0 602 614 599 0 +-0.0035380008 -0.001
7899996 1.269999999999996e-04 1.224646799147353e-16 1.0 2.449293598294707e-16 17
 604 0 672 673 685 596 601 602 0 0 +14 605 45 607 1.0e-08 626 576 609 548 606 +0
 0 626 576 546 50 606 46 0 605 627 577 0 +-0.0036650008 0.0013900004 3.894376821
288584e-19 -1.0 1.224646799147353e-16 0.0 -2.999519565323715e-32 -2.449293598294
707e-16 1.0 81 1 607 47 6 605 0 0 628 578 608 83 3 608 0.26274511218071 0.262745
11218071 0.26274511218071 15 609 48 0 610 605 0 17 610 0 609 618 622 611 615 613
 0 0 -18 611 49 0 711 596 616 612 ?540 29 612 50 0 611 617 597 -0.0036650008 -0.
0017899996 -3.894376821288584e-19 16 613 51 0 ?615 602 619 614 0 0 540 30 614 52
 0 613 620 603 0 +-0.0036650008 -0.0017899996 -3.894376821288584e-19 1.224646799
147353e-16 1.0 2.449293598294707e-16 17 615 0 706 707 711 616 610 613 0 622 +18
 616 53 0 710 611 632 617 ?540 29 617 54 0 616 633 612 -0.0036650008 0.001390000
4 3.894376821288584e-19 17 618 0 609 575 610 558 621 619 0 0 -16 619 55 0 ?621 6
13 623 620 0 0 540 30 620 56 0 619 624 614 0 +-0.0036650008 -0.0017899996 0.0012
64 2.999519565323715e-32 2.449293598294707e-16 -1.0 17 621 0 719 714 557 611 618
 619 0 610 +17 622 0 609 610 575 616 625 623 0 0 -16 623 57 0 ?625 619 634 624 0
 0 540 30 624 58 0 623 635 620 0 +-0.0036650008 0.0013900004 3.894376821288584e-
19 -2.999519565323715e-32 -2.449293598294707e-16 1.0 17 625 0 724 571 710 567 62
2 623 0 0 +14 626 59 628 1.0e-08 647 605 630 548 627 +0 0 647 605 546 50 627 60
 0 626 648 606 0 +-0.0035060008 -0.0017899996 0.001137 1.0 -1.224646799147353e-1
6 0.0 -2.999519565323715e-32 -2.449293598294707e-16 1.0 81 1 628 61 6 626 0 0 64
9 607 629 83 3 629 0.26274511218071 0.26274511218071 0.26274511218071 15 630 62
 0 631 626 0 17 631 0 630 639 643 632 636 634 0 0 -18 632 63 0 642 616 637 633 ?
540 29 633 64 0 632 638 617 -0.0035060008 0.0013900004 0.001137 16 634 65 0 ?636
 623 640 635 0 0 540 30 635 66 0 634 641 624 0 +-0.0035060008 0.0013900004 0.001
137 -1.224646799147353e-16 -1.0 -2.449293598294707e-16 17 636 0 693 698 694 637
 631 634 0 0 +18 637 67 0 701 632 653 638 ?540 29 638 68 0 637 654 633 -0.003506
0008 -0.0017899996 0.001137 17 639 0 630 565 631 561 642 640 0 0 -16 640 69 0 ?6
42 634 644 641 0 0 540 30 641 70 0 640 645 635 0 +-0.0035060008 0.0013900004 0.0
01264 2.999519565323715e-32 2.449293598294707e-16 -1.0 17 642 0 724 697 571 632
 639 640 0 694 +17 643 0 630 631 565 637 646 644 0 636 -16 644 71 0 ?646 640 655
 645 0 0 540 30 645 72 0 644 656 641 0 +-0.0035060008 -0.0017899996 0.001137 -2.
999519565323715e-32 -2.449293598294707e-16 1.0 17 646 0 719 557 701 553 643 644
 0 0 +14 647 73 649 1.0e-08 668 626 651 548 648 +0 0 668 626 546 50 648 74 0 647
 669 627 0 +-0.0021450008 -0.0017899996 -3.894376821288584e-19 1.0 -1.2246467991
47353e-16 0.0 -2.999519565323715e-32 -2.449293598294707e-16 1.0 81 1 649 75 6 64
7 0 0 670 628 650 83 3 650 0.26274511218071 0.26274511218071 0.26274511218071 15
 651 76 0 652 647 0 17 652 0 651 660 664 653 657 655 0 0 -18 653 77 0 663 637 65
8 654 ?540 29 654 78 0 653 659 638 -0.0021450008 0.0013900004 3.894376821288584e
-19 16 655 79 0 ?657 644 661 656 0 0 540 30 656 80 0 655 662 645 0 +-0.002145000
8 0.0013900004 3.894376821288584e-19 -1.224646799147353e-16 -1.0 -2.449293598294
707e-16 17 657 0 706 711 707 658 652 655 0 714 +18 658 81 0 664 653 674 659 ?540
 29 659 82 0 658 675 654 -0.0021450008 -0.0017899996 -3.894376821288584e-19 17 6
60 0 651 594 652 590 663 661 0 600 -16 661 83 0 ?663 655 665 662 0 0 540 30 662
 84 0 661 666 656 0 +-0.0021450008 0.0013900004 1.270000000000004e-04 2.99951956
5323715e-32 2.449293598294707e-16 -1.0 17 663 0 724 710 600 653 660 661 0 707 +1
7 664 0 651 652 594 658 667 665 0 657 -16 665 85 0 ?667 661 676 666 0 0 540 30 6
66 86 0 665 677 662 0 +-0.0021450008 -0.0017899996 -3.894376821288584e-19 -2.999
519565323715e-32 -2.449293598294707e-16 1.0 17 667 0 719 586 714 582 664 665 0 5
81 +14 668 87 670 1.0e-08 689 647 672 548 669 +0 0 689 647 546 50 669 88 0 668 6
90 648 0 +-0.0035380008 -0.0017899996 1.269999999999996e-04 1.0 -1.2246467991473
53e-16 0.0 -2.999519565323715e-32 -2.449293598294707e-16 1.0 81 1 670 89 6 668 0
 0 691 649 671 83 3 671 0.26274511218071 0.26274511218071 0.26274511218071 15 67
2 90 0 604 668 0 17 673 0 672 679 604 674 678 676 0 697 -18 674 91 0 684 658 680
 675 ?540 29 675 92 0 674 681 659 -0.0035380008 0.0013900004 0.001137 16 676 93
 0 ?678 665 682 677 0 0 540 30 677 94 0 676 683 666 0 +-0.0035380008 0.001390000
4 0.001137 2.999519565323715e-32 2.449293598294707e-16 -1.0 17 678 0 724 600 697
 596 673 676 0 595 +17 679 0 672 685 673 680 684 682 0 698 -18 680 95 0 679 674
 0 681 ?540 29 681 96 0 680 0 675 -0.0035380008 -0.0017899996 0.001137 16 682 97
 0 ?684 676 686 683 0 0 540 30 683 98 0 682 687 677 0 +-0.0035380008 -0.00178999
96 0.001137 1.224646799147353e-16 1.0 2.449293598294707e-16 17 684 0 693 694 698
 674 679 682 0 673 +17 685 0 672 604 679 587 688 686 0 586 -16 686 99 0 ?688 682
 695 687 0 0 540 30 687 100 0 686 696 683 0 +-0.0035380008 -0.0017899996 1.26999
9999999996e-04 -2.999519565323715e-32 -2.449293598294707e-16 1.0 17 688 0 719 70
1 586 680 685 686 0 0 +14 689 101 691 1.0e-08 702 668 693 548 690 +0 0 702 668 5
46 50 690 102 0 689 703 669 0 +-0.0035380008 0.0013900004 0.001137 2.99951956532
3715e-32 2.449293598294707e-16 -1.0 -1.224646799147353e-16 -1.0 -2.4492935982947
07e-16 81 1 691 103 6 689 0 0 704 670 692 83 3 692 0.26274511218071 0.2627451121
8071 0.26274511218071 15 693 104 0 694 689 0 17 694 0 693 636 684 632 697 695 0
 631 -16 695 105 0 ?697 686 699 696 0 0 540 30 696 106 0 695 700 687 0 +-0.00350
60008 0.0013900004 0.001137 -1.0 1.224646799147353e-16 0.0 17 697 0 724 678 642
 674 694 695 0 0 +17 698 0 693 684 636 680 701 699 0 688 -16 699 107 0 ?701 695
 708 700 0 0 540 30 700 108 0 699 709 696 0 +-0.0035380008 -0.0017899996 0.00113
7 1.0 -1.224646799147353e-16 0.0 17 701 0 719 646 688 637 698 699 0 643 +14 702
 109 704 1.0e-08 715 689 706 548 703 +0 0 715 689 546 50 703 110 0 702 716 690 0
 +-0.0036650008 0.0013900004 3.894376821288584e-19 2.999519565323715e-32 2.44929
3598294707e-16 -1.0 -1.224646799147353e-16 -1.0 -2.449293598294707e-16 81 1 704
 111 6 702 0 0 717 691 705 83 3 705 0.26274511218071 0.26274511218071 0.26274511
218071 15 706 112 0 707 702 0 17 707 0 706 657 615 653 710 708 0 652 -16 708 113
 0 ?710 699 712 709 0 0 540 30 709 114 0 708 713 700 0 +-0.0021450008 0.00139000
04 3.894376821288584e-19 -1.0 1.224646799147353e-16 0.0 17 710 0 724 625 663 616
 707 708 0 615 +17 711 0 706 615 657 611 714 712 0 621 -16 712 115 0 ?714 708 0
 713 0 0 540 30 713 116 0 712 0 709 0 +-0.0036650008 -0.0017899996 -3.8943768212
88584e-19 1.0 -1.224646799147353e-16 0.0 17 714 0 719 667 621 658 711 712 0 0 +1
4 715 117 717 1.0e-08 720 702 719 548 716 +0 0 720 702 546 50 716 118 0 715 721
 703 0 +-0.0036650008 -0.0017899996 -3.894376821288584e-19 -1.224646799147353e-1
6 -1.0 -2.449293598294707e-16 -2.999519565323715e-32 -2.449293598294707e-16 1.0
 81 1 717 119 6 715 0 0 722 704 718 83 3 718 0.26274511218071 0.26274511218071 0
.26274511218071 15 719 120 0 714 715 0 14 720 121 722 1.0e-08 0 715 724 548 721
 +0 0 0 715 546 50 721 122 0 720 0 716 0 +-0.0021450008 0.0013900004 3.894376821
288584e-19 1.224646799147353e-16 1.0 2.449293598294707e-16 -2.999519565323715e-3
2 -2.449293598294707e-16 1.0 81 1 722 123 6 720 0 0 0 717 723 83 3 723 0.2627451
1218071 0.26274511218071 0.26274511218071 15 724 124 0 710 720 0 12 725 124 0 72
6 0 0 0 0 1000.0 1.0e-08 0 0 0 1 0 1 1 733 735 741 739 730 740 738 70 726 0 725
 0 0 4 1 20 0 727 727 1 T74 20 727 1 0 728 0 0 0 0 0 0 0 0 0 0 0 0 0 0 0 0 0 0 0
 81 1 728 7 6 734 0 0 763 0 729 83 3 729 0.26274511218071 0.26274511218071 0.262
74511218071 19 730 1 0 725 732 0 731 V13 731 2 0 725 0 0 0 0 730 734 19 732 3 0
 725 0 730 733 S13 733 4 0 725 0 734 0 0 732 0 14 734 5 728 1.0e-08 761 0 736 73
3 735 +0 0 761 0 731 50 735 6 0 734 762 0 0 +0.0044649992 0.0013900004 0.001264
 -2.999519565323715e-32 -2.449293598294707e-16 1.0 -1.224646799147353e-16 -1.0 -
2.449293598294707e-16 15 736 8 0 737 734 0 17 737 0 736 745 757 738 742 740 0 83
1 -18 738 9 0 737 0 743 739 ?725 29 739 10 0 738 744 0 0.0043059992 0.0013900004
 0.001264 16 740 11 0 ?742 0 748 741 0 0 725 30 741 12 0 740 749 0 0 +0.00430599
92 0.0013900004 0.001264 1.0 -1.224646799147353e-16 0.0 17 742 0 904 806 831 743
 737 740 0 803 +18 743 13 0 742 738 746 744 ?725 29 744 14 0 743 747 739 0.00446
49992 0.0013900004 0.001264 17 745 0 736 751 737 746 750 748 0 756 -18 746 15 0
 824 743 752 747 ?725 29 747 16 0 746 753 744 0.0043059992 -0.0017899996 0.00126
4 16 748 17 0 ?750 740 754 749 0 0 725 30 749 18 0 748 755 741 0 +0.0043059992 -
0.0017899996 0.001264 1.224646799147353e-16 1.0 2.449293598294707e-16 17 750 0 8
15 828 824 738 745 748 0 0 +17 751 0 736 757 745 752 756 754 0 760 -18 752 19 0
 751 746 767 753 ?725 29 753 20 0 752 768 747 0.0044649992 -0.0017899996 0.00126
4 16 754 21 0 ?756 748 758 755 0 0 725 30 755 22 0 754 759 749 0 +0.0044649992 -
0.0017899996 0.001264 -1.0 1.224646799147353e-16 0.0 17 756 0 909 827 810 746 75
1 754 0 0 +17 757 0 736 737 751 743 760 758 0 0 -16 758 23 0 ?760 754 769 759 0
 0 725 30 759 24 0 758 770 755 0 +0.0044649992 0.0013900004 0.001264 -1.22464679
9147353e-16 -1.0 -2.449293598294707e-16 17 760 0 794 807 803 752 757 758 0 810 +
14 761 25 763 1.0e-08 790 734 765 733 762 +0 0 790 734 731 50 762 26 0 761 791 7
35 0 +0.0043379992 0.0013900004 1.270000000000004e-04 -2.999519565323715e-32 -2.
449293598294707e-16 1.0 -1.224646799147353e-16 -1.0 -2.449293598294707e-16 81 1
 763 27 6 761 0 0 792 728 764 83 3 764 0.26274511218071 0.26274511218071 0.26274
511218071 15 765 28 0 766 761 0 17 766 0 765 774 786 767 771 769 0 0 -18 767 29
 0 852 752 772 768 ?725 29 768 30 0 767 773 753 0.0029449992 0.0013900004 1.2700
00000000004e-04 16 769 31 0 ?771 758 777 770 0 0 725 30 770 32 0 769 778 759 0 +
0.0029449992 0.0013900004 1.270000000000004e-04 1.0 -1.224646799147353e-16 0.0 1
7 771 0 904 873 852 772 766 769 0 0 +18 772 33 0 870 767 775 773 ?725 29 773 34
 0 772 776 768 0.0043379992 0.0013900004 1.270000000000004e-04 17 774 0 765 780
 766 775 779 777 0 0 -18 775 35 0 845 772 781 776 ?725 29 776 36 0 775 782 773 0
.0029449992 -0.0017899996 1.269999999999996e-04 16 777 37 0 ?779 769 783 778 0 0
 725 30 778 38 0 777 784 770 0 +0.0029449992 -0.0017899996 1.269999999999996e-04
 1.224646799147353e-16 1.0 2.449293598294707e-16 17 779 0 836 849 845 767 774 77
7 0 766 +17 780 0 765 786 774 781 785 783 0 863 -18 781 39 0 780 775 796 782 ?72
5 29 782 40 0 781 797 776 0.0043379992 -0.0017899996 1.269999999999996e-04 16 78
3 41 0 ?785 777 787 784 0 0 725 30 784 42 0 783 788 778 0 +0.0043379992 -0.00178
99996 1.269999999999996e-04 -1.0 1.224646799147353e-16 0.0 17 785 0 909 848 863
 775 780 783 0 774 +17 786 0 765 766 780 772 789 787 0 771 -16 787 43 0 ?789 783
 798 788 0 0 725 30 788 44 0 787 799 784 0 +0.0043379992 0.0013900004 1.27000000
0000004e-04 -1.224646799147353e-16 -1.0 -2.449293598294707e-16 17 789 0 857 858
 870 781 786 787 0 0 +14 790 45 792 1.0e-08 811 761 794 733 791 +0 0 811 761 731
 50 791 46 0 790 812 762 0 +0.0044649992 -0.0017899996 -3.894376821288584e-19 1.
0 -1.224646799147353e-16 0.0 -2.999519565323715e-32 -2.449293598294707e-16 1.0 8
1 1 792 47 6 790 0 0 813 763 793 83 3 793 0.26274511218071 0.26274511218071 0.26
274511218071 15 794 48 0 795 790 0 17 795 0 794 803 807 796 800 798 0 896 -18 79
6 49 0 806 781 801 797 ?725 29 797 50 0 796 802 782 0.0044649992 0.0013900004 3.
894376821288584e-19 16 798 51 0 ?800 787 804 799 0 0 725 30 799 52 0 798 805 788
 0 +0.0044649992 0.0013900004 3.894376821288584e-19 -1.224646799147353e-16 -1.0
 -2.449293598294707e-16 17 800 0 891 892 896 801 795 798 0 807 +18 801 53 0 895
 796 817 802 ?725 29 802 54 0 801 818 797 0.0044649992 -0.0017899996 -3.89437682
1288584e-19 17 803 0 794 760 795 743 806 804 0 757 -16 804 55 0 ?806 798 808 805
 0 0 725 30 805 56 0 804 809 799 0 +0.0044649992 0.0013900004 0.001264 2.9995195
65323715e-32 2.449293598294707e-16 -1.0 17 806 0 904 899 742 796 803 804 0 795 +
17 807 0 794 795 760 801 810 808 0 0 -16 808 57 0 ?810 804 819 809 0 0 725 30 80
9 58 0 808 820 805 0 +0.0044649992 -0.0017899996 -3.894376821288584e-19 -2.99951
9565323715e-32 -2.449293598294707e-16 1.0 17 810 0 909 756 895 752 807 808 0 0 +
14 811 59 813 1.0e-08 832 790 815 733 812 +0 0 832 790 731 50 812 60 0 811 833 7
91 0 +0.0043059992 0.0013900004 0.001137 -1.0 1.224646799147353e-16 0.0 -2.99951
9565323715e-32 -2.449293598294707e-16 1.0 81 1 813 61 6 811 0 0 834 792 814 83 3
 814 0.26274511218071 0.26274511218071 0.26274511218071 15 815 62 0 816 811 0 17
 816 0 815 824 828 817 821 819 0 0 -18 817 63 0 827 801 822 818 ?725 29 818 64 0
 817 823 802 0.0043059992 -0.0017899996 0.001137 16 819 65 0 ?821 808 825 820 0
 0 725 30 820 66 0 819 826 809 0 +0.0043059992 -0.0017899996 0.001137 1.22464679
9147353e-16 1.0 2.449293598294707e-16 17 821 0 878 883 879 822 816 819 0 0 +18 8
22 67 0 828 817 838 823 ?725 29 823 68 0 822 839 818 0.0043059992 0.0013900004 0
.001137 17 824 0 815 750 816 746 827 825 0 745 -16 825 69 0 ?827 819 829 826 0 0
 725 30 826 70 0 825 830 820 0 +0.0043059992 -0.0017899996 0.001264 2.9995195653
23715e-32 2.449293598294707e-16 -1.0 17 827 0 909 882 756 817 824 825 0 879 +17
 828 0 815 816 750 822 831 829 0 886 -16 829 71 0 ?831 825 840 830 0 0 725 30 83
0 72 0 829 841 826 0 +0.0043059992 0.0013900004 0.001137 -2.999519565323715e-32
 -2.449293598294707e-16 1.0 17 831 0 904 742 886 738 828 829 0 750 +14 832 73 83
4 1.0e-08 853 811 836 733 833 +0 0 853 811 731 50 833 74 0 832 854 812 0 +0.0029
449992 0.0013900004 3.894376821288584e-19 -1.0 1.224646799147353e-16 0.0 -2.9995
19565323715e-32 -2.449293598294707e-16 1.0 81 1 834 75 6 832 0 0 855 813 835 83
 3 835 0.26274511218071 0.26274511218071 0.26274511218071 15 836 76 0 837 832 0
 17 837 0 836 845 849 838 842 840 0 892 -18 838 77 0 848 822 843 839 ?725 29 839
 78 0 838 844 823 0.0029449992 -0.0017899996 -3.894376821288584e-19 16 840 79 0
 ?842 829 846 841 0 0 725 30 841 80 0 840 847 830 0 +0.0029449992 -0.0017899996
 -3.894376821288584e-19 1.224646799147353e-16 1.0 2.449293598294707e-16 17 842 0
 891 896 892 843 837 840 0 899 +18 843 81 0 849 838 859 844 ?725 29 844 82 0 843
 860 839 0.0029449992 0.0013900004 3.894376821288584e-19 17 845 0 836 779 837 77
5 848 846 0 785 -16 846 83 0 ?848 840 850 847 0 0 725 30 847 84 0 846 851 841 0
 +0.0029449992 -0.0017899996 1.269999999999996e-04 2.999519565323715e-32 2.44929
3598294707e-16 -1.0 17 848 0 909 895 785 838 845 846 0 837 +17 849 0 836 837 779
 843 852 850 0 842 -16 850 85 0 ?852 846 861 851 0 0 725 30 851 86 0 850 862 847
 0 +0.0029449992 0.0013900004 3.894376821288584e-19 -2.999519565323715e-32 -2.44
9293598294707e-16 1.0 17 852 0 904 771 899 767 849 850 0 779 +14 853 87 855 1.0e
-08 874 832 857 733 854 +0 0 874 832 731 50 854 88 0 853 875 833 0 +0.0043379992
 0.0013900004 1.270000000000004e-04 -1.0 1.224646799147353e-16 0.0 -2.9995195653
23715e-32 -2.449293598294707e-16 1.0 81 1 855 89 6 853 0 0 876 834 856 83 3 856
 0.26274511218071 0.26274511218071 0.26274511218071 15 857 90 0 789 853 0 17 858
 0 857 864 789 859 863 861 0 882 -18 859 91 0 869 843 865 860 ?725 29 860 92 0 8
59 866 844 0.0043379992 -0.0017899996 0.001137 16 861 93 0 ?863 850 867 862 0 0
 725 30 862 94 0 861 868 851 0 +0.0043379992 -0.0017899996 0.001137 2.9995195653
23715e-32 2.449293598294707e-16 -1.0 17 863 0 909 785 882 781 858 861 0 789 +17
 864 0 857 870 858 865 869 867 0 873 -18 865 95 0 864 859 0 866 ?725 29 866 96 0
 865 0 860 0.0043379992 0.0013900004 0.001137 16 867 97 0 ?869 861 871 868 0 0 7
25 30 868 98 0 867 872 862 0 +0.0043379992 0.0013900004 0.001137 -1.224646799147
353e-16 -1.0 -2.449293598294707e-16 17 869 0 878 879 883 859 864 867 0 858 +17 8
70 0 857 789 864 772 873 871 0 786 -16 871 99 0 ?873 867 880 872 0 0 725 30 872
 100 0 871 881 868 0 +0.0043379992 0.0013900004 1.270000000000004e-04 -2.9995195
65323715e-32 -2.449293598294707e-16 1.0 17 873 0 904 886 771 865 870 871 0 883 +
14 874 101 876 1.0e-08 887 853 878 733 875 +0 0 887 853 731 50 875 102 0 874 888
 854 0 +0.0043379992 -0.0017899996 0.001137 2.999519565323715e-32 2.449293598294
707e-16 -1.0 -1.224646799147353e-16 -1.0 -2.449293598294707e-16 81 1 876 103 6 8
74 0 0 889 855 877 83 3 877 0.26274511218071 0.26274511218071 0.26274511218071 1
5 878 104 0 879 874 0 17 879 0 878 821 869 817 882 880 0 816 -16 880 105 0 ?882
 871 884 881 0 0 725 30 881 106 0 880 885 872 0 +0.0043059992 -0.0017899996 0.00
1137 1.0 -1.224646799147353e-16 0.0 17 882 0 909 863 827 859 879 880 0 0 +17 883
 0 878 869 821 865 886 884 0 0 -16 884 107 0 ?886 880 893 885 0 0 725 30 885 108
 0 884 894 881 0 +0.0043379992 0.0013900004 0.001137 -1.0 1.224646799147353e-16
 0.0 17 886 0 904 831 873 822 883 884 0 821 +14 887 109 889 1.0e-08 900 874 891
 733 888 +0 0 900 874 731 50 888 110 0 887 901 875 0 +0.0044649992 -0.0017899996
 -3.894376821288584e-19 2.999519565323715e-32 2.449293598294707e-16 -1.0 -1.2246
46799147353e-16 -1.0 -2.449293598294707e-16 81 1 889 111 6 887 0 0 902 876 890 8
3 3 890 0.26274511218071 0.26274511218071 0.26274511218071 15 891 112 0 892 887
 0 17 892 0 891 842 800 838 895 893 0 0 -16 893 113 0 ?895 884 897 894 0 0 725 3
0 894 114 0 893 898 885 0 +0.0029449992 -0.0017899996 -3.894376821288584e-19 1.0
 -1.224646799147353e-16 0.0 17 895 0 909 810 848 801 892 893 0 800 +17 896 0 891
 800 842 796 899 897 0 0 -16 897 115 0 ?899 893 0 898 0 0 725 30 898 116 0 897 0
 894 0 +0.0044649992 0.0013900004 3.894376821288584e-19 -1.0 1.224646799147353e-
16 0.0 17 899 0 904 852 806 843 896 897 0 0 +14 900 117 902 1.0e-08 905 887 904
 733 901 +0 0 905 887 731 50 901 118 0 900 906 888 0 +0.0044649992 0.0013900004
 3.894376821288584e-19 1.224646799147353e-16 1.0 2.449293598294707e-16 -2.999519
565323715e-32 -2.449293598294707e-16 1.0 81 1 902 119 6 900 0 0 907 889 903 83 3
 903 0.26274511218071 0.26274511218071 0.26274511218071 15 904 120 0 899 900 0 1
4 905 121 907 1.0e-08 0 900 909 733 906 +0 0 0 900 731 50 906 122 0 905 0 901 0
 +0.0029449992 -0.0017899996 -3.894376821288584e-19 -1.224646799147353e-16 -1.0
 -2.449293598294707e-16 -2.999519565323715e-32 -2.449293598294707e-16 1.0 81 1 9
07 123 6 905 0 0 0 902 908 83 3 908 0.26274511218071 0.26274511218071 0.26274511
218071 15 909 124 0 895 905 0 1 0 
