**ABCDEFGHIJKLMNOPQRSTUVWXYZabcdefghijklmnopqrstuvwxyz**************************
**PARASOLID !"#$%&'()*+,-./:;<=>?@[\]^_`{|}~0123456789**************************
**PART1;
MC=AMD64;
MC_MODEL=Intel64 Family 6 Model 165 Stepping 3, GenuineIntel;
MC_ID=unknown;
OS=Windows_NT;
OS_RELEASE=unknown;
FRU=CAD Exchanger 3.23.0 (cadexchanger.com);
APPL=unknown;
SITE=unknown;
USER=unknown;
FORMAT=text;
GUISE=transmit;
KEY=IND_BOOST_Boost_Inductor;
FILE=IND_BOOST_Boost_Inductor.x_t;
DATE=Thu Jan 23 23:25:30 2025;
**PART2;
SCH=SCH_1200000_12103;
USFLD_SIZE=0;
**PART3;
**END_OF_HEADER*****************************************************************
T51 : TRANSMIT FILE created by modeller version 120000017 SCH_1200000_121030 74
 4 1 4 0 2 105 143 364 12 2 68 0 3 0 0 0 0 1000.0 1.0e-08 0 0 0 1 0 1 1 12 14 20
 18 9 19 17 70 3 0 2 0 0 4 1 20 0 4 4 1 T74 20 4 1 0 5 0 0 0 0 0 0 0 0 0 0 0 0 0
 0 0 0 0 0 0 81 1 5 7 6 13 0 0 42 0 8 80 1 6 0 7 8001 0 0 0 0 3 5 0 0 0 FFFFTFTF
FFFFFF2 79 15 7 SDL/TYSA_COLOUR83 3 8 0.200000002980232 0.200000002980232 0.2000
00002980232 19 9 1 0 2 11 0 10 V13 10 2 0 2 0 0 0 0 9 13 19 11 3 0 2 0 9 12 S13
 12 4 0 2 0 13 0 0 11 0 14 13 5 5 1.0e-08 40 0 15 12 14 -0 0 40 0 10 50 14 6 0 1
3 41 0 0 +-0.003875 -0.003875 1.0e-04 1.0 0.0 0.0 0.0 0.0 1.0 15 15 8 0 16 13 0
 17 16 0 15 24 36 17 21 19 0 29 +18 17 9 0 16 0 22 18 ?2 29 18 10 0 17 23 0 -0.0
03875 0.003875 0.00235 16 19 11 0 ?16 0 27 20 0 0 2 30 20 12 0 19 28 0 0 +-0.003
875 -0.003875 0.00235 0.0 1.0 0.0 17 21 0 104 77 94 22 16 19 0 0 -18 22 13 0 36
 17 25 23 ?2 29 23 14 0 22 26 18 -0.003875 -0.003875 0.00235 17 24 0 15 30 16 25
 29 27 0 0 -18 25 15 0 35 22 31 26 ?2 29 26 16 0 25 32 23 -0.003875 0.003875 1.0
e-04 16 27 17 0 ?29 19 33 28 0 0 2 30 28 18 0 27 34 20 0 +-0.003875 0.003875 1.0
e-04 0.0 0.0 1.0 17 29 0 86 91 87 17 24 27 0 94 +17 30 0 15 36 24 31 35 33 0 81
 -18 31 19 0 39 25 46 32 ?2 29 32 20 0 31 47 26 -0.003875 -0.003875 1.0e-04 16 3
3 21 0 ?35 27 37 34 0 0 2 30 34 22 0 33 38 28 0 +-0.003875 -0.003875 1.0e-04 0.0
 1.0 0.0 17 35 0 99 90 81 25 30 33 0 87 +17 36 0 15 16 30 22 39 37 0 74 +16 37 2
3 0 ?36 33 48 38 0 0 2 30 38 24 0 37 49 34 0 +-0.003875 -0.003875 1.0e-04 0.0 0.
0 1.0 17 39 0 73 78 74 31 36 37 0 30 -14 40 25 42 1.0e-08 69 13 44 12 41 +0 0 69
 13 10 50 41 26 0 40 70 14 0 +0.003875 -0.003875 1.0e-04 1.0 0.0 0.0 0.0 0.0 1.0
 81 1 42 27 6 40 0 0 71 5 43 83 3 43 0.200000002980232 0.200000002980232 0.20000
0002980232 15 44 28 0 45 40 0 17 45 0 44 53 65 46 50 48 0 58 -18 46 29 0 45 31 5
1 47 ?2 29 47 30 0 46 52 32 0.003875 -0.003875 1.0e-04 16 48 31 0 ?50 37 56 49 0
 0 2 30 49 32 0 48 57 38 0 +0.003875 -0.003875 1.0e-04 0.0 0.0 1.0 17 50 0 73 74
 78 51 45 48 0 65 +18 51 33 0 77 46 54 52 ?2 29 52 34 0 51 55 47 0.003875 -0.003
875 0.00235 17 53 0 44 59 45 54 58 56 0 0 +18 54 35 0 64 51 60 55 ?2 29 55 36 0
 54 61 52 0.003875 0.003875 1.0e-04 16 56 37 0 ?53 48 62 57 0 0 2 30 57 38 0 56
 63 49 0 +0.003875 -0.003875 1.0e-04 0.0 1.0 0.0 17 58 0 99 81 90 46 53 56 0 78
 -17 59 0 44 65 53 60 64 62 0 68 +18 60 39 0 59 54 0 61 ?2 29 61 40 0 60 0 55 0.
003875 0.003875 0.00235 16 62 41 0 ?59 56 66 63 0 0 2 30 63 42 0 62 67 57 0 +0.0
03875 0.003875 1.0e-04 0.0 0.0 1.0 17 64 0 86 87 91 54 59 62 0 90 -17 65 0 44 45
 59 51 68 66 0 0 -16 66 43 0 ?68 62 75 67 0 0 2 30 67 44 0 66 76 63 0 +0.003875
 -0.003875 0.00235 0.0 1.0 0.0 17 68 0 104 94 77 60 65 66 0 91 +14 69 45 71 1.0e
-08 82 40 73 12 70 -0 0 82 40 10 50 70 46 0 69 83 41 0 +-0.003875 -0.003875 1.0e
-04 0.0 1.0 0.0 0.0 0.0 1.0 81 1 71 47 6 69 0 0 84 42 72 83 3 72 0.2000000029802
32 0.200000002980232 0.200000002980232 15 73 48 0 50 69 0 17 74 0 73 39 50 22 77
 75 0 21 -16 75 49 0 ?77 66 79 76 0 0 2 30 76 50 0 75 80 67 0 +-0.003875 -0.0038
75 0.00235 1.0 0.0 0.0 17 77 0 104 68 21 51 74 75 0 50 +17 78 0 73 50 39 46 81 7
9 0 0 +16 79 51 0 ?78 75 88 80 0 0 2 30 80 52 0 79 89 76 0 +-0.003875 -0.003875
 1.0e-04 1.0 0.0 0.0 17 81 0 99 35 58 31 78 79 0 0 -14 82 53 84 1.0e-08 95 69 86
 12 83 +0 0 95 69 10 50 83 54 0 82 96 70 0 +-0.003875 0.003875 1.0e-04 0.0 1.0 0
.0 0.0 0.0 1.0 81 1 84 55 6 82 0 0 97 71 85 83 3 85 0.200000002980232 0.20000000
2980232 0.200000002980232 15 86 56 0 87 82 0 17 87 0 86 29 64 25 90 88 0 24 -16
 88 57 0 ?90 79 92 89 0 0 2 30 89 58 0 88 93 80 0 +-0.003875 0.003875 1.0e-04 1.
0 0.0 0.0 17 90 0 99 58 35 54 87 88 0 53 +17 91 0 86 64 29 60 94 92 0 0 +16 92 5
9 0 ?91 88 0 93 0 0 2 30 93 60 0 92 0 89 0 +-0.003875 0.003875 0.00235 1.0 0.0 0
.0 17 94 0 104 21 68 17 91 92 0 0 -14 95 61 97 1.0e-08 100 82 99 12 96 -0 0 100
 82 10 50 96 62 0 95 101 83 0 +-0.003875 -0.003875 1.0e-04 0.0 0.0 1.0 1.0 0.0 0
.0 81 1 97 63 6 95 0 0 102 84 98 83 3 98 0.200000002980232 0.200000002980232 0.2
00000002980232 15 99 64 0 90 95 0 14 100 65 102 1.0e-08 0 95 104 12 101 +0 0 0 9
5 10 50 101 66 0 100 0 96 0 +-0.003875 -0.003875 0.00235 0.0 0.0 1.0 1.0 0.0 0.0
 81 1 102 67 6 100 0 0 0 97 103 83 3 103 0.200000002980232 0.200000002980232 0.2
00000002980232 15 104 68 0 21 100 0 12 105 26 0 106 0 0 0 0 1000.0 1.0e-08 0 0 0
 1 0 1 1 113 115 121 119 110 120 118 70 106 0 105 0 0 4 1 20 0 107 107 1 T74 20
 107 1 0 108 0 0 0 0 0 0 0 0 0 0 0 0 0 0 0 0 0 0 0 81 1 108 7 6 114 0 0 135 0 10
9 83 3 109 0.5 0.5 0.5 19 110 1 0 105 112 0 111 V13 111 2 0 105 0 0 0 0 110 114
 19 112 3 0 105 0 110 113 S13 113 4 0 105 0 114 0 0 112 0 14 114 5 108 1.0e-08 1
33 0 116 113 115 +0 0 133 0 111 51 115 6 0 114 134 0 0 +0.0 0.0 0.00235 0.0 0.0
 1.0 0.003875 1.0 0.0 0.0 15 116 8 0 117 114 0 17 117 0 116 123 128 118 122 120
 0 128 -18 118 9 0 122 0 124 119 ?105 29 119 10 0 118 125 0 0.003875 -9.49101269
3391999e-19 0.0046 16 120 11 0 ?122 0 126 121 0 0 105 31 121 12 0 120 127 0 0 +0
.0 0.0 0.0046 0.0 0.0 1.0 1.0 0.0 0.0 0.003875 17 122 0 137 122 122 118 117 120
 0 117 +17 123 0 116 129 117 124 128 126 0 129 -18 124 13 0 123 118 0 125 ?105 2
9 125 14 0 124 0 119 0.003875 -9.491012693391999e-19 0.00235 16 126 15 0 ?128 12
0 130 127 0 0 105 30 127 16 0 126 131 121 0 +0.003875 -9.491012693391999e-19 0.0
0235 0.0 0.0 1.0 17 128 0 116 117 129 118 123 126 0 0 +17 129 0 116 128 123 124
 132 130 0 132 +16 130 17 0 ?129 126 0 131 0 0 105 31 131 18 0 130 0 127 0 +0.0
 0.0 0.00235 0.0 0.0 1.0 1.0 0.0 0.0 0.003875 17 132 0 142 132 132 124 129 130 0
 0 -14 133 19 135 1.0e-08 138 114 137 113 134 +0 0 138 114 111 50 134 20 0 133 1
39 115 0 +0.0 0.0 0.0046 0.0 0.0 1.0 1.0 0.0 0.0 81 1 135 21 6 133 0 0 140 108 1
36 83 3 136 0.5 0.5 0.5 15 137 22 0 122 133 0 14 138 23 140 1.0e-08 0 133 142 11
3 139 -0 0 0 133 111 50 139 24 0 138 0 134 0 +0.0 0.0 0.00235 0.0 0.0 1.0 1.0 0.
0 0.0 81 1 140 25 6 138 0 0 0 135 141 83 3 141 0.5 0.5 0.5 15 142 26 0 132 138 0
 12 143 148 0 144 0 0 0 0 1000.0 1.0e-08 0 0 0 1 0 1 1 151 153 159 157 148 158 1
56 70 144 0 143 0 0 4 1 20 0 145 145 1 T74 20 145 1 0 146 0 0 0 0 0 0 0 0 0 0 0
 0 0 0 0 0 0 0 0 81 1 146 7 6 152 0 0 181 0 147 83 3 147 0.800000011920929 0.800
000011920929 0.800000011920929 19 148 1 0 143 150 0 149 V13 149 2 0 143 0 0 0 0
 148 152 19 150 3 0 143 0 148 151 S13 151 4 0 143 0 152 0 0 150 0 14 152 5 146 1
.0e-08 179 0 154 151 153 -0 0 179 0 149 50 153 6 0 152 180 0 0 +0.003975 0.00125
 0.0 -1.0 1.224646799147e-16 0.0 0.0 0.0 1.0 15 154 8 0 155 152 0 17 155 0 154 1
63 175 156 160 158 0 237 +18 156 9 0 213 0 161 157 ?143 29 157 10 0 156 162 0 0.
003975 -0.00125 1.0e-04 16 158 11 0 ?155 0 166 159 0 0 143 30 159 12 0 158 167 0
 0 +0.003975 0.00125 1.0e-04 -1.224646799147e-16 -1.0 0.0 17 160 0 204 217 213 1
61 155 158 0 192 -18 161 13 0 175 156 164 162 ?143 29 162 14 0 161 165 157 0.003
975 0.00125 1.0e-04 17 163 0 154 169 155 164 168 166 0 226 -18 164 15 0 174 161
 170 165 ?143 29 165 16 0 164 171 162 0.003975 -0.00125 0.0 16 166 17 0 ?168 158
 172 167 0 0 143 30 167 18 0 166 173 159 0 +0.003975 -0.00125 0.0 0.0 0.0 1.0 17
 168 0 225 232 226 156 163 166 0 155 +17 169 0 154 175 163 170 174 172 0 199 -18
 170 19 0 178 164 185 171 ?143 29 171 20 0 170 186 165 0.003975 0.00125 0.0 16 1
72 21 0 ?174 166 176 173 0 0 143 30 173 22 0 172 177 167 0 +0.003975 0.00125 0.0
 -1.224646799147e-16 -1.0 0.0 17 174 0 246 229 199 164 169 172 0 163 +17 175 0 1
54 155 169 161 178 176 0 220 +16 176 23 0 ?175 172 187 177 0 0 143 30 177 24 0 1
76 188 173 0 +0.003975 0.00125 0.0 0.0 0.0 1.0 17 178 0 183 196 192 170 175 176
 0 169 -14 179 25 181 1.0e-08 200 152 183 151 180 -0 0 200 152 149 50 180 26 0 1
79 201 153 0 +0.003975 0.00125 0.0 -1.224646799147e-16 -1.0 0.0 0.0 0.0 1.0 81 1
 181 27 6 179 0 0 202 146 182 83 3 182 0.800000011920929 0.800000011920929 0.800
000011920929 15 183 28 0 184 179 0 17 184 0 183 192 196 185 189 187 0 0 +18 185
 29 0 264 170 190 186 ?143 29 186 30 0 185 191 171 0.003875 0.00125 1.0e-04 16 1
87 31 0 ?184 176 193 188 0 0 143 30 188 32 0 187 194 177 0 +0.003875 0.00125 0.0
 0.0 0.0 1.0 17 189 0 255 268 264 190 184 187 0 196 -18 190 33 0 271 185 206 191
 ?143 29 191 34 0 190 207 186 0.003875 0.00125 0.0 17 192 0 183 178 184 161 195
 193 0 0 -16 193 35 0 ?195 187 197 194 0 0 143 30 194 36 0 193 198 188 0 +0.0039
75 0.00125 1.0e-04 -1.0 1.224646799147e-16 0.0 17 195 0 276 277 220 185 192 193
 0 184 +17 196 0 183 184 178 190 199 197 0 247 +16 197 37 0 ?196 193 208 198 0 0
 143 30 198 38 0 197 209 194 0 +0.003975 0.00125 0.0 -1.0 1.224646799147e-16 0.0
 17 199 0 246 174 247 170 196 197 0 0 -14 200 39 202 1.0e-08 221 179 204 151 201
 -0 0 221 179 149 50 201 40 0 200 222 180 0 +0.003975 0.00125 0.0 -1.0 1.2246467
99147e-16 0.0 0.0 0.0 1.0 81 1 202 41 6 200 0 0 223 181 203 83 3 203 0.800000011
920929 0.800000011920929 0.800000011920929 15 204 42 0 205 200 0 17 205 0 204 21
3 217 206 210 208 0 298 +18 206 43 0 216 190 211 207 ?143 29 207 44 0 206 212 19
1 0.003975 -0.00125 0.00225 16 208 45 0 ?205 197 214 209 0 0 143 30 209 46 0 208
 215 198 0 +0.003975 0.00125 0.00225 -1.224646799147e-16 -1.0 0.0 17 210 0 291 2
86 298 211 205 208 0 0 -18 211 47 0 217 206 230 212 ?143 29 212 48 0 211 231 207
 0.003975 0.00125 0.00225 17 213 0 204 160 205 156 216 214 0 168 -16 214 49 0 ?2
16 208 218 215 0 0 143 30 215 50 0 214 219 209 0 +0.003975 -0.00125 0.0 0.0 0.0
 1.0 17 216 0 306 301 237 206 213 214 0 205 +17 217 0 204 205 160 211 220 218 0
 283 +16 218 51 0 ?217 214 227 219 0 0 143 30 219 52 0 218 228 215 0 +0.003975 0
.00125 0.0 0.0 0.0 1.0 17 220 0 276 195 283 161 217 218 0 160 -14 221 53 223 1.0
e-08 242 200 225 151 222 +0 0 242 200 149 50 222 54 0 221 243 201 0 +0.003975 -0
.00125 0.0 -1.224646799147e-16 -1.0 0.0 0.0 0.0 1.0 81 1 223 55 6 221 0 0 244 20
2 224 83 3 224 0.800000011920929 0.800000011920929 0.800000011920929 15 225 56 0
 226 221 0 17 226 0 225 168 238 164 229 227 0 0 -16 227 57 0 ?229 218 235 228 0
 0 143 30 228 58 0 227 236 219 0 +0.003975 -0.00125 0.0 -1.0 1.224646799147e-16
 0.0 17 229 0 246 247 174 230 226 227 0 250 +18 230 59 0 316 211 233 231 ?143 29
 231 60 0 230 234 212 0.003875 -0.00125 0.0 17 232 0 225 238 168 233 237 235 0 0
 +18 233 61 0 307 230 257 234 ?143 29 234 62 0 233 258 231 0.003875 -0.00125 1.0
e-04 16 235 63 0 ?232 227 239 236 0 0 143 30 236 64 0 235 240 228 0 +0.003975 -0
.00125 1.0e-04 -1.0 1.224646799147e-16 0.0 17 237 0 306 216 307 156 232 235 0 0
 -17 238 0 225 226 232 230 241 239 0 0 -16 239 65 0 ?241 235 248 240 0 0 143 30
 240 66 0 239 249 236 0 +0.003875 -0.00125 0.0 0.0 0.0 1.0 17 241 0 315 322 316
 233 238 239 0 232 +14 242 67 244 1.0e-08 251 221 246 151 243 -0 0 251 221 149 5
0 243 68 0 242 252 222 0 +0.003975 0.00125 0.0 0.0 0.0 1.0 -1.0 1.224646799147e-
16 0.0 81 1 244 69 6 242 0 0 253 223 245 83 3 245 0.800000011920929 0.8000000119
20929 0.800000011920929 15 246 70 0 229 242 0 17 247 0 246 199 229 190 250 248 0
 0 -16 248 71 0 ?250 239 259 249 0 0 143 30 249 72 0 248 260 240 0 +0.003875 0.0
0125 0.0 -1.224646799147e-16 -1.0 0.0 17 250 0 336 319 271 230 247 248 0 238 +14
 251 73 253 1.0e-08 272 242 255 151 252 -0 0 272 242 149 50 252 74 0 251 273 243
 0 +0.003975 0.00125 0.0 -1.224646799147e-16 -1.0 0.0 0.0 0.0 1.0 81 1 253 75 6
 251 0 0 274 244 254 83 3 254 0.800000011920929 0.800000011920929 0.800000011920
929 15 255 76 0 256 251 0 17 256 0 255 264 268 257 261 259 0 0 +18 257 77 0 267
 233 262 258 ?143 29 258 78 0 257 263 234 0.001975 0.00125 1.0e-04 16 259 79 0 ?
256 248 265 260 0 0 143 30 260 80 0 259 266 249 0 +0.001975 0.00125 0.0 0.0 0.0
 1.0 17 261 0 345 340 346 262 256 259 0 0 -18 262 81 0 268 257 278 263 ?143 29 2
63 82 0 262 279 258 0.001975 0.00125 0.0 17 264 0 255 189 256 185 267 265 0 282
 -16 265 83 0 ?267 259 269 266 0 0 143 30 266 84 0 265 270 260 0 +0.003975 0.001
25 1.0e-04 -1.0 1.224646799147e-16 0.0 17 267 0 354 349 355 257 264 265 0 346 +1
7 268 0 255 256 189 262 271 269 0 337 +16 269 85 0 ?268 265 280 270 0 0 143 30 2
70 86 0 269 281 266 0 +0.003975 0.00125 0.0 -1.0 1.224646799147e-16 0.0 17 271 0
 336 250 337 190 268 269 0 189 -14 272 87 274 1.0e-08 287 251 276 151 273 -0 0 2
87 251 149 50 273 88 0 272 288 252 0 +0.003975 0.00125 0.0 -1.224646799147e-16 -
1.0 0.0 0.0 0.0 1.0 81 1 274 89 6 272 0 0 289 253 275 83 3 275 0.800000011920929
 0.800000011920929 0.800000011920929 15 276 90 0 277 272 0 17 277 0 276 283 195
 278 282 280 0 297 +18 278 91 0 286 262 293 279 ?143 29 279 92 0 278 294 263 0.0
03875 0.00125 0.00225 16 280 93 0 ?277 269 284 281 0 0 143 30 281 94 0 280 285 2
70 0 +0.003875 0.00125 0.0 0.0 0.0 1.0 17 282 0 363 358 297 185 277 280 0 355 -1
7 283 0 276 220 277 211 286 284 0 210 -16 284 95 0 ?286 280 295 285 0 0 143 30 2
85 96 0 284 296 281 0 +0.003975 0.00125 0.00225 -1.0 1.224646799147e-16 0.0 17 2
86 0 291 292 210 278 283 284 0 277 +14 287 97 289 1.0e-08 302 272 291 151 288 +0
 0 302 272 149 50 288 98 0 287 303 273 0 +0.003975 0.00125 0.00225 0.0 0.0 1.0 -
1.0 1.224646799147e-16 0.0 81 1 289 99 6 287 0 0 304 274 290 83 3 290 0.80000001
1920929 0.800000011920929 0.800000011920929 15 291 100 0 210 287 0 17 292 0 291
 298 286 293 297 295 0 301 +18 293 101 0 310 278 320 294 ?143 29 294 102 0 293 3
21 279 0.003875 -0.00125 0.00225 16 295 103 0 ?292 284 299 296 0 0 143 30 296 10
4 0 295 300 285 0 +0.003875 0.00125 0.00225 -1.224646799147e-16 -1.0 0.0 17 297
 0 363 282 310 278 292 295 0 0 -17 298 0 291 210 292 206 301 299 0 0 -16 299 105
 0 ?301 295 308 300 0 0 143 30 300 106 0 299 309 296 0 +0.003975 -0.00125 0.0022
5 -1.0 1.224646799147e-16 0.0 17 301 0 306 307 216 293 298 299 0 0 +14 302 107 3
04 1.0e-08 311 287 306 151 303 +0 0 311 287 149 50 303 108 0 302 312 288 0 +0.00
3975 -0.00125 0.0 -1.224646799147e-16 -1.0 0.0 0.0 0.0 1.0 81 1 304 109 6 302 0
 0 313 289 305 83 3 305 0.800000011920929 0.800000011920929 0.800000011920929 15
 306 110 0 237 302 0 17 307 0 306 237 301 233 310 308 0 327 -16 308 111 0 ?310 2
99 317 309 0 0 143 30 309 112 0 308 318 300 0 +0.003875 -0.00125 0.0 0.0 0.0 1.0
 17 310 0 363 297 358 293 307 308 0 292 +14 311 113 313 1.0e-08 332 302 315 151
 312 +0 0 332 302 149 50 312 114 0 311 333 303 0 +0.003975 -0.00125 0.0 -1.22464
6799147e-16 -1.0 0.0 0.0 0.0 1.0 81 1 313 115 6 311 0 0 334 304 314 83 3 314 0.8
00000011920929 0.800000011920929 0.800000011920929 15 315 116 0 316 311 0 17 316
 0 315 241 328 230 319 317 0 229 -16 317 117 0 ?319 308 325 318 0 0 143 30 318 1
18 0 317 326 309 0 +0.003975 -0.00125 0.0 -1.0 1.224646799147e-16 0.0 17 319 0 3
36 337 250 320 316 317 0 340 +18 320 119 0 328 293 323 321 ?143 29 321 120 0 320
 324 294 0.001975 -0.00125 0.0 17 322 0 315 328 241 323 327 325 0 0 +18 323 121
 0 331 320 0 324 ?143 29 324 122 0 323 0 321 0.001975 -0.00125 1.0e-04 16 325 12
3 0 ?322 317 329 326 0 0 143 30 326 124 0 325 330 318 0 +0.003975 -0.00125 1.0e-
04 -1.0 1.224646799147e-16 0.0 17 327 0 354 355 349 233 322 325 0 358 -17 328 0
 315 316 322 320 331 329 0 319 -16 329 125 0 ?331 325 338 330 0 0 143 30 330 126
 0 329 339 326 0 +0.001975 -0.00125 0.0 0.0 0.0 1.0 17 331 0 345 346 340 323 328
 329 0 349 +14 332 127 334 1.0e-08 341 311 336 151 333 -0 0 341 311 149 50 333 1
28 0 332 342 312 0 +0.003975 0.00125 0.0 0.0 0.0 1.0 -1.0 1.224646799147e-16 0.0
 81 1 334 129 6 332 0 0 343 313 335 83 3 335 0.800000011920929 0.800000011920929
 0.800000011920929 15 336 130 0 319 332 0 17 337 0 336 271 319 262 340 338 0 261
 -16 338 131 0 ?340 329 347 339 0 0 143 30 339 132 0 338 348 330 0 +0.001975 0.0
0125 0.0 -1.224646799147e-16 -1.0 0.0 17 340 0 345 331 261 320 337 338 0 0 +14 3
41 133 343 1.0e-08 350 332 345 151 342 +0 0 350 332 149 50 342 134 0 341 351 333
 0 +0.001975 0.00125 0.0 -1.0 1.224646799147e-16 0.0 0.0 0.0 1.0 81 1 343 135 6
 341 0 0 352 334 344 83 3 344 0.800000011920929 0.800000011920929 0.800000011920
929 15 345 136 0 261 341 0 17 346 0 345 261 331 257 349 347 0 256 -16 347 137 0
 ?349 338 356 348 0 0 143 30 348 138 0 347 357 339 0 +0.001975 0.00125 1.0e-04 -
1.224646799147e-16 -1.0 0.0 17 349 0 354 327 267 323 346 347 0 322 +14 350 139 3
52 1.0e-08 359 341 354 151 351 +0 0 359 341 149 50 351 140 0 350 360 342 0 +0.00
3975 0.00125 1.0e-04 0.0 0.0 1.0 -1.0 1.224646799147e-16 0.0 81 1 352 141 6 350
 0 0 361 343 353 83 3 353 0.800000011920929 0.800000011920929 0.800000011920929
 15 354 142 0 327 350 0 17 355 0 354 267 327 185 358 356 0 195 +16 356 143 0 ?35
5 347 0 357 0 0 143 30 357 144 0 356 0 348 0 +0.003875 0.00125 1.0e-04 1.2246467
99147e-16 1.0 0.0 17 358 0 363 310 282 233 355 356 0 241 -14 359 145 361 1.0e-08
 0 350 363 151 360 +0 0 0 350 149 50 360 146 0 359 0 351 0 +0.003875 0.00125 0.0
 -1.0 1.224646799147e-16 0.0 0.0 0.0 1.0 81 1 361 147 6 359 0 0 0 352 362 83 3 3
62 0.800000011920929 0.800000011920929 0.800000011920929 15 363 148 0 282 359 0
 12 364 148 0 365 0 0 0 0 1000.0 1.0e-08 0 0 0 1 0 1 1 372 374 380 378 369 379 3
77 70 365 0 364 0 0 4 1 20 0 366 366 1 T74 20 366 1 0 367 0 0 0 0 0 0 0 0 0 0 0
 0 0 0 0 0 0 0 0 81 1 367 7 6 373 0 0 402 0 368 83 3 368 0.800000011920929 0.800
000011920929 0.800000011920929 19 369 1 0 364 371 0 370 V13 370 2 0 364 0 0 0 0
 369 373 19 371 3 0 364 0 369 372 S13 372 4 0 364 0 373 0 0 371 0 14 373 5 367 1
.0e-08 400 0 375 372 374 -0 0 400 0 370 50 374 6 0 373 401 0 0 +-0.003975 -0.001
25 0.0 1.0 0.0 0.0 0.0 0.0 1.0 15 375 8 0 376 373 0 17 376 0 375 384 396 377 381
 379 0 434 +18 377 9 0 376 0 382 378 ?364 29 378 10 0 377 383 0 -0.003975 0.0012
5 1.0e-04 16 379 11 0 ?376 0 387 380 0 0 364 30 380 12 0 379 388 0 0 +-0.003975
 -0.00125 1.0e-04 0.0 1.0 0.0 17 381 0 425 438 434 382 376 379 0 413 -18 382 13
 0 396 377 385 383 ?364 29 383 14 0 382 386 378 -0.003975 -0.00125 1.0e-04 17 38
4 0 375 390 376 385 389 387 0 0 -18 385 15 0 447 382 391 386 ?364 29 386 16 0 38
5 392 383 -0.003975 0.00125 0.0 16 387 17 0 ?389 379 393 388 0 0 364 30 388 18 0
 387 394 380 0 +-0.003975 0.00125 0.0 0.0 0.0 1.0 17 389 0 446 453 447 377 384 3
87 0 0 +17 390 0 375 396 384 391 395 393 0 420 -18 391 19 0 399 385 406 392 ?364
 29 392 20 0 391 407 386 -0.003975 -0.00125 0.0 16 393 21 0 ?395 387 397 394 0 0
 364 30 394 22 0 393 398 388 0 +-0.003975 -0.00125 0.0 0.0 1.0 0.0 17 395 0 467
 450 420 385 390 393 0 384 +17 396 0 375 376 390 382 399 397 0 441 +16 397 23 0
 ?396 393 408 398 0 0 364 30 398 24 0 397 409 394 0 +-0.003975 -0.00125 0.0 0.0
 0.0 1.0 17 399 0 404 417 413 391 396 397 0 390 -14 400 25 402 1.0e-08 421 373 4
04 372 401 -0 0 421 373 370 50 401 26 0 400 422 374 0 +-0.003975 -0.00125 0.0 0.
0 1.0 0.0 0.0 0.0 1.0 81 1 402 27 6 400 0 0 423 367 403 83 3 403 0.8000000119209
29 0.800000011920929 0.800000011920929 15 404 28 0 405 400 0 17 405 0 404 413 41
7 406 410 408 0 503 +18 406 29 0 485 391 411 407 ?364 29 407 30 0 406 412 392 -0
.003875 -0.00125 1.0e-04 16 408 31 0 ?405 397 414 409 0 0 364 30 409 32 0 408 41
5 398 0 +-0.003875 -0.00125 0.0 0.0 0.0 1.0 17 410 0 476 489 485 411 405 408 0 4
68 -18 411 33 0 492 406 427 412 ?364 29 412 34 0 411 428 407 -0.003875 -0.00125
 0.0 17 413 0 404 399 405 382 416 414 0 0 -16 414 35 0 ?416 408 418 415 0 0 364
 30 415 36 0 414 419 409 0 +-0.003975 -0.00125 1.0e-04 1.0 0.0 0.0 17 416 0 497
 498 441 406 413 414 0 576 +17 417 0 404 405 399 411 420 418 0 410 +16 418 37 0
 ?417 414 429 419 0 0 364 30 419 38 0 418 430 415 0 +-0.003975 -0.00125 0.0 1.0
 0.0 0.0 17 420 0 467 395 468 391 417 418 0 0 -14 421 39 423 1.0e-08 442 400 425
 372 422 -0 0 442 400 370 50 422 40 0 421 443 401 0 +-0.003975 -0.00125 0.0 1.0
 0.0 0.0 0.0 0.0 1.0 81 1 423 41 6 421 0 0 444 402 424 83 3 424 0.80000001192092
9 0.800000011920929 0.800000011920929 15 425 42 0 426 421 0 17 426 0 425 434 438
 427 431 429 0 519 +18 427 43 0 437 411 432 428 ?364 29 428 44 0 427 433 412 -0.
003975 0.00125 0.00225 16 429 45 0 ?426 418 435 430 0 0 364 30 430 46 0 429 436
 419 0 +-0.003975 -0.00125 0.00225 0.0 1.0 0.0 17 431 0 512 507 519 432 426 429
 0 504 -18 432 47 0 438 427 451 433 ?364 29 433 48 0 432 452 428 -0.003975 -0.00
125 0.00225 17 434 0 425 381 426 377 437 435 0 458 -16 435 49 0 ?437 429 439 436
 0 0 364 30 436 50 0 435 440 430 0 +-0.003975 0.00125 0.0 0.0 0.0 1.0 17 437 0 5
27 522 458 427 434 435 0 426 +17 438 0 425 426 381 432 441 439 0 431 +16 439 51
 0 ?438 435 448 440 0 0 364 30 440 52 0 439 449 436 0 +-0.003975 -0.00125 0.0 0.
0 0.0 1.0 17 441 0 497 416 504 382 438 439 0 381 -14 442 53 444 1.0e-08 463 421
 446 372 443 +0 0 463 421 370 50 443 54 0 442 464 422 0 +-0.003975 0.00125 0.0 0
.0 1.0 0.0 0.0 0.0 1.0 81 1 444 55 6 442 0 0 465 423 445 83 3 445 0.800000011920
929 0.800000011920929 0.800000011920929 15 446 56 0 447 442 0 17 447 0 446 389 4
59 385 450 448 0 395 -16 448 57 0 ?450 439 456 449 0 0 364 30 449 58 0 448 457 4
40 0 +-0.003975 0.00125 0.0 1.0 0.0 0.0 17 450 0 467 468 395 451 447 448 0 537 +
18 451 59 0 450 432 454 452 ?364 29 452 60 0 451 455 433 -0.003875 0.00125 0.0 1
7 453 0 446 459 389 454 458 456 0 462 +18 454 61 0 528 451 478 455 ?364 29 455 6
2 0 454 479 452 -0.003875 0.00125 1.0e-04 16 456 63 0 ?453 448 460 457 0 0 364 3
0 457 64 0 456 461 449 0 +-0.003975 0.00125 1.0e-04 1.0 0.0 0.0 17 458 0 527 437
 528 377 453 456 0 389 -17 459 0 446 447 453 451 462 460 0 471 -16 460 65 0 ?462
 456 469 461 0 0 364 30 461 66 0 460 470 457 0 +-0.003875 0.00125 0.0 0.0 0.0 1.
0 17 462 0 536 543 537 454 459 460 0 579 +14 463 67 465 1.0e-08 472 442 467 372
 464 -0 0 472 442 370 50 464 68 0 463 473 443 0 +-0.003975 -0.00125 0.0 0.0 0.0
 1.0 1.0 0.0 0.0 81 1 465 69 6 463 0 0 474 444 466 83 3 466 0.800000011920929 0.
800000011920929 0.800000011920929 15 467 70 0 450 463 0 17 468 0 467 420 450 411
 471 469 0 0 -16 469 71 0 ?471 460 480 470 0 0 364 30 470 72 0 469 481 461 0 +-0
.003875 -0.00125 0.0 0.0 1.0 0.0 17 471 0 557 540 492 451 468 469 0 0 +14 472 73
 474 1.0e-08 493 463 476 372 473 -0 0 493 463 370 50 473 74 0 472 494 464 0 +-0.
003975 -0.00125 0.0 0.0 1.0 0.0 0.0 0.0 1.0 81 1 474 75 6 472 0 0 495 465 475 83
 3 475 0.800000011920929 0.800000011920929 0.800000011920929 15 476 76 0 477 472
 0 17 477 0 476 485 489 478 482 480 0 0 +18 478 77 0 488 454 483 479 ?364 29 479
 78 0 478 484 455 -0.001975 -0.00125 1.0e-04 16 480 79 0 ?477 469 486 481 0 0 36
4 30 481 80 0 480 487 470 0 +-0.001975 -0.00125 0.0 0.0 0.0 1.0 17 482 0 566 561
 567 483 477 480 0 0 -18 483 81 0 489 478 499 484 ?364 29 484 82 0 483 500 479 -
0.001975 -0.00125 0.0 17 485 0 476 410 477 406 488 486 0 416 -16 486 83 0 ?488 4
80 490 487 0 0 364 30 487 84 0 486 491 481 0 +-0.003975 -0.00125 1.0e-04 1.0 0.0
 0.0 17 488 0 575 570 576 478 485 486 0 567 +17 489 0 476 477 410 483 492 490 0
 558 +16 490 85 0 ?489 486 501 491 0 0 364 30 491 86 0 490 502 487 0 +-0.003975
 -0.00125 0.0 1.0 0.0 0.0 17 492 0 557 471 558 411 489 490 0 417 -14 493 87 495
 1.0e-08 508 472 497 372 494 -0 0 508 472 370 50 494 88 0 493 509 473 0 +-0.0039
75 -0.00125 0.0 0.0 1.0 0.0 0.0 0.0 1.0 81 1 495 89 6 493 0 0 510 474 496 83 3 4
96 0.800000011920929 0.800000011920929 0.800000011920929 15 497 90 0 498 493 0 1
7 498 0 497 504 416 499 503 501 0 518 +18 499 91 0 507 483 514 500 ?364 29 500 9
2 0 499 515 484 -0.003875 -0.00125 0.00225 16 501 93 0 ?498 490 505 502 0 0 364
 30 502 94 0 501 506 491 0 +-0.003875 -0.00125 0.0 0.0 0.0 1.0 17 503 0 584 579
 518 406 498 501 0 0 -17 504 0 497 441 498 432 507 505 0 0 -16 505 95 0 ?507 501
 516 506 0 0 364 30 506 96 0 505 517 502 0 +-0.003975 -0.00125 0.00225 1.0 0.0 0
.0 17 507 0 512 513 431 499 504 505 0 498 +14 508 97 510 1.0e-08 523 493 512 372
 509 +0 0 523 493 370 50 509 98 0 508 524 494 0 +-0.003975 -0.00125 0.00225 0.0
 0.0 1.0 1.0 0.0 0.0 81 1 510 99 6 508 0 0 525 495 511 83 3 511 0.80000001192092
9 0.800000011920929 0.800000011920929 15 512 100 0 431 508 0 17 513 0 512 519 50
7 514 518 516 0 522 +18 514 101 0 531 499 541 515 ?364 29 515 102 0 514 542 500
 -0.003875 0.00125 0.00225 16 516 103 0 ?513 505 520 517 0 0 364 30 517 104 0 51
6 521 506 0 +-0.003875 -0.00125 0.00225 0.0 1.0 0.0 17 518 0 584 503 531 499 513
 516 0 0 -17 519 0 512 431 513 427 522 520 0 0 -16 520 105 0 ?522 516 529 521 0
 0 364 30 521 106 0 520 530 517 0 +-0.003975 0.00125 0.00225 1.0 0.0 0.0 17 522
 0 527 528 437 514 519 520 0 0 +14 523 107 525 1.0e-08 532 508 527 372 524 +0 0
 532 508 370 50 524 108 0 523 533 509 0 +-0.003975 0.00125 0.0 0.0 1.0 0.0 0.0 0
.0 1.0 81 1 525 109 6 523 0 0 534 510 526 83 3 526 0.800000011920929 0.800000011
920929 0.800000011920929 15 527 110 0 458 523 0 17 528 0 527 458 522 454 531 529
 0 453 -16 529 111 0 ?531 520 538 530 0 0 364 30 530 112 0 529 539 521 0 +-0.003
875 0.00125 0.0 0.0 0.0 1.0 17 531 0 584 518 579 514 528 529 0 513 +14 532 113 5
34 1.0e-08 553 523 536 372 533 +0 0 553 523 370 50 533 114 0 532 554 524 0 +-0.0
03975 0.00125 0.0 0.0 1.0 0.0 0.0 0.0 1.0 81 1 534 115 6 532 0 0 555 525 535 83
 3 535 0.800000011920929 0.800000011920929 0.800000011920929 15 536 116 0 537 53
2 0 17 537 0 536 462 549 451 540 538 0 459 -16 538 117 0 ?540 529 546 539 0 0 36
4 30 539 118 0 538 547 530 0 +-0.003975 0.00125 0.0 1.0 0.0 0.0 17 540 0 557 558
 471 541 537 538 0 561 +18 541 119 0 549 514 544 542 ?364 29 542 120 0 541 545 5
15 -0.001975 0.00125 0.0 17 543 0 536 549 462 544 548 546 0 0 +18 544 121 0 552
 541 0 545 ?364 29 545 122 0 544 0 542 -0.001975 0.00125 1.0e-04 16 546 123 0 ?5
43 538 550 547 0 0 364 30 547 124 0 546 551 539 0 +-0.003975 0.00125 1.0e-04 1.0
 0.0 0.0 17 548 0 575 576 570 454 543 546 0 0 -17 549 0 536 537 543 541 552 550
 0 540 -16 550 125 0 ?552 546 559 551 0 0 364 30 551 126 0 550 560 547 0 +-0.001
975 0.00125 0.0 0.0 0.0 1.0 17 552 0 566 567 561 544 549 550 0 570 +14 553 127 5
55 1.0e-08 562 532 557 372 554 -0 0 562 532 370 50 554 128 0 553 563 533 0 +-0.0
03975 -0.00125 0.0 0.0 0.0 1.0 1.0 0.0 0.0 81 1 555 129 6 553 0 0 564 534 556 83
 3 556 0.800000011920929 0.800000011920929 0.800000011920929 15 557 130 0 540 55
3 0 17 558 0 557 492 540 483 561 559 0 482 -16 559 131 0 ?561 550 568 560 0 0 36
4 30 560 132 0 559 569 551 0 +-0.001975 -0.00125 0.0 0.0 1.0 0.0 17 561 0 566 55
2 482 541 558 559 0 0 +14 562 133 564 1.0e-08 571 553 566 372 563 +0 0 571 553 3
70 50 563 134 0 562 572 554 0 +-0.001975 -0.00125 0.0 1.0 0.0 0.0 0.0 0.0 1.0 81
 1 564 135 6 562 0 0 573 555 565 83 3 565 0.800000011920929 0.800000011920929 0.
800000011920929 15 566 136 0 482 562 0 17 567 0 566 482 552 478 570 568 0 477 -1
6 568 137 0 ?570 559 577 569 0 0 364 30 569 138 0 568 578 560 0 +-0.001975 -0.00
125 1.0e-04 0.0 1.0 0.0 17 570 0 575 548 488 544 567 568 0 543 +14 571 139 573 1
.0e-08 580 562 575 372 572 +0 0 580 562 370 50 572 140 0 571 581 563 0 +-0.00397
5 -0.00125 1.0e-04 0.0 0.0 1.0 1.0 0.0 0.0 81 1 573 141 6 571 0 0 582 564 574 83
 3 574 0.800000011920929 0.800000011920929 0.800000011920929 15 575 142 0 548 57
1 0 17 576 0 575 488 548 406 579 577 0 405 +16 577 143 0 ?576 568 0 578 0 0 364
 30 578 144 0 577 0 569 0 +-0.003875 -0.00125 1.0e-04 0.0 -1.0 0.0 17 579 0 584
 531 503 454 576 577 0 548 -14 580 145 582 1.0e-08 0 571 584 372 581 +0 0 0 571
 370 50 581 146 0 580 0 572 0 +-0.003875 -0.00125 0.0 1.0 0.0 0.0 0.0 0.0 1.0 81
 1 582 147 6 580 0 0 0 573 583 83 3 583 0.800000011920929 0.800000011920929 0.80
0000011920929 15 584 148 0 503 580 0 1 0 
