<svg width="112.6220506mm" height="129.99999908mm" viewBox="0 0 44339390 51181102"  version="1.1" xmlns="http://www.w3.org/2000/svg" xmlns:xlink="http://www.w3.org/1999/xlink">
<desc>
Origin 0 0 Bound 21137392 17716536 44339390 51181102
</desc>
<g fill-rule="evenodd" fill="rgb(255, 0, 255)" stroke="black" stroke-width="1" transform="translate(0, 51181102) scale(1, -1) translate(-21137392, -17716536)">
<path id="N" d="M 65476782.00 60644024.00 L 65476782.00 25970150.00 L 51181103.00 17716536.00 L 35433071.00 17716536.00 L 21137392.00 25970150.00 L 21137392.00 60644024.00 L 35433071.00 68897638.00 L 35433071.00 59055118.00 L 51181103.00 59055118.00 L 51181103.00 68897638.00 L 65476782.00 60644024.00  zM 22657478.82 28976385.52 m -339749.48 0 a 339749.48 339749.48 0 1 1 679498.96 0a 339749.48 339749.48 0 1 1 -679498.96 0M 22657478.82 29960637.52 m -339749.48 0 a 339749.48 339749.48 0 1 1 679498.96 0a 339749.48 339749.48 0 1 1 -679498.96 0M 22657478.82 30944889.52 m -339749.48 0 a 339749.48 339749.48 0 1 1 679498.96 0a 339749.48 339749.48 0 1 1 -679498.96 0M 24606297.82 29960637.52 m -339749.48 0 a 339749.48 339749.48 0 1 1 679498.96 0a 339749.48 339749.48 0 1 1 -679498.96 0M 24606297.82 28976385.52 m -339749.48 0 a 339749.48 339749.48 0 1 1 679498.96 0a 339749.48 339749.48 0 1 1 -679498.96 0M 24606297.82 30944889.52 m -339749.48 0 a 339749.48 339749.48 0 1 1 679498.96 0a 339749.48 339749.48 0 1 1 -679498.96 0M 27007868.62 29330735.02 m -633575.98 0 a 633575.98 633575.98 0 1 1 1267151.97 0a 633575.98 633575.98 0 1 1 -1267151.97 0M 31496059.01 23622076.90 m -1224848.10 0 a 1224848.10 1224848.10 0 1 1 2449696.20 0a 1224848.10 1224848.10 0 1 1 -2449696.20 0M 36368740.00 26270315.00 L 34320236.00 26270315.00 L 34320236.00 25698189.00 L 36368740.00 25698189.00 L 36368740.00 26270315.00  zM 36368740.00 27270315.00 L 34320236.00 27270315.00 L 34320236.00 26698189.00 L 36368740.00 26698189.00 L 36368740.00 27270315.00  zM 28976372.62 29330735.02 m -633575.98 0 a 633575.98 633575.98 0 1 1 1267151.97 0a 633575.98 633575.98 0 1 1 -1267151.97 0M 27913384.82 31437015.52 m -339749.48 0 a 339749.48 339749.48 0 1 1 679498.96 0a 339749.48 339749.48 0 1 1 -679498.96 0M 31908264.01 29722470.90 m -1224848.10 0 a 1224848.10 1224848.10 0 1 1 2449696.20 0a 1224848.10 1224848.10 0 1 1 -2449696.20 0M 40067363.00 19629488.00 L 40056094.86 19614803.00 L 39093858.00 19614803.00 L 39093858.00 19219843.00 L 40056094.86 19219843.00 L 40067363.00 19205158.00 A 300040.69 300040.69 0 1 1 40067363.00 19629488.00  zM 40067363.00 21629488.00 L 40056094.86 21614803.00 L 39093858.00 21614803.00 L 39093858.00 21219843.00 L 40056094.86 21219843.00 L 40067363.00 21205158.00 A 300040.69 300040.69 0 1 1 40067363.00 21629488.00  zM 40067363.00 23629488.00 L 40056094.86 23614803.00 L 39093858.00 23614803.00 L 39093858.00 23219843.00 L 40056094.86 23219843.00 L 40067363.00 23205158.00 A 300040.69 300040.69 0 1 1 40067363.00 23629488.00  zM 36368740.00 25270315.00 L 34320236.00 25270315.00 L 34320236.00 24698189.00 L 36368740.00 24698189.00 L 36368740.00 25270315.00  zM 38917952.00 25270315.00 L 36869448.00 25270315.00 L 36869448.00 24698189.00 L 38917952.00 24698189.00 L 38917952.00 25270315.00  zM 40067363.00 25629488.00 L 40056094.86 25614803.00 L 39093858.00 25614803.00 L 39093858.00 25219843.00 L 40056094.86 25219843.00 L 40067363.00 25205158.00 A 300040.69 300040.69 0 1 1 40067363.00 25629488.00  zM 38917952.00 26270315.00 L 36869448.00 26270315.00 L 36869448.00 25698189.00 L 38917952.00 25698189.00 L 38917952.00 26270315.00  zM 38917952.00 27270315.00 L 36869448.00 27270315.00 L 36869448.00 26698189.00 L 38917952.00 26698189.00 L 38917952.00 27270315.00  zM 40491693.00 26205158.00 L 40502961.14 26219843.00 L 41457323.00 26219843.00 L 41457323.00 26614803.00 L 40502961.14 26614803.00 L 40491693.00 26629488.00 A 300040.69 300040.69 0 1 1 40491693.00 26205158.00  zM 40067363.00 27629488.00 L 40056094.86 27614803.00 L 39093858.00 27614803.00 L 39093858.00 27219843.00 L 40056094.86 27219843.00 L 40067363.00 27205158.00 A 300040.69 300040.69 0 1 1 40067363.00 27629488.00  zM 40067363.00 29629488.00 L 40056094.86 29614803.00 L 39093858.00 29614803.00 L 39093858.00 29219843.00 L 40056094.86 29219843.00 L 40067363.00 29205158.00 A 300040.69 300040.69 0 1 1 40067363.00 29629488.00  zM 40067363.00 31629488.00 L 40056094.86 31614803.00 L 39093858.00 31614803.00 L 39093858.00 31219843.00 L 40056094.86 31219843.00 L 40067363.00 31205158.00 A 300040.69 300040.69 0 1 1 40067363.00 31629488.00  zM 40491693.00 20205158.00 L 40502961.14 20219843.00 L 41457323.00 20219843.00 L 41457323.00 20614803.00 L 40502961.14 20614803.00 L 40491693.00 20629488.00 A 300040.69 300040.69 0 1 1 40491693.00 20205158.00  zM 40491693.00 22205158.00 L 40502961.14 22219843.00 L 41457323.00 22219843.00 L 41457323.00 22614803.00 L 40502961.14 22614803.00 L 40491693.00 22629488.00 A 300040.69 300040.69 0 1 1 40491693.00 22205158.00  zM 40491693.00 24205158.00 L 40502961.14 24219843.00 L 41457323.00 24219843.00 L 41457323.00 24614803.00 L 40502961.14 24614803.00 L 40491693.00 24629488.00 A 300040.69 300040.69 0 1 1 40491693.00 24205158.00  zM 46067363.00 19629488.00 L 46056094.86 19614803.00 L 45097795.00 19614803.00 L 45097795.00 19219843.00 L 46056094.86 19219843.00 L 46067363.00 19205158.00 A 300040.69 300040.69 0 1 1 46067363.00 19629488.00  zM 46067363.00 21629488.00 L 46056094.86 21614803.00 L 45097795.00 21614803.00 L 45097795.00 21219843.00 L 46056094.86 21219843.00 L 46067363.00 21205158.00 A 300040.69 300040.69 0 1 1 46067363.00 21629488.00  zM 46067363.00 23629488.00 L 46056094.86 23614803.00 L 45097795.00 23614803.00 L 45097795.00 23219843.00 L 46056094.86 23219843.00 L 46067363.00 23205158.00 A 300040.69 300040.69 0 1 1 46067363.00 23629488.00  zM 40491693.00 28205158.00 L 40502961.14 28219843.00 L 41457323.00 28219843.00 L 41457323.00 28614803.00 L 40502961.14 28614803.00 L 40491693.00 28629488.00 A 300040.69 300040.69 0 1 1 40491693.00 28205158.00  zM 40491693.00 30205158.00 L 40502961.14 30219843.00 L 41457323.00 30219843.00 L 41457323.00 30614803.00 L 40502961.14 30614803.00 L 40491693.00 30629488.00 A 300040.69 300040.69 0 1 1 40491693.00 30205158.00  zM 46067363.00 31629488.00 L 46056094.86 31614803.00 L 45097795.00 31614803.00 L 45097795.00 31219843.00 L 46056094.86 31219843.00 L 46067363.00 31205158.00 A 300040.69 300040.69 0 1 1 46067363.00 31629488.00  zM 46067363.00 25629488.00 L 46056094.86 25614803.00 L 45097795.00 25614803.00 L 45097795.00 25219843.00 L 46056094.86 25219843.00 L 46067363.00 25205158.00 A 300040.69 300040.69 0 1 1 46067363.00 25629488.00  zM 46067363.00 27629488.00 L 46056094.86 27614803.00 L 45097795.00 27614803.00 L 45097795.00 27219843.00 L 46056094.86 27219843.00 L 46067363.00 27205158.00 A 300040.69 300040.69 0 1 1 46067363.00 27629488.00  zM 46067363.00 29629488.00 L 46056094.86 29614803.00 L 45097795.00 29614803.00 L 45097795.00 29219843.00 L 46056094.86 29219843.00 L 46067363.00 29205158.00 A 300040.69 300040.69 0 1 1 46067363.00 29629488.00  zM 46491693.00 20205158.00 L 46502961.14 20219843.00 L 47461260.00 20219843.00 L 47461260.00 20614803.00 L 46502961.14 20614803.00 L 46491693.00 20629488.00 A 300040.69 300040.69 0 1 1 46491693.00 20205158.00  zM 46491693.00 22205158.00 L 46502961.14 22219843.00 L 47461260.00 22219843.00 L 47461260.00 22614803.00 L 46502961.14 22614803.00 L 46491693.00 22629488.00 A 300040.69 300040.69 0 1 1 46491693.00 22205158.00  zM 46491693.00 24205158.00 L 46502961.14 24219843.00 L 47461260.00 24219843.00 L 47461260.00 24614803.00 L 46502961.14 24614803.00 L 46491693.00 24629488.00 A 300040.69 300040.69 0 1 1 46491693.00 24205158.00  zM 46491693.00 26205158.00 L 46502961.14 26219843.00 L 47461260.00 26219843.00 L 47461260.00 26614803.00 L 46502961.14 26614803.00 L 46491693.00 26629488.00 A 300040.69 300040.69 0 1 1 46491693.00 26205158.00  zM 46491693.00 28205158.00 L 46502961.14 28219843.00 L 47461260.00 28219843.00 L 47461260.00 28614803.00 L 46502961.14 28614803.00 L 46491693.00 28629488.00 A 300040.69 300040.69 0 1 1 46491693.00 28205158.00  zM 46491693.00 30205158.00 L 46502961.14 30219843.00 L 47461260.00 30219843.00 L 47461260.00 30614803.00 L 46502961.14 30614803.00 L 46491693.00 30629488.00 A 300040.69 300040.69 0 1 1 46491693.00 30205158.00  zM 55118106.01 23622076.90 m -1224848.10 0 a 1224848.10 1224848.10 0 1 1 2449696.20 0a 1224848.10 1224848.10 0 1 1 -2449696.20 0M 57716531.01 26377982.90 m -1224848.10 0 a 1224848.10 1224848.10 0 1 1 2449696.20 0a 1224848.10 1224848.10 0 1 1 -2449696.20 0M 60551177.01 26377982.90 m -1224848.10 0 a 1224848.10 1224848.10 0 1 1 2449696.20 0a 1224848.10 1224848.10 0 1 1 -2449696.20 0M 54717493.01 29716056.90 m -1224848.10 0 a 1224848.10 1224848.10 0 1 1 2449696.20 0a 1224848.10 1224848.10 0 1 1 -2449696.20 0M 60236214.62 29251994.02 m -633575.98 0 a 633575.98 633575.98 0 1 1 1267151.97 0a 633575.98 633575.98 0 1 1 -1267151.97 0M 60236214.62 31220498.02 m -633575.98 0 a 633575.98 633575.98 0 1 1 1267151.97 0a 633575.98 633575.98 0 1 1 -1267151.97 0M 26929132.82 31437015.52 m -339749.48 0 a 339749.48 339749.48 0 1 1 679498.96 0a 339749.48 339749.48 0 1 1 -679498.96 0M 28897636.82 31437015.52 m -339749.48 0 a 339749.48 339749.48 0 1 1 679498.96 0a 339749.48 339749.48 0 1 1 -679498.96 0M 26545271.62 37519711.02 m -633575.98 0 a 633575.98 633575.98 0 1 1 1267151.97 0a 633575.98 633575.98 0 1 1 -1267151.97 0M 26545271.62 39488215.02 m -633575.98 0 a 633575.98 633575.98 0 1 1 1267151.97 0a 633575.98 633575.98 0 1 1 -1267151.97 0M 40067363.00 33629488.00 L 40056094.86 33614803.00 L 39093858.00 33614803.00 L 39093858.00 33219843.00 L 40056094.86 33219843.00 L 40067363.00 33205158.00 A 300040.69 300040.69 0 1 1 40067363.00 33629488.00  zM 40067363.00 35629488.00 L 40056094.86 35614803.00 L 39093858.00 35614803.00 L 39093858.00 35219843.00 L 40056094.86 35219843.00 L 40067363.00 35205158.00 A 300040.69 300040.69 0 1 1 40067363.00 35629488.00  zM 40067363.00 37629488.00 L 40056094.86 37614803.00 L 39093858.00 37614803.00 L 39093858.00 37219843.00 L 40056094.86 37219843.00 L 40067363.00 37205158.00 A 300040.69 300040.69 0 1 1 40067363.00 37629488.00  zM 40491693.00 32205158.00 L 40502961.14 32219843.00 L 41457323.00 32219843.00 L 41457323.00 32614803.00 L 40502961.14 32614803.00 L 40491693.00 32629488.00 A 300040.69 300040.69 0 1 1 40491693.00 32205158.00  zM 40491693.00 34205158.00 L 40502961.14 34219843.00 L 41457323.00 34219843.00 L 41457323.00 34614803.00 L 40502961.14 34614803.00 L 40491693.00 34629488.00 A 300040.69 300040.69 0 1 1 40491693.00 34205158.00  zM 40491693.00 36205158.00 L 40502961.14 36219843.00 L 41457323.00 36219843.00 L 41457323.00 36614803.00 L 40502961.14 36614803.00 L 40491693.00 36629488.00 A 300040.69 300040.69 0 1 1 40491693.00 36205158.00  zM 40067363.00 39629488.00 L 40056094.86 39614803.00 L 39093858.00 39614803.00 L 39093858.00 39219843.00 L 40056094.86 39219843.00 L 40067363.00 39205158.00 A 300040.69 300040.69 0 1 1 40067363.00 39629488.00  zM 40491693.00 38205158.00 L 40502961.14 38219843.00 L 41457323.00 38219843.00 L 41457323.00 38614803.00 L 40502961.14 38614803.00 L 40491693.00 38629488.00 A 300040.69 300040.69 0 1 1 40491693.00 38205158.00  zM 46067363.00 39629488.00 L 46056094.86 39614803.00 L 45097795.00 39614803.00 L 45097795.00 39219843.00 L 46056094.86 39219843.00 L 46067363.00 39205158.00 A 300040.69 300040.69 0 1 1 46067363.00 39629488.00  zM 40067363.00 41629488.00 L 40056094.86 41614803.00 L 39093858.00 41614803.00 L 39093858.00 41219843.00 L 40056094.86 41219843.00 L 40067363.00 41205158.00 A 300040.69 300040.69 0 1 1 40067363.00 41629488.00  zM 40491693.00 40205158.00 L 40502961.14 40219843.00 L 41457323.00 40219843.00 L 41457323.00 40614803.00 L 40502961.14 40614803.00 L 40491693.00 40629488.00 A 300040.69 300040.69 0 1 1 40491693.00 40205158.00  zM 40491693.00 42205158.00 L 40502961.14 42219843.00 L 41457323.00 42219843.00 L 41457323.00 42614803.00 L 40502961.14 42614803.00 L 40491693.00 42629488.00 A 300040.69 300040.69 0 1 1 40491693.00 42205158.00  zM 37047240.86 44311035.29 m -294475.71 0 a 294475.71 294475.71 0 1 1 588951.41 0a 294475.71 294475.71 0 1 1 -588951.41 0M 38602359.42 42913394.20 m -131092.80 0 a 131092.80 131092.80 0 1 1 262185.61 0a 131092.80 131092.80 0 1 1 -262185.61 0M 37047240.86 46245287.29 m -294475.71 0 a 294475.71 294475.71 0 1 1 588951.41 0a 294475.71 294475.71 0 1 1 -588951.41 0M 26535428.62 47263805.02 m -633575.98 0 a 633575.98 633575.98 0 1 1 1267151.97 0a 633575.98 633575.98 0 1 1 -1267151.97 0M 26535428.62 49232309.02 m -633575.98 0 a 633575.98 633575.98 0 1 1 1267151.97 0a 633575.98 633575.98 0 1 1 -1267151.97 0M 26535427.62 54921286.02 m -633575.98 0 a 633575.98 633575.98 0 1 1 1267151.97 0a 633575.98 633575.98 0 1 1 -1267151.97 0M 26535427.62 56889790.02 m -633575.98 0 a 633575.98 633575.98 0 1 1 1267151.97 0a 633575.98 633575.98 0 1 1 -1267151.97 0M 31908264.01 56891761.90 m -1224848.10 0 a 1224848.10 1224848.10 0 1 1 2449696.20 0a 1224848.10 1224848.10 0 1 1 -2449696.20 0M 31496059.01 62992155.90 m -1224848.10 0 a 1224848.10 1224848.10 0 1 1 2449696.20 0a 1224848.10 1224848.10 0 1 1 -2449696.20 0M 46067363.00 33629488.00 L 46056094.86 33614803.00 L 45097795.00 33614803.00 L 45097795.00 33219843.00 L 46056094.86 33219843.00 L 46067363.00 33205158.00 A 300040.69 300040.69 0 1 1 46067363.00 33629488.00  zM 46491693.00 32205158.00 L 46502961.14 32219843.00 L 47461260.00 32219843.00 L 47461260.00 32614803.00 L 46502961.14 32614803.00 L 46491693.00 32629488.00 A 300040.69 300040.69 0 1 1 46491693.00 32205158.00  zM 46491693.00 34205158.00 L 46502961.14 34219843.00 L 47461260.00 34219843.00 L 47461260.00 34614803.00 L 46502961.14 34614803.00 L 46491693.00 34629488.00 A 300040.69 300040.69 0 1 1 46491693.00 34205158.00  zM 46067363.00 35629488.00 L 46056094.86 35614803.00 L 45097795.00 35614803.00 L 45097795.00 35219843.00 L 46056094.86 35219843.00 L 46067363.00 35205158.00 A 300040.69 300040.69 0 1 1 46067363.00 35629488.00  zM 46491693.00 36205158.00 L 46502961.14 36219843.00 L 47461260.00 36219843.00 L 47461260.00 36614803.00 L 46502961.14 36614803.00 L 46491693.00 36629488.00 A 300040.69 300040.69 0 1 1 46491693.00 36205158.00  zM 46067363.00 37629488.00 L 46056094.86 37614803.00 L 45097795.00 37614803.00 L 45097795.00 37219843.00 L 46056094.86 37219843.00 L 46067363.00 37205158.00 A 300040.69 300040.69 0 1 1 46067363.00 37629488.00  zM 50118107.95 35354337.40 m -312350.60 0 a 312350.60 312350.60 0 1 1 624701.20 0a 312350.60 312350.60 0 1 1 -624701.20 0M 50118107.95 36354337.40 m -312350.60 0 a 312350.60 312350.60 0 1 1 624701.20 0a 312350.60 312350.60 0 1 1 -624701.20 0M 47952753.42 38031504.20 m -131092.80 0 a 131092.80 131092.80 0 1 1 262185.61 0a 131092.80 131092.80 0 1 1 -262185.61 0M 50118107.95 33354337.40 m -312350.60 0 a 312350.60 312350.60 0 1 1 624701.20 0a 312350.60 312350.60 0 1 1 -624701.20 0M 50118107.95 34354337.40 m -312350.60 0 a 312350.60 312350.60 0 1 1 624701.20 0a 312350.60 312350.60 0 1 1 -624701.20 0M 60049206.62 37381916.02 m -633575.98 0 a 633575.98 633575.98 0 1 1 1267151.97 0a 633575.98 633575.98 0 1 1 -1267151.97 0M 46067363.00 41629488.00 L 46056094.86 41614803.00 L 45097795.00 41614803.00 L 45097795.00 41219843.00 L 46056094.86 41219843.00 L 46067363.00 41205158.00 A 300040.69 300040.69 0 1 1 46067363.00 41629488.00  zM 46491693.00 40205158.00 L 46502961.14 40219843.00 L 47461260.00 40219843.00 L 47461260.00 40614803.00 L 46502961.14 40614803.00 L 46491693.00 40629488.00 A 300040.69 300040.69 0 1 1 46491693.00 40205158.00  zM 46491693.00 42205158.00 L 46502961.14 42219843.00 L 47461260.00 42219843.00 L 47461260.00 42614803.00 L 46502961.14 42614803.00 L 46491693.00 42629488.00 A 300040.69 300040.69 0 1 1 46491693.00 42205158.00  zM 46491693.00 38205158.00 L 46502961.14 38219843.00 L 47461260.00 38219843.00 L 47461260.00 38614803.00 L 46502961.14 38614803.00 L 46491693.00 38629488.00 A 300040.69 300040.69 0 1 1 46491693.00 38205158.00  zM 52007871.42 40748039.20 m -131092.80 0 a 131092.80 131092.80 0 1 1 262185.61 0a 131092.80 131092.80 0 1 1 -262185.61 0M 60049206.62 39350420.02 m -633575.98 0 a 633575.98 633575.98 0 1 1 1267151.97 0a 633575.98 633575.98 0 1 1 -1267151.97 0M 60039363.62 47116168.02 m -633575.98 0 a 633575.98 633575.98 0 1 1 1267151.97 0a 633575.98 633575.98 0 1 1 -1267151.97 0M 60039363.62 49084672.02 m -633575.98 0 a 633575.98 633575.98 0 1 1 1267151.97 0a 633575.98 633575.98 0 1 1 -1267151.97 0M 60039364.62 54842546.02 m -633575.98 0 a 633575.98 633575.98 0 1 1 1267151.97 0a 633575.98 633575.98 0 1 1 -1267151.97 0M 54705902.01 56891761.90 m -1224848.10 0 a 1224848.10 1224848.10 0 1 1 2449696.20 0a 1224848.10 1224848.10 0 1 1 -2449696.20 0M 60039364.62 56811050.02 m -633575.98 0 a 633575.98 633575.98 0 1 1 1267151.97 0a 633575.98 633575.98 0 1 1 -1267151.97 0M 55118106.01 62992155.90 m -1224848.10 0 a 1224848.10 1224848.10 0 1 1 2449696.20 0a 1224848.10 1224848.10 0 1 1 -2449696.20 0"/>
</g>
</svg>
