<svg width="112.6220506mm" height="129.99999908mm" viewBox="0 0 44339390 51181102"  version="1.1" xmlns="http://www.w3.org/2000/svg" xmlns:xlink="http://www.w3.org/1999/xlink">
<desc>
Origin 0 0 Bound 21137392 17716536 44339390 51181102
</desc>
<g fill-rule="evenodd" fill="rgb(128, 128, 0)" stroke="black" stroke-width="1" transform="translate(0, 51181102) scale(1, -1) translate(-21137392, -17716536)">
<path id="N" d="M 52793976.00 55769171.00 L 52806047.00 55765148.00 L 52838236.00 55761124.00 L 52850307.00 55757100.00 L 52894567.00 55753077.00 L 52987112.00 55728935.00 L 53015278.00 55716864.00 L 53031372.00 55712840.00 L 53127940.00 55668580.00 L 53148059.00 55656509.00 L 53200367.00 55620296.00 L 53208414.00 55616272.00 L 53220485.00 55604201.00 L 53228532.00 55600177.00 L 53274804.00 55553905.00 L 53278828.00 55545858.00 L 53284864.00 55543846.00 L 53290899.00 55537810.00 L 53294923.00 55529763.00 L 53315041.00 55501597.00 L 53319065.00 55493550.00 L 53327112.00 55485503.00 L 53331136.00 55477455.00 L 53351254.00 55449290.00 L 53355278.00 55433195.00 L 53371373.00 55409053.00 L 53375396.00 55388934.00 L 53389479.00 55362781.00 L 53401550.00 55314497.00 L 53409597.00 55294378.00 L 53415633.00 55244082.00 L 53419657.00 55232011.00 L 53423680.00 55199822.00 L 53427704.00 55187751.00 L 53425692.00 55036863.00 L 53419657.00 54998638.00 L 53415633.00 54986567.00 L 53407586.00 54934260.00 L 53397526.00 54908106.00 L 53387467.00 54869881.00 L 53379420.00 54861833.00 L 53363325.00 54825620.00 L 53333148.00 54775325.00 L 53315041.00 54753194.00 L 53311017.00 54745147.00 L 53278828.00 54712958.00 L 53274804.00 54704910.00 L 53268769.00 54698875.00 L 53260722.00 54694851.00 L 53228532.00 54662662.00 L 53208414.00 54650591.00 L 53196343.00 54638520.00 L 53188296.00 54634496.00 L 53148059.00 54606330.00 L 53083680.00 54570117.00 L 53069597.00 54560058.00 L 53047467.00 54554023.00 L 53039420.00 54545975.00 L 53025337.00 54539940.00 L 52999183.00 54533904.00 L 52989124.00 54523845.00 L 52966994.00 54517810.00 L 52930781.00 54501715.00 L 52902615.00 54493668.00 L 52880485.00 54483608.00 L 52858354.00 54477573.00 L 52814094.00 54461478.00 L 52797999.00 54457454.00 L 52759774.00 54443372.00 L 52733621.00 54437336.00 L 52711490.00 54427277.00 L 52673266.00 54417218.00 L 52651135.00 54407159.00 L 52612910.00 54397099.00 L 52590780.00 54387040.00 L 52568650.00 54381005.00 L 52516342.00 54356863.00 L 52496224.00 54344792.00 L 52470070.00 54318638.00 L 52449952.00 54286448.00 L 52445928.00 54201951.00 L 52460011.00 54175797.00 L 52468058.00 54155679.00 L 52476106.00 54151655.00 L 52482141.00 54145620.00 L 52486165.00 54137573.00 L 52492200.00 54135561.00 L 52520366.00 54115442.00 L 52536461.00 54111419.00 L 52576697.00 54095324.00 L 52669242.00 54091300.00 L 52733621.00 54095324.00 L 52749715.00 54099348.00 L 52802023.00 54111419.00 L 52854331.00 54131537.00 L 52870425.00 54135561.00 L 52878473.00 54143608.00 L 52906639.00 54155679.00 L 52908650.00 54161715.00 L 52914686.00 54167750.00 L 52930781.00 54171774.00 L 52938828.00 54179821.00 L 52958946.00 54191892.00 L 52975041.00 54207987.00 L 52983088.00 54212011.00 L 52987112.00 54220058.00 L 53015278.00 54236153.00 L 53041432.00 54209999.00 L 53045455.00 54201951.00 L 53057526.00 54189880.00 L 53067585.00 54175797.00 L 53075633.00 54171774.00 L 53081668.00 54165738.00 L 53085692.00 54157691.00 L 53097763.00 54149644.00 L 53101787.00 54141596.00 L 53210426.00 54032957.00 L 53220485.00 54018874.00 L 53228532.00 54014851.00 L 53234568.00 54008815.00 L 53238591.00 54000768.00 L 53244627.00 53998756.00 L 53250662.00 53992720.00 L 53254686.00 53984673.00 L 53270781.00 53968578.00 L 53274804.00 53960531.00 L 53286875.00 53952484.00 L 53290899.00 53944436.00 L 53319065.00 53916271.00 L 53323089.00 53908223.00 L 53315041.00 53888105.00 L 53302970.00 53880058.00 L 53292911.00 53865975.00 L 53284864.00 53861951.00 L 53278828.00 53855916.00 L 53274804.00 53847868.00 L 53262733.00 53839821.00 L 53258710.00 53831774.00 L 53240603.00 53821714.00 L 53232556.00 53813667.00 L 53224509.00 53809643.00 L 53208414.00 53793549.00 L 53127940.00 53745265.00 L 53107822.00 53737217.00 L 53101787.00 53731182.00 L 53075633.00 53721123.00 L 53069597.00 53715087.00 L 53009242.00 53690945.00 L 52983088.00 53684910.00 L 52960958.00 53674850.00 L 52914686.00 53664791.00 L 52888532.00 53654732.00 L 52806047.00 53644673.00 L 52777881.00 53636625.00 L 52693384.00 53632602.00 L 52681313.00 53628578.00 L 52558591.00 53630590.00 L 52510307.00 53634614.00 L 52472082.00 53640649.00 L 52460011.00 53644673.00 L 52423798.00 53648697.00 L 52319182.00 53676862.00 L 52313147.00 53682898.00 L 52274922.00 53692957.00 L 52266875.00 53701004.00 L 52246756.00 53709052.00 L 52228650.00 53719111.00 L 52202496.00 53729170.00 L 52194449.00 53737217.00 L 52146165.00 53765383.00 L 52134094.00 53777454.00 L 52113975.00 53789525.00 L 52101904.00 53801596.00 L 52087821.00 53811655.00 L 52077762.00 53825738.00 L 52069715.00 53829762.00 L 52061667.00 53841833.00 L 52053620.00 53845856.00 L 52039537.00 53867987.00 L 52015395.00 53896152.00 L 51995277.00 53924318.00 L 51963088.00 53980649.00 L 51959064.00 53996744.00 L 51946993.00 54008815.00 L 51938946.00 54045028.00 L 51930898.00 54053075.00 L 51922851.00 54085265.00 L 51918827.00 54113431.00 L 51910780.00 54133549.00 L 51906756.00 54201951.00 L 51902732.00 54214022.00 L 51906756.00 54354851.00 L 51920839.00 54409170.00 L 51926874.00 54447395.00 L 51953028.00 54509762.00 L 51967111.00 54547987.00 L 51975159.00 54556034.00 L 52003324.00 54604318.00 L 52011372.00 54612366.00 L 52023443.00 54632484.00 L 52035514.00 54644555.00 L 52039537.00 54652603.00 L 52093857.00 54706922.00 L 52101904.00 54710946.00 L 52109952.00 54718993.00 L 52130070.00 54731064.00 L 52136105.00 54741123.00 L 52186401.00 54771301.00 L 52194449.00 54779348.00 L 52278946.00 54827632.00 L 52295040.00 54831656.00 L 52303088.00 54839703.00 L 52319182.00 54843727.00 L 52363443.00 54863845.00 L 52391609.00 54871893.00 L 52397644.00 54877928.00 L 52439893.00 54887987.00 L 52460011.00 54900058.00 L 52488177.00 54904082.00 L 52524390.00 54920177.00 L 52540484.00 54924200.00 L 52568650.00 54936271.00 L 52600839.00 54944319.00 L 52629005.00 54956390.00 L 52677289.00 54968461.00 L 52683325.00 54974496.00 L 52709479.00 54980532.00 L 52757763.00 55000650.00 L 52773857.00 55004674.00 L 52781905.00 55012721.00 L 52789952.00 55016745.00 L 52818118.00 55036863.00 L 52826165.00 55040887.00 L 52834212.00 55052958.00 L 52842260.00 55056982.00 L 52856343.00 55083135.00 L 52868414.00 55095206.00 L 52872437.00 55147514.00 L 52868414.00 55199822.00 L 52858354.00 55209881.00 L 52848295.00 55236035.00 L 52834212.00 55250118.00 L 52826165.00 55254141.00 L 52814094.00 55266212.00 L 52802023.00 55270236.00 L 52771846.00 55288343.00 L 52737644.00 55294378.00 L 52731609.00 55300414.00 L 52693384.00 55306449.00 L 52681313.00 55310473.00 L 52546520.00 55308461.00 L 52510307.00 55304437.00 L 52490189.00 55296390.00 L 52455987.00 55290354.00 L 52403680.00 55270236.00 L 52387585.00 55266212.00 L 52379538.00 55258165.00 L 52351372.00 55246094.00 L 52331253.00 55234023.00 L 52323206.00 55225976.00 L 52303088.00 55213905.00 L 52286993.00 55197810.00 L 52278946.00 55193786.00 L 52262851.00 55177692.00 L 52254804.00 55173668.00 L 52220603.00 55139467.00 L 52216579.00 55131419.00 L 52196460.00 55111301.00 L 52192437.00 55103254.00 L 52178354.00 55093195.00 L 52162259.00 55089171.00 L 52148176.00 55103254.00 L 52124034.00 55119348.00 L 52101904.00 55137455.00 L 52093857.00 55141479.00 L 52085810.00 55149526.00 L 52077762.00 55153550.00 L 52069715.00 55161597.00 L 52049596.00 55173668.00 L 52021431.00 55197810.00 L 52013383.00 55201834.00 L 52005336.00 55209881.00 L 51997289.00 55213905.00 L 51989241.00 55221952.00 L 51969123.00 55234023.00 L 51940957.00 55258165.00 L 51932910.00 55262189.00 L 51924863.00 55270236.00 L 51916815.00 55274260.00 L 51908768.00 55282307.00 L 51886638.00 55296390.00 L 51882614.00 55304437.00 L 51866519.00 55312485.00 L 51844389.00 55330591.00 L 51836342.00 55334615.00 L 51828295.00 55342662.00 L 51820247.00 55346686.00 L 51808176.00 55358757.00 L 51788058.00 55370828.00 L 51777999.00 55380887.00 L 51773975.00 55401005.00 L 51822259.00 55449290.00 L 51826283.00 55457337.00 L 51838354.00 55469408.00 L 51842377.00 55477455.00 L 51848413.00 55483491.00 L 51856460.00 55487514.00 L 51868531.00 55499585.00 L 51876579.00 55503609.00 L 51882614.00 55509645.00 L 51886638.00 55517692.00 L 51892673.00 55519704.00 L 51902732.00 55529763.00 L 51961076.00 55576035.00 L 51969123.00 55580059.00 L 51977170.00 55588106.00 L 52005336.00 55604201.00 L 52017407.00 55616272.00 L 52033502.00 55620296.00 L 52041549.00 55628343.00 L 52089833.00 55656509.00 L 52170307.00 55692722.00 L 52186401.00 55696745.00 L 52222614.00 55712840.00 L 52246756.00 55716864.00 L 52274922.00 55728935.00 L 52299064.00 55732958.00 L 52369478.00 55751065.00 L 52447940.00 55761124.00 L 52468058.00 55769171.00 L 52693384.00 55773195.00 L 52793976.00 55769171.00  z"/>
<path id="N" d="M 48987582.00 55769171.00 L 49003677.00 55765148.00 L 49043914.00 55761124.00 L 49055985.00 55757100.00 L 49108293.00 55753077.00 L 49158588.00 55738994.00 L 49200837.00 55732958.00 L 49222967.00 55722899.00 L 49277287.00 55708816.00 L 49283322.00 55702781.00 L 49305452.00 55696745.00 L 49369831.00 55672603.00 L 49377879.00 55664556.00 L 49410068.00 55652485.00 L 49418115.00 55644438.00 L 49438234.00 55636390.00 L 49458352.00 55624319.00 L 49470423.00 55620296.00 L 49542849.00 55576035.00 L 49550896.00 55567988.00 L 49571015.00 55555917.00 L 49583086.00 55543846.00 L 49591133.00 55539822.00 L 49599180.00 55531775.00 L 49619299.00 55519704.00 L 49651488.00 55487514.00 L 49659536.00 55483491.00 L 49667583.00 55471420.00 L 49675630.00 55467396.00 L 49691725.00 55451301.00 L 49699772.00 55447278.00 L 49707820.00 55435207.00 L 49727938.00 55411065.00 L 49735985.00 55407041.00 L 49737997.00 55401005.00 L 49770187.00 55368816.00 L 49782258.00 55348698.00 L 49806400.00 55320532.00 L 49818471.00 55300414.00 L 49830542.00 55288343.00 L 49862731.00 55232011.00 L 49870778.00 55223964.00 L 49882849.00 55191775.00 L 49890897.00 55183727.00 L 49902968.00 55151538.00 L 49911015.00 55143490.00 L 49919062.00 55123372.00 L 49929122.00 55105266.00 L 49935157.00 55083135.00 L 49951252.00 55046922.00 L 49961311.00 55004674.00 L 49969358.00 54984555.00 L 49977406.00 54944319.00 L 49989477.00 54896035.00 L 50003559.00 54773313.00 L 50007583.00 54761242.00 L 50005571.00 54638520.00 L 50001548.00 54614378.00 L 49991488.00 54507750.00 L 49975394.00 54451419.00 L 49971370.00 54423253.00 L 49967346.00 54407159.00 L 49959299.00 54387040.00 L 49951252.00 54354851.00 L 49935157.00 54314614.00 L 49890897.00 54214022.00 L 49880838.00 54199940.00 L 49874802.00 54177809.00 L 49862731.00 54165738.00 L 49838589.00 54121478.00 L 49830542.00 54113431.00 L 49818471.00 54093312.00 L 49810423.00 54085265.00 L 49798352.00 54065147.00 L 49786281.00 54053075.00 L 49782258.00 54045028.00 L 49750068.00 54012839.00 L 49746045.00 54004791.00 L 49729950.00 53988697.00 L 49725926.00 53980649.00 L 49671607.00 53926330.00 L 49663559.00 53922306.00 L 49647465.00 53906211.00 L 49639417.00 53902188.00 L 49607228.00 53874022.00 L 49526754.00 53817691.00 L 49498589.00 53801596.00 L 49490541.00 53793549.00 L 49442257.00 53765383.00 L 49426163.00 53761359.00 L 49418115.00 53753312.00 L 49385926.00 53741241.00 L 49377879.00 53733194.00 L 49321547.00 53709052.00 L 49289358.00 53701004.00 L 49271251.00 53690945.00 L 49241074.00 53684910.00 L 49212908.00 53672839.00 L 49196813.00 53668815.00 L 49168648.00 53664791.00 L 49148529.00 53656744.00 L 49120364.00 53652720.00 L 49108293.00 53648697.00 L 49060009.00 53644673.00 L 49031843.00 53636625.00 L 48947346.00 53632602.00 L 48935275.00 53628578.00 L 48828647.00 53630590.00 L 48756221.00 53634614.00 L 48641547.00 53652720.00 L 48625452.00 53656744.00 L 48605334.00 53664791.00 L 48573144.00 53668815.00 L 48557050.00 53672839.00 L 48528884.00 53684910.00 L 48488647.00 53692957.00 L 48480600.00 53701004.00 L 48444387.00 53709052.00 L 48438351.00 53715087.00 L 48392079.00 53733194.00 L 48331724.00 53765383.00 L 48311606.00 53773430.00 L 48303558.00 53781478.00 L 48287464.00 53785501.00 L 48279416.00 53793549.00 L 48223085.00 53825738.00 L 48211014.00 53837809.00 L 48194919.00 53845856.00 L 48182848.00 53857927.00 L 48174801.00 53861951.00 L 48166753.00 53869998.00 L 48146635.00 53882069.00 L 48094327.00 53934377.00 L 48086280.00 53938401.00 L 48048055.00 53976626.00 L 48044031.00 53984673.00 L 47995747.00 54032957.00 L 47983676.00 54053075.00 L 47975629.00 54061123.00 L 47971605.00 54069170.00 L 47965570.00 54075206.00 L 47927345.00 54133549.00 L 47919298.00 54141596.00 L 47899179.00 54177809.00 L 47893144.00 54183845.00 L 47883085.00 54209999.00 L 47875037.00 54218046.00 L 47862966.00 54250235.00 L 47850895.00 54262306.00 L 47846872.00 54286448.00 L 47832789.00 54312602.00 L 47826753.00 54334733.00 L 47816694.00 54352839.00 L 47808647.00 54389052.00 L 47800599.00 54409170.00 L 47790540.00 54447395.00 L 47786516.00 54475561.00 L 47776457.00 54509762.00 L 47770422.00 54568105.00 L 47766398.00 54632484.00 L 47762374.00 54644555.00 L 47764386.00 54751183.00 L 47774445.00 54877928.00 L 47784505.00 54916153.00 L 47796576.00 54976508.00 L 47804623.00 54996626.00 L 47810658.00 55022780.00 L 47850895.00 55131419.00 L 47862966.00 55151538.00 L 47879061.00 55187751.00 L 47885096.00 55193786.00 L 47891132.00 55215917.00 L 47899179.00 55223964.00 L 47943440.00 55296390.00 L 47983676.00 55348698.00 L 47987700.00 55356745.00 L 47999771.00 55368816.00 L 48003795.00 55376863.00 L 48126517.00 55499585.00 L 48134564.00 55503609.00 L 48146635.00 55515680.00 L 48154682.00 55519704.00 L 48166753.00 55531775.00 L 48186872.00 55543846.00 L 48198943.00 55555917.00 L 48206990.00 55559940.00 L 48247227.00 55588106.00 L 48275393.00 55604201.00 L 48283440.00 55612248.00 L 48311606.00 55624319.00 L 48367937.00 55656509.00 L 48412197.00 55676627.00 L 48428292.00 55680651.00 L 48436339.00 55688698.00 L 48480600.00 55700769.00 L 48498706.00 55710828.00 L 48524860.00 55716864.00 L 48563085.00 55730947.00 L 48601310.00 55736982.00 L 48657641.00 55753077.00 L 48709949.00 55757100.00 L 48722020.00 55761124.00 L 48746162.00 55765148.00 L 48758233.00 55769171.00 L 48935275.00 55773195.00 L 48987582.00 55769171.00  zM 48939298.37 55286330.82 L 48816576.39 55284318.99 L 48776339.67 55276271.65 L 48734091.12 55270236.14 L 48711960.93 55264200.63 L 48673736.05 55250117.78 L 48617404.64 55225975.75 L 48589238.94 55209881.07 L 48532907.54 55173668.02 L 48526872.03 55167632.51 L 48522848.36 55159585.17 L 48516812.86 55157573.34 L 48506753.68 55147514.16 L 48502730.00 55139466.81 L 48496694.50 55137454.98 L 48480599.81 55121360.29 L 48462493.29 55099230.10 L 48442374.93 55071064.40 L 48426280.25 55042898.70 L 48412197.40 55028815.85 L 48406161.89 55006685.65 L 48396102.71 54996626.47 L 48375984.35 54948342.42 L 48365925.17 54910117.54 L 48355865.99 54887987.34 L 48341783.14 54805502.08 L 48337759.47 54793431.06 L 48333735.80 54648578.89 L 48339771.31 54594259.32 L 48353854.16 54519821.40 L 48365925.17 54491655.70 L 48369948.84 54467513.67 L 48390067.20 54419229.61 L 48414209.23 54366921.88 L 48420244.74 54364910.04 L 48426280.25 54358874.53 L 48430303.92 54342779.85 L 48438351.26 54334732.51 L 48450422.27 54314614.15 L 48458469.62 54306566.80 L 48468528.80 54292483.95 L 48482611.65 54282424.78 L 48486635.32 54274377.43 L 48508765.51 54252247.24 L 48516812.86 54248223.57 L 48522848.36 54242188.06 L 48526872.03 54234140.72 L 48546990.39 54222069.70 L 48583203.44 54193904.00 L 48609357.30 54183844.82 L 48617404.64 54175797.48 L 48669712.37 54151655.45 L 48685807.06 54147631.78 L 48713972.76 54135560.76 L 48766280.49 54127513.42 L 48794446.19 54119466.08 L 48927227.35 54115442.41 L 48967464.07 54119466.08 L 48979535.08 54123489.75 L 49007700.78 54127513.42 L 49023795.47 54131537.09 L 49051961.17 54135560.76 L 49074091.36 54145619.94 L 49096221.56 54151655.45 L 49152552.96 54175797.48 L 49208884.36 54207986.85 L 49229002.72 54228105.21 L 49237050.06 54232128.88 L 49249121.08 54244199.90 L 49257168.42 54248223.57 L 49279298.61 54270353.76 L 49283322.28 54278401.10 L 49297405.13 54292483.95 L 49303440.64 54302543.13 L 49309476.15 54304554.97 L 49319535.33 54322661.49 L 49327582.67 54330708.83 L 49343677.36 54358874.53 L 49351724.70 54366921.88 L 49359772.04 54387040.24 L 49367819.39 54395087.58 L 49385925.91 54437336.13 L 49406044.27 54493667.53 L 49416103.44 54535916.08 L 49420127.12 54564081.78 L 49428174.46 54584200.14 L 49432198.13 54684791.93 L 49436221.80 54696862.94 L 49434209.97 54706922.12 L 49430186.30 54795442.90 L 49408056.10 54902070.19 L 49400008.76 54910117.54 L 49391961.42 54950354.25 L 49377878.57 54976508.12 L 49371843.06 54998638.31 L 49363795.71 55006685.65 L 49351724.70 55034851.35 L 49331606.34 55063017.05 L 49315511.66 55091182.75 L 49303440.64 55099230.10 L 49299416.97 55107277.44 L 49257168.42 55149525.99 L 49243085.57 55159585.17 L 49239061.90 55167632.51 L 49182730.50 55207869.23 L 49156576.63 55217928.41 L 49148529.29 55225975.75 L 49112316.24 55242070.44 L 49106280.74 55248105.94 L 49080126.87 55254141.45 L 49051961.17 55266212.47 L 48951369.38 55282307.15 L 48939298.37 55286330.82  z"/>
<path id="N" d="M 40572073.00 55771183.00 L 40616334.00 55767160.00 L 40672665.00 55759112.00 L 40731008.00 55753077.00 L 40753139.00 55747041.00 L 40835624.00 55728935.00 L 40857754.00 55718876.00 L 40900003.00 55708816.00 L 40906038.00 55702781.00 L 40928168.00 55696745.00 L 41052902.00 55636390.00 L 41064973.00 55624319.00 L 41081068.00 55620296.00 L 41089115.00 55612248.00 L 41117281.00 55592130.00 L 41137399.00 55580059.00 L 41149470.00 55567988.00 L 41163553.00 55557929.00 L 41167577.00 55549881.00 L 41185683.00 55539822.00 L 41256098.00 55469408.00 L 41260121.00 55461361.00 L 41280240.00 55441242.00 L 41284263.00 55433195.00 L 41304382.00 55413076.00 L 41308405.00 55405029.00 L 41316453.00 55396982.00 L 41320476.00 55388934.00 L 41328524.00 55380887.00 L 41344618.00 55352721.00 L 41352666.00 55344674.00 L 41364737.00 55324556.00 L 41372784.00 55316508.00 L 41376808.00 55304437.00 L 41396926.00 55284319.00 L 41394914.00 55274260.00 L 41386867.00 55270236.00 L 41370772.00 55254141.00 L 41350654.00 55246094.00 L 41342606.00 55238047.00 L 41334559.00 55234023.00 L 41229944.00 55165621.00 L 41173612.00 55133431.00 L 41165565.00 55125384.00 L 41145447.00 55113313.00 L 41133376.00 55101242.00 L 41117281.00 55097218.00 L 41101186.00 55081124.00 L 41093139.00 55077100.00 L 41000594.00 55020769.00 L 40988523.00 55008697.00 L 40964381.00 55004674.00 L 40958346.00 55010709.00 L 40954322.00 55026804.00 L 40938228.00 55042899.00 L 40934204.00 55058993.00 L 40926156.00 55067041.00 L 40914085.00 55087159.00 L 40902014.00 55099230.00 L 40897991.00 55107277.00 L 40881896.00 55119348.00 L 40877872.00 55127396.00 L 40835624.00 55169644.00 L 40827577.00 55173668.00 L 40819529.00 55181715.00 L 40791363.00 55201834.00 L 40763198.00 55217928.00 L 40753139.00 55227988.00 L 40726985.00 55238047.00 L 40708878.00 55248106.00 L 40676689.00 55256153.00 L 40644499.00 55268224.00 L 40549943.00 55282307.00 L 40537872.00 55286331.00 L 40415150.00 55284319.00 L 40374913.00 55276272.00 L 40336689.00 55270236.00 L 40308523.00 55258165.00 L 40292428.00 55254141.00 L 40224026.00 55221952.00 L 40177754.00 55191775.00 L 40155623.00 55173668.00 L 40147576.00 55169644.00 L 40129470.00 55151538.00 L 40125446.00 55143490.00 L 40119410.00 55137455.00 L 40111363.00 55133431.00 L 40061067.00 55063017.00 L 40012783.00 54974496.00 L 40008759.00 54958402.00 L 39994677.00 54924200.00 L 39988641.00 54894023.00 L 39972546.00 54837691.00 L 39968523.00 54773313.00 L 39964499.00 54761242.00 L 39966511.00 54630472.00 L 39970535.00 54582188.00 L 39974558.00 54558046.00 L 39992665.00 54479585.00 L 40004736.00 54451419.00 L 40008759.00 54427277.00 L 40020830.00 54415206.00 L 40024854.00 54399111.00 L 40048996.00 54346804.00 L 40057043.00 54338756.00 L 40061067.00 54330709.00 L 40081185.00 54302543.00 L 40085209.00 54294496.00 L 40091245.00 54288460.00 L 40099292.00 54284437.00 L 40109351.00 54266330.00 L 40143552.00 54232129.00 L 40151600.00 54228105.00 L 40179765.00 54203963.00 L 40207931.00 54183845.00 L 40262251.00 54153667.00 L 40292428.00 54147632.00 L 40304499.00 54135561.00 L 40336689.00 54131537.00 L 40376925.00 54119466.00 L 40505683.00 54115442.00 L 40545920.00 54119466.00 L 40557991.00 54123490.00 L 40590180.00 54127513.00 L 40606275.00 54131537.00 L 40634440.00 54135561.00 L 40656571.00 54145620.00 L 40682724.00 54151655.00 L 40702843.00 54163726.00 L 40731008.00 54175797.00 L 40795387.00 54212011.00 L 40803435.00 54224082.00 L 40811482.00 54228105.00 L 40827577.00 54244200.00 L 40835624.00 54248224.00 L 40869825.00 54282425.00 L 40873849.00 54290472.00 L 40889943.00 54306567.00 L 40893967.00 54314614.00 L 40906038.00 54326685.00 L 40918109.00 54346804.00 L 40924145.00 54352839.00 L 40936216.00 54356863.00 L 40964381.00 54344792.00 L 40972429.00 54336744.00 L 41052902.00 54284437.00 L 41060949.00 54276389.00 L 41081068.00 54264318.00 L 41089115.00 54256271.00 L 41109234.00 54244200.00 L 41117281.00 54236153.00 L 41145447.00 54220058.00 L 41173612.00 54199940.00 L 41193731.00 54187868.00 L 41201778.00 54179821.00 L 41229944.00 54163726.00 L 41258109.00 54143608.00 L 41278228.00 54131537.00 L 41290299.00 54119466.00 L 41298346.00 54115442.00 L 41326512.00 54095324.00 L 41334559.00 54091300.00 L 41340595.00 54085265.00 L 41344618.00 54073194.00 L 41336571.00 54053075.00 L 41324500.00 54041004.00 L 41320476.00 54032957.00 L 41312429.00 54024910.00 L 41300358.00 54004791.00 L 41268169.00 53972602.00 L 41264145.00 53964555.00 L 41248050.00 53948460.00 L 41244027.00 53940413.00 L 41219885.00 53916271.00 L 41197754.00 53898164.00 L 41189707.00 53894140.00 L 41185683.00 53886093.00 L 41177636.00 53882069.00 L 41147458.00 53851892.00 L 41123316.00 53835797.00 L 41101186.00 53817691.00 L 41073021.00 53801596.00 L 41064973.00 53793549.00 L 41036807.00 53777454.00 L 41028760.00 53769407.00 L 41000594.00 53757336.00 L 40980476.00 53745265.00 L 40964381.00 53741241.00 L 40956334.00 53733194.00 L 40924145.00 53721123.00 L 40916097.00 53713075.00 L 40900003.00 53709052.00 L 40863790.00 53692957.00 L 40827577.00 53684910.00 L 40789352.00 53670827.00 L 40751127.00 53664791.00 L 40724973.00 53654732.00 L 40704855.00 53650708.00 L 40638464.00 53644673.00 L 40616334.00 53638637.00 L 40592192.00 53634614.00 L 40441304.00 53628578.00 L 40364854.00 53632602.00 L 40296452.00 53640649.00 L 40284381.00 53644673.00 L 40240120.00 53648697.00 L 40211955.00 53656744.00 L 40137517.00 53674850.00 L 40111363.00 53684910.00 L 40095268.00 53688933.00 L 40059055.00 53705028.00 L 40030890.00 53713075.00 L 40010771.00 53725146.00 L 39990653.00 53733194.00 L 39970535.00 53745265.00 L 39950416.00 53753312.00 L 39942369.00 53761359.00 L 39922250.00 53765383.00 L 39914203.00 53773430.00 L 39857872.00 53805620.00 L 39849824.00 53813667.00 L 39829706.00 53825738.00 L 39821659.00 53833785.00 L 39801540.00 53845856.00 L 39783434.00 53863963.00 L 39761304.00 53882069.00 L 39753256.00 53886093.00 L 39717043.00 53922306.00 L 39708996.00 53926330.00 L 39700949.00 53938401.00 L 39692901.00 53942425.00 L 39684854.00 53954496.00 L 39676806.00 53958519.00 L 39670771.00 53964555.00 L 39666747.00 53972602.00 L 39642605.00 54000768.00 L 39638582.00 54008815.00 L 39614440.00 54032957.00 L 39602369.00 54053075.00 L 39594321.00 54061123.00 L 39582250.00 54081241.00 L 39574203.00 54089289.00 L 39542013.00 54145620.00 L 39533966.00 54153667.00 L 39505800.00 54201951.00 L 39501777.00 54218046.00 L 39493729.00 54226093.00 L 39469587.00 54282425.00 L 39465564.00 54298519.00 L 39453493.00 54326685.00 L 39445445.00 54354851.00 L 39433374.00 54383017.00 L 39429351.00 54407159.00 L 39419292.00 54441360.00 L 39407220.00 54505739.00 L 39403197.00 54541952.00 L 39395149.00 54578165.00 L 39391126.00 54670709.00 L 39393138.00 54801478.00 L 39405209.00 54865857.00 L 39413256.00 54934260.00 L 39425327.00 54966449.00 L 39429351.00 55002662.00 L 39445445.00 55038875.00 L 39449469.00 55063017.00 L 39483670.00 55141479.00 L 39489706.00 55167633.00 L 39499765.00 55177692.00 L 39505800.00 55199822.00 L 39519883.00 55213905.00 L 39529942.00 55240059.00 L 39542013.00 55252130.00 L 39546037.00 55268224.00 L 39554084.00 55276272.00 L 39570179.00 55304437.00 L 39576215.00 55306449.00 L 39584262.00 55322544.00 L 39622487.00 55372840.00 L 39626511.00 55380887.00 L 39658700.00 55413076.00 L 39662724.00 55421124.00 L 39668759.00 55423136.00 L 39735150.00 55489526.00 L 39739173.00 55497574.00 L 39745209.00 55499585.00 L 39773375.00 55523727.00 L 39781422.00 55527751.00 L 39809588.00 55551893.00 L 39831718.00 55565976.00 L 39835742.00 55574023.00 L 39890061.00 55604201.00 L 39892073.00 55610236.00 L 39902132.00 55616272.00 L 39922250.00 55624319.00 L 39930298.00 55632367.00 L 40055032.00 55692722.00 L 40071126.00 55696745.00 L 40107339.00 55712840.00 L 40135505.00 55716864.00 L 40163671.00 55728935.00 L 40199884.00 55736982.00 L 40256215.00 55753077.00 L 40312547.00 55757100.00 L 40332665.00 55765148.00 L 40397044.00 55769171.00 L 40409115.00 55773195.00 L 40572073.00 55771183.00  z"/>
<path id="N" d="M 45708290.00 55741006.00 L 45710302.00 55730947.00 L 45702255.00 55702781.00 L 45694207.00 55694733.00 L 45666042.00 55630355.00 L 45589592.00 55473432.00 L 45545331.00 55372840.00 L 45533260.00 55352721.00 L 45525213.00 55332603.00 L 45513142.00 55312485.00 L 45505095.00 55292366.00 L 45493024.00 55272248.00 L 45468882.00 55211893.00 L 45462846.00 55205857.00 L 45448763.00 55167633.00 L 45440716.00 55159585.00 L 45436692.00 55143490.00 L 45420598.00 55119348.00 L 45380361.00 55034851.00 L 45287816.00 54841715.00 L 45271722.00 54801478.00 L 45265686.00 54795443.00 L 45259651.00 54773313.00 L 45247580.00 54753194.00 L 45235509.00 54725029.00 L 45223438.00 54704910.00 L 45215390.00 54684792.00 L 45203319.00 54664674.00 L 45199296.00 54648579.00 L 45191248.00 54640532.00 L 45183201.00 54620413.00 L 45179177.00 54604318.00 L 45171130.00 54596271.00 L 45163083.00 54576153.00 L 45086633.00 54419230.00 L 45042372.00 54318638.00 L 45030301.00 54298519.00 L 45022254.00 54278401.00 L 45010183.00 54258283.00 L 45006159.00 54246212.00 L 44990065.00 54218046.00 L 44953852.00 54137573.00 L 44877402.00 53980649.00 L 44873378.00 53964555.00 L 44861307.00 53944436.00 L 44796929.00 53811655.00 L 44752668.00 53711063.00 L 44742609.00 53696981.00 L 44736573.00 53674850.00 L 44728526.00 53666803.00 L 44712431.00 53630590.00 L 44698349.00 53608460.00 L 44690301.00 53604436.00 L 44674207.00 53608460.00 L 44668171.00 53614495.00 L 44664147.00 53630590.00 L 44656100.00 53650708.00 L 44583674.00 53791537.00 L 44579650.00 53807632.00 L 44573615.00 53813667.00 L 44559532.00 53851892.00 L 44547461.00 53872010.00 L 44539414.00 53892129.00 L 44527343.00 53912247.00 L 44523319.00 53928342.00 L 44515272.00 53936389.00 L 44507224.00 53956507.00 L 44495153.00 53976626.00 L 44450893.00 54073194.00 L 44390538.00 54197928.00 L 44374443.00 54226093.00 L 44370419.00 54238164.00 L 44314088.00 54358875.00 L 44310064.00 54370946.00 L 44300005.00 54385028.00 L 44293970.00 54407159.00 L 44287934.00 54413194.00 L 44259768.00 54469526.00 L 44253733.00 54491656.00 L 44243674.00 54501715.00 L 44237638.00 54523845.00 L 44223555.00 54549999.00 L 44213496.00 54576153.00 L 44205449.00 54584200.00 L 44193378.00 54616390.00 L 44185330.00 54624437.00 L 44173259.00 54656626.00 L 44165212.00 54664674.00 L 44161188.00 54676745.00 L 44141070.00 54721005.00 L 44064620.00 54877928.00 L 44024384.00 54966449.00 L 44020360.00 54982544.00 L 44012313.00 54990591.00 L 44000242.00 55022780.00 L 43992194.00 55030828.00 L 43980123.00 55058993.00 L 43968052.00 55079112.00 L 43960005.00 55099230.00 L 43947934.00 55119348.00 L 43943910.00 55135443.00 L 43931839.00 55155561.00 L 43927815.00 55171656.00 L 43913733.00 55197810.00 L 43903673.00 55223964.00 L 43895626.00 55232011.00 L 43879531.00 55268224.00 L 43837283.00 55354733.00 L 43827224.00 55380887.00 L 43821188.00 55386923.00 L 43807105.00 55425147.00 L 43795034.00 55445266.00 L 43786987.00 55465384.00 L 43774916.00 55485503.00 L 43766869.00 55505621.00 L 43754798.00 55525739.00 L 43746750.00 55545858.00 L 43734679.00 55565976.00 L 43710537.00 55626331.00 L 43702490.00 55634378.00 L 43698466.00 55654497.00 L 43678348.00 55686686.00 L 43674324.00 55702781.00 L 43662253.00 55714852.00 L 43658229.00 55734970.00 L 43664265.00 55741006.00 L 44191366.00 55745029.00 L 44215508.00 55708816.00 L 44221543.00 55686686.00 L 44235626.00 55660532.00 L 44241662.00 55634378.00 L 44251721.00 55616272.00 L 44261780.00 55590118.00 L 44273851.00 55570000.00 L 44277875.00 55545858.00 L 44285922.00 55537810.00 L 44300005.00 55499585.00 L 44320123.00 55491538.00 L 44990065.00 55493550.00 L 45012195.00 55491538.00 L 45024266.00 55495562.00 L 45042372.00 55517692.00 L 45054443.00 55545858.00 L 45066515.00 55565976.00 L 45070538.00 55582071.00 L 45126870.00 55706805.00 L 45130893.00 55722899.00 L 45149000.00 55741006.00 L 45692195.00 55745029.00 L 45708290.00 55741006.00  zM 44501188.66 55089170.92 L 44483082.14 55083135.41 L 44485093.97 55065028.89 L 44491129.48 55042898.70 L 44501188.66 55032839.52 L 44507224.16 55010709.32 L 44527342.52 54966448.94 L 44531366.19 54950354.25 L 44543437.21 54930235.89 L 44547460.88 54910117.54 L 44559531.89 54898046.52 L 44567579.24 54861833.48 L 44583673.92 54837691.45 L 44587697.60 54817573.09 L 44601780.45 54791419.23 L 44607815.95 54769289.03 L 44621898.80 54743135.17 L 44627934.31 54721004.97 L 44633969.82 54714969.47 L 44644029.00 54688815.60 L 44648052.67 54672720.91 L 44658111.85 54662661.74 L 44676218.37 54664673.57 L 44680242.04 54688815.60 L 44688289.38 54708933.96 L 44694324.89 54714969.47 L 44704384.07 54741123.33 L 44736573.44 54809525.75 L 44744620.79 54841715.12 L 44752668.13 54849762.46 L 44784857.50 54930235.89 L 44792904.84 54938283.24 L 44800952.19 54974496.28 L 44811011.37 54984555.46 L 44849236.25 55079111.74 L 44843200.74 55085147.25 L 44501188.66 55089170.92  z"/>
<path id="N" d="M 46849001.00 55743018.00 L 46995865.00 55732958.00 L 47011960.00 55728935.00 L 47040125.00 55724911.00 L 47052196.00 55720887.00 L 47084386.00 55716864.00 L 47134682.00 55702781.00 L 47176930.00 55692722.00 L 47195037.00 55682662.00 L 47217167.00 55676627.00 L 47277522.00 55652485.00 L 47349948.00 55612248.00 L 47386161.00 55584083.00 L 47394208.00 55580059.00 L 47410303.00 55563964.00 L 47418351.00 55559940.00 L 47420362.00 55553905.00 L 47430422.00 55543846.00 L 47438469.00 55539822.00 L 47440481.00 55533787.00 L 47450540.00 55523727.00 L 47458587.00 55519704.00 L 47460599.00 55513668.00 L 47468646.00 55505621.00 L 47488765.00 55477455.00 L 47500836.00 55457337.00 L 47514919.00 55443254.00 L 47524978.00 55417100.00 L 47533025.00 55409053.00 L 47541073.00 55388934.00 L 47555155.00 55362781.00 L 47567226.00 55314497.00 L 47575274.00 55294378.00 L 47581309.00 55244082.00 L 47585333.00 55232011.00 L 47589357.00 55179704.00 L 47593380.00 55167633.00 L 47591368.00 55101242.00 L 47577286.00 54998638.00 L 47561191.00 54954378.00 L 47557167.00 54938283.00 L 47520954.00 54861833.00 L 47500836.00 54833668.00 L 47496812.00 54825620.00 L 47484741.00 54813549.00 L 47480717.00 54805502.00 L 47440481.00 54765265.00 L 47418351.00 54747159.00 L 47410303.00 54743135.00 L 47402256.00 54735088.00 L 47394208.00 54731064.00 L 47366043.00 54710946.00 L 47357995.00 54706922.00 L 47349948.00 54698875.00 L 47317759.00 54686804.00 L 47309711.00 54678756.00 L 47251368.00 54656626.00 L 47229238.00 54650591.00 L 47227226.00 54640532.00 L 47269475.00 54618401.00 L 47285569.00 54614378.00 L 47293617.00 54606330.00 L 47321782.00 54590236.00 L 47329830.00 54582188.00 L 47343913.00 54572129.00 L 47347936.00 54564082.00 L 47353972.00 54562070.00 L 47400244.00 54515798.00 L 47404268.00 54507750.00 L 47416339.00 54495679.00 L 47432433.00 54467514.00 L 47438469.00 54461478.00 L 47448528.00 54435324.00 L 47454564.00 54429289.00 L 47474682.00 54381005.00 L 47488765.00 54318638.00 L 47496812.00 54298519.00 L 47500836.00 54125502.00 L 47490777.00 54087277.00 L 47480717.00 54028933.00 L 47436457.00 53928342.00 L 47424386.00 53908223.00 L 47416339.00 53900176.00 L 47404268.00 53880058.00 L 47388173.00 53863963.00 L 47384149.00 53855916.00 L 47341901.00 53813667.00 L 47333853.00 53809643.00 L 47313735.00 53789525.00 L 47301664.00 53785501.00 L 47285569.00 53769407.00 L 47213143.00 53729170.00 L 47197049.00 53725146.00 L 47176930.00 53717099.00 L 47170895.00 53711063.00 L 47132670.00 53701004.00 L 47126634.00 53694969.00 L 47110540.00 53690945.00 L 47072315.00 53684910.00 L 47046161.00 53674850.00 L 47011960.00 53668815.00 L 46903321.00 53656744.00 L 46891250.00 53652720.00 L 45919533.00 53654732.00 L 45915509.00 55734970.00 L 45925568.00 55745029.00 L 46849001.00 55743018.00  zM 46468764.04 54473549.17 L 46458704.86 54463489.99 L 46454681.19 54197927.67 L 46454681.19 54101359.56 L 46460716.70 54095324.05 L 46673971.29 54091300.38 L 46810776.12 54095324.05 L 46838941.82 54107395.06 L 46855036.51 54111418.73 L 46875154.87 54119466.08 L 46897285.06 54133548.93 L 46901308.73 54141596.27 L 46907344.24 54147631.78 L 46915391.58 54151655.45 L 46941545.45 54197927.67 L 46953616.46 54242188.06 L 46951604.63 54328697.00 L 46937521.78 54383016.56 L 46929474.43 54391063.91 L 46925450.76 54399111.25 L 46891249.55 54433312.46 L 46863083.85 54449407.14 L 46855036.51 54457454.49 L 46822847.14 54461478.16 L 46794681.44 54469525.50 L 46468764.04 54473549.17  zM 46621663.56 55306449.18 L 46464740.37 55306449.18 L 46458704.86 55300413.68 L 46454681.19 54889999.18 L 46460716.70 54871892.66 L 46694089.65 54867868.98 L 46842965.49 54871892.66 L 46863083.85 54879940.00 L 46899296.90 54883963.67 L 46935509.94 54900058.36 L 46951604.63 54904082.03 L 46993853.18 54946330.58 L 47017995.21 54990590.97 L 47026042.55 55018756.67 L 47030066.22 55119348.46 L 47026042.55 55147514.16 L 47017995.21 55179703.53 L 46997876.85 55223963.92 L 46959651.97 55262188.80 L 46915391.58 55286330.82 L 46879178.54 55294378.17 L 46859060.18 55302425.51 L 46621663.56 55306449.18  z"/>
<path id="N" d="M 38210178.00 54495679.00 L 38214202.00 54218046.00 L 38220237.00 54212011.00 L 38489823.00 54207987.00 L 38507930.00 54201951.00 L 38511954.00 53039110.00 L 38505918.00 53033075.00 L 36558461.00 53029051.00 L 36552426.00 53023016.00 L 36548402.00 51860175.00 L 36542366.00 51854139.00 L 35975029.00 51850115.00 L 35956922.00 51856151.00 L 35952898.00 52105618.00 L 35956922.00 52121713.00 L 35950887.00 52139820.00 L 35669230.00 52143843.00 L 35661182.00 52155914.00 L 35663194.00 53006921.00 L 35657159.00 53025027.00 L 34007453.00 53029051.00 L 33989347.00 53035087.00 L 33985323.00 53288578.00 L 33989347.00 53300649.00 L 33983311.00 53318755.00 L 33701654.00 53322779.00 L 33695619.00 53328815.00 L 33691595.00 54491656.00 L 33697631.00 54497691.00 L 34164376.00 54501715.00 L 34182483.00 54495679.00 L 34186507.00 54246212.00 L 34182483.00 54230117.00 L 34188518.00 54212011.00 L 34462128.00 54207987.00 L 34478223.00 54203963.00 L 34482247.00 53825738.00 L 34496329.00 53815679.00 L 37705207.00 53817691.00 L 37723314.00 53823726.00 L 37727338.00 54463490.00 L 37723314.00 54479585.00 L 37729349.00 54497691.00 L 38204143.00 54501715.00 L 38210178.00 54495679.00  zM 38127692.94 54111418.73 L 38121657.43 54105383.23 L 38117633.76 53441477.42 L 38111598.25 53423370.90 L 34393725.75 53419347.23 L 34387690.24 53425382.74 L 34379642.90 53445501.09 L 34381654.73 53467631.29 L 34379642.90 54073193.86 L 34383666.57 54089288.54 L 34377631.06 54107395.06 L 34108045.07 54111418.73 L 34085914.87 54105383.23 L 34081891.20 53135678.39 L 34087926.71 53129642.88 L 36031360.06 53125619.21 L 36047454.75 53121595.54 L 36051478.42 53109524.52 L 36049466.59 51956742.62 L 36055502.09 51950707.12 L 36075620.45 51942659.77 L 36101774.32 51944671.61 L 36381419.49 51942659.77 L 36393490.50 51946683.45 L 36409585.19 51942659.77 L 36437750.89 51946683.45 L 36443786.40 51952718.95 L 36447810.07 52644790.46 L 36447810.07 53115560.03 L 36453845.58 53121595.54 L 38393255.26 53125619.21 L 38411361.78 53131654.71 L 38415385.45 54089288.54 L 38409349.94 54107395.06 L 38127692.94 54111418.73  z"/>
<path id="N" d="M 38210178.00 56270119.00 L 38214202.00 56000533.00 L 38220237.00 55982426.00 L 38497871.00 55978402.00 L 38507930.00 55968343.00 L 38511954.00 54725029.00 L 38507930.00 54708934.00 L 38501894.00 54702898.00 L 38031125.00 54698875.00 L 38025089.00 54704910.00 L 38021066.00 54974496.00 L 38013018.00 54994615.00 L 37731361.00 54998638.00 L 37727338.00 55477455.00 L 37721302.00 55483491.00 L 34502365.00 55487514.00 L 34484258.00 55481479.00 L 34480235.00 54721005.00 L 34474199.00 54702898.00 L 34007453.00 54698875.00 L 33989347.00 54704910.00 L 33985323.00 54986567.00 L 33975264.00 54996626.00 L 33711713.00 54994615.00 L 33701654.00 54996626.00 L 33695619.00 55002662.00 L 33691595.00 56254024.00 L 33695619.00 56270119.00 L 33703666.00 56274142.00 L 38175977.00 56272130.00 L 38192072.00 56276154.00 L 38210178.00 56270119.00  zM 38391243.42 55879822.38 L 37693136.41 55877810.54 L 34095974.05 55877810.54 L 34085914.87 55867751.36 L 34081891.20 54833667.78 L 34085914.87 54805502.08 L 34091950.38 54799466.57 L 34353489.03 54795442.90 L 34369583.72 54799466.57 L 34375619.22 54805502.08 L 34383666.57 54825620.43 L 34379642.90 54837691.45 L 34381654.73 55535798.46 L 34379642.90 55569999.67 L 34389702.08 55580058.85 L 38063314.19 55584082.52 L 38075385.21 55580058.85 L 38095503.56 55584082.52 L 38111598.25 55580058.85 L 38115621.92 55572011.50 L 38113610.09 54857809.81 L 38117633.76 54845738.79 L 38113610.09 54833667.78 L 38117633.76 54805502.08 L 38123669.27 54799466.57 L 38389231.59 54795442.90 L 38405326.27 54799466.57 L 38411361.78 54805502.08 L 38415385.45 55863727.69 L 38405326.27 55873786.87 L 38391243.42 55879822.38  z"/>
<path id="N" d="M 33967161.00 26240504.00 L 34032757.00 26174908.00 L 34048608.00 26136636.59 L 34048609.00 25874257.00 L 34032757.00 25835988.00 L 33967161.00 25770392.00 L 33928889.59 25754541.00 L 33797701.00 25754540.00 L 33759431.29 25770393.71 L 33693837.00 25835988.00 L 33677986.00 25874259.41 L 33677986.00 26005448.00 L 33693837.00 26043717.00 L 33732106.00 26059568.00 L 33863297.00 26059568.00 A 54118.70 54118.70 0 0 0 33863297.00 25951328.00 L 33786226.00 25951328.00 L 33786226.00 25896673.76 L 33820118.24 25862781.00 L 33906474.76 25862781.00 L 33940368.00 25896674.76 L 33940368.00 26114221.76 L 33906474.24 26148115.00 L 33820118.24 26148115.00 L 33770375.00 26098371.00 A 54117.01 54117.01 0 1 0 33693837.00 26174907.00 L 33759432.00 26240504.00 L 33797703.41 26256355.00 L 33928892.00 26256356.00 L 33967161.00 26240504.00  z"/>
<path id="N" d="M 33797703.41 27240607.00 L 33994488.00 27240607.00 L 34032757.00 27224756.00 L 34048608.00 27186487.00 L 34048608.00 26792913.00 L 34032757.00 26754644.00 L 33994488.00 26738793.00 L 33797701.00 26738792.00 L 33759431.29 26754645.71 L 33693837.00 26820240.00 L 33677986.00 26858511.41 L 33677985.00 26924104.00 L 33693838.71 26962373.71 L 33721164.08 26989699.50 L 33693837.00 27017026.00 L 33677986.00 27055295.00 L 33677985.00 27120891.00 L 33693838.71 27159160.71 L 33759432.00 27224756.00 L 33778566.50 27232681.50 L 33797703.41 27240607.00  zM 33940368.00 26935580.00 L 33820118.24 26935580.00 L 33786226.00 26901687.24 L 33786226.00 26880925.76 L 33820118.24 26847033.00 L 33940368.00 26847033.00 L 33940368.00 26935580.00  zM 33940368.00 27132367.00 L 33820118.24 27132367.00 L 33786226.00 27098474.24 L 33786226.00 27077712.24 L 33820118.76 27043820.00 L 33940368.00 27043820.00 L 33940368.00 27132367.00  z"/>
<path id="N" d="M 33797703.41 25272103.00 L 33994488.00 25272103.00 L 34032757.00 25256252.00 L 34048608.00 25217983.00 L 34048608.00 24824409.00 L 34032757.00 24786140.00 L 33994488.00 24770289.00 L 33797701.00 24770288.00 L 33759431.29 24786141.71 L 33693837.00 24851736.00 L 33677986.00 24890007.41 L 33677985.00 24955600.00 L 33693838.71 24993869.71 L 33721164.08 25021195.50 L 33693837.00 25048522.00 L 33677986.00 25086791.00 L 33677985.00 25152387.00 L 33693838.71 25190656.71 L 33759432.00 25256252.00 L 33778566.50 25264177.50 L 33797703.41 25272103.00  zM 33940368.00 24967076.00 L 33820118.24 24967076.00 L 33786226.00 24933183.24 L 33786226.00 24912421.76 L 33820118.24 24878529.00 L 33940368.00 24878529.00 L 33940368.00 24967076.00  zM 33940368.00 25163863.00 L 33820118.24 25163863.00 L 33786226.00 25129970.24 L 33786226.00 25109208.24 L 33820118.76 25075316.00 L 33940368.00 25075316.00 L 33940368.00 25163863.00  z"/>
<path id="N" d="M 39270143.41 27201237.00 L 39466928.00 27201237.00 L 39505197.00 27185386.00 L 39521048.00 27147117.00 L 39521048.00 26753543.00 L 39505197.00 26715274.00 L 39466928.00 26699423.00 L 39270141.00 26699422.00 L 39231871.29 26715275.71 L 39166277.00 26780870.00 L 39150426.00 26819141.41 L 39150425.00 26884734.00 L 39166278.71 26923003.71 L 39193604.08 26950329.50 L 39166277.00 26977656.00 L 39150426.00 27015925.00 L 39150425.00 27081521.00 L 39166278.71 27119790.71 L 39231872.00 27185386.00 L 39251006.50 27193311.50 L 39270143.41 27201237.00  zM 39412808.00 26896210.00 L 39292558.24 26896210.00 L 39258666.00 26862317.24 L 39258666.00 26841555.76 L 39292558.24 26807663.00 L 39412808.00 26807663.00 L 39412808.00 26896210.00  zM 39412808.00 27092997.00 L 39292558.24 27092997.00 L 39258666.00 27059104.24 L 39258666.00 27038342.24 L 39292558.76 27004450.00 L 39412808.00 27004450.00 L 39412808.00 27092997.00  z"/>
<path id="N" d="M 43451010.00 55741006.00 L 43461070.00 55722899.00 L 43459058.00 55704793.00 L 43461070.00 53723134.00 L 43457046.00 53707040.00 L 43461070.00 53694969.00 L 43457046.00 53686921.00 L 43461070.00 53674850.00 L 43455034.00 53656744.00 L 43362490.00 53652720.00 L 42911838.00 53652720.00 L 42905803.00 53658756.00 L 42901779.00 54451419.00 L 42895744.00 54457454.00 L 42177518.00 54455443.00 L 42173495.00 53662779.00 L 42167459.00 53656744.00 L 41628287.00 53652720.00 L 41616216.00 53656744.00 L 41612192.00 55708816.00 L 41614204.00 55734970.00 L 41620240.00 55741006.00 L 42163435.00 55745029.00 L 42169471.00 55738994.00 L 42173495.00 54934260.00 L 42179530.00 54928224.00 L 42879649.00 54924200.00 L 42897756.00 54930236.00 L 42901779.00 55722899.00 L 42907815.00 55741006.00 L 43434916.00 55745029.00 L 43451010.00 55741006.00  z"/>
<path id="N" d="M 39270143.41 25232733.00 L 39466928.00 25232733.00 L 39505197.00 25216882.00 L 39521048.00 25178613.00 L 39521048.00 24785039.00 A 54118.70 54118.70 0 0 0 39412808.00 24785039.00 L 39412808.00 24862110.00 L 39358155.00 24862110.00 L 39242815.00 24746770.00 A 54121.84 54121.84 0 0 0 39166277.00 24823308.00 L 39226401.54 24883432.54 L 39166277.00 24943557.00 L 39150426.00 24981828.41 L 39150425.00 25113017.00 L 39166278.71 25151286.71 L 39231872.00 25216882.00 L 39251006.50 25224807.50 L 39270143.41 25232733.00  zM 39412808.00 25124493.00 L 39292558.24 25124493.00 L 39258666.00 25090600.24 L 39258666.00 25004242.76 L 39292558.24 24970350.00 L 39412808.00 24970350.00 L 39412808.00 25124493.00  z"/>
<path id="N" d="M 51152318.00 55741006.00 L 51158353.00 55734970.00 L 51162377.00 54137573.00 L 51168412.00 54131537.00 L 51182495.00 54125502.00 L 51655277.00 54127513.00 L 51667348.00 54123490.00 L 51691490.00 54127513.00 L 51709596.00 54121478.00 L 51713620.00 53670827.00 L 51709596.00 53654732.00 L 50057879.00 53652720.00 L 50051844.00 53658756.00 L 50047820.00 54077218.00 L 50051844.00 54117454.00 L 50061903.00 54127513.00 L 50080009.00 54125502.00 L 50552791.00 54127513.00 L 50564862.00 54123490.00 L 50593027.00 54127513.00 L 50603087.00 54141596.00 L 50601075.00 54163726.00 L 50603087.00 55698757.00 L 50599063.00 55714852.00 L 50609122.00 55741006.00 L 51136223.00 55745029.00 L 51152318.00 55741006.00  z"/>
<path id="N" d="M 37411479.00 54887987.00 L 37421539.00 54873904.00 L 37419527.00 54855798.00 L 37421539.00 54471537.00 L 37417515.00 54459466.00 L 37421539.00 54451419.00 L 37419527.00 54445383.00 L 37421539.00 54419230.00 L 37415503.00 54413194.00 L 37351124.00 54409170.00 L 37335030.00 54413194.00 L 37328994.00 54419230.00 L 37331006.00 54429289.00 L 37328994.00 54733076.00 L 37324970.00 54745147.00 L 37328994.00 54769289.00 L 37324970.00 54785384.00 L 37318935.00 54791419.00 L 37093609.00 54795443.00 L 36974911.00 54801478.00 L 36960828.00 54795443.00 L 36946745.00 54797455.00 L 36942722.00 54881952.00 L 36950769.00 54889999.00 L 37411479.00 54887987.00  z"/>
<path id="N" d="M 33655034.00 25217983.00 L 33655035.00 24955600.00 L 33639183.00 24917331.00 L 33507992.00 24786140.00 L 33469723.00 24770288.00 L 33431454.00 24786140.00 L 33300263.00 24917331.00 L 33284412.00 24955600.00 L 33284412.00 25217983.00 A 54118.70 54118.70 0 0 0 33392652.00 25217983.00 L 33392652.00 24978018.00 L 33469723.00 24900947.00 L 33546794.00 24978018.00 L 33546794.00 25217983.00 A 54118.70 54118.70 0 0 0 33655034.00 25217983.00  z"/>
<path id="N" d="M 39466928.00 26108745.00 L 39389857.00 26108745.00 L 39389857.00 25769291.00 A 54118.70 54118.70 0 0 0 39281617.00 25769291.00 L 39281617.00 26108745.00 L 39204546.00 26108745.00 A 54118.70 54118.70 0 1 0 39204546.00 26216985.00 L 39466928.00 26216985.00 A 54121.84 54121.84 0 1 0 39466928.00 26108745.00  z"/>
<path id="N" d="M 35442911.47 24521652.47 m -100354.75 0 a 100354.75 100354.75 0 1 1 200709.51 0a 100354.75 100354.75 0 1 1 -200709.51 0"/>
<path id="N" d="M 35453963.00 54873904.00 L 35451951.00 54413194.00 L 35387573.00 54409170.00 L 35371478.00 54413194.00 L 35365442.00 54419230.00 L 35367454.00 54429289.00 L 35365442.00 54769289.00 L 35361419.00 54785384.00 L 35355383.00 54791419.00 L 35222602.00 54795443.00 L 34989229.00 54799467.00 L 34983194.00 54805502.00 L 34979170.00 54877928.00 L 34985205.00 54883964.00 L 35319170.00 54887987.00 L 35443904.00 54887987.00 L 35453963.00 54873904.00  z"/>
<path id="N" d="M 36693518.00 28100999.00 L 36705999.00 28070866.00 L 36693518.00 28040733.00 L 36663385.00 28028252.00 L 36564960.00 28028252.00 L 36534827.00 28040733.00 L 36522346.00 28070866.00 L 36534827.00 28100999.00 L 36564960.00 28113480.00 L 36663385.00 28113480.00 L 36693518.00 28100999.00  z"/>
<path id="N" d="M 36693518.00 23927771.00 L 36705999.00 23897638.00 L 36693518.00 23867505.00 L 36663385.00 23855024.00 L 36564960.00 23855024.00 L 36534827.00 23867505.00 L 36522346.00 23897638.00 L 36534827.00 23927771.00 L 36564960.00 23940252.00 L 36663385.00 23940252.00 L 36693518.00 23927771.00  z"/>
</g>
</svg>
