<svg width="112.6220506mm" height="129.99999908mm" viewBox="0 0 44339390 51181102"  version="1.1" xmlns="http://www.w3.org/2000/svg" xmlns:xlink="http://www.w3.org/1999/xlink">
<desc>
Origin 0 0 Bound 21137392 17716536 44339390 51181102
</desc>
<g fill-rule="evenodd" fill="rgb(0, 0, 255)" stroke="black" stroke-width="1" transform="translate(0, 51181102) scale(1, -1) translate(-21137392, -17716536)">
<path id="N" d="M 27220877.00 47755905.00 L 27224411.00 47738138.01 L 27224411.00 44507874.00 L 25101959.00 44507874.00 L 25101959.00 48244497.00 L 27220877.00 48244499.00 L 27220877.00 47755905.00  zM 26535432.99 47263780.17 m -416951.83 0 a 416951.83 416951.83 0 1 1 833903.65 0a 416951.83 416951.83 0 1 1 -833903.65 0"/>
<path id="N" d="M 60039371.79 54842522.99 m -593404.85 0 a 593404.85 593404.85 0 1 1 1186809.70 0a 593404.85 593404.85 0 1 1 -1186809.70 0M 60039368.03 54842528.51 m -416944.49 0 a 416944.49 416944.49 0 1 1 833888.98 0a 416944.49 416944.49 0 1 1 -833888.98 0"/>
<path id="N" d="M 38877952.00 26084605.00 L 39173228.00 26084605.00 L 39211632.00 26076966.00 L 39244188.00 26055212.00 L 39598519.00 25700881.00 L 39620273.00 25668324.00 L 39627912.00 25629921.00 L 39627912.00 25574803.00 L 40075819.76 25574803.00 L 40095891.00 25600960.00 A 259692.04 259692.04 0 1 0 40095891.00 25233686.00 L 40075819.76 25259843.00 L 39133858.00 25259843.00 L 39133858.00 25574803.00 L 39427206.00 25574803.00 L 39427206.00 25588354.00 L 39131661.00 25883899.00 L 38877952.00 25883899.00 L 38877952.00 25738189.00 L 36909448.00 25738189.00 L 36909448.00 26230315.00 L 38877952.00 26230315.00 L 38877952.00 26084605.00  zM 40279526.59 25417324.48 m -160563.52 0 a 160563.52 160563.52 0 1 1 321127.04 0a 160563.52 160563.52 0 1 1 -321127.04 0"/>
<path id="N" d="M 58614436.00 37545223.00 L 57888016.00 36818804.00 L 57855460.00 36797050.00 L 57817056.00 36789411.00 L 55433882.00 36789411.00 A 100353.26 100353.26 0 1 0 55433882.00 36990117.00 L 57775488.96 36990117.00 L 58472515.00 37687144.00 A 100357.91 100357.91 0 0 0 58614436.00 37545223.00  z"/>
<path id="N" d="M 53899566.00 39251969.00 L 53899566.00 38110236.00 L 53891927.00 38071833.00 L 53870174.00 38039276.00 L 52600353.00 36769455.98 L 52600353.00 32086614.00 L 52592714.00 32048210.00 L 52570960.00 32015654.00 L 50901669.00 30346363.00 L 50869113.00 30324609.00 L 50830709.00 30316970.00 L 47421260.00 30316970.00 L 47421260.00 30259843.00 L 46483236.24 30259843.00 L 46463165.00 30233686.00 A 259692.04 259692.04 0 1 0 46463165.00 30600960.00 L 46483236.24 30574803.00 L 47421260.00 30574803.00 L 47421260.00 30517676.00 L 50789142.00 30517676.00 L 52399647.00 32128181.00 L 52399647.00 36811023.00 L 52407286.00 36849427.00 L 52429040.00 36881983.00 L 53698860.00 38151803.98 L 53698860.00 39251969.00 A 100353.26 100353.26 0 0 0 53899566.00 39251969.00  zM 46279526.59 30417324.48 m -160563.52 0 a 160563.52 160563.52 0 1 1 321127.04 0a 160563.52 160563.52 0 1 1 -321127.04 0"/>
<path id="N" d="M 56102361.00 51840551.00 L 56102361.00 49798769.00 L 55413385.00 49798769.00 L 55335964.00 49783369.00 L 55321376.62 49773622.00 L 55216534.00 49773622.00 L 55216534.00 49623911.29 L 55211073.00 49596457.00 L 55216534.00 49569002.71 L 55216534.00 49379921.00 L 57725698.00 49379921.00 L 58400250.00 48705369.00 L 58465884.00 48661513.00 L 58500979.83 48654532.09 L 58562991.00 48592521.00 L 59251967.00 48592520.00 L 59251967.00 47608268.00 L 58366140.00 47608268.00 L 57584200.00 46826328.00 L 55424039.00 46826328.00 L 55396579.68 46820866.00 L 55216534.00 46820866.00 L 55216534.00 46427165.00 L 55396584.71 46427165.00 L 55424039.00 46421704.00 L 56200786.99 46421704.00 L 56200785.00 44360237.00 L 54035432.00 44360236.00 L 54035432.00 51840552.00 L 56102361.00 51840551.00  z"/>
<path id="N" d="M 61512214.00 44360236.00 L 59350393.00 44360237.00 L 59350393.00 47590506.04 L 59353926.00 47608268.00 L 59353926.00 48001967.00 L 61512214.00 48001969.00 L 61512214.00 44360236.00  zM 60039367.03 47116150.51 m -416944.49 0 a 416944.49 416944.49 0 1 1 833888.98 0a 416944.49 416944.49 0 1 1 -833888.98 0"/>
<path id="N" d="M 58604593.00 47279475.00 L 57878173.00 46553056.00 L 57845617.00 46531302.00 L 57807213.00 46523663.00 L 55424039.00 46523663.00 A 100353.26 100353.26 0 1 0 55424039.00 46724369.00 L 57765645.96 46724369.00 L 58462672.00 47421396.00 A 100357.91 100357.91 0 0 0 58604593.00 47279475.00  z"/>
<path id="N" d="M 53899566.00 48996063.00 L 53899566.00 47814961.00 L 53891927.00 47776557.00 L 53870173.00 47744001.00 L 50336573.00 44210401.00 L 50336573.00 38740157.00 L 50328934.00 38701753.00 L 50307180.00 38669197.00 L 46984346.00 35346363.00 L 46951790.00 35324609.00 L 46913386.00 35316970.00 L 46516655.35 35316970.00 L 46504437.00 35287472.00 A 259715.78 259715.78 0 0 0 46095891.00 35233686.00 L 46075819.76 35259843.00 L 45137795.00 35259843.00 L 45137795.00 35574803.00 L 46075819.76 35574803.00 L 46095891.00 35600960.00 A 259692.04 259692.04 0 0 0 46504437.00 35547174.00 L 46516655.35 35517676.00 L 46871819.00 35517676.00 L 50135867.00 38781724.00 L 50135867.00 44251968.00 L 50143506.00 44290372.00 L 50165260.00 44322928.00 L 53698860.00 47856528.00 L 53698860.00 48996063.00 A 100353.26 100353.26 0 1 0 53899566.00 48996063.00  zM 46279526.59 35417324.48 m -160563.52 0 a 160563.52 160563.52 0 1 1 321127.04 0a 160563.52 160563.52 0 1 1 -321127.04 0"/>
<path id="N" d="M 35331117.00 68621048.06 L 35331117.00 59055123.00 A 101958.15 101958.15 0 0 1 35433076.00 58953164.00 L 51181098.00 58953164.00 A 101958.15 101958.15 0 0 1 51283057.00 59055123.00 L 51283057.00 68621048.05 L 51369660.04 68671048.34 L 65374828.00 60585160.74 L 65374828.00 26029012.68 L 53728335.04 19304907.19 L 53641732.00 19354907.48 L 53641732.00 28855345.46 L 53716169.68 28879531.61 L 53741732.38 28880039.62 L 53882915.00 28738857.00 L 54046053.00 28620331.00 A 1285115.98 1285115.98 0 1 1 53741732.38 30552014.38 L 53716169.68 30552522.39 L 53641732.00 30576708.54 L 53641732.00 34527559.00 L 56359331.85 34527559.00 L 56312197.44 34627559.52 L 56312589.00 36687452.00 L 57817056.00 36687452.00 L 57844510.65 36692913.00 L 57982282.00 36692913.00 L 58080708.00 36791339.00 L 59258277.00 36791339.00 L 59258666.56 34627559.52 L 59211532.15 34527559.00 L 61614173.00 34527559.00 L 61614173.00 42224409.00 L 59261810.00 42224409.00 L 59261810.00 42124065.99 L 59258276.00 42106299.00 L 59258276.00 39940945.00 L 58012489.00 39940945.00 L 57948173.00 40005261.00 L 57882539.00 40049117.00 L 57805117.00 40064517.00 L 56214163.00 40064517.00 L 56214163.00 42106299.00 L 56210629.00 42124065.99 L 56210629.00 42224409.00 L 53641732.00 42224409.00 L 53641732.00 43029568.00 L 53326772.00 43029568.00 A 100353.26 100353.26 0 0 0 53326772.00 43230274.00 L 53641732.00 43230274.00 L 53641732.00 44251969.00 L 56299211.00 44251969.00 L 56299211.00 44342475.04 L 56302744.00 44360237.00 L 56302746.00 46421704.00 L 57807213.00 46421704.00 L 57834667.65 46427165.00 L 57972439.00 46427165.00 L 58070865.00 46525591.00 L 59248434.00 46525591.00 L 59248434.00 44360237.00 L 59251967.00 44342475.04 L 59251967.00 44251969.00 L 61614173.00 44251969.00 L 61614173.00 51948309.00 L 59251967.00 51948309.00 L 59251967.00 51858317.99 L 59248433.00 51840551.00 L 59248433.00 49675197.00 L 58002646.00 49675197.00 L 57938330.00 49739513.00 L 57872696.00 49783369.00 L 57795274.00 49798769.00 L 56204320.00 49798769.00 L 56204320.00 51840551.00 L 56200786.00 51858317.99 L 56200786.00 51948309.00 L 53779178.29 51948309.00 L 52559055.00 51946557.00 L 52559055.00 48228346.00 L 48649757.25 48228338.94 L 48720472.00 48157631.25 L 48720472.00 44488189.00 L 37397876.00 44488189.00 L 37397876.00 48227216.00 L 43213451.00 48228346.00 L 34350394.00 48228346.00 L 34350394.00 52084860.00 L 31692913.00 52088394.00 L 31692913.00 52096696.00 L 30275592.00 52096695.79 L 30275592.00 52005949.96 L 30272059.00 51988188.00 L 30272057.00 49926721.00 L 28767590.00 49926721.00 L 28740135.35 49921260.00 L 28602364.00 49921260.00 L 28503938.00 49822834.00 L 27326369.00 49822834.00 L 27326369.00 51988188.00 L 27322836.00 52005949.96 L 27322836.00 52096695.34 L 25029766.00 52096695.00 L 25000000.00 52066929.00 L 25000000.00 44389764.00 L 27322836.00 44389764.00 L 27322836.00 44490107.01 L 27326370.00 44507874.00 L 27326370.00 46673228.00 L 28572157.00 46673228.00 L 28636473.00 46608912.00 L 28702107.00 46565056.00 L 28779529.00 46549656.00 L 30370483.00 46549656.00 L 30370483.00 44507874.00 L 30374017.00 44490107.01 L 30374017.00 44389764.00 L 32874016.00 44389764.00 L 32874016.00 42716709.95 L 32885921.00 42708755.00 L 33338678.00 42255999.00 A 100357.91 100357.91 0 1 0 33196757.00 42114078.00 L 32874016.00 42436819.71 L 32874016.00 42322835.00 L 30235157.15 42322835.00 L 30282291.56 42222834.48 L 30281900.00 40182627.00 L 28777433.00 40182627.00 L 28749978.35 40177166.00 L 28612207.00 40177166.00 L 28513781.00 40078740.00 L 27336212.00 40078740.00 L 27335822.44 42222834.48 L 27382956.85 42322835.00 L 25000000.00 42322835.00 L 25000000.00 34645669.00 L 27332679.00 34645669.00 L 27332679.00 34746013.01 L 27336213.00 34763780.00 L 27336213.00 36929134.00 L 28582000.00 36929134.00 L 28646316.00 36864818.00 L 28711950.00 36820962.00 L 28789372.00 36805562.00 L 30380326.00 36805562.00 L 30380326.00 34763780.00 L 30383860.00 34746013.01 L 30383860.00 34645669.00 L 32578740.00 34645669.00 L 32578740.00 30914326.71 L 32493475.53 30862076.46 L 32400040.00 30909684.00 A 1285029.62 1285029.62 0 1 1 32400040.00 28535198.00 L 32493475.53 28582805.54 L 32578740.00 28530555.29 L 32578740.00 27267916.00 L 31462603.96 27267916.00 L 29628922.83 29101596.36 L 29640391.00 29129283.00 A 693878.11 693878.11 0 1 1 29177804.00 28666696.00 L 29205490.64 28678164.17 L 31126866.00 26756788.00 A 299407.16 299407.16 0 0 1 31338583.00 26669092.00 L 32578740.00 26669092.00 L 32578740.00 26184959.00 L 34360236.00 26184959.00 L 34360236.00 26230315.00 L 36328740.00 26230315.00 L 36328740.00 25738189.00 L 34360236.00 25738189.00 L 34360236.00 25783545.00 L 32578740.00 25783545.00 L 32578740.00 24473214.93 L 32483633.94 24442313.25 L 32473233.00 24456629.00 A 1285038.99 1285038.99 0 1 1 32473233.00 22787465.00 L 32483633.94 22801780.75 L 32578740.00 22770879.07 L 32578740.00 21780614.00 L 30915489.51 21780614.00 L 24927364.09 25257587.89 L 22956892.00 27228059.04 L 22956892.00 28714560.00 L 22975039.00 28732707.00 A 400280.67 400280.67 0 1 1 22339921.00 28732707.00 L 22358068.00 28714560.00 L 22358068.00 27104039.00 A 299410.26 299410.26 0 0 1 22445764.00 26892323.00 L 24531536.00 24806550.00 L 24592908.00 24759338.00 L 30685161.00 21221904.00 L 30757373.00 21191992.00 L 30834867.00 21181790.00 L 32578740.00 21181790.00 L 32578740.00 19582211.88 L 32492136.96 19532211.59 L 21239346.00 26029012.69 L 21239346.00 60585161.32 L 31606309.96 66570530.41 L 31633858.00 66554625.54 L 31633858.00 66586435.27 L 35244513.96 68671048.35 L 35331117.00 68621048.06  zM 22657480.00 29960636.09 m -400268.33 0 a 400268.33 400268.33 0 1 1 800536.66 0a 400268.33 400268.33 0 1 1 -800536.66 0M 24606299.00 28976384.09 m -400268.33 0 a 400268.33 400268.33 0 1 1 800536.66 0a 400268.33 400268.33 0 1 1 -800536.66 0M 22657480.00 30944888.09 m -400268.33 0 a 400268.33 400268.33 0 1 1 800536.66 0a 400268.33 400268.33 0 1 1 -800536.66 0M 24606299.00 29960636.09 m -400268.33 0 a 400268.33 400268.33 0 1 1 800536.66 0a 400268.33 400268.33 0 1 1 -800536.66 0M 24606299.00 30944888.09 m -400268.33 0 a 400268.33 400268.33 0 1 1 800536.66 0a 400268.33 400268.33 0 1 1 -800536.66 0M 27007872.99 29330710.17 m -416951.83 0 a 416951.83 416951.83 0 1 1 833903.65 0a 416951.83 416951.83 0 1 1 -833903.65 0M 55118110.00 23622048.88 m -1285061.55 0 a 1285061.55 1285061.55 0 1 1 2570123.11 0a 1285061.55 1285061.55 0 1 1 -2570123.11 0M 57716530.65 26377980.32 m -899975.68 0 a 899975.68 899975.68 0 1 1 1799951.35 0a 899975.68 899975.68 0 1 1 -1799951.35 0M 60236218.03 29251976.51 m -416944.49 0 a 416944.49 416944.49 0 1 1 833888.98 0a 416944.49 416944.49 0 1 1 -833888.98 0M 60551181.00 26377954.88 m -1285061.55 0 a 1285061.55 1285061.55 0 1 1 2570123.11 0a 1285061.55 1285061.55 0 1 1 -2570123.11 0M 26929134.00 31437014.09 m -400268.33 0 a 400268.33 400268.33 0 1 1 800536.66 0a 400268.33 400268.33 0 1 1 -800536.66 0M 27913386.00 31437014.09 m -400268.33 0 a 400268.33 400268.33 0 1 1 800536.66 0a 400268.33 400268.33 0 1 1 -800536.66 0M 28897638.00 31437014.09 m -400268.33 0 a 400268.33 400268.33 0 1 1 800536.66 0a 400268.33 400268.33 0 1 1 -800536.66 0M 26535431.03 56889772.51 m -416944.49 0 a 416944.49 416944.49 0 1 1 833888.98 0a 416944.49 416944.49 0 1 1 -833888.98 0M 31633858.00 64284570.40 L 31616871.85 64270062.86 L 31596888.00 64273228.00 A 1285061.55 1285061.55 0 1 1 31596888.00 61711024.00 L 31616871.85 61714189.14 L 31633858.00 61699681.60 L 31633858.00 61716879.48 L 31796055.00 61742569.00 A 1285115.98 1285115.98 0 0 1 31796055.00 64241683.00 L 31633858.00 64267372.52 L 31633858.00 64284570.40  zM 42657480.00 49393560.00 L 40275591.00 49393560.00 A 259703.10 259703.10 0 0 1 40275591.00 48874156.00 L 42583788.31 48874156.00 L 42609949.00 48863320.00 A 259707.05 259707.05 0 0 1 42860802.00 49297810.00 L 42841117.00 49317495.00 A 259692.04 259692.04 0 0 1 42657480.00 49393560.00  zM 53871324.00 55914562.00 L 54017084.60 55808661.34 L 54002645.92 55708661.00 L 32611528.08 55708661.00 L 32597089.40 55808661.34 L 32742850.00 55914562.00 A 1285038.99 1285038.99 0 0 1 31807443.00 58172834.00 L 31709899.15 58157384.55 L 31692913.00 58171892.09 L 31692913.00 58154694.20 L 31608276.00 58141289.00 A 1285115.98 1285115.98 0 0 1 31236824.00 55796036.00 L 31318299.65 55754522.29 L 31294291.81 55654522.00 L 26456693.00 55654522.00 A 693900.64 693900.64 0 0 1 26191152.00 54319557.00 L 26208335.00 54309302.00 A 693905.80 693905.80 0 0 1 26736859.00 54257247.00 L 26759772.32 54266738.00 L 53641732.00 54266738.00 L 53641732.00 54286423.00 L 58208661.00 54286423.00 A 693900.64 693900.64 0 0 1 58699317.00 54489659.00 L 59282968.62 55073310.94 L 59295831.29 55069222.53 L 59370473.14 55019393.64 L 59348819.00 54910533.00 A 693878.11 693878.11 0 1 1 59971357.00 55533071.00 L 59862496.03 55511416.79 L 59812668.03 55586056.17 L 59808578.77 55598921.38 L 60530025.00 56320368.00 L 60551650.24 56346718.24 L 60575756.00 56370824.00 L 60594693.95 56399166.77 L 60616320.00 56425518.00 L 60632391.93 56455586.04 L 60651328.00 56483926.00 L 60664369.55 56515411.11 L 60680443.00 56545482.00 L 60690340.93 56578111.63 L 60703383.00 56609598.00 L 60710032.75 56643027.90 L 60719929.00 56675652.00 L 60723270.22 56709575.89 L 60729921.00 56743011.00 L 60729921.00 56777102.31 L 60733262.00 56811024.00 L 60729921.00 56844945.44 L 60729921.00 56879037.00 L 60723270.07 56912472.84 L 60719929.00 56946395.00 L 60710033.32 56979017.20 L 60703383.00 57012450.00 L 60690339.80 57043939.11 L 60680443.00 57076565.00 L 60664371.39 57106632.44 L 60651328.00 57138122.00 L 60632389.26 57166465.96 L 60616320.00 57196529.00 L 60594697.55 57222875.85 L 60575756.00 57251224.00 L 60551645.66 57275334.34 L 60530025.00 57301679.00 L 60503680.34 57323299.66 L 60479570.00 57347410.00 L 60451221.85 57366351.55 L 60424875.00 57387974.00 L 60394811.96 57404043.26 L 60366468.00 57422982.00 L 60334978.44 57436025.39 L 60304911.00 57452097.00 L 60272285.11 57461993.80 L 60240796.00 57475037.00 L 60207363.20 57481687.32 L 60174741.00 57491583.00 L 60140818.84 57494924.07 L 60107383.00 57501575.00 L 60073291.44 57501575.00 L 60039370.00 57504916.00 L 60005448.31 57501575.00 L 59971357.00 57501575.00 L 59937921.89 57494924.22 L 59903998.00 57491583.00 L 59871373.90 57481686.75 L 59837944.00 57475037.00 L 59806457.63 57461994.93 L 59773828.00 57452097.00 L 59743757.11 57436023.55 L 59712272.00 57422982.00 L 59683932.04 57404045.93 L 59653864.00 57387974.00 L 59627512.77 57366347.95 L 59599170.00 57347410.00 L 59575064.24 57323304.24 L 59548714.00 57301679.00 L 57921241.11 55674207.00 L 55358516.37 55674207.00 L 55334508.53 55774207.29 L 55377350.00 55796036.00 A 1285038.99 1285038.99 0 1 1 53871324.00 55914562.00  zM 60236220.00 31220486.21 m -693878.11 0 a 693878.11 693878.11 0 1 1 1387756.22 0a 693878.11 693878.11 0 1 1 -1387756.22 0M 55118110.00 62992127.88 m -1285061.55 0 a 1285061.55 1285061.55 0 1 1 2570123.11 0a 1285061.55 1285061.55 0 1 1 -2570123.11 0"/>
<path id="N" d="M 49029971.00 44097270.82 L 49029971.00 43644911.86 L 48915523.48 43439943.98 L 48761701.46 43298818.84 L 48692389.45 43270108.83 L 48639340.37 43217059.77 L 48612929.01 43153297.36 L 48039126.59 42579494.99 L 47521260.00 42579494.71 L 47521260.00 42674803.00 L 46527601.00 42674803.00 L 46499026.00 42703378.00 A 360547.15 360547.15 0 0 1 45993472.64 42197825.62 L 45912816.08 41798544.79 L 45780361.24 41674803.00 L 45037795.00 41674803.00 L 45037795.00 41159843.00 L 45855599.33 41159843.00 L 46077551.09 40785235.15 L 46060029.47 40703377.47 A 360572.65 360572.65 0 0 1 45993472.64 40197825.62 L 45912816.08 39798544.79 L 45780361.24 39674803.00 L 45037795.00 39674803.00 L 45037795.00 39159843.00 L 45855599.33 39159843.00 L 46077551.09 38785235.15 L 46060029.47 38703377.47 A 360572.65 360572.65 0 0 1 45993472.64 38197825.62 L 45912816.08 37798544.79 L 45780361.24 37674803.00 L 45037795.00 37674803.00 L 45037795.00 37159843.00 L 45855599.33 37159843.00 L 46077551.09 36785235.15 L 46060029.47 36703377.47 A 360572.65 360572.65 0 0 1 45993472.64 36197825.62 L 45912816.08 35798544.79 L 45780361.24 35674803.00 L 45037795.00 35674803.00 L 45037795.00 35159843.00 L 45855599.33 35159843.00 L 46077551.09 34785235.15 L 46060029.47 34703377.47 A 360572.65 360572.65 0 0 1 46060029.47 34131268.53 L 46068530.15 34091554.97 L 45865607.92 33777049.97 L 45793426.09 33716735.00 L 45011811.00 33716735.00 A 299410.26 299410.26 0 0 1 44800095.00 33629040.00 L 43174111.00 32003055.00 A 299396.78 299396.78 0 0 1 43086415.00 31791339.00 L 43086415.00 23302635.00 L 41887973.46 22104193.46 L 41517323.00 22290320.88 L 41517323.00 22674803.00 L 40703456.67 22674803.00 L 40481504.91 23049410.85 L 40499026.53 23131268.53 A 360572.65 360572.65 0 0 1 40565583.36 23636820.38 L 40646239.92 24036101.21 L 40778694.76 24159843.00 L 41517323.00 24159843.00 L 41517323.00 24674803.00 L 40703456.67 24674803.00 L 40481504.91 25049410.85 L 40499026.53 25131268.53 A 360572.65 360572.65 0 0 1 40565583.36 25636820.38 L 40646239.92 26036101.21 L 40778694.76 26159843.00 L 41517323.00 26159843.00 L 41517323.00 26674803.00 L 40703456.67 26674803.00 L 40481504.91 27049410.85 L 40499026.53 27131268.53 A 360572.65 360572.65 0 0 1 40565583.36 27636820.38 L 40646239.92 28036101.21 L 40778694.76 28159843.00 L 41517323.00 28159843.00 L 41517323.00 28674803.00 L 40703456.67 28674803.00 L 40481504.91 29049410.85 L 40499026.53 29131268.53 A 360572.65 360572.65 0 0 1 40565583.36 29636820.38 L 40646239.92 30036101.21 L 40778694.76 30159843.00 L 41517323.00 30159843.00 L 41517323.00 30674803.00 L 40703456.67 30674803.00 L 40481504.91 31049410.85 L 40499026.53 31131268.53 A 360572.65 360572.65 0 0 1 40565583.36 31636820.38 L 40646239.92 32036101.21 L 40778694.76 32159843.00 L 41517323.00 32159843.00 L 41517323.00 32674803.00 L 40527601.00 32674803.00 L 40499026.00 32703378.00 A 360547.15 360547.15 0 0 1 39993472.64 32197825.62 L 39912816.08 31798544.79 L 39780361.24 31674803.00 L 39033858.77 31674803.63 L 38670913.64 31749057.36 L 34414910.00 36005061.00 L 34414910.00 39055119.00 L 34399510.00 39132541.00 L 34355654.00 39198175.00 L 33779528.00 39774301.00 L 33779528.00 41640438.56 L 34143259.80 41791101.20 L 35517637.54 40416723.46 L 35499577.12 40354455.96 L 35387951.30 40157328.50 L 35316747.45 40060835.65 L 35257149.59 40052988.59 A 299392.75 299392.75 0 0 1 35122930.00 39552064.00 L 36295076.00 38379917.07 L 36295076.00 36161417.00 A 299397.55 299397.55 0 0 1 36893900.00 36161417.00 L 36893900.00 38483683.16 L 36954201.21 38538083.37 L 37185176.33 38668874.77 L 37247429.70 38686931.30 L 38660094.00 37274267.00 L 38725729.00 37230411.00 L 38803150.00 37215011.00 L 39033858.00 37215011.00 L 39033858.00 37159843.00 L 39855599.33 37159843.00 L 40077551.09 36785235.15 L 40060029.47 36703377.47 A 360572.65 360572.65 0 0 1 39993472.64 36197825.62 L 39912816.08 35798544.79 L 39780361.24 35674803.00 L 39033858.00 35674803.00 L 39033858.00 35159843.00 L 39855599.33 35159843.00 L 40077551.09 34785235.15 L 40060029.47 34703377.47 A 360572.65 360572.65 0 0 1 40499026.00 34131268.00 L 40527601.00 34159843.00 L 41517323.00 34159843.00 L 41517323.00 34674803.00 L 40703456.67 34674803.00 L 40481504.91 35049410.85 L 40499026.53 35131268.53 A 360572.65 360572.65 0 0 1 40565583.36 35636820.38 L 40646239.92 36036101.21 L 40778694.76 36159843.00 L 41517323.00 36159843.00 L 41517323.00 36674803.00 L 40703456.67 36674803.00 L 40481504.91 37049410.85 L 40499026.53 37131268.53 A 360572.65 360572.65 0 0 1 40565583.36 37636820.38 L 40646239.92 38036101.21 L 40778694.76 38159843.00 L 41517323.00 38159843.00 L 41517323.00 38674803.00 L 40703456.67 38674803.00 L 40481504.91 39049410.85 L 40499026.53 39131268.53 A 360572.65 360572.65 0 0 1 40565583.36 39636820.38 L 40646239.92 40036101.21 L 40778694.76 40159843.00 L 41517323.00 40159843.00 L 41517323.00 40674803.00 L 40703456.67 40674803.00 L 40481504.91 41049410.85 L 40499026.53 41131268.53 A 360572.65 360572.65 0 0 1 40565583.36 41636820.38 L 40646239.92 42036101.21 L 40778694.76 42159843.00 L 41517323.00 42159843.00 L 41517323.00 42674803.00 L 40850590.75 42674803.00 L 40637081.21 43068504.49 L 40725606.05 43204525.00 L 47677165.00 43204525.00 A 299397.55 299397.55 0 1 1 47677165.00 43803349.00 L 40354331.00 43803349.00 A 299410.26 299410.26 0 0 1 40142615.00 43715653.00 L 39153846.03 42726884.03 L 38917107.93 42853332.53 L 38801173.59 42930987.99 L 38789269.82 42990815.85 L 38745415.40 43056445.90 L 38737886.88 43063974.48 L 38672253.57 43107832.54 L 38594830.80 43123232.88 L 38521149.15 43123230.85 L 37674483.33 43969896.67 L 37837384.40 44363773.49 L 48751432.88 44375509.58 L 49029971.00 44097270.82  zM 40279526.59 33417324.48 m -160563.52 0 a 160563.52 160563.52 0 1 1 321127.04 0a 160563.52 160563.52 0 1 1 -321127.04 0"/>
<path id="N" d="M 46068530.15 32743091.03 L 46060029.47 32703377.47 A 360572.65 360572.65 0 0 1 45993472.64 32197825.62 L 45912816.08 31798544.79 L 45780361.24 31674803.00 L 45037795.00 31674803.00 L 45037795.00 31159843.00 L 45855599.33 31159843.00 L 46077551.09 30785235.15 L 46060029.47 30703377.47 A 360572.65 360572.65 0 0 1 45993472.64 30197825.62 L 45912816.08 29798544.79 L 45780361.24 29674803.00 L 45037795.00 29674803.00 L 45037795.00 29159843.00 L 45855599.33 29159843.00 L 46077551.09 28785235.15 L 46060029.47 28703377.47 A 360572.65 360572.65 0 0 1 45993472.64 28197825.62 L 45912816.08 27798544.79 L 45780361.24 27674803.00 L 45037795.00 27674803.00 L 45037795.00 27159843.00 L 45855599.33 27159843.00 L 46077551.09 26785235.15 L 46060029.47 26703377.47 A 360572.65 360572.65 0 0 1 45993472.64 26197825.62 L 45912816.08 25798544.79 L 45780361.24 25674803.00 L 45037795.00 25674803.00 L 45037795.00 25159843.00 L 45855599.33 25159843.00 L 46077551.09 24785235.15 L 46060029.47 24703377.47 A 360572.65 360572.65 0 0 1 45993472.64 24197825.62 L 45912816.08 23798544.79 L 45780361.24 23674803.00 L 45037795.00 23674803.00 L 45037795.00 23159843.00 L 45855599.33 23159843.00 L 46077551.09 22785235.15 L 46060029.47 22703377.47 A 360572.65 360572.65 0 0 1 45993472.64 22197825.62 L 45912816.08 21798544.79 L 45780361.24 21674803.00 L 45037795.00 21674803.00 L 45037795.00 21159843.00 L 45855599.33 21159843.00 L 46077551.09 20785235.15 L 46060029.47 20703377.47 A 360572.65 360572.65 0 0 1 46499026.00 20131268.00 L 46527601.00 20159843.00 L 47521260.00 20159843.00 L 47521260.00 20674803.00 L 46703456.67 20674803.00 L 46481504.91 21049410.85 L 46499026.53 21131268.53 A 360572.65 360572.65 0 0 1 46565583.36 21636820.38 L 46646239.92 22036101.21 L 46778694.76 22159843.00 L 47521260.00 22159843.00 L 47521260.00 22674803.00 L 46703456.67 22674803.00 L 46481504.91 23049410.85 L 46499026.53 23131268.53 A 360572.65 360572.65 0 0 1 46565583.36 23636820.38 L 46646239.92 24036101.21 L 46778694.76 24159843.00 L 47521260.00 24159843.00 L 47521260.00 24674803.00 L 46703456.67 24674803.00 L 46481504.91 25049410.85 L 46499026.53 25131268.53 A 360572.65 360572.65 0 0 1 46565583.36 25636820.38 L 46646239.92 26036101.21 L 46778694.76 26159843.00 L 47521260.00 26159843.00 L 47521260.00 26674803.00 L 46703456.67 26674803.00 L 46481504.91 27049410.85 L 46499026.53 27131268.53 A 360572.65 360572.65 0 0 1 46565583.36 27636820.38 L 46646239.92 28036101.21 L 46778694.76 28159843.00 L 47521260.00 28159843.00 L 47521260.00 28674803.00 L 46787349.09 28674803.00 L 46623975.22 28971719.26 L 46796875.77 29215011.00 L 51326772.00 29215011.00 L 51404194.00 29230411.00 L 51469828.00 29274267.00 L 52431544.22 30235982.72 L 52795276.00 30085320.03 L 52795276.00 18766205.33 L 51153784.82 17818490.00 L 35460390.18 17818490.00 L 33779528.00 18788936.12 L 33779528.00 21181790.00 L 34276477.00 21181790.00 A 299410.26 299410.26 0 0 1 34488193.00 21269486.00 L 35418410.00 22199702.00 A 299407.16 299407.16 0 0 1 35506106.00 22411419.00 L 35506106.00 24638189.00 L 38977950.82 24638186.88 L 39266520.75 24384375.25 L 39376629.00 24274267.00 L 39442263.00 24230411.00 L 39519685.00 24215011.00 L 39718050.77 24215011.00 L 39926961.08 23868567.93 L 39912816.08 23798544.79 L 39780361.24 23674803.00 L 39033858.00 23674803.00 L 39033858.00 23159843.00 L 39855599.33 23159843.00 L 40077551.09 22785235.15 L 40060029.47 22703377.47 A 360572.65 360572.65 0 0 1 39993472.64 22197825.62 L 39912816.08 21798544.79 L 39780361.24 21674803.00 L 39033858.00 21674803.00 L 39033858.00 21159843.00 L 40031455.00 21159843.00 L 40060030.00 21131268.00 A 360547.15 360547.15 0 0 1 40417510.00 21084204.00 L 40475891.35 21117911.00 L 41624535.00 21117911.00 A 299410.26 299410.26 0 0 1 41836251.00 21205607.00 L 43597543.00 22966899.00 A 299396.78 299396.78 0 0 1 43685239.00 23178615.00 L 43685239.00 31667318.95 L 45135831.95 33117911.00 L 45826692.01 33117911.00 L 46068530.15 32743091.03  zM 40060030.00 19703378.00 L 40031455.00 19674803.00 L 39033858.00 19674803.00 L 39033858.00 19159843.00 L 40031455.00 19159843.00 L 40060030.00 19131268.00 A 360547.15 360547.15 0 1 1 40060030.00 19703378.00  zM 40279526.59 20417324.48 m -160563.52 0 a 160563.52 160563.52 0 1 1 321127.04 0a 160563.52 160563.52 0 1 1 -321127.04 0M 46279526.59 19417324.48 m -160563.52 0 a 160563.52 160563.52 0 1 1 321127.04 0a 160563.52 160563.52 0 1 1 -321127.04 0"/>
<path id="N" d="M 51057531.00 37813066.10 L 51057531.00 36579864.00 L 50194307.22 35716640.22 L 50166780.00 35724016.00 A 372880.16 372880.16 0 0 1 49891117.47 35058509.53 L 49896636.85 35034959.40 L 49896636.85 34673702.60 L 49891117.47 34650152.47 A 372874.03 372874.03 0 0 1 49891117.47 34058509.53 L 49896636.85 34034959.40 L 49896636.85 33673702.60 L 49891117.47 33650152.47 A 372874.03 372874.03 0 1 1 50345102.53 33650152.47 L 50339583.15 33673702.60 L 50339583.15 34034959.40 L 50345102.53 34058509.53 A 372874.03 372874.03 0 0 1 50345102.53 34650152.47 L 50339583.15 34673702.60 L 50339583.15 35034959.40 L 50345102.53 35058509.53 A 372874.03 372874.03 0 0 1 50487795.00 35403001.00 L 50480419.22 35430528.22 L 51155955.57 36106064.57 L 51549657.00 35942988.10 L 51549657.00 33430257.97 L 49739034.97 31619635.00 L 46841005.23 31619635.00 L 46632094.92 31966078.07 L 46646239.92 32036101.21 L 46778694.76 32159843.00 L 47521260.00 32159843.00 L 47521260.00 32674803.00 L 46703456.67 32674803.00 L 46481504.91 33049410.85 L 46499026.53 33131268.53 A 360572.65 360572.65 0 0 1 46565583.36 33636820.38 L 46646239.92 34036101.21 L 46778694.76 34159843.00 L 47521260.00 34159843.00 L 47521260.00 34674802.15 L 47687381.66 34999694.66 L 50663829.57 37976142.57 L 51057531.00 37813066.10  zM 50118109.24 36354330.93 m -204721.07 0 a 204721.07 204721.07 0 1 1 409442.13 0a 204721.07 204721.07 0 1 1 -409442.13 0"/>
<path id="N" d="M 37047252.42 46245284.42 m -256892.72 0 a 256892.72 256892.72 0 1 1 513785.44 0a 256892.72 256892.72 0 1 1 -513785.44 0M 37047243.05 46245278.89 m -170598.11 0 a 170598.11 170598.11 0 1 1 341196.22 0a 170598.11 170598.11 0 1 1 -341196.22 0"/>
<path id="N" d="M 37978991.00 29274267.00 L 38044625.00 29230411.00 L 38122047.00 29215011.00 L 39033858.00 29215011.00 L 39033858.00 29159843.00 L 39855599.33 29159843.00 L 40077551.09 28785235.15 L 40060029.47 28703377.47 A 360572.65 360572.65 0 0 1 39993472.64 28197825.62 L 39912816.08 27798544.79 L 39780361.24 27674803.00 L 39033856.15 27674805.12 L 38915046.97 27330315.80 L 34260236.00 27330315.00 L 34260236.00 27267916.00 L 33779528.00 27267916.00 L 33779528.00 32959335.56 L 34143259.80 33109998.20 L 37978991.00 29274267.00  z"/>
<path id="N" d="M 38877952.00 25100353.00 L 38937008.00 25100353.00 L 38975412.00 25092714.00 L 39007968.00 25070960.00 L 39561252.00 24517676.00 L 40042400.65 24517676.00 L 40054619.00 24547174.00 A 259715.78 259715.78 0 0 0 40463165.00 24600960.00 L 40483236.24 24574803.00 L 41417323.00 24574803.00 L 41417323.00 24259843.00 L 40483236.24 24259843.00 L 40463165.00 24233686.00 A 259692.04 259692.04 0 0 0 40054619.00 24287472.00 L 40042400.65 24316970.00 L 39519685.00 24316970.00 L 39481282.00 24324609.00 L 39448725.00 24346363.00 L 38895441.00 24899647.00 L 38877952.00 24899647.00 L 38877952.00 24738189.00 L 36909448.00 24738189.00 L 36909448.00 25230315.00 L 38877952.00 25230315.00 L 38877952.00 25100353.00  zM 40279526.59 24417324.48 m -160563.52 0 a 160563.52 160563.52 0 1 1 321127.04 0a 160563.52 160563.52 0 1 1 -321127.04 0"/>
<path id="N" d="M 61512214.00 34629518.00 L 59360236.00 34629518.00 L 59360236.00 37856254.04 L 59363769.00 37874016.00 L 59363769.00 38267715.00 L 61512214.00 38267716.99 L 61512214.00 34629518.00  zM 60049210.03 37381898.51 m -416944.49 0 a 416944.49 416944.49 0 1 1 833888.98 0a 416944.49 416944.49 0 1 1 -833888.98 0"/>
<path id="N" d="M 46149677.00 33192414.00 L 46118136.76 33216616.00 L 45094946.96 33216616.00 L 43586534.00 31708203.96 L 43586534.00 23178615.00 L 43571256.00 23101808.00 L 43527748.00 23036694.00 L 41766456.00 21275402.00 L 41701342.00 21231894.00 L 41624535.00 21216616.00 L 40440919.24 21216616.00 L 40409379.00 21192414.00 A 259703.10 259703.10 0 0 0 40095891.00 21233686.00 L 40075819.76 21259843.00 L 39133858.00 21259843.00 L 39133858.00 21574803.00 L 40075819.76 21574803.00 L 40095891.00 21600960.00 A 259692.04 259692.04 0 0 0 40409379.00 21642232.00 L 40440919.24 21618030.00 L 41541400.00 21618030.00 L 43185120.00 23261750.00 L 43185120.00 31791339.00 L 43200398.00 31868146.00 L 43243906.00 31933260.00 L 44869890.00 33559245.00 L 44935004.00 33602752.00 L 45011811.00 33618030.00 L 46118136.76 33618030.00 L 46149677.00 33642232.00 A 259703.10 259703.10 0 1 0 46149677.00 33192414.00  zM 40279526.59 21417324.48 m -160563.52 0 a 160563.52 160563.52 0 1 1 321127.04 0a 160563.52 160563.52 0 1 1 -321127.04 0M 46279526.59 33417324.48 m -160563.52 0 a 160563.52 160563.52 0 1 1 321127.04 0a 160563.52 160563.52 0 1 1 -321127.04 0"/>
<path id="N" d="M 53870173.00 36818804.00 L 53348384.00 36297015.00 L 53348384.00 31338582.00 L 53340745.00 31300179.00 L 53318992.00 31267622.00 L 51397732.00 29346363.00 L 51365176.00 29324609.00 L 51326772.00 29316970.00 L 46516655.35 29316970.00 L 46504437.00 29287472.00 A 259715.78 259715.78 0 0 0 46095891.00 29233686.00 L 46075819.76 29259843.00 L 45137795.00 29259843.00 L 45137795.00 29574803.00 L 46075819.76 29574803.00 L 46095891.00 29600960.00 A 259692.04 259692.04 0 0 0 46504437.00 29547174.00 L 46516655.35 29517676.00 L 51285204.98 29517676.00 L 53147678.00 31380149.98 L 53147678.00 36338582.00 L 53155317.00 36376986.00 L 53177071.00 36409542.00 L 53728253.00 36960724.00 A 100348.62 100348.62 0 0 0 53870173.00 36818804.00  zM 46279526.59 29417324.48 m -160563.52 0 a 160563.52 160563.52 0 1 1 321127.04 0a 160563.52 160563.52 0 1 1 -321127.04 0"/>
<path id="N" d="M 33378047.00 40031590.00 L 34283558.00 39126079.00 L 34305312.00 39093523.00 L 34312951.00 39055119.00 L 34312951.00 35962828.00 L 38758103.00 31517676.00 L 39133858.00 31517676.00 L 39133858.00 31574803.00 L 40075819.76 31574803.00 L 40095891.00 31600960.00 A 259692.04 259692.04 0 1 0 40095891.00 31233686.00 L 40075819.76 31259843.00 L 39133858.00 31259843.00 L 39133858.00 31316970.00 L 38716536.00 31316970.00 L 38678132.00 31324609.00 L 38645576.00 31346363.00 L 34141638.00 35850301.00 L 34119884.00 35882857.00 L 34112245.00 35921261.00 L 34112245.00 39013552.00 L 33265520.00 39860277.00 L 32775591.00 39860277.00 A 100353.26 100353.26 0 0 0 32775591.00 40060983.00 L 33307087.00 40060983.00 L 33345491.00 40053344.00 L 33378047.00 40031590.00  zM 40279526.59 31417324.48 m -160563.52 0 a 160563.52 160563.52 0 1 1 321127.04 0a 160563.52 160563.52 0 1 1 -321127.04 0"/>
<path id="N" d="M 40463165.00 40600960.00 L 40483236.24 40574803.00 L 41417323.00 40574803.00 L 41417323.00 40259843.00 L 40483236.24 40259843.00 L 40463165.00 40233686.00 A 259692.04 259692.04 0 1 0 40463165.00 40600960.00  zM 40279526.59 40417324.48 m -160563.52 0 a 160563.52 160563.52 0 1 1 321127.04 0a 160563.52 160563.52 0 1 1 -321127.04 0"/>
<path id="N" d="M 61512214.00 48103928.00 L 59353926.00 48103926.00 L 59353926.00 48592520.00 L 59350392.00 48610286.99 L 59350392.00 51840551.00 L 61512214.00 51840551.00 L 61512214.00 48103928.00  zM 60039367.03 49084654.51 m -416944.49 0 a 416944.49 416944.49 0 1 1 833888.98 0a 416944.49 416944.49 0 1 1 -833888.98 0"/>
<path id="N" d="M 57876077.00 39933165.00 L 58624109.00 39185133.00 A 100348.62 100348.62 0 1 0 58482189.00 39043213.00 L 57763550.00 39761852.00 L 55423228.00 39761852.00 A 100353.26 100353.26 0 1 0 55423228.00 39962558.00 L 57805117.00 39962558.00 L 57843521.00 39954919.00 L 57876077.00 39933165.00  z"/>
<path id="N" d="M 22869196.00 28764662.00 L 22858187.00 28756214.49 L 22858187.00 27187174.03 L 24866669.73 25178692.26 L 30888911.30 21681909.00 L 34193341.94 21681909.00 L 35005987.00 22494554.94 L 35005987.00 24738189.00 L 34360236.00 24738189.00 L 34360236.00 25230315.00 L 36328740.00 25230315.00 L 36328740.00 24738189.00 L 35407401.00 24738189.00 L 35407401.00 22411419.00 L 35392123.00 22334611.00 L 35348615.00 22269497.00 L 34418398.00 21339281.00 L 34353284.00 21295773.00 L 34276477.00 21280495.00 L 30834867.00 21280495.00 L 30821639.54 21283126.13 L 30808178.00 21282277.00 L 30783567.31 21290699.23 L 30758060.00 21295773.00 L 30746846.13 21303265.90 L 30734085.00 21307633.00 L 24642471.00 24844697.00 L 24622961.67 24861891.78 L 24601331.00 24876345.00 L 22515559.00 26962118.00 L 22472051.00 27027232.00 L 22456773.00 27104039.00 L 22456773.00 28756214.49 L 22445764.00 28764662.00 A 299421.33 299421.33 0 1 0 22869196.00 28764662.00  zM 22657480.36 28976378.47 m -200706.53 0 a 200706.53 200706.53 0 1 1 401413.05 0a 200706.53 200706.53 0 1 1 -401413.05 0"/>
<path id="N" d="M 28112300.00 37826866.00 L 28830939.00 37108227.00 L 31171261.00 37108227.00 A 100353.26 100353.26 0 0 0 31171261.00 36907521.00 L 28789372.00 36907521.00 L 28750968.00 36915160.00 L 28718412.00 36936914.00 L 27970380.00 37684946.00 A 100348.62 100348.62 0 0 0 28112300.00 37826866.00  z"/>
<path id="N" d="M 28102457.00 47570960.00 L 28821096.00 46852321.00 L 31161418.00 46852321.00 A 100353.26 100353.26 0 0 0 31161418.00 46651615.00 L 28779529.00 46651615.00 L 28741125.00 46659254.00 L 28708569.00 46681008.00 L 27960537.00 47429040.00 A 100348.62 100348.62 0 0 0 28102457.00 47570960.00  z"/>
<path id="N" d="M 32875944.00 37007874.00 L 32875944.00 34805346.01 L 38163614.99 29517676.00 L 39133858.00 29517676.00 L 39133858.00 29574803.00 L 40075819.76 29574803.00 L 40095891.00 29600960.00 A 259692.04 259692.04 0 1 0 40095891.00 29233686.00 L 40075819.76 29259843.00 L 39133858.00 29259843.00 L 39133858.00 29316970.00 L 38122047.00 29316970.00 L 38083644.00 29324609.00 L 38051087.00 29346362.00 L 32704631.00 34692819.00 L 32682877.00 34725375.00 L 32675238.00 34763779.00 L 32675238.00 37007874.00 A 100353.26 100353.26 0 0 0 32875944.00 37007874.00  zM 40279526.59 29417324.48 m -160563.52 0 a 160563.52 160563.52 0 1 1 321127.04 0a 160563.52 160563.52 0 1 1 -321127.04 0"/>
<path id="N" d="M 46095891.00 21233686.00 L 46075819.76 21259843.00 L 45137795.00 21259843.00 L 45137795.00 21574803.00 L 46075819.76 21574803.00 L 46095891.00 21600960.00 A 259692.04 259692.04 0 1 0 46095891.00 21233686.00  zM 46279526.59 21417324.48 m -160563.52 0 a 160563.52 160563.52 0 1 1 321127.04 0a 160563.52 160563.52 0 1 1 -321127.04 0"/>
<path id="N" d="M 53799213.00 49466576.00 L 53525819.00 49466576.00 L 53092479.00 49033236.00 L 53092479.00 48228347.00 L 53084840.00 48189943.00 L 53063086.00 48157387.00 L 49332636.00 44426937.00 L 49332636.00 38523622.00 L 49324997.00 38485218.00 L 49303243.00 38452662.00 L 47423188.00 36572607.00 L 47423188.00 36476379.00 L 47421260.00 36466686.25 L 47421260.00 36259843.00 L 46483236.24 36259843.00 L 46463165.00 36233686.00 A 259692.04 259692.04 0 1 0 46463165.00 36600960.00 L 46483236.24 36574803.00 L 47222482.00 36574803.00 L 47222482.00 36614174.00 L 47230121.00 36652578.00 L 47251875.00 36685134.00 L 49131930.00 38565189.00 L 49131930.00 44468504.00 L 49139569.00 44506908.00 L 49161323.00 44539464.00 L 52891773.00 48269914.00 L 52891773.00 49074803.00 L 52899412.00 49113207.00 L 52921166.00 49145763.00 L 53413292.00 49637889.00 L 53445848.00 49659643.00 L 53484252.00 49667282.00 L 53799213.00 49667282.00 A 100354.75 100354.75 0 1 0 53799213.00 49466576.00  zM 46279526.59 36417324.48 m -160563.52 0 a 160563.52 160563.52 0 1 1 321127.04 0a 160563.52 160563.52 0 1 1 -321127.04 0"/>
<path id="N" d="M 50118105.75 33354319.63 m -272023.71 0 a 272023.71 272023.71 0 1 1 544047.43 0a 272023.71 272023.71 0 1 1 -544047.43 0M 50118109.24 33354330.93 m -204721.07 0 a 204721.07 204721.07 0 1 1 409442.13 0a 204721.07 204721.07 0 1 1 -409442.13 0"/>
<path id="N" d="M 46095891.00 37233686.00 L 46075819.76 37259843.00 L 45137795.00 37259843.00 L 45137795.00 37574803.00 L 46075819.76 37574803.00 L 46095891.00 37600960.00 A 259692.04 259692.04 0 1 0 46095891.00 37233686.00  zM 46279526.59 37417324.48 m -160563.52 0 a 160563.52 160563.52 0 1 1 321127.04 0a 160563.52 160563.52 0 1 1 -321127.04 0"/>
<path id="N" d="M 27230720.00 38011811.00 L 27234254.00 37994044.01 L 27234254.00 34763780.00 L 25101959.00 34763780.00 L 25101959.00 38500403.00 L 27230720.00 38500405.00 L 27230720.00 38011811.00  zM 26545275.99 37519686.17 m -416951.83 0 a 416951.83 416951.83 0 1 1 833903.65 0a 416951.83 416951.83 0 1 1 -833903.65 0"/>
<path id="N" d="M 32549214.00 34763779.00 L 30482285.00 34763780.00 L 30482285.00 36805562.00 L 31171261.00 36805562.00 L 31248682.00 36820962.00 L 31263269.38 36830709.00 L 31368112.00 36830709.00 L 31368112.00 36980419.71 L 31373573.00 37007874.00 L 31368112.00 37035328.29 L 31368112.00 37224410.00 L 28858948.00 37224410.00 L 28184396.00 37898962.00 L 28118762.00 37942818.00 L 28083666.17 37949798.91 L 28021655.00 38011810.00 L 27332679.00 38011811.00 L 27332679.00 38996063.00 L 28218506.00 38996063.00 L 29000446.00 39778003.00 L 31160607.00 39778003.00 L 31188066.32 39783465.00 L 31368112.00 39783465.00 L 31368112.00 40177166.00 L 31188061.29 40177166.00 L 31160607.00 40182627.00 L 30383859.01 40182627.00 L 30383860.98 42220876.00 L 32549214.00 42220876.00 L 32549214.00 34763779.00  z"/>
<path id="N" d="M 46463165.00 40600960.00 L 46483236.24 40574803.00 L 47421260.00 40574803.00 L 47421260.00 40517676.00 L 47653543.00 40517676.00 L 47691947.00 40510037.00 L 47724503.00 40488283.00 L 48023716.00 40189070.00 L 48045470.00 40156514.00 L 48053109.00 40118110.00 L 48053109.00 38031496.00 A 100353.26 100353.26 0 0 0 47852403.00 38031496.00 L 47852403.00 40076543.00 L 47611976.00 40316970.00 L 47421260.00 40316970.00 L 47421260.00 40259843.00 L 46483236.24 40259843.00 L 46463165.00 40233686.00 A 259692.04 259692.04 0 1 0 46463165.00 40600960.00  zM 46279526.59 40417324.48 m -160563.52 0 a 160563.52 160563.52 0 1 1 321127.04 0a 160563.52 160563.52 0 1 1 -321127.04 0"/>
<path id="N" d="M 50118105.75 34354319.63 m -272023.71 0 a 272023.71 272023.71 0 1 1 544047.43 0a 272023.71 272023.71 0 1 1 -544047.43 0M 50118109.24 34354330.93 m -204721.07 0 a 204721.07 204721.07 0 1 1 409442.13 0a 204721.07 204721.07 0 1 1 -409442.13 0"/>
<path id="N" d="M 54717488.62 29715999.65 m -1184782.55 0 a 1184782.55 1184782.55 0 1 1 2369565.11 0a 1184782.55 1184782.55 0 1 1 -2369565.11 0"/>
<path id="N" d="M 31908259.62 56891704.65 m -1184782.55 0 a 1184782.55 1184782.55 0 1 1 2369565.11 0a 1184782.55 1184782.55 0 1 1 -2369565.11 0"/>
<path id="N" d="M 31908259.62 29722413.65 m -1184782.55 0 a 1184782.55 1184782.55 0 1 1 2369565.11 0a 1184782.55 1184782.55 0 1 1 -2369565.11 0"/>
<path id="N" d="M 55118101.62 62992098.65 m -1184782.55 0 a 1184782.55 1184782.55 0 1 1 2369565.11 0a 1184782.55 1184782.55 0 1 1 -2369565.11 0"/>
<path id="N" d="M 55118101.62 23622019.65 m -1184782.55 0 a 1184782.55 1184782.55 0 1 1 2369565.11 0a 1184782.55 1184782.55 0 1 1 -2369565.11 0"/>
<path id="N" d="M 31496054.62 23622019.65 m -1184782.55 0 a 1184782.55 1184782.55 0 1 1 2369565.11 0a 1184782.55 1184782.55 0 1 1 -2369565.11 0"/>
<path id="N" d="M 54705897.62 56891704.65 m -1184782.55 0 a 1184782.55 1184782.55 0 1 1 2369565.11 0a 1184782.55 1184782.55 0 1 1 -2369565.11 0"/>
<path id="N" d="M 31496054.62 62992098.65 m -1184782.55 0 a 1184782.55 1184782.55 0 1 1 2369565.11 0a 1184782.55 1184782.55 0 1 1 -2369565.11 0"/>
<path id="N" d="M 27913380.00 31437000.29 m -299421.33 0 a 299421.33 299421.33 0 1 1 598842.67 0a 299421.33 299421.33 0 1 1 -598842.67 0M 27913386.36 31437008.47 m -200706.53 0 a 200706.53 200706.53 0 1 1 401413.05 0a 200706.53 200706.53 0 1 1 -401413.05 0"/>
<path id="N" d="M 22657474.00 29960622.29 m -299421.33 0 a 299421.33 299421.33 0 1 1 598842.67 0a 299421.33 299421.33 0 1 1 -598842.67 0M 22657480.36 29960630.47 m -200706.53 0 a 200706.53 200706.53 0 1 1 401413.05 0a 200706.53 200706.53 0 1 1 -401413.05 0"/>
<path id="N" d="M 24606293.00 29960622.29 m -299421.33 0 a 299421.33 299421.33 0 1 1 598842.67 0a 299421.33 299421.33 0 1 1 -598842.67 0M 24606299.36 29960630.47 m -200706.53 0 a 200706.53 200706.53 0 1 1 401413.05 0a 200706.53 200706.53 0 1 1 -401413.05 0"/>
<path id="N" d="M 40463165.00 32600960.00 L 40483236.24 32574803.00 L 41417323.00 32574803.00 L 41417323.00 32259843.00 L 40483236.24 32259843.00 L 40463165.00 32233686.00 A 259692.04 259692.04 0 1 0 40463165.00 32600960.00  zM 40279526.59 32417324.48 m -160563.52 0 a 160563.52 160563.52 0 1 1 321127.04 0a 160563.52 160563.52 0 1 1 -321127.04 0"/>
<path id="N" d="M 40463165.00 22600960.00 L 40483236.24 22574803.00 L 41417323.00 22574803.00 L 41417323.00 22259843.00 L 40483236.24 22259843.00 L 40463165.00 22233686.00 A 259692.04 259692.04 0 1 0 40463165.00 22600960.00  zM 40279526.59 22417324.48 m -160563.52 0 a 160563.52 160563.52 0 1 1 321127.04 0a 160563.52 160563.52 0 1 1 -321127.04 0"/>
<path id="N" d="M 40463165.00 36600960.00 L 40483236.24 36574803.00 L 41417323.00 36574803.00 L 41417323.00 36259843.00 L 40483236.24 36259843.00 L 40463165.00 36233686.00 A 259692.04 259692.04 0 1 0 40463165.00 36600960.00  zM 40279526.59 36417324.48 m -160563.52 0 a 160563.52 160563.52 0 1 1 321127.04 0a 160563.52 160563.52 0 1 1 -321127.04 0"/>
<path id="N" d="M 40463165.00 34600960.00 L 40483236.24 34574803.00 L 41417323.00 34574803.00 L 41417323.00 34259843.00 L 40483236.24 34259843.00 L 40463165.00 34233686.00 A 259692.04 259692.04 0 1 0 40463165.00 34600960.00  zM 40279526.59 34417324.48 m -160563.52 0 a 160563.52 160563.52 0 1 1 321127.04 0a 160563.52 160563.52 0 1 1 -321127.04 0"/>
<path id="N" d="M 40463165.00 28600960.00 L 40483236.24 28574803.00 L 41417323.00 28574803.00 L 41417323.00 28259843.00 L 40483236.24 28259843.00 L 40463165.00 28233686.00 A 259692.04 259692.04 0 1 0 40463165.00 28600960.00  zM 40279526.59 28417324.48 m -160563.52 0 a 160563.52 160563.52 0 1 1 321127.04 0a 160563.52 160563.52 0 1 1 -321127.04 0"/>
<path id="N" d="M 46095891.00 41233686.00 L 46075819.76 41259843.00 L 45137795.00 41259843.00 L 45137795.00 41574803.00 L 46075819.76 41574803.00 L 46095891.00 41600960.00 A 259692.04 259692.04 0 1 0 46095891.00 41233686.00  zM 46279526.59 41417324.48 m -160563.52 0 a 160563.52 160563.52 0 1 1 321127.04 0a 160563.52 160563.52 0 1 1 -321127.04 0"/>
<path id="N" d="M 46095891.00 25233686.00 L 46075819.76 25259843.00 L 45137795.00 25259843.00 L 45137795.00 25574803.00 L 46075819.76 25574803.00 L 46095891.00 25600960.00 A 259692.04 259692.04 0 1 0 46095891.00 25233686.00  zM 46279526.59 25417324.48 m -160563.52 0 a 160563.52 160563.52 0 1 1 321127.04 0a 160563.52 160563.52 0 1 1 -321127.04 0"/>
<path id="N" d="M 40095891.00 23233686.00 L 40075819.76 23259843.00 L 39133858.00 23259843.00 L 39133858.00 23574803.00 L 40075819.76 23574803.00 L 40095891.00 23600960.00 A 259692.04 259692.04 0 1 0 40095891.00 23233686.00  zM 40279526.59 23417324.48 m -160563.52 0 a 160563.52 160563.52 0 1 1 321127.04 0a 160563.52 160563.52 0 1 1 -321127.04 0"/>
<path id="N" d="M 40095891.00 35233686.00 L 40075819.76 35259843.00 L 39133858.00 35259843.00 L 39133858.00 35574803.00 L 40075819.76 35574803.00 L 40095891.00 35600960.00 A 259692.04 259692.04 0 1 0 40095891.00 35233686.00  zM 40279526.59 35417324.48 m -160563.52 0 a 160563.52 160563.52 0 1 1 321127.04 0a 160563.52 160563.52 0 1 1 -321127.04 0"/>
<path id="N" d="M 46095891.00 23233686.00 L 46075819.76 23259843.00 L 45137795.00 23259843.00 L 45137795.00 23574803.00 L 46075819.76 23574803.00 L 46095891.00 23600960.00 A 259692.04 259692.04 0 1 0 46095891.00 23233686.00  zM 46279526.59 23417324.48 m -160563.52 0 a 160563.52 160563.52 0 1 1 321127.04 0a 160563.52 160563.52 0 1 1 -321127.04 0"/>
<path id="N" d="M 46463165.00 24600960.00 L 46483236.24 24574803.00 L 47421260.00 24574803.00 L 47421260.00 24259843.00 L 46483236.24 24259843.00 L 46463165.00 24233686.00 A 259692.04 259692.04 0 1 0 46463165.00 24600960.00  zM 46279526.59 24417324.48 m -160563.52 0 a 160563.52 160563.52 0 1 1 321127.04 0a 160563.52 160563.52 0 1 1 -321127.04 0"/>
<path id="N" d="M 46463165.00 22600960.00 L 46483236.24 22574803.00 L 47421260.00 22574803.00 L 47421260.00 22259843.00 L 46483236.24 22259843.00 L 46463165.00 22233686.00 A 259692.04 259692.04 0 1 0 46463165.00 22600960.00  zM 46279526.59 22417324.48 m -160563.52 0 a 160563.52 160563.52 0 1 1 321127.04 0a 160563.52 160563.52 0 1 1 -321127.04 0"/>
<path id="N" d="M 53870173.00 39751875.00 L 51852322.00 37734024.00 L 51852322.00 33346457.00 L 51844683.00 33308054.00 L 51822929.00 33275496.00 L 49893795.00 31346363.00 L 49861239.00 31324609.00 L 49822835.00 31316970.00 L 46516655.35 31316970.00 L 46504437.00 31287472.00 A 259715.78 259715.78 0 0 0 46095891.00 31233686.00 L 46075819.76 31259843.00 L 45137795.00 31259843.00 L 45137795.00 31574803.00 L 46075819.76 31574803.00 L 46095891.00 31600960.00 A 259692.04 259692.04 0 0 0 46504437.00 31547174.00 L 46516655.35 31517676.00 L 49781267.98 31517676.00 L 51651616.00 33388024.98 L 51651616.00 37775591.00 L 51659255.00 37813995.00 L 51681009.00 37846551.00 L 53728253.00 39893795.00 A 100342.05 100342.05 0 0 0 53870173.00 39751875.00  zM 46279526.59 31417324.48 m -160563.52 0 a 160563.52 160563.52 0 1 1 321127.04 0a 160563.52 160563.52 0 1 1 -321127.04 0"/>
<path id="N" d="M 46463165.00 20600960.00 L 46483236.24 20574803.00 L 47421260.00 20574803.00 L 47421260.00 20259843.00 L 46483236.24 20259843.00 L 46463165.00 20233686.00 A 259692.04 259692.04 0 1 0 46463165.00 20600960.00  zM 46279526.59 20417324.48 m -160563.52 0 a 160563.52 160563.52 0 1 1 321127.04 0a 160563.52 160563.52 0 1 1 -321127.04 0"/>
<path id="N" d="M 46463165.00 26600960.00 L 46483236.24 26574803.00 L 47421260.00 26574803.00 L 47421260.00 26259843.00 L 46483236.24 26259843.00 L 46463165.00 26233686.00 A 259692.04 259692.04 0 1 0 46463165.00 26600960.00  zM 46279526.59 26417324.48 m -160563.52 0 a 160563.52 160563.52 0 1 1 321127.04 0a 160563.52 160563.52 0 1 1 -321127.04 0"/>
<path id="N" d="M 46463165.00 38600960.00 L 46483236.24 38574803.00 L 47421260.00 38574803.00 L 47421260.00 38259843.00 L 46483236.24 38259843.00 L 46463165.00 38233686.00 A 259692.04 259692.04 0 1 0 46463165.00 38600960.00  zM 46279526.59 38417324.48 m -160563.52 0 a 160563.52 160563.52 0 1 1 321127.04 0a 160563.52 160563.52 0 1 1 -321127.04 0"/>
<path id="N" d="M 32846551.00 37669385.00 L 33594583.00 36921354.00 L 33616336.00 36888797.00 L 33623975.00 36850394.00 L 33623975.00 35199048.00 L 38305347.00 30517676.00 L 40042400.65 30517676.00 L 40054619.00 30547174.00 A 259715.78 259715.78 0 0 0 40463165.00 30600960.00 L 40483236.24 30574803.00 L 41417323.00 30574803.00 L 41417323.00 30259843.00 L 40483236.24 30259843.00 L 40463165.00 30233686.00 A 259692.04 259692.04 0 0 0 40054619.00 30287472.00 L 40042400.65 30316970.00 L 38263780.00 30316970.00 L 38225377.00 30324609.00 L 38192820.00 30346363.00 L 33452662.00 35086521.00 L 33430908.00 35119077.00 L 33423269.00 35157481.00 L 33423269.00 36808826.04 L 32704631.00 37527465.00 A 100348.62 100348.62 0 1 0 32846551.00 37669385.00  zM 40279526.59 30417324.48 m -160563.52 0 a 160563.52 160563.52 0 1 1 321127.04 0a 160563.52 160563.52 0 1 1 -321127.04 0"/>
<path id="N" d="M 29524616.00 29103622.00 L 29511620.35 29079308.81 L 31421718.98 27169211.00 L 34360236.00 27169211.00 L 34360236.00 27230315.00 L 36328740.00 27230315.00 L 36328740.00 26738189.00 L 34360236.00 26738189.00 L 34360236.00 26767797.00 L 31338583.00 26767797.00 L 31261775.00 26783075.00 L 31196661.00 26826583.00 L 29227778.19 28795466.65 L 29203465.00 28782471.00 A 593408.94 593408.94 0 1 0 29524616.00 29103622.00  zM 28976376.99 29330710.17 m -416951.83 0 a 416951.83 416951.83 0 1 1 833903.65 0a 416951.83 416951.83 0 1 1 -833903.65 0"/>
<path id="N" d="M 52108227.00 40748031.00 L 52108227.00 38818897.00 L 52100588.00 38780494.00 L 52078835.00 38747937.00 L 51360196.00 38029298.96 L 51360196.00 36496064.00 L 51352557.00 36457660.00 L 51330803.00 36425104.00 L 50366085.06 35460386.06 L 50380853.00 35424733.00 A 272001.08 272001.08 0 1 0 50188512.00 35617074.00 L 50224165.06 35602306.06 L 51159490.00 36537631.00 L 51159490.00 38070866.00 L 51167129.00 38109270.00 L 51188883.00 38141826.00 L 51907521.00 38860464.96 L 51907521.00 40748031.00 A 100353.26 100353.26 0 0 0 52108227.00 40748031.00  zM 50118109.24 35354330.93 m -204721.07 0 a 204721.07 204721.07 0 1 1 409442.13 0a 204721.07 204721.07 0 1 1 -409442.13 0"/>
<path id="N" d="M 22657474.00 30944874.29 m -299421.33 0 a 299421.33 299421.33 0 1 1 598842.67 0a 299421.33 299421.33 0 1 1 -598842.67 0M 22657480.36 30944882.47 m -200706.53 0 a 200706.53 200706.53 0 1 1 401413.05 0a 200706.53 200706.53 0 1 1 -401413.05 0"/>
<path id="N" d="M 24606293.00 30944874.29 m -299421.33 0 a 299421.33 299421.33 0 1 1 598842.67 0a 299421.33 299421.33 0 1 1 -598842.67 0M 24606299.36 30944882.47 m -200706.53 0 a 200706.53 200706.53 0 1 1 401413.05 0a 200706.53 200706.53 0 1 1 -401413.05 0"/>
<path id="N" d="M 26929128.00 31437000.29 m -299421.33 0 a 299421.33 299421.33 0 1 1 598842.67 0a 299421.33 299421.33 0 1 1 -598842.67 0M 26929134.36 31437008.47 m -200706.53 0 a 200706.53 200706.53 0 1 1 401413.05 0a 200706.53 200706.53 0 1 1 -401413.05 0"/>
<path id="N" d="M 47677165.00 43303230.00 L 40437466.00 43303230.00 L 39284327.90 42150091.90 L 39279917.00 42127917.00 A 200709.51 200709.51 0 0 0 38893781.00 42204724.00 L 38893781.00 42244094.00 L 38909059.00 42320901.00 L 38952567.00 42386015.00 L 40212410.00 43645858.00 L 40277524.00 43689366.00 L 40354331.00 43704644.00 L 47677165.00 43704644.00 A 200709.51 200709.51 0 0 0 47677165.00 43303230.00  z"/>
<path id="N" d="M 35476567.00 39905701.00 L 36736410.00 38645859.00 L 36779917.00 38580745.00 L 36795195.00 38503938.00 L 36795195.00 36161417.00 A 200706.53 200706.53 0 0 0 36393781.00 36161417.00 L 36393781.00 38420802.05 L 35192725.00 39621859.00 A 200706.53 200706.53 0 0 0 35476567.00 39905701.00  z"/>
<path id="N" d="M 38877952.00 26738189.00 L 36909448.00 26738189.00 L 36909448.00 27230315.00 L 38877952.00 27230315.00 L 38877952.00 26738189.00  z"/>
<path id="N" d="M 53870173.00 46543213.00 L 51104290.00 43777330.00 L 51104290.00 38602362.00 L 51096651.00 38563958.00 L 51074897.00 38531402.00 L 47376073.00 34832578.00 L 47376073.00 34574803.00 L 47421260.00 34574803.00 L 47421260.00 34259843.00 L 46483236.24 34259843.00 L 46463165.00 34233686.00 A 259692.04 259692.04 0 1 0 46463165.00 34600960.00 L 46483236.24 34574803.00 L 47175367.00 34574803.00 L 47175367.00 34874145.00 L 47183006.00 34912549.00 L 47204760.00 34945105.00 L 50903584.00 38643929.00 L 50903584.00 43818897.00 L 50911223.00 43857301.00 L 50932977.00 43889857.00 L 53728253.00 46685133.00 A 100342.05 100342.05 0 0 0 53870173.00 46543213.00  zM 46279526.59 34417324.48 m -160563.52 0 a 160563.52 160563.52 0 1 1 321127.04 0a 160563.52 160563.52 0 1 1 -321127.04 0"/>
<path id="N" d="M 46095891.00 27233686.00 L 46075819.76 27259843.00 L 45137795.00 27259843.00 L 45137795.00 27574803.00 L 46075819.76 27574803.00 L 46095891.00 27600960.00 A 259692.04 259692.04 0 1 0 46095891.00 27233686.00  zM 46279526.59 27417324.48 m -160563.52 0 a 160563.52 160563.52 0 1 1 321127.04 0a 160563.52 160563.52 0 1 1 -321127.04 0"/>
<path id="N" d="M 61512214.00 38369676.00 L 59363769.00 38369674.00 L 59363769.00 38858268.00 L 59360235.00 38876034.99 L 59360235.00 42106299.00 L 61512214.00 42106299.00 L 61512214.00 38369676.00  zM 60049210.03 39350402.51 m -416944.49 0 a 416944.49 416944.49 0 1 1 833888.98 0a 416944.49 416944.49 0 1 1 -833888.98 0"/>
<path id="N" d="M 46095891.00 39233686.00 L 46075819.76 39259843.00 L 45137795.00 39259843.00 L 45137795.00 39574803.00 L 46075819.76 39574803.00 L 46095891.00 39600960.00 A 259692.04 259692.04 0 1 0 46095891.00 39233686.00  zM 46279526.59 39417324.48 m -160563.52 0 a 160563.52 160563.52 0 1 1 321127.04 0a 160563.52 160563.52 0 1 1 -321127.04 0"/>
<path id="N" d="M 60551172.62 26377925.65 m -1184782.55 0 a 1184782.55 1184782.55 0 1 1 2369565.11 0a 1184782.55 1184782.55 0 1 1 -2369565.11 0M 60551176.65 26377980.32 m -899975.68 0 a 899975.68 899975.68 0 1 1 1799951.35 0a 899975.68 899975.68 0 1 1 -1799951.35 0"/>
<path id="N" d="M 60236221.79 31220474.99 m -593404.85 0 a 593404.85 593404.85 0 1 1 1186809.70 0a 593404.85 593404.85 0 1 1 -1186809.70 0M 60236218.03 31220480.51 m -416944.49 0 a 416944.49 416944.49 0 1 1 833888.98 0a 416944.49 416944.49 0 1 1 -833888.98 0"/>
<path id="N" d="M 32875944.00 49704724.00 L 32875944.00 48368338.00 L 34913480.00 46330802.00 L 34935234.00 46298246.00 L 34942873.00 46259842.00 L 34942873.00 43269913.01 L 38695110.99 39517676.00 L 39133858.00 39517676.00 L 39133858.00 39574803.00 L 40075819.76 39574803.00 L 40095891.00 39600960.00 A 259692.04 259692.04 0 1 0 40095891.00 39233686.00 L 40075819.76 39259843.00 L 39133858.00 39259843.00 L 39133858.00 39316970.00 L 38653543.00 39316970.00 L 38615140.00 39324609.00 L 38582582.00 39346363.00 L 34771560.00 43157386.00 L 34749806.00 43189942.00 L 34742167.00 43228346.00 L 34742167.00 46218275.00 L 32704631.00 48255811.00 L 32682877.00 48288367.00 L 32675238.00 48326771.00 L 32675238.00 49704724.00 A 100353.26 100353.26 0 0 0 32875944.00 49704724.00  zM 40279526.59 39417324.48 m -160563.52 0 a 160563.52 160563.52 0 1 1 321127.04 0a 160563.52 160563.52 0 1 1 -321127.04 0"/>
<path id="N" d="M 27224410.00 51988188.00 L 27224410.00 48757918.96 L 27220877.00 48740157.00 L 27220877.00 48346458.00 L 25101959.00 48346456.04 L 25101959.00 51988188.98 L 27224410.00 51988188.00  zM 26535432.99 49232284.17 m -416951.83 0 a 416951.83 416951.83 0 1 1 833903.65 0a 416951.83 416951.83 0 1 1 -833903.65 0"/>
<path id="N" d="M 42771017.00 49247395.00 L 42790702.00 49227709.00 A 160570.09 160570.09 0 0 0 42615720.00 48965830.00 L 42604550.80 48973293.00 L 40275591.00 48973293.00 A 160563.52 160563.52 0 0 0 40275591.00 49294423.00 L 42657480.00 49294424.00 L 42718926.00 49282201.00 L 42771017.00 49247395.00  z"/>
<path id="N" d="M 40095891.00 41233686.00 L 40075819.76 41259843.00 L 39133858.00 41259843.00 L 39133858.00 41574803.00 L 40075819.76 41574803.00 L 40095891.00 41600960.00 A 259692.04 259692.04 0 1 0 40095891.00 41233686.00  zM 40279526.59 41417324.48 m -160563.52 0 a 160563.52 160563.52 0 1 1 321127.04 0a 160563.52 160563.52 0 1 1 -321127.04 0"/>
<path id="N" d="M 46463165.00 28600960.00 L 46483236.24 28574803.00 L 47421260.00 28574803.00 L 47421260.00 28259843.00 L 46483236.24 28259843.00 L 46463165.00 28233686.00 A 259692.04 259692.04 0 1 0 46463165.00 28600960.00  zM 46279526.59 28417324.48 m -160563.52 0 a 160563.52 160563.52 0 1 1 321127.04 0a 160563.52 160563.52 0 1 1 -321127.04 0"/>
<path id="N" d="M 31150764.00 49624056.00 L 28809157.96 49624056.00 L 28112131.00 48927030.00 A 100348.62 100348.62 0 0 0 27970211.00 49068950.00 L 28696630.00 49795370.00 L 28729187.00 49817123.00 L 28767590.00 49824762.00 L 31150764.00 49824762.00 A 100354.75 100354.75 0 1 0 31150764.00 49624056.00  z"/>
<path id="N" d="M 31160607.00 39879962.00 L 28819000.96 39879962.00 L 28121974.00 39182936.00 A 100348.62 100348.62 0 0 0 27980054.00 39324856.00 L 28706473.00 40051276.00 L 28739030.00 40073029.00 L 28777433.00 40080668.00 L 31160607.00 40080668.00 A 100354.75 100354.75 0 1 0 31160607.00 39879962.00  z"/>
<path id="N" d="M 48799314.11 43019939.11 L 48151499.00 42372124.00 L 48106300.00 42353402.00 L 47421260.00 42353402.00 L 47421260.00 42259843.00 L 46483236.24 42259843.00 L 46463165.00 42233686.00 A 259692.04 259692.04 0 1 0 46463165.00 42600960.00 L 46483236.24 42574803.00 L 47421260.00 42574803.00 L 47421260.00 42481244.00 L 48079823.00 42481244.00 L 48708916.11 43110337.11 A 90186.56 90186.56 0 1 0 48799314.11 43019939.11  zM 46279526.59 42417324.48 m -160563.52 0 a 160563.52 160563.52 0 1 1 321127.04 0a 160563.52 160563.52 0 1 1 -321127.04 0"/>
<path id="N" d="M 31692777.00 51986435.00 L 32539371.00 51985309.02 L 32539371.00 44507873.00 L 30472442.00 44507874.00 L 30472442.00 46549656.00 L 31161418.00 46549656.00 L 31238839.00 46565056.00 L 31253426.38 46574803.00 L 31358269.00 46574803.00 L 31358269.00 46724513.71 L 31363730.00 46751968.00 L 31358269.00 46779422.29 L 31358269.00 46968504.00 L 28849105.00 46968504.00 L 28174553.00 47643056.00 L 28108919.00 47686912.00 L 28073823.17 47693892.91 L 28011812.00 47755904.00 L 27322836.00 47755905.00 L 27322836.00 48740157.00 L 28208663.00 48740157.00 L 28990603.00 49522097.00 L 31150764.00 49522097.00 L 31178223.32 49527559.00 L 31358269.00 49527559.00 L 31358269.00 49921260.00 L 31178218.29 49921260.00 L 31150764.00 49926721.00 L 30374016.01 49926721.00 L 30374018.00 51988188.00 L 31684021.99 51988188.60 L 31692777.00 51986435.00  z"/>
<path id="N" d="M 24606293.00 28976370.29 m -299421.33 0 a 299421.33 299421.33 0 1 1 598842.67 0a 299421.33 299421.33 0 1 1 -598842.67 0M 24606299.36 28976378.47 m -200706.53 0 a 200706.53 200706.53 0 1 1 401413.05 0a 200706.53 200706.53 0 1 1 -401413.05 0"/>
<path id="N" d="M 40095891.00 19233686.00 L 40075819.76 19259843.00 L 39133858.00 19259843.00 L 39133858.00 19574803.00 L 40075819.76 19574803.00 L 40095891.00 19600960.00 A 259692.04 259692.04 0 1 0 40095891.00 19233686.00  zM 40279526.59 19417324.48 m -160563.52 0 a 160563.52 160563.52 0 1 1 321127.04 0a 160563.52 160563.52 0 1 1 -321127.04 0"/>
<path id="N" d="M 28897632.00 31437000.29 m -299421.33 0 a 299421.33 299421.33 0 1 1 598842.67 0a 299421.33 299421.33 0 1 1 -598842.67 0M 28897638.36 31437008.47 m -200706.53 0 a 200706.53 200706.53 0 1 1 401413.05 0a 200706.53 200706.53 0 1 1 -401413.05 0"/>
<path id="N" d="M 40095891.00 27233686.00 L 40075819.76 27259843.00 L 39133858.00 27259843.00 L 39133858.00 27574803.00 L 40075819.76 27574803.00 L 40095891.00 27600960.00 A 259692.04 259692.04 0 1 0 40095891.00 27233686.00  zM 40279526.59 27417324.48 m -160563.52 0 a 160563.52 160563.52 0 1 1 321127.04 0a 160563.52 160563.52 0 1 1 -321127.04 0"/>
<path id="N" d="M 56112204.00 42106299.00 L 56112204.00 40064517.00 L 55423228.00 40064517.00 L 55345807.00 40049117.00 L 55331219.62 40039370.00 L 55226377.00 40039370.00 L 55226377.00 39889659.29 L 55220916.00 39862205.00 L 55226377.00 39834750.71 L 55226377.00 39645669.00 L 57735541.00 39645669.00 L 58410093.00 38971117.00 L 58475727.00 38927261.00 L 58510822.83 38920280.09 L 58572834.00 38858269.00 L 59261810.00 38858268.00 L 59261810.00 37874016.00 L 58375983.00 37874016.00 L 57594043.00 37092076.00 L 55433882.00 37092076.00 L 55406422.68 37086614.00 L 55226377.00 37086614.00 L 55226377.00 36692913.00 L 55406427.71 36692913.00 L 55433882.00 36687452.00 L 56210629.99 36687452.00 L 56210628.00 34629518.00 L 54045275.00 34629518.00 L 54045275.00 42106300.00 L 56112204.00 42106299.00  z"/>
<path id="N" d="M 27234253.00 39013824.96 L 27230720.00 38996063.00 L 27230720.00 38602364.00 L 25101959.00 38602362.03 L 25101959.00 42220876.00 L 27234253.00 42220876.00 L 27234253.00 39013824.96  zM 26545275.99 39488190.17 m -416951.83 0 a 416951.83 416951.83 0 1 1 833903.65 0a 416951.83 416951.83 0 1 1 -833903.65 0"/>
<path id="N" d="M 40463165.00 26600960.00 L 40483236.24 26574803.00 L 41417323.00 26574803.00 L 41417323.00 26259843.00 L 40483236.24 26259843.00 L 40463165.00 26233686.00 A 259692.04 259692.04 0 1 0 40463165.00 26600960.00  zM 40279526.59 26417324.48 m -160563.52 0 a 160563.52 160563.52 0 1 1 321127.04 0a 160563.52 160563.52 0 1 1 -321127.04 0"/>
<path id="N" d="M 37304148.00 44311024.00 L 37285070.66 44215117.34 L 38478917.00 43021271.00 L 38594830.00 43021271.00 L 38633234.00 43013632.00 L 38665790.00 42991878.00 L 38673322.00 42984346.00 A 100348.62 100348.62 0 0 0 38564495.93 42820565.00 L 38437350.00 42820565.00 L 38398946.00 42828204.00 L 38366390.00 42849958.00 L 37143150.66 44073197.34 A 253757.05 253757.05 0 1 0 37304148.00 44311024.00  zM 37047243.05 44311026.89 m -170598.11 0 a 170598.11 170598.11 0 1 1 341196.22 0a 170598.11 170598.11 0 1 1 -341196.22 0"/>
<path id="N" d="M 40463165.00 42600960.00 L 40483236.24 42574803.00 L 41417323.00 42574803.00 L 41417323.00 42259843.00 L 40483236.24 42259843.00 L 40463165.00 42233686.00 A 259692.04 259692.04 0 1 0 40463165.00 42600960.00  zM 40279526.59 42417324.48 m -160563.52 0 a 160563.52 160563.52 0 1 1 321127.04 0a 160563.52 160563.52 0 1 1 -321127.04 0"/>
<path id="N" d="M 46463165.00 32600960.00 L 46483236.24 32574803.00 L 47421260.00 32574803.00 L 47421260.00 32259843.00 L 46483236.24 32259843.00 L 46463165.00 32233686.00 A 259692.04 259692.04 0 1 0 46463165.00 32600960.00  zM 46279526.59 32417324.48 m -160563.52 0 a 160563.52 160563.52 0 1 1 321127.04 0a 160563.52 160563.52 0 1 1 -321127.04 0"/>
<path id="N" d="M 57866234.00 49667417.00 L 58614266.00 48919385.00 A 100348.62 100348.62 0 1 0 58472346.00 48777465.00 L 57753707.00 49496104.00 L 55413385.00 49496104.00 A 100353.26 100353.26 0 0 0 55413385.00 49696810.00 L 57795274.00 49696810.00 L 57833678.00 49689171.00 L 57866234.00 49667417.00  z"/>
<path id="N" d="M 33043402.00 47413480.00 L 34126078.00 46330804.00 L 34147832.00 46298248.00 L 34155471.00 46259844.00 L 34155471.00 43112434.00 L 38750229.00 38517676.00 L 40042400.65 38517676.00 L 40054619.00 38547174.00 A 259715.78 259715.78 0 0 0 40463165.00 38600960.00 L 40483236.24 38574803.00 L 41417323.00 38574803.00 L 41417323.00 38259843.00 L 40483236.24 38259843.00 L 40463165.00 38233686.00 A 259692.04 259692.04 0 0 0 40054619.00 38287472.00 L 40042400.65 38316970.00 L 38708662.00 38316970.00 L 38670258.00 38324609.00 L 38637702.00 38346363.00 L 33984158.00 42999907.00 L 33962404.00 43032463.00 L 33954765.00 43070867.00 L 33954765.00 46218277.00 L 32930875.00 47242167.00 L 32775591.00 47242167.00 A 100353.26 100353.26 0 0 0 32775591.00 47442873.00 L 32972442.00 47442873.00 L 33010846.00 47435234.00 L 33043402.00 47413480.00  zM 40279526.59 38417324.48 m -160563.52 0 a 160563.52 160563.52 0 1 1 321127.04 0a 160563.52 160563.52 0 1 1 -321127.04 0"/>
<path id="N" d="M 32846551.00 46822929.00 L 33338677.00 46330803.00 L 33360431.00 46298247.00 L 33368070.00 46259843.00 L 33368070.00 42994323.01 L 38844717.99 37517676.00 L 39133858.00 37517676.00 L 39133858.00 37574803.00 L 40075819.76 37574803.00 L 40095891.00 37600960.00 A 259692.04 259692.04 0 1 0 40095891.00 37233686.00 L 40075819.76 37259843.00 L 39133858.00 37259843.00 L 39133858.00 37316970.00 L 38803150.00 37316970.00 L 38764747.00 37324609.00 L 38732189.00 37346363.00 L 33196757.00 42881796.00 L 33175003.00 42914352.00 L 33167364.00 42952756.00 L 33167364.00 46218276.00 L 32704631.00 46681009.00 A 100348.62 100348.62 0 0 0 32846551.00 46822929.00  zM 40279526.59 37417324.48 m -160563.52 0 a 160563.52 160563.52 0 1 1 321127.04 0a 160563.52 160563.52 0 1 1 -321127.04 0"/>
<path id="N" d="M 60458967.42 56391416.42 L 58628264.00 54560712.00 A 593415.38 593415.38 0 0 0 58208661.00 54386907.00 L 50930475.59 54386907.00 L 50903170.00 54378624.00 L 50787402.00 54367222.00 L 26743399.82 54367222.00 L 26651201.00 54339254.00 A 593414.99 593414.99 0 0 0 26308346.00 54373022.00 L 26241360.90 54408826.22 L 26229606.00 54412392.00 A 593405.42 593405.42 0 0 0 26456693.00 55554038.00 L 50703383.41 55554038.00 L 50730689.00 55562321.00 L 50846457.00 55573723.00 L 57962863.09 55573723.00 L 59619767.00 57230627.00 A 593405.42 593405.42 0 1 0 60458967.42 56391416.42  zM 26535431.03 54921268.51 m -416944.49 0 a 416944.49 416944.49 0 1 1 833888.98 0a 416944.49 416944.49 0 1 1 -833888.98 0M 60039368.03 56811032.51 m -416944.49 0 a 416944.49 416944.49 0 1 1 833888.98 0a 416944.49 416944.49 0 1 1 -833888.98 0"/>
</g>
</svg>
