<svg width="112.6220506mm" height="129.99999908mm" viewBox="0 0 44339390 51181102"  version="1.1" xmlns="http://www.w3.org/2000/svg" xmlns:xlink="http://www.w3.org/1999/xlink">
<desc>
Origin 0 0 Bound 21137392 17716536 44339390 51181102
</desc>
<g fill-rule="evenodd" fill="rgb(128, 0, 128)" stroke="black" stroke-width="1" transform="translate(0, 51181102) scale(1, -1) translate(-21137392, -17716536)">
<path id="N" d="M 65476782.00 60644024.00 L 65476782.00 25970150.00 L 51181103.00 17716536.00 L 35433071.00 17716536.00 L 21137392.00 25970150.00 L 21137392.00 60644024.00 L 35433071.00 68897638.00 L 35433071.00 59055118.00 L 51181103.00 59055118.00 L 51181103.00 68897638.00 L 65476782.00 60644024.00  zM 22657478.82 28976385.52 m -339749.48 0 a 339749.48 339749.48 0 1 1 679498.96 0a 339749.48 339749.48 0 1 1 -679498.96 0M 24783647.00 27379082.00 L 24369001.00 27379082.00 L 24369001.00 26944752.00 L 24783647.00 26944752.00 L 24783647.00 27379082.00  zM 24606297.82 28976385.52 m -339749.48 0 a 339749.48 339749.48 0 1 1 679498.96 0a 339749.48 339749.48 0 1 1 -679498.96 0M 22657478.82 29960637.52 m -339749.48 0 a 339749.48 339749.48 0 1 1 679498.96 0a 339749.48 339749.48 0 1 1 -679498.96 0M 22657478.82 30944889.52 m -339749.48 0 a 339749.48 339749.48 0 1 1 679498.96 0a 339749.48 339749.48 0 1 1 -679498.96 0M 24606297.82 29960637.52 m -339749.48 0 a 339749.48 339749.48 0 1 1 679498.96 0a 339749.48 339749.48 0 1 1 -679498.96 0M 25393883.00 27379082.00 L 24979237.00 27379082.00 L 24979237.00 26944752.00 L 25393883.00 26944752.00 L 25393883.00 27379082.00  zM 25945511.00 27362835.00 L 25511181.00 27362835.00 L 25511181.00 26948189.00 L 25945511.00 26948189.00 L 25945511.00 27362835.00  zM 25945511.00 27973071.00 L 25511181.00 27973071.00 L 25511181.00 27558425.00 L 25945511.00 27558425.00 L 25945511.00 27973071.00  zM 31496059.01 23622076.90 m -1224848.10 0 a 1224848.10 1224848.10 0 1 1 2449696.20 0a 1224848.10 1224848.10 0 1 1 -2449696.20 0M 28976372.62 29330735.02 m -633575.98 0 a 633575.98 633575.98 0 1 1 1267151.97 0a 633575.98 633575.98 0 1 1 -1267151.97 0M 27007868.62 29330735.02 m -633575.98 0 a 633575.98 633575.98 0 1 1 1267151.97 0a 633575.98 633575.98 0 1 1 -1267151.97 0M 24606297.82 30944889.52 m -339749.48 0 a 339749.48 339749.48 0 1 1 679498.96 0a 339749.48 339749.48 0 1 1 -679498.96 0M 26929132.82 31437015.52 m -339749.48 0 a 339749.48 339749.48 0 1 1 679498.96 0a 339749.48 339749.48 0 1 1 -679498.96 0M 27913384.82 31437015.52 m -339749.48 0 a 339749.48 339749.48 0 1 1 679498.96 0a 339749.48 339749.48 0 1 1 -679498.96 0M 24281680.00 36355461.00 L 23867034.00 36355461.00 L 23867034.00 35921131.00 L 24281680.00 35921131.00 L 24281680.00 36355461.00  zM 24891916.00 36355461.00 L 24477270.00 36355461.00 L 24477270.00 35921131.00 L 24891916.00 35921131.00 L 24891916.00 36355461.00  zM 28297077.00 36862163.00 L 27804951.00 36862163.00 L 27804951.00 36645629.00 L 28297077.00 36645629.00 L 28297077.00 36862163.00  zM 28897636.82 31437015.52 m -339749.48 0 a 339749.48 339749.48 0 1 1 679498.96 0a 339749.48 339749.48 0 1 1 -679498.96 0M 30570867.00 35452755.00 L 29311025.00 35452755.00 L 29311025.00 34822835.00 L 30570867.00 34822835.00 L 30570867.00 35452755.00  zM 30403377.00 36862163.00 L 29911251.00 36862163.00 L 29911251.00 36645629.00 L 30403377.00 36645629.00 L 30403377.00 36862163.00  zM 30403377.00 37362163.00 L 29911251.00 37362163.00 L 29911251.00 37145629.00 L 30403377.00 37145629.00 L 30403377.00 37362163.00  zM 31368742.00 37244724.00 L 30954096.00 37244724.00 L 30954096.00 36810394.00 L 31368742.00 36810394.00 L 31368742.00 37244724.00  zM 31978978.00 37244724.00 L 31564332.00 37244724.00 L 31564332.00 36810394.00 L 31978978.00 36810394.00 L 31978978.00 37244724.00  zM 26545271.62 37519711.02 m -633575.98 0 a 633575.98 633575.98 0 1 1 1267151.97 0a 633575.98 633575.98 0 1 1 -1267151.97 0M 28297077.00 37862163.00 L 27804951.00 37862163.00 L 27804951.00 37645629.00 L 28297077.00 37645629.00 L 28297077.00 37862163.00  zM 28297077.00 38362163.00 L 27804951.00 38362163.00 L 27804951.00 38145629.00 L 28297077.00 38145629.00 L 28297077.00 38362163.00  zM 26545271.62 39488215.02 m -633575.98 0 a 633575.98 633575.98 0 1 1 1267151.97 0a 633575.98 633575.98 0 1 1 -1267151.97 0M 28297077.00 40362163.00 L 27804951.00 40362163.00 L 27804951.00 40145629.00 L 28297077.00 40145629.00 L 28297077.00 40362163.00  zM 28297077.00 39862163.00 L 27804951.00 39862163.00 L 27804951.00 39645629.00 L 28297077.00 39645629.00 L 28297077.00 39862163.00  zM 28297077.00 37362163.00 L 27804951.00 37362163.00 L 27804951.00 37145629.00 L 28297077.00 37145629.00 L 28297077.00 37362163.00  zM 28297077.00 38862163.00 L 27804951.00 38862163.00 L 27804951.00 38645629.00 L 28297077.00 38645629.00 L 28297077.00 38862163.00  zM 30403377.00 38862163.00 L 29911251.00 38862163.00 L 29911251.00 38645629.00 L 30403377.00 38645629.00 L 30403377.00 38862163.00  zM 28297077.00 39362163.00 L 27804951.00 39362163.00 L 27804951.00 39145629.00 L 28297077.00 39145629.00 L 28297077.00 39362163.00  zM 30403377.00 39862163.00 L 29911251.00 39862163.00 L 29911251.00 39645629.00 L 30403377.00 39645629.00 L 30403377.00 39862163.00  zM 30403377.00 39362163.00 L 29911251.00 39362163.00 L 29911251.00 39145629.00 L 30403377.00 39145629.00 L 30403377.00 39362163.00  zM 30403377.00 37862163.00 L 29911251.00 37862163.00 L 29911251.00 37645629.00 L 30403377.00 37645629.00 L 30403377.00 37862163.00  zM 30403377.00 38362163.00 L 29911251.00 38362163.00 L 29911251.00 38145629.00 L 30403377.00 38145629.00 L 30403377.00 38362163.00  zM 31368743.00 37835276.00 L 30954097.00 37835276.00 L 30954097.00 37400946.00 L 31368743.00 37400946.00 L 31368743.00 37835276.00  zM 31978979.00 37835276.00 L 31564333.00 37835276.00 L 31564333.00 37400946.00 L 31978979.00 37400946.00 L 31978979.00 37835276.00  zM 31378585.00 38425827.00 L 30963939.00 38425827.00 L 30963939.00 37991497.00 L 31378585.00 37991497.00 L 31378585.00 38425827.00  zM 31988821.00 38425827.00 L 31574175.00 38425827.00 L 31574175.00 37991497.00 L 31988821.00 37991497.00 L 31988821.00 38425827.00  zM 30403377.00 40362163.00 L 29911251.00 40362163.00 L 29911251.00 40145629.00 L 30403377.00 40145629.00 L 30403377.00 40362163.00  zM 31368742.00 40197480.00 L 30954096.00 40197480.00 L 30954096.00 39763150.00 L 31368742.00 39763150.00 L 31368742.00 40197480.00  zM 31368743.00 39606929.00 L 30954097.00 39606929.00 L 30954097.00 39172599.00 L 31368743.00 39172599.00 L 31368743.00 39606929.00  zM 31378585.00 39016378.00 L 30963939.00 39016378.00 L 30963939.00 38582048.00 L 31378585.00 38582048.00 L 31378585.00 39016378.00  zM 31978979.00 39606929.00 L 31564333.00 39606929.00 L 31564333.00 39172599.00 L 31978979.00 39172599.00 L 31978979.00 39606929.00  zM 31978978.00 40197480.00 L 31564332.00 40197480.00 L 31564332.00 39763150.00 L 31978978.00 39763150.00 L 31978978.00 40197480.00  zM 36514409.00 22427403.00 L 36119449.00 22427403.00 L 36119449.00 21166301.00 L 36514409.00 21166301.00 L 36514409.00 22427403.00  zM 37014409.00 22427403.00 L 36619449.00 22427403.00 L 36619449.00 21166301.00 L 37014409.00 21166301.00 L 37014409.00 22427403.00  zM 37514409.00 22427403.00 L 37119449.00 22427403.00 L 37119449.00 21166301.00 L 37514409.00 21166301.00 L 37514409.00 22427403.00  zM 40279528.77 19417320.34 m -300049.66 0 a 300049.66 300049.66 0 1 1 600099.32 0a 300049.66 300049.66 0 1 1 -600099.32 0M 40279528.77 20417320.34 m -300049.66 0 a 300049.66 300049.66 0 1 1 600099.32 0a 300049.66 300049.66 0 1 1 -600099.32 0M 40279528.77 21417320.34 m -300049.66 0 a 300049.66 300049.66 0 1 1 600099.32 0a 300049.66 300049.66 0 1 1 -600099.32 0M 38014409.00 22427403.00 L 37619449.00 22427403.00 L 37619449.00 21166301.00 L 38014409.00 21166301.00 L 38014409.00 22427403.00  zM 37014409.00 24463623.00 L 36619449.00 24463623.00 L 36619449.00 23202521.00 L 37014409.00 23202521.00 L 37014409.00 24463623.00  zM 36514409.00 24463623.00 L 36119449.00 24463623.00 L 36119449.00 23202521.00 L 36514409.00 23202521.00 L 36514409.00 24463623.00  zM 38014409.00 24463623.00 L 37619449.00 24463623.00 L 37619449.00 23202521.00 L 38014409.00 23202521.00 L 38014409.00 24463623.00  zM 40279528.77 23417320.34 m -300049.66 0 a 300049.66 300049.66 0 1 1 600099.32 0a 300049.66 300049.66 0 1 1 -600099.32 0M 40279528.77 22417320.34 m -300049.66 0 a 300049.66 300049.66 0 1 1 600099.32 0a 300049.66 300049.66 0 1 1 -600099.32 0M 31908264.01 29722470.90 m -1224848.10 0 a 1224848.10 1224848.10 0 1 1 2449696.20 0a 1224848.10 1224848.10 0 1 1 -2449696.20 0M 36358898.00 29207323.00 L 34310394.00 29207323.00 L 34310394.00 28635197.00 L 36358898.00 28635197.00 L 36358898.00 29207323.00  zM 35433068.42 27007882.20 m -131092.80 0 a 131092.80 131092.80 0 1 1 262185.61 0a 131092.80 131092.80 0 1 1 -262185.61 0M 37514409.00 24463623.00 L 37119449.00 24463623.00 L 37119449.00 23202521.00 L 37514409.00 23202521.00 L 37514409.00 24463623.00  zM 37913383.42 26968512.20 m -131092.80 0 a 131092.80 131092.80 0 1 1 262185.61 0a 131092.80 131092.80 0 1 1 -262185.61 0M 38908110.00 29207323.00 L 36859606.00 29207323.00 L 36859606.00 28635197.00 L 38908110.00 28635197.00 L 38908110.00 29207323.00  zM 40279528.77 24417320.34 m -300049.66 0 a 300049.66 300049.66 0 1 1 600099.32 0a 300049.66 300049.66 0 1 1 -600099.32 0M 40279528.77 25417320.34 m -300049.66 0 a 300049.66 300049.66 0 1 1 600099.32 0a 300049.66 300049.66 0 1 1 -600099.32 0M 40279528.77 26417320.34 m -300049.66 0 a 300049.66 300049.66 0 1 1 600099.32 0a 300049.66 300049.66 0 1 1 -600099.32 0M 40279528.77 27417320.34 m -300049.66 0 a 300049.66 300049.66 0 1 1 600099.32 0a 300049.66 300049.66 0 1 1 -600099.32 0M 40279528.77 28417320.34 m -300049.66 0 a 300049.66 300049.66 0 1 1 600099.32 0a 300049.66 300049.66 0 1 1 -600099.32 0M 40279528.77 29417320.34 m -300049.66 0 a 300049.66 300049.66 0 1 1 600099.32 0a 300049.66 300049.66 0 1 1 -600099.32 0M 36358898.00 30207323.00 L 34310394.00 30207323.00 L 34310394.00 29635197.00 L 36358898.00 29635197.00 L 36358898.00 30207323.00  zM 36358898.00 31207323.00 L 34310394.00 31207323.00 L 34310394.00 30635197.00 L 36358898.00 30635197.00 L 36358898.00 31207323.00  zM 32539371.00 35452755.00 L 31279529.00 35452755.00 L 31279529.00 34822835.00 L 32539371.00 34822835.00 L 32539371.00 35452755.00  zM 38908110.00 30207323.00 L 36859606.00 30207323.00 L 36859606.00 29635197.00 L 38908110.00 29635197.00 L 38908110.00 30207323.00  zM 38908110.00 31207323.00 L 36859606.00 31207323.00 L 36859606.00 30635197.00 L 38908110.00 30635197.00 L 38908110.00 31207323.00  zM 40279528.77 34417320.34 m -300049.66 0 a 300049.66 300049.66 0 1 1 600099.32 0a 300049.66 300049.66 0 1 1 -600099.32 0M 40279528.77 31417320.34 m -300049.66 0 a 300049.66 300049.66 0 1 1 600099.32 0a 300049.66 300049.66 0 1 1 -600099.32 0M 40279528.77 32417320.34 m -300049.66 0 a 300049.66 300049.66 0 1 1 600099.32 0a 300049.66 300049.66 0 1 1 -600099.32 0M 40279528.77 33417320.34 m -300049.66 0 a 300049.66 300049.66 0 1 1 600099.32 0a 300049.66 300049.66 0 1 1 -600099.32 0M 40279528.77 30417320.34 m -300049.66 0 a 300049.66 300049.66 0 1 1 600099.32 0a 300049.66 300049.66 0 1 1 -600099.32 0M 40279528.77 35417320.34 m -300049.66 0 a 300049.66 300049.66 0 1 1 600099.32 0a 300049.66 300049.66 0 1 1 -600099.32 0M 46279528.77 32417320.34 m -300049.66 0 a 300049.66 300049.66 0 1 1 600099.32 0a 300049.66 300049.66 0 1 1 -600099.32 0M 32589215.00 38415984.00 L 32135199.00 38415984.00 L 32135199.00 37981654.00 L 32589215.00 37981654.00 L 32589215.00 38415984.00  zM 31988821.00 39016378.00 L 31574175.00 39016378.00 L 31574175.00 38582048.00 L 31988821.00 38582048.00 L 31988821.00 39016378.00  zM 32589215.00 39026220.00 L 32135199.00 39026220.00 L 32135199.00 38591890.00 L 32589215.00 38591890.00 L 32589215.00 39026220.00  zM 36358898.00 40049843.00 L 34310394.00 40049843.00 L 34310394.00 39477717.00 L 36358898.00 39477717.00 L 36358898.00 40049843.00  zM 36358898.00 39049843.00 L 34310394.00 39049843.00 L 34310394.00 38477717.00 L 36358898.00 38477717.00 L 36358898.00 39049843.00  zM 38908110.00 40049843.00 L 36859606.00 40049843.00 L 36859606.00 39477717.00 L 38908110.00 39477717.00 L 38908110.00 40049843.00  zM 40279528.77 36417320.34 m -300049.66 0 a 300049.66 300049.66 0 1 1 600099.32 0a 300049.66 300049.66 0 1 1 -600099.32 0M 40279528.77 37417320.34 m -300049.66 0 a 300049.66 300049.66 0 1 1 600099.32 0a 300049.66 300049.66 0 1 1 -600099.32 0M 40279528.77 38417320.34 m -300049.66 0 a 300049.66 300049.66 0 1 1 600099.32 0a 300049.66 300049.66 0 1 1 -600099.32 0M 38908110.00 39049843.00 L 36859606.00 39049843.00 L 36859606.00 38477717.00 L 38908110.00 38477717.00 L 38908110.00 39049843.00  zM 40279528.77 39417320.34 m -300049.66 0 a 300049.66 300049.66 0 1 1 600099.32 0a 300049.66 300049.66 0 1 1 -600099.32 0M 40279528.77 40417320.34 m -300049.66 0 a 300049.66 300049.66 0 1 1 600099.32 0a 300049.66 300049.66 0 1 1 -600099.32 0M 46279528.77 19417320.34 m -300049.66 0 a 300049.66 300049.66 0 1 1 600099.32 0a 300049.66 300049.66 0 1 1 -600099.32 0M 46279528.77 20417320.34 m -300049.66 0 a 300049.66 300049.66 0 1 1 600099.32 0a 300049.66 300049.66 0 1 1 -600099.32 0M 46279528.77 21417320.34 m -300049.66 0 a 300049.66 300049.66 0 1 1 600099.32 0a 300049.66 300049.66 0 1 1 -600099.32 0M 46279528.77 22417320.34 m -300049.66 0 a 300049.66 300049.66 0 1 1 600099.32 0a 300049.66 300049.66 0 1 1 -600099.32 0M 46279528.77 23417320.34 m -300049.66 0 a 300049.66 300049.66 0 1 1 600099.32 0a 300049.66 300049.66 0 1 1 -600099.32 0M 49053779.00 22407716.00 L 48658819.00 22407716.00 L 48658819.00 21146614.00 L 49053779.00 21146614.00 L 49053779.00 22407716.00  zM 46279528.77 24417320.34 m -300049.66 0 a 300049.66 300049.66 0 1 1 600099.32 0a 300049.66 300049.66 0 1 1 -600099.32 0M 46279528.77 25417320.34 m -300049.66 0 a 300049.66 300049.66 0 1 1 600099.32 0a 300049.66 300049.66 0 1 1 -600099.32 0M 46279528.77 26417320.34 m -300049.66 0 a 300049.66 300049.66 0 1 1 600099.32 0a 300049.66 300049.66 0 1 1 -600099.32 0M 46279528.77 27417320.34 m -300049.66 0 a 300049.66 300049.66 0 1 1 600099.32 0a 300049.66 300049.66 0 1 1 -600099.32 0M 46279528.77 28417320.34 m -300049.66 0 a 300049.66 300049.66 0 1 1 600099.32 0a 300049.66 300049.66 0 1 1 -600099.32 0M 49754567.00 29207323.00 L 47706063.00 29207323.00 L 47706063.00 28635197.00 L 49754567.00 28635197.00 L 49754567.00 29207323.00  zM 49553779.00 22407716.00 L 49158819.00 22407716.00 L 49158819.00 21146614.00 L 49553779.00 21146614.00 L 49553779.00 22407716.00  zM 50053779.00 22407716.00 L 49658819.00 22407716.00 L 49658819.00 21146614.00 L 50053779.00 21146614.00 L 50053779.00 22407716.00  zM 49053779.00 24443936.00 L 48658819.00 24443936.00 L 48658819.00 23182834.00 L 49053779.00 23182834.00 L 49053779.00 24443936.00  zM 49553779.00 24443936.00 L 49158819.00 24443936.00 L 49158819.00 23182834.00 L 49553779.00 23182834.00 L 49553779.00 24443936.00  zM 50053779.00 24443936.00 L 49658819.00 24443936.00 L 49658819.00 23182834.00 L 50053779.00 23182834.00 L 50053779.00 24443936.00  zM 50553779.00 24443936.00 L 50158819.00 24443936.00 L 50158819.00 23182834.00 L 50553779.00 23182834.00 L 50553779.00 24443936.00  zM 50553779.00 22407716.00 L 50158819.00 22407716.00 L 50158819.00 21146614.00 L 50553779.00 21146614.00 L 50553779.00 22407716.00  zM 55118106.01 23622076.90 m -1224848.10 0 a 1224848.10 1224848.10 0 1 1 2449696.20 0a 1224848.10 1224848.10 0 1 1 -2449696.20 0M 52303779.00 29207323.00 L 50255275.00 29207323.00 L 50255275.00 28635197.00 L 52303779.00 28635197.00 L 52303779.00 29207323.00  zM 57716531.01 26377982.90 m -1224848.10 0 a 1224848.10 1224848.10 0 1 1 2449696.20 0a 1224848.10 1224848.10 0 1 1 -2449696.20 0M 60236214.62 29251994.02 m -633575.98 0 a 633575.98 633575.98 0 1 1 1267151.97 0a 633575.98 633575.98 0 1 1 -1267151.97 0M 60551177.01 26377982.90 m -1224848.10 0 a 1224848.10 1224848.10 0 1 1 2449696.20 0a 1224848.10 1224848.10 0 1 1 -2449696.20 0M 46279528.77 29417320.34 m -300049.66 0 a 300049.66 300049.66 0 1 1 600099.32 0a 300049.66 300049.66 0 1 1 -600099.32 0M 46279528.77 30417320.34 m -300049.66 0 a 300049.66 300049.66 0 1 1 600099.32 0a 300049.66 300049.66 0 1 1 -600099.32 0M 46279528.77 31417320.34 m -300049.66 0 a 300049.66 300049.66 0 1 1 600099.32 0a 300049.66 300049.66 0 1 1 -600099.32 0M 49754567.00 30207323.00 L 47706063.00 30207323.00 L 47706063.00 29635197.00 L 49754567.00 29635197.00 L 49754567.00 30207323.00  zM 49754567.00 31207323.00 L 47706063.00 31207323.00 L 47706063.00 30635197.00 L 49754567.00 30635197.00 L 49754567.00 31207323.00  zM 52303779.00 31207323.00 L 50255275.00 31207323.00 L 50255275.00 30635197.00 L 52303779.00 30635197.00 L 52303779.00 31207323.00  zM 46279528.77 33417320.34 m -300049.66 0 a 300049.66 300049.66 0 1 1 600099.32 0a 300049.66 300049.66 0 1 1 -600099.32 0M 46279528.77 34417320.34 m -300049.66 0 a 300049.66 300049.66 0 1 1 600099.32 0a 300049.66 300049.66 0 1 1 -600099.32 0M 46279528.77 35417320.34 m -300049.66 0 a 300049.66 300049.66 0 1 1 600099.32 0a 300049.66 300049.66 0 1 1 -600099.32 0M 50118107.95 33354337.40 m -312350.60 0 a 312350.60 312350.60 0 1 1 624701.20 0a 312350.60 312350.60 0 1 1 -624701.20 0M 50118107.95 34354337.40 m -312350.60 0 a 312350.60 312350.60 0 1 1 624701.20 0a 312350.60 312350.60 0 1 1 -624701.20 0M 50118107.95 35354337.40 m -312350.60 0 a 312350.60 312350.60 0 1 1 624701.20 0a 312350.60 312350.60 0 1 1 -624701.20 0M 52303779.00 30207323.00 L 50255275.00 30207323.00 L 50255275.00 29635197.00 L 52303779.00 29635197.00 L 52303779.00 30207323.00  zM 54717493.01 29716056.90 m -1224848.10 0 a 1224848.10 1224848.10 0 1 1 2449696.20 0a 1224848.10 1224848.10 0 1 1 -2449696.20 0M 54360235.00 34379988.00 L 54198819.00 34379988.00 L 54198819.00 34057154.00 L 54360235.00 34057154.00 L 54360235.00 34379988.00  zM 54860235.00 34379988.00 L 54698819.00 34379988.00 L 54698819.00 34057154.00 L 54860235.00 34057154.00 L 54860235.00 34379988.00  zM 55360235.00 34379988.00 L 55198819.00 34379988.00 L 55198819.00 34057154.00 L 55360235.00 34057154.00 L 55360235.00 34379988.00  zM 55860235.00 34379988.00 L 55698819.00 34379988.00 L 55698819.00 34057154.00 L 55860235.00 34057154.00 L 55860235.00 34379988.00  zM 56801810.00 34449448.00 L 56387164.00 34449448.00 L 56387164.00 34015118.00 L 56801810.00 34015118.00 L 56801810.00 34449448.00  zM 56884487.00 34988819.00 L 56324173.00 34988819.00 L 56324173.00 34550551.00 L 56884487.00 34550551.00 L 56884487.00 34988819.00  zM 57412046.00 34449448.00 L 56997400.00 34449448.00 L 56997400.00 34015118.00 L 57412046.00 34015118.00 L 57412046.00 34449448.00  zM 60236214.62 31220498.02 m -633575.98 0 a 633575.98 633575.98 0 1 1 1267151.97 0a 633575.98 633575.98 0 1 1 -1267151.97 0M 58110865.00 35049843.00 L 57676535.00 35049843.00 L 57676535.00 34595827.00 L 58110865.00 34595827.00 L 58110865.00 35049843.00  zM 57500629.00 35049843.00 L 57066299.00 35049843.00 L 57066299.00 34595827.00 L 57500629.00 34595827.00 L 57500629.00 35049843.00  zM 46279528.77 36417320.34 m -300049.66 0 a 300049.66 300049.66 0 1 1 600099.32 0a 300049.66 300049.66 0 1 1 -600099.32 0M 46279528.77 38417320.34 m -300049.66 0 a 300049.66 300049.66 0 1 1 600099.32 0a 300049.66 300049.66 0 1 1 -600099.32 0M 46279528.77 39417320.34 m -300049.66 0 a 300049.66 300049.66 0 1 1 600099.32 0a 300049.66 300049.66 0 1 1 -600099.32 0M 46279528.77 37417320.34 m -300049.66 0 a 300049.66 300049.66 0 1 1 600099.32 0a 300049.66 300049.66 0 1 1 -600099.32 0M 47952753.42 38031504.20 m -131092.80 0 a 131092.80 131092.80 0 1 1 262185.61 0a 131092.80 131092.80 0 1 1 -262185.61 0M 49754567.00 39049843.00 L 47706063.00 39049843.00 L 47706063.00 38477717.00 L 49754567.00 38477717.00 L 49754567.00 39049843.00  zM 50118107.95 36354337.40 m -312350.60 0 a 312350.60 312350.60 0 1 1 624701.20 0a 312350.60 312350.60 0 1 1 -624701.20 0M 49754567.00 40049843.00 L 47706063.00 40049843.00 L 47706063.00 39477717.00 L 49754567.00 39477717.00 L 49754567.00 40049843.00  zM 52303779.00 39049843.00 L 50255275.00 39049843.00 L 50255275.00 38477717.00 L 52303779.00 38477717.00 L 52303779.00 39049843.00  zM 52303779.00 40049843.00 L 50255275.00 40049843.00 L 50255275.00 39477717.00 L 52303779.00 39477717.00 L 52303779.00 40049843.00  zM 54459290.00 38278189.00 L 54005274.00 38278189.00 L 54005274.00 37843859.00 L 54459290.00 37843859.00 L 54459290.00 38278189.00  zM 54459290.00 38888425.00 L 54005274.00 38888425.00 L 54005274.00 38454095.00 L 54459290.00 38454095.00 L 54459290.00 38888425.00  zM 56013779.00 36517784.00 L 54045275.00 36517784.00 L 54045275.00 36316996.00 L 54230118.00 36316996.00 L 54230118.00 35407547.00 L 54045275.00 35407547.00 L 54045275.00 35167390.00 L 54230118.00 35167390.00 L 54230118.00 34887863.00 L 55828936.00 34887863.00 L 55828936.00 35167390.00 L 56013779.00 35167390.00 L 56013779.00 35407547.00 L 55828936.00 35407547.00 L 55828936.00 36316996.00 L 56013779.00 36316996.00 L 56013779.00 36517784.00  zM 55030157.00 37106929.00 L 54615511.00 37106929.00 L 54615511.00 36672599.00 L 55030157.00 36672599.00 L 55030157.00 37106929.00  zM 55640393.00 37106929.00 L 55225747.00 37106929.00 L 55225747.00 36672599.00 L 55640393.00 36672599.00 L 55640393.00 37106929.00  zM 55030156.00 37697480.00 L 54615510.00 37697480.00 L 54615510.00 37263150.00 L 55030156.00 37263150.00 L 55030156.00 37697480.00  zM 55020314.00 38288031.00 L 54605668.00 38288031.00 L 54605668.00 37853701.00 L 55020314.00 37853701.00 L 55020314.00 38288031.00  zM 55640392.00 37697480.00 L 55225746.00 37697480.00 L 55225746.00 37263150.00 L 55640392.00 37263150.00 L 55640392.00 37697480.00  zM 55020314.00 38878582.00 L 54605668.00 38878582.00 L 54605668.00 38444252.00 L 55020314.00 38444252.00 L 55020314.00 38878582.00  zM 55630550.00 38288031.00 L 55215904.00 38288031.00 L 55215904.00 37853701.00 L 55630550.00 37853701.00 L 55630550.00 38288031.00  zM 55630550.00 38878582.00 L 55215904.00 38878582.00 L 55215904.00 38444252.00 L 55630550.00 38444252.00 L 55630550.00 38878582.00  zM 55030156.00 39469133.00 L 54615510.00 39469133.00 L 54615510.00 39034803.00 L 55030156.00 39034803.00 L 55030156.00 39469133.00  zM 55030157.00 40059685.00 L 54615511.00 40059685.00 L 54615511.00 39625355.00 L 55030157.00 39625355.00 L 55030157.00 40059685.00  zM 55640392.00 39469133.00 L 55225746.00 39469133.00 L 55225746.00 39034803.00 L 55640392.00 39034803.00 L 55640392.00 39469133.00  zM 56884487.00 36276221.00 L 56324173.00 36276221.00 L 56324173.00 35837953.00 L 56884487.00 35837953.00 L 56884487.00 36276221.00  zM 56683238.00 36724450.00 L 56191112.00 36724450.00 L 56191112.00 36507916.00 L 56683238.00 36507916.00 L 56683238.00 36724450.00  zM 56683238.00 37224450.00 L 56191112.00 37224450.00 L 56191112.00 37007916.00 L 56683238.00 37007916.00 L 56683238.00 37224450.00  zM 56683238.00 37724450.00 L 56191112.00 37724450.00 L 56191112.00 37507916.00 L 56683238.00 37507916.00 L 56683238.00 37724450.00  zM 56683238.00 38224450.00 L 56191112.00 38224450.00 L 56191112.00 38007916.00 L 56683238.00 38007916.00 L 56683238.00 38224450.00  zM 56683238.00 38724450.00 L 56191112.00 38724450.00 L 56191112.00 38507916.00 L 56683238.00 38507916.00 L 56683238.00 38724450.00  zM 55640393.00 40059685.00 L 55225747.00 40059685.00 L 55225747.00 39625355.00 L 55640393.00 39625355.00 L 55640393.00 40059685.00  zM 56683238.00 39724450.00 L 56191112.00 39724450.00 L 56191112.00 39507916.00 L 56683238.00 39507916.00 L 56683238.00 39724450.00  zM 56683238.00 40224450.00 L 56191112.00 40224450.00 L 56191112.00 40007916.00 L 56683238.00 40007916.00 L 56683238.00 40224450.00  zM 56683238.00 39224450.00 L 56191112.00 39224450.00 L 56191112.00 39007916.00 L 56683238.00 39007916.00 L 56683238.00 39224450.00  zM 58789538.00 39724450.00 L 58297412.00 39724450.00 L 58297412.00 39507916.00 L 58789538.00 39507916.00 L 58789538.00 39724450.00  zM 58789538.00 39224450.00 L 58297412.00 39224450.00 L 58297412.00 39007916.00 L 58789538.00 39007916.00 L 58789538.00 39224450.00  zM 58789538.00 36724450.00 L 58297412.00 36724450.00 L 58297412.00 36507916.00 L 58789538.00 36507916.00 L 58789538.00 36724450.00  zM 58789538.00 37224450.00 L 58297412.00 37224450.00 L 58297412.00 37007916.00 L 58789538.00 37007916.00 L 58789538.00 37224450.00  zM 62116323.00 36316090.00 L 61701677.00 36316090.00 L 61701677.00 35881760.00 L 62116323.00 35881760.00 L 62116323.00 36316090.00  zM 62116771.00 35728976.00 L 61702125.00 35728976.00 L 61702125.00 35294646.00 L 62116771.00 35294646.00 L 62116771.00 35728976.00  zM 62726559.00 36316090.00 L 62311913.00 36316090.00 L 62311913.00 35881760.00 L 62726559.00 35881760.00 L 62726559.00 36316090.00  zM 62727007.00 35728976.00 L 62312361.00 35728976.00 L 62312361.00 35294646.00 L 62727007.00 35294646.00 L 62727007.00 35728976.00  zM 58789538.00 37724450.00 L 58297412.00 37724450.00 L 58297412.00 37507916.00 L 58789538.00 37507916.00 L 58789538.00 37724450.00  zM 58789538.00 38224450.00 L 58297412.00 38224450.00 L 58297412.00 38007916.00 L 58789538.00 38007916.00 L 58789538.00 38224450.00  zM 60049206.62 37381916.02 m -633575.98 0 a 633575.98 633575.98 0 1 1 1267151.97 0a 633575.98 633575.98 0 1 1 -1267151.97 0M 58789538.00 38724450.00 L 58297412.00 38724450.00 L 58297412.00 38507916.00 L 58789538.00 38507916.00 L 58789538.00 38724450.00  zM 58789538.00 40224450.00 L 58297412.00 40224450.00 L 58297412.00 40007916.00 L 58789538.00 40007916.00 L 58789538.00 40224450.00  zM 60049206.62 39350420.02 m -633575.98 0 a 633575.98 633575.98 0 1 1 1267151.97 0a 633575.98 633575.98 0 1 1 -1267151.97 0M 24282576.00 40988319.00 L 23867930.00 40988319.00 L 23867930.00 40553989.00 L 24282576.00 40553989.00 L 24282576.00 40988319.00  zM 24282128.00 41575433.00 L 23867482.00 41575433.00 L 23867482.00 41141103.00 L 24282128.00 41141103.00 L 24282128.00 41575433.00  zM 24892812.00 40988319.00 L 24478166.00 40988319.00 L 24478166.00 40553989.00 L 24892812.00 40553989.00 L 24892812.00 40988319.00  zM 24892364.00 41575433.00 L 24477718.00 41575433.00 L 24477718.00 41141103.00 L 24892364.00 41141103.00 L 24892364.00 41575433.00  zM 28917954.00 42274252.00 L 28483624.00 42274252.00 L 28483624.00 41820236.00 L 28917954.00 41820236.00 L 28917954.00 42274252.00  zM 24882073.00 46099555.00 L 24467427.00 46099555.00 L 24467427.00 45665225.00 L 24882073.00 45665225.00 L 24882073.00 46099555.00  zM 24271837.00 46099555.00 L 23857191.00 46099555.00 L 23857191.00 45665225.00 L 24271837.00 45665225.00 L 24271837.00 46099555.00  zM 26535428.62 47263805.02 m -633575.98 0 a 633575.98 633575.98 0 1 1 1267151.97 0a 633575.98 633575.98 0 1 1 -1267151.97 0M 28287234.00 46606257.00 L 27795108.00 46606257.00 L 27795108.00 46389723.00 L 28287234.00 46389723.00 L 28287234.00 46606257.00  zM 28287234.00 47106257.00 L 27795108.00 47106257.00 L 27795108.00 46889723.00 L 28287234.00 46889723.00 L 28287234.00 47106257.00  zM 28287234.00 47606257.00 L 27795108.00 47606257.00 L 27795108.00 47389723.00 L 28287234.00 47389723.00 L 28287234.00 47606257.00  zM 28287234.00 48106257.00 L 27795108.00 48106257.00 L 27795108.00 47889723.00 L 28287234.00 47889723.00 L 28287234.00 48106257.00  zM 30270316.00 41032126.00 L 29710002.00 41032126.00 L 29710002.00 40593858.00 L 30270316.00 40593858.00 L 30270316.00 41032126.00  zM 29528190.00 42274252.00 L 29093860.00 42274252.00 L 29093860.00 41820236.00 L 29528190.00 41820236.00 L 29528190.00 42274252.00  zM 30270316.00 42319528.00 L 29710002.00 42319528.00 L 29710002.00 41881260.00 L 30270316.00 41881260.00 L 30270316.00 42319528.00  zM 29597089.00 42854961.00 L 29182443.00 42854961.00 L 29182443.00 42420631.00 L 29597089.00 42420631.00 L 29597089.00 42854961.00  zM 30207325.00 42854961.00 L 29792679.00 42854961.00 L 29792679.00 42420631.00 L 30207325.00 42420631.00 L 30207325.00 42854961.00  zM 30895670.00 42812925.00 L 30734254.00 42812925.00 L 30734254.00 42490091.00 L 30895670.00 42490091.00 L 30895670.00 42812925.00  zM 30561024.00 45196849.00 L 29301182.00 45196849.00 L 29301182.00 44566929.00 L 30561024.00 44566929.00 L 30561024.00 45196849.00  zM 30393534.00 46606257.00 L 29901408.00 46606257.00 L 29901408.00 46389723.00 L 30393534.00 46389723.00 L 30393534.00 46606257.00  zM 31358899.00 46988818.00 L 30944253.00 46988818.00 L 30944253.00 46554488.00 L 31358899.00 46554488.00 L 31358899.00 46988818.00  zM 30393534.00 47106257.00 L 29901408.00 47106257.00 L 29901408.00 46889723.00 L 30393534.00 46889723.00 L 30393534.00 47106257.00  zM 30393534.00 47606257.00 L 29901408.00 47606257.00 L 29901408.00 47389723.00 L 30393534.00 47389723.00 L 30393534.00 47606257.00  zM 31358900.00 47579370.00 L 30944254.00 47579370.00 L 30944254.00 47145040.00 L 31358900.00 47145040.00 L 31358900.00 47579370.00  zM 24882969.00 50732413.00 L 24468323.00 50732413.00 L 24468323.00 50298083.00 L 24882969.00 50298083.00 L 24882969.00 50732413.00  zM 26535428.62 49232309.02 m -633575.98 0 a 633575.98 633575.98 0 1 1 1267151.97 0a 633575.98 633575.98 0 1 1 -1267151.97 0M 28287234.00 49106257.00 L 27795108.00 49106257.00 L 27795108.00 48889723.00 L 28287234.00 48889723.00 L 28287234.00 49106257.00  zM 28287234.00 48606257.00 L 27795108.00 48606257.00 L 27795108.00 48389723.00 L 28287234.00 48389723.00 L 28287234.00 48606257.00  zM 28287234.00 49606257.00 L 27795108.00 49606257.00 L 27795108.00 49389723.00 L 28287234.00 49389723.00 L 28287234.00 49606257.00  zM 28287234.00 50106257.00 L 27795108.00 50106257.00 L 27795108.00 49889723.00 L 28287234.00 49889723.00 L 28287234.00 50106257.00  zM 30393534.00 48106257.00 L 29901408.00 48106257.00 L 29901408.00 47889723.00 L 30393534.00 47889723.00 L 30393534.00 48106257.00  zM 30393534.00 48606257.00 L 29901408.00 48606257.00 L 29901408.00 48389723.00 L 30393534.00 48389723.00 L 30393534.00 48606257.00  zM 30393534.00 49106257.00 L 29901408.00 49106257.00 L 29901408.00 48889723.00 L 30393534.00 48889723.00 L 30393534.00 49106257.00  zM 30393534.00 49606257.00 L 29901408.00 49606257.00 L 29901408.00 49389723.00 L 30393534.00 49389723.00 L 30393534.00 49606257.00  zM 30393534.00 50106257.00 L 29901408.00 50106257.00 L 29901408.00 49889723.00 L 30393534.00 49889723.00 L 30393534.00 50106257.00  zM 31358899.00 49941574.00 L 30944253.00 49941574.00 L 30944253.00 49507244.00 L 31358899.00 49507244.00 L 31358899.00 49941574.00  zM 24272733.00 50732413.00 L 23858087.00 50732413.00 L 23858087.00 50298083.00 L 24272733.00 50298083.00 L 24272733.00 50732413.00  zM 24272285.00 51319527.00 L 23857639.00 51319527.00 L 23857639.00 50885197.00 L 24272285.00 50885197.00 L 24272285.00 51319527.00  zM 24882521.00 51319527.00 L 24467875.00 51319527.00 L 24467875.00 50885197.00 L 24882521.00 50885197.00 L 24882521.00 51319527.00  zM 28908111.00 52018346.00 L 28473781.00 52018346.00 L 28473781.00 51564330.00 L 28908111.00 51564330.00 L 28908111.00 52018346.00  zM 29518347.00 52018346.00 L 29084017.00 52018346.00 L 29084017.00 51564330.00 L 29518347.00 51564330.00 L 29518347.00 52018346.00  zM 30260473.00 50776220.00 L 29700159.00 50776220.00 L 29700159.00 50337952.00 L 30260473.00 50337952.00 L 30260473.00 50776220.00  zM 29587246.00 52599055.00 L 29172600.00 52599055.00 L 29172600.00 52164725.00 L 29587246.00 52164725.00 L 29587246.00 52599055.00  zM 30260473.00 52063622.00 L 29700159.00 52063622.00 L 29700159.00 51625354.00 L 30260473.00 51625354.00 L 30260473.00 52063622.00  zM 30197482.00 52599055.00 L 29782836.00 52599055.00 L 29782836.00 52164725.00 L 30197482.00 52164725.00 L 30197482.00 52599055.00  zM 26535427.62 54921286.02 m -633575.98 0 a 633575.98 633575.98 0 1 1 1267151.97 0a 633575.98 633575.98 0 1 1 -1267151.97 0M 30885827.00 52557019.00 L 30724411.00 52557019.00 L 30724411.00 52234185.00 L 30885827.00 52234185.00 L 30885827.00 52557019.00  zM 26535427.62 56889790.02 m -633575.98 0 a 633575.98 633575.98 0 1 1 1267151.97 0a 633575.98 633575.98 0 1 1 -1267151.97 0M 32364371.00 41982216.00 L 30765553.00 41982216.00 L 30765553.00 41702689.00 L 30580710.00 41702689.00 L 30580710.00 41462532.00 L 30765553.00 41462532.00 L 30765553.00 40553083.00 L 30580710.00 40553083.00 L 30580710.00 40352295.00 L 32549214.00 40352295.00 L 32549214.00 40553083.00 L 32364371.00 40553083.00 L 32364371.00 41462532.00 L 32549214.00 41462532.00 L 32549214.00 41702689.00 L 32364371.00 41702689.00 L 32364371.00 41982216.00  zM 31395670.00 42812925.00 L 31234254.00 42812925.00 L 31234254.00 42490091.00 L 31395670.00 42490091.00 L 31395670.00 42812925.00  zM 31895670.00 42812925.00 L 31734254.00 42812925.00 L 31734254.00 42490091.00 L 31895670.00 42490091.00 L 31895670.00 42812925.00  zM 31969135.00 46988818.00 L 31554489.00 46988818.00 L 31554489.00 46554488.00 L 31969135.00 46554488.00 L 31969135.00 46988818.00  zM 31969136.00 47579370.00 L 31554490.00 47579370.00 L 31554490.00 47145040.00 L 31969136.00 47145040.00 L 31969136.00 47579370.00  zM 31368742.00 48169921.00 L 30954096.00 48169921.00 L 30954096.00 47735591.00 L 31368742.00 47735591.00 L 31368742.00 48169921.00  zM 31368742.00 48760472.00 L 30954096.00 48760472.00 L 30954096.00 48326142.00 L 31368742.00 48326142.00 L 31368742.00 48760472.00  zM 31978978.00 48169921.00 L 31564332.00 48169921.00 L 31564332.00 47735591.00 L 31978978.00 47735591.00 L 31978978.00 48169921.00  zM 31978978.00 48760472.00 L 31564332.00 48760472.00 L 31564332.00 48326142.00 L 31978978.00 48326142.00 L 31978978.00 48760472.00  zM 31358900.00 49351023.00 L 30944254.00 49351023.00 L 30944254.00 48916693.00 L 31358900.00 48916693.00 L 31358900.00 49351023.00  zM 31969135.00 49941574.00 L 31554489.00 49941574.00 L 31554489.00 49507244.00 L 31969135.00 49507244.00 L 31969135.00 49941574.00  zM 31969136.00 49351023.00 L 31554490.00 49351023.00 L 31554490.00 48916693.00 L 31969136.00 48916693.00 L 31969136.00 49351023.00  zM 32395670.00 42812925.00 L 32234254.00 42812925.00 L 32234254.00 42490091.00 L 32395670.00 42490091.00 L 32395670.00 42812925.00  zM 36358898.00 41049843.00 L 34310394.00 41049843.00 L 34310394.00 40477717.00 L 36358898.00 40477717.00 L 36358898.00 41049843.00  zM 37047240.86 44311035.29 m -294475.71 0 a 294475.71 294475.71 0 1 1 588951.41 0a 294475.71 294475.71 0 1 1 -588951.41 0M 32529528.00 45196849.00 L 31269686.00 45196849.00 L 31269686.00 44566929.00 L 32529528.00 44566929.00 L 32529528.00 45196849.00  zM 32579372.00 48160078.00 L 32125356.00 48160078.00 L 32125356.00 47725748.00 L 32579372.00 47725748.00 L 32579372.00 48160078.00  zM 32579372.00 48770314.00 L 32125356.00 48770314.00 L 32125356.00 48335984.00 L 32579372.00 48335984.00 L 32579372.00 48770314.00  zM 38908110.00 41049843.00 L 36859606.00 41049843.00 L 36859606.00 40477717.00 L 38908110.00 40477717.00 L 38908110.00 41049843.00  zM 38602359.42 42913394.20 m -131092.80 0 a 131092.80 131092.80 0 1 1 262185.61 0a 131092.80 131092.80 0 1 1 -262185.61 0M 37047240.86 46245287.29 m -294475.71 0 a 294475.71 294475.71 0 1 1 588951.41 0a 294475.71 294475.71 0 1 1 -588951.41 0M 40279528.77 41417320.34 m -300049.66 0 a 300049.66 300049.66 0 1 1 600099.32 0a 300049.66 300049.66 0 1 1 -600099.32 0M 40279528.77 42417320.34 m -300049.66 0 a 300049.66 300049.66 0 1 1 600099.32 0a 300049.66 300049.66 0 1 1 -600099.32 0M 44588976.00 47889702.00 L 42119686.00 47889702.00 A 66473.95 66473.95 0 0 1 42053212.00 47823228.00 L 42053212.00 44645276.00 A 66473.95 66473.95 0 0 1 42119686.00 44578802.00 L 44588976.00 44578802.00 A 66473.95 66473.95 0 0 1 44655450.00 44645276.00 L 44655450.00 47823228.00 A 66473.95 66473.95 0 0 1 44588976.00 47889702.00  zM 32354528.00 51726310.00 L 30755710.00 51726310.00 L 30755710.00 51446783.00 L 30570867.00 51446783.00 L 30570867.00 51206626.00 L 30755710.00 51206626.00 L 30755710.00 50297177.00 L 30570867.00 50297177.00 L 30570867.00 50096389.00 L 32539371.00 50096389.00 L 32539371.00 50297177.00 L 32354528.00 50297177.00 L 32354528.00 51206626.00 L 32539371.00 51206626.00 L 32539371.00 51446783.00 L 32354528.00 51446783.00 L 32354528.00 51726310.00  zM 31385827.00 52557019.00 L 31224411.00 52557019.00 L 31224411.00 52234185.00 L 31385827.00 52234185.00 L 31385827.00 52557019.00  zM 38196851.00 53183070.00 L 37409449.00 53183070.00 L 37409449.00 51568898.00 L 38196851.00 51568898.00 L 38196851.00 53183070.00  zM 42192914.00 51210272.00 L 41838584.00 51210272.00 L 41792903.00 51191350.00 L 41773981.00 51145669.00 L 41773981.00 49551181.00 L 41792903.00 49505500.00 L 41838584.00 49486578.00 L 42192914.00 49486578.00 L 42238595.00 49505500.00 L 42257517.00 49551181.00 L 42257517.00 51145669.00 L 42238595.00 51191350.00 L 42192914.00 51210272.00  zM 41024252.00 52165985.00 L 40589922.00 52165985.00 L 40589922.00 51751339.00 L 41024252.00 51751339.00 L 41024252.00 52165985.00  zM 42284094.00 52717165.00 L 41613544.00 52717165.00 L 41613544.00 52007245.00 L 42284094.00 52007245.00 L 42284094.00 52717165.00  zM 43531496.00 51210272.00 L 43177166.00 51210272.00 L 43131485.00 51191350.00 L 43112563.00 51145669.00 L 43112563.00 49551181.00 L 43131485.00 49505500.00 L 43177166.00 49486578.00 L 43531496.00 49486578.00 L 43577177.00 49505500.00 L 43596099.00 49551181.00 L 43596099.00 51145669.00 L 43577177.00 51191350.00 L 43531496.00 51210272.00  zM 44200788.00 51210272.00 L 43846458.00 51210272.00 L 43800777.00 51191350.00 L 43781855.00 51145669.00 L 43781855.00 49551181.00 L 43800777.00 49505500.00 L 43846458.00 49486578.00 L 44200788.00 49486578.00 L 44246469.00 49505500.00 L 44265391.00 49551181.00 L 44265391.00 51145669.00 L 44246469.00 51191350.00 L 44200788.00 51210272.00  zM 44870079.00 51210272.00 L 44515749.00 51210272.00 L 44470068.00 51191350.00 L 44451146.00 51145669.00 L 44451146.00 49551181.00 L 44470068.00 49505500.00 L 44515749.00 49486578.00 L 44870079.00 49486578.00 L 44915760.00 49505500.00 L 44934682.00 49551181.00 L 44934682.00 51145669.00 L 44915760.00 51191350.00 L 44870079.00 51210272.00  zM 42862205.00 51210272.00 L 42507875.00 51210272.00 L 42462194.00 51191350.00 L 42443272.00 51145669.00 L 42443272.00 49551181.00 L 42462194.00 49505500.00 L 42507875.00 49486578.00 L 42862205.00 49486578.00 L 42907886.00 49505500.00 L 42926808.00 49551181.00 L 42926808.00 51145669.00 L 42907886.00 51191350.00 L 42862205.00 51210272.00  zM 43504566.00 52244724.00 L 42952126.00 52244724.00 L 42952126.00 51692284.00 L 43504566.00 51692284.00 L 43504566.00 52244724.00  zM 44744724.00 52717165.00 L 44074174.00 52717165.00 L 44074174.00 52007245.00 L 44744724.00 52007245.00 L 44744724.00 52717165.00  zM 31885827.00 52557019.00 L 31724411.00 52557019.00 L 31724411.00 52234185.00 L 31885827.00 52234185.00 L 31885827.00 52557019.00  zM 32385827.00 52557019.00 L 32224411.00 52557019.00 L 32224411.00 52234185.00 L 32385827.00 52234185.00 L 32385827.00 52557019.00  zM 41337243.00 55585276.00 L 40095827.00 55585276.00 L 40095827.00 54481654.00 L 41337243.00 54481654.00 L 41337243.00 55585276.00  zM 31908264.01 56891761.90 m -1224848.10 0 a 1224848.10 1224848.10 0 1 1 2449696.20 0a 1224848.10 1224848.10 0 1 1 -2449696.20 0M 38196851.00 56608266.00 L 37409449.00 56608266.00 L 37409449.00 54994094.00 L 38196851.00 54994094.00 L 38196851.00 56608266.00  zM 31496059.01 62992155.90 m -1224848.10 0 a 1224848.10 1224848.10 0 1 1 2449696.20 0a 1224848.10 1224848.10 0 1 1 -2449696.20 0M 41024252.00 52776221.00 L 40589922.00 52776221.00 L 40589922.00 52361575.00 L 41024252.00 52361575.00 L 41024252.00 52776221.00  zM 43504566.00 53032126.00 L 42952126.00 53032126.00 L 42952126.00 52479686.00 L 43504566.00 52479686.00 L 43504566.00 53032126.00  zM 43778188.00 55585276.00 L 42536772.00 55585276.00 L 42536772.00 54481654.00 L 43778188.00 54481654.00 L 43778188.00 55585276.00  zM 45106929.00 54561653.00 L 44692283.00 54561653.00 L 44692283.00 54127323.00 L 45106929.00 54127323.00 L 45106929.00 54561653.00  zM 45717165.00 54561653.00 L 45302519.00 54561653.00 L 45302519.00 54127323.00 L 45717165.00 54127323.00 L 45717165.00 54561653.00  zM 44834646.00 56387794.00 L 44165356.00 56387794.00 L 44165356.00 55726378.00 L 44834646.00 55726378.00 L 44834646.00 56387794.00  zM 46279528.77 40417320.34 m -300049.66 0 a 300049.66 300049.66 0 1 1 600099.32 0a 300049.66 300049.66 0 1 1 -600099.32 0M 46279528.77 41417320.34 m -300049.66 0 a 300049.66 300049.66 0 1 1 600099.32 0a 300049.66 300049.66 0 1 1 -600099.32 0M 49754567.00 41049843.00 L 47706063.00 41049843.00 L 47706063.00 40477717.00 L 49754567.00 40477717.00 L 49754567.00 41049843.00  zM 46279528.77 42417320.34 m -300049.66 0 a 300049.66 300049.66 0 1 1 600099.32 0a 300049.66 300049.66 0 1 1 -600099.32 0M 49830601.00 43383858.00 L 49287508.00 43383858.00 A 100356.10 100356.10 0 0 1 49208661.00 43305010.00 L 49208661.00 42785433.00 L 49909449.00 42785433.00 L 49909449.00 43305010.00 A 100356.10 100356.10 0 0 1 49830601.00 43383858.00  zM 49909449.00 47135827.00 L 49208661.00 47135827.00 L 49208661.00 46616249.00 A 100349.65 100349.65 0 0 1 49287508.00 46537402.00 L 49830601.00 46537402.00 A 100349.65 100349.65 0 0 1 49909449.00 46616249.00 L 49909449.00 47135827.00  zM 52303779.00 41049843.00 L 50255275.00 41049843.00 L 50255275.00 40477717.00 L 52303779.00 40477717.00 L 52303779.00 41049843.00  zM 50830601.00 43383858.00 L 50287508.00 43383858.00 A 100356.10 100356.10 0 0 1 50208661.00 43305010.00 L 50208661.00 42785433.00 L 50909449.00 42785433.00 L 50909449.00 43305010.00 A 100356.10 100356.10 0 0 1 50830601.00 43383858.00  zM 52402205.00 43307716.00 L 51987559.00 43307716.00 L 51987559.00 42873386.00 L 52402205.00 42873386.00 L 52402205.00 43307716.00  zM 51791969.00 43307716.00 L 51377323.00 43307716.00 L 51377323.00 42873386.00 L 51791969.00 42873386.00 L 51791969.00 43307716.00  zM 50909449.00 47135827.00 L 50208661.00 47135827.00 L 50208661.00 46616249.00 A 100349.65 100349.65 0 0 1 50287508.00 46537402.00 L 50830601.00 46537402.00 A 100349.65 100349.65 0 0 1 50909449.00 46616249.00 L 50909449.00 47135827.00  zM 54449447.00 48012441.00 L 53995431.00 48012441.00 L 53995431.00 47578111.00 L 54449447.00 47578111.00 L 54449447.00 48012441.00  zM 55314960.00 42047244.00 L 54055118.00 42047244.00 L 54055118.00 41417324.00 L 55314960.00 41417324.00 L 55314960.00 42047244.00  zM 54350392.00 44114240.00 L 54188976.00 44114240.00 L 54188976.00 43791406.00 L 54350392.00 43791406.00 L 54350392.00 44114240.00  zM 55350392.00 44114240.00 L 55188976.00 44114240.00 L 55188976.00 43791406.00 L 55350392.00 43791406.00 L 55350392.00 44114240.00  zM 54850392.00 44114240.00 L 54688976.00 44114240.00 L 54688976.00 43791406.00 L 54850392.00 43791406.00 L 54850392.00 44114240.00  zM 55850392.00 44114240.00 L 55688976.00 44114240.00 L 55688976.00 43791406.00 L 55850392.00 43791406.00 L 55850392.00 44114240.00  zM 56003936.00 46252036.00 L 54035432.00 46252036.00 L 54035432.00 46051248.00 L 54220275.00 46051248.00 L 54220275.00 45141799.00 L 54035432.00 45141799.00 L 54035432.00 44901642.00 L 54220275.00 44901642.00 L 54220275.00 44622115.00 L 55819093.00 44622115.00 L 55819093.00 44901642.00 L 56003936.00 44901642.00 L 56003936.00 45141799.00 L 55819093.00 45141799.00 L 55819093.00 46051248.00 L 56003936.00 46051248.00 L 56003936.00 46252036.00  zM 55020314.00 46841181.00 L 54605668.00 46841181.00 L 54605668.00 46406851.00 L 55020314.00 46406851.00 L 55020314.00 46841181.00  zM 55020313.00 47431732.00 L 54605667.00 47431732.00 L 54605667.00 46997402.00 L 55020313.00 46997402.00 L 55020313.00 47431732.00  zM 55630550.00 46841181.00 L 55215904.00 46841181.00 L 55215904.00 46406851.00 L 55630550.00 46406851.00 L 55630550.00 46841181.00  zM 55010471.00 48022283.00 L 54595825.00 48022283.00 L 54595825.00 47587953.00 L 55010471.00 47587953.00 L 55010471.00 48022283.00  zM 55620707.00 48022283.00 L 55206061.00 48022283.00 L 55206061.00 47587953.00 L 55620707.00 47587953.00 L 55620707.00 48022283.00  zM 55630549.00 47431732.00 L 55215903.00 47431732.00 L 55215903.00 46997402.00 L 55630549.00 46997402.00 L 55630549.00 47431732.00  zM 57283464.00 42047244.00 L 56023622.00 42047244.00 L 56023622.00 41417324.00 L 57283464.00 41417324.00 L 57283464.00 42047244.00  zM 57402203.00 44183700.00 L 56987557.00 44183700.00 L 56987557.00 43749370.00 L 57402203.00 43749370.00 L 57402203.00 44183700.00  zM 56791967.00 44183700.00 L 56377321.00 44183700.00 L 56377321.00 43749370.00 L 56791967.00 43749370.00 L 56791967.00 44183700.00  zM 56874644.00 44723071.00 L 56314330.00 44723071.00 L 56314330.00 44284803.00 L 56874644.00 44284803.00 L 56874644.00 44723071.00  zM 57490786.00 44784095.00 L 57056456.00 44784095.00 L 57056456.00 44330079.00 L 57490786.00 44330079.00 L 57490786.00 44784095.00  zM 58101022.00 44784095.00 L 57666692.00 44784095.00 L 57666692.00 44330079.00 L 58101022.00 44330079.00 L 58101022.00 44784095.00  zM 56874644.00 46010473.00 L 56314330.00 46010473.00 L 56314330.00 45572205.00 L 56874644.00 45572205.00 L 56874644.00 46010473.00  zM 56673395.00 46458702.00 L 56181269.00 46458702.00 L 56181269.00 46242168.00 L 56673395.00 46242168.00 L 56673395.00 46458702.00  zM 56673395.00 46958702.00 L 56181269.00 46958702.00 L 56181269.00 46742168.00 L 56673395.00 46742168.00 L 56673395.00 46958702.00  zM 56673395.00 47458702.00 L 56181269.00 47458702.00 L 56181269.00 47242168.00 L 56673395.00 47242168.00 L 56673395.00 47458702.00  zM 56673395.00 47958702.00 L 56181269.00 47958702.00 L 56181269.00 47742168.00 L 56673395.00 47742168.00 L 56673395.00 47958702.00  zM 56673395.00 48458702.00 L 56181269.00 48458702.00 L 56181269.00 48242168.00 L 56673395.00 48242168.00 L 56673395.00 48458702.00  zM 62117219.00 40948948.00 L 61702573.00 40948948.00 L 61702573.00 40514618.00 L 62117219.00 40514618.00 L 62117219.00 40948948.00  zM 62727455.00 40948948.00 L 62312809.00 40948948.00 L 62312809.00 40514618.00 L 62727455.00 40514618.00 L 62727455.00 40948948.00  zM 62106928.00 45463228.00 L 61692282.00 45463228.00 L 61692282.00 45028898.00 L 62106928.00 45028898.00 L 62106928.00 45463228.00  zM 62106480.00 46050342.00 L 61691834.00 46050342.00 L 61691834.00 45616012.00 L 62106480.00 45616012.00 L 62106480.00 46050342.00  zM 62716716.00 46050342.00 L 62302070.00 46050342.00 L 62302070.00 45616012.00 L 62716716.00 45616012.00 L 62716716.00 46050342.00  zM 62717164.00 45463228.00 L 62302518.00 45463228.00 L 62302518.00 45028898.00 L 62717164.00 45028898.00 L 62717164.00 45463228.00  zM 58779695.00 46458702.00 L 58287569.00 46458702.00 L 58287569.00 46242168.00 L 58779695.00 46242168.00 L 58779695.00 46458702.00  zM 58779695.00 47458702.00 L 58287569.00 47458702.00 L 58287569.00 47242168.00 L 58779695.00 47242168.00 L 58779695.00 47458702.00  zM 58779695.00 47958702.00 L 58287569.00 47958702.00 L 58287569.00 47742168.00 L 58779695.00 47742168.00 L 58779695.00 47958702.00  zM 58779695.00 46958702.00 L 58287569.00 46958702.00 L 58287569.00 46742168.00 L 58779695.00 46742168.00 L 58779695.00 46958702.00  zM 58779695.00 48458702.00 L 58287569.00 48458702.00 L 58287569.00 48242168.00 L 58779695.00 48242168.00 L 58779695.00 48458702.00  zM 60039363.62 47116168.02 m -633575.98 0 a 633575.98 633575.98 0 1 1 1267151.97 0a 633575.98 633575.98 0 1 1 -1267151.97 0M 46376614.00 49335275.00 L 45922598.00 49335275.00 L 45922598.00 48900945.00 L 46376614.00 48900945.00 L 46376614.00 49335275.00  zM 46376614.00 49945511.00 L 45922598.00 49945511.00 L 45922598.00 49511181.00 L 46376614.00 49511181.00 L 46376614.00 49945511.00  zM 48920512.00 49557245.00 L 48345512.00 49557245.00 L 48345512.00 49337245.00 L 48920512.00 49337245.00 L 48920512.00 49557245.00  zM 48920512.00 48557245.00 L 48345512.00 48557245.00 L 48345512.00 48337245.00 L 48920512.00 48337245.00 L 48920512.00 48557245.00  zM 48920512.00 49057245.00 L 48345512.00 49057245.00 L 48345512.00 48837245.00 L 48920512.00 48837245.00 L 48920512.00 49057245.00  zM 48920512.00 50057245.00 L 48345512.00 50057245.00 L 48345512.00 49837245.00 L 48920512.00 49837245.00 L 48920512.00 50057245.00  zM 46366771.00 50585276.00 L 45932441.00 50585276.00 L 45932441.00 50170630.00 L 46366771.00 50170630.00 L 46366771.00 50585276.00  zM 46366771.00 51195512.00 L 45932441.00 51195512.00 L 45932441.00 50780866.00 L 46366771.00 50780866.00 L 46366771.00 51195512.00  zM 48898269.00 50906142.00 L 48483623.00 50906142.00 L 48483623.00 50471812.00 L 48898269.00 50471812.00 L 48898269.00 50906142.00  zM 45965196.00 52244724.00 L 45412756.00 52244724.00 L 45412756.00 51692284.00 L 45965196.00 51692284.00 L 45965196.00 52244724.00  zM 45965196.00 53032126.00 L 45412756.00 53032126.00 L 45412756.00 52479686.00 L 45965196.00 52479686.00 L 45965196.00 53032126.00  zM 46244094.00 56387794.00 L 45574804.00 56387794.00 L 45574804.00 55726378.00 L 46244094.00 55726378.00 L 46244094.00 56387794.00  zM 51065512.00 49057245.00 L 50490512.00 49057245.00 L 50490512.00 48837245.00 L 51065512.00 48837245.00 L 51065512.00 49057245.00  zM 51065512.00 49557245.00 L 50490512.00 49557245.00 L 50490512.00 49337245.00 L 51065512.00 49337245.00 L 51065512.00 49557245.00  zM 50925828.00 50906142.00 L 50511182.00 50906142.00 L 50511182.00 50471812.00 L 50925828.00 50471812.00 L 50925828.00 50906142.00  zM 51065512.00 48557245.00 L 50490512.00 48557245.00 L 50490512.00 48337245.00 L 51065512.00 48337245.00 L 51065512.00 48557245.00  zM 51065512.00 50057245.00 L 50490512.00 50057245.00 L 50490512.00 49837245.00 L 51065512.00 49837245.00 L 51065512.00 50057245.00  zM 54449447.00 48622677.00 L 53995431.00 48622677.00 L 53995431.00 48188347.00 L 54449447.00 48188347.00 L 54449447.00 48622677.00  zM 49508505.00 50906142.00 L 49093859.00 50906142.00 L 49093859.00 50471812.00 L 49508505.00 50471812.00 L 49508505.00 50906142.00  zM 50315592.00 50906142.00 L 49900946.00 50906142.00 L 49900946.00 50471812.00 L 50315592.00 50471812.00 L 50315592.00 50906142.00  zM 55305117.00 51781496.00 L 54045275.00 51781496.00 L 54045275.00 51151576.00 L 55305117.00 51151576.00 L 55305117.00 51781496.00  zM 49181103.00 53183070.00 L 48393701.00 53183070.00 L 48393701.00 51568898.00 L 49181103.00 51568898.00 L 49181103.00 53183070.00  zM 49181103.00 56608266.00 L 48393701.00 56608266.00 L 48393701.00 54994094.00 L 49181103.00 54994094.00 L 49181103.00 56608266.00  zM 54705902.01 56891761.90 m -1224848.10 0 a 1224848.10 1224848.10 0 1 1 2449696.20 0a 1224848.10 1224848.10 0 1 1 -2449696.20 0M 55010471.00 48612834.00 L 54595825.00 48612834.00 L 54595825.00 48178504.00 L 55010471.00 48178504.00 L 55010471.00 48612834.00  zM 55020313.00 49203385.00 L 54605667.00 49203385.00 L 54605667.00 48769055.00 L 55020313.00 48769055.00 L 55020313.00 49203385.00  zM 55620707.00 48612834.00 L 55206061.00 48612834.00 L 55206061.00 48178504.00 L 55620707.00 48178504.00 L 55620707.00 48612834.00  zM 55630549.00 49203385.00 L 55215903.00 49203385.00 L 55215903.00 48769055.00 L 55630549.00 48769055.00 L 55630549.00 49203385.00  zM 55020314.00 49793937.00 L 54605668.00 49793937.00 L 54605668.00 49359607.00 L 55020314.00 49359607.00 L 55020314.00 49793937.00  zM 55630550.00 49793937.00 L 55215904.00 49793937.00 L 55215904.00 49359607.00 L 55630550.00 49359607.00 L 55630550.00 49793937.00  zM 56673395.00 48958702.00 L 56181269.00 48958702.00 L 56181269.00 48742168.00 L 56673395.00 48742168.00 L 56673395.00 48958702.00  zM 56673395.00 49458702.00 L 56181269.00 49458702.00 L 56181269.00 49242168.00 L 56673395.00 49242168.00 L 56673395.00 49458702.00  zM 56673395.00 49958702.00 L 56181269.00 49958702.00 L 56181269.00 49742168.00 L 56673395.00 49742168.00 L 56673395.00 49958702.00  zM 58779695.00 48958702.00 L 58287569.00 48958702.00 L 58287569.00 48742168.00 L 58779695.00 48742168.00 L 58779695.00 48958702.00  zM 58779695.00 49458702.00 L 58287569.00 49458702.00 L 58287569.00 49242168.00 L 58779695.00 49242168.00 L 58779695.00 49458702.00  zM 60039363.62 49084672.02 m -633575.98 0 a 633575.98 633575.98 0 1 1 1267151.97 0a 633575.98 633575.98 0 1 1 -1267151.97 0M 57273621.00 51781496.00 L 56013779.00 51781496.00 L 56013779.00 51151576.00 L 57273621.00 51151576.00 L 57273621.00 51781496.00  zM 58779695.00 49958702.00 L 58287569.00 49958702.00 L 58287569.00 49742168.00 L 58779695.00 49742168.00 L 58779695.00 49958702.00  zM 57957322.00 55065590.00 L 56648976.00 55065590.00 L 56648976.00 54084016.00 L 57957322.00 54084016.00 L 57957322.00 55065590.00  zM 62107376.00 50683200.00 L 61692730.00 50683200.00 L 61692730.00 50248870.00 L 62107376.00 50248870.00 L 62107376.00 50683200.00  zM 62717612.00 50683200.00 L 62302966.00 50683200.00 L 62302966.00 50248870.00 L 62717612.00 50248870.00 L 62717612.00 50683200.00  zM 60039364.62 54842546.02 m -633575.98 0 a 633575.98 633575.98 0 1 1 1267151.97 0a 633575.98 633575.98 0 1 1 -1267151.97 0M 57957322.00 57766378.00 L 56648976.00 57766378.00 L 56648976.00 56784804.00 L 57957322.00 56784804.00 L 57957322.00 57766378.00  zM 59656141.00 58986850.00 L 58808425.00 58986850.00 L 58808425.00 58021024.00 L 59656141.00 58021024.00 L 59656141.00 58986850.00  zM 60039364.62 56811050.02 m -633575.98 0 a 633575.98 633575.98 0 1 1 1267151.97 0a 633575.98 633575.98 0 1 1 -1267151.97 0M 58238818.00 58986850.00 L 57391102.00 58986850.00 L 57391102.00 58021024.00 L 58238818.00 58021024.00 L 58238818.00 58986850.00  zM 55118106.01 62992155.90 m -1224848.10 0 a 1224848.10 1224848.10 0 1 1 2449696.20 0a 1224848.10 1224848.10 0 1 1 -2449696.20 0"/>
</g>
</svg>
