M48
;Layer_Color=9474304
;FILE_FORMAT=4:4
METRIC,LZ
;TYPE=PLATED
T01F00S00C0.3000
T02F00S00C0.8000
T03F00S00C0.8500
T04F00S00C0.9900
T05F00S00C1.0000
T06F00S00C1.0200
T07F00S00C2.1000
T08F00S00C3.0000
T09F00S00C4.5500
%
T01
X01318Y00786
X00878Y00784
X009Y00686
X00963Y00685
X0096055Y0055364
X0094785
X0093515
X00843Y0066
X007665Y008875
X007585
X007515
X0074425Y00888
X0073675
X0072925
Y008955
X0073675
Y00903
X0072925
X0072175
X0071425
X0070675
Y008955
Y00888
X0071425
X0072175
Y008955
X0071425
Y009105
Y00918
X0072175
Y009105
X0072925
Y00918
X0073675
Y009105
X0074425
Y00918
X0075175
Y009105
X0075925
Y00918
Y009255
X0075175
X0074425
X0073675
X0072925
X0072175
X0071425
Y00933
X0072175
X0070675
Y009255
Y00918
Y009105
X0069925
Y00918
Y009255
Y00933
Y00903
Y008955
X00699Y008875
X0074425Y00896
Y00903
X0075125
X0075825
X007585Y008955
X007515
X007665
X00766Y00903
X0076675Y009105
Y00918
Y009255
X0079175Y0094
X0074925Y009605
X0074175
Y00968
X0074925
Y009755
X0074175
Y00983
X0074925
Y009905
X0074175
X0073425
X0072675
Y00983
X0073425
Y009755
X0072675
Y00968
X0073425
Y009605
X0071225Y00959
X0071175Y009755
X0070425
Y00983
X0071175
X0071925
Y009755
X00712496Y00997049
X0073425Y00998
X0074175
X0074925
X0072925Y010305
X0072175
X0071425
Y01023
X0072175
X0070675
Y010305
X0069925
Y01023
Y01038
X0070675
Y010455
Y01053
Y010605
Y01068
X0071425
Y010605
X0072175
Y01068
X00729
X0072925Y010605
Y01053
Y010455
X0072175
X0071425
Y01053
X0072175
Y01038
X0071425
X0072925
X0069925Y010455
Y01053
Y010605
Y01068
X00699Y011355
Y01143
X007065
Y011355
X00714
Y01143
X007215
Y011355
X00729
Y01143
X007365
Y011355
X00744
X0075125Y01135
X0075825
Y01143
X0075125
X00751Y011505
X00758
X0076575
X0076625Y01143
Y01135
X007665Y01158
Y011655
Y01173
X00759
X007515
X00744
X007365
X00729
X007215
Y011805
X00714
Y01173
Y011655
X007215
Y01158
X00714
X007065
Y011655
Y01173
Y011805
X00699
Y01173
Y011655
Y01158
Y011505
X007065
X00714
X007215
X00729
X007365
Y01158
X00729
Y011655
X007365
X00744
Y01158
X007515
X00759
Y011655
X007515
X00744Y011505
Y011435
X007915Y011875
X0078925Y010655
Y01058
X0078175
Y010655
Y010505
X0078925
Y01043
X0078175
Y010355
X0078925
Y01028
X0078175
X0079175Y010155
X0079675Y01028
X0080425
X0081175
Y010355
X0080425
Y01043
X0081175
X0081925
Y010355
Y01028
Y010505
X0081175
X0080425
Y01058
Y010655
X0081175
Y01058
X0081925
Y010655
X0079675
Y01058
Y010505
Y01043
Y010355
X008325Y01015
Y00955
Y0094
X0081925Y00928
Y009205
Y00913
X0081925Y00906
X008195Y008985
Y008915
X008115
X008045
X007975
Y008985
X008045
X008115
X0081125Y00906
X0080425
X0079725
X0079675Y00913
X0080425
X0081175
Y009205
Y00928
X0080425
Y009205
X0079675
Y00928
X009295Y009185
X008975Y0101
X00845Y010715
X0081925Y01139
Y01146
X00819Y011535
X00819Y011605
X008115
X00804
X00804Y011535
X00811
X0081125Y01146
X0080425
X0079725
Y01139
X0080425
X0081125
X00797Y011535
X007965Y011605
Y01168
Y011755
X00804
Y01168
X008115
Y011755
X00819
Y01168
X008325Y011875
X00965Y0118
Y01165
Y0115
X00985
Y01165
Y0118
X01005
Y01165
Y0115
X01025
Y01165
Y0118
X01045
Y01165
Y0115
X01065
Y01165
Y0118
X01085
Y01165
Y0115
X011
X01115
X0113
Y01165
X01115
X011
Y0118
X01115
X0113
X009805Y0109
X00993Y01072
X01211Y01105
X012395Y01095
X013545Y010955
X0138Y01061
Y01054
X0138025Y010465
X0138025Y010395
Y01032
Y010245
X0138775
Y01032
X0139525
Y010245
X0140275
Y01032
Y010395
X0139525
X0139525Y010465
X0138825
X0138775Y010395
X01388Y01054
X01395
X01402
Y01061
X01395
X01388
X0140225Y010465
X014335Y010495
X0144125
X0144825
X0145525
Y010565
X01448Y01057
X01441
X01433
Y01065
X01441
X01448
X0145525Y010645
X0146275
X0147025
Y01057
X0146275
Y010495
X0147025
Y01042
Y010345
X0146275
Y01042
X0145525
Y010345
X0144775
Y01042
X0144025
Y010345
Y01027
X0144775
X0145525
X0146275
X0147025
X0147775
X0148525
Y010195
X0147775
X0149275
Y01027
X0150025
Y010195
Y010345
Y01042
X0149275
Y010345
X0148525
X0147775
Y01042
X0148525
Y010495
X0147775
Y01057
X0148525
Y010645
X0147775
X0149275
Y01057
X0150025
Y010645
Y010495
X0149275
X0148725Y009935
X0148775Y00977
X0149525
Y009695
X0148775
X0148025
X0147275
X0146525
Y00962
X0147275
X0145775
Y009695
X0145025
Y00962
Y009545
X0145775
X0146525
Y00977
X0147275
Y009845
X0146525
X0145775
X0145025
Y00977
X0145775
Y00992
X0145025
X0146525
X0148025Y00977
X01487004Y00955451
X0148525Y009295
X0147775
Y00922
X0148525
X0149275
Y009295
X0150025
Y00922
Y009145
Y00907
Y008995
X0149275
Y00907
Y009145
X0148525
X0147775
Y00907
X0148525
Y008995
X0147775
Y00892
X0148525
Y008845
X0147775
X014705
X0147025Y00892
Y008995
Y00907
Y009145
Y00922
X0149275Y00892
Y008845
X0150025
Y00892
X0141775Y008945
X0141025
Y00887
X0141775
Y00902
X0141025
X0140275
Y009095
Y00917
X0141025
X0141775
Y009095
X0141025
Y009245
X0141775
X0140275
X0139525
X0138775
Y00917
X0139525
Y009095
X0138775
Y00902
X0139525
Y008945
X0138775
Y00887
X0139525
X0140275
Y008945
X0138025
Y00887
Y00902
Y009095
Y00917
Y009245
X013665Y00937
X0140775
Y010125
X0143275Y01027
Y010345
Y01042
X013665Y010115
Y00997
X01321Y01035
X0138Y0113425
Y0114175
X013875
X01395
Y0113425
X013875
X014025
Y0114175
X0141
X014175
Y0113425
X0141
Y0114925
X014175
Y0115675
X0141
Y0116425
X014175
Y0117175
X0141
X014025
Y0116425
Y0115675
X01395
Y0116425
X013875
Y0115675
Y0114925
X01395
X014025
X0138
Y0115675
Y0116425
Y0117175
X013875
X01395
X014075Y0118425
X013665Y01184
X0147Y0116925
Y0116175
X014775
X01485
Y0116925
Y0117675
X014775
Y0116925
X014925
Y0117675
X015
Y0116925
Y0116175
Y0115425
Y0114675
Y0113925
Y0113175
X014925
Y0113925
X01485
Y0113175
X014775
X0147025
X0147Y0113925
Y0114675
Y0115425
X014775
Y0114675
X01485
Y0115425
X014925
Y0114675
Y0116175
X014775Y0113925
X01218Y00966
X0122Y01335
X0123
X0124
X0125
X0126
X0127
X0128
X0129
Y01345
Y01355
X0128
Y01345
X0127
X0126
Y01355
X0125
X0124
X0123
X0122
X0121
X012
Y01345
Y01335
X0121
Y01345
X0122
X0123
X0124
X0125
X0127Y01355
Y01385
X0128
X0129
Y01395
Y01405
X0128
Y01395
X0127
Y01405
X0126
Y01395
Y01385
X0125
X0124
Y01395
X0125
Y01405
X0124
X0123
Y01395
Y01385
X0122
Y01395
Y01405
X0121
X012
Y01395
X0121
Y01385
X012
X0137975Y0130825
Y0130125
X0138Y0129375
X0138Y0128675
Y0127925
Y0127175
X013875
Y0127925
X01395
Y0127175
X014025
Y0127925
Y0128675
X01395
X01395Y0129375
X01388
X013875Y0128675
X0138775Y0130125
X0139475
X0140175
Y0130825
X0139475
X0138775
X01402Y0129375
X0143325Y0129675
X01441
X01448
X01455
Y0130375
X0144775Y0130425
X0144075
Y0131225
X0144775
X01455Y0131175
X014625
X0147
Y0130425
X014625
Y0129675
X0147
X014775
X01485
X014925
Y0128925
Y0128175
Y0127425
Y0126675
X01485
Y0127425
X014775
Y0126675
X0147Y0127425
X014625
X01455
X014475
X0144
X014325
Y0128175
Y0128925
X0144
X014475
Y0128175
X0144
X01455
Y0128925
X014625
X0147
Y0128175
X014625
X014775
X01485
Y0128925
X014775
Y0130425
Y0131175
X01485
Y0130425
X014925
Y0131175
X015
Y0130425
Y0129675
Y0128925
Y0128175
Y0127425
Y0126675
X01487Y0124075
X014875Y0122425
X01495
Y0121675
X014875
X0148
Y0122425
X014725
X01465
Y0123175
X014725
Y0121675
X01465
Y0120925
X014725
X014575
Y0121675
X0145
Y0120925
Y0120175
X014575
X01465
X01486754Y01202701
X014575Y0122425
X0145
Y0123175
X014575
Y0123925
X0145
X01465
X014075Y0125975
X013665Y01259
Y012445
X0143275Y0130425
Y0131225
X0119Y01335
Y01345
Y01355
Y01385
Y01395
Y01405
X0118
Y01395
Y01385
X0117
Y01395
Y01405
X0116
Y01395
Y01385
X011017Y0127835
X01084Y012475
X01085Y0121
Y01195
X011
X01115
X0113
Y0121
X01115
X011
X01065
Y01195
X01045
Y0121
X01025
Y01195
X01005
Y0121
X00985
Y01195
X00965
Y0121
X01023Y01248
X008325Y012625
X00819Y012755
X008115
X00804
Y01283
X008115
Y012905
X00804
X007965
Y01283
Y012755
Y01298
Y013055
Y01313
X00804
Y013055
X008115
Y01313
X00819
Y013055
Y01298
Y012905
Y01283
X008115Y01298
X00804
X008325Y012025
X00749Y01208
X007415
Y012155
Y01223
X00749
Y012155
Y012305
Y01238
X007415
Y012305
X00734
X007265
Y01238
X00734
Y012455
X007415
X00749
X00734Y01223
X007265
Y012155
X00734
Y01208
X00712Y012065
X007115Y01223
X00704
Y012305
X007115
X00719
Y01223
X00712246Y01244549
X00714Y012705
Y01278
X007215
Y012705
X007065
Y01278
Y012855
X00699
Y01278
Y012705
Y01293
Y013005
Y01308
Y013155
X007065
Y01308
X00714
X007215
Y013155
X0072875
X00729Y01308
Y013005
Y01293
Y012855
X007215
X00714
Y01293
Y013005
X007215
Y01293
X007065
Y013005
X00714Y013155
X00729Y01278
X007815Y012755
X00789
Y01283
X007815
Y012905
X00789
Y01298
X007815
Y013055
X00789
Y01313
X007815
X007915Y01263
T02
X010231Y004932
Y005186
Y00544
Y005694
Y005948
Y006202
Y006456
Y00671
Y006964
Y007218
Y007472
Y007726
X011755
Y007472
Y007218
Y006964
Y00671
Y006456
Y006202
Y005948
Y005694
Y00544
Y005186
Y004932
Y00798
Y008234
Y008488
Y008742
Y008996
Y00925
Y009504
Y009758
Y010012
Y010266
Y01052
Y010774
X010231
Y01052
Y010266
Y010012
Y009758
Y009504
Y00925
Y008996
Y008742
Y008488
Y008234
Y00798
T03
X0094Y0115
Y0119913
T04
X014415Y007675
X014865
Y008325
X014415
T05
X00651Y00657
X00651Y00682
X00651Y00707
X00702
X00702Y00682
X00702Y00657
X00753
X00753Y00682
X00753Y00707
T06
X01273Y008472
Y008726
Y00898
Y009234
T07
X01526Y00779
X00673
Y00829
X0067425Y00953
Y01003
X0152525Y009995
Y009495
X01526Y00829
X01525Y0119675
Y0124675
X01525Y01372
Y01422
X00674Y01424
Y01374
X00674Y012505
Y012005
T08
X014Y006
X01389824Y00754787
X0081047Y0075495
X008Y006
X0138953Y0144505
X0081047
X008Y016
X014
T09
X01466Y0067
X01538
M30
