G04*
G04 #@! TF.GenerationSoftware,Altium Limited,Altium Designer,25.4.2 (15)*
G04*
G04 Layer_Color=32768*
%FSLAX44Y44*%
%MOMM*%
G71*
G04*
G04 #@! TF.SameCoordinates,CE8B7503-BC5D-454C-BBEA-07EE3AA0370F*
G04*
G04*
G04 #@! TF.FilePolarity,Positive*
G04*
G01*
G75*
%ADD11C,0.2000*%
%ADD16C,0.1000*%
%ADD83C,0.0500*%
D11*
X1431550Y758800D02*
X1496450D01*
Y841200D01*
X1431550D02*
X1496450D01*
X1431550Y758800D02*
Y841200D01*
X742000Y856000D02*
Y929000D01*
Y856000D02*
X829000D01*
Y929000D01*
X742000D02*
X829000D01*
X705246Y926999D02*
Y1028999D01*
Y926999D02*
X773246D01*
Y1028999D01*
X705246D02*
X773246D01*
X829000Y1023948D02*
Y1088448D01*
X774500D02*
X829000D01*
X774500Y1023948D02*
Y1088448D01*
Y1023948D02*
X829000D01*
X1457500Y1023500D02*
Y1096500D01*
X1370500D02*
X1457500D01*
X1370500Y1023500D02*
Y1096500D01*
Y1023500D02*
X1457500D01*
X1494254Y923501D02*
Y1025501D01*
X1426254D02*
X1494254D01*
X1426254Y923501D02*
Y1025501D01*
Y923501D02*
X1494254D01*
X1370500Y864052D02*
Y928552D01*
Y864052D02*
X1425000D01*
Y928552D01*
X1370500D02*
X1425000D01*
X741750Y1103500D02*
Y1176500D01*
Y1103500D02*
X828750D01*
Y1176500D01*
X741750D02*
X828750D01*
X774250Y1271448D02*
X828750D01*
X774250D02*
Y1335948D01*
X828750D01*
Y1271448D02*
Y1335948D01*
X704996Y1276499D02*
X772996D01*
Y1174499D02*
Y1276499D01*
X704996Y1174499D02*
X772996D01*
X704996D02*
Y1276499D01*
X1457250Y1270750D02*
Y1343750D01*
X1370250D02*
X1457250D01*
X1370250Y1270750D02*
Y1343750D01*
Y1270750D02*
X1457250D01*
X1494004Y1170751D02*
Y1272751D01*
X1426004D02*
X1494004D01*
X1426004Y1170751D02*
Y1272751D01*
Y1170751D02*
X1494004D01*
X1370250Y1111302D02*
Y1175802D01*
Y1111302D02*
X1424750D01*
Y1175802D01*
X1370250D02*
X1424750D01*
X1015200Y1307350D02*
Y1440350D01*
X905200Y1307350D02*
X1015200D01*
X905200D02*
Y1440350D01*
X1015200D01*
X1184200Y1307350D02*
X1294200D01*
Y1440350D01*
X1184200D02*
X1294200D01*
X1184200Y1307350D02*
Y1440350D01*
X1175600Y1408900D02*
Y1438800D01*
X1120800D02*
X1175600D01*
X1120800Y1408900D02*
Y1438800D01*
Y1408900D02*
X1175600D01*
X1246350Y1085750D02*
X1296650D01*
Y1198250D01*
X1246350D02*
X1296650D01*
X1246350Y1085750D02*
Y1198250D01*
D16*
X1496500Y743000D02*
X1505500D01*
X1501000Y738500D02*
Y747500D01*
X560000Y739500D02*
Y748500D01*
X555500Y744000D02*
X564500D01*
X1244000Y1210500D02*
Y1219500D01*
X1239500Y1215000D02*
X1248500D01*
X1065200Y1392850D02*
Y1402850D01*
X1060200Y1397850D02*
X1070200D01*
X936500Y579500D02*
X946500D01*
X941500Y574500D02*
Y584500D01*
X1255000Y579000D02*
X1265000D01*
X1260000Y574000D02*
Y584000D01*
X1270000Y1005000D02*
Y1015000D01*
X1265000Y1010000D02*
X1275000D01*
X1270000Y755000D02*
Y765000D01*
X1265000Y760000D02*
X1275000D01*
X930000Y755000D02*
Y765000D01*
X925000Y760000D02*
X935000D01*
X930000Y1005000D02*
Y1015000D01*
X925000Y1010000D02*
X935000D01*
X1488000Y1466000D02*
Y1476000D01*
X1483000Y1471000D02*
X1493000D01*
X1143700Y1380350D02*
X1152700D01*
X1148200Y1375850D02*
Y1384850D01*
X1036500Y1323000D02*
Y1332000D01*
X1032000Y1327500D02*
X1041000D01*
X1172200Y1282850D02*
Y1291850D01*
X1167700Y1287350D02*
X1176700D01*
X1240000Y1287500D02*
X1249000D01*
X1244500Y1283000D02*
Y1292000D01*
X1313500Y1094500D02*
X1322500D01*
X1318000Y1090000D02*
Y1099000D01*
X614500Y1298000D02*
X623500D01*
X619000Y1293500D02*
Y1302500D01*
X749500Y1330500D02*
X758500D01*
X754000Y1326000D02*
Y1335000D01*
X794750Y1218000D02*
X803750D01*
X799250Y1213500D02*
Y1222500D01*
X794750Y1233000D02*
X803750D01*
X799250Y1228500D02*
Y1237500D01*
X794500Y1248000D02*
X803500D01*
X799000Y1243500D02*
Y1252500D01*
X794500Y1203000D02*
X803500D01*
X799000Y1198500D02*
Y1207500D01*
X794500Y1188000D02*
X803500D01*
X799000Y1183500D02*
Y1192500D01*
X794500Y1263000D02*
X803500D01*
X799000Y1258500D02*
Y1267500D01*
X1395500Y1184250D02*
X1404500D01*
X1400000Y1179750D02*
Y1188750D01*
X794750Y1015500D02*
X803750D01*
X799250Y1011000D02*
Y1020000D01*
X1395750Y937000D02*
X1404750D01*
X1400250Y932500D02*
Y941500D01*
X1395500Y1259250D02*
X1404500D01*
X1400000Y1254750D02*
Y1263750D01*
X794750Y940500D02*
X803750D01*
X799250Y936000D02*
Y945000D01*
X1395750Y1012000D02*
X1404750D01*
X1400250Y1007500D02*
Y1016500D01*
X1395500Y1244250D02*
X1404500D01*
X1400000Y1239750D02*
Y1248750D01*
X794750Y955500D02*
X803750D01*
X799250Y951000D02*
Y960000D01*
X1395750Y997000D02*
X1404750D01*
X1400250Y992500D02*
Y1001500D01*
X1395500Y1199250D02*
X1404500D01*
X1400000Y1194750D02*
Y1203750D01*
X794750Y1000500D02*
X803750D01*
X799250Y996000D02*
Y1005000D01*
X1395750Y952000D02*
X1404750D01*
X1400250Y947500D02*
Y956500D01*
X1395250Y1214250D02*
X1404250D01*
X1399750Y1209750D02*
Y1218750D01*
X795000Y985500D02*
X804000D01*
X799500Y981000D02*
Y990000D01*
X1395500Y967000D02*
X1404500D01*
X1400000Y962500D02*
Y971500D01*
X1395250Y1229250D02*
X1404250D01*
X1399750Y1224750D02*
Y1233750D01*
X795000Y970500D02*
X804000D01*
X799500Y966000D02*
Y975000D01*
X1395500Y982000D02*
X1404500D01*
X1400000Y977500D02*
Y986500D01*
X1440500Y1116750D02*
X1449500D01*
X1445000Y1112250D02*
Y1121250D01*
X749750Y1083000D02*
X758750D01*
X754250Y1078500D02*
Y1087500D01*
X1440750Y869500D02*
X1449750D01*
X1445250Y865000D02*
Y874000D01*
X1575500Y1149250D02*
X1584500D01*
X1580000Y1144750D02*
Y1153750D01*
X614750Y1050500D02*
X623750D01*
X619250Y1046000D02*
Y1055000D01*
X1575750Y902000D02*
X1584750D01*
X1580250Y897500D02*
Y906500D01*
X614489Y1165413D02*
X623489D01*
X618989Y1160913D02*
Y1169913D01*
X614511Y1283087D02*
X623511D01*
X619011Y1278587D02*
Y1287587D01*
X1575489Y1164163D02*
X1584489D01*
X1579989Y1159663D02*
Y1168663D01*
X614761Y1035587D02*
X623761D01*
X619261Y1031087D02*
Y1040087D01*
X1575739Y916913D02*
X1584739D01*
X1580239Y912413D02*
Y921413D01*
X1575511Y1281837D02*
X1584511D01*
X1580011Y1277337D02*
Y1286337D01*
X614739Y917913D02*
X623739D01*
X619239Y913413D02*
Y922413D01*
X1575761Y1034587D02*
X1584761D01*
X1580261Y1030087D02*
Y1039087D01*
X595511Y744087D02*
X604511D01*
X600011Y739587D02*
Y748587D01*
X1167700Y1255350D02*
X1176700D01*
X1172200Y1250850D02*
Y1259850D01*
X817250Y1225500D02*
X826250D01*
X821750Y1221000D02*
Y1230000D01*
X736500Y1311000D02*
Y1320000D01*
X732000Y1315500D02*
X741000D01*
X1372750Y1221750D02*
X1381750D01*
X1377250Y1217250D02*
Y1226250D01*
X817500Y978000D02*
X826500D01*
X822000Y973500D02*
Y982500D01*
X1373000Y974500D02*
X1382000D01*
X1377500Y970000D02*
Y979000D01*
X1462500Y1127250D02*
Y1136250D01*
X1458000Y1131750D02*
X1467000D01*
X736750Y1063500D02*
Y1072500D01*
X732250Y1068000D02*
X741250D01*
X1462750Y880000D02*
Y889000D01*
X1458250Y884500D02*
X1467250D01*
X756750Y1053000D02*
X766750D01*
X761750Y1048000D02*
Y1058000D01*
X1432750Y899500D02*
X1442750D01*
X1437750Y894500D02*
Y904500D01*
X761500Y1295500D02*
Y1305500D01*
X756500Y1300500D02*
X766500D01*
X1432500Y1146750D02*
X1442500D01*
X1437500Y1141750D02*
Y1151750D01*
X1101200Y1211350D02*
Y1221350D01*
X1096200Y1216350D02*
X1106200D01*
X1080000Y1325000D02*
Y1335000D01*
X1075000Y1330000D02*
X1085000D01*
X1142500Y1325000D02*
Y1335000D01*
X1137500Y1330000D02*
X1147500D01*
D83*
X1003500Y1175000D02*
G03*
X1003500Y1175000I-63500J0D01*
G01*
X1486500Y736000D02*
Y750000D01*
X1515500Y736000D02*
Y750000D01*
X1486500D02*
X1515500D01*
X1486500Y736000D02*
X1515500D01*
X1007900Y478000D02*
Y1092600D01*
X1190700D01*
Y478000D02*
Y1092600D01*
X1142100Y471000D02*
Y478000D01*
X1056500Y471000D02*
Y478000D01*
Y471000D02*
X1142100D01*
Y478000D02*
X1190700D01*
X1007900D02*
X1056500D01*
X542000Y1468000D02*
X692110D01*
X542000Y1330000D02*
Y1468000D01*
Y1330000D02*
X692110D01*
Y1468000D01*
X628500Y621500D02*
X673500D01*
Y742500D01*
X628500D02*
X673500D01*
X628500Y621500D02*
Y742500D01*
X1507890Y735000D02*
X1658000D01*
Y873000D01*
X1507890D02*
X1658000D01*
X1507890Y735000D02*
Y873000D01*
X1506890Y1328000D02*
Y1466000D01*
X1657000D01*
Y1328000D02*
Y1466000D01*
X1506890Y1328000D02*
X1657000D01*
X692110Y1156500D02*
Y1294500D01*
X542000Y1156500D02*
X692110D01*
X542000D02*
Y1294500D01*
X692110D01*
X1506890Y1152750D02*
X1657000D01*
Y1290750D01*
X1506890D02*
X1657000D01*
X1506890Y1152750D02*
Y1290750D01*
X692360Y909000D02*
Y1047000D01*
X542250Y909000D02*
X692360D01*
X542250D02*
Y1047000D01*
X692360D01*
X1507140Y905500D02*
X1657250D01*
Y1043500D01*
X1507140D02*
X1657250D01*
X1507140Y905500D02*
Y1043500D01*
X691110Y735000D02*
Y873000D01*
X541000Y735000D02*
X691110D01*
X541000D02*
Y873000D01*
X691110D01*
X679500Y621500D02*
X724500D01*
Y742500D01*
X679500D02*
X724500D01*
X679500Y621500D02*
Y742500D01*
X730500Y621500D02*
X775500D01*
Y742500D01*
X730500D02*
X775500D01*
X730500Y621500D02*
Y742500D01*
X545500Y751000D02*
X574500D01*
X545500Y737000D02*
X574500D01*
X545500D02*
Y751000D01*
X574500Y737000D02*
Y751000D01*
X1229500Y1222000D02*
X1258500D01*
X1229500Y1208000D02*
X1258500D01*
X1229500D02*
Y1222000D01*
X1258500Y1208000D02*
Y1222000D01*
X1016950Y1355350D02*
X1113450D01*
X1016950Y1440350D02*
X1113450D01*
Y1355350D02*
Y1440350D01*
X1016950Y1355350D02*
Y1440350D01*
X889000Y543250D02*
Y615750D01*
X994000Y543250D02*
Y615750D01*
X889000Y543250D02*
X994000D01*
X889000Y615750D02*
X994000D01*
X1312500Y542750D02*
Y615250D01*
X1207500Y542750D02*
Y615250D01*
X1312500D01*
X1207500Y542750D02*
X1312500D01*
X1210750Y952000D02*
X1329250D01*
X1210750Y1068000D02*
X1329250D01*
Y952000D02*
Y1068000D01*
X1210750Y952000D02*
Y1068000D01*
Y702000D02*
X1329250D01*
X1210750Y818000D02*
X1329250D01*
Y702000D02*
Y818000D01*
X1210750Y702000D02*
Y818000D01*
X870750D02*
X989250D01*
X870750Y702000D02*
X989250D01*
X870750D02*
Y818000D01*
X989250Y702000D02*
Y818000D01*
X870750Y1068000D02*
X989250D01*
X870750Y952000D02*
X989250D01*
X870750D02*
Y1068000D01*
X989250Y952000D02*
Y1068000D01*
X1487525Y1351250D02*
Y1447750D01*
X1423475Y1351250D02*
X1487525D01*
X1423475D02*
Y1447750D01*
X1487525D01*
X1457750Y1487500D02*
X1518250D01*
X1457750Y1454500D02*
X1518250D01*
X1457750D02*
Y1487500D01*
X1518250Y1454500D02*
Y1487500D01*
X1133700Y1373350D02*
Y1387350D01*
X1162700Y1373350D02*
Y1387350D01*
X1133700D02*
X1162700D01*
X1133700Y1373350D02*
X1162700D01*
X1029500Y1313000D02*
X1043500D01*
X1029500Y1342000D02*
X1043500D01*
X1029500Y1313000D02*
Y1342000D01*
X1043500Y1313000D02*
Y1342000D01*
X1165200Y1272850D02*
X1179200D01*
X1165200Y1301850D02*
X1179200D01*
X1165200Y1272850D02*
Y1301850D01*
X1179200Y1272850D02*
Y1301850D01*
X1230000Y1280500D02*
Y1294500D01*
X1259000Y1280500D02*
Y1294500D01*
X1230000D02*
X1259000D01*
X1230000Y1280500D02*
X1259000D01*
X1332500Y1087500D02*
Y1101500D01*
X1303500Y1087500D02*
Y1101500D01*
Y1087500D02*
X1332500D01*
X1303500Y1101500D02*
X1332500D01*
X604500Y1291000D02*
Y1305000D01*
X633500Y1291000D02*
Y1305000D01*
X604500D02*
X633500D01*
X604500Y1291000D02*
X633500D01*
X739500Y1323500D02*
Y1337500D01*
X768500Y1323500D02*
Y1337500D01*
X739500D02*
X768500D01*
X739500Y1323500D02*
X768500D01*
X813750Y1211000D02*
Y1225000D01*
X784750Y1211000D02*
Y1225000D01*
Y1211000D02*
X813750D01*
X784750Y1225000D02*
X813750D01*
Y1226000D02*
Y1240000D01*
X784750Y1226000D02*
Y1240000D01*
Y1226000D02*
X813750D01*
X784750Y1240000D02*
X813750D01*
X813500Y1241000D02*
Y1255000D01*
X784500Y1241000D02*
Y1255000D01*
Y1241000D02*
X813500D01*
X784500Y1255000D02*
X813500D01*
Y1196000D02*
Y1210000D01*
X784500Y1196000D02*
Y1210000D01*
Y1196000D02*
X813500D01*
X784500Y1210000D02*
X813500D01*
X813500Y1181000D02*
Y1195000D01*
X784500Y1181000D02*
Y1195000D01*
Y1181000D02*
X813500D01*
X784500Y1195000D02*
X813500D01*
Y1256000D02*
Y1270000D01*
X784500Y1256000D02*
Y1270000D01*
Y1256000D02*
X813500D01*
X784500Y1270000D02*
X813500D01*
X1385500Y1177250D02*
Y1191250D01*
X1414500Y1177250D02*
Y1191250D01*
X1385500D02*
X1414500D01*
X1385500Y1177250D02*
X1414500D01*
X813750Y1008500D02*
Y1022500D01*
X784750Y1008500D02*
Y1022500D01*
Y1008500D02*
X813750D01*
X784750Y1022500D02*
X813750D01*
X1385750Y930000D02*
Y944000D01*
X1414750Y930000D02*
Y944000D01*
X1385750D02*
X1414750D01*
X1385750Y930000D02*
X1414750D01*
X1385500Y1252250D02*
Y1266250D01*
X1414500Y1252250D02*
Y1266250D01*
X1385500D02*
X1414500D01*
X1385500Y1252250D02*
X1414500D01*
X813750Y933500D02*
Y947500D01*
X784750Y933500D02*
Y947500D01*
Y933500D02*
X813750D01*
X784750Y947500D02*
X813750D01*
X1385750Y1005000D02*
Y1019000D01*
X1414750Y1005000D02*
Y1019000D01*
X1385750D02*
X1414750D01*
X1385750Y1005000D02*
X1414750D01*
X1385500Y1237250D02*
Y1251250D01*
X1414500Y1237250D02*
Y1251250D01*
X1385500D02*
X1414500D01*
X1385500Y1237250D02*
X1414500D01*
X813750Y948500D02*
Y962500D01*
X784750Y948500D02*
Y962500D01*
Y948500D02*
X813750D01*
X784750Y962500D02*
X813750D01*
X1385750Y990000D02*
Y1004000D01*
X1414750Y990000D02*
Y1004000D01*
X1385750D02*
X1414750D01*
X1385750Y990000D02*
X1414750D01*
X1385500Y1192250D02*
Y1206250D01*
X1414500Y1192250D02*
Y1206250D01*
X1385500D02*
X1414500D01*
X1385500Y1192250D02*
X1414500D01*
X813750Y993500D02*
Y1007500D01*
X784750Y993500D02*
Y1007500D01*
Y993500D02*
X813750D01*
X784750Y1007500D02*
X813750D01*
X1385750Y945000D02*
Y959000D01*
X1414750Y945000D02*
Y959000D01*
X1385750D02*
X1414750D01*
X1385750Y945000D02*
X1414750D01*
X1385250Y1207250D02*
Y1221250D01*
X1414250Y1207250D02*
Y1221250D01*
X1385250D02*
X1414250D01*
X1385250Y1207250D02*
X1414250D01*
X814000Y978500D02*
Y992500D01*
X785000Y978500D02*
Y992500D01*
Y978500D02*
X814000D01*
X785000Y992500D02*
X814000D01*
X1385500Y960000D02*
Y974000D01*
X1414500Y960000D02*
Y974000D01*
X1385500D02*
X1414500D01*
X1385500Y960000D02*
X1414500D01*
X1385250Y1222250D02*
Y1236250D01*
X1414250Y1222250D02*
Y1236250D01*
X1385250D02*
X1414250D01*
X1385250Y1222250D02*
X1414250D01*
X814000Y963500D02*
Y977500D01*
X785000Y963500D02*
Y977500D01*
Y963500D02*
X814000D01*
X785000Y977500D02*
X814000D01*
X1385500Y975000D02*
Y989000D01*
X1414500Y975000D02*
Y989000D01*
X1385500D02*
X1414500D01*
X1385500Y975000D02*
X1414500D01*
X1459500Y1109750D02*
Y1123750D01*
X1430500Y1109750D02*
Y1123750D01*
Y1109750D02*
X1459500D01*
X1430500Y1123750D02*
X1459500D01*
X739750Y1076000D02*
Y1090000D01*
X768750Y1076000D02*
Y1090000D01*
X739750D02*
X768750D01*
X739750Y1076000D02*
X768750D01*
X1459750Y862500D02*
Y876500D01*
X1430750Y862500D02*
Y876500D01*
Y862500D02*
X1459750D01*
X1430750Y876500D02*
X1459750D01*
X1594500Y1142250D02*
Y1156250D01*
X1565500Y1142250D02*
Y1156250D01*
Y1142250D02*
X1594500D01*
X1565500Y1156250D02*
X1594500D01*
X604750Y1043500D02*
Y1057500D01*
X633750Y1043500D02*
Y1057500D01*
X604750D02*
X633750D01*
X604750Y1043500D02*
X633750D01*
X1594750Y895000D02*
Y909000D01*
X1565750Y895000D02*
Y909000D01*
Y895000D02*
X1594750D01*
X1565750Y909000D02*
X1594750D01*
X604489Y1158413D02*
Y1172413D01*
X633489Y1158413D02*
Y1172413D01*
X604489D02*
X633489D01*
X604489Y1158413D02*
X633489D01*
X633511Y1276087D02*
Y1290087D01*
X604511Y1276087D02*
Y1290087D01*
Y1276087D02*
X633511D01*
X604511Y1290087D02*
X633511D01*
X1565489Y1157163D02*
Y1171163D01*
X1594489Y1157163D02*
Y1171163D01*
X1565489D02*
X1594489D01*
X1565489Y1157163D02*
X1594489D01*
X633761Y1028587D02*
Y1042587D01*
X604761Y1028587D02*
Y1042587D01*
Y1028587D02*
X633761D01*
X604761Y1042587D02*
X633761D01*
X1565739Y909913D02*
Y923913D01*
X1594739Y909913D02*
Y923913D01*
X1565739D02*
X1594739D01*
X1565739Y909913D02*
X1594739D01*
X1594511Y1274837D02*
Y1288837D01*
X1565511Y1274837D02*
Y1288837D01*
Y1274837D02*
X1594511D01*
X1565511Y1288837D02*
X1594511D01*
X604739Y910913D02*
Y924913D01*
X633739Y910913D02*
Y924913D01*
X604739D02*
X633739D01*
X604739Y910913D02*
X633739D01*
X1594761Y1027587D02*
Y1041587D01*
X1565761Y1027587D02*
Y1041587D01*
Y1027587D02*
X1594761D01*
X1565761Y1041587D02*
X1594761D01*
X614511Y737087D02*
Y751087D01*
X585511Y737087D02*
Y751087D01*
Y737087D02*
X614511D01*
X585511Y751087D02*
X614511D01*
X1179700Y1240350D02*
Y1270350D01*
X1164700Y1240350D02*
Y1270350D01*
X1179700D01*
X1164700Y1240350D02*
X1179700D01*
X829250Y1210500D02*
Y1240500D01*
X814250Y1210500D02*
Y1240500D01*
X829250D01*
X814250Y1210500D02*
X829250D01*
X721500Y1323000D02*
X751500D01*
X721500Y1308000D02*
X751500D01*
X721500D02*
Y1323000D01*
X751500Y1308000D02*
Y1323000D01*
X1369750Y1206750D02*
Y1236750D01*
X1384750Y1206750D02*
Y1236750D01*
X1369750Y1206750D02*
X1384750D01*
X1369750Y1236750D02*
X1384750D01*
X829500Y963000D02*
Y993000D01*
X814500Y963000D02*
Y993000D01*
X829500D01*
X814500Y963000D02*
X829500D01*
X1370000Y959500D02*
Y989500D01*
X1385000Y959500D02*
Y989500D01*
X1370000Y959500D02*
X1385000D01*
X1370000Y989500D02*
X1385000D01*
X1447500Y1124250D02*
X1477500D01*
X1447500Y1139250D02*
X1477500D01*
Y1124250D02*
Y1139250D01*
X1447500Y1124250D02*
Y1139250D01*
X721750Y1075500D02*
X751750D01*
X721750Y1060500D02*
X751750D01*
X721750D02*
Y1075500D01*
X751750Y1060500D02*
Y1075500D01*
X1447750Y877000D02*
X1477750D01*
X1447750Y892000D02*
X1477750D01*
Y877000D02*
Y892000D01*
X1447750Y877000D02*
Y892000D01*
X1422000Y627000D02*
X1582000D01*
X1422000D02*
Y713000D01*
X1582000D01*
Y627000D02*
Y713000D01*
X770750Y1031100D02*
Y1074900D01*
X752750Y1031100D02*
X770750D01*
X752750Y1074900D02*
X770750D01*
X752750Y1031100D02*
Y1074900D01*
X1428750Y877600D02*
Y921400D01*
X1446750D01*
X1428750Y877600D02*
X1446750D01*
Y921400D01*
X752500Y1278600D02*
Y1322400D01*
X770500D01*
X752500Y1278600D02*
X770500D01*
Y1322400D01*
X1428500Y1124850D02*
Y1168650D01*
X1446500D01*
X1428500Y1124850D02*
X1446500D01*
Y1168650D01*
X1045450Y1301850D02*
X1156950D01*
X1045450Y1130850D02*
X1156950D01*
Y1301850D01*
X1045450Y1130850D02*
Y1301850D01*
X1057000Y1311000D02*
Y1349000D01*
X1105000D01*
Y1311000D02*
Y1349000D01*
X1057000Y1311000D02*
X1105000D01*
X1119500D02*
Y1349000D01*
X1167500D01*
Y1311000D02*
Y1349000D01*
X1119500Y1311000D02*
X1167500D01*
M02*
