G04*
G04 #@! TF.GenerationSoftware,Altium Limited,Altium Designer,25.4.2 (15)*
G04*
G04 Layer_Color=8388736*
%FSLAX44Y44*%
%MOMM*%
G71*
G04*
G04 #@! TF.SameCoordinates,CE8B7503-BC5D-454C-BBEA-07EE3AA0370F*
G04*
G04*
G04 #@! TF.FilePolarity,Positive*
G04*
G01*
G75*
%ADD77C,0.4500*%
D77*
X980500Y1090000D02*
D03*
X993000Y1072000D02*
D03*
X832500Y1015000D02*
D03*
X1239500Y1095000D02*
D03*
X897500Y1010000D02*
D03*
X929500Y918500D02*
D03*
X699000Y887500D02*
D03*
X1354500Y1095500D02*
D03*
X845000Y1071500D02*
D03*
X832500Y1187500D02*
D03*
X1101700Y1278350D02*
D03*
X832500Y1202500D02*
D03*
X819250Y1146000D02*
D03*
X819000Y1168000D02*
D03*
X819000Y1153500D02*
D03*
X819000Y1160500D02*
D03*
X819250Y1028000D02*
D03*
X811750D02*
D03*
X832500Y940000D02*
D03*
X1366500Y937000D02*
D03*
X1380250Y909500D02*
D03*
Y887000D02*
D03*
Y902000D02*
D03*
Y894500D02*
D03*
Y917000D02*
D03*
Y924500D02*
D03*
X1366500Y1011500D02*
D03*
Y1244500D02*
D03*
X1387750Y1308250D02*
D03*
X1379750Y1301250D02*
D03*
Y1308250D02*
D03*
X1366500Y997000D02*
D03*
Y1259000D02*
D03*
Y1184000D02*
D03*
X1395000Y1271750D02*
D03*
X1387500D02*
D03*
X1380000D02*
D03*
X1402500D02*
D03*
X832500Y1262500D02*
D03*
Y955000D02*
D03*
X699250Y1068000D02*
D03*
Y1045500D02*
D03*
Y1060500D02*
D03*
Y1053000D02*
D03*
Y895500D02*
D03*
Y903000D02*
D03*
Y933000D02*
D03*
Y910500D02*
D03*
Y918000D02*
D03*
Y925500D02*
D03*
X704250Y983000D02*
D03*
X699250Y1038000D02*
D03*
X704250Y975500D02*
D03*
X1492500Y1154250D02*
D03*
X1485000Y1146750D02*
D03*
X1477500Y1139250D02*
D03*
X1492500Y1146750D02*
D03*
Y1131750D02*
D03*
Y1139250D02*
D03*
X1485000Y1154250D02*
D03*
Y1139250D02*
D03*
X1500000Y1146750D02*
D03*
X1410000Y1134250D02*
D03*
X1417500D02*
D03*
Y1141750D02*
D03*
X1387500Y1134250D02*
D03*
X1380000Y1171750D02*
D03*
Y1141750D02*
D03*
Y1134250D02*
D03*
X1485000Y1161750D02*
D03*
X1500000D02*
D03*
Y1169250D02*
D03*
Y1176750D02*
D03*
X1492500Y1169250D02*
D03*
Y1161750D02*
D03*
X1477500Y1169250D02*
D03*
Y1146750D02*
D03*
X1470000Y1161750D02*
D03*
X1477500Y1154250D02*
D03*
X1470000Y1169250D02*
D03*
Y1146750D02*
D03*
X1477500Y1176750D02*
D03*
X1470000Y1154250D02*
D03*
X1477500Y1161750D02*
D03*
X1500000Y1289250D02*
D03*
Y1296750D02*
D03*
X1485000Y1304250D02*
D03*
Y1289250D02*
D03*
X1500000Y1311750D02*
D03*
X1492500Y1304250D02*
D03*
X1485000Y1311750D02*
D03*
X1492500D02*
D03*
X1485000Y1296750D02*
D03*
X1492500D02*
D03*
X1500000Y1304250D02*
D03*
X1492500Y1289250D02*
D03*
X1462500Y1281750D02*
D03*
X1470000D02*
D03*
Y1289250D02*
D03*
X1477500Y1274250D02*
D03*
Y1289250D02*
D03*
Y1281750D02*
D03*
X1462500Y1274250D02*
D03*
X1477500Y1266750D02*
D03*
X1462500Y1289250D02*
D03*
X1470000Y1274250D02*
D03*
X1462500Y1304250D02*
D03*
X1470000Y1311750D02*
D03*
X1477500Y1296750D02*
D03*
Y1311750D02*
D03*
Y1304250D02*
D03*
X1462500Y1311750D02*
D03*
X1470000Y1296750D02*
D03*
Y1304250D02*
D03*
X1462500Y1296750D02*
D03*
X1485000Y1281750D02*
D03*
X1500000D02*
D03*
X721500Y1270500D02*
D03*
X714000Y1278000D02*
D03*
X729000D02*
D03*
Y1293000D02*
D03*
X714000D02*
D03*
X721500D02*
D03*
X706500D02*
D03*
X714000Y1300500D02*
D03*
X706500D02*
D03*
X721500D02*
D03*
X729000D02*
D03*
X721500Y1285500D02*
D03*
X729000D02*
D03*
X721500Y1278000D02*
D03*
X714000Y1285500D02*
D03*
X699000D02*
D03*
Y1293000D02*
D03*
Y1315500D02*
D03*
Y1270500D02*
D03*
Y1278000D02*
D03*
Y1300500D02*
D03*
Y1308000D02*
D03*
Y1173000D02*
D03*
Y1180500D02*
D03*
X704000Y1223000D02*
D03*
Y1230500D02*
D03*
X699000Y1158000D02*
D03*
Y1165500D02*
D03*
Y1150500D02*
D03*
Y1135500D02*
D03*
Y1143000D02*
D03*
X766250Y1135000D02*
D03*
X751250D02*
D03*
X819250Y1139000D02*
D03*
X758250Y1135000D02*
D03*
X1450000Y1201750D02*
D03*
X1472500Y1209250D02*
D03*
X1457500Y1201750D02*
D03*
X1465000D02*
D03*
Y1209250D02*
D03*
X1457500D02*
D03*
X1450000D02*
D03*
X1417500Y1164250D02*
D03*
X1450000Y1231750D02*
D03*
X1457500D02*
D03*
X1465000D02*
D03*
X1450000Y1239250D02*
D03*
X1465000D02*
D03*
X1472500Y1231750D02*
D03*
X1457500Y1239250D02*
D03*
X1450000Y1216750D02*
D03*
X1472500D02*
D03*
X1450000Y1224250D02*
D03*
X1457500Y1216750D02*
D03*
X1465000D02*
D03*
X1457500Y1224250D02*
D03*
X1465000D02*
D03*
X1472500D02*
D03*
X1417500Y1171750D02*
D03*
X1410000D02*
D03*
X1500000Y1139250D02*
D03*
Y1131750D02*
D03*
X1485000D02*
D03*
X1500000Y1154250D02*
D03*
X741500Y1245500D02*
D03*
X749000D02*
D03*
X811500Y1168000D02*
D03*
X819000Y1175500D02*
D03*
X811500D02*
D03*
X804000D02*
D03*
X804000Y1153500D02*
D03*
X811000D02*
D03*
X804250Y1139000D02*
D03*
X811250D02*
D03*
Y1146000D02*
D03*
X811500Y1160500D02*
D03*
X804000D02*
D03*
Y1168000D02*
D03*
X804250Y1146000D02*
D03*
X729000Y1308000D02*
D03*
X714000Y1315500D02*
D03*
X706500D02*
D03*
X728750D02*
D03*
X721500Y1308000D02*
D03*
Y1315500D02*
D03*
X804000Y1290500D02*
D03*
Y1313000D02*
D03*
X819000Y1298000D02*
D03*
X811500Y1313000D02*
D03*
Y1305500D02*
D03*
X819000Y1313000D02*
D03*
Y1305500D02*
D03*
X804000D02*
D03*
Y1298000D02*
D03*
X811500D02*
D03*
Y1290500D02*
D03*
X819000D02*
D03*
X791500Y1263000D02*
D03*
X781500Y1313000D02*
D03*
X789000D02*
D03*
X796500Y1290500D02*
D03*
X789000D02*
D03*
Y1283000D02*
D03*
X796500D02*
D03*
X781500Y1305500D02*
D03*
Y1298000D02*
D03*
Y1290500D02*
D03*
Y1283000D02*
D03*
Y1275500D02*
D03*
X789000D02*
D03*
X796500Y1313000D02*
D03*
Y1275500D02*
D03*
X811500Y1283000D02*
D03*
X819000D02*
D03*
X804000D02*
D03*
Y1275500D02*
D03*
X811500D02*
D03*
X819000D02*
D03*
X796500Y1305500D02*
D03*
Y1298000D02*
D03*
X789000Y1305500D02*
D03*
Y1298000D02*
D03*
X706500Y1270500D02*
D03*
Y1308000D02*
D03*
X714000D02*
D03*
X706500Y1285500D02*
D03*
Y1278000D02*
D03*
X714000Y1270500D02*
D03*
X744000Y1165500D02*
D03*
X751500D02*
D03*
X759000Y1173000D02*
D03*
X751500Y1158000D02*
D03*
X759000Y1165500D02*
D03*
X751500Y1173000D02*
D03*
X736500D02*
D03*
X744000D02*
D03*
X736500Y1165500D02*
D03*
X766500D02*
D03*
Y1173000D02*
D03*
Y1158000D02*
D03*
X734000Y1238000D02*
D03*
Y1208000D02*
D03*
Y1215500D02*
D03*
Y1223000D02*
D03*
Y1230500D02*
D03*
Y1245500D02*
D03*
X791500Y1187500D02*
D03*
X796500Y1168000D02*
D03*
Y1175500D02*
D03*
X797000Y1153500D02*
D03*
X797250Y1146000D02*
D03*
X796500Y1160500D02*
D03*
X797250Y1139000D02*
D03*
X744000Y1135500D02*
D03*
X736500D02*
D03*
X729000D02*
D03*
Y1143000D02*
D03*
Y1150500D02*
D03*
X736500Y1143000D02*
D03*
X744000Y1150500D02*
D03*
X729000Y1158000D02*
D03*
X736500Y1150500D02*
D03*
X744000Y1158000D02*
D03*
X736500D02*
D03*
X744000Y1143500D02*
D03*
X751250Y1143000D02*
D03*
X766250D02*
D03*
X759000Y1158000D02*
D03*
X765750Y1150500D02*
D03*
X758000D02*
D03*
X751000D02*
D03*
X758250Y1143000D02*
D03*
X719000Y1230500D02*
D03*
X726500Y1215500D02*
D03*
Y1223000D02*
D03*
Y1230500D02*
D03*
X712246Y1244549D02*
D03*
X712000Y1206500D02*
D03*
X711500Y1230500D02*
D03*
Y1223000D02*
D03*
X719000D02*
D03*
X726500Y1238000D02*
D03*
X749000Y1208000D02*
D03*
Y1230500D02*
D03*
X741500Y1208000D02*
D03*
Y1215500D02*
D03*
X749000D02*
D03*
Y1223000D02*
D03*
X741500D02*
D03*
Y1230500D02*
D03*
X749000Y1238000D02*
D03*
X741500D02*
D03*
X1477750Y1064500D02*
D03*
Y1049500D02*
D03*
Y1057000D02*
D03*
X1455250Y1042000D02*
D03*
Y1034500D02*
D03*
Y1027000D02*
D03*
X1417750Y924500D02*
D03*
X1410250D02*
D03*
X1407750Y937000D02*
D03*
X1402750Y924500D02*
D03*
X1395250D02*
D03*
X1500250Y892000D02*
D03*
X1492750Y899500D02*
D03*
X1500250D02*
D03*
Y884500D02*
D03*
X1492750Y892000D02*
D03*
Y884500D02*
D03*
X1470250Y899500D02*
D03*
X1470500Y884500D02*
D03*
X1470250Y892000D02*
D03*
Y914500D02*
D03*
X1477750Y922000D02*
D03*
Y907000D02*
D03*
X1470250Y922000D02*
D03*
X1477750Y914500D02*
D03*
X1470250Y907000D02*
D03*
X1477750Y884500D02*
D03*
X1485250D02*
D03*
Y892000D02*
D03*
X1477750D02*
D03*
Y899500D02*
D03*
X1485250D02*
D03*
Y907000D02*
D03*
Y914500D02*
D03*
Y922000D02*
D03*
X1500250Y914500D02*
D03*
X1492750D02*
D03*
X1500250Y907000D02*
D03*
X1492750D02*
D03*
X1500250Y922000D02*
D03*
X1492750D02*
D03*
X721500Y1158000D02*
D03*
X706500Y1150500D02*
D03*
X714000Y1135500D02*
D03*
X721500D02*
D03*
X714000Y1143000D02*
D03*
X721500D02*
D03*
X714000Y1150500D02*
D03*
X721500D02*
D03*
X714000Y1158000D02*
D03*
X706500Y1135500D02*
D03*
Y1143000D02*
D03*
Y1158000D02*
D03*
X714000Y1173000D02*
D03*
X706500Y1165500D02*
D03*
Y1173000D02*
D03*
X721500Y1180500D02*
D03*
Y1165500D02*
D03*
X729000D02*
D03*
X721500Y1173000D02*
D03*
X729000D02*
D03*
X714000Y1180500D02*
D03*
X706500D02*
D03*
X714000Y1165500D02*
D03*
X1025000Y1195000D02*
D03*
X1045000D02*
D03*
X1065000D02*
D03*
X1085000D02*
D03*
X1065000Y1180000D02*
D03*
X1045000D02*
D03*
X1025000D02*
D03*
X1005000D02*
D03*
X985000D02*
D03*
X965000D02*
D03*
Y1165000D02*
D03*
X985000D02*
D03*
X1005000D02*
D03*
Y1150000D02*
D03*
X1025000Y1165000D02*
D03*
Y1150000D02*
D03*
X1045000Y1165000D02*
D03*
Y1150000D02*
D03*
X1065000Y1165000D02*
D03*
X1085000D02*
D03*
Y1150000D02*
D03*
X1065000D02*
D03*
X1100000Y1210000D02*
D03*
X1115000D02*
D03*
X1130000D02*
D03*
Y1195000D02*
D03*
X1115000D02*
D03*
X1100000D02*
D03*
X1270000Y1355000D02*
D03*
X1280000D02*
D03*
X1290000Y1345000D02*
D03*
X1280000D02*
D03*
X1270000D02*
D03*
X1260000D02*
D03*
X1250000D02*
D03*
X1240000D02*
D03*
X1230000D02*
D03*
X1220000D02*
D03*
X1210000D02*
D03*
X1200000D02*
D03*
X1190000D02*
D03*
Y1335000D02*
D03*
X1200000D02*
D03*
X1210000D02*
D03*
X1220000D02*
D03*
X1230000D02*
D03*
X1240000D02*
D03*
X1250000D02*
D03*
X1260000D02*
D03*
X1270000D02*
D03*
X1280000D02*
D03*
X1290000D02*
D03*
X1200000Y1385000D02*
D03*
X1210000D02*
D03*
Y1395000D02*
D03*
Y1405000D02*
D03*
X1220000D02*
D03*
Y1395000D02*
D03*
Y1385000D02*
D03*
X1230000D02*
D03*
Y1395000D02*
D03*
Y1405000D02*
D03*
X1240000D02*
D03*
Y1395000D02*
D03*
Y1385000D02*
D03*
X1250000D02*
D03*
Y1395000D02*
D03*
Y1405000D02*
D03*
X1260000D02*
D03*
Y1395000D02*
D03*
Y1385000D02*
D03*
X1270000Y1405000D02*
D03*
Y1395000D02*
D03*
Y1385000D02*
D03*
X1280000Y1405000D02*
D03*
Y1395000D02*
D03*
Y1385000D02*
D03*
X1290000Y1405000D02*
D03*
Y1395000D02*
D03*
Y1385000D02*
D03*
X965000Y1210000D02*
D03*
X985000D02*
D03*
X1005000D02*
D03*
X1025000D02*
D03*
X1045000D02*
D03*
X1065000D02*
D03*
X1085000D02*
D03*
Y1180000D02*
D03*
X965000Y1195000D02*
D03*
X985000D02*
D03*
X1005000D02*
D03*
X1417500Y1156750D02*
D03*
X1410000Y1164250D02*
D03*
X1470250Y1131750D02*
D03*
X1470000Y1139250D02*
D03*
X1477500Y1131750D02*
D03*
X1380000Y1293750D02*
D03*
X1387750Y1301250D02*
D03*
X1388000Y1293750D02*
D03*
X1395000D02*
D03*
X1394750Y1308250D02*
D03*
Y1301250D02*
D03*
X1402000Y1293750D02*
D03*
X1401750Y1308250D02*
D03*
Y1301250D02*
D03*
X1432750Y1304250D02*
D03*
X1433250Y1296750D02*
D03*
X1440000Y1289250D02*
D03*
X1440750Y1304250D02*
D03*
X1441000Y1296750D02*
D03*
X1448000D02*
D03*
X1447750Y1304250D02*
D03*
X1455000Y1303750D02*
D03*
X1447750Y1312250D02*
D03*
X1440750D02*
D03*
X1455000Y1311750D02*
D03*
X1432750Y1312250D02*
D03*
X1023000Y1248000D02*
D03*
X1084000Y1247500D02*
D03*
X935150Y553640D02*
D03*
X947850D02*
D03*
X960550D02*
D03*
X1160000Y1405000D02*
D03*
Y1395000D02*
D03*
Y1385000D02*
D03*
X1170000D02*
D03*
Y1395000D02*
D03*
Y1405000D02*
D03*
X1180000D02*
D03*
Y1395000D02*
D03*
Y1385000D02*
D03*
X1190000D02*
D03*
Y1395000D02*
D03*
Y1405000D02*
D03*
X1200000D02*
D03*
Y1395000D02*
D03*
X1100000Y1180000D02*
D03*
X1115000D02*
D03*
X1130000D02*
D03*
Y1165000D02*
D03*
X1115000D02*
D03*
X1100000D02*
D03*
Y1150000D02*
D03*
X1115000D02*
D03*
X1130000D02*
D03*
X1190000Y1355000D02*
D03*
X1200000D02*
D03*
X1210000D02*
D03*
X1220000D02*
D03*
X1230000D02*
D03*
X1240000D02*
D03*
X1250000D02*
D03*
X1260000D02*
D03*
X1492500Y1281750D02*
D03*
X1500000Y1274250D02*
D03*
Y1266750D02*
D03*
X1492500Y1274250D02*
D03*
X1402500Y1286750D02*
D03*
X1395000D02*
D03*
X1402500Y1279250D02*
D03*
X1387500Y1286750D02*
D03*
Y1279250D02*
D03*
X1395000D02*
D03*
X1432500Y1289250D02*
D03*
Y1281750D02*
D03*
X1440000Y1274250D02*
D03*
X1447500Y1281750D02*
D03*
X1455000D02*
D03*
X1447500Y1274250D02*
D03*
X1455000D02*
D03*
X1440000Y1281750D02*
D03*
X1455000Y1296750D02*
D03*
X1455000Y1289250D02*
D03*
X1447500D02*
D03*
X1380000Y1279250D02*
D03*
Y1286750D02*
D03*
X1485000Y1169250D02*
D03*
Y1176750D02*
D03*
X1492500D02*
D03*
X1485000Y1266750D02*
D03*
Y1274250D02*
D03*
X1492500Y1266750D02*
D03*
X1432500Y1274250D02*
D03*
X1480000Y1224250D02*
D03*
X1495000D02*
D03*
X1480000Y1216750D02*
D03*
X1487500D02*
D03*
X1495000D02*
D03*
X1487500Y1224250D02*
D03*
X1407500Y1259750D02*
D03*
X1487000Y1240750D02*
D03*
X1407500Y1184250D02*
D03*
X1486754Y1202701D02*
D03*
X1380000Y1149250D02*
D03*
Y1156750D02*
D03*
X1387500Y1164250D02*
D03*
Y1141750D02*
D03*
Y1156750D02*
D03*
Y1149250D02*
D03*
X1380000Y1164250D02*
D03*
X1387500Y1171750D02*
D03*
X1395000Y1134250D02*
D03*
Y1141750D02*
D03*
X1402500D02*
D03*
X1395000Y1149250D02*
D03*
X1402500D02*
D03*
Y1134250D02*
D03*
X1410000Y1156750D02*
D03*
Y1149250D02*
D03*
X1395000Y1164250D02*
D03*
Y1156750D02*
D03*
Y1171750D02*
D03*
X1402500Y1164250D02*
D03*
Y1156750D02*
D03*
Y1171750D02*
D03*
X1410000Y1141750D02*
D03*
X1417500Y1149250D02*
D03*
X1407750Y1012500D02*
D03*
X1485250Y1042000D02*
D03*
X1470250D02*
D03*
X1477750D02*
D03*
X1462750D02*
D03*
X1432750D02*
D03*
Y1027000D02*
D03*
Y1034500D02*
D03*
X1440250Y1027000D02*
D03*
Y1034500D02*
D03*
Y1042000D02*
D03*
X1477750Y1034500D02*
D03*
X1485250D02*
D03*
X1500250D02*
D03*
X1492750D02*
D03*
X1500250Y1042000D02*
D03*
Y1049500D02*
D03*
X1492750Y1057000D02*
D03*
Y1064500D02*
D03*
Y1049500D02*
D03*
X1500250Y1057000D02*
D03*
Y1064500D02*
D03*
X1492750Y1042000D02*
D03*
X1487004Y955451D02*
D03*
X1472750Y962000D02*
D03*
X1485250Y929500D02*
D03*
X1465250Y954500D02*
D03*
Y962000D02*
D03*
X1477750Y929500D02*
D03*
X1500250D02*
D03*
X1492750D02*
D03*
X1462750Y1057000D02*
D03*
X1470250D02*
D03*
X1462750Y1049500D02*
D03*
X1470250Y1064500D02*
D03*
X1462750D02*
D03*
X1470250Y1049500D02*
D03*
X1500250Y1019500D02*
D03*
X1477750D02*
D03*
X1500250Y1027000D02*
D03*
X1485250D02*
D03*
X1492750Y1019500D02*
D03*
X1485250D02*
D03*
X1492750Y1027000D02*
D03*
X1477750D02*
D03*
X1455250Y1049500D02*
D03*
X1448000Y1065000D02*
D03*
X1441250Y1049500D02*
D03*
X1441000Y1057000D02*
D03*
X1448250Y1049500D02*
D03*
X1455250Y1056500D02*
D03*
X1448000Y1057000D02*
D03*
X1441000Y1065000D02*
D03*
X1455250Y1064500D02*
D03*
X1387750Y924500D02*
D03*
X1447750Y1027000D02*
D03*
Y1042000D02*
D03*
Y1034500D02*
D03*
X1485250Y1064500D02*
D03*
Y1057000D02*
D03*
Y1049500D02*
D03*
X1410250Y909500D02*
D03*
Y902000D02*
D03*
X1387750Y917000D02*
D03*
Y909500D02*
D03*
Y902000D02*
D03*
X1395250Y917000D02*
D03*
Y909500D02*
D03*
X1380000Y1061000D02*
D03*
X1388000Y1054000D02*
D03*
X1380000D02*
D03*
X1380250Y1046500D02*
D03*
X1433000Y1057000D02*
D03*
X1433500Y1049500D02*
D03*
X1433000Y1065000D02*
D03*
X1388000Y1061000D02*
D03*
X1388250Y1046500D02*
D03*
X1395000Y1061000D02*
D03*
X1395250Y1046500D02*
D03*
X1395000Y1054000D02*
D03*
X1402250Y1046500D02*
D03*
X1402000Y1054000D02*
D03*
Y1061000D02*
D03*
X1465250Y992000D02*
D03*
Y984500D02*
D03*
X1462750Y1027000D02*
D03*
X1470250Y1034500D02*
D03*
X1462750D02*
D03*
X1470250Y1027000D02*
D03*
X1465250Y977000D02*
D03*
X1495250D02*
D03*
X1487750D02*
D03*
X1472750D02*
D03*
X1480250D02*
D03*
Y969500D02*
D03*
X1487750D02*
D03*
X1495250D02*
D03*
X1487250Y993500D02*
D03*
X1465250Y969500D02*
D03*
X1472750Y984500D02*
D03*
Y969500D02*
D03*
X1457750Y984500D02*
D03*
X1450250Y962000D02*
D03*
X1457750Y954500D02*
D03*
Y992000D02*
D03*
Y977000D02*
D03*
Y962000D02*
D03*
Y969500D02*
D03*
X1450250Y954500D02*
D03*
Y992000D02*
D03*
Y969500D02*
D03*
Y977000D02*
D03*
Y984500D02*
D03*
X1380250Y1024500D02*
D03*
X1402750Y1039500D02*
D03*
X1395250D02*
D03*
Y1032000D02*
D03*
Y1024500D02*
D03*
X1402750D02*
D03*
Y1032000D02*
D03*
X1387750Y1039500D02*
D03*
Y1032000D02*
D03*
Y1024500D02*
D03*
X1380250Y1032000D02*
D03*
Y1039500D02*
D03*
X796750Y928000D02*
D03*
X804250D02*
D03*
X729250Y1045500D02*
D03*
Y1060500D02*
D03*
X781750Y1058000D02*
D03*
X819250D02*
D03*
X729250Y1038000D02*
D03*
Y1030500D02*
D03*
Y1053000D02*
D03*
X789250Y1050500D02*
D03*
X781750Y1035500D02*
D03*
Y1028000D02*
D03*
X789250D02*
D03*
Y1035500D02*
D03*
Y1043000D02*
D03*
X796750Y1028000D02*
D03*
Y1043000D02*
D03*
Y1035500D02*
D03*
X791750Y1015500D02*
D03*
X781750Y1043000D02*
D03*
X796750Y1050500D02*
D03*
X781750D02*
D03*
X726750Y968000D02*
D03*
X749250Y960500D02*
D03*
X734250D02*
D03*
X741750D02*
D03*
X804250Y1050500D02*
D03*
X811750Y1035500D02*
D03*
X819250D02*
D03*
X804250Y1028000D02*
D03*
X819250Y1050500D02*
D03*
X811750Y1043000D02*
D03*
X804250Y1035500D02*
D03*
Y1043000D02*
D03*
X811750Y1050500D02*
D03*
X819250Y1043000D02*
D03*
Y1065500D02*
D03*
X789250D02*
D03*
X781750D02*
D03*
X796750Y1058000D02*
D03*
X811750Y1065500D02*
D03*
Y1058000D02*
D03*
X796750Y1065500D02*
D03*
X804250D02*
D03*
Y1058000D02*
D03*
X789250D02*
D03*
X1387750Y887000D02*
D03*
X1395250D02*
D03*
Y894500D02*
D03*
Y902000D02*
D03*
X1387750Y894500D02*
D03*
X1410250Y887000D02*
D03*
X1417750D02*
D03*
Y894500D02*
D03*
X1402750D02*
D03*
X1410250D02*
D03*
X1402750Y887000D02*
D03*
Y902000D02*
D03*
Y917000D02*
D03*
Y909500D02*
D03*
X1417750Y917000D02*
D03*
X1410250D02*
D03*
X1417750Y909500D02*
D03*
Y902000D02*
D03*
X811750Y920500D02*
D03*
Y913000D02*
D03*
X796750D02*
D03*
Y920500D02*
D03*
X729250Y925500D02*
D03*
X721750Y918000D02*
D03*
X736750Y910500D02*
D03*
X729250Y918000D02*
D03*
X721750Y925500D02*
D03*
Y910500D02*
D03*
Y933000D02*
D03*
X744250Y918000D02*
D03*
X729250Y910500D02*
D03*
X744250Y925500D02*
D03*
X736750D02*
D03*
Y918000D02*
D03*
X741750Y975500D02*
D03*
X749250D02*
D03*
Y968000D02*
D03*
X741750D02*
D03*
X734250D02*
D03*
Y975500D02*
D03*
X726750D02*
D03*
X734250Y983000D02*
D03*
X749250Y998000D02*
D03*
X741750D02*
D03*
X734250D02*
D03*
Y990500D02*
D03*
X741750D02*
D03*
X749250D02*
D03*
Y983000D02*
D03*
X726750D02*
D03*
Y990500D02*
D03*
X741750Y983000D02*
D03*
X712250Y959000D02*
D03*
X711750Y983000D02*
D03*
X721750Y1023000D02*
D03*
Y1030500D02*
D03*
X712496Y997049D02*
D03*
X719250Y983000D02*
D03*
X711750Y975500D02*
D03*
X719250D02*
D03*
X721750Y1045500D02*
D03*
Y1060500D02*
D03*
Y1038000D02*
D03*
Y1068000D02*
D03*
Y1053000D02*
D03*
X729000Y1068000D02*
D03*
X706750Y1030500D02*
D03*
Y1053000D02*
D03*
X714250D02*
D03*
Y1045500D02*
D03*
Y1038000D02*
D03*
Y1023000D02*
D03*
Y1030500D02*
D03*
Y1068000D02*
D03*
Y1060500D02*
D03*
X706750Y1068000D02*
D03*
Y1060500D02*
D03*
Y1038000D02*
D03*
Y1023000D02*
D03*
Y1045500D02*
D03*
X791750Y940000D02*
D03*
X804250Y920500D02*
D03*
X699250Y1030500D02*
D03*
Y1023000D02*
D03*
X804500Y898500D02*
D03*
X819500D02*
D03*
X804500Y891500D02*
D03*
X811500D02*
D03*
X797500D02*
D03*
Y898500D02*
D03*
X811500D02*
D03*
X819500Y891500D02*
D03*
X706750Y933000D02*
D03*
X714250Y910500D02*
D03*
Y888000D02*
D03*
X706750Y910500D02*
D03*
X714250Y918000D02*
D03*
X706750D02*
D03*
Y925500D02*
D03*
X714250Y933000D02*
D03*
Y925500D02*
D03*
X706750Y888000D02*
D03*
X714250Y895500D02*
D03*
X706750D02*
D03*
Y903000D02*
D03*
X714250D02*
D03*
X759250Y910500D02*
D03*
X766750Y918000D02*
D03*
Y910500D02*
D03*
X759250Y925500D02*
D03*
X766500Y895500D02*
D03*
X759250Y918000D02*
D03*
X766000Y903000D02*
D03*
X751750Y925500D02*
D03*
Y910500D02*
D03*
X758250Y903000D02*
D03*
X758500Y895500D02*
D03*
X766750Y925500D02*
D03*
X751750Y918000D02*
D03*
X736750Y895500D02*
D03*
X721750D02*
D03*
X736750Y888000D02*
D03*
Y903000D02*
D03*
X721750Y888000D02*
D03*
Y903000D02*
D03*
X729250Y888000D02*
D03*
Y895500D02*
D03*
Y903000D02*
D03*
X751500Y895500D02*
D03*
X744250Y903000D02*
D03*
Y896000D02*
D03*
X744250Y910500D02*
D03*
X751250Y903000D02*
D03*
X744250Y888000D02*
D03*
X751500Y887500D02*
D03*
X766500D02*
D03*
X758500D02*
D03*
X797250Y906000D02*
D03*
X804250Y913000D02*
D03*
X804250Y906000D02*
D03*
X811250D02*
D03*
X811750Y928000D02*
D03*
X819250Y920500D02*
D03*
Y913000D02*
D03*
Y928000D02*
D03*
X819250Y906000D02*
D03*
X900000Y686000D02*
D03*
X963000Y685000D02*
D03*
X985000Y1150000D02*
D03*
X965000D02*
D03*
X1211000Y1105000D02*
D03*
X1321000Y1035000D02*
D03*
X1218000Y966000D02*
D03*
X1290000Y1355000D02*
D03*
X878000Y784000D02*
D03*
X843000Y660000D02*
D03*
X1318000Y786000D02*
D03*
M02*
