G04*
G04 #@! TF.GenerationSoftware,Altium Limited,Altium Designer,25.4.2 (15)*
G04*
G04 Layer_Color=8421504*
%FSLAX44Y44*%
%MOMM*%
G71*
G04*
G04 #@! TF.SameCoordinates,CE8B7503-BC5D-454C-BBEA-07EE3AA0370F*
G04*
G04*
G04 #@! TF.FilePolarity,Positive*
G04*
G01*
G75*
%ADD20R,0.8500X0.9000*%
%ADD21R,2.9500X2.6000*%
%ADD22R,0.8000X3.0000*%
%ADD23R,5.0000X1.2500*%
%ADD24R,1.4605X0.5588*%
%ADD25R,3.1200X2.2900*%
%ADD26R,1.9500X2.2500*%
%ADD27R,0.9000X0.8500*%
%ADD28R,0.9500X0.9000*%
%ADD29R,0.9000X0.9500*%
%ADD30R,3.2000X1.6000*%
%ADD31R,1.2500X0.5500*%
%ADD32R,0.4100X0.8200*%
%ADD33C,3.6549*%
%ADD34R,1.2200X0.9100*%
%ADD35R,2.0000X4.1000*%
G04:AMPARAMS|DCode=36|XSize=6.4mm|YSize=8.2mm|CornerRadius=0.064mm|HoleSize=0mm|Usage=FLASHONLY|Rotation=0.000|XOffset=0mm|YOffset=0mm|HoleType=Round|Shape=RoundedRectangle|*
%AMROUNDEDRECTD36*
21,1,6.4000,8.0720,0,0,0.0*
21,1,6.2720,8.2000,0,0,0.0*
1,1,0.1280,3.1360,-4.0360*
1,1,0.1280,-3.1360,-4.0360*
1,1,0.1280,-3.1360,4.0360*
1,1,0.1280,3.1360,4.0360*
%
%ADD36ROUNDEDRECTD36*%
G04:AMPARAMS|DCode=37|XSize=1mm|YSize=4.15mm|CornerRadius=0.05mm|HoleSize=0mm|Usage=FLASHONLY|Rotation=0.000|XOffset=0mm|YOffset=0mm|HoleType=Round|Shape=RoundedRectangle|*
%AMROUNDEDRECTD37*
21,1,1.0000,4.0500,0,0,0.0*
21,1,0.9000,4.1500,0,0,0.0*
1,1,0.1000,0.4500,-2.0250*
1,1,0.1000,-0.4500,-2.0250*
1,1,0.1000,-0.4500,2.0250*
1,1,0.1000,0.4500,2.0250*
%
%ADD37ROUNDEDRECTD37*%
%ADD38R,1.2000X1.2000*%
%ADD39R,1.5000X1.6000*%
%ADD40R,1.7000X1.6800*%
%ADD41C,1.3680*%
G36*
X822055Y1059248D02*
X826750D01*
Y1053148D01*
X822055D01*
Y1030048D01*
X826750D01*
Y1024948D01*
X776750D01*
Y1030048D01*
X781445D01*
Y1053148D01*
X776750D01*
Y1059248D01*
X781445D01*
Y1066348D01*
X822055D01*
Y1059248D01*
D02*
G37*
G36*
X821805Y1306748D02*
X826500D01*
Y1300648D01*
X821805D01*
Y1277548D01*
X826500D01*
Y1272448D01*
X776500D01*
Y1277548D01*
X781195D01*
Y1300648D01*
X776500D01*
Y1306748D01*
X781195D01*
Y1313848D01*
X821805D01*
Y1306748D01*
D02*
G37*
G36*
X1266616Y1101569D02*
X1267319Y1100866D01*
X1267700Y1099947D01*
Y1099450D01*
Y1086750D01*
X1249900D01*
Y1099450D01*
Y1099947D01*
X1250281Y1100866D01*
X1250984Y1101569D01*
X1251903Y1101950D01*
X1265697D01*
X1266616Y1101569D01*
D02*
G37*
G36*
X1267700Y1184550D02*
Y1184053D01*
X1267319Y1183134D01*
X1266616Y1182431D01*
X1265697Y1182050D01*
X1251903D01*
X1250984Y1182431D01*
X1250281Y1183134D01*
X1249900Y1184053D01*
Y1184550D01*
Y1197250D01*
X1267700D01*
Y1184550D01*
D02*
G37*
G36*
X1422750Y922452D02*
X1418055D01*
Y899352D01*
X1422750D01*
Y893252D01*
X1418055D01*
Y886152D01*
X1377445D01*
Y893252D01*
X1372750D01*
Y899352D01*
X1377445D01*
Y922452D01*
X1372750D01*
Y927552D01*
X1422750D01*
Y922452D01*
D02*
G37*
G36*
X1292016Y1101569D02*
X1292719Y1100866D01*
X1293100Y1099947D01*
Y1099450D01*
Y1086750D01*
X1275300D01*
Y1099450D01*
Y1099947D01*
X1275681Y1100866D01*
X1276384Y1101569D01*
X1277303Y1101950D01*
X1291097D01*
X1292016Y1101569D01*
D02*
G37*
G36*
X1293100Y1184550D02*
Y1184053D01*
X1292719Y1183134D01*
X1292016Y1182431D01*
X1291097Y1182050D01*
X1277303D01*
X1276384Y1182431D01*
X1275681Y1183134D01*
X1275300Y1184053D01*
Y1184550D01*
Y1197250D01*
X1293100D01*
Y1184550D01*
D02*
G37*
G36*
X1422500Y1169702D02*
X1417805D01*
Y1146602D01*
X1422500D01*
Y1140502D01*
X1417805D01*
Y1133402D01*
X1377195D01*
Y1140502D01*
X1372500D01*
Y1146602D01*
X1377195D01*
Y1169702D01*
X1372500D01*
Y1174802D01*
X1422500D01*
Y1169702D01*
D02*
G37*
D20*
X1493250Y743000D02*
D03*
X1508750D02*
D03*
X552250Y744000D02*
D03*
X567750D02*
D03*
X1236250Y1215000D02*
D03*
X1251750D02*
D03*
X1140450Y1380350D02*
D03*
X1155950D02*
D03*
X1236750Y1287500D02*
D03*
X1252250D02*
D03*
X1325750Y1094500D02*
D03*
X1310250D02*
D03*
X611250Y1298000D02*
D03*
X626750D02*
D03*
X746250Y1330500D02*
D03*
X761750D02*
D03*
X807000Y1218000D02*
D03*
X791500D02*
D03*
X807000Y1233000D02*
D03*
X791500D02*
D03*
X806750Y1248000D02*
D03*
X791250D02*
D03*
X806750Y1203000D02*
D03*
X791250D02*
D03*
X806750Y1188000D02*
D03*
X791250D02*
D03*
X806750Y1263000D02*
D03*
X791250D02*
D03*
X1392250Y1184250D02*
D03*
X1407750D02*
D03*
X807000Y1015500D02*
D03*
X791500D02*
D03*
X1392500Y937000D02*
D03*
X1408000D02*
D03*
X1392250Y1259250D02*
D03*
X1407750D02*
D03*
X807000Y940500D02*
D03*
X791500D02*
D03*
X1392500Y1012000D02*
D03*
X1408000D02*
D03*
X1392250Y1244250D02*
D03*
X1407750D02*
D03*
X807000Y955500D02*
D03*
X791500D02*
D03*
X1392500Y997000D02*
D03*
X1408000D02*
D03*
X1392250Y1199250D02*
D03*
X1407750D02*
D03*
X807000Y1000500D02*
D03*
X791500D02*
D03*
X1392500Y952000D02*
D03*
X1408000D02*
D03*
X1392000Y1214250D02*
D03*
X1407500D02*
D03*
X807250Y985500D02*
D03*
X791750D02*
D03*
X1392250Y967000D02*
D03*
X1407750D02*
D03*
X1392000Y1229250D02*
D03*
X1407500D02*
D03*
X807250Y970500D02*
D03*
X791750D02*
D03*
X1392250Y982000D02*
D03*
X1407750D02*
D03*
X1452750Y1116750D02*
D03*
X1437250D02*
D03*
X746500Y1083000D02*
D03*
X762000D02*
D03*
X1453000Y869500D02*
D03*
X1437500D02*
D03*
X1587750Y1149250D02*
D03*
X1572250D02*
D03*
X611500Y1050500D02*
D03*
X627000D02*
D03*
X1588000Y902000D02*
D03*
X1572500D02*
D03*
X611239Y1165413D02*
D03*
X626739D02*
D03*
X626761Y1283087D02*
D03*
X611261D02*
D03*
X1572239Y1164163D02*
D03*
X1587739D02*
D03*
X627011Y1035587D02*
D03*
X611511D02*
D03*
X1572489Y916913D02*
D03*
X1587989D02*
D03*
X1587761Y1281837D02*
D03*
X1572261D02*
D03*
X611489Y917913D02*
D03*
X626989D02*
D03*
X1588011Y1034587D02*
D03*
X1572511D02*
D03*
X607761Y744087D02*
D03*
X592261D02*
D03*
D21*
X1096200Y1397850D02*
D03*
X1034200D02*
D03*
D22*
X922450Y605360D02*
D03*
X935150D02*
D03*
X947850D02*
D03*
X960550D02*
D03*
X922450Y553640D02*
D03*
X935150D02*
D03*
X947850D02*
D03*
X960550D02*
D03*
X1279050Y553140D02*
D03*
X1266350D02*
D03*
X1253650D02*
D03*
X1240950D02*
D03*
X1279050Y604860D02*
D03*
X1266350D02*
D03*
X1253650D02*
D03*
X1240950D02*
D03*
D23*
X1302500Y1035400D02*
D03*
Y984600D02*
D03*
Y1010000D02*
D03*
X1237750Y984600D02*
D03*
Y1010000D02*
D03*
Y1035400D02*
D03*
X1302500Y785400D02*
D03*
Y734600D02*
D03*
Y760000D02*
D03*
X1237750Y734600D02*
D03*
Y760000D02*
D03*
Y785400D02*
D03*
X897500Y734600D02*
D03*
Y785400D02*
D03*
Y760000D02*
D03*
X962250Y785400D02*
D03*
Y760000D02*
D03*
Y734600D02*
D03*
X897500Y984600D02*
D03*
Y1035400D02*
D03*
Y1010000D02*
D03*
X962250Y1035400D02*
D03*
Y1010000D02*
D03*
Y984600D02*
D03*
D24*
X1289722Y1268440D02*
D03*
Y1255740D02*
D03*
Y1243040D02*
D03*
Y1230340D02*
D03*
X1235238D02*
D03*
Y1243040D02*
D03*
Y1255740D02*
D03*
Y1268440D02*
D03*
D25*
X1455500Y1365200D02*
D03*
Y1433800D02*
D03*
D26*
X1470000Y1471000D02*
D03*
X1506000D02*
D03*
D27*
X1036500Y1319750D02*
D03*
Y1335250D02*
D03*
X1172200Y1279600D02*
D03*
Y1295100D02*
D03*
D28*
Y1263100D02*
D03*
Y1247600D02*
D03*
X821750Y1233250D02*
D03*
Y1217750D02*
D03*
X1377250Y1214000D02*
D03*
Y1229500D02*
D03*
X822000Y985750D02*
D03*
Y970250D02*
D03*
X1377500Y966750D02*
D03*
Y982250D02*
D03*
D29*
X728750Y1315500D02*
D03*
X744250D02*
D03*
X1470250Y1131750D02*
D03*
X1454750D02*
D03*
X729000Y1068000D02*
D03*
X744500D02*
D03*
X1470500Y884500D02*
D03*
X1455000D02*
D03*
D30*
X810500Y892500D02*
D03*
X760500D02*
D03*
X1389000Y1060000D02*
D03*
X1439000D02*
D03*
X810250Y1140000D02*
D03*
X760250D02*
D03*
X1388750Y1307250D02*
D03*
X1438750D02*
D03*
D31*
X765996Y1022449D02*
D03*
Y1009749D02*
D03*
Y997049D02*
D03*
Y984349D02*
D03*
Y971649D02*
D03*
Y958949D02*
D03*
Y946249D02*
D03*
Y933549D02*
D03*
X712496D02*
D03*
Y946249D02*
D03*
Y958949D02*
D03*
Y971649D02*
D03*
Y984349D02*
D03*
Y997049D02*
D03*
Y1009749D02*
D03*
Y1022449D02*
D03*
X1433504Y930051D02*
D03*
Y942751D02*
D03*
Y955451D02*
D03*
Y968151D02*
D03*
Y980851D02*
D03*
Y993551D02*
D03*
Y1006251D02*
D03*
Y1018951D02*
D03*
X1487004D02*
D03*
Y1006251D02*
D03*
Y993551D02*
D03*
Y980851D02*
D03*
Y968151D02*
D03*
Y955451D02*
D03*
Y942751D02*
D03*
Y930051D02*
D03*
X712246Y1269949D02*
D03*
Y1181049D02*
D03*
X765746D02*
D03*
Y1269949D02*
D03*
Y1219149D02*
D03*
X712246D02*
D03*
Y1231849D02*
D03*
X765746Y1257249D02*
D03*
X712246D02*
D03*
X765746Y1193749D02*
D03*
X712246D02*
D03*
X765746Y1231849D02*
D03*
Y1244549D02*
D03*
Y1206449D02*
D03*
X712246D02*
D03*
Y1244549D02*
D03*
X1433254Y1177301D02*
D03*
Y1190001D02*
D03*
Y1202701D02*
D03*
Y1215401D02*
D03*
Y1228101D02*
D03*
Y1240801D02*
D03*
Y1253501D02*
D03*
Y1266201D02*
D03*
X1486754D02*
D03*
Y1253501D02*
D03*
Y1240801D02*
D03*
Y1228101D02*
D03*
Y1215401D02*
D03*
Y1202701D02*
D03*
Y1190001D02*
D03*
Y1177301D02*
D03*
D32*
X782700Y1083348D02*
D03*
X795400D02*
D03*
X808100D02*
D03*
X820800D02*
D03*
X1416800Y869152D02*
D03*
X1404100D02*
D03*
X1391400D02*
D03*
X1378700D02*
D03*
X820550Y1330848D02*
D03*
X807850D02*
D03*
X795150D02*
D03*
X782450D02*
D03*
X1416550Y1116402D02*
D03*
X1403850D02*
D03*
X1391150D02*
D03*
X1378450D02*
D03*
D33*
X801750Y1045500D02*
D03*
X1397750Y907000D02*
D03*
X801500Y1293000D02*
D03*
X1397500Y1154250D02*
D03*
D34*
X761750Y1069350D02*
D03*
Y1036650D02*
D03*
X1437750Y883150D02*
D03*
Y915850D02*
D03*
X761500Y1284150D02*
D03*
Y1316850D02*
D03*
X1437500Y1130400D02*
D03*
Y1163100D02*
D03*
D35*
X960200Y1330350D02*
D03*
Y1417350D02*
D03*
X1239200D02*
D03*
Y1330350D02*
D03*
D36*
X1101200Y1174350D02*
D03*
D37*
X1135200Y1278850D02*
D03*
X1118200D02*
D03*
X1084200D02*
D03*
X1067200D02*
D03*
X1101200D02*
D03*
D38*
X1098000Y1340000D02*
D03*
Y1320000D02*
D03*
X1160500Y1340000D02*
D03*
Y1320000D02*
D03*
D39*
X1065500Y1330000D02*
D03*
X1128000D02*
D03*
D40*
X1166100Y1423850D02*
D03*
X1130300D02*
D03*
D41*
X1258800Y1189650D02*
D03*
X1284200D02*
D03*
Y1094350D02*
D03*
X1258800D02*
D03*
M02*
