G04*
G04 #@! TF.GenerationSoftware,Altium Limited,Altium Designer,25.4.2 (15)*
G04*
G04 Layer_Color=16711935*
%FSLAX44Y44*%
%MOMM*%
G71*
G04*
G04 #@! TF.SameCoordinates,CE8B7503-BC5D-454C-BBEA-07EE3AA0370F*
G04*
G04*
G04 #@! TF.FilePolarity,Positive*
G04*
G01*
G75*
%ADD11C,0.2000*%
G36*
X1459285Y818510D02*
X1459387Y818491D01*
X1459507Y818473D01*
X1459636Y818436D01*
X1459775Y818380D01*
X1459914Y818315D01*
X1459932Y818306D01*
X1459978Y818278D01*
X1460052Y818223D01*
X1460154Y818149D01*
X1460274Y818047D01*
X1460422Y817909D01*
X1460589Y817742D01*
X1460764Y817548D01*
X1460783Y817530D01*
X1460820Y817483D01*
X1460884Y817419D01*
X1460958Y817335D01*
X1461042Y817252D01*
X1461125Y817169D01*
X1461199Y817095D01*
X1461273Y817039D01*
X1461282D01*
X1461300Y817021D01*
X1461337Y817002D01*
X1461374Y816975D01*
X1461430Y816947D01*
X1461495Y816919D01*
X1461642Y816864D01*
X1461652D01*
X1461680Y816855D01*
X1461735Y816845D01*
X1461800Y816836D01*
X1461892Y816827D01*
X1462012Y816818D01*
X1462151Y816808D01*
X1462308D01*
Y816050D01*
X1462299D01*
X1462280D01*
X1462225D01*
X1462151Y816041D01*
X1462077D01*
X1462068D01*
X1462059D01*
X1462003D01*
X1461911Y816050D01*
X1461800Y816059D01*
X1461680Y816069D01*
X1461550Y816096D01*
X1461411Y816124D01*
X1461282Y816170D01*
X1461273Y816180D01*
X1461236Y816189D01*
X1461190Y816217D01*
X1461125Y816244D01*
X1461051Y816291D01*
X1460958Y816346D01*
X1460866Y816411D01*
X1460773Y816485D01*
X1460764Y816494D01*
X1460736Y816513D01*
X1460699Y816559D01*
X1460635Y816614D01*
X1460561Y816688D01*
X1460468Y816790D01*
X1460357Y816910D01*
X1460228Y817049D01*
Y817058D01*
X1460209Y817067D01*
X1460172Y817113D01*
X1460099Y817187D01*
X1460025Y817271D01*
X1459932Y817363D01*
X1459830Y817446D01*
X1459738Y817530D01*
X1459655Y817585D01*
X1459645Y817594D01*
X1459618Y817604D01*
X1459572Y817622D01*
X1459516Y817650D01*
X1459442Y817678D01*
X1459368Y817696D01*
X1459276Y817705D01*
X1459183Y817714D01*
X1459174D01*
X1459165D01*
X1459109Y817705D01*
X1459017Y817696D01*
X1458915Y817668D01*
X1458786Y817631D01*
X1458656Y817567D01*
X1458517Y817474D01*
X1458379Y817354D01*
X1458360Y817335D01*
X1458323Y817289D01*
X1458268Y817215D01*
X1458203Y817113D01*
X1458138Y816984D01*
X1458083Y816836D01*
X1458046Y816660D01*
X1458027Y816476D01*
Y816429D01*
X1458037Y816392D01*
X1458046Y816300D01*
X1458064Y816180D01*
X1458111Y816050D01*
X1458166Y815912D01*
X1458240Y815773D01*
X1458351Y815634D01*
X1458369Y815616D01*
X1458407Y815579D01*
X1458490Y815523D01*
X1458591Y815459D01*
X1458730Y815385D01*
X1458896Y815311D01*
X1459100Y815246D01*
X1459331Y815200D01*
X1459229Y814395D01*
X1459220D01*
X1459192Y814405D01*
X1459146D01*
X1459082Y814423D01*
X1459008Y814432D01*
X1458924Y814460D01*
X1458832Y814479D01*
X1458721Y814516D01*
X1458508Y814599D01*
X1458277Y814710D01*
X1458055Y814848D01*
X1457953Y814941D01*
X1457861Y815033D01*
X1457852Y815042D01*
X1457843Y815061D01*
X1457815Y815089D01*
X1457787Y815135D01*
X1457750Y815190D01*
X1457713Y815255D01*
X1457667Y815329D01*
X1457621Y815412D01*
X1457574Y815514D01*
X1457528Y815625D01*
X1457491Y815736D01*
X1457454Y815865D01*
X1457399Y816143D01*
X1457390Y816300D01*
X1457380Y816457D01*
Y816550D01*
X1457390Y816614D01*
X1457399Y816697D01*
X1457408Y816781D01*
X1457426Y816892D01*
X1457445Y817002D01*
X1457510Y817234D01*
X1457602Y817483D01*
X1457658Y817613D01*
X1457722Y817733D01*
X1457806Y817844D01*
X1457898Y817955D01*
X1457907Y817964D01*
X1457917Y817983D01*
X1457953Y818010D01*
X1457991Y818047D01*
X1458037Y818084D01*
X1458101Y818130D01*
X1458166Y818186D01*
X1458240Y818241D01*
X1458425Y818343D01*
X1458638Y818436D01*
X1458749Y818463D01*
X1458878Y818491D01*
X1458998Y818510D01*
X1459137Y818519D01*
X1459155D01*
X1459211D01*
X1459285Y818510D01*
D02*
G37*
G36*
X1463889Y815912D02*
X1462992D01*
Y816808D01*
X1463889D01*
Y815912D01*
D02*
G37*
G36*
Y812139D02*
Y811307D01*
X1459017Y809967D01*
X1459008D01*
X1458989Y809957D01*
X1458961Y809948D01*
X1458915Y809939D01*
X1458813Y809911D01*
X1458693Y809883D01*
X1458564Y809846D01*
X1458443Y809809D01*
X1458342Y809782D01*
X1458296Y809772D01*
X1458268Y809763D01*
X1458277D01*
X1458286Y809754D01*
X1458342Y809745D01*
X1458425Y809726D01*
X1458527Y809698D01*
X1458638Y809671D01*
X1458767Y809634D01*
X1458896Y809606D01*
X1459017Y809569D01*
X1463889Y808219D01*
Y807332D01*
X1457491Y805658D01*
Y806536D01*
X1461689Y807489D01*
X1461698D01*
X1461716Y807498D01*
X1461753Y807507D01*
X1461800Y807516D01*
X1461864Y807526D01*
X1461929Y807544D01*
X1462012Y807563D01*
X1462105Y807581D01*
X1462299Y807627D01*
X1462521Y807674D01*
X1462761Y807720D01*
X1463002Y807766D01*
X1462992D01*
X1462955Y807775D01*
X1462909Y807794D01*
X1462835Y807803D01*
X1462761Y807822D01*
X1462669Y807849D01*
X1462465Y807896D01*
X1462262Y807951D01*
X1462160Y807970D01*
X1462068Y807997D01*
X1461985Y808016D01*
X1461911Y808034D01*
X1461855Y808053D01*
X1461818Y808062D01*
X1457491Y809273D01*
Y810300D01*
X1460736Y811206D01*
X1460746D01*
X1460792Y811224D01*
X1460857Y811243D01*
X1460940Y811261D01*
X1461051Y811289D01*
X1461171Y811326D01*
X1461310Y811363D01*
X1461467Y811400D01*
X1461642Y811446D01*
X1461818Y811483D01*
X1462197Y811566D01*
X1462595Y811649D01*
X1463002Y811714D01*
X1462992D01*
X1462974Y811723D01*
X1462937D01*
X1462891Y811742D01*
X1462835Y811751D01*
X1462771Y811769D01*
X1462687Y811779D01*
X1462595Y811806D01*
X1462391Y811853D01*
X1462151Y811908D01*
X1461892Y811964D01*
X1461606Y812038D01*
X1457491Y813036D01*
Y813896D01*
X1463889Y812139D01*
D02*
G37*
G36*
X1462280Y805067D02*
X1462410Y805048D01*
X1462558Y805011D01*
X1462715Y804965D01*
X1462881Y804891D01*
X1463057Y804789D01*
X1463066D01*
X1463076Y804780D01*
X1463131Y804734D01*
X1463214Y804669D01*
X1463307Y804576D01*
X1463418Y804456D01*
X1463538Y804308D01*
X1463649Y804142D01*
X1463750Y803948D01*
Y803939D01*
X1463760Y803920D01*
X1463769Y803892D01*
X1463788Y803855D01*
X1463806Y803800D01*
X1463834Y803735D01*
X1463871Y803587D01*
X1463917Y803411D01*
X1463963Y803199D01*
X1463991Y802968D01*
X1464000Y802718D01*
Y802570D01*
X1463991Y802496D01*
Y802413D01*
X1463982Y802320D01*
X1463972Y802210D01*
X1463935Y801978D01*
X1463898Y801738D01*
X1463834Y801498D01*
X1463750Y801266D01*
Y801257D01*
X1463741Y801239D01*
X1463723Y801211D01*
X1463704Y801174D01*
X1463649Y801063D01*
X1463566Y800934D01*
X1463455Y800786D01*
X1463325Y800629D01*
X1463168Y800481D01*
X1462992Y800342D01*
X1462983D01*
X1462965Y800323D01*
X1462937Y800314D01*
X1462900Y800286D01*
X1462854Y800268D01*
X1462798Y800240D01*
X1462659Y800175D01*
X1462484Y800111D01*
X1462290Y800055D01*
X1462068Y800018D01*
X1461837Y800000D01*
X1461763Y800795D01*
X1461772D01*
X1461781D01*
X1461809Y800804D01*
X1461846D01*
X1461929Y800823D01*
X1462049Y800851D01*
X1462169Y800888D01*
X1462308Y800924D01*
X1462438Y800989D01*
X1462558Y801054D01*
X1462567Y801063D01*
X1462604Y801091D01*
X1462669Y801137D01*
X1462733Y801211D01*
X1462817Y801303D01*
X1462900Y801405D01*
X1462983Y801544D01*
X1463057Y801692D01*
Y801701D01*
X1463066Y801710D01*
X1463076Y801738D01*
X1463085Y801766D01*
X1463112Y801858D01*
X1463150Y801978D01*
X1463186Y802126D01*
X1463214Y802293D01*
X1463233Y802478D01*
X1463242Y802681D01*
Y802764D01*
X1463233Y802857D01*
X1463224Y802968D01*
X1463205Y803097D01*
X1463186Y803245D01*
X1463150Y803393D01*
X1463103Y803532D01*
X1463094Y803550D01*
X1463076Y803596D01*
X1463039Y803661D01*
X1463002Y803744D01*
X1462937Y803828D01*
X1462872Y803920D01*
X1462798Y804013D01*
X1462706Y804086D01*
X1462697Y804096D01*
X1462659Y804114D01*
X1462613Y804142D01*
X1462539Y804179D01*
X1462465Y804216D01*
X1462373Y804244D01*
X1462271Y804262D01*
X1462160Y804271D01*
X1462151D01*
X1462105D01*
X1462049Y804262D01*
X1461975Y804253D01*
X1461901Y804225D01*
X1461809Y804197D01*
X1461716Y804151D01*
X1461633Y804086D01*
X1461624Y804077D01*
X1461596Y804049D01*
X1461559Y804013D01*
X1461504Y803948D01*
X1461448Y803874D01*
X1461384Y803772D01*
X1461319Y803652D01*
X1461263Y803513D01*
X1461254Y803504D01*
X1461245Y803458D01*
X1461217Y803384D01*
X1461208Y803337D01*
X1461190Y803273D01*
X1461162Y803208D01*
X1461143Y803125D01*
X1461116Y803032D01*
X1461088Y802922D01*
X1461060Y802811D01*
X1461023Y802681D01*
X1460986Y802533D01*
X1460949Y802376D01*
Y802367D01*
X1460940Y802339D01*
X1460931Y802293D01*
X1460912Y802237D01*
X1460894Y802163D01*
X1460875Y802080D01*
X1460820Y801895D01*
X1460755Y801692D01*
X1460690Y801479D01*
X1460625Y801294D01*
X1460589Y801211D01*
X1460551Y801137D01*
Y801128D01*
X1460542Y801119D01*
X1460505Y801063D01*
X1460459Y800980D01*
X1460385Y800888D01*
X1460302Y800777D01*
X1460200Y800666D01*
X1460080Y800555D01*
X1459951Y800462D01*
X1459932Y800453D01*
X1459886Y800425D01*
X1459812Y800388D01*
X1459719Y800351D01*
X1459599Y800314D01*
X1459460Y800277D01*
X1459313Y800249D01*
X1459155Y800240D01*
X1459146D01*
X1459137D01*
X1459109D01*
X1459072D01*
X1458980Y800259D01*
X1458860Y800277D01*
X1458721Y800305D01*
X1458564Y800351D01*
X1458407Y800416D01*
X1458249Y800508D01*
X1458240D01*
X1458231Y800518D01*
X1458175Y800564D01*
X1458101Y800629D01*
X1458009Y800712D01*
X1457907Y800823D01*
X1457796Y800961D01*
X1457695Y801128D01*
X1457602Y801313D01*
Y801322D01*
X1457593Y801340D01*
X1457584Y801368D01*
X1457565Y801405D01*
X1457547Y801451D01*
X1457528Y801516D01*
X1457491Y801655D01*
X1457454Y801831D01*
X1457417Y802034D01*
X1457390Y802247D01*
X1457380Y802487D01*
Y802607D01*
X1457390Y802672D01*
Y802737D01*
X1457408Y802912D01*
X1457436Y803106D01*
X1457482Y803310D01*
X1457537Y803532D01*
X1457611Y803735D01*
Y803744D01*
X1457621Y803763D01*
X1457639Y803791D01*
X1457658Y803828D01*
X1457704Y803920D01*
X1457787Y804040D01*
X1457879Y804179D01*
X1458000Y804318D01*
X1458138Y804447D01*
X1458296Y804567D01*
X1458305D01*
X1458314Y804576D01*
X1458342Y804595D01*
X1458369Y804613D01*
X1458462Y804660D01*
X1458582Y804715D01*
X1458730Y804780D01*
X1458906Y804826D01*
X1459091Y804872D01*
X1459294Y804891D01*
X1459359Y804077D01*
X1459350D01*
X1459331D01*
X1459303Y804068D01*
X1459257Y804059D01*
X1459155Y804031D01*
X1459017Y803994D01*
X1458869Y803939D01*
X1458721Y803855D01*
X1458582Y803754D01*
X1458453Y803624D01*
X1458443Y803606D01*
X1458407Y803559D01*
X1458351Y803467D01*
X1458296Y803347D01*
X1458240Y803190D01*
X1458185Y803005D01*
X1458148Y802774D01*
X1458138Y802515D01*
Y802385D01*
X1458148Y802330D01*
X1458157Y802256D01*
X1458175Y802089D01*
X1458212Y801905D01*
X1458259Y801720D01*
X1458333Y801544D01*
X1458379Y801470D01*
X1458425Y801396D01*
X1458434Y801377D01*
X1458471Y801340D01*
X1458536Y801285D01*
X1458610Y801229D01*
X1458712Y801165D01*
X1458823Y801109D01*
X1458952Y801072D01*
X1459100Y801054D01*
X1459118D01*
X1459155D01*
X1459220Y801063D01*
X1459294Y801082D01*
X1459387Y801109D01*
X1459479Y801156D01*
X1459572Y801211D01*
X1459664Y801294D01*
X1459673Y801303D01*
X1459701Y801350D01*
X1459729Y801387D01*
X1459747Y801424D01*
X1459775Y801479D01*
X1459812Y801544D01*
X1459840Y801627D01*
X1459877Y801720D01*
X1459914Y801821D01*
X1459960Y801941D01*
X1459997Y802071D01*
X1460043Y802219D01*
X1460080Y802385D01*
X1460126Y802570D01*
Y802579D01*
X1460135Y802616D01*
X1460145Y802672D01*
X1460163Y802737D01*
X1460182Y802820D01*
X1460209Y802922D01*
X1460237Y803023D01*
X1460265Y803134D01*
X1460330Y803374D01*
X1460394Y803606D01*
X1460431Y803717D01*
X1460468Y803818D01*
X1460496Y803911D01*
X1460533Y803985D01*
Y803994D01*
X1460542Y804013D01*
X1460561Y804040D01*
X1460579Y804077D01*
X1460635Y804179D01*
X1460709Y804299D01*
X1460810Y804438D01*
X1460921Y804576D01*
X1461051Y804706D01*
X1461190Y804817D01*
X1461208Y804826D01*
X1461254Y804863D01*
X1461337Y804900D01*
X1461448Y804956D01*
X1461578Y805002D01*
X1461735Y805048D01*
X1461911Y805076D01*
X1462095Y805085D01*
X1462105D01*
X1462114D01*
X1462142D01*
X1462179D01*
X1462280Y805067D01*
D02*
G37*
G36*
X788671Y899110D02*
X788754Y899101D01*
X788856Y899092D01*
X788958Y899083D01*
X789078Y899055D01*
X789328Y898999D01*
X789605Y898916D01*
X789744Y898861D01*
X789873Y898796D01*
X790003Y898713D01*
X790132Y898630D01*
X790141Y898621D01*
X790160Y898611D01*
X790197Y898584D01*
X790243Y898537D01*
X790289Y898491D01*
X790354Y898426D01*
X790419Y898352D01*
X790492Y898278D01*
X790566Y898186D01*
X790640Y898075D01*
X790724Y897964D01*
X790798Y897844D01*
X790862Y897705D01*
X790936Y897567D01*
X790992Y897419D01*
X791047Y897252D01*
X790215Y897058D01*
Y897067D01*
X790206Y897086D01*
X790187Y897123D01*
X790169Y897169D01*
X790150Y897224D01*
X790123Y897298D01*
X790049Y897446D01*
X789956Y897613D01*
X789845Y897779D01*
X789707Y897936D01*
X789559Y898075D01*
X789540Y898093D01*
X789485Y898130D01*
X789392Y898177D01*
X789272Y898241D01*
X789115Y898297D01*
X788939Y898352D01*
X788727Y898389D01*
X788495Y898399D01*
X788421D01*
X788375Y898389D01*
X788311D01*
X788237Y898380D01*
X788061Y898352D01*
X787867Y898315D01*
X787663Y898251D01*
X787451Y898158D01*
X787257Y898038D01*
X787247D01*
X787238Y898019D01*
X787173Y897973D01*
X787090Y897899D01*
X786988Y897788D01*
X786868Y897650D01*
X786757Y897493D01*
X786656Y897298D01*
X786563Y897086D01*
Y897076D01*
X786554Y897058D01*
X786545Y897030D01*
X786535Y896984D01*
X786517Y896928D01*
X786498Y896864D01*
X786471Y896707D01*
X786434Y896522D01*
X786397Y896318D01*
X786378Y896096D01*
X786369Y895856D01*
Y895847D01*
Y895819D01*
Y895773D01*
Y895717D01*
X786378Y895653D01*
Y895569D01*
X786387Y895477D01*
X786397Y895375D01*
X786424Y895153D01*
X786471Y894913D01*
X786526Y894673D01*
X786600Y894432D01*
Y894423D01*
X786609Y894405D01*
X786628Y894377D01*
X786646Y894331D01*
X786702Y894220D01*
X786785Y894090D01*
X786887Y893942D01*
X787016Y893785D01*
X787164Y893646D01*
X787340Y893517D01*
X787349D01*
X787367Y893508D01*
X787395Y893489D01*
X787432Y893471D01*
X787478Y893452D01*
X787534Y893424D01*
X787663Y893369D01*
X787830Y893314D01*
X788015Y893267D01*
X788218Y893230D01*
X788431Y893221D01*
X788495D01*
X788551Y893230D01*
X788616D01*
X788680Y893240D01*
X788847Y893277D01*
X789041Y893323D01*
X789235Y893397D01*
X789438Y893498D01*
X789540Y893554D01*
X789633Y893628D01*
X789642Y893637D01*
X789651Y893646D01*
X789679Y893674D01*
X789716Y893702D01*
X789753Y893748D01*
X789799Y893803D01*
X789855Y893859D01*
X789901Y893933D01*
X789956Y894016D01*
X790021Y894109D01*
X790077Y894201D01*
X790132Y894312D01*
X790178Y894432D01*
X790224Y894562D01*
X790271Y894700D01*
X790308Y894848D01*
X791158Y894636D01*
Y894626D01*
X791149Y894589D01*
X791131Y894534D01*
X791103Y894460D01*
X791075Y894377D01*
X791038Y894275D01*
X790992Y894164D01*
X790936Y894044D01*
X790807Y893785D01*
X790640Y893526D01*
X790539Y893397D01*
X790437Y893267D01*
X790326Y893156D01*
X790197Y893045D01*
X790187Y893036D01*
X790169Y893018D01*
X790123Y892999D01*
X790077Y892962D01*
X790003Y892916D01*
X789929Y892870D01*
X789827Y892823D01*
X789725Y892777D01*
X789605Y892722D01*
X789475Y892675D01*
X789337Y892629D01*
X789189Y892583D01*
X789032Y892546D01*
X788865Y892528D01*
X788690Y892509D01*
X788505Y892500D01*
X788403D01*
X788329Y892509D01*
X788246D01*
X788144Y892518D01*
X788033Y892537D01*
X787904Y892555D01*
X787636Y892602D01*
X787358Y892675D01*
X787081Y892777D01*
X786952Y892842D01*
X786822Y892916D01*
X786813Y892925D01*
X786794Y892934D01*
X786757Y892962D01*
X786720Y892999D01*
X786665Y893036D01*
X786600Y893092D01*
X786526Y893156D01*
X786452Y893230D01*
X786378Y893314D01*
X786295Y893397D01*
X786129Y893609D01*
X785971Y893859D01*
X785833Y894136D01*
Y894146D01*
X785814Y894173D01*
X785805Y894220D01*
X785777Y894275D01*
X785759Y894349D01*
X785731Y894441D01*
X785694Y894543D01*
X785666Y894654D01*
X785639Y894774D01*
X785602Y894913D01*
X785555Y895200D01*
X785518Y895523D01*
X785500Y895856D01*
Y895865D01*
Y895902D01*
Y895958D01*
X785509Y896022D01*
Y896115D01*
X785518Y896207D01*
X785528Y896328D01*
X785546Y896448D01*
X785592Y896716D01*
X785657Y897012D01*
X785750Y897308D01*
X785879Y897594D01*
X785888Y897603D01*
X785898Y897631D01*
X785916Y897668D01*
X785953Y897714D01*
X785990Y897779D01*
X786036Y897853D01*
X786156Y898019D01*
X786313Y898204D01*
X786498Y898389D01*
X786711Y898574D01*
X786961Y898731D01*
X786970Y898741D01*
X786998Y898750D01*
X787035Y898768D01*
X787081Y898796D01*
X787155Y898824D01*
X787229Y898852D01*
X787321Y898889D01*
X787423Y898926D01*
X787534Y898962D01*
X787654Y898999D01*
X787913Y899055D01*
X788209Y899101D01*
X788514Y899120D01*
X788606D01*
X788671Y899110D01*
D02*
G37*
G36*
X807005Y899027D02*
X807125Y899009D01*
X807273Y898981D01*
X807440Y898935D01*
X807606Y898879D01*
X807773Y898805D01*
X807782D01*
X807791Y898796D01*
X807847Y898768D01*
X807930Y898713D01*
X808022Y898648D01*
X808133Y898556D01*
X808244Y898454D01*
X808355Y898334D01*
X808447Y898195D01*
X808457Y898177D01*
X808484Y898130D01*
X808521Y898047D01*
X808568Y897945D01*
X808614Y897825D01*
X808651Y897687D01*
X808679Y897530D01*
X808688Y897372D01*
Y897354D01*
Y897298D01*
X808679Y897224D01*
X808660Y897123D01*
X808632Y897002D01*
X808586Y896873D01*
X808531Y896744D01*
X808457Y896614D01*
X808447Y896596D01*
X808420Y896559D01*
X808364Y896494D01*
X808290Y896420D01*
X808198Y896337D01*
X808087Y896244D01*
X807958Y896161D01*
X807800Y896078D01*
X807810D01*
X807828Y896069D01*
X807856Y896059D01*
X807893Y896050D01*
X807994Y896013D01*
X808124Y895958D01*
X808272Y895884D01*
X808420Y895791D01*
X808558Y895671D01*
X808688Y895532D01*
X808697Y895514D01*
X808734Y895459D01*
X808790Y895366D01*
X808845Y895246D01*
X808901Y895098D01*
X808956Y894922D01*
X808993Y894719D01*
X809002Y894497D01*
Y894488D01*
Y894460D01*
Y894414D01*
X808993Y894358D01*
X808984Y894284D01*
X808965Y894201D01*
X808947Y894109D01*
X808928Y894007D01*
X808854Y893785D01*
X808799Y893665D01*
X808743Y893554D01*
X808669Y893434D01*
X808586Y893314D01*
X808494Y893193D01*
X808383Y893082D01*
X808373Y893073D01*
X808355Y893055D01*
X808318Y893027D01*
X808272Y892990D01*
X808216Y892944D01*
X808142Y892897D01*
X808059Y892842D01*
X807958Y892796D01*
X807856Y892740D01*
X807736Y892685D01*
X807615Y892638D01*
X807477Y892592D01*
X807329Y892555D01*
X807172Y892528D01*
X807014Y892509D01*
X806839Y892500D01*
X806756D01*
X806700Y892509D01*
X806626Y892518D01*
X806543Y892528D01*
X806450Y892546D01*
X806349Y892565D01*
X806127Y892620D01*
X805896Y892712D01*
X805776Y892768D01*
X805665Y892833D01*
X805554Y892916D01*
X805443Y892999D01*
X805433Y893008D01*
X805415Y893027D01*
X805387Y893055D01*
X805359Y893092D01*
X805313Y893138D01*
X805267Y893203D01*
X805211Y893267D01*
X805156Y893351D01*
X805101Y893443D01*
X805045Y893535D01*
X804943Y893757D01*
X804860Y894016D01*
X804833Y894155D01*
X804814Y894303D01*
X805600Y894405D01*
Y894395D01*
X805609Y894377D01*
X805618Y894340D01*
X805628Y894294D01*
X805637Y894238D01*
X805655Y894173D01*
X805702Y894035D01*
X805766Y893868D01*
X805850Y893711D01*
X805942Y893563D01*
X806053Y893434D01*
X806071Y893424D01*
X806108Y893387D01*
X806182Y893341D01*
X806275Y893295D01*
X806386Y893240D01*
X806524Y893193D01*
X806682Y893156D01*
X806848Y893147D01*
X806904D01*
X806940Y893156D01*
X807042Y893166D01*
X807172Y893193D01*
X807319Y893240D01*
X807477Y893304D01*
X807634Y893397D01*
X807782Y893526D01*
X807800Y893545D01*
X807847Y893600D01*
X807902Y893683D01*
X807976Y893794D01*
X808050Y893933D01*
X808105Y894090D01*
X808152Y894275D01*
X808170Y894478D01*
Y894488D01*
Y894506D01*
Y894534D01*
X808161Y894571D01*
X808152Y894673D01*
X808124Y894793D01*
X808087Y894941D01*
X808022Y895089D01*
X807930Y895237D01*
X807810Y895375D01*
X807791Y895394D01*
X807745Y895431D01*
X807671Y895486D01*
X807569Y895551D01*
X807440Y895616D01*
X807282Y895671D01*
X807107Y895708D01*
X806913Y895727D01*
X806830D01*
X806765Y895717D01*
X806682Y895708D01*
X806589Y895690D01*
X806478Y895671D01*
X806358Y895643D01*
X806450Y896337D01*
X806497D01*
X806534Y896328D01*
X806654D01*
X806756Y896346D01*
X806876Y896365D01*
X807014Y896392D01*
X807172Y896439D01*
X807319Y896503D01*
X807477Y896586D01*
X807486D01*
X807495Y896596D01*
X807541Y896633D01*
X807606Y896697D01*
X807680Y896781D01*
X807754Y896901D01*
X807819Y897039D01*
X807865Y897197D01*
X807884Y897289D01*
Y897391D01*
Y897400D01*
Y897409D01*
Y897465D01*
X807865Y897539D01*
X807847Y897640D01*
X807810Y897751D01*
X807763Y897872D01*
X807689Y897992D01*
X807588Y898103D01*
X807578Y898112D01*
X807532Y898149D01*
X807467Y898195D01*
X807384Y898251D01*
X807273Y898297D01*
X807144Y898343D01*
X806996Y898380D01*
X806830Y898389D01*
X806756D01*
X806672Y898371D01*
X806561Y898352D01*
X806441Y898315D01*
X806321Y898269D01*
X806192Y898195D01*
X806071Y898103D01*
X806062Y898093D01*
X806025Y898047D01*
X805970Y897982D01*
X805905Y897890D01*
X805840Y897770D01*
X805776Y897622D01*
X805720Y897446D01*
X805683Y897243D01*
X804897Y897382D01*
Y897391D01*
X804906Y897419D01*
X804916Y897456D01*
X804925Y897511D01*
X804943Y897576D01*
X804971Y897650D01*
X805027Y897825D01*
X805119Y898029D01*
X805230Y898232D01*
X805369Y898426D01*
X805544Y898602D01*
X805554Y898611D01*
X805572Y898621D01*
X805600Y898639D01*
X805637Y898667D01*
X805683Y898704D01*
X805748Y898741D01*
X805813Y898778D01*
X805896Y898824D01*
X806081Y898898D01*
X806293Y898972D01*
X806543Y899018D01*
X806672Y899036D01*
X806904D01*
X807005Y899027D01*
D02*
G37*
G36*
X804167Y894534D02*
X801735D01*
Y895320D01*
X804167D01*
Y894534D01*
D02*
G37*
G36*
X799128Y899027D02*
X799202Y899018D01*
X799294Y899009D01*
X799396Y898990D01*
X799498Y898972D01*
X799738Y898907D01*
X799978Y898815D01*
X800099Y898759D01*
X800219Y898694D01*
X800330Y898611D01*
X800432Y898519D01*
X800441Y898510D01*
X800459Y898500D01*
X800478Y898463D01*
X800515Y898426D01*
X800561Y898380D01*
X800607Y898315D01*
X800653Y898251D01*
X800709Y898167D01*
X800801Y897992D01*
X800894Y897770D01*
X800931Y897659D01*
X800949Y897530D01*
X800968Y897400D01*
X800977Y897261D01*
Y897243D01*
Y897197D01*
X800968Y897123D01*
X800958Y897021D01*
X800940Y896910D01*
X800903Y896781D01*
X800866Y896642D01*
X800811Y896503D01*
X800801Y896485D01*
X800783Y896439D01*
X800746Y896365D01*
X800690Y896263D01*
X800617Y896152D01*
X800524Y896013D01*
X800413Y895874D01*
X800284Y895717D01*
X800265Y895699D01*
X800219Y895643D01*
X800173Y895597D01*
X800126Y895551D01*
X800071Y895495D01*
X799997Y895422D01*
X799923Y895348D01*
X799831Y895264D01*
X799738Y895172D01*
X799627Y895070D01*
X799507Y894968D01*
X799378Y894848D01*
X799230Y894728D01*
X799082Y894599D01*
X799072Y894589D01*
X799054Y894571D01*
X799017Y894543D01*
X798971Y894506D01*
X798915Y894451D01*
X798850Y894395D01*
X798703Y894275D01*
X798545Y894136D01*
X798398Y893998D01*
X798268Y893877D01*
X798213Y893831D01*
X798166Y893785D01*
X798157Y893776D01*
X798129Y893748D01*
X798092Y893711D01*
X798046Y893656D01*
X798000Y893591D01*
X797944Y893526D01*
X797833Y893369D01*
X800986D01*
Y892611D01*
X796743D01*
Y892620D01*
Y892657D01*
Y892712D01*
X796752Y892786D01*
X796761Y892870D01*
X796779Y892962D01*
X796798Y893055D01*
X796835Y893156D01*
Y893166D01*
X796844Y893175D01*
X796863Y893230D01*
X796900Y893314D01*
X796955Y893424D01*
X797029Y893554D01*
X797122Y893702D01*
X797223Y893850D01*
X797353Y894007D01*
Y894016D01*
X797371Y894025D01*
X797418Y894081D01*
X797501Y894164D01*
X797621Y894284D01*
X797760Y894423D01*
X797935Y894589D01*
X798148Y894774D01*
X798379Y894968D01*
X798388Y894978D01*
X798425Y895005D01*
X798481Y895052D01*
X798545Y895107D01*
X798629Y895181D01*
X798730Y895264D01*
X798832Y895357D01*
X798952Y895459D01*
X799183Y895680D01*
X799415Y895902D01*
X799526Y896013D01*
X799627Y896124D01*
X799720Y896226D01*
X799794Y896328D01*
Y896337D01*
X799812Y896346D01*
X799831Y896374D01*
X799849Y896411D01*
X799914Y896513D01*
X799988Y896633D01*
X800052Y896781D01*
X800117Y896938D01*
X800154Y897113D01*
X800173Y897280D01*
Y897289D01*
Y897298D01*
X800163Y897354D01*
X800154Y897446D01*
X800126Y897548D01*
X800089Y897677D01*
X800025Y897807D01*
X799941Y897936D01*
X799831Y898066D01*
X799812Y898084D01*
X799766Y898121D01*
X799701Y898167D01*
X799599Y898232D01*
X799470Y898288D01*
X799322Y898343D01*
X799146Y898380D01*
X798952Y898389D01*
X798897D01*
X798860Y898380D01*
X798749Y898371D01*
X798619Y898343D01*
X798481Y898306D01*
X798324Y898241D01*
X798176Y898158D01*
X798037Y898047D01*
X798018Y898029D01*
X797981Y897982D01*
X797926Y897908D01*
X797870Y897798D01*
X797806Y897668D01*
X797750Y897502D01*
X797713Y897317D01*
X797695Y897104D01*
X796890Y897187D01*
Y897197D01*
X796900Y897224D01*
Y897271D01*
X796909Y897335D01*
X796927Y897409D01*
X796946Y897493D01*
X796974Y897594D01*
X797001Y897696D01*
X797075Y897918D01*
X797186Y898140D01*
X797251Y898251D01*
X797334Y898362D01*
X797418Y898463D01*
X797510Y898556D01*
X797519Y898565D01*
X797538Y898574D01*
X797565Y898602D01*
X797612Y898630D01*
X797667Y898667D01*
X797732Y898704D01*
X797806Y898750D01*
X797898Y898796D01*
X798000Y898842D01*
X798111Y898889D01*
X798231Y898926D01*
X798361Y898962D01*
X798499Y898990D01*
X798647Y899018D01*
X798804Y899027D01*
X798971Y899036D01*
X799063D01*
X799128Y899027D01*
D02*
G37*
G36*
X795180Y894867D02*
X796049D01*
Y894146D01*
X795180D01*
Y892611D01*
X794394D01*
Y894146D01*
X791611D01*
Y894867D01*
X794542Y899009D01*
X795180D01*
Y894867D01*
D02*
G37*
G36*
X760492Y984526D02*
X760612Y984508D01*
X760760Y984480D01*
X760927Y984434D01*
X761093Y984378D01*
X761259Y984304D01*
X761269D01*
X761278Y984295D01*
X761333Y984267D01*
X761417Y984212D01*
X761509Y984147D01*
X761620Y984055D01*
X761731Y983953D01*
X761842Y983833D01*
X761934Y983694D01*
X761944Y983676D01*
X761971Y983629D01*
X762008Y983546D01*
X762055Y983445D01*
X762101Y983324D01*
X762138Y983186D01*
X762166Y983028D01*
X762175Y982871D01*
Y982853D01*
Y982797D01*
X762166Y982723D01*
X762147Y982622D01*
X762119Y982501D01*
X762073Y982372D01*
X762018Y982243D01*
X761944Y982113D01*
X761934Y982095D01*
X761907Y982058D01*
X761851Y981993D01*
X761777Y981919D01*
X761685Y981836D01*
X761574Y981743D01*
X761444Y981660D01*
X761287Y981577D01*
X761296D01*
X761315Y981568D01*
X761343Y981558D01*
X761380Y981549D01*
X761481Y981512D01*
X761611Y981457D01*
X761759Y981383D01*
X761907Y981290D01*
X762045Y981170D01*
X762175Y981031D01*
X762184Y981013D01*
X762221Y980957D01*
X762276Y980865D01*
X762332Y980745D01*
X762387Y980597D01*
X762443Y980421D01*
X762480Y980218D01*
X762489Y979996D01*
Y979987D01*
Y979959D01*
Y979913D01*
X762480Y979857D01*
X762471Y979783D01*
X762452Y979700D01*
X762434Y979608D01*
X762415Y979506D01*
X762341Y979284D01*
X762286Y979164D01*
X762230Y979053D01*
X762156Y978933D01*
X762073Y978812D01*
X761981Y978692D01*
X761870Y978581D01*
X761860Y978572D01*
X761842Y978554D01*
X761805Y978526D01*
X761759Y978489D01*
X761703Y978443D01*
X761629Y978396D01*
X761546Y978341D01*
X761444Y978295D01*
X761343Y978239D01*
X761222Y978184D01*
X761102Y978138D01*
X760964Y978091D01*
X760816Y978054D01*
X760658Y978027D01*
X760501Y978008D01*
X760326Y977999D01*
X760242D01*
X760187Y978008D01*
X760113Y978017D01*
X760030Y978027D01*
X759937Y978045D01*
X759836Y978064D01*
X759614Y978119D01*
X759383Y978212D01*
X759262Y978267D01*
X759151Y978332D01*
X759041Y978415D01*
X758930Y978498D01*
X758920Y978507D01*
X758902Y978526D01*
X758874Y978554D01*
X758846Y978590D01*
X758800Y978637D01*
X758754Y978701D01*
X758698Y978766D01*
X758643Y978849D01*
X758587Y978942D01*
X758532Y979034D01*
X758430Y979256D01*
X758347Y979515D01*
X758319Y979654D01*
X758301Y979802D01*
X759087Y979903D01*
Y979894D01*
X759096Y979876D01*
X759105Y979839D01*
X759114Y979792D01*
X759124Y979737D01*
X759142Y979672D01*
X759188Y979534D01*
X759253Y979367D01*
X759336Y979210D01*
X759429Y979062D01*
X759540Y978933D01*
X759558Y978923D01*
X759595Y978886D01*
X759669Y978840D01*
X759762Y978794D01*
X759873Y978738D01*
X760011Y978692D01*
X760168Y978655D01*
X760335Y978646D01*
X760390D01*
X760427Y978655D01*
X760529Y978664D01*
X760658Y978692D01*
X760806Y978738D01*
X760964Y978803D01*
X761121Y978896D01*
X761269Y979025D01*
X761287Y979044D01*
X761333Y979099D01*
X761389Y979182D01*
X761463Y979293D01*
X761537Y979432D01*
X761592Y979589D01*
X761638Y979774D01*
X761657Y979977D01*
Y979987D01*
Y980005D01*
Y980033D01*
X761648Y980070D01*
X761638Y980172D01*
X761611Y980292D01*
X761574Y980440D01*
X761509Y980588D01*
X761417Y980735D01*
X761296Y980874D01*
X761278Y980893D01*
X761232Y980930D01*
X761158Y980985D01*
X761056Y981050D01*
X760927Y981115D01*
X760769Y981170D01*
X760594Y981207D01*
X760400Y981226D01*
X760316D01*
X760252Y981216D01*
X760168Y981207D01*
X760076Y981189D01*
X759965Y981170D01*
X759845Y981142D01*
X759937Y981836D01*
X759984D01*
X760021Y981826D01*
X760141D01*
X760242Y981845D01*
X760363Y981863D01*
X760501Y981891D01*
X760658Y981937D01*
X760806Y982002D01*
X760964Y982085D01*
X760973D01*
X760982Y982095D01*
X761028Y982132D01*
X761093Y982196D01*
X761167Y982280D01*
X761241Y982400D01*
X761306Y982538D01*
X761352Y982696D01*
X761370Y982788D01*
Y982890D01*
Y982899D01*
Y982908D01*
Y982964D01*
X761352Y983038D01*
X761333Y983139D01*
X761296Y983250D01*
X761250Y983371D01*
X761176Y983491D01*
X761075Y983602D01*
X761065Y983611D01*
X761019Y983648D01*
X760954Y983694D01*
X760871Y983750D01*
X760760Y983796D01*
X760631Y983842D01*
X760483Y983879D01*
X760316Y983888D01*
X760242D01*
X760159Y983870D01*
X760048Y983851D01*
X759928Y983814D01*
X759808Y983768D01*
X759678Y983694D01*
X759558Y983602D01*
X759549Y983592D01*
X759512Y983546D01*
X759456Y983482D01*
X759392Y983389D01*
X759327Y983269D01*
X759262Y983121D01*
X759207Y982945D01*
X759170Y982742D01*
X758384Y982880D01*
Y982890D01*
X758393Y982917D01*
X758402Y982954D01*
X758412Y983010D01*
X758430Y983075D01*
X758458Y983149D01*
X758513Y983324D01*
X758606Y983528D01*
X758717Y983731D01*
X758856Y983925D01*
X759031Y984101D01*
X759041Y984110D01*
X759059Y984119D01*
X759087Y984138D01*
X759124Y984166D01*
X759170Y984203D01*
X759235Y984240D01*
X759299Y984277D01*
X759383Y984323D01*
X759567Y984397D01*
X759780Y984471D01*
X760030Y984517D01*
X760159Y984536D01*
X760390D01*
X760492Y984526D01*
D02*
G37*
G36*
X757654Y980033D02*
X755222D01*
Y980819D01*
X757654D01*
Y980033D01*
D02*
G37*
G36*
X744275Y980809D02*
Y980800D01*
Y980763D01*
Y980717D01*
Y980652D01*
X744266Y980569D01*
Y980477D01*
X744257Y980366D01*
X744248Y980255D01*
X744220Y980005D01*
X744183Y979746D01*
X744127Y979497D01*
X744090Y979376D01*
X744053Y979266D01*
Y979256D01*
X744044Y979238D01*
X744026Y979210D01*
X744007Y979173D01*
X743952Y979071D01*
X743868Y978942D01*
X743757Y978794D01*
X743628Y978646D01*
X743462Y978489D01*
X743258Y978350D01*
X743249D01*
X743231Y978332D01*
X743203Y978322D01*
X743157Y978295D01*
X743101Y978267D01*
X743027Y978239D01*
X742953Y978212D01*
X742861Y978175D01*
X742759Y978138D01*
X742648Y978110D01*
X742528Y978082D01*
X742389Y978054D01*
X742251Y978036D01*
X742103Y978017D01*
X741770Y977999D01*
X741686D01*
X741622Y978008D01*
X741548D01*
X741455Y978017D01*
X741354Y978027D01*
X741252Y978036D01*
X741021Y978073D01*
X740771Y978128D01*
X740531Y978202D01*
X740300Y978304D01*
X740290D01*
X740272Y978322D01*
X740244Y978341D01*
X740207Y978359D01*
X740106Y978433D01*
X739985Y978535D01*
X739847Y978664D01*
X739717Y978812D01*
X739588Y978997D01*
X739486Y979201D01*
Y979210D01*
X739477Y979229D01*
X739467Y979266D01*
X739449Y979312D01*
X739431Y979367D01*
X739412Y979441D01*
X739384Y979524D01*
X739366Y979626D01*
X739347Y979737D01*
X739320Y979857D01*
X739301Y979987D01*
X739283Y980125D01*
X739264Y980283D01*
X739255Y980449D01*
X739246Y980625D01*
Y980809D01*
Y984508D01*
X740096D01*
Y980809D01*
Y980800D01*
Y980772D01*
Y980726D01*
Y980671D01*
X740106Y980606D01*
Y980523D01*
X740115Y980347D01*
X740133Y980144D01*
X740161Y979940D01*
X740198Y979746D01*
X740216Y979663D01*
X740244Y979580D01*
X740253Y979561D01*
X740272Y979515D01*
X740318Y979450D01*
X740374Y979358D01*
X740438Y979266D01*
X740531Y979164D01*
X740642Y979062D01*
X740771Y978979D01*
X740790Y978970D01*
X740836Y978942D01*
X740919Y978914D01*
X741030Y978877D01*
X741160Y978831D01*
X741326Y978803D01*
X741502Y978775D01*
X741696Y978766D01*
X741788D01*
X741844Y978775D01*
X741927D01*
X742010Y978785D01*
X742214Y978822D01*
X742435Y978868D01*
X742648Y978942D01*
X742851Y979044D01*
X742944Y979108D01*
X743027Y979182D01*
X743036Y979192D01*
X743046Y979201D01*
X743064Y979229D01*
X743092Y979266D01*
X743120Y979321D01*
X743157Y979376D01*
X743194Y979460D01*
X743231Y979543D01*
X743268Y979644D01*
X743295Y979765D01*
X743332Y979903D01*
X743360Y980051D01*
X743388Y980218D01*
X743406Y980393D01*
X743425Y980597D01*
Y980809D01*
Y984508D01*
X744275D01*
Y980809D01*
D02*
G37*
G36*
X753299Y978110D02*
X752513D01*
Y983112D01*
X752504Y983102D01*
X752458Y983065D01*
X752402Y983010D01*
X752310Y982945D01*
X752208Y982862D01*
X752078Y982770D01*
X751931Y982668D01*
X751764Y982566D01*
X751755D01*
X751746Y982557D01*
X751690Y982520D01*
X751598Y982474D01*
X751487Y982418D01*
X751357Y982354D01*
X751219Y982289D01*
X751080Y982224D01*
X750941Y982169D01*
Y982927D01*
X750951D01*
X750969Y982945D01*
X751006Y982954D01*
X751052Y982982D01*
X751108Y983010D01*
X751172Y983047D01*
X751330Y983139D01*
X751515Y983241D01*
X751700Y983371D01*
X751894Y983519D01*
X752088Y983676D01*
X752097Y983685D01*
X752106Y983694D01*
X752134Y983722D01*
X752171Y983750D01*
X752254Y983842D01*
X752365Y983953D01*
X752476Y984082D01*
X752596Y984230D01*
X752698Y984378D01*
X752790Y984536D01*
X753299D01*
Y978110D01*
D02*
G37*
G36*
X748667Y980366D02*
X749536D01*
Y979644D01*
X748667D01*
Y978110D01*
X747881D01*
Y979644D01*
X745098D01*
Y980366D01*
X748029Y984508D01*
X748667D01*
Y980366D01*
D02*
G37*
G36*
X779995Y1057683D02*
X780069Y1057674D01*
X780152Y1057665D01*
X780245Y1057646D01*
X780347Y1057628D01*
X780568Y1057572D01*
X780799Y1057480D01*
X780920Y1057424D01*
X781031Y1057360D01*
X781142Y1057276D01*
X781253Y1057193D01*
X781262Y1057184D01*
X781280Y1057165D01*
X781308Y1057138D01*
X781336Y1057101D01*
X781382Y1057055D01*
X781428Y1056990D01*
X781484Y1056925D01*
X781539Y1056842D01*
X781595Y1056749D01*
X781650Y1056657D01*
X781752Y1056435D01*
X781835Y1056176D01*
X781863Y1056038D01*
X781881Y1055890D01*
X781095Y1055788D01*
Y1055797D01*
X781086Y1055816D01*
X781077Y1055853D01*
X781068Y1055899D01*
X781058Y1055954D01*
X781040Y1056019D01*
X780994Y1056158D01*
X780929Y1056324D01*
X780846Y1056481D01*
X780753Y1056629D01*
X780642Y1056759D01*
X780624Y1056768D01*
X780587Y1056805D01*
X780513Y1056851D01*
X780420Y1056897D01*
X780310Y1056953D01*
X780171Y1056999D01*
X780014Y1057036D01*
X779847Y1057045D01*
X779792D01*
X779755Y1057036D01*
X779653Y1057027D01*
X779524Y1056999D01*
X779376Y1056953D01*
X779219Y1056888D01*
X779061Y1056796D01*
X778913Y1056666D01*
X778895Y1056648D01*
X778849Y1056592D01*
X778793Y1056509D01*
X778719Y1056398D01*
X778645Y1056259D01*
X778590Y1056102D01*
X778544Y1055917D01*
X778525Y1055714D01*
Y1055705D01*
Y1055686D01*
Y1055658D01*
X778534Y1055621D01*
X778544Y1055520D01*
X778571Y1055399D01*
X778608Y1055252D01*
X778673Y1055104D01*
X778765Y1054956D01*
X778886Y1054817D01*
X778904Y1054799D01*
X778950Y1054762D01*
X779024Y1054706D01*
X779126Y1054641D01*
X779256Y1054577D01*
X779413Y1054521D01*
X779588Y1054484D01*
X779782Y1054466D01*
X779866D01*
X779930Y1054475D01*
X780014Y1054484D01*
X780106Y1054503D01*
X780217Y1054521D01*
X780337Y1054549D01*
X780245Y1053856D01*
X780199D01*
X780162Y1053865D01*
X780041D01*
X779940Y1053846D01*
X779819Y1053828D01*
X779681Y1053800D01*
X779524Y1053754D01*
X779376Y1053689D01*
X779219Y1053606D01*
X779209D01*
X779200Y1053597D01*
X779154Y1053560D01*
X779089Y1053495D01*
X779015Y1053412D01*
X778941Y1053291D01*
X778876Y1053153D01*
X778830Y1052996D01*
X778812Y1052903D01*
Y1052802D01*
Y1052792D01*
Y1052783D01*
Y1052728D01*
X778830Y1052654D01*
X778849Y1052552D01*
X778886Y1052441D01*
X778932Y1052321D01*
X779006Y1052200D01*
X779108Y1052090D01*
X779117Y1052080D01*
X779163Y1052043D01*
X779228Y1051997D01*
X779311Y1051942D01*
X779422Y1051895D01*
X779551Y1051849D01*
X779699Y1051812D01*
X779866Y1051803D01*
X779940D01*
X780023Y1051822D01*
X780134Y1051840D01*
X780254Y1051877D01*
X780374Y1051923D01*
X780504Y1051997D01*
X780624Y1052090D01*
X780633Y1052099D01*
X780670Y1052145D01*
X780725Y1052210D01*
X780790Y1052302D01*
X780855Y1052422D01*
X780920Y1052570D01*
X780975Y1052746D01*
X781012Y1052949D01*
X781798Y1052811D01*
Y1052802D01*
X781789Y1052774D01*
X781779Y1052737D01*
X781770Y1052681D01*
X781752Y1052617D01*
X781724Y1052543D01*
X781669Y1052367D01*
X781576Y1052164D01*
X781465Y1051960D01*
X781327Y1051766D01*
X781151Y1051590D01*
X781142Y1051581D01*
X781123Y1051572D01*
X781095Y1051553D01*
X781058Y1051526D01*
X781012Y1051489D01*
X780947Y1051452D01*
X780883Y1051415D01*
X780799Y1051368D01*
X780615Y1051294D01*
X780402Y1051220D01*
X780152Y1051174D01*
X780023Y1051156D01*
X779792D01*
X779690Y1051165D01*
X779570Y1051183D01*
X779422Y1051211D01*
X779256Y1051257D01*
X779089Y1051313D01*
X778923Y1051387D01*
X778913D01*
X778904Y1051396D01*
X778849Y1051424D01*
X778765Y1051479D01*
X778673Y1051544D01*
X778562Y1051637D01*
X778451Y1051738D01*
X778340Y1051859D01*
X778248Y1051997D01*
X778239Y1052016D01*
X778211Y1052062D01*
X778174Y1052145D01*
X778128Y1052247D01*
X778081Y1052367D01*
X778044Y1052506D01*
X778017Y1052663D01*
X778007Y1052820D01*
Y1052839D01*
Y1052894D01*
X778017Y1052968D01*
X778035Y1053070D01*
X778063Y1053190D01*
X778109Y1053319D01*
X778165Y1053449D01*
X778239Y1053578D01*
X778248Y1053597D01*
X778276Y1053634D01*
X778331Y1053698D01*
X778405Y1053772D01*
X778497Y1053856D01*
X778608Y1053948D01*
X778738Y1054031D01*
X778895Y1054114D01*
X778886D01*
X778867Y1054124D01*
X778839Y1054133D01*
X778802Y1054142D01*
X778701Y1054179D01*
X778571Y1054235D01*
X778423Y1054308D01*
X778276Y1054401D01*
X778137Y1054521D01*
X778007Y1054660D01*
X777998Y1054678D01*
X777961Y1054734D01*
X777906Y1054826D01*
X777850Y1054947D01*
X777795Y1055094D01*
X777739Y1055270D01*
X777702Y1055473D01*
X777693Y1055695D01*
Y1055705D01*
Y1055732D01*
Y1055779D01*
X777702Y1055834D01*
X777711Y1055908D01*
X777730Y1055991D01*
X777748Y1056084D01*
X777767Y1056185D01*
X777841Y1056407D01*
X777896Y1056527D01*
X777952Y1056638D01*
X778026Y1056759D01*
X778109Y1056879D01*
X778202Y1056999D01*
X778312Y1057110D01*
X778322Y1057119D01*
X778340Y1057138D01*
X778377Y1057165D01*
X778423Y1057202D01*
X778479Y1057249D01*
X778553Y1057295D01*
X778636Y1057350D01*
X778738Y1057397D01*
X778839Y1057452D01*
X778960Y1057507D01*
X779080Y1057554D01*
X779219Y1057600D01*
X779366Y1057637D01*
X779524Y1057665D01*
X779681Y1057683D01*
X779856Y1057692D01*
X779940D01*
X779995Y1057683D01*
D02*
G37*
G36*
X784960Y1054873D02*
X782528D01*
Y1055658D01*
X784960D01*
Y1054873D01*
D02*
G37*
G36*
X792301Y1056047D02*
X795084D01*
Y1055326D01*
X792153Y1051183D01*
X791515D01*
Y1055326D01*
X790646D01*
Y1056047D01*
X791515D01*
Y1057581D01*
X792301D01*
Y1056047D01*
D02*
G37*
G36*
X787669Y1052580D02*
X787678Y1052589D01*
X787725Y1052626D01*
X787780Y1052681D01*
X787872Y1052746D01*
X787974Y1052829D01*
X788103Y1052922D01*
X788251Y1053023D01*
X788418Y1053125D01*
X788427D01*
X788436Y1053134D01*
X788492Y1053171D01*
X788584Y1053218D01*
X788695Y1053273D01*
X788825Y1053338D01*
X788963Y1053402D01*
X789102Y1053467D01*
X789241Y1053523D01*
Y1052765D01*
X789231D01*
X789213Y1052746D01*
X789176Y1052737D01*
X789130Y1052709D01*
X789074Y1052681D01*
X789010Y1052644D01*
X788852Y1052552D01*
X788668Y1052450D01*
X788483Y1052321D01*
X788288Y1052173D01*
X788094Y1052016D01*
X788085Y1052006D01*
X788076Y1051997D01*
X788048Y1051969D01*
X788011Y1051942D01*
X787928Y1051849D01*
X787817Y1051738D01*
X787706Y1051609D01*
X787586Y1051461D01*
X787484Y1051313D01*
X787392Y1051156D01*
X786883D01*
Y1057581D01*
X787669D01*
Y1052580D01*
D02*
G37*
G36*
X795787Y1058072D02*
X795824Y1058053D01*
X795879Y1058035D01*
X795944Y1058007D01*
X796018Y1057970D01*
X796101Y1057933D01*
X796193Y1057887D01*
X796397Y1057776D01*
X796628Y1057646D01*
X796878Y1057480D01*
X797137Y1057295D01*
X797146D01*
X797164Y1057313D01*
X797210Y1057332D01*
X797257Y1057360D01*
X797331Y1057387D01*
X797405Y1057424D01*
X797497Y1057452D01*
X797599Y1057489D01*
X797710Y1057526D01*
X797830Y1057563D01*
X798098Y1057628D01*
X798394Y1057674D01*
X798551Y1057683D01*
X798708Y1057692D01*
X798791D01*
X798856Y1057683D01*
X798930D01*
X799023Y1057674D01*
X799124Y1057655D01*
X799235Y1057637D01*
X799476Y1057591D01*
X799744Y1057517D01*
X800021Y1057415D01*
X800151Y1057350D01*
X800289Y1057276D01*
X800298Y1057267D01*
X800317Y1057258D01*
X800354Y1057230D01*
X800400Y1057202D01*
X800465Y1057156D01*
X800530Y1057101D01*
X800687Y1056971D01*
X800863Y1056805D01*
X801038Y1056601D01*
X801214Y1056370D01*
X801371Y1056102D01*
Y1056093D01*
X801389Y1056065D01*
X801408Y1056028D01*
X801426Y1055973D01*
X801454Y1055899D01*
X801491Y1055816D01*
X801528Y1055714D01*
X801556Y1055603D01*
X801593Y1055483D01*
X801630Y1055353D01*
X801658Y1055215D01*
X801695Y1055057D01*
X801731Y1054734D01*
X801750Y1054392D01*
Y1054382D01*
Y1054345D01*
Y1054299D01*
X801741Y1054235D01*
Y1054151D01*
X801731Y1054050D01*
X801722Y1053939D01*
X801704Y1053819D01*
X801658Y1053550D01*
X801593Y1053264D01*
X801500Y1052959D01*
X801371Y1052663D01*
X801362Y1052654D01*
X801352Y1052626D01*
X801334Y1052589D01*
X801297Y1052533D01*
X801260Y1052469D01*
X801214Y1052395D01*
X801084Y1052219D01*
X800936Y1052034D01*
X800742Y1051840D01*
X800530Y1051646D01*
X800280Y1051479D01*
X800271Y1051470D01*
X800243Y1051461D01*
X800206Y1051442D01*
X800151Y1051415D01*
X800086Y1051387D01*
X800012Y1051350D01*
X799919Y1051313D01*
X799818Y1051276D01*
X799697Y1051239D01*
X799577Y1051202D01*
X799309Y1051137D01*
X799013Y1051091D01*
X798856Y1051073D01*
X798606D01*
X798542Y1051082D01*
X798459D01*
X798375Y1051091D01*
X798264Y1051110D01*
X798154Y1051128D01*
X797913Y1051174D01*
X797636Y1051248D01*
X797368Y1051359D01*
X797229Y1051424D01*
X797090Y1051498D01*
X797081Y1051507D01*
X797063Y1051516D01*
X797026Y1051544D01*
X796970Y1051572D01*
X796915Y1051618D01*
X796841Y1051674D01*
X796683Y1051803D01*
X796517Y1051969D01*
X796332Y1052173D01*
X796156Y1052413D01*
X796009Y1052681D01*
Y1052691D01*
X795990Y1052718D01*
X795972Y1052755D01*
X795953Y1052811D01*
X795916Y1052885D01*
X795888Y1052968D01*
X795851Y1053070D01*
X795814Y1053181D01*
X795787Y1053301D01*
X795750Y1053430D01*
X795713Y1053569D01*
X795685Y1053717D01*
X795648Y1054040D01*
X795629Y1054382D01*
Y1054392D01*
Y1054419D01*
Y1054456D01*
Y1054512D01*
X795639Y1054586D01*
Y1054669D01*
X795648Y1054762D01*
X795657Y1054854D01*
X795685Y1055076D01*
X795731Y1055316D01*
X795787Y1055566D01*
X795870Y1055806D01*
Y1055816D01*
X795879Y1055834D01*
X795898Y1055871D01*
X795916Y1055908D01*
X795944Y1055964D01*
X795972Y1056028D01*
X796046Y1056176D01*
X796147Y1056352D01*
X796277Y1056537D01*
X796425Y1056722D01*
X796591Y1056907D01*
X796582D01*
X796563Y1056925D01*
X796535Y1056944D01*
X796489Y1056971D01*
X796443Y1057008D01*
X796378Y1057045D01*
X796240Y1057128D01*
X796073Y1057230D01*
X795888Y1057332D01*
X795694Y1057415D01*
X795509Y1057498D01*
X795759Y1058081D01*
X795768D01*
X795787Y1058072D01*
D02*
G37*
G36*
X1397765Y1057180D02*
X1395333D01*
Y1057966D01*
X1397765D01*
Y1057180D01*
D02*
G37*
G36*
X1411171Y1059991D02*
X1411254D01*
X1411356Y1059982D01*
X1411467Y1059963D01*
X1411596Y1059945D01*
X1411864Y1059898D01*
X1412142Y1059824D01*
X1412419Y1059723D01*
X1412549Y1059658D01*
X1412678Y1059584D01*
X1412687Y1059575D01*
X1412706Y1059566D01*
X1412743Y1059538D01*
X1412780Y1059501D01*
X1412835Y1059464D01*
X1412900Y1059408D01*
X1412974Y1059344D01*
X1413048Y1059270D01*
X1413122Y1059186D01*
X1413205Y1059103D01*
X1413371Y1058891D01*
X1413529Y1058641D01*
X1413667Y1058364D01*
Y1058354D01*
X1413686Y1058327D01*
X1413695Y1058280D01*
X1413723Y1058225D01*
X1413741Y1058151D01*
X1413769Y1058058D01*
X1413806Y1057957D01*
X1413834Y1057846D01*
X1413861Y1057726D01*
X1413898Y1057587D01*
X1413945Y1057300D01*
X1413982Y1056977D01*
X1414000Y1056644D01*
Y1056635D01*
Y1056598D01*
Y1056542D01*
X1413991Y1056478D01*
Y1056385D01*
X1413982Y1056293D01*
X1413972Y1056172D01*
X1413954Y1056052D01*
X1413908Y1055784D01*
X1413843Y1055488D01*
X1413750Y1055192D01*
X1413621Y1054906D01*
X1413612Y1054896D01*
X1413603Y1054869D01*
X1413584Y1054832D01*
X1413547Y1054786D01*
X1413510Y1054721D01*
X1413464Y1054647D01*
X1413344Y1054481D01*
X1413186Y1054296D01*
X1413002Y1054111D01*
X1412789Y1053926D01*
X1412539Y1053769D01*
X1412530Y1053759D01*
X1412502Y1053750D01*
X1412465Y1053732D01*
X1412419Y1053704D01*
X1412345Y1053676D01*
X1412271Y1053648D01*
X1412179Y1053611D01*
X1412077Y1053574D01*
X1411966Y1053537D01*
X1411846Y1053500D01*
X1411587Y1053445D01*
X1411291Y1053399D01*
X1410986Y1053380D01*
X1410894D01*
X1410829Y1053390D01*
X1410746Y1053399D01*
X1410644Y1053408D01*
X1410542Y1053417D01*
X1410422Y1053445D01*
X1410172Y1053500D01*
X1409895Y1053584D01*
X1409756Y1053639D01*
X1409627Y1053704D01*
X1409498Y1053787D01*
X1409368Y1053870D01*
X1409359Y1053879D01*
X1409340Y1053889D01*
X1409303Y1053916D01*
X1409257Y1053963D01*
X1409211Y1054009D01*
X1409146Y1054074D01*
X1409082Y1054148D01*
X1409008Y1054222D01*
X1408934Y1054314D01*
X1408860Y1054425D01*
X1408776Y1054536D01*
X1408702Y1054656D01*
X1408638Y1054795D01*
X1408564Y1054933D01*
X1408508Y1055081D01*
X1408453Y1055248D01*
X1409285Y1055442D01*
Y1055433D01*
X1409294Y1055414D01*
X1409313Y1055377D01*
X1409331Y1055331D01*
X1409350Y1055276D01*
X1409377Y1055202D01*
X1409451Y1055054D01*
X1409544Y1054887D01*
X1409655Y1054721D01*
X1409793Y1054564D01*
X1409941Y1054425D01*
X1409960Y1054407D01*
X1410015Y1054370D01*
X1410108Y1054323D01*
X1410228Y1054259D01*
X1410385Y1054203D01*
X1410561Y1054148D01*
X1410773Y1054111D01*
X1411004Y1054101D01*
X1411078D01*
X1411125Y1054111D01*
X1411190D01*
X1411263Y1054120D01*
X1411439Y1054148D01*
X1411633Y1054185D01*
X1411837Y1054249D01*
X1412049Y1054342D01*
X1412243Y1054462D01*
X1412253D01*
X1412262Y1054481D01*
X1412327Y1054527D01*
X1412410Y1054601D01*
X1412512Y1054712D01*
X1412632Y1054850D01*
X1412743Y1055007D01*
X1412844Y1055202D01*
X1412937Y1055414D01*
Y1055424D01*
X1412946Y1055442D01*
X1412955Y1055470D01*
X1412965Y1055516D01*
X1412983Y1055571D01*
X1413002Y1055636D01*
X1413029Y1055793D01*
X1413066Y1055978D01*
X1413103Y1056182D01*
X1413122Y1056404D01*
X1413131Y1056644D01*
Y1056653D01*
Y1056681D01*
Y1056727D01*
Y1056783D01*
X1413122Y1056847D01*
Y1056931D01*
X1413112Y1057023D01*
X1413103Y1057125D01*
X1413076Y1057347D01*
X1413029Y1057587D01*
X1412974Y1057827D01*
X1412900Y1058068D01*
Y1058077D01*
X1412891Y1058095D01*
X1412872Y1058123D01*
X1412854Y1058169D01*
X1412798Y1058280D01*
X1412715Y1058410D01*
X1412613Y1058558D01*
X1412484Y1058715D01*
X1412336Y1058854D01*
X1412160Y1058983D01*
X1412151D01*
X1412133Y1058992D01*
X1412105Y1059011D01*
X1412068Y1059029D01*
X1412022Y1059048D01*
X1411966Y1059075D01*
X1411837Y1059131D01*
X1411670Y1059186D01*
X1411485Y1059233D01*
X1411282Y1059270D01*
X1411069Y1059279D01*
X1411004D01*
X1410949Y1059270D01*
X1410884D01*
X1410820Y1059260D01*
X1410653Y1059223D01*
X1410459Y1059177D01*
X1410265Y1059103D01*
X1410061Y1059002D01*
X1409960Y1058946D01*
X1409867Y1058872D01*
X1409858Y1058863D01*
X1409849Y1058854D01*
X1409821Y1058826D01*
X1409784Y1058798D01*
X1409747Y1058752D01*
X1409701Y1058697D01*
X1409645Y1058641D01*
X1409599Y1058567D01*
X1409544Y1058484D01*
X1409479Y1058391D01*
X1409424Y1058299D01*
X1409368Y1058188D01*
X1409322Y1058068D01*
X1409276Y1057938D01*
X1409229Y1057800D01*
X1409192Y1057652D01*
X1408342Y1057864D01*
Y1057874D01*
X1408351Y1057911D01*
X1408369Y1057966D01*
X1408397Y1058040D01*
X1408425Y1058123D01*
X1408462Y1058225D01*
X1408508Y1058336D01*
X1408564Y1058456D01*
X1408693Y1058715D01*
X1408860Y1058974D01*
X1408961Y1059103D01*
X1409063Y1059233D01*
X1409174Y1059344D01*
X1409303Y1059455D01*
X1409313Y1059464D01*
X1409331Y1059482D01*
X1409377Y1059501D01*
X1409424Y1059538D01*
X1409498Y1059584D01*
X1409572Y1059630D01*
X1409673Y1059677D01*
X1409775Y1059723D01*
X1409895Y1059778D01*
X1410025Y1059824D01*
X1410163Y1059871D01*
X1410311Y1059917D01*
X1410468Y1059954D01*
X1410635Y1059972D01*
X1410810Y1059991D01*
X1410995Y1060000D01*
X1411097D01*
X1411171Y1059991D01*
D02*
G37*
G36*
X1405106Y1058354D02*
X1407889D01*
Y1057633D01*
X1404958Y1053491D01*
X1404320D01*
Y1057633D01*
X1403451D01*
Y1058354D01*
X1404320D01*
Y1059889D01*
X1405106D01*
Y1058354D01*
D02*
G37*
G36*
X1392180D02*
X1394963D01*
Y1057633D01*
X1392033Y1053491D01*
X1391395D01*
Y1057633D01*
X1390526D01*
Y1058354D01*
X1391395D01*
Y1059889D01*
X1392180D01*
Y1058354D01*
D02*
G37*
G36*
X1402758Y1059880D02*
Y1059843D01*
Y1059787D01*
X1402748Y1059714D01*
X1402739Y1059630D01*
X1402720Y1059538D01*
X1402702Y1059445D01*
X1402665Y1059344D01*
Y1059334D01*
X1402656Y1059325D01*
X1402637Y1059270D01*
X1402600Y1059186D01*
X1402545Y1059075D01*
X1402471Y1058946D01*
X1402378Y1058798D01*
X1402277Y1058650D01*
X1402147Y1058493D01*
Y1058484D01*
X1402129Y1058475D01*
X1402083Y1058419D01*
X1401999Y1058336D01*
X1401879Y1058216D01*
X1401741Y1058077D01*
X1401565Y1057911D01*
X1401352Y1057726D01*
X1401121Y1057532D01*
X1401112Y1057522D01*
X1401075Y1057495D01*
X1401019Y1057448D01*
X1400955Y1057393D01*
X1400871Y1057319D01*
X1400770Y1057236D01*
X1400668Y1057143D01*
X1400548Y1057041D01*
X1400317Y1056820D01*
X1400085Y1056598D01*
X1399975Y1056487D01*
X1399873Y1056376D01*
X1399780Y1056274D01*
X1399706Y1056172D01*
Y1056163D01*
X1399688Y1056154D01*
X1399669Y1056126D01*
X1399651Y1056089D01*
X1399586Y1055987D01*
X1399512Y1055867D01*
X1399447Y1055719D01*
X1399383Y1055562D01*
X1399346Y1055387D01*
X1399327Y1055220D01*
Y1055211D01*
Y1055202D01*
X1399337Y1055146D01*
X1399346Y1055054D01*
X1399374Y1054952D01*
X1399411Y1054823D01*
X1399475Y1054693D01*
X1399559Y1054564D01*
X1399669Y1054434D01*
X1399688Y1054416D01*
X1399734Y1054379D01*
X1399799Y1054333D01*
X1399901Y1054268D01*
X1400030Y1054212D01*
X1400178Y1054157D01*
X1400354Y1054120D01*
X1400548Y1054111D01*
X1400603D01*
X1400640Y1054120D01*
X1400751Y1054129D01*
X1400881Y1054157D01*
X1401019Y1054194D01*
X1401176Y1054259D01*
X1401324Y1054342D01*
X1401463Y1054453D01*
X1401482Y1054471D01*
X1401519Y1054517D01*
X1401574Y1054591D01*
X1401629Y1054702D01*
X1401694Y1054832D01*
X1401750Y1054998D01*
X1401787Y1055183D01*
X1401805Y1055396D01*
X1402610Y1055313D01*
Y1055303D01*
X1402600Y1055276D01*
Y1055229D01*
X1402591Y1055165D01*
X1402573Y1055091D01*
X1402554Y1055007D01*
X1402526Y1054906D01*
X1402499Y1054804D01*
X1402425Y1054582D01*
X1402314Y1054360D01*
X1402249Y1054249D01*
X1402166Y1054138D01*
X1402083Y1054037D01*
X1401990Y1053944D01*
X1401981Y1053935D01*
X1401962Y1053926D01*
X1401935Y1053898D01*
X1401888Y1053870D01*
X1401833Y1053833D01*
X1401768Y1053796D01*
X1401694Y1053750D01*
X1401602Y1053704D01*
X1401500Y1053658D01*
X1401389Y1053611D01*
X1401269Y1053574D01*
X1401140Y1053537D01*
X1401001Y1053510D01*
X1400853Y1053482D01*
X1400696Y1053473D01*
X1400529Y1053464D01*
X1400437D01*
X1400372Y1053473D01*
X1400298Y1053482D01*
X1400206Y1053491D01*
X1400104Y1053510D01*
X1400002Y1053528D01*
X1399762Y1053593D01*
X1399521Y1053685D01*
X1399401Y1053741D01*
X1399281Y1053805D01*
X1399170Y1053889D01*
X1399068Y1053981D01*
X1399059Y1053990D01*
X1399041Y1054000D01*
X1399022Y1054037D01*
X1398985Y1054074D01*
X1398939Y1054120D01*
X1398893Y1054185D01*
X1398847Y1054249D01*
X1398791Y1054333D01*
X1398699Y1054508D01*
X1398606Y1054730D01*
X1398569Y1054841D01*
X1398551Y1054970D01*
X1398532Y1055100D01*
X1398523Y1055239D01*
Y1055257D01*
Y1055303D01*
X1398532Y1055377D01*
X1398542Y1055479D01*
X1398560Y1055590D01*
X1398597Y1055719D01*
X1398634Y1055858D01*
X1398689Y1055997D01*
X1398699Y1056015D01*
X1398717Y1056061D01*
X1398754Y1056135D01*
X1398810Y1056237D01*
X1398884Y1056348D01*
X1398976Y1056487D01*
X1399087Y1056625D01*
X1399216Y1056783D01*
X1399235Y1056801D01*
X1399281Y1056857D01*
X1399327Y1056903D01*
X1399374Y1056949D01*
X1399429Y1057004D01*
X1399503Y1057078D01*
X1399577Y1057152D01*
X1399669Y1057236D01*
X1399762Y1057328D01*
X1399873Y1057430D01*
X1399993Y1057532D01*
X1400123Y1057652D01*
X1400270Y1057772D01*
X1400418Y1057901D01*
X1400428Y1057911D01*
X1400446Y1057929D01*
X1400483Y1057957D01*
X1400529Y1057994D01*
X1400585Y1058049D01*
X1400650Y1058105D01*
X1400797Y1058225D01*
X1400955Y1058364D01*
X1401102Y1058502D01*
X1401232Y1058623D01*
X1401287Y1058669D01*
X1401334Y1058715D01*
X1401343Y1058724D01*
X1401371Y1058752D01*
X1401408Y1058789D01*
X1401454Y1058844D01*
X1401500Y1058909D01*
X1401555Y1058974D01*
X1401667Y1059131D01*
X1398514D01*
Y1059889D01*
X1402758D01*
Y1059880D01*
D02*
G37*
G36*
X1444278Y971681D02*
X1441846D01*
Y972467D01*
X1444278D01*
Y971681D01*
D02*
G37*
G36*
X1457878Y974492D02*
X1457952D01*
X1458045Y974483D01*
X1458146Y974473D01*
X1458248Y974464D01*
X1458479Y974427D01*
X1458729Y974372D01*
X1458969Y974298D01*
X1459200Y974196D01*
X1459210D01*
X1459228Y974178D01*
X1459256Y974159D01*
X1459293Y974141D01*
X1459395Y974067D01*
X1459515Y973965D01*
X1459653Y973836D01*
X1459783Y973688D01*
X1459912Y973503D01*
X1460014Y973299D01*
Y973290D01*
X1460023Y973271D01*
X1460033Y973234D01*
X1460051Y973188D01*
X1460069Y973133D01*
X1460088Y973059D01*
X1460116Y972976D01*
X1460134Y972874D01*
X1460153Y972763D01*
X1460180Y972643D01*
X1460199Y972513D01*
X1460217Y972375D01*
X1460236Y972217D01*
X1460245Y972051D01*
X1460254Y971875D01*
Y971691D01*
Y967992D01*
X1459404D01*
Y971691D01*
Y971700D01*
Y971728D01*
Y971774D01*
Y971829D01*
X1459395Y971894D01*
Y971977D01*
X1459385Y972153D01*
X1459367Y972356D01*
X1459339Y972560D01*
X1459302Y972754D01*
X1459284Y972837D01*
X1459256Y972920D01*
X1459247Y972939D01*
X1459228Y972985D01*
X1459182Y973050D01*
X1459126Y973142D01*
X1459062Y973234D01*
X1458969Y973336D01*
X1458858Y973438D01*
X1458729Y973521D01*
X1458710Y973530D01*
X1458664Y973558D01*
X1458581Y973586D01*
X1458470Y973623D01*
X1458340Y973669D01*
X1458174Y973697D01*
X1457999Y973725D01*
X1457804Y973734D01*
X1457712D01*
X1457656Y973725D01*
X1457573D01*
X1457490Y973715D01*
X1457287Y973678D01*
X1457065Y973632D01*
X1456852Y973558D01*
X1456649Y973456D01*
X1456556Y973392D01*
X1456473Y973318D01*
X1456464Y973308D01*
X1456454Y973299D01*
X1456436Y973271D01*
X1456408Y973234D01*
X1456380Y973179D01*
X1456344Y973124D01*
X1456306Y973040D01*
X1456270Y972957D01*
X1456232Y972856D01*
X1456205Y972735D01*
X1456168Y972597D01*
X1456140Y972449D01*
X1456112Y972282D01*
X1456094Y972107D01*
X1456075Y971903D01*
Y971691D01*
Y967992D01*
X1455225D01*
Y971691D01*
Y971700D01*
Y971737D01*
Y971783D01*
Y971848D01*
X1455234Y971931D01*
Y972023D01*
X1455243Y972134D01*
X1455253Y972245D01*
X1455280Y972495D01*
X1455317Y972754D01*
X1455373Y973003D01*
X1455410Y973124D01*
X1455447Y973234D01*
Y973244D01*
X1455456Y973262D01*
X1455474Y973290D01*
X1455493Y973327D01*
X1455548Y973429D01*
X1455632Y973558D01*
X1455742Y973706D01*
X1455872Y973854D01*
X1456038Y974011D01*
X1456242Y974150D01*
X1456251D01*
X1456270Y974168D01*
X1456297Y974178D01*
X1456344Y974205D01*
X1456399Y974233D01*
X1456473Y974261D01*
X1456547Y974288D01*
X1456639Y974325D01*
X1456741Y974362D01*
X1456852Y974390D01*
X1456972Y974418D01*
X1457111Y974446D01*
X1457250Y974464D01*
X1457397Y974483D01*
X1457730Y974501D01*
X1457814D01*
X1457878Y974492D01*
D02*
G37*
G36*
X1451619Y972856D02*
X1454402D01*
Y972134D01*
X1451471Y967992D01*
X1450833D01*
Y972134D01*
X1449964D01*
Y972856D01*
X1450833D01*
Y974390D01*
X1451619D01*
Y972856D01*
D02*
G37*
G36*
X1438694D02*
X1441477D01*
Y972134D01*
X1438546Y967992D01*
X1437908D01*
Y972134D01*
X1437039D01*
Y972856D01*
X1437908D01*
Y974390D01*
X1438694D01*
Y972856D01*
D02*
G37*
G36*
X1446987Y969388D02*
X1446996Y969398D01*
X1447042Y969435D01*
X1447098Y969490D01*
X1447190Y969555D01*
X1447292Y969638D01*
X1447422Y969730D01*
X1447569Y969832D01*
X1447736Y969934D01*
X1447745D01*
X1447754Y969943D01*
X1447810Y969980D01*
X1447902Y970026D01*
X1448013Y970082D01*
X1448143Y970146D01*
X1448281Y970211D01*
X1448420Y970276D01*
X1448559Y970331D01*
Y969573D01*
X1448549D01*
X1448531Y969555D01*
X1448494Y969546D01*
X1448448Y969518D01*
X1448392Y969490D01*
X1448328Y969453D01*
X1448170Y969361D01*
X1447986Y969259D01*
X1447801Y969129D01*
X1447606Y968982D01*
X1447412Y968824D01*
X1447403Y968815D01*
X1447394Y968806D01*
X1447366Y968778D01*
X1447329Y968750D01*
X1447246Y968658D01*
X1447135Y968547D01*
X1447024Y968418D01*
X1446904Y968270D01*
X1446802Y968122D01*
X1446710Y967964D01*
X1446201D01*
Y974390D01*
X1446987D01*
Y969388D01*
D02*
G37*
G36*
X1416972Y896842D02*
X1414540D01*
Y897627D01*
X1416972D01*
Y896842D01*
D02*
G37*
G36*
X1420910Y897175D02*
X1421779D01*
Y896453D01*
X1420910D01*
Y894919D01*
X1420124D01*
Y896453D01*
X1417341D01*
Y897175D01*
X1420272Y901317D01*
X1420910D01*
Y897175D01*
D02*
G37*
G36*
X1412617Y894919D02*
X1411831D01*
Y899920D01*
X1411822Y899911D01*
X1411776Y899874D01*
X1411720Y899819D01*
X1411628Y899754D01*
X1411526Y899671D01*
X1411396Y899578D01*
X1411249Y899477D01*
X1411082Y899375D01*
X1411073D01*
X1411064Y899366D01*
X1411008Y899329D01*
X1410916Y899283D01*
X1410805Y899227D01*
X1410675Y899162D01*
X1410537Y899098D01*
X1410398Y899033D01*
X1410259Y898977D01*
Y899735D01*
X1410269D01*
X1410287Y899754D01*
X1410324Y899763D01*
X1410370Y899791D01*
X1410426Y899819D01*
X1410490Y899856D01*
X1410648Y899948D01*
X1410833Y900050D01*
X1411017Y900179D01*
X1411212Y900327D01*
X1411406Y900484D01*
X1411415Y900494D01*
X1411424Y900503D01*
X1411452Y900531D01*
X1411489Y900558D01*
X1411572Y900651D01*
X1411683Y900762D01*
X1411794Y900891D01*
X1411914Y901039D01*
X1412016Y901187D01*
X1412108Y901344D01*
X1412617D01*
Y894919D01*
D02*
G37*
G36*
X1407985Y897175D02*
X1408854D01*
Y896453D01*
X1407985D01*
Y894919D01*
X1407199D01*
Y896453D01*
X1404416D01*
Y897175D01*
X1407347Y901317D01*
X1407985D01*
Y897175D01*
D02*
G37*
G36*
X1400958Y901418D02*
X1401041D01*
X1401125Y901409D01*
X1401236Y901391D01*
X1401346Y901372D01*
X1401587Y901326D01*
X1401864Y901252D01*
X1402132Y901141D01*
X1402271Y901076D01*
X1402410Y901002D01*
X1402419Y900993D01*
X1402437Y900984D01*
X1402475Y900956D01*
X1402530Y900928D01*
X1402585Y900882D01*
X1402659Y900826D01*
X1402817Y900697D01*
X1402983Y900531D01*
X1403168Y900327D01*
X1403344Y900087D01*
X1403492Y899819D01*
Y899809D01*
X1403510Y899782D01*
X1403528Y899745D01*
X1403547Y899689D01*
X1403584Y899615D01*
X1403612Y899532D01*
X1403649Y899430D01*
X1403686Y899319D01*
X1403713Y899199D01*
X1403750Y899070D01*
X1403787Y898931D01*
X1403815Y898783D01*
X1403852Y898460D01*
X1403871Y898118D01*
Y898108D01*
Y898081D01*
Y898044D01*
Y897988D01*
X1403861Y897914D01*
Y897831D01*
X1403852Y897738D01*
X1403843Y897646D01*
X1403815Y897424D01*
X1403769Y897184D01*
X1403713Y896934D01*
X1403630Y896694D01*
Y896684D01*
X1403621Y896666D01*
X1403602Y896629D01*
X1403584Y896592D01*
X1403556Y896536D01*
X1403528Y896472D01*
X1403454Y896324D01*
X1403353Y896148D01*
X1403223Y895963D01*
X1403076Y895778D01*
X1402909Y895593D01*
X1402918D01*
X1402937Y895575D01*
X1402964Y895556D01*
X1403011Y895529D01*
X1403057Y895492D01*
X1403122Y895455D01*
X1403260Y895372D01*
X1403427Y895270D01*
X1403612Y895168D01*
X1403806Y895085D01*
X1403991Y895002D01*
X1403741Y894419D01*
X1403732D01*
X1403713Y894428D01*
X1403676Y894447D01*
X1403621Y894465D01*
X1403556Y894493D01*
X1403482Y894530D01*
X1403399Y894567D01*
X1403307Y894613D01*
X1403103Y894724D01*
X1402872Y894854D01*
X1402622Y895020D01*
X1402363Y895205D01*
X1402354D01*
X1402336Y895187D01*
X1402290Y895168D01*
X1402243Y895140D01*
X1402169Y895113D01*
X1402095Y895076D01*
X1402003Y895048D01*
X1401901Y895011D01*
X1401790Y894974D01*
X1401670Y894937D01*
X1401402Y894872D01*
X1401106Y894826D01*
X1400949Y894817D01*
X1400792Y894808D01*
X1400709D01*
X1400644Y894817D01*
X1400570D01*
X1400477Y894826D01*
X1400376Y894845D01*
X1400265Y894863D01*
X1400024Y894909D01*
X1399756Y894983D01*
X1399479Y895085D01*
X1399350Y895150D01*
X1399211Y895224D01*
X1399202Y895233D01*
X1399183Y895242D01*
X1399146Y895270D01*
X1399100Y895298D01*
X1399035Y895344D01*
X1398970Y895399D01*
X1398813Y895529D01*
X1398638Y895695D01*
X1398462Y895899D01*
X1398286Y896130D01*
X1398129Y896398D01*
Y896407D01*
X1398111Y896435D01*
X1398092Y896472D01*
X1398074Y896527D01*
X1398046Y896601D01*
X1398009Y896684D01*
X1397972Y896786D01*
X1397944Y896897D01*
X1397907Y897017D01*
X1397870Y897147D01*
X1397842Y897285D01*
X1397805Y897443D01*
X1397769Y897766D01*
X1397750Y898108D01*
Y898118D01*
Y898155D01*
Y898201D01*
X1397759Y898265D01*
Y898349D01*
X1397769Y898450D01*
X1397778Y898561D01*
X1397796Y898681D01*
X1397842Y898950D01*
X1397907Y899236D01*
X1398000Y899541D01*
X1398129Y899837D01*
X1398138Y899846D01*
X1398147Y899874D01*
X1398166Y899911D01*
X1398203Y899967D01*
X1398240Y900031D01*
X1398286Y900105D01*
X1398416Y900281D01*
X1398564Y900466D01*
X1398758Y900660D01*
X1398970Y900854D01*
X1399220Y901021D01*
X1399229Y901030D01*
X1399257Y901039D01*
X1399294Y901058D01*
X1399350Y901085D01*
X1399414Y901113D01*
X1399488Y901150D01*
X1399581Y901187D01*
X1399682Y901224D01*
X1399803Y901261D01*
X1399923Y901298D01*
X1400191Y901363D01*
X1400487Y901409D01*
X1400644Y901427D01*
X1400894D01*
X1400958Y901418D01*
D02*
G37*
G36*
X788421Y1146610D02*
X788504Y1146601D01*
X788606Y1146592D01*
X788708Y1146583D01*
X788828Y1146555D01*
X789078Y1146499D01*
X789355Y1146416D01*
X789494Y1146361D01*
X789623Y1146296D01*
X789753Y1146213D01*
X789882Y1146130D01*
X789891Y1146120D01*
X789910Y1146111D01*
X789947Y1146084D01*
X789993Y1146037D01*
X790039Y1145991D01*
X790104Y1145926D01*
X790169Y1145852D01*
X790242Y1145778D01*
X790316Y1145686D01*
X790390Y1145575D01*
X790474Y1145464D01*
X790548Y1145344D01*
X790612Y1145205D01*
X790686Y1145066D01*
X790742Y1144919D01*
X790797Y1144752D01*
X789965Y1144558D01*
Y1144567D01*
X789956Y1144586D01*
X789937Y1144623D01*
X789919Y1144669D01*
X789900Y1144724D01*
X789873Y1144798D01*
X789799Y1144946D01*
X789706Y1145113D01*
X789595Y1145279D01*
X789457Y1145436D01*
X789309Y1145575D01*
X789290Y1145593D01*
X789235Y1145630D01*
X789142Y1145677D01*
X789022Y1145741D01*
X788865Y1145797D01*
X788689Y1145852D01*
X788477Y1145889D01*
X788245Y1145899D01*
X788171D01*
X788125Y1145889D01*
X788061D01*
X787987Y1145880D01*
X787811Y1145852D01*
X787617Y1145815D01*
X787413Y1145751D01*
X787201Y1145658D01*
X787007Y1145538D01*
X786997D01*
X786988Y1145519D01*
X786923Y1145473D01*
X786840Y1145399D01*
X786738Y1145288D01*
X786618Y1145150D01*
X786507Y1144993D01*
X786406Y1144798D01*
X786313Y1144586D01*
Y1144576D01*
X786304Y1144558D01*
X786295Y1144530D01*
X786285Y1144484D01*
X786267Y1144428D01*
X786248Y1144364D01*
X786221Y1144207D01*
X786184Y1144022D01*
X786147Y1143818D01*
X786128Y1143596D01*
X786119Y1143356D01*
Y1143347D01*
Y1143319D01*
Y1143273D01*
Y1143217D01*
X786128Y1143153D01*
Y1143069D01*
X786137Y1142977D01*
X786147Y1142875D01*
X786174Y1142653D01*
X786221Y1142413D01*
X786276Y1142173D01*
X786350Y1141932D01*
Y1141923D01*
X786359Y1141904D01*
X786378Y1141877D01*
X786396Y1141831D01*
X786452Y1141720D01*
X786535Y1141590D01*
X786637Y1141442D01*
X786766Y1141285D01*
X786914Y1141146D01*
X787090Y1141017D01*
X787099D01*
X787117Y1141008D01*
X787145Y1140989D01*
X787182Y1140971D01*
X787228Y1140952D01*
X787284Y1140924D01*
X787413Y1140869D01*
X787580Y1140814D01*
X787765Y1140767D01*
X787968Y1140730D01*
X788181Y1140721D01*
X788245D01*
X788301Y1140730D01*
X788366D01*
X788430Y1140740D01*
X788597Y1140777D01*
X788791Y1140823D01*
X788985Y1140897D01*
X789189Y1140998D01*
X789290Y1141054D01*
X789383Y1141128D01*
X789392Y1141137D01*
X789401Y1141146D01*
X789429Y1141174D01*
X789466Y1141202D01*
X789503Y1141248D01*
X789549Y1141303D01*
X789605Y1141359D01*
X789651Y1141433D01*
X789706Y1141516D01*
X789771Y1141609D01*
X789827Y1141701D01*
X789882Y1141812D01*
X789928Y1141932D01*
X789974Y1142062D01*
X790021Y1142200D01*
X790058Y1142348D01*
X790908Y1142136D01*
Y1142126D01*
X790899Y1142089D01*
X790881Y1142034D01*
X790853Y1141960D01*
X790825Y1141877D01*
X790788Y1141775D01*
X790742Y1141664D01*
X790686Y1141544D01*
X790557Y1141285D01*
X790390Y1141026D01*
X790289Y1140897D01*
X790187Y1140767D01*
X790076Y1140656D01*
X789947Y1140545D01*
X789937Y1140536D01*
X789919Y1140518D01*
X789873Y1140499D01*
X789827Y1140462D01*
X789753Y1140416D01*
X789678Y1140370D01*
X789577Y1140323D01*
X789475Y1140277D01*
X789355Y1140222D01*
X789225Y1140175D01*
X789087Y1140129D01*
X788939Y1140083D01*
X788782Y1140046D01*
X788615Y1140028D01*
X788440Y1140009D01*
X788255Y1140000D01*
X788153D01*
X788079Y1140009D01*
X787996D01*
X787894Y1140018D01*
X787783Y1140037D01*
X787654Y1140055D01*
X787386Y1140102D01*
X787108Y1140175D01*
X786831Y1140277D01*
X786701Y1140342D01*
X786572Y1140416D01*
X786563Y1140425D01*
X786544Y1140434D01*
X786507Y1140462D01*
X786470Y1140499D01*
X786415Y1140536D01*
X786350Y1140592D01*
X786276Y1140656D01*
X786202Y1140730D01*
X786128Y1140814D01*
X786045Y1140897D01*
X785879Y1141109D01*
X785721Y1141359D01*
X785583Y1141636D01*
Y1141646D01*
X785564Y1141673D01*
X785555Y1141720D01*
X785527Y1141775D01*
X785509Y1141849D01*
X785481Y1141941D01*
X785444Y1142043D01*
X785416Y1142154D01*
X785389Y1142274D01*
X785352Y1142413D01*
X785305Y1142700D01*
X785268Y1143023D01*
X785250Y1143356D01*
Y1143365D01*
Y1143402D01*
Y1143458D01*
X785259Y1143522D01*
Y1143615D01*
X785268Y1143707D01*
X785278Y1143828D01*
X785296Y1143948D01*
X785342Y1144216D01*
X785407Y1144512D01*
X785499Y1144808D01*
X785629Y1145094D01*
X785638Y1145103D01*
X785648Y1145131D01*
X785666Y1145168D01*
X785703Y1145214D01*
X785740Y1145279D01*
X785786Y1145353D01*
X785906Y1145519D01*
X786064Y1145704D01*
X786248Y1145889D01*
X786461Y1146074D01*
X786711Y1146231D01*
X786720Y1146241D01*
X786748Y1146250D01*
X786785Y1146268D01*
X786831Y1146296D01*
X786905Y1146324D01*
X786979Y1146352D01*
X787071Y1146389D01*
X787173Y1146425D01*
X787284Y1146462D01*
X787404Y1146499D01*
X787663Y1146555D01*
X787959Y1146601D01*
X788264Y1146620D01*
X788356D01*
X788421Y1146610D01*
D02*
G37*
G36*
X803917Y1142034D02*
X801485D01*
Y1142820D01*
X803917D01*
Y1142034D01*
D02*
G37*
G36*
X807513Y1140111D02*
X806727D01*
Y1145113D01*
X806718Y1145103D01*
X806672Y1145066D01*
X806617Y1145011D01*
X806524Y1144946D01*
X806422Y1144863D01*
X806293Y1144771D01*
X806145Y1144669D01*
X805978Y1144567D01*
X805969D01*
X805960Y1144558D01*
X805905Y1144521D01*
X805812Y1144475D01*
X805701Y1144419D01*
X805572Y1144354D01*
X805433Y1144290D01*
X805294Y1144225D01*
X805156Y1144170D01*
Y1144928D01*
X805165D01*
X805183Y1144946D01*
X805220Y1144956D01*
X805267Y1144983D01*
X805322Y1145011D01*
X805387Y1145048D01*
X805544Y1145140D01*
X805729Y1145242D01*
X805914Y1145371D01*
X806108Y1145519D01*
X806302Y1145677D01*
X806311Y1145686D01*
X806321Y1145695D01*
X806348Y1145723D01*
X806385Y1145751D01*
X806469Y1145843D01*
X806580Y1145954D01*
X806690Y1146084D01*
X806811Y1146231D01*
X806912Y1146379D01*
X807005Y1146536D01*
X807513D01*
Y1140111D01*
D02*
G37*
G36*
X798878Y1146527D02*
X798952Y1146518D01*
X799044Y1146509D01*
X799146Y1146490D01*
X799248Y1146472D01*
X799488Y1146407D01*
X799728Y1146315D01*
X799849Y1146259D01*
X799969Y1146194D01*
X800080Y1146111D01*
X800182Y1146019D01*
X800191Y1146010D01*
X800209Y1146000D01*
X800228Y1145963D01*
X800265Y1145926D01*
X800311Y1145880D01*
X800357Y1145815D01*
X800403Y1145751D01*
X800459Y1145667D01*
X800551Y1145492D01*
X800644Y1145270D01*
X800681Y1145159D01*
X800699Y1145030D01*
X800718Y1144900D01*
X800727Y1144761D01*
Y1144743D01*
Y1144697D01*
X800718Y1144623D01*
X800708Y1144521D01*
X800690Y1144410D01*
X800653Y1144281D01*
X800616Y1144142D01*
X800561Y1144003D01*
X800551Y1143985D01*
X800533Y1143939D01*
X800496Y1143865D01*
X800440Y1143763D01*
X800366Y1143652D01*
X800274Y1143513D01*
X800163Y1143374D01*
X800034Y1143217D01*
X800015Y1143199D01*
X799969Y1143143D01*
X799923Y1143097D01*
X799876Y1143051D01*
X799821Y1142995D01*
X799747Y1142922D01*
X799673Y1142848D01*
X799581Y1142764D01*
X799488Y1142672D01*
X799377Y1142570D01*
X799257Y1142468D01*
X799128Y1142348D01*
X798980Y1142228D01*
X798832Y1142099D01*
X798822Y1142089D01*
X798804Y1142071D01*
X798767Y1142043D01*
X798721Y1142006D01*
X798665Y1141951D01*
X798600Y1141895D01*
X798453Y1141775D01*
X798295Y1141636D01*
X798148Y1141498D01*
X798018Y1141377D01*
X797963Y1141331D01*
X797916Y1141285D01*
X797907Y1141276D01*
X797879Y1141248D01*
X797842Y1141211D01*
X797796Y1141156D01*
X797750Y1141091D01*
X797694Y1141026D01*
X797583Y1140869D01*
X800736D01*
Y1140111D01*
X796492D01*
Y1140120D01*
Y1140157D01*
Y1140212D01*
X796502Y1140286D01*
X796511Y1140370D01*
X796529Y1140462D01*
X796548Y1140555D01*
X796585Y1140656D01*
Y1140666D01*
X796594Y1140675D01*
X796613Y1140730D01*
X796650Y1140814D01*
X796705Y1140924D01*
X796779Y1141054D01*
X796872Y1141202D01*
X796973Y1141350D01*
X797103Y1141507D01*
Y1141516D01*
X797121Y1141525D01*
X797168Y1141581D01*
X797251Y1141664D01*
X797371Y1141784D01*
X797510Y1141923D01*
X797685Y1142089D01*
X797898Y1142274D01*
X798129Y1142468D01*
X798138Y1142478D01*
X798175Y1142505D01*
X798231Y1142552D01*
X798295Y1142607D01*
X798379Y1142681D01*
X798480Y1142764D01*
X798582Y1142857D01*
X798702Y1142958D01*
X798933Y1143180D01*
X799165Y1143402D01*
X799276Y1143513D01*
X799377Y1143624D01*
X799470Y1143726D01*
X799544Y1143828D01*
Y1143837D01*
X799562Y1143846D01*
X799581Y1143874D01*
X799599Y1143911D01*
X799664Y1144012D01*
X799738Y1144133D01*
X799802Y1144281D01*
X799867Y1144438D01*
X799904Y1144613D01*
X799923Y1144780D01*
Y1144789D01*
Y1144798D01*
X799913Y1144854D01*
X799904Y1144946D01*
X799876Y1145048D01*
X799839Y1145177D01*
X799775Y1145307D01*
X799691Y1145436D01*
X799581Y1145566D01*
X799562Y1145584D01*
X799516Y1145621D01*
X799451Y1145667D01*
X799349Y1145732D01*
X799220Y1145788D01*
X799072Y1145843D01*
X798896Y1145880D01*
X798702Y1145889D01*
X798647D01*
X798610Y1145880D01*
X798499Y1145871D01*
X798369Y1145843D01*
X798231Y1145806D01*
X798074Y1145741D01*
X797926Y1145658D01*
X797787Y1145547D01*
X797768Y1145529D01*
X797731Y1145482D01*
X797676Y1145408D01*
X797620Y1145298D01*
X797556Y1145168D01*
X797500Y1145002D01*
X797463Y1144817D01*
X797445Y1144604D01*
X796640Y1144687D01*
Y1144697D01*
X796650Y1144724D01*
Y1144771D01*
X796659Y1144835D01*
X796677Y1144909D01*
X796696Y1144993D01*
X796724Y1145094D01*
X796751Y1145196D01*
X796825Y1145418D01*
X796936Y1145640D01*
X797001Y1145751D01*
X797084Y1145862D01*
X797168Y1145963D01*
X797260Y1146056D01*
X797269Y1146065D01*
X797288Y1146074D01*
X797315Y1146102D01*
X797362Y1146130D01*
X797417Y1146167D01*
X797482Y1146204D01*
X797556Y1146250D01*
X797648Y1146296D01*
X797750Y1146342D01*
X797861Y1146389D01*
X797981Y1146425D01*
X798111Y1146462D01*
X798249Y1146490D01*
X798397Y1146518D01*
X798554Y1146527D01*
X798721Y1146536D01*
X798813D01*
X798878Y1146527D01*
D02*
G37*
G36*
X794930Y1142367D02*
X795799D01*
Y1141646D01*
X794930D01*
Y1140111D01*
X794144D01*
Y1141646D01*
X791361D01*
Y1142367D01*
X794292Y1146509D01*
X794930D01*
Y1142367D01*
D02*
G37*
G36*
X784710Y1302372D02*
X782278D01*
Y1303158D01*
X784710D01*
Y1302372D01*
D02*
G37*
G36*
X792051Y1303547D02*
X794834D01*
Y1302825D01*
X791903Y1298683D01*
X791265D01*
Y1302825D01*
X790396D01*
Y1303547D01*
X791265D01*
Y1305081D01*
X792051D01*
Y1303547D01*
D02*
G37*
G36*
X787419Y1300080D02*
X787428Y1300089D01*
X787474Y1300126D01*
X787530Y1300181D01*
X787622Y1300246D01*
X787724Y1300329D01*
X787853Y1300422D01*
X788001Y1300523D01*
X788168Y1300625D01*
X788177D01*
X788186Y1300634D01*
X788242Y1300671D01*
X788334Y1300717D01*
X788445Y1300773D01*
X788575Y1300838D01*
X788713Y1300903D01*
X788852Y1300967D01*
X788991Y1301023D01*
Y1300264D01*
X788981D01*
X788963Y1300246D01*
X788926Y1300237D01*
X788880Y1300209D01*
X788824Y1300181D01*
X788760Y1300144D01*
X788602Y1300052D01*
X788417Y1299950D01*
X788232Y1299821D01*
X788038Y1299673D01*
X787844Y1299516D01*
X787835Y1299506D01*
X787826Y1299497D01*
X787798Y1299469D01*
X787761Y1299442D01*
X787678Y1299349D01*
X787567Y1299238D01*
X787456Y1299109D01*
X787336Y1298961D01*
X787234Y1298813D01*
X787142Y1298656D01*
X786633D01*
Y1305081D01*
X787419D01*
Y1300080D01*
D02*
G37*
G36*
X779468D02*
X779477Y1300089D01*
X779523Y1300126D01*
X779579Y1300181D01*
X779671Y1300246D01*
X779773Y1300329D01*
X779902Y1300422D01*
X780050Y1300523D01*
X780217Y1300625D01*
X780226D01*
X780235Y1300634D01*
X780291Y1300671D01*
X780383Y1300717D01*
X780494Y1300773D01*
X780623Y1300838D01*
X780762Y1300903D01*
X780901Y1300967D01*
X781040Y1301023D01*
Y1300264D01*
X781030D01*
X781012Y1300246D01*
X780975Y1300237D01*
X780928Y1300209D01*
X780873Y1300181D01*
X780808Y1300144D01*
X780651Y1300052D01*
X780466Y1299950D01*
X780281Y1299821D01*
X780087Y1299673D01*
X779893Y1299516D01*
X779884Y1299506D01*
X779874Y1299497D01*
X779847Y1299469D01*
X779810Y1299442D01*
X779727Y1299349D01*
X779616Y1299238D01*
X779505Y1299109D01*
X779385Y1298961D01*
X779283Y1298813D01*
X779190Y1298656D01*
X778682D01*
Y1305081D01*
X779468D01*
Y1300080D01*
D02*
G37*
G36*
X795537Y1305571D02*
X795574Y1305553D01*
X795629Y1305535D01*
X795694Y1305507D01*
X795768Y1305470D01*
X795851Y1305433D01*
X795943Y1305387D01*
X796147Y1305276D01*
X796378Y1305146D01*
X796628Y1304980D01*
X796886Y1304795D01*
X796896D01*
X796914Y1304813D01*
X796960Y1304832D01*
X797007Y1304860D01*
X797081Y1304887D01*
X797154Y1304924D01*
X797247Y1304952D01*
X797349Y1304989D01*
X797460Y1305026D01*
X797580Y1305063D01*
X797848Y1305128D01*
X798144Y1305174D01*
X798301Y1305183D01*
X798458Y1305192D01*
X798541D01*
X798606Y1305183D01*
X798680D01*
X798773Y1305174D01*
X798874Y1305155D01*
X798985Y1305137D01*
X799226Y1305091D01*
X799494Y1305017D01*
X799771Y1304915D01*
X799901Y1304850D01*
X800039Y1304776D01*
X800048Y1304767D01*
X800067Y1304758D01*
X800104Y1304730D01*
X800150Y1304702D01*
X800215Y1304656D01*
X800280Y1304601D01*
X800437Y1304471D01*
X800612Y1304305D01*
X800788Y1304101D01*
X800964Y1303870D01*
X801121Y1303602D01*
Y1303593D01*
X801139Y1303565D01*
X801158Y1303528D01*
X801176Y1303473D01*
X801204Y1303399D01*
X801241Y1303316D01*
X801278Y1303214D01*
X801306Y1303103D01*
X801343Y1302983D01*
X801380Y1302853D01*
X801407Y1302715D01*
X801444Y1302557D01*
X801481Y1302234D01*
X801500Y1301892D01*
Y1301882D01*
Y1301846D01*
Y1301799D01*
X801491Y1301735D01*
Y1301651D01*
X801481Y1301550D01*
X801472Y1301439D01*
X801454Y1301319D01*
X801407Y1301050D01*
X801343Y1300764D01*
X801250Y1300459D01*
X801121Y1300163D01*
X801112Y1300154D01*
X801102Y1300126D01*
X801084Y1300089D01*
X801047Y1300033D01*
X801010Y1299969D01*
X800964Y1299895D01*
X800834Y1299719D01*
X800686Y1299534D01*
X800492Y1299340D01*
X800280Y1299146D01*
X800030Y1298979D01*
X800021Y1298970D01*
X799993Y1298961D01*
X799956Y1298942D01*
X799901Y1298915D01*
X799836Y1298887D01*
X799762Y1298850D01*
X799669Y1298813D01*
X799568Y1298776D01*
X799447Y1298739D01*
X799327Y1298702D01*
X799059Y1298637D01*
X798763Y1298591D01*
X798606Y1298573D01*
X798356D01*
X798292Y1298582D01*
X798208D01*
X798125Y1298591D01*
X798014Y1298609D01*
X797903Y1298628D01*
X797663Y1298674D01*
X797386Y1298748D01*
X797118Y1298859D01*
X796979Y1298924D01*
X796840Y1298998D01*
X796831Y1299007D01*
X796813Y1299016D01*
X796776Y1299044D01*
X796720Y1299072D01*
X796665Y1299118D01*
X796591Y1299173D01*
X796433Y1299303D01*
X796267Y1299469D01*
X796082Y1299673D01*
X795906Y1299913D01*
X795759Y1300181D01*
Y1300190D01*
X795740Y1300218D01*
X795722Y1300255D01*
X795703Y1300311D01*
X795666Y1300385D01*
X795638Y1300468D01*
X795601Y1300570D01*
X795564Y1300681D01*
X795537Y1300801D01*
X795500Y1300930D01*
X795463Y1301069D01*
X795435Y1301217D01*
X795398Y1301540D01*
X795379Y1301882D01*
Y1301892D01*
Y1301920D01*
Y1301956D01*
Y1302012D01*
X795389Y1302086D01*
Y1302169D01*
X795398Y1302262D01*
X795407Y1302354D01*
X795435Y1302576D01*
X795481Y1302816D01*
X795537Y1303066D01*
X795620Y1303306D01*
Y1303316D01*
X795629Y1303334D01*
X795648Y1303371D01*
X795666Y1303408D01*
X795694Y1303463D01*
X795722Y1303528D01*
X795795Y1303676D01*
X795897Y1303852D01*
X796027Y1304037D01*
X796174Y1304222D01*
X796341Y1304406D01*
X796332D01*
X796313Y1304425D01*
X796285Y1304444D01*
X796239Y1304471D01*
X796193Y1304508D01*
X796128Y1304545D01*
X795990Y1304628D01*
X795823Y1304730D01*
X795638Y1304832D01*
X795444Y1304915D01*
X795259Y1304998D01*
X795509Y1305581D01*
X795518D01*
X795537Y1305571D01*
D02*
G37*
G36*
X757404Y1227533D02*
X754972D01*
Y1228319D01*
X757404D01*
Y1227533D01*
D02*
G37*
G36*
X744025Y1228309D02*
Y1228300D01*
Y1228263D01*
Y1228217D01*
Y1228152D01*
X744016Y1228069D01*
Y1227977D01*
X744007Y1227866D01*
X743997Y1227755D01*
X743970Y1227505D01*
X743933Y1227246D01*
X743877Y1226997D01*
X743840Y1226876D01*
X743803Y1226766D01*
Y1226756D01*
X743794Y1226738D01*
X743776Y1226710D01*
X743757Y1226673D01*
X743702Y1226571D01*
X743618Y1226442D01*
X743508Y1226294D01*
X743378Y1226146D01*
X743212Y1225989D01*
X743008Y1225850D01*
X742999D01*
X742980Y1225832D01*
X742953Y1225822D01*
X742906Y1225795D01*
X742851Y1225767D01*
X742777Y1225739D01*
X742703Y1225712D01*
X742611Y1225675D01*
X742509Y1225638D01*
X742398Y1225610D01*
X742278Y1225582D01*
X742139Y1225554D01*
X742000Y1225536D01*
X741852Y1225517D01*
X741520Y1225499D01*
X741436D01*
X741372Y1225508D01*
X741298D01*
X741205Y1225517D01*
X741104Y1225527D01*
X741002Y1225536D01*
X740771Y1225573D01*
X740521Y1225628D01*
X740281Y1225702D01*
X740050Y1225804D01*
X740040D01*
X740022Y1225822D01*
X739994Y1225841D01*
X739957Y1225859D01*
X739855Y1225933D01*
X739735Y1226035D01*
X739597Y1226164D01*
X739467Y1226312D01*
X739338Y1226497D01*
X739236Y1226701D01*
Y1226710D01*
X739227Y1226729D01*
X739218Y1226766D01*
X739199Y1226812D01*
X739181Y1226867D01*
X739162Y1226941D01*
X739134Y1227024D01*
X739116Y1227126D01*
X739097Y1227237D01*
X739070Y1227357D01*
X739051Y1227487D01*
X739033Y1227625D01*
X739014Y1227783D01*
X739005Y1227949D01*
X738996Y1228125D01*
Y1228309D01*
Y1232008D01*
X739846D01*
Y1228309D01*
Y1228300D01*
Y1228272D01*
Y1228226D01*
Y1228171D01*
X739855Y1228106D01*
Y1228023D01*
X739865Y1227847D01*
X739883Y1227644D01*
X739911Y1227440D01*
X739948Y1227246D01*
X739966Y1227163D01*
X739994Y1227080D01*
X740003Y1227061D01*
X740022Y1227015D01*
X740068Y1226950D01*
X740124Y1226858D01*
X740188Y1226766D01*
X740281Y1226664D01*
X740392Y1226562D01*
X740521Y1226479D01*
X740540Y1226470D01*
X740586Y1226442D01*
X740669Y1226414D01*
X740780Y1226377D01*
X740910Y1226331D01*
X741076Y1226303D01*
X741252Y1226275D01*
X741446Y1226266D01*
X741538D01*
X741594Y1226275D01*
X741677D01*
X741760Y1226285D01*
X741964Y1226322D01*
X742185Y1226368D01*
X742398Y1226442D01*
X742601Y1226544D01*
X742694Y1226608D01*
X742777Y1226682D01*
X742786Y1226692D01*
X742796Y1226701D01*
X742814Y1226729D01*
X742842Y1226766D01*
X742869Y1226821D01*
X742906Y1226876D01*
X742943Y1226960D01*
X742980Y1227043D01*
X743018Y1227144D01*
X743045Y1227265D01*
X743082Y1227403D01*
X743110Y1227551D01*
X743138Y1227718D01*
X743156Y1227893D01*
X743175Y1228097D01*
Y1228309D01*
Y1232008D01*
X744025D01*
Y1228309D01*
D02*
G37*
G36*
X761000Y1225610D02*
X760214D01*
Y1230612D01*
X760205Y1230602D01*
X760159Y1230565D01*
X760103Y1230510D01*
X760011Y1230445D01*
X759909Y1230362D01*
X759780Y1230269D01*
X759632Y1230168D01*
X759465Y1230066D01*
X759456D01*
X759447Y1230057D01*
X759391Y1230020D01*
X759299Y1229974D01*
X759188Y1229918D01*
X759059Y1229854D01*
X758920Y1229789D01*
X758781Y1229724D01*
X758643Y1229669D01*
Y1230427D01*
X758652D01*
X758670Y1230445D01*
X758707Y1230454D01*
X758754Y1230482D01*
X758809Y1230510D01*
X758874Y1230547D01*
X759031Y1230639D01*
X759216Y1230741D01*
X759401Y1230871D01*
X759595Y1231018D01*
X759789Y1231176D01*
X759798Y1231185D01*
X759808Y1231194D01*
X759835Y1231222D01*
X759872Y1231250D01*
X759955Y1231342D01*
X760066Y1231453D01*
X760177Y1231582D01*
X760297Y1231730D01*
X760399Y1231878D01*
X760492Y1232036D01*
X761000D01*
Y1225610D01*
D02*
G37*
G36*
X753049D02*
X752263D01*
Y1230612D01*
X752254Y1230602D01*
X752208Y1230565D01*
X752152Y1230510D01*
X752060Y1230445D01*
X751958Y1230362D01*
X751829Y1230269D01*
X751681Y1230168D01*
X751514Y1230066D01*
X751505D01*
X751496Y1230057D01*
X751440Y1230020D01*
X751348Y1229974D01*
X751237Y1229918D01*
X751107Y1229854D01*
X750969Y1229789D01*
X750830Y1229724D01*
X750691Y1229669D01*
Y1230427D01*
X750701D01*
X750719Y1230445D01*
X750756Y1230454D01*
X750802Y1230482D01*
X750858Y1230510D01*
X750922Y1230547D01*
X751080Y1230639D01*
X751264Y1230741D01*
X751449Y1230871D01*
X751644Y1231018D01*
X751838Y1231176D01*
X751847Y1231185D01*
X751856Y1231194D01*
X751884Y1231222D01*
X751921Y1231250D01*
X752004Y1231342D01*
X752115Y1231453D01*
X752226Y1231582D01*
X752346Y1231730D01*
X752448Y1231878D01*
X752540Y1232036D01*
X753049D01*
Y1225610D01*
D02*
G37*
G36*
X748417Y1227866D02*
X749286D01*
Y1227144D01*
X748417D01*
Y1225610D01*
X747631D01*
Y1227144D01*
X744848D01*
Y1227866D01*
X747779Y1232008D01*
X748417D01*
Y1227866D01*
D02*
G37*
G36*
X1397515Y1304430D02*
X1395083D01*
Y1305216D01*
X1397515D01*
Y1304430D01*
D02*
G37*
G36*
X1410921Y1307241D02*
X1411004D01*
X1411106Y1307232D01*
X1411217Y1307213D01*
X1411346Y1307195D01*
X1411614Y1307148D01*
X1411892Y1307074D01*
X1412169Y1306973D01*
X1412298Y1306908D01*
X1412428Y1306834D01*
X1412437Y1306825D01*
X1412456Y1306815D01*
X1412493Y1306788D01*
X1412530Y1306751D01*
X1412585Y1306714D01*
X1412650Y1306658D01*
X1412724Y1306594D01*
X1412798Y1306520D01*
X1412872Y1306436D01*
X1412955Y1306353D01*
X1413121Y1306141D01*
X1413279Y1305891D01*
X1413417Y1305614D01*
Y1305604D01*
X1413436Y1305577D01*
X1413445Y1305530D01*
X1413473Y1305475D01*
X1413491Y1305401D01*
X1413519Y1305309D01*
X1413556Y1305207D01*
X1413584Y1305096D01*
X1413611Y1304976D01*
X1413648Y1304837D01*
X1413695Y1304550D01*
X1413732Y1304227D01*
X1413750Y1303894D01*
Y1303885D01*
Y1303848D01*
Y1303792D01*
X1413741Y1303728D01*
Y1303635D01*
X1413732Y1303543D01*
X1413722Y1303422D01*
X1413704Y1303302D01*
X1413658Y1303034D01*
X1413593Y1302738D01*
X1413500Y1302442D01*
X1413371Y1302156D01*
X1413362Y1302146D01*
X1413353Y1302119D01*
X1413334Y1302082D01*
X1413297Y1302036D01*
X1413260Y1301971D01*
X1413214Y1301897D01*
X1413094Y1301730D01*
X1412936Y1301546D01*
X1412751Y1301361D01*
X1412539Y1301176D01*
X1412289Y1301019D01*
X1412280Y1301009D01*
X1412252Y1301000D01*
X1412215Y1300982D01*
X1412169Y1300954D01*
X1412095Y1300926D01*
X1412021Y1300898D01*
X1411929Y1300861D01*
X1411827Y1300824D01*
X1411716Y1300787D01*
X1411596Y1300750D01*
X1411337Y1300695D01*
X1411041Y1300649D01*
X1410736Y1300630D01*
X1410643D01*
X1410579Y1300639D01*
X1410496Y1300649D01*
X1410394Y1300658D01*
X1410292Y1300667D01*
X1410172Y1300695D01*
X1409922Y1300750D01*
X1409645Y1300834D01*
X1409506Y1300889D01*
X1409377Y1300954D01*
X1409247Y1301037D01*
X1409118Y1301120D01*
X1409109Y1301129D01*
X1409090Y1301139D01*
X1409053Y1301167D01*
X1409007Y1301213D01*
X1408961Y1301259D01*
X1408896Y1301324D01*
X1408831Y1301398D01*
X1408757Y1301472D01*
X1408683Y1301564D01*
X1408609Y1301675D01*
X1408526Y1301786D01*
X1408452Y1301906D01*
X1408388Y1302045D01*
X1408314Y1302184D01*
X1408258Y1302331D01*
X1408203Y1302498D01*
X1409035Y1302692D01*
Y1302683D01*
X1409044Y1302664D01*
X1409062Y1302627D01*
X1409081Y1302581D01*
X1409099Y1302526D01*
X1409127Y1302452D01*
X1409201Y1302304D01*
X1409294Y1302137D01*
X1409405Y1301971D01*
X1409543Y1301814D01*
X1409691Y1301675D01*
X1409710Y1301656D01*
X1409765Y1301620D01*
X1409858Y1301573D01*
X1409978Y1301509D01*
X1410135Y1301453D01*
X1410311Y1301398D01*
X1410523Y1301361D01*
X1410755Y1301351D01*
X1410828D01*
X1410875Y1301361D01*
X1410939D01*
X1411013Y1301370D01*
X1411189Y1301398D01*
X1411383Y1301435D01*
X1411587Y1301499D01*
X1411799Y1301592D01*
X1411993Y1301712D01*
X1412003D01*
X1412012Y1301730D01*
X1412077Y1301777D01*
X1412160Y1301851D01*
X1412262Y1301962D01*
X1412382Y1302100D01*
X1412493Y1302258D01*
X1412594Y1302452D01*
X1412687Y1302664D01*
Y1302673D01*
X1412696Y1302692D01*
X1412705Y1302720D01*
X1412715Y1302766D01*
X1412733Y1302821D01*
X1412751Y1302886D01*
X1412779Y1303043D01*
X1412816Y1303228D01*
X1412853Y1303432D01*
X1412872Y1303654D01*
X1412881Y1303894D01*
Y1303903D01*
Y1303931D01*
Y1303977D01*
Y1304033D01*
X1412872Y1304097D01*
Y1304181D01*
X1412863Y1304273D01*
X1412853Y1304375D01*
X1412825Y1304597D01*
X1412779Y1304837D01*
X1412724Y1305077D01*
X1412650Y1305318D01*
Y1305327D01*
X1412641Y1305345D01*
X1412622Y1305373D01*
X1412604Y1305419D01*
X1412548Y1305530D01*
X1412465Y1305660D01*
X1412363Y1305808D01*
X1412234Y1305965D01*
X1412086Y1306104D01*
X1411910Y1306233D01*
X1411901D01*
X1411882Y1306242D01*
X1411855Y1306261D01*
X1411818Y1306279D01*
X1411772Y1306298D01*
X1411716Y1306326D01*
X1411587Y1306381D01*
X1411420Y1306436D01*
X1411235Y1306483D01*
X1411032Y1306520D01*
X1410819Y1306529D01*
X1410755D01*
X1410699Y1306520D01*
X1410634D01*
X1410570Y1306510D01*
X1410403Y1306474D01*
X1410209Y1306427D01*
X1410015Y1306353D01*
X1409811Y1306252D01*
X1409710Y1306196D01*
X1409617Y1306122D01*
X1409608Y1306113D01*
X1409599Y1306104D01*
X1409571Y1306076D01*
X1409534Y1306048D01*
X1409497Y1306002D01*
X1409451Y1305947D01*
X1409395Y1305891D01*
X1409349Y1305817D01*
X1409294Y1305734D01*
X1409229Y1305641D01*
X1409173Y1305549D01*
X1409118Y1305438D01*
X1409072Y1305318D01*
X1409026Y1305188D01*
X1408979Y1305050D01*
X1408942Y1304902D01*
X1408092Y1305114D01*
Y1305124D01*
X1408101Y1305161D01*
X1408120Y1305216D01*
X1408147Y1305290D01*
X1408175Y1305373D01*
X1408212Y1305475D01*
X1408258Y1305586D01*
X1408314Y1305706D01*
X1408443Y1305965D01*
X1408609Y1306224D01*
X1408711Y1306353D01*
X1408813Y1306483D01*
X1408924Y1306594D01*
X1409053Y1306705D01*
X1409062Y1306714D01*
X1409081Y1306732D01*
X1409127Y1306751D01*
X1409173Y1306788D01*
X1409247Y1306834D01*
X1409321Y1306880D01*
X1409423Y1306927D01*
X1409525Y1306973D01*
X1409645Y1307028D01*
X1409774Y1307074D01*
X1409913Y1307121D01*
X1410061Y1307167D01*
X1410218Y1307204D01*
X1410385Y1307222D01*
X1410560Y1307241D01*
X1410745Y1307250D01*
X1410847D01*
X1410921Y1307241D01*
D02*
G37*
G36*
X1404856Y1305604D02*
X1407639D01*
Y1304883D01*
X1404708Y1300741D01*
X1404070D01*
Y1304883D01*
X1403201D01*
Y1305604D01*
X1404070D01*
Y1307139D01*
X1404856D01*
Y1305604D01*
D02*
G37*
G36*
X1402507Y1307130D02*
Y1307093D01*
Y1307037D01*
X1402498Y1306964D01*
X1402489Y1306880D01*
X1402470Y1306788D01*
X1402452Y1306695D01*
X1402415Y1306594D01*
Y1306584D01*
X1402406Y1306575D01*
X1402387Y1306520D01*
X1402350Y1306436D01*
X1402295Y1306326D01*
X1402221Y1306196D01*
X1402128Y1306048D01*
X1402027Y1305900D01*
X1401897Y1305743D01*
Y1305734D01*
X1401879Y1305725D01*
X1401832Y1305669D01*
X1401749Y1305586D01*
X1401629Y1305466D01*
X1401490Y1305327D01*
X1401315Y1305161D01*
X1401102Y1304976D01*
X1400871Y1304781D01*
X1400862Y1304772D01*
X1400825Y1304745D01*
X1400769Y1304698D01*
X1400704Y1304643D01*
X1400621Y1304569D01*
X1400520Y1304486D01*
X1400418Y1304393D01*
X1400298Y1304292D01*
X1400067Y1304070D01*
X1399835Y1303848D01*
X1399724Y1303737D01*
X1399623Y1303626D01*
X1399530Y1303524D01*
X1399456Y1303422D01*
Y1303413D01*
X1399438Y1303404D01*
X1399419Y1303376D01*
X1399401Y1303339D01*
X1399336Y1303237D01*
X1399262Y1303117D01*
X1399198Y1302969D01*
X1399133Y1302812D01*
X1399096Y1302637D01*
X1399077Y1302470D01*
Y1302461D01*
Y1302452D01*
X1399086Y1302396D01*
X1399096Y1302304D01*
X1399124Y1302202D01*
X1399160Y1302073D01*
X1399225Y1301943D01*
X1399308Y1301814D01*
X1399419Y1301684D01*
X1399438Y1301666D01*
X1399484Y1301629D01*
X1399549Y1301582D01*
X1399651Y1301518D01*
X1399780Y1301462D01*
X1399928Y1301407D01*
X1400103Y1301370D01*
X1400298Y1301361D01*
X1400353D01*
X1400390Y1301370D01*
X1400501Y1301379D01*
X1400630Y1301407D01*
X1400769Y1301444D01*
X1400926Y1301509D01*
X1401074Y1301592D01*
X1401213Y1301703D01*
X1401232Y1301721D01*
X1401268Y1301767D01*
X1401324Y1301841D01*
X1401379Y1301952D01*
X1401444Y1302082D01*
X1401500Y1302248D01*
X1401537Y1302433D01*
X1401555Y1302646D01*
X1402359Y1302563D01*
Y1302553D01*
X1402350Y1302526D01*
Y1302479D01*
X1402341Y1302415D01*
X1402323Y1302341D01*
X1402304Y1302258D01*
X1402276Y1302156D01*
X1402249Y1302054D01*
X1402175Y1301832D01*
X1402064Y1301610D01*
X1401999Y1301499D01*
X1401916Y1301388D01*
X1401832Y1301287D01*
X1401740Y1301194D01*
X1401731Y1301185D01*
X1401712Y1301176D01*
X1401685Y1301148D01*
X1401638Y1301120D01*
X1401583Y1301083D01*
X1401518Y1301046D01*
X1401444Y1301000D01*
X1401352Y1300954D01*
X1401250Y1300908D01*
X1401139Y1300861D01*
X1401019Y1300824D01*
X1400889Y1300787D01*
X1400751Y1300760D01*
X1400603Y1300732D01*
X1400446Y1300723D01*
X1400279Y1300714D01*
X1400187D01*
X1400122Y1300723D01*
X1400048Y1300732D01*
X1399956Y1300741D01*
X1399854Y1300760D01*
X1399752Y1300778D01*
X1399512Y1300843D01*
X1399271Y1300935D01*
X1399151Y1300991D01*
X1399031Y1301055D01*
X1398920Y1301139D01*
X1398818Y1301231D01*
X1398809Y1301241D01*
X1398791Y1301250D01*
X1398772Y1301287D01*
X1398735Y1301324D01*
X1398689Y1301370D01*
X1398643Y1301435D01*
X1398596Y1301499D01*
X1398541Y1301582D01*
X1398449Y1301758D01*
X1398356Y1301980D01*
X1398319Y1302091D01*
X1398301Y1302220D01*
X1398282Y1302350D01*
X1398273Y1302489D01*
Y1302507D01*
Y1302553D01*
X1398282Y1302627D01*
X1398291Y1302729D01*
X1398310Y1302840D01*
X1398347Y1302969D01*
X1398384Y1303108D01*
X1398439Y1303247D01*
X1398449Y1303265D01*
X1398467Y1303311D01*
X1398504Y1303385D01*
X1398560Y1303487D01*
X1398634Y1303598D01*
X1398726Y1303737D01*
X1398837Y1303875D01*
X1398966Y1304033D01*
X1398985Y1304051D01*
X1399031Y1304107D01*
X1399077Y1304153D01*
X1399124Y1304199D01*
X1399179Y1304254D01*
X1399253Y1304328D01*
X1399327Y1304402D01*
X1399419Y1304486D01*
X1399512Y1304578D01*
X1399623Y1304680D01*
X1399743Y1304781D01*
X1399872Y1304902D01*
X1400020Y1305022D01*
X1400168Y1305151D01*
X1400177Y1305161D01*
X1400196Y1305179D01*
X1400233Y1305207D01*
X1400279Y1305244D01*
X1400335Y1305299D01*
X1400399Y1305355D01*
X1400547Y1305475D01*
X1400704Y1305614D01*
X1400852Y1305752D01*
X1400982Y1305872D01*
X1401037Y1305919D01*
X1401084Y1305965D01*
X1401093Y1305974D01*
X1401121Y1306002D01*
X1401158Y1306039D01*
X1401204Y1306094D01*
X1401250Y1306159D01*
X1401306Y1306224D01*
X1401416Y1306381D01*
X1398264D01*
Y1307139D01*
X1402507D01*
Y1307130D01*
D02*
G37*
G36*
X1394556D02*
Y1307093D01*
Y1307037D01*
X1394547Y1306964D01*
X1394538Y1306880D01*
X1394519Y1306788D01*
X1394501Y1306695D01*
X1394464Y1306594D01*
Y1306584D01*
X1394454Y1306575D01*
X1394436Y1306520D01*
X1394399Y1306436D01*
X1394344Y1306326D01*
X1394270Y1306196D01*
X1394177Y1306048D01*
X1394075Y1305900D01*
X1393946Y1305743D01*
Y1305734D01*
X1393927Y1305725D01*
X1393881Y1305669D01*
X1393798Y1305586D01*
X1393678Y1305466D01*
X1393539Y1305327D01*
X1393363Y1305161D01*
X1393151Y1304976D01*
X1392920Y1304781D01*
X1392910Y1304772D01*
X1392874Y1304745D01*
X1392818Y1304698D01*
X1392753Y1304643D01*
X1392670Y1304569D01*
X1392568Y1304486D01*
X1392467Y1304393D01*
X1392346Y1304292D01*
X1392115Y1304070D01*
X1391884Y1303848D01*
X1391773Y1303737D01*
X1391672Y1303626D01*
X1391579Y1303524D01*
X1391505Y1303422D01*
Y1303413D01*
X1391487Y1303404D01*
X1391468Y1303376D01*
X1391450Y1303339D01*
X1391385Y1303237D01*
X1391311Y1303117D01*
X1391246Y1302969D01*
X1391181Y1302812D01*
X1391145Y1302637D01*
X1391126Y1302470D01*
Y1302461D01*
Y1302452D01*
X1391135Y1302396D01*
X1391145Y1302304D01*
X1391172Y1302202D01*
X1391209Y1302073D01*
X1391274Y1301943D01*
X1391357Y1301814D01*
X1391468Y1301684D01*
X1391487Y1301666D01*
X1391533Y1301629D01*
X1391598Y1301582D01*
X1391699Y1301518D01*
X1391829Y1301462D01*
X1391977Y1301407D01*
X1392152Y1301370D01*
X1392346Y1301361D01*
X1392402D01*
X1392439Y1301370D01*
X1392550Y1301379D01*
X1392679Y1301407D01*
X1392818Y1301444D01*
X1392975Y1301509D01*
X1393123Y1301592D01*
X1393262Y1301703D01*
X1393280Y1301721D01*
X1393317Y1301767D01*
X1393373Y1301841D01*
X1393428Y1301952D01*
X1393493Y1302082D01*
X1393548Y1302248D01*
X1393585Y1302433D01*
X1393604Y1302646D01*
X1394408Y1302563D01*
Y1302553D01*
X1394399Y1302526D01*
Y1302479D01*
X1394390Y1302415D01*
X1394371Y1302341D01*
X1394353Y1302258D01*
X1394325Y1302156D01*
X1394297Y1302054D01*
X1394223Y1301832D01*
X1394112Y1301610D01*
X1394048Y1301499D01*
X1393965Y1301388D01*
X1393881Y1301287D01*
X1393789Y1301194D01*
X1393780Y1301185D01*
X1393761Y1301176D01*
X1393733Y1301148D01*
X1393687Y1301120D01*
X1393632Y1301083D01*
X1393567Y1301046D01*
X1393493Y1301000D01*
X1393401Y1300954D01*
X1393299Y1300908D01*
X1393188Y1300861D01*
X1393068Y1300824D01*
X1392938Y1300787D01*
X1392800Y1300760D01*
X1392652Y1300732D01*
X1392494Y1300723D01*
X1392328Y1300714D01*
X1392236D01*
X1392171Y1300723D01*
X1392097Y1300732D01*
X1392004Y1300741D01*
X1391903Y1300760D01*
X1391801Y1300778D01*
X1391561Y1300843D01*
X1391320Y1300935D01*
X1391200Y1300991D01*
X1391080Y1301055D01*
X1390969Y1301139D01*
X1390867Y1301231D01*
X1390858Y1301241D01*
X1390840Y1301250D01*
X1390821Y1301287D01*
X1390784Y1301324D01*
X1390738Y1301370D01*
X1390692Y1301435D01*
X1390645Y1301499D01*
X1390590Y1301582D01*
X1390497Y1301758D01*
X1390405Y1301980D01*
X1390368Y1302091D01*
X1390349Y1302220D01*
X1390331Y1302350D01*
X1390322Y1302489D01*
Y1302507D01*
Y1302553D01*
X1390331Y1302627D01*
X1390340Y1302729D01*
X1390359Y1302840D01*
X1390396Y1302969D01*
X1390433Y1303108D01*
X1390488Y1303247D01*
X1390497Y1303265D01*
X1390516Y1303311D01*
X1390553Y1303385D01*
X1390608Y1303487D01*
X1390682Y1303598D01*
X1390775Y1303737D01*
X1390886Y1303875D01*
X1391015Y1304033D01*
X1391034Y1304051D01*
X1391080Y1304107D01*
X1391126Y1304153D01*
X1391172Y1304199D01*
X1391228Y1304254D01*
X1391302Y1304328D01*
X1391376Y1304402D01*
X1391468Y1304486D01*
X1391561Y1304578D01*
X1391672Y1304680D01*
X1391792Y1304781D01*
X1391921Y1304902D01*
X1392069Y1305022D01*
X1392217Y1305151D01*
X1392226Y1305161D01*
X1392245Y1305179D01*
X1392282Y1305207D01*
X1392328Y1305244D01*
X1392384Y1305299D01*
X1392448Y1305355D01*
X1392596Y1305475D01*
X1392753Y1305614D01*
X1392901Y1305752D01*
X1393031Y1305872D01*
X1393086Y1305919D01*
X1393132Y1305965D01*
X1393142Y1305974D01*
X1393169Y1306002D01*
X1393206Y1306039D01*
X1393253Y1306094D01*
X1393299Y1306159D01*
X1393354Y1306224D01*
X1393465Y1306381D01*
X1390312D01*
Y1307139D01*
X1394556D01*
Y1307130D01*
D02*
G37*
G36*
X1444028Y1218931D02*
X1441596D01*
Y1219717D01*
X1444028D01*
Y1218931D01*
D02*
G37*
G36*
X1457628Y1221742D02*
X1457702D01*
X1457795Y1221733D01*
X1457896Y1221723D01*
X1457998Y1221714D01*
X1458229Y1221677D01*
X1458479Y1221622D01*
X1458719Y1221548D01*
X1458950Y1221446D01*
X1458960D01*
X1458978Y1221428D01*
X1459006Y1221409D01*
X1459043Y1221391D01*
X1459144Y1221317D01*
X1459265Y1221215D01*
X1459403Y1221086D01*
X1459533Y1220938D01*
X1459662Y1220753D01*
X1459764Y1220549D01*
Y1220540D01*
X1459773Y1220521D01*
X1459782Y1220484D01*
X1459801Y1220438D01*
X1459819Y1220383D01*
X1459838Y1220309D01*
X1459866Y1220226D01*
X1459884Y1220124D01*
X1459903Y1220013D01*
X1459930Y1219893D01*
X1459949Y1219763D01*
X1459967Y1219625D01*
X1459986Y1219467D01*
X1459995Y1219301D01*
X1460004Y1219125D01*
Y1218941D01*
Y1215242D01*
X1459154D01*
Y1218941D01*
Y1218950D01*
Y1218978D01*
Y1219024D01*
Y1219079D01*
X1459144Y1219144D01*
Y1219227D01*
X1459135Y1219403D01*
X1459117Y1219606D01*
X1459089Y1219810D01*
X1459052Y1220004D01*
X1459034Y1220087D01*
X1459006Y1220170D01*
X1458996Y1220189D01*
X1458978Y1220235D01*
X1458932Y1220300D01*
X1458876Y1220392D01*
X1458812Y1220484D01*
X1458719Y1220586D01*
X1458608Y1220688D01*
X1458479Y1220771D01*
X1458460Y1220780D01*
X1458414Y1220808D01*
X1458331Y1220836D01*
X1458220Y1220873D01*
X1458091Y1220919D01*
X1457924Y1220947D01*
X1457748Y1220975D01*
X1457554Y1220984D01*
X1457462D01*
X1457406Y1220975D01*
X1457323D01*
X1457240Y1220965D01*
X1457036Y1220928D01*
X1456815Y1220882D01*
X1456602Y1220808D01*
X1456398Y1220706D01*
X1456306Y1220642D01*
X1456223Y1220568D01*
X1456214Y1220558D01*
X1456204Y1220549D01*
X1456186Y1220521D01*
X1456158Y1220484D01*
X1456130Y1220429D01*
X1456093Y1220374D01*
X1456056Y1220290D01*
X1456019Y1220207D01*
X1455983Y1220106D01*
X1455955Y1219985D01*
X1455918Y1219847D01*
X1455890Y1219699D01*
X1455862Y1219532D01*
X1455844Y1219357D01*
X1455825Y1219153D01*
Y1218941D01*
Y1215242D01*
X1454975D01*
Y1218941D01*
Y1218950D01*
Y1218987D01*
Y1219033D01*
Y1219098D01*
X1454984Y1219181D01*
Y1219273D01*
X1454993Y1219384D01*
X1455002Y1219495D01*
X1455030Y1219745D01*
X1455067Y1220004D01*
X1455123Y1220253D01*
X1455160Y1220374D01*
X1455197Y1220484D01*
Y1220494D01*
X1455206Y1220512D01*
X1455224Y1220540D01*
X1455243Y1220577D01*
X1455298Y1220679D01*
X1455381Y1220808D01*
X1455493Y1220956D01*
X1455622Y1221104D01*
X1455788Y1221261D01*
X1455992Y1221400D01*
X1456001D01*
X1456019Y1221418D01*
X1456047Y1221428D01*
X1456093Y1221455D01*
X1456149Y1221483D01*
X1456223Y1221511D01*
X1456297Y1221538D01*
X1456389Y1221575D01*
X1456491Y1221612D01*
X1456602Y1221640D01*
X1456722Y1221668D01*
X1456861Y1221696D01*
X1457000Y1221714D01*
X1457147Y1221733D01*
X1457480Y1221751D01*
X1457563D01*
X1457628Y1221742D01*
D02*
G37*
G36*
X1451369Y1220106D02*
X1454152D01*
Y1219384D01*
X1451221Y1215242D01*
X1450583D01*
Y1219384D01*
X1449714D01*
Y1220106D01*
X1450583D01*
Y1221640D01*
X1451369D01*
Y1220106D01*
D02*
G37*
G36*
X1446737Y1216638D02*
X1446746Y1216648D01*
X1446792Y1216685D01*
X1446848Y1216740D01*
X1446940Y1216805D01*
X1447042Y1216888D01*
X1447171Y1216980D01*
X1447319Y1217082D01*
X1447486Y1217184D01*
X1447495D01*
X1447504Y1217193D01*
X1447560Y1217230D01*
X1447652Y1217276D01*
X1447763Y1217332D01*
X1447893Y1217396D01*
X1448031Y1217461D01*
X1448170Y1217526D01*
X1448309Y1217581D01*
Y1216823D01*
X1448299D01*
X1448281Y1216805D01*
X1448244Y1216796D01*
X1448198Y1216768D01*
X1448142Y1216740D01*
X1448078Y1216703D01*
X1447920Y1216611D01*
X1447735Y1216509D01*
X1447551Y1216379D01*
X1447356Y1216232D01*
X1447162Y1216074D01*
X1447153Y1216065D01*
X1447144Y1216056D01*
X1447116Y1216028D01*
X1447079Y1216000D01*
X1446996Y1215908D01*
X1446885Y1215797D01*
X1446774Y1215668D01*
X1446654Y1215520D01*
X1446552Y1215372D01*
X1446460Y1215214D01*
X1445951D01*
Y1221640D01*
X1446737D01*
Y1216638D01*
D02*
G37*
G36*
X1441069Y1221631D02*
Y1221594D01*
Y1221538D01*
X1441060Y1221465D01*
X1441051Y1221381D01*
X1441032Y1221289D01*
X1441014Y1221196D01*
X1440977Y1221095D01*
Y1221086D01*
X1440968Y1221076D01*
X1440949Y1221021D01*
X1440912Y1220938D01*
X1440857Y1220827D01*
X1440783Y1220697D01*
X1440690Y1220549D01*
X1440589Y1220401D01*
X1440459Y1220244D01*
Y1220235D01*
X1440441Y1220226D01*
X1440394Y1220170D01*
X1440311Y1220087D01*
X1440191Y1219967D01*
X1440052Y1219828D01*
X1439877Y1219662D01*
X1439664Y1219477D01*
X1439433Y1219283D01*
X1439424Y1219273D01*
X1439387Y1219246D01*
X1439331Y1219199D01*
X1439266Y1219144D01*
X1439183Y1219070D01*
X1439082Y1218987D01*
X1438980Y1218894D01*
X1438860Y1218793D01*
X1438629Y1218571D01*
X1438397Y1218349D01*
X1438286Y1218238D01*
X1438185Y1218127D01*
X1438092Y1218025D01*
X1438018Y1217924D01*
Y1217914D01*
X1438000Y1217905D01*
X1437981Y1217877D01*
X1437963Y1217840D01*
X1437898Y1217739D01*
X1437824Y1217618D01*
X1437759Y1217470D01*
X1437695Y1217313D01*
X1437658Y1217138D01*
X1437639Y1216971D01*
Y1216962D01*
Y1216953D01*
X1437648Y1216897D01*
X1437658Y1216805D01*
X1437685Y1216703D01*
X1437722Y1216574D01*
X1437787Y1216444D01*
X1437870Y1216315D01*
X1437981Y1216185D01*
X1438000Y1216167D01*
X1438046Y1216130D01*
X1438111Y1216084D01*
X1438212Y1216019D01*
X1438342Y1215963D01*
X1438490Y1215908D01*
X1438665Y1215871D01*
X1438860Y1215862D01*
X1438915D01*
X1438952Y1215871D01*
X1439063Y1215880D01*
X1439193Y1215908D01*
X1439331Y1215945D01*
X1439488Y1216010D01*
X1439636Y1216093D01*
X1439775Y1216204D01*
X1439793Y1216222D01*
X1439830Y1216268D01*
X1439886Y1216342D01*
X1439941Y1216453D01*
X1440006Y1216583D01*
X1440062Y1216749D01*
X1440099Y1216934D01*
X1440117Y1217147D01*
X1440921Y1217064D01*
Y1217054D01*
X1440912Y1217027D01*
Y1216980D01*
X1440903Y1216916D01*
X1440884Y1216842D01*
X1440866Y1216759D01*
X1440838Y1216657D01*
X1440811Y1216555D01*
X1440737Y1216333D01*
X1440625Y1216111D01*
X1440561Y1216000D01*
X1440478Y1215890D01*
X1440394Y1215788D01*
X1440302Y1215695D01*
X1440293Y1215686D01*
X1440274Y1215677D01*
X1440246Y1215649D01*
X1440200Y1215621D01*
X1440145Y1215584D01*
X1440080Y1215547D01*
X1440006Y1215501D01*
X1439914Y1215455D01*
X1439812Y1215409D01*
X1439701Y1215362D01*
X1439581Y1215325D01*
X1439451Y1215288D01*
X1439313Y1215261D01*
X1439165Y1215233D01*
X1439008Y1215224D01*
X1438841Y1215214D01*
X1438749D01*
X1438684Y1215224D01*
X1438610Y1215233D01*
X1438517Y1215242D01*
X1438416Y1215261D01*
X1438314Y1215279D01*
X1438074Y1215344D01*
X1437833Y1215436D01*
X1437713Y1215492D01*
X1437593Y1215557D01*
X1437482Y1215640D01*
X1437380Y1215732D01*
X1437371Y1215742D01*
X1437353Y1215751D01*
X1437334Y1215788D01*
X1437297Y1215825D01*
X1437251Y1215871D01*
X1437205Y1215936D01*
X1437158Y1216000D01*
X1437103Y1216084D01*
X1437010Y1216259D01*
X1436918Y1216481D01*
X1436881Y1216592D01*
X1436863Y1216722D01*
X1436844Y1216851D01*
X1436835Y1216990D01*
Y1217008D01*
Y1217054D01*
X1436844Y1217128D01*
X1436853Y1217230D01*
X1436872Y1217341D01*
X1436909Y1217470D01*
X1436946Y1217609D01*
X1437001Y1217748D01*
X1437010Y1217766D01*
X1437029Y1217813D01*
X1437066Y1217887D01*
X1437121Y1217988D01*
X1437195Y1218099D01*
X1437288Y1218238D01*
X1437399Y1218376D01*
X1437528Y1218534D01*
X1437547Y1218552D01*
X1437593Y1218608D01*
X1437639Y1218654D01*
X1437685Y1218700D01*
X1437741Y1218756D01*
X1437815Y1218830D01*
X1437889Y1218904D01*
X1437981Y1218987D01*
X1438074Y1219079D01*
X1438185Y1219181D01*
X1438305Y1219283D01*
X1438434Y1219403D01*
X1438582Y1219523D01*
X1438730Y1219652D01*
X1438739Y1219662D01*
X1438758Y1219680D01*
X1438795Y1219708D01*
X1438841Y1219745D01*
X1438897Y1219800D01*
X1438961Y1219856D01*
X1439109Y1219976D01*
X1439266Y1220115D01*
X1439414Y1220253D01*
X1439544Y1220374D01*
X1439599Y1220420D01*
X1439646Y1220466D01*
X1439655Y1220475D01*
X1439682Y1220503D01*
X1439720Y1220540D01*
X1439766Y1220595D01*
X1439812Y1220660D01*
X1439867Y1220725D01*
X1439978Y1220882D01*
X1436826D01*
Y1221640D01*
X1441069D01*
Y1221631D01*
D02*
G37*
G36*
X1416722Y1144092D02*
X1414290D01*
Y1144877D01*
X1416722D01*
Y1144092D01*
D02*
G37*
G36*
X1419634Y1148585D02*
X1419708Y1148576D01*
X1419800Y1148567D01*
X1419902Y1148548D01*
X1420004Y1148530D01*
X1420244Y1148465D01*
X1420484Y1148372D01*
X1420605Y1148317D01*
X1420725Y1148252D01*
X1420836Y1148169D01*
X1420938Y1148076D01*
X1420947Y1148067D01*
X1420965Y1148058D01*
X1420984Y1148021D01*
X1421021Y1147984D01*
X1421067Y1147938D01*
X1421113Y1147873D01*
X1421160Y1147808D01*
X1421215Y1147725D01*
X1421307Y1147550D01*
X1421400Y1147328D01*
X1421437Y1147217D01*
X1421455Y1147087D01*
X1421474Y1146958D01*
X1421483Y1146819D01*
Y1146801D01*
Y1146754D01*
X1421474Y1146680D01*
X1421465Y1146579D01*
X1421446Y1146468D01*
X1421409Y1146338D01*
X1421372Y1146200D01*
X1421317Y1146061D01*
X1421307Y1146042D01*
X1421289Y1145996D01*
X1421252Y1145922D01*
X1421196Y1145820D01*
X1421122Y1145710D01*
X1421030Y1145571D01*
X1420919Y1145432D01*
X1420790Y1145275D01*
X1420771Y1145257D01*
X1420725Y1145201D01*
X1420679Y1145155D01*
X1420632Y1145109D01*
X1420577Y1145053D01*
X1420503Y1144979D01*
X1420429Y1144905D01*
X1420337Y1144822D01*
X1420244Y1144730D01*
X1420133Y1144628D01*
X1420013Y1144526D01*
X1419884Y1144406D01*
X1419736Y1144286D01*
X1419588Y1144156D01*
X1419579Y1144147D01*
X1419560Y1144129D01*
X1419523Y1144101D01*
X1419477Y1144064D01*
X1419421Y1144008D01*
X1419357Y1143953D01*
X1419209Y1143833D01*
X1419052Y1143694D01*
X1418904Y1143555D01*
X1418774Y1143435D01*
X1418719Y1143389D01*
X1418672Y1143343D01*
X1418663Y1143334D01*
X1418635Y1143306D01*
X1418598Y1143269D01*
X1418552Y1143213D01*
X1418506Y1143149D01*
X1418450Y1143084D01*
X1418340Y1142927D01*
X1421492D01*
Y1142169D01*
X1417249D01*
Y1142178D01*
Y1142215D01*
Y1142270D01*
X1417258Y1142344D01*
X1417267Y1142427D01*
X1417286Y1142520D01*
X1417304Y1142612D01*
X1417341Y1142714D01*
Y1142723D01*
X1417350Y1142732D01*
X1417369Y1142788D01*
X1417406Y1142871D01*
X1417461Y1142982D01*
X1417535Y1143112D01*
X1417628Y1143260D01*
X1417729Y1143407D01*
X1417859Y1143565D01*
Y1143574D01*
X1417877Y1143583D01*
X1417923Y1143639D01*
X1418007Y1143722D01*
X1418127Y1143842D01*
X1418266Y1143981D01*
X1418441Y1144147D01*
X1418654Y1144332D01*
X1418885Y1144526D01*
X1418894Y1144535D01*
X1418931Y1144563D01*
X1418987Y1144609D01*
X1419052Y1144665D01*
X1419135Y1144739D01*
X1419236Y1144822D01*
X1419338Y1144914D01*
X1419458Y1145016D01*
X1419689Y1145238D01*
X1419921Y1145460D01*
X1420031Y1145571D01*
X1420133Y1145682D01*
X1420226Y1145784D01*
X1420300Y1145885D01*
Y1145894D01*
X1420318Y1145904D01*
X1420337Y1145931D01*
X1420355Y1145968D01*
X1420420Y1146070D01*
X1420494Y1146190D01*
X1420558Y1146338D01*
X1420623Y1146496D01*
X1420660Y1146671D01*
X1420679Y1146838D01*
Y1146847D01*
Y1146856D01*
X1420669Y1146911D01*
X1420660Y1147004D01*
X1420632Y1147106D01*
X1420596Y1147235D01*
X1420531Y1147365D01*
X1420448Y1147494D01*
X1420337Y1147623D01*
X1420318Y1147642D01*
X1420272Y1147679D01*
X1420207Y1147725D01*
X1420105Y1147790D01*
X1419976Y1147845D01*
X1419828Y1147901D01*
X1419652Y1147938D01*
X1419458Y1147947D01*
X1419403D01*
X1419366Y1147938D01*
X1419255Y1147928D01*
X1419125Y1147901D01*
X1418987Y1147864D01*
X1418830Y1147799D01*
X1418682Y1147716D01*
X1418543Y1147605D01*
X1418524Y1147587D01*
X1418488Y1147540D01*
X1418432Y1147466D01*
X1418376Y1147355D01*
X1418312Y1147226D01*
X1418256Y1147059D01*
X1418219Y1146874D01*
X1418201Y1146662D01*
X1417397Y1146745D01*
Y1146754D01*
X1417406Y1146782D01*
Y1146828D01*
X1417415Y1146893D01*
X1417433Y1146967D01*
X1417452Y1147050D01*
X1417480Y1147152D01*
X1417507Y1147254D01*
X1417581Y1147476D01*
X1417692Y1147697D01*
X1417757Y1147808D01*
X1417840Y1147919D01*
X1417923Y1148021D01*
X1418016Y1148113D01*
X1418025Y1148123D01*
X1418044Y1148132D01*
X1418071Y1148160D01*
X1418118Y1148187D01*
X1418173Y1148224D01*
X1418238Y1148261D01*
X1418312Y1148308D01*
X1418404Y1148354D01*
X1418506Y1148400D01*
X1418617Y1148446D01*
X1418737Y1148483D01*
X1418867Y1148520D01*
X1419005Y1148548D01*
X1419153Y1148576D01*
X1419310Y1148585D01*
X1419477Y1148594D01*
X1419569D01*
X1419634Y1148585D01*
D02*
G37*
G36*
X1412367Y1142169D02*
X1411581D01*
Y1147170D01*
X1411572Y1147161D01*
X1411526Y1147124D01*
X1411470Y1147069D01*
X1411378Y1147004D01*
X1411276Y1146921D01*
X1411147Y1146828D01*
X1410999Y1146727D01*
X1410832Y1146625D01*
X1410823D01*
X1410814Y1146616D01*
X1410758Y1146579D01*
X1410666Y1146533D01*
X1410555Y1146477D01*
X1410425Y1146412D01*
X1410287Y1146348D01*
X1410148Y1146283D01*
X1410009Y1146227D01*
Y1146985D01*
X1410018D01*
X1410037Y1147004D01*
X1410074Y1147013D01*
X1410120Y1147041D01*
X1410176Y1147069D01*
X1410240Y1147106D01*
X1410398Y1147198D01*
X1410582Y1147300D01*
X1410767Y1147429D01*
X1410962Y1147577D01*
X1411156Y1147734D01*
X1411165Y1147744D01*
X1411174Y1147753D01*
X1411202Y1147781D01*
X1411239Y1147808D01*
X1411322Y1147901D01*
X1411433Y1148012D01*
X1411544Y1148141D01*
X1411664Y1148289D01*
X1411766Y1148437D01*
X1411858Y1148594D01*
X1412367D01*
Y1142169D01*
D02*
G37*
G36*
X1407735Y1144425D02*
X1408604D01*
Y1143703D01*
X1407735D01*
Y1142169D01*
X1406949D01*
Y1143703D01*
X1404166D01*
Y1144425D01*
X1407097Y1148567D01*
X1407735D01*
Y1144425D01*
D02*
G37*
G36*
X1400708Y1148668D02*
X1400791D01*
X1400875Y1148659D01*
X1400986Y1148641D01*
X1401096Y1148622D01*
X1401337Y1148576D01*
X1401614Y1148502D01*
X1401882Y1148391D01*
X1402021Y1148326D01*
X1402160Y1148252D01*
X1402169Y1148243D01*
X1402188Y1148234D01*
X1402224Y1148206D01*
X1402280Y1148178D01*
X1402335Y1148132D01*
X1402409Y1148076D01*
X1402567Y1147947D01*
X1402733Y1147781D01*
X1402918Y1147577D01*
X1403094Y1147337D01*
X1403241Y1147069D01*
Y1147059D01*
X1403260Y1147032D01*
X1403279Y1146995D01*
X1403297Y1146939D01*
X1403334Y1146865D01*
X1403362Y1146782D01*
X1403399Y1146680D01*
X1403436Y1146569D01*
X1403463Y1146449D01*
X1403500Y1146320D01*
X1403537Y1146181D01*
X1403565Y1146033D01*
X1403602Y1145710D01*
X1403621Y1145368D01*
Y1145358D01*
Y1145331D01*
Y1145294D01*
Y1145238D01*
X1403611Y1145164D01*
Y1145081D01*
X1403602Y1144988D01*
X1403593Y1144896D01*
X1403565Y1144674D01*
X1403519Y1144434D01*
X1403463Y1144184D01*
X1403380Y1143944D01*
Y1143934D01*
X1403371Y1143916D01*
X1403352Y1143879D01*
X1403334Y1143842D01*
X1403306Y1143786D01*
X1403279Y1143722D01*
X1403204Y1143574D01*
X1403103Y1143398D01*
X1402973Y1143213D01*
X1402825Y1143028D01*
X1402659Y1142843D01*
X1402668D01*
X1402687Y1142825D01*
X1402715Y1142806D01*
X1402761Y1142779D01*
X1402807Y1142742D01*
X1402872Y1142705D01*
X1403010Y1142622D01*
X1403177Y1142520D01*
X1403362Y1142418D01*
X1403556Y1142335D01*
X1403741Y1142252D01*
X1403491Y1141669D01*
X1403482D01*
X1403463Y1141678D01*
X1403426Y1141697D01*
X1403371Y1141715D01*
X1403306Y1141743D01*
X1403232Y1141780D01*
X1403149Y1141817D01*
X1403057Y1141863D01*
X1402853Y1141974D01*
X1402622Y1142104D01*
X1402372Y1142270D01*
X1402113Y1142455D01*
X1402104D01*
X1402086Y1142437D01*
X1402040Y1142418D01*
X1401993Y1142390D01*
X1401919Y1142363D01*
X1401845Y1142326D01*
X1401753Y1142298D01*
X1401651Y1142261D01*
X1401540Y1142224D01*
X1401420Y1142187D01*
X1401152Y1142122D01*
X1400856Y1142076D01*
X1400699Y1142067D01*
X1400542Y1142058D01*
X1400459D01*
X1400394Y1142067D01*
X1400320D01*
X1400227Y1142076D01*
X1400126Y1142095D01*
X1400015Y1142113D01*
X1399774Y1142159D01*
X1399506Y1142233D01*
X1399229Y1142335D01*
X1399099Y1142400D01*
X1398961Y1142474D01*
X1398952Y1142483D01*
X1398933Y1142492D01*
X1398896Y1142520D01*
X1398850Y1142548D01*
X1398785Y1142594D01*
X1398720Y1142649D01*
X1398563Y1142779D01*
X1398388Y1142945D01*
X1398212Y1143149D01*
X1398036Y1143380D01*
X1397879Y1143648D01*
Y1143657D01*
X1397861Y1143685D01*
X1397842Y1143722D01*
X1397824Y1143777D01*
X1397796Y1143851D01*
X1397759Y1143934D01*
X1397722Y1144036D01*
X1397694Y1144147D01*
X1397657Y1144267D01*
X1397620Y1144397D01*
X1397592Y1144535D01*
X1397555Y1144693D01*
X1397518Y1145016D01*
X1397500Y1145358D01*
Y1145368D01*
Y1145405D01*
Y1145451D01*
X1397509Y1145515D01*
Y1145599D01*
X1397518Y1145700D01*
X1397528Y1145811D01*
X1397546Y1145931D01*
X1397592Y1146200D01*
X1397657Y1146486D01*
X1397750Y1146791D01*
X1397879Y1147087D01*
X1397888Y1147096D01*
X1397897Y1147124D01*
X1397916Y1147161D01*
X1397953Y1147217D01*
X1397990Y1147281D01*
X1398036Y1147355D01*
X1398166Y1147531D01*
X1398314Y1147716D01*
X1398508Y1147910D01*
X1398720Y1148104D01*
X1398970Y1148271D01*
X1398979Y1148280D01*
X1399007Y1148289D01*
X1399044Y1148308D01*
X1399099Y1148335D01*
X1399164Y1148363D01*
X1399238Y1148400D01*
X1399331Y1148437D01*
X1399432Y1148474D01*
X1399552Y1148511D01*
X1399673Y1148548D01*
X1399941Y1148613D01*
X1400237Y1148659D01*
X1400394Y1148677D01*
X1400643D01*
X1400708Y1148668D01*
D02*
G37*
G36*
X960089Y1382402D02*
X955087D01*
X955097Y1382393D01*
X955134Y1382347D01*
X955189Y1382291D01*
X955254Y1382199D01*
X955337Y1382097D01*
X955429Y1381967D01*
X955531Y1381820D01*
X955633Y1381653D01*
Y1381644D01*
X955642Y1381635D01*
X955679Y1381579D01*
X955725Y1381487D01*
X955781Y1381376D01*
X955845Y1381246D01*
X955910Y1381108D01*
X955975Y1380969D01*
X956030Y1380830D01*
X955272D01*
Y1380840D01*
X955254Y1380858D01*
X955244Y1380895D01*
X955217Y1380941D01*
X955189Y1380997D01*
X955152Y1381061D01*
X955060Y1381219D01*
X954958Y1381404D01*
X954828Y1381588D01*
X954680Y1381783D01*
X954523Y1381977D01*
X954514Y1381986D01*
X954505Y1381995D01*
X954477Y1382023D01*
X954449Y1382060D01*
X954357Y1382143D01*
X954246Y1382254D01*
X954117Y1382365D01*
X953969Y1382485D01*
X953821Y1382587D01*
X953663Y1382679D01*
Y1383188D01*
X960089D01*
Y1382402D01*
D02*
G37*
G36*
X958111Y1379499D02*
X958166Y1379480D01*
X958240Y1379453D01*
X958323Y1379425D01*
X958425Y1379388D01*
X958536Y1379342D01*
X958656Y1379286D01*
X958915Y1379157D01*
X959174Y1378990D01*
X959303Y1378889D01*
X959433Y1378787D01*
X959544Y1378676D01*
X959655Y1378547D01*
X959664Y1378537D01*
X959682Y1378519D01*
X959701Y1378473D01*
X959738Y1378426D01*
X959784Y1378353D01*
X959830Y1378279D01*
X959876Y1378177D01*
X959923Y1378075D01*
X959978Y1377955D01*
X960024Y1377825D01*
X960071Y1377687D01*
X960117Y1377539D01*
X960154Y1377382D01*
X960172Y1377215D01*
X960191Y1377040D01*
X960200Y1376855D01*
Y1376753D01*
X960191Y1376679D01*
Y1376596D01*
X960182Y1376494D01*
X960163Y1376383D01*
X960145Y1376254D01*
X960098Y1375986D01*
X960024Y1375708D01*
X959923Y1375431D01*
X959858Y1375301D01*
X959784Y1375172D01*
X959775Y1375163D01*
X959765Y1375144D01*
X959738Y1375107D01*
X959701Y1375070D01*
X959664Y1375015D01*
X959608Y1374950D01*
X959544Y1374876D01*
X959470Y1374802D01*
X959387Y1374728D01*
X959303Y1374645D01*
X959091Y1374479D01*
X958841Y1374321D01*
X958564Y1374183D01*
X958554D01*
X958527Y1374164D01*
X958480Y1374155D01*
X958425Y1374127D01*
X958351Y1374109D01*
X958259Y1374081D01*
X958157Y1374044D01*
X958046Y1374016D01*
X957926Y1373988D01*
X957787Y1373952D01*
X957500Y1373905D01*
X957177Y1373868D01*
X956844Y1373850D01*
X956835D01*
X956798D01*
X956742D01*
X956677Y1373859D01*
X956585D01*
X956493Y1373868D01*
X956372Y1373878D01*
X956252Y1373896D01*
X955984Y1373942D01*
X955688Y1374007D01*
X955392Y1374099D01*
X955106Y1374229D01*
X955097Y1374238D01*
X955069Y1374247D01*
X955032Y1374266D01*
X954986Y1374303D01*
X954921Y1374340D01*
X954847Y1374386D01*
X954680Y1374506D01*
X954496Y1374664D01*
X954311Y1374848D01*
X954126Y1375061D01*
X953969Y1375311D01*
X953959Y1375320D01*
X953950Y1375348D01*
X953932Y1375385D01*
X953904Y1375431D01*
X953876Y1375505D01*
X953848Y1375579D01*
X953811Y1375671D01*
X953774Y1375773D01*
X953737Y1375884D01*
X953700Y1376004D01*
X953645Y1376263D01*
X953599Y1376559D01*
X953580Y1376864D01*
Y1376956D01*
X953589Y1377021D01*
X953599Y1377104D01*
X953608Y1377206D01*
X953617Y1377308D01*
X953645Y1377428D01*
X953700Y1377677D01*
X953784Y1377955D01*
X953839Y1378094D01*
X953904Y1378223D01*
X953987Y1378353D01*
X954070Y1378482D01*
X954080Y1378491D01*
X954089Y1378510D01*
X954117Y1378547D01*
X954163Y1378593D01*
X954209Y1378639D01*
X954274Y1378704D01*
X954348Y1378768D01*
X954422Y1378842D01*
X954514Y1378916D01*
X954625Y1378990D01*
X954736Y1379074D01*
X954856Y1379148D01*
X954995Y1379212D01*
X955134Y1379286D01*
X955281Y1379342D01*
X955448Y1379397D01*
X955642Y1378565D01*
X955633D01*
X955614Y1378556D01*
X955577Y1378537D01*
X955531Y1378519D01*
X955476Y1378500D01*
X955402Y1378473D01*
X955254Y1378399D01*
X955087Y1378306D01*
X954921Y1378195D01*
X954764Y1378057D01*
X954625Y1377909D01*
X954606Y1377890D01*
X954569Y1377835D01*
X954523Y1377742D01*
X954459Y1377622D01*
X954403Y1377465D01*
X954348Y1377289D01*
X954311Y1377077D01*
X954301Y1376845D01*
Y1376772D01*
X954311Y1376725D01*
Y1376660D01*
X954320Y1376587D01*
X954348Y1376411D01*
X954385Y1376217D01*
X954449Y1376013D01*
X954542Y1375801D01*
X954662Y1375607D01*
Y1375597D01*
X954680Y1375588D01*
X954727Y1375523D01*
X954801Y1375440D01*
X954912Y1375338D01*
X955050Y1375218D01*
X955208Y1375107D01*
X955402Y1375006D01*
X955614Y1374913D01*
X955623D01*
X955642Y1374904D01*
X955670Y1374895D01*
X955716Y1374885D01*
X955771Y1374867D01*
X955836Y1374848D01*
X955993Y1374821D01*
X956178Y1374784D01*
X956382Y1374747D01*
X956603Y1374728D01*
X956844Y1374719D01*
X956853D01*
X956881D01*
X956927D01*
X956983D01*
X957047Y1374728D01*
X957131D01*
X957223Y1374737D01*
X957325Y1374747D01*
X957547Y1374774D01*
X957787Y1374821D01*
X958027Y1374876D01*
X958268Y1374950D01*
X958277D01*
X958296Y1374959D01*
X958323Y1374978D01*
X958370Y1374996D01*
X958480Y1375052D01*
X958610Y1375135D01*
X958758Y1375237D01*
X958915Y1375366D01*
X959054Y1375514D01*
X959183Y1375690D01*
Y1375699D01*
X959192Y1375717D01*
X959211Y1375745D01*
X959229Y1375782D01*
X959248Y1375828D01*
X959276Y1375884D01*
X959331Y1376013D01*
X959387Y1376180D01*
X959433Y1376365D01*
X959470Y1376568D01*
X959479Y1376781D01*
Y1376845D01*
X959470Y1376901D01*
Y1376966D01*
X959460Y1377030D01*
X959424Y1377197D01*
X959377Y1377391D01*
X959303Y1377585D01*
X959202Y1377789D01*
X959146Y1377890D01*
X959072Y1377983D01*
X959063Y1377992D01*
X959054Y1378001D01*
X959026Y1378029D01*
X958998Y1378066D01*
X958952Y1378103D01*
X958896Y1378149D01*
X958841Y1378204D01*
X958767Y1378251D01*
X958684Y1378306D01*
X958591Y1378371D01*
X958499Y1378426D01*
X958388Y1378482D01*
X958268Y1378528D01*
X958138Y1378574D01*
X958000Y1378621D01*
X957852Y1378658D01*
X958064Y1379508D01*
X958074D01*
X958111Y1379499D01*
D02*
G37*
G36*
X1237342Y1384418D02*
X1237416Y1384408D01*
X1237499Y1384390D01*
X1237591Y1384371D01*
X1237693Y1384353D01*
X1237915Y1384279D01*
X1238035Y1384223D01*
X1238146Y1384168D01*
X1238266Y1384094D01*
X1238387Y1384011D01*
X1238507Y1383918D01*
X1238618Y1383807D01*
X1238627Y1383798D01*
X1238645Y1383780D01*
X1238673Y1383743D01*
X1238710Y1383696D01*
X1238756Y1383641D01*
X1238802Y1383567D01*
X1238858Y1383484D01*
X1238904Y1383382D01*
X1238960Y1383280D01*
X1239015Y1383160D01*
X1239061Y1383040D01*
X1239108Y1382901D01*
X1239145Y1382753D01*
X1239172Y1382596D01*
X1239191Y1382439D01*
X1239200Y1382263D01*
Y1382180D01*
X1239191Y1382125D01*
X1239182Y1382051D01*
X1239172Y1381967D01*
X1239154Y1381875D01*
X1239135Y1381773D01*
X1239080Y1381551D01*
X1238987Y1381320D01*
X1238932Y1381200D01*
X1238867Y1381089D01*
X1238784Y1380978D01*
X1238701Y1380867D01*
X1238692Y1380858D01*
X1238673Y1380840D01*
X1238645Y1380812D01*
X1238608Y1380784D01*
X1238562Y1380738D01*
X1238497Y1380692D01*
X1238433Y1380636D01*
X1238350Y1380581D01*
X1238257Y1380525D01*
X1238165Y1380470D01*
X1237943Y1380368D01*
X1237684Y1380285D01*
X1237545Y1380257D01*
X1237397Y1380239D01*
X1237296Y1381024D01*
X1237305D01*
X1237323Y1381034D01*
X1237360Y1381043D01*
X1237406Y1381052D01*
X1237462Y1381061D01*
X1237527Y1381080D01*
X1237665Y1381126D01*
X1237832Y1381191D01*
X1237989Y1381274D01*
X1238137Y1381366D01*
X1238266Y1381478D01*
X1238276Y1381496D01*
X1238313Y1381533D01*
X1238359Y1381607D01*
X1238405Y1381699D01*
X1238460Y1381810D01*
X1238507Y1381949D01*
X1238544Y1382106D01*
X1238553Y1382273D01*
Y1382328D01*
X1238544Y1382365D01*
X1238534Y1382467D01*
X1238507Y1382596D01*
X1238460Y1382744D01*
X1238396Y1382901D01*
X1238303Y1383058D01*
X1238174Y1383206D01*
X1238155Y1383225D01*
X1238100Y1383271D01*
X1238017Y1383327D01*
X1237906Y1383401D01*
X1237767Y1383474D01*
X1237610Y1383530D01*
X1237425Y1383576D01*
X1237222Y1383595D01*
X1237212D01*
X1237194D01*
X1237166D01*
X1237129Y1383586D01*
X1237027Y1383576D01*
X1236907Y1383548D01*
X1236759Y1383512D01*
X1236611Y1383447D01*
X1236463Y1383354D01*
X1236325Y1383234D01*
X1236306Y1383216D01*
X1236269Y1383169D01*
X1236214Y1383096D01*
X1236149Y1382994D01*
X1236084Y1382864D01*
X1236029Y1382707D01*
X1235992Y1382531D01*
X1235973Y1382337D01*
Y1382254D01*
X1235983Y1382189D01*
X1235992Y1382106D01*
X1236010Y1382014D01*
X1236029Y1381903D01*
X1236057Y1381783D01*
X1235363Y1381875D01*
Y1381921D01*
X1235372Y1381958D01*
Y1382078D01*
X1235354Y1382180D01*
X1235335Y1382300D01*
X1235308Y1382439D01*
X1235262Y1382596D01*
X1235197Y1382744D01*
X1235114Y1382901D01*
Y1382910D01*
X1235104Y1382920D01*
X1235067Y1382966D01*
X1235003Y1383031D01*
X1234919Y1383105D01*
X1234799Y1383179D01*
X1234660Y1383243D01*
X1234503Y1383290D01*
X1234411Y1383308D01*
X1234309D01*
X1234300D01*
X1234291D01*
X1234235D01*
X1234161Y1383290D01*
X1234060Y1383271D01*
X1233949Y1383234D01*
X1233828Y1383188D01*
X1233708Y1383114D01*
X1233597Y1383012D01*
X1233588Y1383003D01*
X1233551Y1382957D01*
X1233505Y1382892D01*
X1233449Y1382809D01*
X1233403Y1382698D01*
X1233357Y1382569D01*
X1233320Y1382421D01*
X1233311Y1382254D01*
Y1382180D01*
X1233329Y1382097D01*
X1233348Y1381986D01*
X1233385Y1381866D01*
X1233431Y1381746D01*
X1233505Y1381616D01*
X1233597Y1381496D01*
X1233606Y1381487D01*
X1233653Y1381450D01*
X1233717Y1381394D01*
X1233810Y1381329D01*
X1233930Y1381265D01*
X1234078Y1381200D01*
X1234254Y1381145D01*
X1234457Y1381108D01*
X1234318Y1380322D01*
X1234309D01*
X1234281Y1380331D01*
X1234244Y1380340D01*
X1234189Y1380349D01*
X1234124Y1380368D01*
X1234050Y1380396D01*
X1233875Y1380451D01*
X1233671Y1380544D01*
X1233468Y1380655D01*
X1233274Y1380793D01*
X1233098Y1380969D01*
X1233089Y1380978D01*
X1233080Y1380997D01*
X1233061Y1381024D01*
X1233033Y1381061D01*
X1232996Y1381108D01*
X1232959Y1381172D01*
X1232922Y1381237D01*
X1232876Y1381320D01*
X1232802Y1381505D01*
X1232728Y1381718D01*
X1232682Y1381967D01*
X1232663Y1382097D01*
Y1382328D01*
X1232673Y1382430D01*
X1232691Y1382550D01*
X1232719Y1382698D01*
X1232765Y1382864D01*
X1232821Y1383031D01*
X1232895Y1383197D01*
Y1383206D01*
X1232904Y1383216D01*
X1232932Y1383271D01*
X1232987Y1383354D01*
X1233052Y1383447D01*
X1233144Y1383558D01*
X1233246Y1383669D01*
X1233366Y1383780D01*
X1233505Y1383872D01*
X1233523Y1383881D01*
X1233569Y1383909D01*
X1233653Y1383946D01*
X1233754Y1383992D01*
X1233875Y1384039D01*
X1234013Y1384075D01*
X1234171Y1384103D01*
X1234328Y1384113D01*
X1234346D01*
X1234402D01*
X1234476Y1384103D01*
X1234577Y1384085D01*
X1234697Y1384057D01*
X1234827Y1384011D01*
X1234956Y1383955D01*
X1235086Y1383881D01*
X1235104Y1383872D01*
X1235141Y1383844D01*
X1235206Y1383789D01*
X1235280Y1383715D01*
X1235363Y1383622D01*
X1235456Y1383512D01*
X1235539Y1383382D01*
X1235622Y1383225D01*
Y1383234D01*
X1235631Y1383253D01*
X1235640Y1383280D01*
X1235650Y1383317D01*
X1235687Y1383419D01*
X1235742Y1383548D01*
X1235816Y1383696D01*
X1235909Y1383844D01*
X1236029Y1383983D01*
X1236168Y1384113D01*
X1236186Y1384122D01*
X1236242Y1384159D01*
X1236334Y1384214D01*
X1236454Y1384270D01*
X1236602Y1384325D01*
X1236778Y1384381D01*
X1236981Y1384418D01*
X1237203Y1384427D01*
X1237212D01*
X1237240D01*
X1237286D01*
X1237342Y1384418D01*
D02*
G37*
G36*
X1237111Y1379499D02*
X1237166Y1379480D01*
X1237240Y1379453D01*
X1237323Y1379425D01*
X1237425Y1379388D01*
X1237536Y1379342D01*
X1237656Y1379286D01*
X1237915Y1379157D01*
X1238174Y1378990D01*
X1238303Y1378889D01*
X1238433Y1378787D01*
X1238544Y1378676D01*
X1238655Y1378547D01*
X1238664Y1378537D01*
X1238682Y1378519D01*
X1238701Y1378473D01*
X1238738Y1378426D01*
X1238784Y1378353D01*
X1238830Y1378279D01*
X1238876Y1378177D01*
X1238923Y1378075D01*
X1238978Y1377955D01*
X1239024Y1377825D01*
X1239071Y1377687D01*
X1239117Y1377539D01*
X1239154Y1377382D01*
X1239172Y1377215D01*
X1239191Y1377040D01*
X1239200Y1376855D01*
Y1376753D01*
X1239191Y1376679D01*
Y1376596D01*
X1239182Y1376494D01*
X1239163Y1376383D01*
X1239145Y1376254D01*
X1239098Y1375986D01*
X1239024Y1375708D01*
X1238923Y1375431D01*
X1238858Y1375301D01*
X1238784Y1375172D01*
X1238775Y1375163D01*
X1238765Y1375144D01*
X1238738Y1375107D01*
X1238701Y1375070D01*
X1238664Y1375015D01*
X1238608Y1374950D01*
X1238544Y1374876D01*
X1238470Y1374802D01*
X1238387Y1374728D01*
X1238303Y1374645D01*
X1238091Y1374479D01*
X1237841Y1374321D01*
X1237564Y1374183D01*
X1237554D01*
X1237527Y1374164D01*
X1237480Y1374155D01*
X1237425Y1374127D01*
X1237351Y1374109D01*
X1237259Y1374081D01*
X1237157Y1374044D01*
X1237046Y1374016D01*
X1236926Y1373988D01*
X1236787Y1373952D01*
X1236500Y1373905D01*
X1236177Y1373868D01*
X1235844Y1373850D01*
X1235835D01*
X1235798D01*
X1235742D01*
X1235677Y1373859D01*
X1235585D01*
X1235493Y1373868D01*
X1235372Y1373878D01*
X1235252Y1373896D01*
X1234984Y1373942D01*
X1234688Y1374007D01*
X1234392Y1374099D01*
X1234106Y1374229D01*
X1234097Y1374238D01*
X1234069Y1374247D01*
X1234032Y1374266D01*
X1233986Y1374303D01*
X1233921Y1374340D01*
X1233847Y1374386D01*
X1233680Y1374506D01*
X1233496Y1374664D01*
X1233311Y1374848D01*
X1233126Y1375061D01*
X1232969Y1375311D01*
X1232959Y1375320D01*
X1232950Y1375348D01*
X1232932Y1375385D01*
X1232904Y1375431D01*
X1232876Y1375505D01*
X1232848Y1375579D01*
X1232811Y1375671D01*
X1232774Y1375773D01*
X1232737Y1375884D01*
X1232700Y1376004D01*
X1232645Y1376263D01*
X1232599Y1376559D01*
X1232580Y1376864D01*
Y1376956D01*
X1232589Y1377021D01*
X1232599Y1377104D01*
X1232608Y1377206D01*
X1232617Y1377308D01*
X1232645Y1377428D01*
X1232700Y1377677D01*
X1232784Y1377955D01*
X1232839Y1378094D01*
X1232904Y1378223D01*
X1232987Y1378353D01*
X1233070Y1378482D01*
X1233080Y1378491D01*
X1233089Y1378510D01*
X1233117Y1378547D01*
X1233163Y1378593D01*
X1233209Y1378639D01*
X1233274Y1378704D01*
X1233348Y1378768D01*
X1233422Y1378842D01*
X1233514Y1378916D01*
X1233625Y1378990D01*
X1233736Y1379074D01*
X1233856Y1379148D01*
X1233995Y1379212D01*
X1234134Y1379286D01*
X1234281Y1379342D01*
X1234448Y1379397D01*
X1234642Y1378565D01*
X1234633D01*
X1234614Y1378556D01*
X1234577Y1378537D01*
X1234531Y1378519D01*
X1234476Y1378500D01*
X1234402Y1378473D01*
X1234254Y1378399D01*
X1234087Y1378306D01*
X1233921Y1378195D01*
X1233764Y1378057D01*
X1233625Y1377909D01*
X1233606Y1377890D01*
X1233569Y1377835D01*
X1233523Y1377742D01*
X1233459Y1377622D01*
X1233403Y1377465D01*
X1233348Y1377289D01*
X1233311Y1377077D01*
X1233301Y1376845D01*
Y1376772D01*
X1233311Y1376725D01*
Y1376660D01*
X1233320Y1376587D01*
X1233348Y1376411D01*
X1233385Y1376217D01*
X1233449Y1376013D01*
X1233542Y1375801D01*
X1233662Y1375607D01*
Y1375597D01*
X1233680Y1375588D01*
X1233727Y1375523D01*
X1233801Y1375440D01*
X1233912Y1375338D01*
X1234050Y1375218D01*
X1234208Y1375107D01*
X1234402Y1375006D01*
X1234614Y1374913D01*
X1234623D01*
X1234642Y1374904D01*
X1234670Y1374895D01*
X1234716Y1374885D01*
X1234771Y1374867D01*
X1234836Y1374848D01*
X1234993Y1374821D01*
X1235178Y1374784D01*
X1235382Y1374747D01*
X1235603Y1374728D01*
X1235844Y1374719D01*
X1235853D01*
X1235881D01*
X1235927D01*
X1235983D01*
X1236047Y1374728D01*
X1236131D01*
X1236223Y1374737D01*
X1236325Y1374747D01*
X1236547Y1374774D01*
X1236787Y1374821D01*
X1237027Y1374876D01*
X1237268Y1374950D01*
X1237277D01*
X1237296Y1374959D01*
X1237323Y1374978D01*
X1237370Y1374996D01*
X1237480Y1375052D01*
X1237610Y1375135D01*
X1237758Y1375237D01*
X1237915Y1375366D01*
X1238054Y1375514D01*
X1238183Y1375690D01*
Y1375699D01*
X1238192Y1375717D01*
X1238211Y1375745D01*
X1238229Y1375782D01*
X1238248Y1375828D01*
X1238276Y1375884D01*
X1238331Y1376013D01*
X1238387Y1376180D01*
X1238433Y1376365D01*
X1238470Y1376568D01*
X1238479Y1376781D01*
Y1376845D01*
X1238470Y1376901D01*
Y1376966D01*
X1238460Y1377030D01*
X1238423Y1377197D01*
X1238377Y1377391D01*
X1238303Y1377585D01*
X1238202Y1377789D01*
X1238146Y1377890D01*
X1238072Y1377983D01*
X1238063Y1377992D01*
X1238054Y1378001D01*
X1238026Y1378029D01*
X1237998Y1378066D01*
X1237952Y1378103D01*
X1237896Y1378149D01*
X1237841Y1378204D01*
X1237767Y1378251D01*
X1237684Y1378306D01*
X1237591Y1378371D01*
X1237499Y1378426D01*
X1237388Y1378482D01*
X1237268Y1378528D01*
X1237138Y1378574D01*
X1237000Y1378621D01*
X1236852Y1378658D01*
X1237064Y1379508D01*
X1237074D01*
X1237111Y1379499D01*
D02*
G37*
G36*
X1148200Y1419335D02*
X1145741D01*
X1145574Y1419344D01*
X1145389Y1419353D01*
X1145204Y1419371D01*
X1145020Y1419399D01*
X1144862Y1419427D01*
X1144853D01*
X1144835Y1419436D01*
X1144807D01*
X1144770Y1419455D01*
X1144668Y1419482D01*
X1144539Y1419529D01*
X1144391Y1419593D01*
X1144234Y1419677D01*
X1144076Y1419769D01*
X1143929Y1419889D01*
X1143919Y1419899D01*
X1143910Y1419908D01*
X1143882Y1419935D01*
X1143845Y1419963D01*
X1143753Y1420056D01*
X1143642Y1420185D01*
X1143522Y1420342D01*
X1143392Y1420527D01*
X1143272Y1420740D01*
X1143170Y1420980D01*
Y1420989D01*
X1143161Y1421008D01*
X1143143Y1421045D01*
X1143133Y1421100D01*
X1143106Y1421165D01*
X1143087Y1421239D01*
X1143069Y1421322D01*
X1143041Y1421424D01*
X1143013Y1421526D01*
X1142995Y1421646D01*
X1142949Y1421905D01*
X1142921Y1422191D01*
X1142912Y1422506D01*
Y1422515D01*
Y1422534D01*
Y1422580D01*
Y1422626D01*
X1142921Y1422691D01*
Y1422765D01*
X1142930Y1422940D01*
X1142958Y1423144D01*
X1142985Y1423356D01*
X1143032Y1423578D01*
X1143087Y1423800D01*
Y1423809D01*
X1143096Y1423828D01*
X1143106Y1423856D01*
X1143115Y1423893D01*
X1143152Y1423994D01*
X1143207Y1424124D01*
X1143263Y1424272D01*
X1143337Y1424420D01*
X1143429Y1424577D01*
X1143522Y1424725D01*
X1143531Y1424743D01*
X1143568Y1424789D01*
X1143623Y1424854D01*
X1143697Y1424937D01*
X1143781Y1425030D01*
X1143882Y1425122D01*
X1143984Y1425224D01*
X1144104Y1425307D01*
X1144123Y1425316D01*
X1144160Y1425344D01*
X1144224Y1425381D01*
X1144317Y1425427D01*
X1144428Y1425483D01*
X1144557Y1425529D01*
X1144705Y1425585D01*
X1144872Y1425631D01*
X1144890D01*
X1144918Y1425640D01*
X1144946Y1425649D01*
X1145038Y1425659D01*
X1145167Y1425677D01*
X1145315Y1425695D01*
X1145491Y1425714D01*
X1145685Y1425723D01*
X1145898Y1425732D01*
X1148200D01*
Y1419335D01*
D02*
G37*
G36*
X1139897Y1420731D02*
X1139907Y1420740D01*
X1139953Y1420777D01*
X1140008Y1420832D01*
X1140101Y1420897D01*
X1140202Y1420980D01*
X1140332Y1421073D01*
X1140480Y1421174D01*
X1140646Y1421276D01*
X1140656D01*
X1140665Y1421285D01*
X1140720Y1421322D01*
X1140813Y1421369D01*
X1140924Y1421424D01*
X1141053Y1421489D01*
X1141192Y1421553D01*
X1141330Y1421618D01*
X1141469Y1421674D01*
Y1420916D01*
X1141460D01*
X1141441Y1420897D01*
X1141404Y1420888D01*
X1141358Y1420860D01*
X1141303Y1420832D01*
X1141238Y1420795D01*
X1141081Y1420703D01*
X1140896Y1420601D01*
X1140711Y1420472D01*
X1140517Y1420324D01*
X1140323Y1420167D01*
X1140313Y1420157D01*
X1140304Y1420148D01*
X1140276Y1420120D01*
X1140239Y1420093D01*
X1140156Y1420000D01*
X1140045Y1419889D01*
X1139934Y1419760D01*
X1139814Y1419612D01*
X1139713Y1419464D01*
X1139620Y1419307D01*
X1139111D01*
Y1425732D01*
X1139897D01*
Y1420731D01*
D02*
G37*
G36*
X1271001Y1153797D02*
X1270992D01*
X1270955D01*
X1270899D01*
X1270825Y1153807D01*
X1270742Y1153816D01*
X1270649Y1153834D01*
X1270557Y1153853D01*
X1270455Y1153890D01*
X1270446D01*
X1270437Y1153899D01*
X1270381Y1153917D01*
X1270298Y1153954D01*
X1270187Y1154010D01*
X1270058Y1154084D01*
X1269910Y1154176D01*
X1269762Y1154278D01*
X1269605Y1154408D01*
X1269595D01*
X1269586Y1154426D01*
X1269531Y1154472D01*
X1269448Y1154555D01*
X1269327Y1154676D01*
X1269189Y1154814D01*
X1269022Y1154990D01*
X1268837Y1155203D01*
X1268643Y1155434D01*
X1268634Y1155443D01*
X1268606Y1155480D01*
X1268560Y1155536D01*
X1268504Y1155600D01*
X1268431Y1155683D01*
X1268347Y1155785D01*
X1268255Y1155887D01*
X1268153Y1156007D01*
X1267931Y1156238D01*
X1267709Y1156469D01*
X1267598Y1156580D01*
X1267487Y1156682D01*
X1267386Y1156774D01*
X1267284Y1156848D01*
X1267275D01*
X1267266Y1156867D01*
X1267238Y1156885D01*
X1267201Y1156904D01*
X1267099Y1156969D01*
X1266979Y1157042D01*
X1266831Y1157107D01*
X1266674Y1157172D01*
X1266498Y1157209D01*
X1266332Y1157227D01*
X1266323D01*
X1266313D01*
X1266258Y1157218D01*
X1266165Y1157209D01*
X1266064Y1157181D01*
X1265934Y1157144D01*
X1265805Y1157079D01*
X1265675Y1156996D01*
X1265546Y1156885D01*
X1265527Y1156867D01*
X1265490Y1156821D01*
X1265444Y1156756D01*
X1265379Y1156654D01*
X1265324Y1156525D01*
X1265269Y1156377D01*
X1265232Y1156201D01*
X1265222Y1156007D01*
Y1155952D01*
X1265232Y1155915D01*
X1265241Y1155804D01*
X1265269Y1155674D01*
X1265305Y1155536D01*
X1265370Y1155378D01*
X1265453Y1155230D01*
X1265564Y1155092D01*
X1265583Y1155073D01*
X1265629Y1155036D01*
X1265703Y1154981D01*
X1265814Y1154925D01*
X1265944Y1154861D01*
X1266110Y1154805D01*
X1266295Y1154768D01*
X1266507Y1154750D01*
X1266424Y1153945D01*
X1266415D01*
X1266387Y1153954D01*
X1266341D01*
X1266276Y1153964D01*
X1266202Y1153982D01*
X1266119Y1154001D01*
X1266018Y1154028D01*
X1265916Y1154056D01*
X1265694Y1154130D01*
X1265472Y1154241D01*
X1265361Y1154306D01*
X1265250Y1154389D01*
X1265148Y1154472D01*
X1265056Y1154565D01*
X1265047Y1154574D01*
X1265037Y1154592D01*
X1265010Y1154620D01*
X1264982Y1154666D01*
X1264945Y1154722D01*
X1264908Y1154787D01*
X1264862Y1154861D01*
X1264816Y1154953D01*
X1264769Y1155055D01*
X1264723Y1155166D01*
X1264686Y1155286D01*
X1264649Y1155415D01*
X1264621Y1155554D01*
X1264594Y1155702D01*
X1264584Y1155859D01*
X1264575Y1156025D01*
Y1156118D01*
X1264584Y1156183D01*
X1264594Y1156257D01*
X1264603Y1156349D01*
X1264621Y1156451D01*
X1264640Y1156553D01*
X1264705Y1156793D01*
X1264797Y1157033D01*
X1264853Y1157153D01*
X1264917Y1157274D01*
X1265000Y1157385D01*
X1265093Y1157486D01*
X1265102Y1157495D01*
X1265111Y1157514D01*
X1265148Y1157533D01*
X1265185Y1157570D01*
X1265232Y1157616D01*
X1265296Y1157662D01*
X1265361Y1157708D01*
X1265444Y1157764D01*
X1265620Y1157856D01*
X1265842Y1157949D01*
X1265953Y1157986D01*
X1266082Y1158004D01*
X1266212Y1158023D01*
X1266350Y1158032D01*
X1266369D01*
X1266415D01*
X1266489Y1158023D01*
X1266591Y1158013D01*
X1266702Y1157995D01*
X1266831Y1157958D01*
X1266970Y1157921D01*
X1267108Y1157865D01*
X1267127Y1157856D01*
X1267173Y1157838D01*
X1267247Y1157801D01*
X1267349Y1157745D01*
X1267460Y1157671D01*
X1267598Y1157579D01*
X1267737Y1157468D01*
X1267894Y1157338D01*
X1267913Y1157320D01*
X1267968Y1157274D01*
X1268015Y1157227D01*
X1268061Y1157181D01*
X1268116Y1157126D01*
X1268190Y1157052D01*
X1268264Y1156978D01*
X1268347Y1156885D01*
X1268440Y1156793D01*
X1268541Y1156682D01*
X1268643Y1156562D01*
X1268763Y1156432D01*
X1268884Y1156284D01*
X1269013Y1156136D01*
X1269022Y1156127D01*
X1269041Y1156109D01*
X1269069Y1156072D01*
X1269106Y1156025D01*
X1269161Y1155970D01*
X1269216Y1155905D01*
X1269337Y1155757D01*
X1269475Y1155600D01*
X1269614Y1155452D01*
X1269734Y1155323D01*
X1269780Y1155267D01*
X1269827Y1155221D01*
X1269836Y1155212D01*
X1269864Y1155184D01*
X1269901Y1155147D01*
X1269956Y1155101D01*
X1270021Y1155055D01*
X1270086Y1154999D01*
X1270243Y1154888D01*
Y1158041D01*
X1271001D01*
Y1153797D01*
D02*
G37*
G36*
X1269253Y1153122D02*
X1269327Y1153113D01*
X1269411Y1153095D01*
X1269503Y1153076D01*
X1269605Y1153058D01*
X1269827Y1152984D01*
X1269947Y1152928D01*
X1270058Y1152873D01*
X1270178Y1152799D01*
X1270298Y1152716D01*
X1270418Y1152623D01*
X1270529Y1152512D01*
X1270539Y1152503D01*
X1270557Y1152484D01*
X1270585Y1152447D01*
X1270622Y1152401D01*
X1270668Y1152346D01*
X1270714Y1152272D01*
X1270770Y1152189D01*
X1270816Y1152087D01*
X1270871Y1151985D01*
X1270927Y1151865D01*
X1270973Y1151745D01*
X1271019Y1151606D01*
X1271056Y1151458D01*
X1271084Y1151301D01*
X1271103Y1151144D01*
X1271112Y1150968D01*
Y1150885D01*
X1271103Y1150829D01*
X1271093Y1150755D01*
X1271084Y1150672D01*
X1271066Y1150580D01*
X1271047Y1150478D01*
X1270992Y1150256D01*
X1270899Y1150025D01*
X1270844Y1149905D01*
X1270779Y1149794D01*
X1270696Y1149683D01*
X1270612Y1149572D01*
X1270603Y1149563D01*
X1270585Y1149544D01*
X1270557Y1149517D01*
X1270520Y1149489D01*
X1270474Y1149443D01*
X1270409Y1149396D01*
X1270344Y1149341D01*
X1270261Y1149285D01*
X1270169Y1149230D01*
X1270076Y1149174D01*
X1269854Y1149073D01*
X1269595Y1148990D01*
X1269457Y1148962D01*
X1269309Y1148943D01*
X1269207Y1149729D01*
X1269216D01*
X1269235Y1149738D01*
X1269272Y1149748D01*
X1269318Y1149757D01*
X1269374Y1149766D01*
X1269438Y1149785D01*
X1269577Y1149831D01*
X1269743Y1149896D01*
X1269901Y1149979D01*
X1270049Y1150071D01*
X1270178Y1150182D01*
X1270187Y1150201D01*
X1270224Y1150238D01*
X1270270Y1150312D01*
X1270317Y1150404D01*
X1270372Y1150515D01*
X1270418Y1150654D01*
X1270455Y1150811D01*
X1270465Y1150977D01*
Y1151033D01*
X1270455Y1151070D01*
X1270446Y1151171D01*
X1270418Y1151301D01*
X1270372Y1151449D01*
X1270307Y1151606D01*
X1270215Y1151763D01*
X1270086Y1151911D01*
X1270067Y1151930D01*
X1270012Y1151976D01*
X1269928Y1152031D01*
X1269817Y1152105D01*
X1269679Y1152179D01*
X1269521Y1152235D01*
X1269337Y1152281D01*
X1269133Y1152299D01*
X1269124D01*
X1269106D01*
X1269078D01*
X1269041Y1152290D01*
X1268939Y1152281D01*
X1268819Y1152253D01*
X1268671Y1152216D01*
X1268523Y1152152D01*
X1268375Y1152059D01*
X1268236Y1151939D01*
X1268218Y1151920D01*
X1268181Y1151874D01*
X1268126Y1151800D01*
X1268061Y1151699D01*
X1267996Y1151569D01*
X1267941Y1151412D01*
X1267904Y1151236D01*
X1267885Y1151042D01*
Y1150959D01*
X1267894Y1150894D01*
X1267904Y1150811D01*
X1267922Y1150719D01*
X1267941Y1150608D01*
X1267968Y1150487D01*
X1267275Y1150580D01*
Y1150626D01*
X1267284Y1150663D01*
Y1150783D01*
X1267266Y1150885D01*
X1267247Y1151005D01*
X1267219Y1151144D01*
X1267173Y1151301D01*
X1267108Y1151449D01*
X1267025Y1151606D01*
Y1151615D01*
X1267016Y1151625D01*
X1266979Y1151671D01*
X1266914Y1151736D01*
X1266831Y1151809D01*
X1266711Y1151883D01*
X1266572Y1151948D01*
X1266415Y1151994D01*
X1266323Y1152013D01*
X1266221D01*
X1266212D01*
X1266202D01*
X1266147D01*
X1266073Y1151994D01*
X1265971Y1151976D01*
X1265860Y1151939D01*
X1265740Y1151893D01*
X1265620Y1151819D01*
X1265509Y1151717D01*
X1265500Y1151708D01*
X1265463Y1151662D01*
X1265416Y1151597D01*
X1265361Y1151514D01*
X1265315Y1151403D01*
X1265269Y1151273D01*
X1265232Y1151125D01*
X1265222Y1150959D01*
Y1150885D01*
X1265241Y1150802D01*
X1265259Y1150691D01*
X1265296Y1150571D01*
X1265342Y1150450D01*
X1265416Y1150321D01*
X1265509Y1150201D01*
X1265518Y1150191D01*
X1265564Y1150154D01*
X1265629Y1150099D01*
X1265722Y1150034D01*
X1265842Y1149970D01*
X1265990Y1149905D01*
X1266165Y1149849D01*
X1266369Y1149812D01*
X1266230Y1149027D01*
X1266221D01*
X1266193Y1149036D01*
X1266156Y1149045D01*
X1266101Y1149054D01*
X1266036Y1149073D01*
X1265962Y1149100D01*
X1265786Y1149156D01*
X1265583Y1149249D01*
X1265379Y1149359D01*
X1265185Y1149498D01*
X1265010Y1149674D01*
X1265000Y1149683D01*
X1264991Y1149702D01*
X1264973Y1149729D01*
X1264945Y1149766D01*
X1264908Y1149812D01*
X1264871Y1149877D01*
X1264834Y1149942D01*
X1264788Y1150025D01*
X1264714Y1150210D01*
X1264640Y1150423D01*
X1264594Y1150672D01*
X1264575Y1150802D01*
Y1151033D01*
X1264584Y1151135D01*
X1264603Y1151255D01*
X1264631Y1151403D01*
X1264677Y1151569D01*
X1264732Y1151736D01*
X1264806Y1151902D01*
Y1151911D01*
X1264816Y1151920D01*
X1264843Y1151976D01*
X1264899Y1152059D01*
X1264964Y1152152D01*
X1265056Y1152262D01*
X1265158Y1152374D01*
X1265278Y1152484D01*
X1265416Y1152577D01*
X1265435Y1152586D01*
X1265481Y1152614D01*
X1265564Y1152651D01*
X1265666Y1152697D01*
X1265786Y1152743D01*
X1265925Y1152780D01*
X1266082Y1152808D01*
X1266239Y1152817D01*
X1266258D01*
X1266313D01*
X1266387Y1152808D01*
X1266489Y1152790D01*
X1266609Y1152762D01*
X1266739Y1152716D01*
X1266868Y1152660D01*
X1266998Y1152586D01*
X1267016Y1152577D01*
X1267053Y1152549D01*
X1267118Y1152494D01*
X1267192Y1152420D01*
X1267275Y1152327D01*
X1267367Y1152216D01*
X1267450Y1152087D01*
X1267534Y1151930D01*
Y1151939D01*
X1267543Y1151957D01*
X1267552Y1151985D01*
X1267561Y1152022D01*
X1267598Y1152124D01*
X1267654Y1152253D01*
X1267728Y1152401D01*
X1267820Y1152549D01*
X1267941Y1152688D01*
X1268079Y1152817D01*
X1268098Y1152827D01*
X1268153Y1152863D01*
X1268246Y1152919D01*
X1268366Y1152974D01*
X1268514Y1153030D01*
X1268689Y1153085D01*
X1268893Y1153122D01*
X1269115Y1153132D01*
X1269124D01*
X1269152D01*
X1269198D01*
X1269253Y1153122D01*
D02*
G37*
G36*
X1271500Y1147991D02*
Y1147982D01*
X1271491Y1147963D01*
X1271472Y1147926D01*
X1271454Y1147871D01*
X1271426Y1147806D01*
X1271389Y1147732D01*
X1271352Y1147649D01*
X1271306Y1147557D01*
X1271195Y1147353D01*
X1271066Y1147122D01*
X1270899Y1146872D01*
X1270714Y1146613D01*
Y1146604D01*
X1270733Y1146586D01*
X1270751Y1146540D01*
X1270779Y1146493D01*
X1270807Y1146419D01*
X1270844Y1146345D01*
X1270871Y1146253D01*
X1270908Y1146151D01*
X1270945Y1146040D01*
X1270982Y1145920D01*
X1271047Y1145652D01*
X1271093Y1145356D01*
X1271103Y1145199D01*
X1271112Y1145042D01*
Y1144958D01*
X1271103Y1144894D01*
Y1144820D01*
X1271093Y1144727D01*
X1271075Y1144626D01*
X1271056Y1144515D01*
X1271010Y1144274D01*
X1270936Y1144006D01*
X1270834Y1143729D01*
X1270770Y1143599D01*
X1270696Y1143461D01*
X1270686Y1143452D01*
X1270677Y1143433D01*
X1270649Y1143396D01*
X1270622Y1143350D01*
X1270575Y1143285D01*
X1270520Y1143220D01*
X1270391Y1143063D01*
X1270224Y1142887D01*
X1270021Y1142712D01*
X1269790Y1142536D01*
X1269521Y1142379D01*
X1269512D01*
X1269485Y1142361D01*
X1269448Y1142342D01*
X1269392Y1142324D01*
X1269318Y1142296D01*
X1269235Y1142259D01*
X1269133Y1142222D01*
X1269022Y1142194D01*
X1268902Y1142157D01*
X1268773Y1142120D01*
X1268634Y1142092D01*
X1268477Y1142055D01*
X1268153Y1142018D01*
X1267811Y1142000D01*
X1267802D01*
X1267765D01*
X1267719D01*
X1267654Y1142009D01*
X1267571D01*
X1267469Y1142018D01*
X1267358Y1142028D01*
X1267238Y1142046D01*
X1266970Y1142092D01*
X1266683Y1142157D01*
X1266378Y1142250D01*
X1266082Y1142379D01*
X1266073Y1142388D01*
X1266045Y1142398D01*
X1266008Y1142416D01*
X1265953Y1142453D01*
X1265888Y1142490D01*
X1265814Y1142536D01*
X1265638Y1142666D01*
X1265453Y1142813D01*
X1265259Y1143008D01*
X1265065Y1143220D01*
X1264899Y1143470D01*
X1264890Y1143479D01*
X1264880Y1143507D01*
X1264862Y1143544D01*
X1264834Y1143599D01*
X1264806Y1143664D01*
X1264769Y1143738D01*
X1264732Y1143830D01*
X1264695Y1143932D01*
X1264658Y1144052D01*
X1264621Y1144173D01*
X1264557Y1144441D01*
X1264510Y1144737D01*
X1264492Y1144894D01*
Y1145143D01*
X1264501Y1145208D01*
Y1145291D01*
X1264510Y1145375D01*
X1264529Y1145486D01*
X1264547Y1145596D01*
X1264594Y1145837D01*
X1264668Y1146114D01*
X1264779Y1146382D01*
X1264843Y1146521D01*
X1264917Y1146660D01*
X1264927Y1146669D01*
X1264936Y1146687D01*
X1264964Y1146724D01*
X1264991Y1146780D01*
X1265037Y1146835D01*
X1265093Y1146909D01*
X1265222Y1147066D01*
X1265389Y1147233D01*
X1265592Y1147418D01*
X1265833Y1147594D01*
X1266101Y1147741D01*
X1266110D01*
X1266138Y1147760D01*
X1266175Y1147778D01*
X1266230Y1147797D01*
X1266304Y1147834D01*
X1266387Y1147862D01*
X1266489Y1147899D01*
X1266600Y1147936D01*
X1266720Y1147963D01*
X1266850Y1148000D01*
X1266988Y1148037D01*
X1267136Y1148065D01*
X1267460Y1148102D01*
X1267802Y1148120D01*
X1267811D01*
X1267839D01*
X1267876D01*
X1267931D01*
X1268005Y1148111D01*
X1268089D01*
X1268181Y1148102D01*
X1268273Y1148093D01*
X1268495Y1148065D01*
X1268736Y1148019D01*
X1268985Y1147963D01*
X1269226Y1147880D01*
X1269235D01*
X1269253Y1147871D01*
X1269290Y1147852D01*
X1269327Y1147834D01*
X1269383Y1147806D01*
X1269448Y1147778D01*
X1269595Y1147704D01*
X1269771Y1147603D01*
X1269956Y1147473D01*
X1270141Y1147325D01*
X1270326Y1147159D01*
Y1147168D01*
X1270344Y1147187D01*
X1270363Y1147214D01*
X1270391Y1147261D01*
X1270428Y1147307D01*
X1270465Y1147372D01*
X1270548Y1147510D01*
X1270649Y1147677D01*
X1270751Y1147862D01*
X1270834Y1148056D01*
X1270918Y1148241D01*
X1271500Y1147991D01*
D02*
G37*
%LPC*%
G36*
X794394Y897733D02*
X792379Y894867D01*
X794394D01*
Y897733D01*
D02*
G37*
G36*
X747881Y983232D02*
X745865Y980366D01*
X747881D01*
Y983232D01*
D02*
G37*
G36*
X794317Y1055326D02*
X792301D01*
Y1052459D01*
X794317Y1055326D01*
D02*
G37*
G36*
X798690Y1056971D02*
X798606D01*
X798523Y1056962D01*
X798412Y1056953D01*
X798274Y1056934D01*
X798135Y1056897D01*
X797978Y1056860D01*
X797830Y1056805D01*
X797848Y1056796D01*
X797895Y1056759D01*
X797978Y1056712D01*
X798080Y1056657D01*
X798209Y1056601D01*
X798348Y1056537D01*
X798505Y1056481D01*
X798671Y1056435D01*
X798459Y1055825D01*
X798449D01*
X798422Y1055834D01*
X798385Y1055843D01*
X798338Y1055862D01*
X798274Y1055880D01*
X798200Y1055908D01*
X798033Y1055973D01*
X797839Y1056065D01*
X797636Y1056167D01*
X797442Y1056287D01*
X797247Y1056435D01*
X797238Y1056426D01*
X797210Y1056407D01*
X797173Y1056361D01*
X797127Y1056306D01*
X797072Y1056232D01*
X797007Y1056148D01*
X796942Y1056047D01*
X796868Y1055927D01*
X796804Y1055788D01*
X796739Y1055631D01*
X796674Y1055464D01*
X796619Y1055289D01*
X796563Y1055085D01*
X796526Y1054873D01*
X796508Y1054641D01*
X796498Y1054392D01*
Y1054382D01*
Y1054355D01*
Y1054318D01*
Y1054262D01*
X796508Y1054188D01*
Y1054114D01*
X796517Y1054022D01*
X796535Y1053930D01*
X796563Y1053717D01*
X796609Y1053486D01*
X796674Y1053254D01*
X796767Y1053033D01*
Y1053023D01*
X796776Y1053005D01*
X796794Y1052977D01*
X796813Y1052940D01*
X796878Y1052829D01*
X796961Y1052700D01*
X797072Y1052552D01*
X797210Y1052404D01*
X797368Y1052256D01*
X797543Y1052127D01*
X797552D01*
X797562Y1052108D01*
X797589Y1052099D01*
X797636Y1052071D01*
X797682Y1052053D01*
X797737Y1052025D01*
X797876Y1051960D01*
X798043Y1051905D01*
X798237Y1051849D01*
X798459Y1051812D01*
X798690Y1051803D01*
X798782D01*
X798847Y1051812D01*
X798930Y1051822D01*
X799023Y1051840D01*
X799124Y1051859D01*
X799235Y1051886D01*
X799365Y1051923D01*
X799485Y1051960D01*
X799614Y1052016D01*
X799753Y1052080D01*
X799882Y1052154D01*
X800012Y1052247D01*
X800141Y1052339D01*
X800262Y1052459D01*
X800271Y1052469D01*
X800289Y1052487D01*
X800317Y1052524D01*
X800354Y1052580D01*
X800409Y1052644D01*
X800456Y1052728D01*
X800511Y1052829D01*
X800567Y1052940D01*
X800631Y1053070D01*
X800687Y1053218D01*
X800733Y1053375D01*
X800779Y1053550D01*
X800826Y1053735D01*
X800853Y1053939D01*
X800872Y1054161D01*
X800881Y1054392D01*
Y1054410D01*
Y1054447D01*
Y1054512D01*
X800872Y1054595D01*
X800863Y1054697D01*
X800844Y1054817D01*
X800826Y1054956D01*
X800807Y1055094D01*
X800733Y1055409D01*
X800687Y1055566D01*
X800622Y1055723D01*
X800557Y1055880D01*
X800474Y1056028D01*
X800382Y1056176D01*
X800271Y1056306D01*
X800262Y1056315D01*
X800243Y1056333D01*
X800206Y1056370D01*
X800160Y1056407D01*
X800095Y1056463D01*
X800021Y1056518D01*
X799938Y1056574D01*
X799836Y1056638D01*
X799734Y1056703D01*
X799614Y1056759D01*
X799485Y1056814D01*
X799346Y1056870D01*
X799189Y1056907D01*
X799032Y1056944D01*
X798865Y1056962D01*
X798690Y1056971D01*
D02*
G37*
G36*
X1407121Y1057633D02*
X1405106D01*
Y1054767D01*
X1407121Y1057633D01*
D02*
G37*
G36*
X1394196D02*
X1392180D01*
Y1054767D01*
X1394196Y1057633D01*
D02*
G37*
G36*
X1453634Y972134D02*
X1451619D01*
Y969268D01*
X1453634Y972134D01*
D02*
G37*
G36*
X1440709D02*
X1438694D01*
Y969268D01*
X1440709Y972134D01*
D02*
G37*
G36*
X1420124Y900041D02*
X1418109Y897175D01*
X1420124D01*
Y900041D01*
D02*
G37*
G36*
X1407199D02*
X1405183Y897175D01*
X1407199D01*
Y900041D01*
D02*
G37*
G36*
X1400810Y900697D02*
X1400718D01*
X1400653Y900688D01*
X1400570Y900678D01*
X1400477Y900660D01*
X1400376Y900642D01*
X1400265Y900614D01*
X1400135Y900577D01*
X1400015Y900540D01*
X1399886Y900484D01*
X1399747Y900420D01*
X1399618Y900346D01*
X1399488Y900253D01*
X1399359Y900161D01*
X1399238Y900041D01*
X1399229Y900031D01*
X1399211Y900013D01*
X1399183Y899976D01*
X1399146Y899920D01*
X1399091Y899856D01*
X1399044Y899772D01*
X1398989Y899671D01*
X1398933Y899560D01*
X1398869Y899430D01*
X1398813Y899283D01*
X1398767Y899125D01*
X1398721Y898950D01*
X1398674Y898765D01*
X1398647Y898561D01*
X1398628Y898339D01*
X1398619Y898108D01*
Y898090D01*
Y898053D01*
Y897988D01*
X1398628Y897905D01*
X1398638Y897803D01*
X1398656Y897683D01*
X1398674Y897544D01*
X1398693Y897406D01*
X1398767Y897091D01*
X1398813Y896934D01*
X1398878Y896777D01*
X1398943Y896620D01*
X1399026Y896472D01*
X1399118Y896324D01*
X1399229Y896194D01*
X1399238Y896185D01*
X1399257Y896167D01*
X1399294Y896130D01*
X1399340Y896093D01*
X1399405Y896037D01*
X1399479Y895982D01*
X1399562Y895926D01*
X1399664Y895862D01*
X1399765Y895797D01*
X1399886Y895741D01*
X1400015Y895686D01*
X1400154Y895630D01*
X1400311Y895593D01*
X1400468Y895556D01*
X1400635Y895538D01*
X1400810Y895529D01*
X1400894D01*
X1400977Y895538D01*
X1401088Y895547D01*
X1401226Y895566D01*
X1401365Y895603D01*
X1401522Y895640D01*
X1401670Y895695D01*
X1401652Y895704D01*
X1401605Y895741D01*
X1401522Y895788D01*
X1401420Y895843D01*
X1401291Y895899D01*
X1401152Y895963D01*
X1400995Y896019D01*
X1400829Y896065D01*
X1401041Y896675D01*
X1401051D01*
X1401078Y896666D01*
X1401115Y896657D01*
X1401162Y896638D01*
X1401226Y896620D01*
X1401300Y896592D01*
X1401467Y896527D01*
X1401661Y896435D01*
X1401864Y896333D01*
X1402058Y896213D01*
X1402253Y896065D01*
X1402262Y896074D01*
X1402290Y896093D01*
X1402327Y896139D01*
X1402373Y896194D01*
X1402428Y896268D01*
X1402493Y896352D01*
X1402558Y896453D01*
X1402632Y896573D01*
X1402696Y896712D01*
X1402761Y896869D01*
X1402826Y897036D01*
X1402881Y897211D01*
X1402937Y897415D01*
X1402974Y897627D01*
X1402992Y897859D01*
X1403002Y898108D01*
Y898118D01*
Y898145D01*
Y898182D01*
Y898238D01*
X1402992Y898312D01*
Y898386D01*
X1402983Y898478D01*
X1402964Y898570D01*
X1402937Y898783D01*
X1402890Y899014D01*
X1402826Y899246D01*
X1402733Y899467D01*
Y899477D01*
X1402724Y899495D01*
X1402706Y899523D01*
X1402687Y899560D01*
X1402622Y899671D01*
X1402539Y899800D01*
X1402428Y899948D01*
X1402290Y900096D01*
X1402132Y900244D01*
X1401957Y900373D01*
X1401947D01*
X1401938Y900392D01*
X1401911Y900401D01*
X1401864Y900429D01*
X1401818Y900447D01*
X1401763Y900475D01*
X1401624Y900540D01*
X1401458Y900595D01*
X1401263Y900651D01*
X1401041Y900688D01*
X1400810Y900697D01*
D02*
G37*
G36*
X794144Y1145233D02*
X792129Y1142367D01*
X794144D01*
Y1145233D01*
D02*
G37*
G36*
X794066Y1302825D02*
X792051D01*
Y1299959D01*
X794066Y1302825D01*
D02*
G37*
G36*
X798440Y1304471D02*
X798356D01*
X798273Y1304462D01*
X798162Y1304453D01*
X798024Y1304434D01*
X797885Y1304397D01*
X797728Y1304360D01*
X797580Y1304305D01*
X797598Y1304296D01*
X797645Y1304259D01*
X797728Y1304212D01*
X797830Y1304157D01*
X797959Y1304101D01*
X798098Y1304037D01*
X798255Y1303981D01*
X798421Y1303935D01*
X798208Y1303325D01*
X798199D01*
X798172Y1303334D01*
X798135Y1303343D01*
X798088Y1303362D01*
X798024Y1303380D01*
X797950Y1303408D01*
X797783Y1303473D01*
X797589Y1303565D01*
X797386Y1303667D01*
X797191Y1303787D01*
X796997Y1303935D01*
X796988Y1303926D01*
X796960Y1303907D01*
X796923Y1303861D01*
X796877Y1303806D01*
X796822Y1303732D01*
X796757Y1303648D01*
X796692Y1303547D01*
X796618Y1303427D01*
X796554Y1303288D01*
X796489Y1303131D01*
X796424Y1302964D01*
X796369Y1302789D01*
X796313Y1302585D01*
X796276Y1302372D01*
X796258Y1302141D01*
X796248Y1301892D01*
Y1301882D01*
Y1301855D01*
Y1301818D01*
Y1301762D01*
X796258Y1301688D01*
Y1301614D01*
X796267Y1301522D01*
X796285Y1301429D01*
X796313Y1301217D01*
X796359Y1300986D01*
X796424Y1300755D01*
X796517Y1300533D01*
Y1300523D01*
X796526Y1300505D01*
X796544Y1300477D01*
X796563Y1300440D01*
X796628Y1300329D01*
X796711Y1300200D01*
X796822Y1300052D01*
X796960Y1299904D01*
X797118Y1299756D01*
X797293Y1299627D01*
X797302D01*
X797312Y1299608D01*
X797339Y1299599D01*
X797386Y1299571D01*
X797432Y1299553D01*
X797487Y1299525D01*
X797626Y1299460D01*
X797793Y1299405D01*
X797987Y1299349D01*
X798208Y1299312D01*
X798440Y1299303D01*
X798532D01*
X798597Y1299312D01*
X798680Y1299321D01*
X798773Y1299340D01*
X798874Y1299358D01*
X798985Y1299386D01*
X799115Y1299423D01*
X799235Y1299460D01*
X799364Y1299516D01*
X799503Y1299580D01*
X799632Y1299654D01*
X799762Y1299747D01*
X799891Y1299839D01*
X800011Y1299959D01*
X800021Y1299969D01*
X800039Y1299987D01*
X800067Y1300024D01*
X800104Y1300080D01*
X800159Y1300144D01*
X800206Y1300228D01*
X800261Y1300329D01*
X800316Y1300440D01*
X800381Y1300570D01*
X800437Y1300717D01*
X800483Y1300875D01*
X800529Y1301050D01*
X800575Y1301235D01*
X800603Y1301439D01*
X800622Y1301661D01*
X800631Y1301892D01*
Y1301910D01*
Y1301947D01*
Y1302012D01*
X800622Y1302095D01*
X800612Y1302197D01*
X800594Y1302317D01*
X800575Y1302456D01*
X800557Y1302594D01*
X800483Y1302909D01*
X800437Y1303066D01*
X800372Y1303223D01*
X800307Y1303380D01*
X800224Y1303528D01*
X800132Y1303676D01*
X800021Y1303806D01*
X800011Y1303815D01*
X799993Y1303833D01*
X799956Y1303870D01*
X799910Y1303907D01*
X799845Y1303963D01*
X799771Y1304018D01*
X799688Y1304074D01*
X799586Y1304138D01*
X799484Y1304203D01*
X799364Y1304259D01*
X799235Y1304314D01*
X799096Y1304370D01*
X798939Y1304406D01*
X798782Y1304444D01*
X798615Y1304462D01*
X798440Y1304471D01*
D02*
G37*
G36*
X747631Y1230732D02*
X745615Y1227866D01*
X747631D01*
Y1230732D01*
D02*
G37*
G36*
X1406871Y1304883D02*
X1404856D01*
Y1302017D01*
X1406871Y1304883D01*
D02*
G37*
G36*
X1453385Y1219384D02*
X1451369D01*
Y1216518D01*
X1453385Y1219384D01*
D02*
G37*
G36*
X1406949Y1147291D02*
X1404933Y1144425D01*
X1406949D01*
Y1147291D01*
D02*
G37*
G36*
X1400560Y1147947D02*
X1400468D01*
X1400403Y1147938D01*
X1400320Y1147928D01*
X1400227Y1147910D01*
X1400126Y1147892D01*
X1400015Y1147864D01*
X1399885Y1147827D01*
X1399765Y1147790D01*
X1399636Y1147734D01*
X1399497Y1147670D01*
X1399368Y1147596D01*
X1399238Y1147503D01*
X1399109Y1147411D01*
X1398988Y1147291D01*
X1398979Y1147281D01*
X1398961Y1147263D01*
X1398933Y1147226D01*
X1398896Y1147170D01*
X1398841Y1147106D01*
X1398794Y1147022D01*
X1398739Y1146921D01*
X1398683Y1146810D01*
X1398619Y1146680D01*
X1398563Y1146533D01*
X1398517Y1146375D01*
X1398471Y1146200D01*
X1398425Y1146015D01*
X1398397Y1145811D01*
X1398378Y1145589D01*
X1398369Y1145358D01*
Y1145340D01*
Y1145303D01*
Y1145238D01*
X1398378Y1145155D01*
X1398388Y1145053D01*
X1398406Y1144933D01*
X1398425Y1144794D01*
X1398443Y1144656D01*
X1398517Y1144341D01*
X1398563Y1144184D01*
X1398628Y1144027D01*
X1398693Y1143870D01*
X1398776Y1143722D01*
X1398868Y1143574D01*
X1398979Y1143444D01*
X1398988Y1143435D01*
X1399007Y1143417D01*
X1399044Y1143380D01*
X1399090Y1143343D01*
X1399155Y1143287D01*
X1399229Y1143232D01*
X1399312Y1143176D01*
X1399414Y1143112D01*
X1399516Y1143047D01*
X1399636Y1142991D01*
X1399765Y1142936D01*
X1399904Y1142880D01*
X1400061Y1142843D01*
X1400218Y1142806D01*
X1400385Y1142788D01*
X1400560Y1142779D01*
X1400643D01*
X1400727Y1142788D01*
X1400838Y1142797D01*
X1400976Y1142816D01*
X1401115Y1142853D01*
X1401272Y1142890D01*
X1401420Y1142945D01*
X1401402Y1142954D01*
X1401355Y1142991D01*
X1401272Y1143038D01*
X1401171Y1143093D01*
X1401041Y1143149D01*
X1400902Y1143213D01*
X1400745Y1143269D01*
X1400579Y1143315D01*
X1400791Y1143925D01*
X1400801D01*
X1400828Y1143916D01*
X1400865Y1143907D01*
X1400912Y1143888D01*
X1400976Y1143870D01*
X1401050Y1143842D01*
X1401217Y1143777D01*
X1401411Y1143685D01*
X1401614Y1143583D01*
X1401808Y1143463D01*
X1402003Y1143315D01*
X1402012Y1143324D01*
X1402040Y1143343D01*
X1402077Y1143389D01*
X1402123Y1143444D01*
X1402178Y1143518D01*
X1402243Y1143602D01*
X1402308Y1143703D01*
X1402382Y1143823D01*
X1402446Y1143962D01*
X1402511Y1144119D01*
X1402576Y1144286D01*
X1402631Y1144461D01*
X1402687Y1144665D01*
X1402724Y1144877D01*
X1402742Y1145109D01*
X1402751Y1145358D01*
Y1145368D01*
Y1145395D01*
Y1145432D01*
Y1145488D01*
X1402742Y1145562D01*
Y1145636D01*
X1402733Y1145728D01*
X1402715Y1145820D01*
X1402687Y1146033D01*
X1402641Y1146264D01*
X1402576Y1146496D01*
X1402483Y1146717D01*
Y1146727D01*
X1402474Y1146745D01*
X1402456Y1146773D01*
X1402437Y1146810D01*
X1402372Y1146921D01*
X1402289Y1147050D01*
X1402178Y1147198D01*
X1402040Y1147346D01*
X1401882Y1147494D01*
X1401707Y1147623D01*
X1401698D01*
X1401688Y1147642D01*
X1401660Y1147651D01*
X1401614Y1147679D01*
X1401568Y1147697D01*
X1401513Y1147725D01*
X1401374Y1147790D01*
X1401207Y1147845D01*
X1401013Y1147901D01*
X1400791Y1147938D01*
X1400560Y1147947D01*
D02*
G37*
G36*
X1147349Y1424974D02*
X1145833D01*
X1145768Y1424965D01*
X1145630Y1424956D01*
X1145472Y1424947D01*
X1145306Y1424928D01*
X1145140Y1424900D01*
X1145001Y1424863D01*
X1144983Y1424854D01*
X1144936Y1424845D01*
X1144872Y1424817D01*
X1144788Y1424780D01*
X1144696Y1424725D01*
X1144603Y1424669D01*
X1144511Y1424604D01*
X1144418Y1424530D01*
X1144409Y1424512D01*
X1144372Y1424475D01*
X1144317Y1424410D01*
X1144252Y1424318D01*
X1144178Y1424198D01*
X1144095Y1424059D01*
X1144021Y1423902D01*
X1143956Y1423726D01*
Y1423717D01*
X1143947Y1423698D01*
X1143938Y1423671D01*
X1143929Y1423634D01*
X1143919Y1423587D01*
X1143901Y1423523D01*
X1143882Y1423458D01*
X1143864Y1423384D01*
X1143836Y1423199D01*
X1143808Y1422986D01*
X1143790Y1422746D01*
X1143781Y1422487D01*
Y1422478D01*
Y1422441D01*
Y1422395D01*
X1143790Y1422321D01*
Y1422238D01*
X1143799Y1422145D01*
X1143808Y1422034D01*
X1143818Y1421923D01*
X1143864Y1421674D01*
X1143919Y1421415D01*
X1144003Y1421174D01*
X1144058Y1421054D01*
X1144113Y1420952D01*
Y1420943D01*
X1144132Y1420925D01*
X1144150Y1420897D01*
X1144169Y1420860D01*
X1144243Y1420768D01*
X1144335Y1420657D01*
X1144455Y1420536D01*
X1144594Y1420416D01*
X1144751Y1420314D01*
X1144918Y1420231D01*
X1144936Y1420222D01*
X1144983Y1420213D01*
X1145066Y1420185D01*
X1145186Y1420157D01*
X1145334Y1420139D01*
X1145519Y1420111D01*
X1145630Y1420102D01*
X1145750D01*
X1145870Y1420093D01*
X1147349D01*
Y1424974D01*
D02*
G37*
G36*
X1267811Y1147251D02*
X1267802D01*
X1267774D01*
X1267737D01*
X1267682D01*
X1267608Y1147242D01*
X1267534D01*
X1267441Y1147233D01*
X1267349Y1147214D01*
X1267136Y1147187D01*
X1266905Y1147141D01*
X1266674Y1147076D01*
X1266452Y1146983D01*
X1266443D01*
X1266424Y1146974D01*
X1266396Y1146955D01*
X1266359Y1146937D01*
X1266249Y1146872D01*
X1266119Y1146789D01*
X1265971Y1146678D01*
X1265823Y1146540D01*
X1265675Y1146382D01*
X1265546Y1146207D01*
Y1146197D01*
X1265527Y1146188D01*
X1265518Y1146160D01*
X1265490Y1146114D01*
X1265472Y1146068D01*
X1265444Y1146012D01*
X1265379Y1145874D01*
X1265324Y1145707D01*
X1265269Y1145513D01*
X1265232Y1145291D01*
X1265222Y1145060D01*
Y1144968D01*
X1265232Y1144903D01*
X1265241Y1144820D01*
X1265259Y1144727D01*
X1265278Y1144626D01*
X1265305Y1144515D01*
X1265342Y1144385D01*
X1265379Y1144265D01*
X1265435Y1144136D01*
X1265500Y1143997D01*
X1265574Y1143867D01*
X1265666Y1143738D01*
X1265759Y1143609D01*
X1265879Y1143488D01*
X1265888Y1143479D01*
X1265907Y1143461D01*
X1265944Y1143433D01*
X1265999Y1143396D01*
X1266064Y1143341D01*
X1266147Y1143294D01*
X1266249Y1143239D01*
X1266359Y1143183D01*
X1266489Y1143119D01*
X1266637Y1143063D01*
X1266794Y1143017D01*
X1266970Y1142971D01*
X1267155Y1142924D01*
X1267358Y1142897D01*
X1267580Y1142878D01*
X1267811Y1142869D01*
X1267830D01*
X1267867D01*
X1267931D01*
X1268015Y1142878D01*
X1268116Y1142887D01*
X1268236Y1142906D01*
X1268375Y1142924D01*
X1268514Y1142943D01*
X1268828Y1143017D01*
X1268985Y1143063D01*
X1269143Y1143128D01*
X1269300Y1143193D01*
X1269448Y1143276D01*
X1269595Y1143368D01*
X1269725Y1143479D01*
X1269734Y1143488D01*
X1269753Y1143507D01*
X1269790Y1143544D01*
X1269827Y1143590D01*
X1269882Y1143655D01*
X1269938Y1143729D01*
X1269993Y1143812D01*
X1270058Y1143914D01*
X1270123Y1144015D01*
X1270178Y1144136D01*
X1270234Y1144265D01*
X1270289Y1144404D01*
X1270326Y1144561D01*
X1270363Y1144718D01*
X1270381Y1144884D01*
X1270391Y1145060D01*
Y1145143D01*
X1270381Y1145227D01*
X1270372Y1145338D01*
X1270354Y1145476D01*
X1270317Y1145615D01*
X1270280Y1145772D01*
X1270224Y1145920D01*
X1270215Y1145901D01*
X1270178Y1145855D01*
X1270132Y1145772D01*
X1270076Y1145670D01*
X1270021Y1145541D01*
X1269956Y1145402D01*
X1269901Y1145245D01*
X1269854Y1145079D01*
X1269244Y1145291D01*
Y1145301D01*
X1269253Y1145328D01*
X1269263Y1145365D01*
X1269281Y1145412D01*
X1269300Y1145476D01*
X1269327Y1145550D01*
X1269392Y1145717D01*
X1269485Y1145911D01*
X1269586Y1146114D01*
X1269706Y1146308D01*
X1269854Y1146503D01*
X1269845Y1146512D01*
X1269827Y1146540D01*
X1269780Y1146577D01*
X1269725Y1146623D01*
X1269651Y1146678D01*
X1269568Y1146743D01*
X1269466Y1146808D01*
X1269346Y1146882D01*
X1269207Y1146946D01*
X1269050Y1147011D01*
X1268884Y1147076D01*
X1268708Y1147131D01*
X1268504Y1147187D01*
X1268292Y1147224D01*
X1268061Y1147242D01*
X1267811Y1147251D01*
D02*
G37*
%LPD*%
D11*
X1431550Y758800D02*
X1496450D01*
Y841200D01*
X1431550D02*
X1496450D01*
X1431550Y758800D02*
Y841200D01*
X742000Y856000D02*
Y929000D01*
Y856000D02*
X829000D01*
Y929000D01*
X742000D02*
X829000D01*
X705246Y926999D02*
Y1028999D01*
Y926999D02*
X773246D01*
Y1028999D01*
X705246D02*
X773246D01*
X829000Y1023948D02*
Y1088448D01*
X774500D02*
X829000D01*
X774500Y1023948D02*
Y1088448D01*
Y1023948D02*
X829000D01*
X1457500Y1023500D02*
Y1096500D01*
X1370500D02*
X1457500D01*
X1370500Y1023500D02*
Y1096500D01*
Y1023500D02*
X1457500D01*
X1494254Y923501D02*
Y1025501D01*
X1426254D02*
X1494254D01*
X1426254Y923501D02*
Y1025501D01*
Y923501D02*
X1494254D01*
X1370500Y864052D02*
Y928552D01*
Y864052D02*
X1425000D01*
Y928552D01*
X1370500D02*
X1425000D01*
X741750Y1103500D02*
Y1176500D01*
Y1103500D02*
X828750D01*
Y1176500D01*
X741750D02*
X828750D01*
X774250Y1271448D02*
X828750D01*
X774250D02*
Y1335948D01*
X828750D01*
Y1271448D02*
Y1335948D01*
X704996Y1276499D02*
X772996D01*
Y1174499D02*
Y1276499D01*
X704996Y1174499D02*
X772996D01*
X704996D02*
Y1276499D01*
X1457250Y1270750D02*
Y1343750D01*
X1370250D02*
X1457250D01*
X1370250Y1270750D02*
Y1343750D01*
Y1270750D02*
X1457250D01*
X1494004Y1170751D02*
Y1272751D01*
X1426004D02*
X1494004D01*
X1426004Y1170751D02*
Y1272751D01*
Y1170751D02*
X1494004D01*
X1370250Y1111302D02*
Y1175802D01*
Y1111302D02*
X1424750D01*
Y1175802D01*
X1370250D02*
X1424750D01*
X905200Y1307350D02*
Y1440350D01*
X1015200D01*
Y1307350D02*
Y1440350D01*
X905200Y1307350D02*
X1015200D01*
X1184200D02*
X1294200D01*
Y1440350D01*
X1184200D02*
X1294200D01*
X1184200Y1307350D02*
Y1440350D01*
X1175600Y1408900D02*
Y1438800D01*
X1120800D02*
X1175600D01*
X1120800Y1408900D02*
Y1438800D01*
Y1408900D02*
X1175600D01*
X1246350Y1085750D02*
X1296650D01*
Y1198250D01*
X1246350D02*
X1296650D01*
X1246350Y1085750D02*
Y1198250D01*
M02*
