G04*
G04 #@! TF.GenerationSoftware,Altium Limited,Altium Designer,25.4.2 (15)*
G04*
G04 Layer_Color=32896*
%FSLAX44Y44*%
%MOMM*%
G71*
G04*
G04 #@! TF.SameCoordinates,CE8B7503-BC5D-454C-BBEA-07EE3AA0370F*
G04*
G04*
G04 #@! TF.FilePolarity,Positive*
G04*
G01*
G75*
%ADD10C,0.2500*%
%ADD11C,0.2000*%
%ADD17C,0.2540*%
G36*
X1333591Y1397183D02*
X1299382D01*
Y1447907D01*
X897128D01*
Y1446728D01*
X895948D01*
Y1397183D01*
X861739D01*
Y1480937D01*
X862918D01*
Y1482117D01*
X1333591D01*
Y1397183D01*
D02*
G37*
G36*
X834607Y1379489D02*
X839326D01*
Y1378309D01*
X842865D01*
Y1377130D01*
X845224D01*
Y1375950D01*
X847583D01*
Y1374770D01*
X849943D01*
Y1373591D01*
X851122D01*
Y1372411D01*
X852302D01*
Y1371232D01*
X854661D01*
Y1370052D01*
X855841D01*
Y1368872D01*
X857020D01*
Y1367693D01*
X858200D01*
Y1366513D01*
X859380D01*
Y1364154D01*
X860559D01*
Y1362974D01*
X861739D01*
Y1361794D01*
X860559D01*
Y1360615D01*
X859380D01*
Y1359435D01*
X858200D01*
Y1358256D01*
X857020D01*
Y1357076D01*
X855841D01*
Y1355896D01*
X854661D01*
Y1354717D01*
X853482D01*
Y1353537D01*
X852302D01*
Y1352357D01*
X851122D01*
Y1351178D01*
X849943D01*
Y1349998D01*
X848763D01*
Y1348819D01*
X847583D01*
Y1347639D01*
X846404D01*
Y1346459D01*
X845224D01*
Y1347639D01*
X844044D01*
Y1349998D01*
X842865D01*
Y1351178D01*
X841685D01*
Y1352357D01*
X840506D01*
Y1353537D01*
X839326D01*
Y1354717D01*
X838146D01*
Y1355896D01*
X835787D01*
Y1357076D01*
X833428D01*
Y1358256D01*
X828709D01*
Y1359435D01*
X822811D01*
Y1358256D01*
X818093D01*
Y1357076D01*
X815733D01*
Y1355896D01*
X813374D01*
Y1354717D01*
X812195D01*
Y1353537D01*
X811015D01*
Y1352357D01*
X809835D01*
Y1351178D01*
X808656D01*
Y1349998D01*
X807476D01*
Y1348819D01*
X806296D01*
Y1346459D01*
X805117D01*
Y1342920D01*
X803937D01*
Y1331124D01*
X805117D01*
Y1326406D01*
X806296D01*
Y1324046D01*
X807476D01*
Y1321687D01*
X808656D01*
Y1320507D01*
X809835D01*
Y1319328D01*
X811015D01*
Y1318148D01*
X812195D01*
Y1316969D01*
X813374D01*
Y1315789D01*
X814554D01*
Y1314609D01*
X816913D01*
Y1313430D01*
X820452D01*
Y1312250D01*
X831068D01*
Y1313430D01*
X834607D01*
Y1314609D01*
X836967D01*
Y1315789D01*
X838146D01*
Y1316969D01*
X839326D01*
Y1318148D01*
X840506D01*
Y1319328D01*
X841685D01*
Y1320507D01*
X842865D01*
Y1321687D01*
X844044D01*
Y1324046D01*
X845224D01*
Y1326406D01*
X846404D01*
Y1325226D01*
X847583D01*
Y1324046D01*
X848763D01*
Y1322867D01*
X849943D01*
Y1321687D01*
X851122D01*
Y1320507D01*
X852302D01*
Y1319328D01*
X853482D01*
Y1318148D01*
X854661D01*
Y1316969D01*
X855841D01*
Y1315789D01*
X857020D01*
Y1314609D01*
X858200D01*
Y1313430D01*
X859380D01*
Y1312250D01*
X860559D01*
Y1311070D01*
X861739D01*
Y1308711D01*
X860559D01*
Y1307531D01*
X859380D01*
Y1306352D01*
X858200D01*
Y1303993D01*
X857020D01*
Y1302813D01*
X855841D01*
Y1301633D01*
X854661D01*
Y1300454D01*
X853482D01*
Y1299274D01*
X851122D01*
Y1298094D01*
X849943D01*
Y1296915D01*
X848763D01*
Y1295735D01*
X846404D01*
Y1294556D01*
X844044D01*
Y1293376D01*
X841685D01*
Y1292196D01*
X838146D01*
Y1291017D01*
X832248D01*
Y1289837D01*
X818093D01*
Y1291017D01*
X813374D01*
Y1292196D01*
X809835D01*
Y1293376D01*
X807476D01*
Y1294556D01*
X805117D01*
Y1295735D01*
X803937D01*
Y1296915D01*
X801578D01*
Y1298094D01*
X800398D01*
Y1299274D01*
X798039D01*
Y1300454D01*
X796859D01*
Y1301633D01*
X795680D01*
Y1302813D01*
X794500D01*
Y1303993D01*
X793320D01*
Y1305172D01*
X792141D01*
Y1307531D01*
X790961D01*
Y1308711D01*
X789781D01*
Y1311070D01*
X788602D01*
Y1312250D01*
X787422D01*
Y1314609D01*
X786243D01*
Y1316969D01*
X785063D01*
Y1320507D01*
X783883D01*
Y1324046D01*
X782704D01*
Y1329944D01*
X781524D01*
Y1344100D01*
X782704D01*
Y1348819D01*
X783883D01*
Y1352357D01*
X785063D01*
Y1355896D01*
X786243D01*
Y1358256D01*
X787422D01*
Y1359435D01*
X788602D01*
Y1361794D01*
X789781D01*
Y1362974D01*
X790961D01*
Y1365333D01*
X792141D01*
Y1366513D01*
X793320D01*
Y1367693D01*
X794500D01*
Y1368872D01*
X795680D01*
Y1370052D01*
X796859D01*
Y1371232D01*
X799219D01*
Y1372411D01*
X800398D01*
Y1373591D01*
X801578D01*
Y1374770D01*
X803937D01*
Y1375950D01*
X806296D01*
Y1377130D01*
X808656D01*
Y1378309D01*
X812195D01*
Y1379489D01*
X815733D01*
Y1380668D01*
X834607D01*
Y1379489D01*
D02*
G37*
G36*
X950211Y1326406D02*
X949032D01*
Y1320507D01*
X947852D01*
Y1316969D01*
X946672D01*
Y1313430D01*
X945493D01*
Y1311070D01*
X944313D01*
Y1309891D01*
X943133D01*
Y1307531D01*
X941954D01*
Y1306352D01*
X940774D01*
Y1303993D01*
X939594D01*
Y1302813D01*
X938415D01*
Y1301633D01*
X937235D01*
Y1300454D01*
X934876D01*
Y1299274D01*
X933696D01*
Y1298094D01*
X932517D01*
Y1296915D01*
X930157D01*
Y1295735D01*
X927798D01*
Y1294556D01*
X925439D01*
Y1293376D01*
X921900D01*
Y1292196D01*
X914822D01*
Y1291017D01*
X908924D01*
Y1292196D01*
X903026D01*
Y1293376D01*
X899487D01*
Y1294556D01*
X897128D01*
Y1295735D01*
X895948D01*
Y1296915D01*
X894769D01*
Y1294556D01*
Y1293376D01*
Y1259167D01*
X872356D01*
Y1379489D01*
X894769D01*
Y1325226D01*
X895948D01*
Y1322867D01*
X897128D01*
Y1320507D01*
X898307D01*
Y1319328D01*
X899487D01*
Y1318148D01*
X900667D01*
Y1316969D01*
X901846D01*
Y1315789D01*
X904206D01*
Y1314609D01*
X907745D01*
Y1313430D01*
X914822D01*
Y1314609D01*
X918361D01*
Y1315789D01*
X920720D01*
Y1316969D01*
X921900D01*
Y1318148D01*
X923080D01*
Y1319328D01*
X924259D01*
Y1320507D01*
X925439D01*
Y1322867D01*
X926618D01*
Y1325226D01*
X927798D01*
Y1379489D01*
X950211D01*
Y1326406D01*
D02*
G37*
G36*
X1396111Y1378309D02*
X1400830D01*
Y1377130D01*
X1403189D01*
Y1375950D01*
X1405548D01*
Y1374770D01*
X1406728D01*
Y1373591D01*
X1407907D01*
Y1372411D01*
X1410267D01*
Y1371232D01*
X1411446D01*
Y1368872D01*
X1412626D01*
Y1367693D01*
X1413806D01*
Y1366513D01*
X1414985D01*
Y1364154D01*
X1416165D01*
Y1360615D01*
X1417345D01*
Y1355896D01*
X1418524D01*
Y1347639D01*
X1417345D01*
Y1342920D01*
X1416165D01*
Y1340561D01*
X1414985D01*
Y1338202D01*
X1413806D01*
Y1337022D01*
X1412626D01*
Y1335843D01*
X1411446D01*
Y1333483D01*
X1409087D01*
Y1332304D01*
X1407907D01*
Y1331124D01*
X1406728D01*
Y1329944D01*
X1404368D01*
Y1328765D01*
X1400830D01*
Y1327585D01*
X1397291D01*
Y1326406D01*
X1365441D01*
Y1325226D01*
X1364261D01*
Y1324046D01*
X1363082D01*
Y1321687D01*
X1361902D01*
Y1319328D01*
X1363082D01*
Y1316969D01*
X1364261D01*
Y1315789D01*
X1367800D01*
Y1314609D01*
X1412626D01*
Y1293376D01*
X1361902D01*
Y1294556D01*
X1358363D01*
Y1295735D01*
X1354824D01*
Y1296915D01*
X1353645D01*
Y1298094D01*
X1351285D01*
Y1299274D01*
X1350106D01*
Y1300454D01*
X1348926D01*
Y1301633D01*
X1347746D01*
Y1302813D01*
X1346567D01*
Y1303993D01*
X1345387D01*
Y1306352D01*
X1344207D01*
Y1307531D01*
X1343028D01*
Y1309891D01*
X1341848D01*
Y1314609D01*
X1340668D01*
Y1327585D01*
X1341848D01*
Y1331124D01*
X1343028D01*
Y1333483D01*
X1344207D01*
Y1335843D01*
X1345387D01*
Y1337022D01*
X1346567D01*
Y1338202D01*
X1347746D01*
Y1339382D01*
X1348926D01*
Y1340561D01*
X1350106D01*
Y1341741D01*
X1351285D01*
Y1342920D01*
X1352465D01*
Y1344100D01*
X1354824D01*
Y1345280D01*
X1357183D01*
Y1346459D01*
X1359543D01*
Y1347639D01*
X1391393D01*
Y1348819D01*
X1394931D01*
Y1349998D01*
X1396111D01*
Y1354717D01*
X1394931D01*
Y1355896D01*
X1393752D01*
Y1357076D01*
X1340668D01*
Y1379489D01*
X1396111D01*
Y1378309D01*
D02*
G37*
G36*
X1225065Y1379489D02*
X1228604D01*
Y1378309D01*
X1232143D01*
Y1377130D01*
X1234502D01*
Y1375950D01*
X1236861D01*
Y1374770D01*
X1239220D01*
Y1373591D01*
X1240400D01*
Y1372411D01*
X1242759D01*
Y1371232D01*
X1243939D01*
Y1370052D01*
X1245118D01*
Y1368872D01*
X1246298D01*
Y1367693D01*
X1247478D01*
Y1366513D01*
X1248657D01*
Y1365333D01*
X1249837D01*
Y1362974D01*
X1251017D01*
Y1361794D01*
X1252196D01*
Y1359435D01*
X1253376D01*
Y1358256D01*
X1254556D01*
Y1355896D01*
X1255735D01*
Y1352357D01*
X1256915D01*
Y1348819D01*
X1258094D01*
Y1344100D01*
X1259274D01*
Y1326406D01*
X1258094D01*
Y1321687D01*
X1256915D01*
Y1318148D01*
X1255735D01*
Y1314609D01*
X1254556D01*
Y1312250D01*
X1253376D01*
Y1309891D01*
X1252196D01*
Y1308711D01*
X1251017D01*
Y1306352D01*
X1249837D01*
Y1305172D01*
X1248657D01*
Y1303993D01*
X1247478D01*
Y1302813D01*
X1246298D01*
Y1301633D01*
X1245118D01*
Y1300454D01*
X1243939D01*
Y1299274D01*
X1242759D01*
Y1298094D01*
X1240400D01*
Y1296915D01*
X1239220D01*
Y1295735D01*
X1236861D01*
Y1294556D01*
X1234502D01*
Y1293376D01*
X1232143D01*
Y1292196D01*
X1228604D01*
Y1291017D01*
X1222706D01*
Y1289837D01*
X1208550D01*
Y1291017D01*
X1202652D01*
Y1292196D01*
X1199113D01*
Y1293376D01*
X1196754D01*
Y1294556D01*
X1194395D01*
Y1295735D01*
X1192035D01*
Y1296915D01*
X1190856D01*
Y1298094D01*
X1188496D01*
Y1299274D01*
X1187317D01*
Y1300454D01*
X1186137D01*
Y1301633D01*
X1184957D01*
Y1302813D01*
X1183778D01*
Y1303993D01*
X1182598D01*
Y1305172D01*
X1181419D01*
Y1306352D01*
X1180239D01*
Y1308711D01*
X1179059D01*
Y1309891D01*
X1177880D01*
Y1312250D01*
X1176700D01*
Y1314609D01*
X1175520D01*
Y1316969D01*
X1174341D01*
Y1319328D01*
X1173161D01*
Y1324046D01*
X1171982D01*
Y1332304D01*
X1170802D01*
Y1338202D01*
X1171982D01*
Y1346459D01*
X1173161D01*
Y1351178D01*
X1174341D01*
Y1353537D01*
X1175520D01*
Y1355896D01*
X1176700D01*
Y1358256D01*
X1177880D01*
Y1360615D01*
X1179059D01*
Y1362974D01*
X1180239D01*
Y1364154D01*
X1181419D01*
Y1365333D01*
X1182598D01*
Y1366513D01*
X1183778D01*
Y1367693D01*
X1184957D01*
Y1368872D01*
X1186137D01*
Y1370052D01*
X1187317D01*
Y1371232D01*
X1188496D01*
Y1372411D01*
X1189676D01*
Y1373591D01*
X1192035D01*
Y1374770D01*
X1194395D01*
Y1375950D01*
X1195574D01*
Y1377130D01*
X1197933D01*
Y1378309D01*
X1201472D01*
Y1379489D01*
X1206191D01*
Y1380668D01*
X1225065D01*
Y1379489D01*
D02*
G37*
G36*
X1012731D02*
X1017450D01*
Y1378309D01*
X1019809D01*
Y1377130D01*
X1022169D01*
Y1375950D01*
X1024528D01*
Y1374770D01*
X1026887D01*
Y1373591D01*
X1028067D01*
Y1372411D01*
X1030426D01*
Y1371232D01*
X1031606D01*
Y1370052D01*
X1032785D01*
Y1368872D01*
X1033965D01*
Y1367693D01*
X1035145D01*
Y1368872D01*
X1036324D01*
Y1379489D01*
X1057557D01*
Y1351178D01*
Y1349998D01*
Y1289837D01*
X1036324D01*
Y1302813D01*
X1033965D01*
Y1301633D01*
X1032785D01*
Y1300454D01*
X1031606D01*
Y1299274D01*
X1029246D01*
Y1298094D01*
X1028067D01*
Y1296915D01*
X1025707D01*
Y1295735D01*
X1024528D01*
Y1294556D01*
X1022169D01*
Y1293376D01*
X1018630D01*
Y1292196D01*
X1016270D01*
Y1291017D01*
X1011552D01*
Y1289837D01*
X997396D01*
Y1291017D01*
X992678D01*
Y1292196D01*
X989139D01*
Y1293376D01*
X985600D01*
Y1294556D01*
X983241D01*
Y1295735D01*
X982061D01*
Y1296915D01*
X979702D01*
Y1298094D01*
X978522D01*
Y1299274D01*
X976163D01*
Y1300454D01*
X974983D01*
Y1301633D01*
X973804D01*
Y1302813D01*
X972624D01*
Y1303993D01*
X971444D01*
Y1306352D01*
X970265D01*
Y1307531D01*
X969085D01*
Y1308711D01*
X967906D01*
Y1311070D01*
X966726D01*
Y1313430D01*
X965546D01*
Y1315789D01*
X964367D01*
Y1319328D01*
X963187D01*
Y1322867D01*
X962007D01*
Y1328765D01*
X960828D01*
Y1342920D01*
X962007D01*
Y1348819D01*
X963187D01*
Y1353537D01*
X964367D01*
Y1355896D01*
X965546D01*
Y1358256D01*
X966726D01*
Y1360615D01*
X967906D01*
Y1362974D01*
X969085D01*
Y1364154D01*
X970265D01*
Y1365333D01*
X971444D01*
Y1367693D01*
X972624D01*
Y1368872D01*
X973804D01*
Y1370052D01*
X976163D01*
Y1371232D01*
X977343D01*
Y1372411D01*
X978522D01*
Y1373591D01*
X980882D01*
Y1374770D01*
X982061D01*
Y1375950D01*
X984420D01*
Y1377130D01*
X986780D01*
Y1378309D01*
X990319D01*
Y1379489D01*
X995037D01*
Y1380668D01*
X1012731D01*
Y1379489D01*
D02*
G37*
G36*
X1133054Y1378309D02*
X1136593D01*
Y1377130D01*
X1140132D01*
Y1375950D01*
X1142491D01*
Y1374770D01*
X1144850D01*
Y1373591D01*
X1146030D01*
Y1372411D01*
X1147209D01*
Y1371232D01*
X1149568D01*
Y1370052D01*
X1150748D01*
Y1368872D01*
X1151928D01*
Y1367693D01*
X1153107D01*
Y1365333D01*
X1154287D01*
Y1364154D01*
X1155467D01*
Y1361794D01*
X1156646D01*
Y1360615D01*
X1157826D01*
Y1357076D01*
X1159006D01*
Y1353537D01*
X1160185D01*
Y1346459D01*
X1161365D01*
Y1344100D01*
X1160185D01*
Y1337022D01*
X1159006D01*
Y1333483D01*
X1157826D01*
Y1331124D01*
X1156646D01*
Y1328765D01*
X1155467D01*
Y1327585D01*
X1154287D01*
Y1325226D01*
X1153107D01*
Y1324046D01*
X1151928D01*
Y1322867D01*
X1149568D01*
Y1320507D01*
X1150748D01*
Y1319328D01*
X1151928D01*
Y1318148D01*
X1153107D01*
Y1316969D01*
X1154287D01*
Y1315789D01*
X1155467D01*
Y1314609D01*
X1156646D01*
Y1312250D01*
X1157826D01*
Y1309891D01*
X1159006D01*
Y1306352D01*
X1160185D01*
Y1299274D01*
X1161365D01*
Y1296915D01*
X1160185D01*
Y1289837D01*
X1159006D01*
Y1286298D01*
X1157826D01*
Y1283939D01*
X1156646D01*
Y1281580D01*
X1155467D01*
Y1279220D01*
X1154287D01*
Y1278041D01*
X1153107D01*
Y1275682D01*
X1151928D01*
Y1274502D01*
X1150748D01*
Y1273322D01*
X1149568D01*
Y1272143D01*
X1148389D01*
Y1270963D01*
X1146030D01*
Y1269783D01*
X1144850D01*
Y1268604D01*
X1142491D01*
Y1267424D01*
X1140132D01*
Y1266244D01*
X1137772D01*
Y1265065D01*
X1133054D01*
Y1263885D01*
X1068174D01*
Y1379489D01*
X1133054D01*
Y1378309D01*
D02*
G37*
G36*
X1331232Y1358256D02*
X1330052D01*
Y1357076D01*
X1308819D01*
Y1355896D01*
X1306459D01*
Y1354717D01*
X1304100D01*
Y1353537D01*
X1302920D01*
Y1352357D01*
X1301741D01*
Y1351178D01*
X1300561D01*
Y1349998D01*
X1299382D01*
Y1347639D01*
X1298202D01*
Y1341741D01*
X1297022D01*
Y1315789D01*
X1298202D01*
Y1314609D01*
X1331232D01*
Y1293376D01*
X1298202D01*
Y1292196D01*
X1297022D01*
Y1259167D01*
X1275789D01*
Y1293376D01*
X1265172D01*
Y1314609D01*
X1274609D01*
Y1315789D01*
X1275789D01*
Y1348819D01*
X1276969D01*
Y1352357D01*
X1278148D01*
Y1355896D01*
X1279328D01*
Y1358256D01*
X1280507D01*
Y1360615D01*
X1281687D01*
Y1362974D01*
X1282867D01*
Y1364154D01*
X1284046D01*
Y1365333D01*
X1285226D01*
Y1366513D01*
X1286406D01*
Y1367693D01*
X1287585D01*
Y1368872D01*
X1288765D01*
Y1370052D01*
X1289944D01*
Y1371232D01*
X1291124D01*
Y1372411D01*
X1293483D01*
Y1373591D01*
X1294663D01*
Y1374770D01*
X1297022D01*
Y1375950D01*
X1299382D01*
Y1377130D01*
X1302920D01*
Y1378309D01*
X1307639D01*
Y1379489D01*
X1331232D01*
Y1358256D01*
D02*
G37*
G36*
X1333591Y1153000D02*
X1113000D01*
Y1023241D01*
X1082330D01*
Y1109354D01*
X1081150D01*
Y1151820D01*
X1066994D01*
Y1153000D01*
X861739D01*
Y1237933D01*
X897128D01*
Y1196646D01*
X895948D01*
Y1189568D01*
X897128D01*
Y1188389D01*
X1299382D01*
Y1230856D01*
X1300561D01*
Y1237933D01*
X1333591D01*
Y1153000D01*
D02*
G37*
%LPC*%
G36*
X1217987Y1359435D02*
X1212089D01*
Y1358256D01*
X1207370D01*
Y1357076D01*
X1205011D01*
Y1355896D01*
X1203831D01*
Y1354717D01*
X1201472D01*
Y1353537D01*
X1200293D01*
Y1352357D01*
X1199113D01*
Y1349998D01*
X1197933D01*
Y1348819D01*
X1196754D01*
Y1346459D01*
X1195574D01*
Y1344100D01*
X1194395D01*
Y1339382D01*
X1193215D01*
Y1331124D01*
X1194395D01*
Y1326406D01*
X1195574D01*
Y1324046D01*
X1196754D01*
Y1321687D01*
X1197933D01*
Y1320507D01*
X1199113D01*
Y1318148D01*
X1200293D01*
Y1316969D01*
X1202652D01*
Y1315789D01*
X1203831D01*
Y1314609D01*
X1206191D01*
Y1313430D01*
X1209730D01*
Y1312250D01*
X1221526D01*
Y1313430D01*
X1223885D01*
Y1314609D01*
X1226245D01*
Y1315789D01*
X1228604D01*
Y1316969D01*
X1229783D01*
Y1318148D01*
X1230963D01*
Y1319328D01*
X1232143D01*
Y1320507D01*
X1233322D01*
Y1322867D01*
X1234502D01*
Y1325226D01*
X1235682D01*
Y1327585D01*
X1236861D01*
Y1342920D01*
X1235682D01*
Y1346459D01*
X1234502D01*
Y1348819D01*
X1233322D01*
Y1349998D01*
X1232143D01*
Y1351178D01*
X1230963D01*
Y1352357D01*
X1229783D01*
Y1353537D01*
X1228604D01*
Y1354717D01*
X1227424D01*
Y1355896D01*
X1225065D01*
Y1357076D01*
X1222706D01*
Y1358256D01*
X1217987D01*
Y1359435D01*
D02*
G37*
G36*
X1008013D02*
X1002115D01*
Y1358256D01*
X997396D01*
Y1357076D01*
X993857D01*
Y1355896D01*
X992678D01*
Y1354717D01*
X991498D01*
Y1353537D01*
X989139D01*
Y1351178D01*
X987959D01*
Y1349998D01*
X986780D01*
Y1348819D01*
X985600D01*
Y1345280D01*
X984420D01*
Y1341741D01*
X983241D01*
Y1329944D01*
X984420D01*
Y1325226D01*
X985600D01*
Y1322867D01*
X986780D01*
Y1320507D01*
X987959D01*
Y1319328D01*
X989139D01*
Y1318148D01*
X990319D01*
Y1316969D01*
X991498D01*
Y1315789D01*
X992678D01*
Y1314609D01*
X995037D01*
Y1313430D01*
X998576D01*
Y1312250D01*
X1010372D01*
Y1313430D01*
X1013911D01*
Y1314609D01*
X1015091D01*
Y1315789D01*
X1017450D01*
Y1316969D01*
X1018630D01*
Y1318148D01*
X1019809D01*
Y1319328D01*
X1020989D01*
Y1320507D01*
X1022169D01*
Y1321687D01*
X1023348D01*
Y1324046D01*
X1024528D01*
Y1326406D01*
X1025707D01*
Y1329944D01*
X1026887D01*
Y1341741D01*
X1025707D01*
Y1344100D01*
X1024528D01*
Y1346459D01*
X1023348D01*
Y1348819D01*
X1022169D01*
Y1349998D01*
X1020989D01*
Y1352357D01*
X1019809D01*
Y1353537D01*
X1017450D01*
Y1354717D01*
X1016270D01*
Y1355896D01*
X1013911D01*
Y1357076D01*
X1011552D01*
Y1358256D01*
X1008013D01*
Y1359435D01*
D02*
G37*
G36*
X1130695Y1355896D02*
X1091767D01*
Y1333483D01*
X1130695D01*
Y1334663D01*
X1133054D01*
Y1335843D01*
X1134233D01*
Y1337022D01*
X1135413D01*
Y1338202D01*
X1136593D01*
Y1340561D01*
X1137772D01*
Y1348819D01*
X1136593D01*
Y1351178D01*
X1135413D01*
Y1352357D01*
X1134233D01*
Y1353537D01*
X1133054D01*
Y1354717D01*
X1130695D01*
Y1355896D01*
D02*
G37*
G36*
Y1309891D02*
X1091767D01*
Y1287478D01*
X1130695D01*
Y1288657D01*
X1133054D01*
Y1289837D01*
X1134233D01*
Y1291017D01*
X1135413D01*
Y1292196D01*
X1136593D01*
Y1294556D01*
X1137772D01*
Y1301633D01*
X1136593D01*
Y1305172D01*
X1135413D01*
Y1306352D01*
X1134233D01*
Y1307531D01*
X1133054D01*
Y1308711D01*
X1130695D01*
Y1309891D01*
D02*
G37*
%LPD*%
D10*
X901500Y622850D02*
G03*
X901500Y622850I-1250J0D01*
G01*
D11*
X928750Y713000D02*
X931250D01*
X928750Y607000D02*
X931250D01*
D17*
X863460Y640537D02*
Y630540D01*
X858462D01*
X856796Y632206D01*
Y633872D01*
X858462Y635538D01*
X863460D01*
X858462D01*
X856796Y637205D01*
Y638871D01*
X858462Y640537D01*
X863460D01*
X853463D02*
Y633872D01*
X850131Y630540D01*
X846799Y633872D01*
Y640537D01*
X856796Y663871D02*
X858462Y665537D01*
X861794D01*
X863460Y663871D01*
Y657206D01*
X861794Y655540D01*
X858462D01*
X856796Y657206D01*
Y660538D01*
X860128D01*
X863460Y690537D02*
Y680540D01*
X858462D01*
X856796Y682206D01*
Y683872D01*
X858462Y685538D01*
X863460D01*
X858462D01*
X856796Y687205D01*
Y688871D01*
X858462Y690537D01*
X863460D01*
X1002460Y689537D02*
Y679540D01*
X997462D01*
X995796Y681206D01*
Y682872D01*
X997462Y684538D01*
X1002460D01*
X997462D01*
X995796Y686205D01*
Y687871D01*
X997462Y689537D01*
X1002460D01*
Y629540D02*
Y639537D01*
X997462D01*
X995796Y637871D01*
Y634538D01*
X997462Y632872D01*
X1002460D01*
X999128D02*
X995796Y629540D01*
X1002460Y664537D02*
X995796D01*
X999128D01*
Y654540D01*
M02*
