G04*
G04 #@! TF.GenerationSoftware,Altium Limited,Altium Designer,25.4.2 (15)*
G04*
G04 Layer_Color=2752767*
%FSLAX44Y44*%
%MOMM*%
G71*
G04*
G04 #@! TF.SameCoordinates,CE8B7503-BC5D-454C-BBEA-07EE3AA0370F*
G04*
G04*
G04 #@! TF.FilePolarity,Positive*
G04*
G01*
G75*
%ADD12C,0.1270*%
%ADD84C,0.1693*%
D12*
X1486500Y827420D02*
X1481420Y837580D01*
X1491580D01*
X1486500Y827420D01*
Y829452D02*
X1483452Y835548D01*
X1489548D01*
X1486500Y829452D01*
Y762420D02*
X1481420Y772580D01*
X1491580D01*
X1486500Y762420D01*
Y764452D02*
X1483452Y770548D01*
X1489548D01*
X1486500Y764452D01*
X1441500Y827420D02*
X1436420Y837580D01*
X1446580D01*
X1441500Y827420D01*
Y829452D02*
X1438452Y835548D01*
X1444548D01*
X1441500Y829452D01*
Y762420D02*
X1436420Y772580D01*
X1446580D01*
X1441500Y762420D01*
Y764452D02*
X1438452Y770548D01*
X1444548D01*
X1441500Y764452D01*
X1175500Y488120D02*
X1170420Y498280D01*
X1180580D01*
X1175500Y488120D01*
Y513520D02*
X1170420Y523680D01*
X1180580D01*
X1175500Y513520D01*
X1023100Y843720D02*
X1018020Y853880D01*
X1028180D01*
X1023100Y843720D01*
X1175500Y538920D02*
X1170420Y549080D01*
X1180580D01*
X1175500Y538920D01*
Y564320D02*
X1170420Y574480D01*
X1180580D01*
X1175500Y564320D01*
Y589720D02*
X1170420Y599880D01*
X1180580D01*
X1175500Y589720D01*
Y615120D02*
X1170420Y625280D01*
X1180580D01*
X1175500Y615120D01*
Y640520D02*
X1170420Y650680D01*
X1180580D01*
X1175500Y640520D01*
Y665920D02*
X1170420Y676080D01*
X1180580D01*
X1175500Y665920D01*
Y691320D02*
X1170420Y701480D01*
X1180580D01*
X1175500Y691320D01*
Y716720D02*
X1170420Y726880D01*
X1180580D01*
X1175500Y716720D01*
Y742120D02*
X1170420Y752280D01*
X1180580D01*
X1175500Y742120D01*
Y767520D02*
X1170420Y777680D01*
X1180580D01*
X1175500Y767520D01*
Y792920D02*
X1170420Y803080D01*
X1180580D01*
X1175500Y792920D01*
Y818320D02*
X1170420Y828480D01*
X1180580D01*
X1175500Y818320D01*
X1023100D02*
X1018020Y828480D01*
X1028180D01*
X1023100Y818320D01*
Y792920D02*
X1018020Y803080D01*
X1028180D01*
X1023100Y792920D01*
Y767520D02*
X1018020Y777680D01*
X1028180D01*
X1023100Y767520D01*
Y742120D02*
X1018020Y752280D01*
X1028180D01*
X1023100Y742120D01*
Y716720D02*
X1018020Y726880D01*
X1028180D01*
X1023100Y716720D01*
Y691320D02*
X1018020Y701480D01*
X1028180D01*
X1023100Y691320D01*
Y665920D02*
X1018020Y676080D01*
X1028180D01*
X1023100Y665920D01*
Y640520D02*
X1018020Y650680D01*
X1028180D01*
X1023100Y640520D01*
Y615120D02*
X1018020Y625280D01*
X1028180D01*
X1023100Y615120D01*
Y589720D02*
X1018020Y599880D01*
X1028180D01*
X1023100Y589720D01*
Y564320D02*
X1018020Y574480D01*
X1028180D01*
X1023100Y564320D01*
Y538920D02*
X1018020Y549080D01*
X1028180D01*
X1023100Y538920D01*
Y513520D02*
X1018020Y523680D01*
X1028180D01*
X1023100Y513520D01*
Y488120D02*
X1018020Y498280D01*
X1028180D01*
X1023100Y488120D01*
X1175500Y869120D02*
X1170420Y879280D01*
X1180580D01*
X1175500Y869120D01*
Y894520D02*
X1170420Y904680D01*
X1180580D01*
X1175500Y894520D01*
Y919920D02*
X1170420Y930080D01*
X1180580D01*
X1175500Y919920D01*
Y945320D02*
X1170420Y955480D01*
X1180580D01*
X1175500Y945320D01*
Y970720D02*
X1170420Y980880D01*
X1180580D01*
X1175500Y970720D01*
Y996120D02*
X1170420Y1006280D01*
X1180580D01*
X1175500Y996120D01*
Y1021520D02*
X1170420Y1031680D01*
X1180580D01*
X1175500Y1021520D01*
Y1046920D02*
X1170420Y1057080D01*
X1180580D01*
X1175500Y1046920D01*
Y1072320D02*
X1170420Y1082480D01*
X1180580D01*
X1175500Y1072320D01*
X1023100D02*
X1018020Y1082480D01*
X1028180D01*
X1023100Y1072320D01*
Y1046920D02*
X1018020Y1057080D01*
X1028180D01*
X1023100Y1046920D01*
Y1021520D02*
X1018020Y1031680D01*
X1028180D01*
X1023100Y1021520D01*
Y996120D02*
X1018020Y1006280D01*
X1028180D01*
X1023100Y996120D01*
Y970720D02*
X1018020Y980880D01*
X1028180D01*
X1023100Y970720D01*
Y945320D02*
X1018020Y955480D01*
X1028180D01*
X1023100Y945320D01*
Y919920D02*
X1018020Y930080D01*
X1028180D01*
X1023100Y919920D01*
Y894520D02*
X1018020Y904680D01*
X1028180D01*
X1023100Y894520D01*
Y869120D02*
X1018020Y879280D01*
X1028180D01*
X1023100Y869120D01*
X1175500Y843720D02*
X1170420Y853880D01*
X1180580D01*
X1175500Y843720D01*
X937460Y1196590D02*
Y1194050D01*
X942540D01*
Y1196590D01*
X945080D01*
Y1201670D01*
X942540D01*
Y1204210D01*
X937460D01*
Y1201670D01*
X934920D01*
Y1196590D01*
X937460D01*
Y1147460D02*
Y1144920D01*
X942540D01*
Y1147460D01*
X945080D01*
Y1152540D01*
X942540D01*
Y1155080D01*
X937460D01*
Y1152540D01*
X934920D01*
Y1147460D01*
X937460D01*
X645920Y701920D02*
X648460Y707000D01*
X645920Y712080D01*
X651000Y709540D01*
X656080Y712080D01*
X653540Y707000D01*
X656080Y701920D01*
X651000Y704460D01*
X645920Y701920D01*
Y651920D02*
X648460Y657000D01*
X645920Y662080D01*
X651000Y659540D01*
X656080Y662080D01*
X653540Y657000D01*
X656080Y651920D01*
X651000Y654460D01*
X645920Y651920D01*
X645920Y676920D02*
X648460Y682000D01*
X645920Y687080D01*
X651000Y684540D01*
X656080Y687080D01*
X653540Y682000D01*
X656080Y676920D01*
X651000Y679460D01*
X645920Y676920D01*
X696920Y701920D02*
X699460Y707000D01*
X696920Y712080D01*
X702000Y709540D01*
X707080Y712080D01*
X704540Y707000D01*
X707080Y701920D01*
X702000Y704460D01*
X696920Y701920D01*
Y651920D02*
X699460Y657000D01*
X696920Y662080D01*
X702000Y659540D01*
X707080Y662080D01*
X704540Y657000D01*
X707080Y651920D01*
X702000Y654460D01*
X696920Y651920D01*
X696920Y676920D02*
X699460Y682000D01*
X696920Y687080D01*
X702000Y684540D01*
X707080Y687080D01*
X704540Y682000D01*
X707080Y676920D01*
X702000Y679460D01*
X696920Y676920D01*
X747920Y701920D02*
X750460Y707000D01*
X747920Y712080D01*
X753000Y709540D01*
X758080Y712080D01*
X755540Y707000D01*
X758080Y701920D01*
X753000Y704460D01*
X747920Y701920D01*
Y651920D02*
X750460Y657000D01*
X747920Y662080D01*
X753000Y659540D01*
X758080Y662080D01*
X755540Y657000D01*
X758080Y651920D01*
X753000Y654460D01*
X747920Y651920D01*
X747920Y676920D02*
X750460Y682000D01*
X747920Y687080D01*
X753000Y684540D01*
X758080Y687080D01*
X755540Y682000D01*
X758080Y676920D01*
X753000Y679460D01*
X747920Y676920D01*
X1267920Y918320D02*
Y928480D01*
X1278080D01*
Y918320D01*
X1267920D01*
Y842120D02*
Y852280D01*
X1278080D01*
Y842120D01*
X1267920D01*
Y867520D02*
Y877680D01*
X1278080D01*
Y867520D01*
X1267920D01*
Y892920D02*
Y903080D01*
X1278080D01*
Y892920D01*
X1267920D01*
X1466000Y664920D02*
X1468540Y667460D01*
X1471080D01*
X1468540Y670000D01*
X1471080Y672540D01*
X1468540D01*
X1466000Y675080D01*
X1463460Y672540D01*
X1460920D01*
X1463460Y670000D01*
X1460920Y667460D01*
X1463460D01*
X1466000Y664920D01*
X1538000D02*
X1540540Y667460D01*
X1543080D01*
X1540540Y670000D01*
X1543080Y672540D01*
X1540540D01*
X1538000Y675080D01*
X1535460Y672540D01*
X1532920D01*
X1535460Y670000D01*
X1532920Y667460D01*
X1535460D01*
X1538000Y664920D01*
X1312920Y780920D02*
Y791080D01*
X1323080D01*
Y780920D01*
X1312920D01*
X1314952Y782952D02*
Y789048D01*
X1321048D01*
Y782952D01*
X1314952D01*
X837920Y654920D02*
Y665080D01*
X848080D01*
Y654920D01*
X837920D01*
X839952Y656952D02*
Y663048D01*
X846048D01*
Y656952D01*
X839952D01*
X872920Y778920D02*
Y789080D01*
X883080D01*
Y778920D01*
X872920D01*
X874952Y780952D02*
Y787048D01*
X881048D01*
Y780952D01*
X874952D01*
X1284920Y1349920D02*
Y1360080D01*
X1295080D01*
Y1349920D01*
X1284920D01*
X1286952Y1351952D02*
Y1358048D01*
X1293048D01*
Y1351952D01*
X1286952D01*
X1212920Y960920D02*
Y971080D01*
X1223080D01*
Y960920D01*
X1212920D01*
X1214952Y962952D02*
Y969048D01*
X1221048D01*
Y962952D01*
X1214952D01*
X1315920Y1029920D02*
Y1040080D01*
X1326080D01*
Y1029920D01*
X1315920D01*
X1317952Y1031952D02*
Y1038048D01*
X1324048D01*
Y1031952D01*
X1317952D01*
X1205920Y1099920D02*
Y1110080D01*
X1216080D01*
Y1099920D01*
X1205920D01*
X1207952Y1101952D02*
Y1108048D01*
X1214048D01*
Y1101952D01*
X1207952D01*
X959920Y1144920D02*
Y1155080D01*
X970080D01*
Y1144920D01*
X959920D01*
X961952Y1146952D02*
Y1153048D01*
X968048D01*
Y1146952D01*
X961952D01*
X979920Y1144920D02*
Y1155080D01*
X990080D01*
Y1144920D01*
X979920D01*
X981952Y1146952D02*
Y1153048D01*
X988048D01*
Y1146952D01*
X981952D01*
X957920Y679920D02*
Y690080D01*
X968080D01*
Y679920D01*
X957920D01*
X959952Y681952D02*
Y688048D01*
X966048D01*
Y681952D01*
X959952D01*
X894920Y680920D02*
Y691080D01*
X905080D01*
Y680920D01*
X894920D01*
X896952Y682952D02*
Y689048D01*
X903048D01*
Y682952D01*
X896952D01*
X814170Y900920D02*
Y911080D01*
X824330D01*
Y900920D01*
X814170D01*
X816202Y902952D02*
Y909048D01*
X822298D01*
Y902952D01*
X816202D01*
X814170Y922920D02*
Y933080D01*
X824330D01*
Y922920D01*
X814170D01*
X816202Y924952D02*
Y931048D01*
X822298D01*
Y924952D01*
X816202D01*
X814170Y907920D02*
Y918080D01*
X824330D01*
Y907920D01*
X814170D01*
X816202Y909952D02*
Y916048D01*
X822298D01*
Y909952D01*
X816202D01*
X814170Y915420D02*
Y925580D01*
X824330D01*
Y915420D01*
X814170D01*
X816202Y917452D02*
Y923548D01*
X822298D01*
Y917452D01*
X816202D01*
X806670Y922920D02*
Y933080D01*
X816830D01*
Y922920D01*
X806670D01*
X808702Y924952D02*
Y931048D01*
X814798D01*
Y924952D01*
X808702D01*
X806170Y900920D02*
Y911080D01*
X816330D01*
Y900920D01*
X806170D01*
X808202Y902952D02*
Y909048D01*
X814298D01*
Y902952D01*
X808202D01*
X799170Y900920D02*
Y911080D01*
X809330D01*
Y900920D01*
X799170D01*
X801202Y902952D02*
Y909048D01*
X807298D01*
Y902952D01*
X801202D01*
X799170Y907920D02*
Y918080D01*
X809330D01*
Y907920D01*
X799170D01*
X801202Y909952D02*
Y916048D01*
X807298D01*
Y909952D01*
X801202D01*
X792170Y900920D02*
Y911080D01*
X802330D01*
Y900920D01*
X792170D01*
X794202Y902952D02*
Y909048D01*
X800298D01*
Y902952D01*
X794202D01*
X753420Y882420D02*
Y892580D01*
X763580D01*
Y882420D01*
X753420D01*
X755452Y884452D02*
Y890548D01*
X761548D01*
Y884452D01*
X755452D01*
X761420Y882420D02*
Y892580D01*
X771580D01*
Y882420D01*
X761420D01*
X763452Y884452D02*
Y890548D01*
X769548D01*
Y884452D01*
X763452D01*
X746420Y882420D02*
Y892580D01*
X756580D01*
Y882420D01*
X746420D01*
X748452Y884452D02*
Y890548D01*
X754548D01*
Y884452D01*
X748452D01*
X739170Y882920D02*
Y893080D01*
X749330D01*
Y882920D01*
X739170D01*
X741202Y884952D02*
Y891048D01*
X747298D01*
Y884952D01*
X741202D01*
X746170Y897920D02*
Y908080D01*
X756330D01*
Y897920D01*
X746170D01*
X748202Y899952D02*
Y906048D01*
X754298D01*
Y899952D01*
X748202D01*
X739170Y905420D02*
Y915580D01*
X749330D01*
Y905420D01*
X739170D01*
X741202Y907452D02*
Y913548D01*
X747298D01*
Y907452D01*
X741202D01*
X739170Y890920D02*
Y901080D01*
X749330D01*
Y890920D01*
X739170D01*
X741202Y892952D02*
Y899048D01*
X747298D01*
Y892952D01*
X741202D01*
X739170Y897920D02*
Y908080D01*
X749330D01*
Y897920D01*
X739170D01*
X741202Y899952D02*
Y906048D01*
X747298D01*
Y899952D01*
X741202D01*
X746420Y890420D02*
Y900580D01*
X756580D01*
Y890420D01*
X746420D01*
X748452Y892452D02*
Y898548D01*
X754548D01*
Y892452D01*
X748452D01*
X724170Y897920D02*
Y908080D01*
X734330D01*
Y897920D01*
X724170D01*
X726202Y899952D02*
Y906048D01*
X732298D01*
Y899952D01*
X726202D01*
X724170Y890420D02*
Y900580D01*
X734330D01*
Y890420D01*
X724170D01*
X726202Y892452D02*
Y898548D01*
X732298D01*
Y892452D01*
X726202D01*
X724170Y882920D02*
Y893080D01*
X734330D01*
Y882920D01*
X724170D01*
X726202Y884952D02*
Y891048D01*
X732298D01*
Y884952D01*
X726202D01*
X716670Y897920D02*
Y908080D01*
X726830D01*
Y897920D01*
X716670D01*
X718702Y899952D02*
Y906048D01*
X724798D01*
Y899952D01*
X718702D01*
X716670Y882920D02*
Y893080D01*
X726830D01*
Y882920D01*
X716670D01*
X718702Y884952D02*
Y891048D01*
X724798D01*
Y884952D01*
X718702D01*
X731670Y897920D02*
Y908080D01*
X741830D01*
Y897920D01*
X731670D01*
X733702Y899952D02*
Y906048D01*
X739798D01*
Y899952D01*
X733702D01*
X731670Y882920D02*
Y893080D01*
X741830D01*
Y882920D01*
X731670D01*
X733702Y884952D02*
Y891048D01*
X739798D01*
Y884952D01*
X733702D01*
X716670Y890420D02*
Y900580D01*
X726830D01*
Y890420D01*
X716670D01*
X718702Y892452D02*
Y898548D01*
X724798D01*
Y892452D01*
X718702D01*
X731670Y890420D02*
Y900580D01*
X741830D01*
Y890420D01*
X731670D01*
X733702Y892452D02*
Y898548D01*
X739798D01*
Y892452D01*
X733702D01*
X746670Y912920D02*
Y923080D01*
X756830D01*
Y912920D01*
X746670D01*
X748702Y914952D02*
Y921048D01*
X754798D01*
Y914952D01*
X748702D01*
X761670Y920420D02*
Y930580D01*
X771830D01*
Y920420D01*
X761670D01*
X763702Y922452D02*
Y928548D01*
X769798D01*
Y922452D01*
X763702D01*
X753420Y890420D02*
Y900580D01*
X763580D01*
Y890420D01*
X753420D01*
X755452Y892452D02*
Y898548D01*
X761548D01*
Y892452D01*
X755452D01*
X753170Y897920D02*
Y908080D01*
X763330D01*
Y897920D01*
X753170D01*
X755202Y899952D02*
Y906048D01*
X761298D01*
Y899952D01*
X755202D01*
X746670Y905420D02*
Y915580D01*
X756830D01*
Y905420D01*
X746670D01*
X748702Y907452D02*
Y913548D01*
X754798D01*
Y907452D01*
X748702D01*
X746670Y920420D02*
Y930580D01*
X756830D01*
Y920420D01*
X746670D01*
X748702Y922452D02*
Y928548D01*
X754798D01*
Y922452D01*
X748702D01*
X760920Y897920D02*
Y908080D01*
X771080D01*
Y897920D01*
X760920D01*
X762952Y899952D02*
Y906048D01*
X769048D01*
Y899952D01*
X762952D01*
X754170Y912920D02*
Y923080D01*
X764330D01*
Y912920D01*
X754170D01*
X756202Y914952D02*
Y921048D01*
X762298D01*
Y914952D01*
X756202D01*
X761420Y890420D02*
Y900580D01*
X771580D01*
Y890420D01*
X761420D01*
X763452Y892452D02*
Y898548D01*
X769548D01*
Y892452D01*
X763452D01*
X754170Y920420D02*
Y930580D01*
X764330D01*
Y920420D01*
X754170D01*
X756202Y922452D02*
Y928548D01*
X762298D01*
Y922452D01*
X756202D01*
X761670Y905420D02*
Y915580D01*
X771830D01*
Y905420D01*
X761670D01*
X763702Y907452D02*
Y913548D01*
X769798D01*
Y907452D01*
X763702D01*
X761670Y912920D02*
Y923080D01*
X771830D01*
Y912920D01*
X761670D01*
X763702Y914952D02*
Y921048D01*
X769798D01*
Y914952D01*
X763702D01*
X754170Y905420D02*
Y915580D01*
X764330D01*
Y905420D01*
X754170D01*
X756202Y907452D02*
Y913548D01*
X762298D01*
Y907452D01*
X756202D01*
X709170Y897920D02*
Y908080D01*
X719330D01*
Y897920D01*
X709170D01*
X711202Y899952D02*
Y906048D01*
X717298D01*
Y899952D01*
X711202D01*
X701670Y897920D02*
Y908080D01*
X711830D01*
Y897920D01*
X701670D01*
X703702Y899952D02*
Y906048D01*
X709798D01*
Y899952D01*
X703702D01*
X701670Y890420D02*
Y900580D01*
X711830D01*
Y890420D01*
X701670D01*
X703702Y892452D02*
Y898548D01*
X709798D01*
Y892452D01*
X703702D01*
X709170Y890420D02*
Y900580D01*
X719330D01*
Y890420D01*
X709170D01*
X711202Y892452D02*
Y898548D01*
X717298D01*
Y892452D01*
X711202D01*
X701670Y882920D02*
Y893080D01*
X711830D01*
Y882920D01*
X701670D01*
X703702Y884952D02*
Y891048D01*
X709798D01*
Y884952D01*
X703702D01*
X709170Y920420D02*
Y930580D01*
X719330D01*
Y920420D01*
X709170D01*
X711202Y922452D02*
Y928548D01*
X717298D01*
Y922452D01*
X711202D01*
X709170Y927920D02*
Y938080D01*
X719330D01*
Y927920D01*
X709170D01*
X711202Y929952D02*
Y936048D01*
X717298D01*
Y929952D01*
X711202D01*
X701670Y920420D02*
Y930580D01*
X711830D01*
Y920420D01*
X701670D01*
X703702Y922452D02*
Y928548D01*
X709798D01*
Y922452D01*
X703702D01*
X701670Y912920D02*
Y923080D01*
X711830D01*
Y912920D01*
X701670D01*
X703702Y914952D02*
Y921048D01*
X709798D01*
Y914952D01*
X703702D01*
X709170Y912920D02*
Y923080D01*
X719330D01*
Y912920D01*
X709170D01*
X711202Y914952D02*
Y921048D01*
X717298D01*
Y914952D01*
X711202D01*
X701670Y905420D02*
Y915580D01*
X711830D01*
Y905420D01*
X701670D01*
X703702Y907452D02*
Y913548D01*
X709798D01*
Y907452D01*
X703702D01*
X709170Y882920D02*
Y893080D01*
X719330D01*
Y882920D01*
X709170D01*
X711202Y884952D02*
Y891048D01*
X717298D01*
Y884952D01*
X711202D01*
X709170Y905420D02*
Y915580D01*
X719330D01*
Y905420D01*
X709170D01*
X711202Y907452D02*
Y913548D01*
X717298D01*
Y907452D01*
X711202D01*
X701670Y927920D02*
Y938080D01*
X711830D01*
Y927920D01*
X701670D01*
X703702Y929952D02*
Y936048D01*
X709798D01*
Y929952D01*
X703702D01*
X814420Y886420D02*
Y896580D01*
X824580D01*
Y886420D01*
X814420D01*
X816452Y888452D02*
Y894548D01*
X822548D01*
Y888452D01*
X816452D01*
X806420Y893420D02*
Y903580D01*
X816580D01*
Y893420D01*
X806420D01*
X808452Y895452D02*
Y901548D01*
X814548D01*
Y895452D01*
X808452D01*
X792420Y893420D02*
Y903580D01*
X802580D01*
Y893420D01*
X792420D01*
X794452Y895452D02*
Y901548D01*
X800548D01*
Y895452D01*
X794452D01*
X792420Y886420D02*
Y896580D01*
X802580D01*
Y886420D01*
X792420D01*
X794452Y888452D02*
Y894548D01*
X800548D01*
Y888452D01*
X794452D01*
X806420Y886420D02*
Y896580D01*
X816580D01*
Y886420D01*
X806420D01*
X808452Y888452D02*
Y894548D01*
X814548D01*
Y888452D01*
X808452D01*
X799420Y886420D02*
Y896580D01*
X809580D01*
Y886420D01*
X799420D01*
X801452Y888452D02*
Y894548D01*
X807548D01*
Y888452D01*
X801452D01*
X814420Y893420D02*
Y903580D01*
X824580D01*
Y893420D01*
X814420D01*
X816452Y895452D02*
Y901548D01*
X822548D01*
Y895452D01*
X816452D01*
X799420Y893420D02*
Y903580D01*
X809580D01*
Y893420D01*
X799420D01*
X801452Y895452D02*
Y901548D01*
X807548D01*
Y895452D01*
X801452D01*
X694170Y1017920D02*
Y1028080D01*
X704330D01*
Y1017920D01*
X694170D01*
X696202Y1019952D02*
Y1026048D01*
X702298D01*
Y1019952D01*
X696202D01*
X694170Y1025420D02*
Y1035580D01*
X704330D01*
Y1025420D01*
X694170D01*
X696202Y1027452D02*
Y1033548D01*
X702298D01*
Y1027452D01*
X696202D01*
X799170Y915420D02*
Y925580D01*
X809330D01*
Y915420D01*
X799170D01*
X801202Y917452D02*
Y923548D01*
X807298D01*
Y917452D01*
X801202D01*
X786670Y934920D02*
Y945080D01*
X796830D01*
Y934920D01*
X786670D01*
X788702Y936952D02*
Y943048D01*
X794798D01*
Y936952D01*
X788702D01*
X701670Y1040420D02*
Y1050580D01*
X711830D01*
Y1040420D01*
X701670D01*
X703702Y1042452D02*
Y1048548D01*
X709798D01*
Y1042452D01*
X703702D01*
X701670Y1017920D02*
Y1028080D01*
X711830D01*
Y1017920D01*
X701670D01*
X703702Y1019952D02*
Y1026048D01*
X709798D01*
Y1019952D01*
X703702D01*
X701670Y1032920D02*
Y1043080D01*
X711830D01*
Y1032920D01*
X701670D01*
X703702Y1034952D02*
Y1041048D01*
X709798D01*
Y1034952D01*
X703702D01*
X701670Y1055420D02*
Y1065580D01*
X711830D01*
Y1055420D01*
X701670D01*
X703702Y1057452D02*
Y1063548D01*
X709798D01*
Y1057452D01*
X703702D01*
X701670Y1062920D02*
Y1073080D01*
X711830D01*
Y1062920D01*
X701670D01*
X703702Y1064952D02*
Y1071048D01*
X709798D01*
Y1064952D01*
X703702D01*
X709170Y1055420D02*
Y1065580D01*
X719330D01*
Y1055420D01*
X709170D01*
X711202Y1057452D02*
Y1063548D01*
X717298D01*
Y1057452D01*
X711202D01*
X709170Y1062920D02*
Y1073080D01*
X719330D01*
Y1062920D01*
X709170D01*
X711202Y1064952D02*
Y1071048D01*
X717298D01*
Y1064952D01*
X711202D01*
X709170Y1025420D02*
Y1035580D01*
X719330D01*
Y1025420D01*
X709170D01*
X711202Y1027452D02*
Y1033548D01*
X717298D01*
Y1027452D01*
X711202D01*
X709170Y1017920D02*
Y1028080D01*
X719330D01*
Y1017920D01*
X709170D01*
X711202Y1019952D02*
Y1026048D01*
X717298D01*
Y1019952D01*
X711202D01*
X709170Y1032920D02*
Y1043080D01*
X719330D01*
Y1032920D01*
X709170D01*
X711202Y1034952D02*
Y1041048D01*
X717298D01*
Y1034952D01*
X711202D01*
X709170Y1040420D02*
Y1050580D01*
X719330D01*
Y1040420D01*
X709170D01*
X711202Y1042452D02*
Y1048548D01*
X717298D01*
Y1042452D01*
X711202D01*
X709170Y1047920D02*
Y1058080D01*
X719330D01*
Y1047920D01*
X709170D01*
X711202Y1049952D02*
Y1056048D01*
X717298D01*
Y1049952D01*
X711202D01*
X701670Y1047920D02*
Y1058080D01*
X711830D01*
Y1047920D01*
X701670D01*
X703702Y1049952D02*
Y1056048D01*
X709798D01*
Y1049952D01*
X703702D01*
X701670Y1025420D02*
Y1035580D01*
X711830D01*
Y1025420D01*
X701670D01*
X703702Y1027452D02*
Y1033548D01*
X709798D01*
Y1027452D01*
X703702D01*
X723920Y1062920D02*
Y1073080D01*
X734080D01*
Y1062920D01*
X723920D01*
X725952Y1064952D02*
Y1071048D01*
X732048D01*
Y1064952D01*
X725952D01*
X716670Y1047920D02*
Y1058080D01*
X726830D01*
Y1047920D01*
X716670D01*
X718702Y1049952D02*
Y1056048D01*
X724798D01*
Y1049952D01*
X718702D01*
X716670Y1062920D02*
Y1073080D01*
X726830D01*
Y1062920D01*
X716670D01*
X718702Y1064952D02*
Y1071048D01*
X724798D01*
Y1064952D01*
X718702D01*
X716670Y1032920D02*
Y1043080D01*
X726830D01*
Y1032920D01*
X716670D01*
X718702Y1034952D02*
Y1041048D01*
X724798D01*
Y1034952D01*
X718702D01*
X716670Y1055420D02*
Y1065580D01*
X726830D01*
Y1055420D01*
X716670D01*
X718702Y1057452D02*
Y1063548D01*
X724798D01*
Y1057452D01*
X718702D01*
X716670Y1040420D02*
Y1050580D01*
X726830D01*
Y1040420D01*
X716670D01*
X718702Y1042452D02*
Y1048548D01*
X724798D01*
Y1042452D01*
X718702D01*
X714170Y970420D02*
Y980580D01*
X724330D01*
Y970420D01*
X714170D01*
X716202Y972452D02*
Y978548D01*
X722298D01*
Y972452D01*
X716202D01*
X706670Y970420D02*
Y980580D01*
X716830D01*
Y970420D01*
X706670D01*
X708702Y972452D02*
Y978548D01*
X714798D01*
Y972452D01*
X708702D01*
X714170Y977920D02*
Y988080D01*
X724330D01*
Y977920D01*
X714170D01*
X716202Y979952D02*
Y986048D01*
X722298D01*
Y979952D01*
X716202D01*
X707416Y991969D02*
Y1002129D01*
X717576D01*
Y991969D01*
X707416D01*
X709448Y994001D02*
Y1000097D01*
X715544D01*
Y994001D01*
X709448D01*
X716670Y1025420D02*
Y1035580D01*
X726830D01*
Y1025420D01*
X716670D01*
X718702Y1027452D02*
Y1033548D01*
X724798D01*
Y1027452D01*
X718702D01*
X716670Y1017920D02*
Y1028080D01*
X726830D01*
Y1017920D01*
X716670D01*
X718702Y1019952D02*
Y1026048D01*
X724798D01*
Y1019952D01*
X718702D01*
X706670Y977920D02*
Y988080D01*
X716830D01*
Y977920D01*
X706670D01*
X708702Y979952D02*
Y986048D01*
X714798D01*
Y979952D01*
X708702D01*
X707170Y953920D02*
Y964080D01*
X717330D01*
Y953920D01*
X707170D01*
X709202Y955952D02*
Y962048D01*
X715298D01*
Y955952D01*
X709202D01*
X736670Y977920D02*
Y988080D01*
X746830D01*
Y977920D01*
X736670D01*
X738702Y979952D02*
Y986048D01*
X744798D01*
Y979952D01*
X738702D01*
X721670Y985420D02*
Y995580D01*
X731830D01*
Y985420D01*
X721670D01*
X723702Y987452D02*
Y993548D01*
X729798D01*
Y987452D01*
X723702D01*
X721670Y977920D02*
Y988080D01*
X731830D01*
Y977920D01*
X721670D01*
X723702Y979952D02*
Y986048D01*
X729798D01*
Y979952D01*
X723702D01*
X744170Y977920D02*
Y988080D01*
X754330D01*
Y977920D01*
X744170D01*
X746202Y979952D02*
Y986048D01*
X752298D01*
Y979952D01*
X746202D01*
X744170Y985420D02*
Y995580D01*
X754330D01*
Y985420D01*
X744170D01*
X746202Y987452D02*
Y993548D01*
X752298D01*
Y987452D01*
X746202D01*
X736670Y985420D02*
Y995580D01*
X746830D01*
Y985420D01*
X736670D01*
X738702Y987452D02*
Y993548D01*
X744798D01*
Y987452D01*
X738702D01*
X729170Y985420D02*
Y995580D01*
X739330D01*
Y985420D01*
X729170D01*
X731202Y987452D02*
Y993548D01*
X737298D01*
Y987452D01*
X731202D01*
X729170Y992920D02*
Y1003080D01*
X739330D01*
Y992920D01*
X729170D01*
X731202Y994952D02*
Y1001048D01*
X737298D01*
Y994952D01*
X731202D01*
X736670Y992920D02*
Y1003080D01*
X746830D01*
Y992920D01*
X736670D01*
X738702Y994952D02*
Y1001048D01*
X744798D01*
Y994952D01*
X738702D01*
X744170Y992920D02*
Y1003080D01*
X754330D01*
Y992920D01*
X744170D01*
X746202Y994952D02*
Y1001048D01*
X752298D01*
Y994952D01*
X746202D01*
X729170Y977920D02*
Y988080D01*
X739330D01*
Y977920D01*
X729170D01*
X731202Y979952D02*
Y986048D01*
X737298D01*
Y979952D01*
X731202D01*
X721670Y970420D02*
Y980580D01*
X731830D01*
Y970420D01*
X721670D01*
X723702Y972452D02*
Y978548D01*
X729798D01*
Y972452D01*
X723702D01*
X729170Y970420D02*
Y980580D01*
X739330D01*
Y970420D01*
X729170D01*
X731202Y972452D02*
Y978548D01*
X737298D01*
Y972452D01*
X731202D01*
X729170Y962920D02*
Y973080D01*
X739330D01*
Y962920D01*
X729170D01*
X731202Y964952D02*
Y971048D01*
X737298D01*
Y964952D01*
X731202D01*
X736670Y962920D02*
Y973080D01*
X746830D01*
Y962920D01*
X736670D01*
X738702Y964952D02*
Y971048D01*
X744798D01*
Y964952D01*
X738702D01*
X744170Y962920D02*
Y973080D01*
X754330D01*
Y962920D01*
X744170D01*
X746202Y964952D02*
Y971048D01*
X752298D01*
Y964952D01*
X746202D01*
X744170Y970420D02*
Y980580D01*
X754330D01*
Y970420D01*
X744170D01*
X746202Y972452D02*
Y978548D01*
X752298D01*
Y972452D01*
X746202D01*
X736670Y970420D02*
Y980580D01*
X746830D01*
Y970420D01*
X736670D01*
X738702Y972452D02*
Y978548D01*
X744798D01*
Y972452D01*
X738702D01*
X731670Y912920D02*
Y923080D01*
X741830D01*
Y912920D01*
X731670D01*
X733702Y914952D02*
Y921048D01*
X739798D01*
Y914952D01*
X733702D01*
X731670Y920420D02*
Y930580D01*
X741830D01*
Y920420D01*
X731670D01*
X733702Y922452D02*
Y928548D01*
X739798D01*
Y922452D01*
X733702D01*
X739170Y920420D02*
Y930580D01*
X749330D01*
Y920420D01*
X739170D01*
X741202Y922452D02*
Y928548D01*
X747298D01*
Y922452D01*
X741202D01*
X724170Y905420D02*
Y915580D01*
X734330D01*
Y905420D01*
X724170D01*
X726202Y907452D02*
Y913548D01*
X732298D01*
Y907452D01*
X726202D01*
X739170Y912920D02*
Y923080D01*
X749330D01*
Y912920D01*
X739170D01*
X741202Y914952D02*
Y921048D01*
X747298D01*
Y914952D01*
X741202D01*
X716670Y927920D02*
Y938080D01*
X726830D01*
Y927920D01*
X716670D01*
X718702Y929952D02*
Y936048D01*
X724798D01*
Y929952D01*
X718702D01*
X716670Y905420D02*
Y915580D01*
X726830D01*
Y905420D01*
X716670D01*
X718702Y907452D02*
Y913548D01*
X724798D01*
Y907452D01*
X718702D01*
X716670Y920420D02*
Y930580D01*
X726830D01*
Y920420D01*
X716670D01*
X718702Y922452D02*
Y928548D01*
X724798D01*
Y922452D01*
X718702D01*
X724170Y912920D02*
Y923080D01*
X734330D01*
Y912920D01*
X724170D01*
X726202Y914952D02*
Y921048D01*
X732298D01*
Y914952D01*
X726202D01*
X731670Y905420D02*
Y915580D01*
X741830D01*
Y905420D01*
X731670D01*
X733702Y907452D02*
Y913548D01*
X739798D01*
Y907452D01*
X733702D01*
X716670Y912920D02*
Y923080D01*
X726830D01*
Y912920D01*
X716670D01*
X718702Y914952D02*
Y921048D01*
X724798D01*
Y914952D01*
X718702D01*
X724170Y920420D02*
Y930580D01*
X734330D01*
Y920420D01*
X724170D01*
X726202Y922452D02*
Y928548D01*
X732298D01*
Y922452D01*
X726202D01*
X791670Y915420D02*
Y925580D01*
X801830D01*
Y915420D01*
X791670D01*
X793702Y917452D02*
Y923548D01*
X799798D01*
Y917452D01*
X793702D01*
X791670Y907920D02*
Y918080D01*
X801830D01*
Y907920D01*
X791670D01*
X793702Y909952D02*
Y916048D01*
X799798D01*
Y909952D01*
X793702D01*
X806670Y907920D02*
Y918080D01*
X816830D01*
Y907920D01*
X806670D01*
X808702Y909952D02*
Y916048D01*
X814798D01*
Y909952D01*
X808702D01*
X806670Y915420D02*
Y925580D01*
X816830D01*
Y915420D01*
X806670D01*
X808702Y917452D02*
Y923548D01*
X814798D01*
Y917452D01*
X808702D01*
X1412670Y896920D02*
Y907080D01*
X1422830D01*
Y896920D01*
X1412670D01*
X1414702Y898952D02*
Y905048D01*
X1420798D01*
Y898952D01*
X1414702D01*
X1412670Y904420D02*
Y914580D01*
X1422830D01*
Y904420D01*
X1412670D01*
X1414702Y906452D02*
Y912548D01*
X1420798D01*
Y906452D01*
X1414702D01*
X1405170Y911920D02*
Y922080D01*
X1415330D01*
Y911920D01*
X1405170D01*
X1407202Y913952D02*
Y920048D01*
X1413298D01*
Y913952D01*
X1407202D01*
X1412670Y911920D02*
Y922080D01*
X1422830D01*
Y911920D01*
X1412670D01*
X1414702Y913952D02*
Y920048D01*
X1420798D01*
Y913952D01*
X1414702D01*
X1397670Y904420D02*
Y914580D01*
X1407830D01*
Y904420D01*
X1397670D01*
X1399702Y906452D02*
Y912548D01*
X1405798D01*
Y906452D01*
X1399702D01*
X1397670Y911920D02*
Y922080D01*
X1407830D01*
Y911920D01*
X1397670D01*
X1399702Y913952D02*
Y920048D01*
X1405798D01*
Y913952D01*
X1399702D01*
X1397670Y896920D02*
Y907080D01*
X1407830D01*
Y896920D01*
X1397670D01*
X1399702Y898952D02*
Y905048D01*
X1405798D01*
Y898952D01*
X1399702D01*
X1397670Y881920D02*
Y892080D01*
X1407830D01*
Y881920D01*
X1397670D01*
X1399702Y883952D02*
Y890048D01*
X1405798D01*
Y883952D01*
X1399702D01*
X1405170Y889420D02*
Y899580D01*
X1415330D01*
Y889420D01*
X1405170D01*
X1407202Y891452D02*
Y897548D01*
X1413298D01*
Y891452D01*
X1407202D01*
X1397670Y889420D02*
Y899580D01*
X1407830D01*
Y889420D01*
X1397670D01*
X1399702Y891452D02*
Y897548D01*
X1405798D01*
Y891452D01*
X1399702D01*
X1412670Y889420D02*
Y899580D01*
X1422830D01*
Y889420D01*
X1412670D01*
X1414702Y891452D02*
Y897548D01*
X1420798D01*
Y891452D01*
X1414702D01*
X1412670Y881920D02*
Y892080D01*
X1422830D01*
Y881920D01*
X1412670D01*
X1414702Y883952D02*
Y890048D01*
X1420798D01*
Y883952D01*
X1414702D01*
X1405170Y881920D02*
Y892080D01*
X1415330D01*
Y881920D01*
X1405170D01*
X1407202Y883952D02*
Y890048D01*
X1413298D01*
Y883952D01*
X1407202D01*
X1382670Y889420D02*
Y899580D01*
X1392830D01*
Y889420D01*
X1382670D01*
X1384702Y891452D02*
Y897548D01*
X1390798D01*
Y891452D01*
X1384702D01*
X1390170Y896920D02*
Y907080D01*
X1400330D01*
Y896920D01*
X1390170D01*
X1392202Y898952D02*
Y905048D01*
X1398298D01*
Y898952D01*
X1392202D01*
X1390170Y889420D02*
Y899580D01*
X1400330D01*
Y889420D01*
X1390170D01*
X1392202Y891452D02*
Y897548D01*
X1398298D01*
Y891452D01*
X1392202D01*
X1390170Y881920D02*
Y892080D01*
X1400330D01*
Y881920D01*
X1390170D01*
X1392202Y883952D02*
Y890048D01*
X1398298D01*
Y883952D01*
X1392202D01*
X1382670Y881920D02*
Y892080D01*
X1392830D01*
Y881920D01*
X1382670D01*
X1384702Y883952D02*
Y890048D01*
X1390798D01*
Y883952D01*
X1384702D01*
X784170Y1052920D02*
Y1063080D01*
X794330D01*
Y1052920D01*
X784170D01*
X786202Y1054952D02*
Y1061048D01*
X792298D01*
Y1054952D01*
X786202D01*
X799170Y1052920D02*
Y1063080D01*
X809330D01*
Y1052920D01*
X799170D01*
X801202Y1054952D02*
Y1061048D01*
X807298D01*
Y1054952D01*
X801202D01*
X799170Y1060420D02*
Y1070580D01*
X809330D01*
Y1060420D01*
X799170D01*
X801202Y1062452D02*
Y1068548D01*
X807298D01*
Y1062452D01*
X801202D01*
X791670Y1060420D02*
Y1070580D01*
X801830D01*
Y1060420D01*
X791670D01*
X793702Y1062452D02*
Y1068548D01*
X799798D01*
Y1062452D01*
X793702D01*
X806670Y1052920D02*
Y1063080D01*
X816830D01*
Y1052920D01*
X806670D01*
X808702Y1054952D02*
Y1061048D01*
X814798D01*
Y1054952D01*
X808702D01*
X806670Y1060420D02*
Y1070580D01*
X816830D01*
Y1060420D01*
X806670D01*
X808702Y1062452D02*
Y1068548D01*
X814798D01*
Y1062452D01*
X808702D01*
X791670Y1052920D02*
Y1063080D01*
X801830D01*
Y1052920D01*
X791670D01*
X793702Y1054952D02*
Y1061048D01*
X799798D01*
Y1054952D01*
X793702D01*
X776670Y1060420D02*
Y1070580D01*
X786830D01*
Y1060420D01*
X776670D01*
X778702Y1062452D02*
Y1068548D01*
X784798D01*
Y1062452D01*
X778702D01*
X784170Y1060420D02*
Y1070580D01*
X794330D01*
Y1060420D01*
X784170D01*
X786202Y1062452D02*
Y1068548D01*
X792298D01*
Y1062452D01*
X786202D01*
X814170Y1060420D02*
Y1070580D01*
X824330D01*
Y1060420D01*
X814170D01*
X816202Y1062452D02*
Y1068548D01*
X822298D01*
Y1062452D01*
X816202D01*
X814170Y1037920D02*
Y1048080D01*
X824330D01*
Y1037920D01*
X814170D01*
X816202Y1039952D02*
Y1046048D01*
X822298D01*
Y1039952D01*
X816202D01*
X806670Y1045420D02*
Y1055580D01*
X816830D01*
Y1045420D01*
X806670D01*
X808702Y1047452D02*
Y1053548D01*
X814798D01*
Y1047452D01*
X808702D01*
X799170Y1037920D02*
Y1048080D01*
X809330D01*
Y1037920D01*
X799170D01*
X801202Y1039952D02*
Y1046048D01*
X807298D01*
Y1039952D01*
X801202D01*
X799170Y1030420D02*
Y1040580D01*
X809330D01*
Y1030420D01*
X799170D01*
X801202Y1032452D02*
Y1038548D01*
X807298D01*
Y1032452D01*
X801202D01*
X806670Y1037920D02*
Y1048080D01*
X816830D01*
Y1037920D01*
X806670D01*
X808702Y1039952D02*
Y1046048D01*
X814798D01*
Y1039952D01*
X808702D01*
X814170Y1045420D02*
Y1055580D01*
X824330D01*
Y1045420D01*
X814170D01*
X816202Y1047452D02*
Y1053548D01*
X822298D01*
Y1047452D01*
X816202D01*
X799170Y1022920D02*
Y1033080D01*
X809330D01*
Y1022920D01*
X799170D01*
X801202Y1024952D02*
Y1031048D01*
X807298D01*
Y1024952D01*
X801202D01*
X814170Y1030420D02*
Y1040580D01*
X824330D01*
Y1030420D01*
X814170D01*
X816202Y1032452D02*
Y1038548D01*
X822298D01*
Y1032452D01*
X816202D01*
X806670Y1030420D02*
Y1040580D01*
X816830D01*
Y1030420D01*
X806670D01*
X808702Y1032452D02*
Y1038548D01*
X814798D01*
Y1032452D01*
X808702D01*
X799170Y1045420D02*
Y1055580D01*
X809330D01*
Y1045420D01*
X799170D01*
X801202Y1047452D02*
Y1053548D01*
X807298D01*
Y1047452D01*
X801202D01*
X736670Y955420D02*
Y965580D01*
X746830D01*
Y955420D01*
X736670D01*
X738702Y957452D02*
Y963548D01*
X744798D01*
Y957452D01*
X738702D01*
X729170Y955420D02*
Y965580D01*
X739330D01*
Y955420D01*
X729170D01*
X731202Y957452D02*
Y963548D01*
X737298D01*
Y957452D01*
X731202D01*
X744170Y955420D02*
Y965580D01*
X754330D01*
Y955420D01*
X744170D01*
X746202Y957452D02*
Y963548D01*
X752298D01*
Y957452D01*
X746202D01*
X721670Y962920D02*
Y973080D01*
X731830D01*
Y962920D01*
X721670D01*
X723702Y964952D02*
Y971048D01*
X729798D01*
Y964952D01*
X723702D01*
X776670Y1045420D02*
Y1055580D01*
X786830D01*
Y1045420D01*
X776670D01*
X778702Y1047452D02*
Y1053548D01*
X784798D01*
Y1047452D01*
X778702D01*
X791670Y1045420D02*
Y1055580D01*
X801830D01*
Y1045420D01*
X791670D01*
X793702Y1047452D02*
Y1053548D01*
X799798D01*
Y1047452D01*
X793702D01*
X776670Y1037920D02*
Y1048080D01*
X786830D01*
Y1037920D01*
X776670D01*
X778702Y1039952D02*
Y1046048D01*
X784798D01*
Y1039952D01*
X778702D01*
X786670Y1010420D02*
Y1020580D01*
X796830D01*
Y1010420D01*
X786670D01*
X788702Y1012452D02*
Y1018548D01*
X794798D01*
Y1012452D01*
X788702D01*
X791670Y1030420D02*
Y1040580D01*
X801830D01*
Y1030420D01*
X791670D01*
X793702Y1032452D02*
Y1038548D01*
X799798D01*
Y1032452D01*
X793702D01*
X791670Y1037920D02*
Y1048080D01*
X801830D01*
Y1037920D01*
X791670D01*
X793702Y1039952D02*
Y1046048D01*
X799798D01*
Y1039952D01*
X793702D01*
X791670Y1022920D02*
Y1033080D01*
X801830D01*
Y1022920D01*
X791670D01*
X793702Y1024952D02*
Y1031048D01*
X799798D01*
Y1024952D01*
X793702D01*
X784170Y1037920D02*
Y1048080D01*
X794330D01*
Y1037920D01*
X784170D01*
X786202Y1039952D02*
Y1046048D01*
X792298D01*
Y1039952D01*
X786202D01*
X784170Y1030420D02*
Y1040580D01*
X794330D01*
Y1030420D01*
X784170D01*
X786202Y1032452D02*
Y1038548D01*
X792298D01*
Y1032452D01*
X786202D01*
X784170Y1022920D02*
Y1033080D01*
X794330D01*
Y1022920D01*
X784170D01*
X786202Y1024952D02*
Y1031048D01*
X792298D01*
Y1024952D01*
X786202D01*
X776670Y1022920D02*
Y1033080D01*
X786830D01*
Y1022920D01*
X776670D01*
X778702Y1024952D02*
Y1031048D01*
X784798D01*
Y1024952D01*
X778702D01*
X776670Y1030420D02*
Y1040580D01*
X786830D01*
Y1030420D01*
X776670D01*
X778702Y1032452D02*
Y1038548D01*
X784798D01*
Y1032452D01*
X778702D01*
X784170Y1045420D02*
Y1055580D01*
X794330D01*
Y1045420D01*
X784170D01*
X786202Y1047452D02*
Y1053548D01*
X792298D01*
Y1047452D01*
X786202D01*
X724170Y1047920D02*
Y1058080D01*
X734330D01*
Y1047920D01*
X724170D01*
X726202Y1049952D02*
Y1056048D01*
X732298D01*
Y1049952D01*
X726202D01*
X724170Y1025420D02*
Y1035580D01*
X734330D01*
Y1025420D01*
X724170D01*
X726202Y1027452D02*
Y1033548D01*
X732298D01*
Y1027452D01*
X726202D01*
X724170Y1032920D02*
Y1043080D01*
X734330D01*
Y1032920D01*
X724170D01*
X726202Y1034952D02*
Y1041048D01*
X732298D01*
Y1034952D01*
X726202D01*
X814170Y1052920D02*
Y1063080D01*
X824330D01*
Y1052920D01*
X814170D01*
X816202Y1054952D02*
Y1061048D01*
X822298D01*
Y1054952D01*
X816202D01*
X776670Y1052920D02*
Y1063080D01*
X786830D01*
Y1052920D01*
X776670D01*
X778702Y1054952D02*
Y1061048D01*
X784798D01*
Y1054952D01*
X778702D01*
X724170Y1055420D02*
Y1065580D01*
X734330D01*
Y1055420D01*
X724170D01*
X726202Y1057452D02*
Y1063548D01*
X732298D01*
Y1057452D01*
X726202D01*
X724170Y1040420D02*
Y1050580D01*
X734330D01*
Y1040420D01*
X724170D01*
X726202Y1042452D02*
Y1048548D01*
X732298D01*
Y1042452D01*
X726202D01*
X799170Y922920D02*
Y933080D01*
X809330D01*
Y922920D01*
X799170D01*
X801202Y924952D02*
Y931048D01*
X807298D01*
Y924952D01*
X801202D01*
X791670Y922920D02*
Y933080D01*
X801830D01*
Y922920D01*
X791670D01*
X793702Y924952D02*
Y931048D01*
X799798D01*
Y924952D01*
X793702D01*
X1375170Y1034420D02*
Y1044580D01*
X1385330D01*
Y1034420D01*
X1375170D01*
X1377202Y1036452D02*
Y1042548D01*
X1383298D01*
Y1036452D01*
X1377202D01*
X1375170Y1026920D02*
Y1037080D01*
X1385330D01*
Y1026920D01*
X1375170D01*
X1377202Y1028952D02*
Y1035048D01*
X1383298D01*
Y1028952D01*
X1377202D01*
X1382670Y1019420D02*
Y1029580D01*
X1392830D01*
Y1019420D01*
X1382670D01*
X1384702Y1021452D02*
Y1027548D01*
X1390798D01*
Y1021452D01*
X1384702D01*
X1382670Y1026920D02*
Y1037080D01*
X1392830D01*
Y1026920D01*
X1382670D01*
X1384702Y1028952D02*
Y1035048D01*
X1390798D01*
Y1028952D01*
X1384702D01*
X1382670Y1034420D02*
Y1044580D01*
X1392830D01*
Y1034420D01*
X1382670D01*
X1384702Y1036452D02*
Y1042548D01*
X1390798D01*
Y1036452D01*
X1384702D01*
X1397670Y1026920D02*
Y1037080D01*
X1407830D01*
Y1026920D01*
X1397670D01*
X1399702Y1028952D02*
Y1035048D01*
X1405798D01*
Y1028952D01*
X1399702D01*
X1397670Y1019420D02*
Y1029580D01*
X1407830D01*
Y1019420D01*
X1397670D01*
X1399702Y1021452D02*
Y1027548D01*
X1405798D01*
Y1021452D01*
X1399702D01*
X1390170Y1019420D02*
Y1029580D01*
X1400330D01*
Y1019420D01*
X1390170D01*
X1392202Y1021452D02*
Y1027548D01*
X1398298D01*
Y1021452D01*
X1392202D01*
X1390170Y1026920D02*
Y1037080D01*
X1400330D01*
Y1026920D01*
X1390170D01*
X1392202Y1028952D02*
Y1035048D01*
X1398298D01*
Y1028952D01*
X1392202D01*
X1390170Y1034420D02*
Y1044580D01*
X1400330D01*
Y1034420D01*
X1390170D01*
X1392202Y1036452D02*
Y1042548D01*
X1398298D01*
Y1036452D01*
X1392202D01*
X1397670Y1034420D02*
Y1044580D01*
X1407830D01*
Y1034420D01*
X1397670D01*
X1399702Y1036452D02*
Y1042548D01*
X1405798D01*
Y1036452D01*
X1399702D01*
X1375170Y1019420D02*
Y1029580D01*
X1385330D01*
Y1019420D01*
X1375170D01*
X1377202Y1021452D02*
Y1027548D01*
X1383298D01*
Y1021452D01*
X1377202D01*
X1445170Y979420D02*
Y989580D01*
X1455330D01*
Y979420D01*
X1445170D01*
X1447202Y981452D02*
Y987548D01*
X1453298D01*
Y981452D01*
X1447202D01*
X1445170Y971920D02*
Y982080D01*
X1455330D01*
Y971920D01*
X1445170D01*
X1447202Y973952D02*
Y980048D01*
X1453298D01*
Y973952D01*
X1447202D01*
X1445170Y964420D02*
Y974580D01*
X1455330D01*
Y964420D01*
X1445170D01*
X1447202Y966452D02*
Y972548D01*
X1453298D01*
Y966452D01*
X1447202D01*
X1445170Y986920D02*
Y997080D01*
X1455330D01*
Y986920D01*
X1445170D01*
X1447202Y988952D02*
Y995048D01*
X1453298D01*
Y988952D01*
X1447202D01*
X1445170Y949420D02*
Y959580D01*
X1455330D01*
Y949420D01*
X1445170D01*
X1447202Y951452D02*
Y957548D01*
X1453298D01*
Y951452D01*
X1447202D01*
X1452670Y964420D02*
Y974580D01*
X1462830D01*
Y964420D01*
X1452670D01*
X1454702Y966452D02*
Y972548D01*
X1460798D01*
Y966452D01*
X1454702D01*
X1452670Y956920D02*
Y967080D01*
X1462830D01*
Y956920D01*
X1452670D01*
X1454702Y958952D02*
Y965048D01*
X1460798D01*
Y958952D01*
X1454702D01*
X1452670Y971920D02*
Y982080D01*
X1462830D01*
Y971920D01*
X1452670D01*
X1454702Y973952D02*
Y980048D01*
X1460798D01*
Y973952D01*
X1454702D01*
X1452670Y986920D02*
Y997080D01*
X1462830D01*
Y986920D01*
X1452670D01*
X1454702Y988952D02*
Y995048D01*
X1460798D01*
Y988952D01*
X1454702D01*
X1452670Y949420D02*
Y959580D01*
X1462830D01*
Y949420D01*
X1452670D01*
X1454702Y951452D02*
Y957548D01*
X1460798D01*
Y951452D01*
X1454702D01*
X1445170Y956920D02*
Y967080D01*
X1455330D01*
Y956920D01*
X1445170D01*
X1447202Y958952D02*
Y965048D01*
X1453298D01*
Y958952D01*
X1447202D01*
X1452670Y979420D02*
Y989580D01*
X1462830D01*
Y979420D01*
X1452670D01*
X1454702Y981452D02*
Y987548D01*
X1460798D01*
Y981452D01*
X1454702D01*
X1467670Y964420D02*
Y974580D01*
X1477830D01*
Y964420D01*
X1467670D01*
X1469702Y966452D02*
Y972548D01*
X1475798D01*
Y966452D01*
X1469702D01*
X1467670Y979420D02*
Y989580D01*
X1477830D01*
Y979420D01*
X1467670D01*
X1469702Y981452D02*
Y987548D01*
X1475798D01*
Y981452D01*
X1469702D01*
X1460170Y964420D02*
Y974580D01*
X1470330D01*
Y964420D01*
X1460170D01*
X1462202Y966452D02*
Y972548D01*
X1468298D01*
Y966452D01*
X1462202D01*
X1482170Y988420D02*
Y998580D01*
X1492330D01*
Y988420D01*
X1482170D01*
X1484202Y990452D02*
Y996548D01*
X1490298D01*
Y990452D01*
X1484202D01*
X1490170Y964420D02*
Y974580D01*
X1500330D01*
Y964420D01*
X1490170D01*
X1492202Y966452D02*
Y972548D01*
X1498298D01*
Y966452D01*
X1492202D01*
X1482670Y964420D02*
Y974580D01*
X1492830D01*
Y964420D01*
X1482670D01*
X1484702Y966452D02*
Y972548D01*
X1490798D01*
Y966452D01*
X1484702D01*
X1475170Y964420D02*
Y974580D01*
X1485330D01*
Y964420D01*
X1475170D01*
X1477202Y966452D02*
Y972548D01*
X1483298D01*
Y966452D01*
X1477202D01*
X1475170Y971920D02*
Y982080D01*
X1485330D01*
Y971920D01*
X1475170D01*
X1477202Y973952D02*
Y980048D01*
X1483298D01*
Y973952D01*
X1477202D01*
X1467670Y971920D02*
Y982080D01*
X1477830D01*
Y971920D01*
X1467670D01*
X1469702Y973952D02*
Y980048D01*
X1475798D01*
Y973952D01*
X1469702D01*
X1482670Y971920D02*
Y982080D01*
X1492830D01*
Y971920D01*
X1482670D01*
X1484702Y973952D02*
Y980048D01*
X1490798D01*
Y973952D01*
X1484702D01*
X1490170Y971920D02*
Y982080D01*
X1500330D01*
Y971920D01*
X1490170D01*
X1492202Y973952D02*
Y980048D01*
X1498298D01*
Y973952D01*
X1492202D01*
X1460170Y971920D02*
Y982080D01*
X1470330D01*
Y971920D01*
X1460170D01*
X1462202Y973952D02*
Y980048D01*
X1468298D01*
Y973952D01*
X1462202D01*
X1465170Y1021920D02*
Y1032080D01*
X1475330D01*
Y1021920D01*
X1465170D01*
X1467202Y1023952D02*
Y1030048D01*
X1473298D01*
Y1023952D01*
X1467202D01*
X1457670Y1029420D02*
Y1039580D01*
X1467830D01*
Y1029420D01*
X1457670D01*
X1459702Y1031452D02*
Y1037548D01*
X1465798D01*
Y1031452D01*
X1459702D01*
X1465170Y1029420D02*
Y1039580D01*
X1475330D01*
Y1029420D01*
X1465170D01*
X1467202Y1031452D02*
Y1037548D01*
X1473298D01*
Y1031452D01*
X1467202D01*
X1457670Y1021920D02*
Y1032080D01*
X1467830D01*
Y1021920D01*
X1457670D01*
X1459702Y1023952D02*
Y1030048D01*
X1465798D01*
Y1023952D01*
X1459702D01*
X1460170Y979420D02*
Y989580D01*
X1470330D01*
Y979420D01*
X1460170D01*
X1462202Y981452D02*
Y987548D01*
X1468298D01*
Y981452D01*
X1462202D01*
X1460170Y986920D02*
Y997080D01*
X1470330D01*
Y986920D01*
X1460170D01*
X1462202Y988952D02*
Y995048D01*
X1468298D01*
Y988952D01*
X1462202D01*
X1396920Y1055920D02*
Y1066080D01*
X1407080D01*
Y1055920D01*
X1396920D01*
X1398952Y1057952D02*
Y1064048D01*
X1405048D01*
Y1057952D01*
X1398952D01*
X1396920Y1048920D02*
Y1059080D01*
X1407080D01*
Y1048920D01*
X1396920D01*
X1398952Y1050952D02*
Y1057048D01*
X1405048D01*
Y1050952D01*
X1398952D01*
X1397170Y1041420D02*
Y1051580D01*
X1407330D01*
Y1041420D01*
X1397170D01*
X1399202Y1043452D02*
Y1049548D01*
X1405298D01*
Y1043452D01*
X1399202D01*
X1389920Y1048920D02*
Y1059080D01*
X1400080D01*
Y1048920D01*
X1389920D01*
X1391952Y1050952D02*
Y1057048D01*
X1398048D01*
Y1050952D01*
X1391952D01*
X1390170Y1041420D02*
Y1051580D01*
X1400330D01*
Y1041420D01*
X1390170D01*
X1392202Y1043452D02*
Y1049548D01*
X1398298D01*
Y1043452D01*
X1392202D01*
X1389920Y1055920D02*
Y1066080D01*
X1400080D01*
Y1055920D01*
X1389920D01*
X1391952Y1057952D02*
Y1064048D01*
X1398048D01*
Y1057952D01*
X1391952D01*
X1383170Y1041420D02*
Y1051580D01*
X1393330D01*
Y1041420D01*
X1383170D01*
X1385202Y1043452D02*
Y1049548D01*
X1391298D01*
Y1043452D01*
X1385202D01*
X1382920Y1055920D02*
Y1066080D01*
X1393080D01*
Y1055920D01*
X1382920D01*
X1384952Y1057952D02*
Y1064048D01*
X1391048D01*
Y1057952D01*
X1384952D01*
X1427920Y1059920D02*
Y1070080D01*
X1438080D01*
Y1059920D01*
X1427920D01*
X1429952Y1061952D02*
Y1068048D01*
X1436048D01*
Y1061952D01*
X1429952D01*
X1428420Y1044420D02*
Y1054580D01*
X1438580D01*
Y1044420D01*
X1428420D01*
X1430452Y1046452D02*
Y1052548D01*
X1436548D01*
Y1046452D01*
X1430452D01*
X1427920Y1051920D02*
Y1062080D01*
X1438080D01*
Y1051920D01*
X1427920D01*
X1429952Y1053952D02*
Y1060048D01*
X1436048D01*
Y1053952D01*
X1429952D01*
X1375170Y1041420D02*
Y1051580D01*
X1385330D01*
Y1041420D01*
X1375170D01*
X1377202Y1043452D02*
Y1049548D01*
X1383298D01*
Y1043452D01*
X1377202D01*
X1374920Y1048920D02*
Y1059080D01*
X1385080D01*
Y1048920D01*
X1374920D01*
X1376952Y1050952D02*
Y1057048D01*
X1383048D01*
Y1050952D01*
X1376952D01*
X1382920Y1048920D02*
Y1059080D01*
X1393080D01*
Y1048920D01*
X1382920D01*
X1384952Y1050952D02*
Y1057048D01*
X1391048D01*
Y1050952D01*
X1384952D01*
X1374920Y1055920D02*
Y1066080D01*
X1385080D01*
Y1055920D01*
X1374920D01*
X1376952Y1057952D02*
Y1064048D01*
X1383048D01*
Y1057952D01*
X1376952D01*
X1390170Y904420D02*
Y914580D01*
X1400330D01*
Y904420D01*
X1390170D01*
X1392202Y906452D02*
Y912548D01*
X1398298D01*
Y906452D01*
X1392202D01*
X1390170Y911920D02*
Y922080D01*
X1400330D01*
Y911920D01*
X1390170D01*
X1392202Y913952D02*
Y920048D01*
X1398298D01*
Y913952D01*
X1392202D01*
X1382670Y896920D02*
Y907080D01*
X1392830D01*
Y896920D01*
X1382670D01*
X1384702Y898952D02*
Y905048D01*
X1390798D01*
Y898952D01*
X1384702D01*
X1382670Y904420D02*
Y914580D01*
X1392830D01*
Y904420D01*
X1382670D01*
X1384702Y906452D02*
Y912548D01*
X1390798D01*
Y906452D01*
X1384702D01*
X1382670Y911920D02*
Y922080D01*
X1392830D01*
Y911920D01*
X1382670D01*
X1384702Y913952D02*
Y920048D01*
X1390798D01*
Y913952D01*
X1384702D01*
X1405170Y896920D02*
Y907080D01*
X1415330D01*
Y896920D01*
X1405170D01*
X1407202Y898952D02*
Y905048D01*
X1413298D01*
Y898952D01*
X1407202D01*
X1405170Y904420D02*
Y914580D01*
X1415330D01*
Y904420D01*
X1405170D01*
X1407202Y906452D02*
Y912548D01*
X1413298D01*
Y906452D01*
X1407202D01*
X1480170Y1044420D02*
Y1054580D01*
X1490330D01*
Y1044420D01*
X1480170D01*
X1482202Y1046452D02*
Y1052548D01*
X1488298D01*
Y1046452D01*
X1482202D01*
X1480170Y1051920D02*
Y1062080D01*
X1490330D01*
Y1051920D01*
X1480170D01*
X1482202Y1053952D02*
Y1060048D01*
X1488298D01*
Y1053952D01*
X1482202D01*
X1480170Y1059420D02*
Y1069580D01*
X1490330D01*
Y1059420D01*
X1480170D01*
X1482202Y1061452D02*
Y1067548D01*
X1488298D01*
Y1061452D01*
X1482202D01*
X1442670Y1029420D02*
Y1039580D01*
X1452830D01*
Y1029420D01*
X1442670D01*
X1444702Y1031452D02*
Y1037548D01*
X1450798D01*
Y1031452D01*
X1444702D01*
X1442670Y1036920D02*
Y1047080D01*
X1452830D01*
Y1036920D01*
X1442670D01*
X1444702Y1038952D02*
Y1045048D01*
X1450798D01*
Y1038952D01*
X1444702D01*
X1442670Y1021920D02*
Y1032080D01*
X1452830D01*
Y1021920D01*
X1442670D01*
X1444702Y1023952D02*
Y1030048D01*
X1450798D01*
Y1023952D01*
X1444702D01*
X1382670Y919420D02*
Y929580D01*
X1392830D01*
Y919420D01*
X1382670D01*
X1384702Y921452D02*
Y927548D01*
X1390798D01*
Y921452D01*
X1384702D01*
X1450170Y1059420D02*
Y1069580D01*
X1460330D01*
Y1059420D01*
X1450170D01*
X1452202Y1061452D02*
Y1067548D01*
X1458298D01*
Y1061452D01*
X1452202D01*
X1435920Y1059920D02*
Y1070080D01*
X1446080D01*
Y1059920D01*
X1435920D01*
X1437952Y1061952D02*
Y1068048D01*
X1444048D01*
Y1061952D01*
X1437952D01*
X1442920Y1051920D02*
Y1062080D01*
X1453080D01*
Y1051920D01*
X1442920D01*
X1444952Y1053952D02*
Y1060048D01*
X1451048D01*
Y1053952D01*
X1444952D01*
X1450170Y1051420D02*
Y1061580D01*
X1460330D01*
Y1051420D01*
X1450170D01*
X1452202Y1053452D02*
Y1059548D01*
X1458298D01*
Y1053452D01*
X1452202D01*
X1443170Y1044420D02*
Y1054580D01*
X1453330D01*
Y1044420D01*
X1443170D01*
X1445202Y1046452D02*
Y1052548D01*
X1451298D01*
Y1046452D01*
X1445202D01*
X1435920Y1051920D02*
Y1062080D01*
X1446080D01*
Y1051920D01*
X1435920D01*
X1437952Y1053952D02*
Y1060048D01*
X1444048D01*
Y1053952D01*
X1437952D01*
X1436170Y1044420D02*
Y1054580D01*
X1446330D01*
Y1044420D01*
X1436170D01*
X1438202Y1046452D02*
Y1052548D01*
X1444298D01*
Y1046452D01*
X1438202D01*
X1442920Y1059920D02*
Y1070080D01*
X1453080D01*
Y1059920D01*
X1442920D01*
X1444952Y1061952D02*
Y1068048D01*
X1451048D01*
Y1061952D01*
X1444952D01*
X1450170Y1044420D02*
Y1054580D01*
X1460330D01*
Y1044420D01*
X1450170D01*
X1452202Y1046452D02*
Y1052548D01*
X1458298D01*
Y1046452D01*
X1452202D01*
X1472670Y1021920D02*
Y1032080D01*
X1482830D01*
Y1021920D01*
X1472670D01*
X1474702Y1023952D02*
Y1030048D01*
X1480798D01*
Y1023952D01*
X1474702D01*
X1487670Y1021920D02*
Y1032080D01*
X1497830D01*
Y1021920D01*
X1487670D01*
X1489702Y1023952D02*
Y1030048D01*
X1495798D01*
Y1023952D01*
X1489702D01*
X1480170Y1014420D02*
Y1024580D01*
X1490330D01*
Y1014420D01*
X1480170D01*
X1482202Y1016452D02*
Y1022548D01*
X1488298D01*
Y1016452D01*
X1482202D01*
X1487670Y1014420D02*
Y1024580D01*
X1497830D01*
Y1014420D01*
X1487670D01*
X1489702Y1016452D02*
Y1022548D01*
X1495798D01*
Y1016452D01*
X1489702D01*
X1480170Y1021920D02*
Y1032080D01*
X1490330D01*
Y1021920D01*
X1480170D01*
X1482202Y1023952D02*
Y1030048D01*
X1488298D01*
Y1023952D01*
X1482202D01*
X1495170Y1021920D02*
Y1032080D01*
X1505330D01*
Y1021920D01*
X1495170D01*
X1497202Y1023952D02*
Y1030048D01*
X1503298D01*
Y1023952D01*
X1497202D01*
X1472670Y1014420D02*
Y1024580D01*
X1482830D01*
Y1014420D01*
X1472670D01*
X1474702Y1016452D02*
Y1022548D01*
X1480798D01*
Y1016452D01*
X1474702D01*
X1495170Y1014420D02*
Y1024580D01*
X1505330D01*
Y1014420D01*
X1495170D01*
X1497202Y1016452D02*
Y1022548D01*
X1503298D01*
Y1016452D01*
X1497202D01*
X1465170Y1044420D02*
Y1054580D01*
X1475330D01*
Y1044420D01*
X1465170D01*
X1467202Y1046452D02*
Y1052548D01*
X1473298D01*
Y1046452D01*
X1467202D01*
X1457670Y1059420D02*
Y1069580D01*
X1467830D01*
Y1059420D01*
X1457670D01*
X1459702Y1061452D02*
Y1067548D01*
X1465798D01*
Y1061452D01*
X1459702D01*
X1465170Y1059420D02*
Y1069580D01*
X1475330D01*
Y1059420D01*
X1465170D01*
X1467202Y1061452D02*
Y1067548D01*
X1473298D01*
Y1061452D01*
X1467202D01*
X1457670Y1044420D02*
Y1054580D01*
X1467830D01*
Y1044420D01*
X1457670D01*
X1459702Y1046452D02*
Y1052548D01*
X1465798D01*
Y1046452D01*
X1459702D01*
X1465170Y1051920D02*
Y1062080D01*
X1475330D01*
Y1051920D01*
X1465170D01*
X1467202Y1053952D02*
Y1060048D01*
X1473298D01*
Y1053952D01*
X1467202D01*
X1457670Y1051920D02*
Y1062080D01*
X1467830D01*
Y1051920D01*
X1457670D01*
X1459702Y1053952D02*
Y1060048D01*
X1465798D01*
Y1053952D01*
X1459702D01*
X1487670Y924420D02*
Y934580D01*
X1497830D01*
Y924420D01*
X1487670D01*
X1489702Y926452D02*
Y932548D01*
X1495798D01*
Y926452D01*
X1489702D01*
X1495170Y924420D02*
Y934580D01*
X1505330D01*
Y924420D01*
X1495170D01*
X1497202Y926452D02*
Y932548D01*
X1503298D01*
Y926452D01*
X1497202D01*
X1472670Y924420D02*
Y934580D01*
X1482830D01*
Y924420D01*
X1472670D01*
X1474702Y926452D02*
Y932548D01*
X1480798D01*
Y926452D01*
X1474702D01*
X1460170Y956920D02*
Y967080D01*
X1470330D01*
Y956920D01*
X1460170D01*
X1462202Y958952D02*
Y965048D01*
X1468298D01*
Y958952D01*
X1462202D01*
X1460170Y949420D02*
Y959580D01*
X1470330D01*
Y949420D01*
X1460170D01*
X1462202Y951452D02*
Y957548D01*
X1468298D01*
Y951452D01*
X1462202D01*
X1480170Y924420D02*
Y934580D01*
X1490330D01*
Y924420D01*
X1480170D01*
X1482202Y926452D02*
Y932548D01*
X1488298D01*
Y926452D01*
X1482202D01*
X1467670Y956920D02*
Y967080D01*
X1477830D01*
Y956920D01*
X1467670D01*
X1469702Y958952D02*
Y965048D01*
X1475798D01*
Y958952D01*
X1469702D01*
X1481924Y950371D02*
Y960531D01*
X1492084D01*
Y950371D01*
X1481924D01*
X1483956Y952403D02*
Y958499D01*
X1490052D01*
Y952403D01*
X1483956D01*
X1487670Y1036920D02*
Y1047080D01*
X1497830D01*
Y1036920D01*
X1487670D01*
X1489702Y1038952D02*
Y1045048D01*
X1495798D01*
Y1038952D01*
X1489702D01*
X1495170Y1059420D02*
Y1069580D01*
X1505330D01*
Y1059420D01*
X1495170D01*
X1497202Y1061452D02*
Y1067548D01*
X1503298D01*
Y1061452D01*
X1497202D01*
X1495170Y1051920D02*
Y1062080D01*
X1505330D01*
Y1051920D01*
X1495170D01*
X1497202Y1053952D02*
Y1060048D01*
X1503298D01*
Y1053952D01*
X1497202D01*
X1487670Y1044420D02*
Y1054580D01*
X1497830D01*
Y1044420D01*
X1487670D01*
X1489702Y1046452D02*
Y1052548D01*
X1495798D01*
Y1046452D01*
X1489702D01*
X1487670Y1059420D02*
Y1069580D01*
X1497830D01*
Y1059420D01*
X1487670D01*
X1489702Y1061452D02*
Y1067548D01*
X1495798D01*
Y1061452D01*
X1489702D01*
X1487670Y1051920D02*
Y1062080D01*
X1497830D01*
Y1051920D01*
X1487670D01*
X1489702Y1053952D02*
Y1060048D01*
X1495798D01*
Y1053952D01*
X1489702D01*
X1495170Y1044420D02*
Y1054580D01*
X1505330D01*
Y1044420D01*
X1495170D01*
X1497202Y1046452D02*
Y1052548D01*
X1503298D01*
Y1046452D01*
X1497202D01*
X1495170Y1036920D02*
Y1047080D01*
X1505330D01*
Y1036920D01*
X1495170D01*
X1497202Y1038952D02*
Y1045048D01*
X1503298D01*
Y1038952D01*
X1497202D01*
X1487670Y1029420D02*
Y1039580D01*
X1497830D01*
Y1029420D01*
X1487670D01*
X1489702Y1031452D02*
Y1037548D01*
X1495798D01*
Y1031452D01*
X1489702D01*
X1495170Y1029420D02*
Y1039580D01*
X1505330D01*
Y1029420D01*
X1495170D01*
X1497202Y1031452D02*
Y1037548D01*
X1503298D01*
Y1031452D01*
X1497202D01*
X1480170Y1029420D02*
Y1039580D01*
X1490330D01*
Y1029420D01*
X1480170D01*
X1482202Y1031452D02*
Y1037548D01*
X1488298D01*
Y1031452D01*
X1482202D01*
X1472670Y1029420D02*
Y1039580D01*
X1482830D01*
Y1029420D01*
X1472670D01*
X1474702Y1031452D02*
Y1037548D01*
X1480798D01*
Y1031452D01*
X1474702D01*
X1435170Y1036920D02*
Y1047080D01*
X1445330D01*
Y1036920D01*
X1435170D01*
X1437202Y1038952D02*
Y1045048D01*
X1443298D01*
Y1038952D01*
X1437202D01*
X1435170Y1029420D02*
Y1039580D01*
X1445330D01*
Y1029420D01*
X1435170D01*
X1437202Y1031452D02*
Y1037548D01*
X1443298D01*
Y1031452D01*
X1437202D01*
X1435170Y1021920D02*
Y1032080D01*
X1445330D01*
Y1021920D01*
X1435170D01*
X1437202Y1023952D02*
Y1030048D01*
X1443298D01*
Y1023952D01*
X1437202D01*
X1427670Y1029420D02*
Y1039580D01*
X1437830D01*
Y1029420D01*
X1427670D01*
X1429702Y1031452D02*
Y1037548D01*
X1435798D01*
Y1031452D01*
X1429702D01*
X1427670Y1021920D02*
Y1032080D01*
X1437830D01*
Y1021920D01*
X1427670D01*
X1429702Y1023952D02*
Y1030048D01*
X1435798D01*
Y1023952D01*
X1429702D01*
X1427670Y1036920D02*
Y1047080D01*
X1437830D01*
Y1036920D01*
X1427670D01*
X1429702Y1038952D02*
Y1045048D01*
X1435798D01*
Y1038952D01*
X1429702D01*
X1457670Y1036920D02*
Y1047080D01*
X1467830D01*
Y1036920D01*
X1457670D01*
X1459702Y1038952D02*
Y1045048D01*
X1465798D01*
Y1038952D01*
X1459702D01*
X1472670Y1036920D02*
Y1047080D01*
X1482830D01*
Y1036920D01*
X1472670D01*
X1474702Y1038952D02*
Y1045048D01*
X1480798D01*
Y1038952D01*
X1474702D01*
X1465170Y1036920D02*
Y1047080D01*
X1475330D01*
Y1036920D01*
X1465170D01*
X1467202Y1038952D02*
Y1045048D01*
X1473298D01*
Y1038952D01*
X1467202D01*
X1480170Y1036920D02*
Y1047080D01*
X1490330D01*
Y1036920D01*
X1480170D01*
X1482202Y1038952D02*
Y1045048D01*
X1488298D01*
Y1038952D01*
X1482202D01*
X1402670Y1007420D02*
Y1017580D01*
X1412830D01*
Y1007420D01*
X1402670D01*
X1404702Y1009452D02*
Y1015548D01*
X1410798D01*
Y1009452D01*
X1404702D01*
X1412420Y1144170D02*
Y1154330D01*
X1422580D01*
Y1144170D01*
X1412420D01*
X1414452Y1146202D02*
Y1152298D01*
X1420548D01*
Y1146202D01*
X1414452D01*
X1404920Y1136670D02*
Y1146830D01*
X1415080D01*
Y1136670D01*
X1404920D01*
X1406952Y1138702D02*
Y1144798D01*
X1413048D01*
Y1138702D01*
X1406952D01*
X1397420Y1166670D02*
Y1176830D01*
X1407580D01*
Y1166670D01*
X1397420D01*
X1399452Y1168702D02*
Y1174798D01*
X1405548D01*
Y1168702D01*
X1399452D01*
X1397420Y1151670D02*
Y1161830D01*
X1407580D01*
Y1151670D01*
X1397420D01*
X1399452Y1153702D02*
Y1159798D01*
X1405548D01*
Y1153702D01*
X1399452D01*
X1397420Y1159170D02*
Y1169330D01*
X1407580D01*
Y1159170D01*
X1397420D01*
X1399452Y1161202D02*
Y1167298D01*
X1405548D01*
Y1161202D01*
X1399452D01*
X1389920Y1166670D02*
Y1176830D01*
X1400080D01*
Y1166670D01*
X1389920D01*
X1391952Y1168702D02*
Y1174798D01*
X1398048D01*
Y1168702D01*
X1391952D01*
X1389920Y1151670D02*
Y1161830D01*
X1400080D01*
Y1151670D01*
X1389920D01*
X1391952Y1153702D02*
Y1159798D01*
X1398048D01*
Y1153702D01*
X1391952D01*
X1389920Y1159170D02*
Y1169330D01*
X1400080D01*
Y1159170D01*
X1389920D01*
X1391952Y1161202D02*
Y1167298D01*
X1398048D01*
Y1161202D01*
X1391952D01*
X1404920Y1144170D02*
Y1154330D01*
X1415080D01*
Y1144170D01*
X1404920D01*
X1406952Y1146202D02*
Y1152298D01*
X1413048D01*
Y1146202D01*
X1406952D01*
X1404920Y1151670D02*
Y1161830D01*
X1415080D01*
Y1151670D01*
X1404920D01*
X1406952Y1153702D02*
Y1159798D01*
X1413048D01*
Y1153702D01*
X1406952D01*
X1397420Y1129170D02*
Y1139330D01*
X1407580D01*
Y1129170D01*
X1397420D01*
X1399452Y1131202D02*
Y1137298D01*
X1405548D01*
Y1131202D01*
X1399452D01*
X1397420Y1144170D02*
Y1154330D01*
X1407580D01*
Y1144170D01*
X1397420D01*
X1399452Y1146202D02*
Y1152298D01*
X1405548D01*
Y1146202D01*
X1399452D01*
X1389920Y1144170D02*
Y1154330D01*
X1400080D01*
Y1144170D01*
X1389920D01*
X1391952Y1146202D02*
Y1152298D01*
X1398048D01*
Y1146202D01*
X1391952D01*
X1397420Y1136670D02*
Y1146830D01*
X1407580D01*
Y1136670D01*
X1397420D01*
X1399452Y1138702D02*
Y1144798D01*
X1405548D01*
Y1138702D01*
X1399452D01*
X1389920Y1136670D02*
Y1146830D01*
X1400080D01*
Y1136670D01*
X1389920D01*
X1391952Y1138702D02*
Y1144798D01*
X1398048D01*
Y1138702D01*
X1391952D01*
X1389920Y1129170D02*
Y1139330D01*
X1400080D01*
Y1129170D01*
X1389920D01*
X1391952Y1131202D02*
Y1137298D01*
X1398048D01*
Y1131202D01*
X1391952D01*
X1382420Y1166670D02*
Y1176830D01*
X1392580D01*
Y1166670D01*
X1382420D01*
X1384452Y1168702D02*
Y1174798D01*
X1390548D01*
Y1168702D01*
X1384452D01*
X1374920Y1159170D02*
Y1169330D01*
X1385080D01*
Y1159170D01*
X1374920D01*
X1376952Y1161202D02*
Y1167298D01*
X1383048D01*
Y1161202D01*
X1376952D01*
X1382420Y1144170D02*
Y1154330D01*
X1392580D01*
Y1144170D01*
X1382420D01*
X1384452Y1146202D02*
Y1152298D01*
X1390548D01*
Y1146202D01*
X1384452D01*
X1382420Y1151670D02*
Y1161830D01*
X1392580D01*
Y1151670D01*
X1382420D01*
X1384452Y1153702D02*
Y1159798D01*
X1390548D01*
Y1153702D01*
X1384452D01*
X1382420Y1136670D02*
Y1146830D01*
X1392580D01*
Y1136670D01*
X1382420D01*
X1384452Y1138702D02*
Y1144798D01*
X1390548D01*
Y1138702D01*
X1384452D01*
X1382420Y1159170D02*
Y1169330D01*
X1392580D01*
Y1159170D01*
X1382420D01*
X1384452Y1161202D02*
Y1167298D01*
X1390548D01*
Y1161202D01*
X1384452D01*
X1374920Y1151670D02*
Y1161830D01*
X1385080D01*
Y1151670D01*
X1374920D01*
X1376952Y1153702D02*
Y1159798D01*
X1383048D01*
Y1153702D01*
X1376952D01*
X1374920Y1144170D02*
Y1154330D01*
X1385080D01*
Y1144170D01*
X1374920D01*
X1376952Y1146202D02*
Y1152298D01*
X1383048D01*
Y1146202D01*
X1376952D01*
X1481674Y1197621D02*
Y1207781D01*
X1491834D01*
Y1197621D01*
X1481674D01*
X1483706Y1199653D02*
Y1205749D01*
X1489802D01*
Y1199653D01*
X1483706D01*
X1402420Y1179170D02*
Y1189330D01*
X1412580D01*
Y1179170D01*
X1402420D01*
X1404452Y1181202D02*
Y1187298D01*
X1410548D01*
Y1181202D01*
X1404452D01*
X1481920Y1235670D02*
Y1245830D01*
X1492080D01*
Y1235670D01*
X1481920D01*
X1483952Y1237702D02*
Y1243798D01*
X1490048D01*
Y1237702D01*
X1483952D01*
X1402420Y1254670D02*
Y1264830D01*
X1412580D01*
Y1254670D01*
X1402420D01*
X1404452Y1256702D02*
Y1262798D01*
X1410548D01*
Y1256702D01*
X1404452D01*
X1482420Y1219170D02*
Y1229330D01*
X1492580D01*
Y1219170D01*
X1482420D01*
X1484452Y1221202D02*
Y1227298D01*
X1490548D01*
Y1221202D01*
X1484452D01*
X1489920Y1211670D02*
Y1221830D01*
X1500080D01*
Y1211670D01*
X1489920D01*
X1491952Y1213702D02*
Y1219798D01*
X1498048D01*
Y1213702D01*
X1491952D01*
X1482420Y1211670D02*
Y1221830D01*
X1492580D01*
Y1211670D01*
X1482420D01*
X1484452Y1213702D02*
Y1219798D01*
X1490548D01*
Y1213702D01*
X1484452D01*
X1474920Y1211670D02*
Y1221830D01*
X1485080D01*
Y1211670D01*
X1474920D01*
X1476952Y1213702D02*
Y1219798D01*
X1483048D01*
Y1213702D01*
X1476952D01*
X1489920Y1219170D02*
Y1229330D01*
X1500080D01*
Y1219170D01*
X1489920D01*
X1491952Y1221202D02*
Y1227298D01*
X1498048D01*
Y1221202D01*
X1491952D01*
X1474920Y1219170D02*
Y1229330D01*
X1485080D01*
Y1219170D01*
X1474920D01*
X1476952Y1221202D02*
Y1227298D01*
X1483048D01*
Y1221202D01*
X1476952D01*
X1427420Y1269170D02*
Y1279330D01*
X1437580D01*
Y1269170D01*
X1427420D01*
X1429452Y1271202D02*
Y1277298D01*
X1435548D01*
Y1271202D01*
X1429452D01*
X1487420Y1261670D02*
Y1271830D01*
X1497580D01*
Y1261670D01*
X1487420D01*
X1489452Y1263702D02*
Y1269798D01*
X1495548D01*
Y1263702D01*
X1489452D01*
X1479920Y1269170D02*
Y1279330D01*
X1490080D01*
Y1269170D01*
X1479920D01*
X1481952Y1271202D02*
Y1277298D01*
X1488048D01*
Y1271202D01*
X1481952D01*
X1479920Y1261670D02*
Y1271830D01*
X1490080D01*
Y1261670D01*
X1479920D01*
X1481952Y1263702D02*
Y1269798D01*
X1488048D01*
Y1263702D01*
X1481952D01*
X1487420Y1171670D02*
Y1181830D01*
X1497580D01*
Y1171670D01*
X1487420D01*
X1489452Y1173702D02*
Y1179798D01*
X1495548D01*
Y1173702D01*
X1489452D01*
X1479920Y1171670D02*
Y1181830D01*
X1490080D01*
Y1171670D01*
X1479920D01*
X1481952Y1173702D02*
Y1179798D01*
X1488048D01*
Y1173702D01*
X1481952D01*
X1479920Y1164170D02*
Y1174330D01*
X1490080D01*
Y1164170D01*
X1479920D01*
X1481952Y1166202D02*
Y1172298D01*
X1488048D01*
Y1166202D01*
X1481952D01*
X1374920Y1281670D02*
Y1291830D01*
X1385080D01*
Y1281670D01*
X1374920D01*
X1376952Y1283702D02*
Y1289798D01*
X1383048D01*
Y1283702D01*
X1376952D01*
X1374920Y1274170D02*
Y1284330D01*
X1385080D01*
Y1274170D01*
X1374920D01*
X1376952Y1276202D02*
Y1282298D01*
X1383048D01*
Y1276202D01*
X1376952D01*
X1442420Y1284170D02*
Y1294330D01*
X1452580D01*
Y1284170D01*
X1442420D01*
X1444452Y1286202D02*
Y1292298D01*
X1450548D01*
Y1286202D01*
X1444452D01*
X1449920Y1284170D02*
Y1294330D01*
X1460080D01*
Y1284170D01*
X1449920D01*
X1451952Y1286202D02*
Y1292298D01*
X1458048D01*
Y1286202D01*
X1451952D01*
X1449920Y1291670D02*
Y1301830D01*
X1460080D01*
Y1291670D01*
X1449920D01*
X1451952Y1293702D02*
Y1299798D01*
X1458048D01*
Y1293702D01*
X1451952D01*
X1434920Y1276670D02*
Y1286830D01*
X1445080D01*
Y1276670D01*
X1434920D01*
X1436952Y1278702D02*
Y1284798D01*
X1443048D01*
Y1278702D01*
X1436952D01*
X1449920Y1269170D02*
Y1279330D01*
X1460080D01*
Y1269170D01*
X1449920D01*
X1451952Y1271202D02*
Y1277298D01*
X1458048D01*
Y1271202D01*
X1451952D01*
X1442420Y1269170D02*
Y1279330D01*
X1452580D01*
Y1269170D01*
X1442420D01*
X1444452Y1271202D02*
Y1277298D01*
X1450548D01*
Y1271202D01*
X1444452D01*
X1449920Y1276670D02*
Y1286830D01*
X1460080D01*
Y1276670D01*
X1449920D01*
X1451952Y1278702D02*
Y1284798D01*
X1458048D01*
Y1278702D01*
X1451952D01*
X1442420Y1276670D02*
Y1286830D01*
X1452580D01*
Y1276670D01*
X1442420D01*
X1444452Y1278702D02*
Y1284798D01*
X1450548D01*
Y1278702D01*
X1444452D01*
X1434920Y1269170D02*
Y1279330D01*
X1445080D01*
Y1269170D01*
X1434920D01*
X1436952Y1271202D02*
Y1277298D01*
X1443048D01*
Y1271202D01*
X1436952D01*
X1427420Y1276670D02*
Y1286830D01*
X1437580D01*
Y1276670D01*
X1427420D01*
X1429452Y1278702D02*
Y1284798D01*
X1435548D01*
Y1278702D01*
X1429452D01*
X1427420Y1284170D02*
Y1294330D01*
X1437580D01*
Y1284170D01*
X1427420D01*
X1429452Y1286202D02*
Y1292298D01*
X1435548D01*
Y1286202D01*
X1429452D01*
X1389920Y1274170D02*
Y1284330D01*
X1400080D01*
Y1274170D01*
X1389920D01*
X1391952Y1276202D02*
Y1282298D01*
X1398048D01*
Y1276202D01*
X1391952D01*
X1382420Y1274170D02*
Y1284330D01*
X1392580D01*
Y1274170D01*
X1382420D01*
X1384452Y1276202D02*
Y1282298D01*
X1390548D01*
Y1276202D01*
X1384452D01*
X1382420Y1281670D02*
Y1291830D01*
X1392580D01*
Y1281670D01*
X1382420D01*
X1384452Y1283702D02*
Y1289798D01*
X1390548D01*
Y1283702D01*
X1384452D01*
X1397420Y1274170D02*
Y1284330D01*
X1407580D01*
Y1274170D01*
X1397420D01*
X1399452Y1276202D02*
Y1282298D01*
X1405548D01*
Y1276202D01*
X1399452D01*
X1389920Y1281670D02*
Y1291830D01*
X1400080D01*
Y1281670D01*
X1389920D01*
X1391952Y1283702D02*
Y1289798D01*
X1398048D01*
Y1283702D01*
X1391952D01*
X1397420Y1281670D02*
Y1291830D01*
X1407580D01*
Y1281670D01*
X1397420D01*
X1399452Y1283702D02*
Y1289798D01*
X1405548D01*
Y1283702D01*
X1399452D01*
X1487420Y1269170D02*
Y1279330D01*
X1497580D01*
Y1269170D01*
X1487420D01*
X1489452Y1271202D02*
Y1277298D01*
X1495548D01*
Y1271202D01*
X1489452D01*
X1494920Y1261670D02*
Y1271830D01*
X1505080D01*
Y1261670D01*
X1494920D01*
X1496952Y1263702D02*
Y1269798D01*
X1503048D01*
Y1263702D01*
X1496952D01*
X1494920Y1269170D02*
Y1279330D01*
X1505080D01*
Y1269170D01*
X1494920D01*
X1496952Y1271202D02*
Y1277298D01*
X1503048D01*
Y1271202D01*
X1496952D01*
X1487420Y1276670D02*
Y1286830D01*
X1497580D01*
Y1276670D01*
X1487420D01*
X1489452Y1278702D02*
Y1284798D01*
X1495548D01*
Y1278702D01*
X1489452D01*
X1254920Y1349920D02*
Y1360080D01*
X1265080D01*
Y1349920D01*
X1254920D01*
X1256952Y1351952D02*
Y1358048D01*
X1263048D01*
Y1351952D01*
X1256952D01*
X1244920Y1349920D02*
Y1360080D01*
X1255080D01*
Y1349920D01*
X1244920D01*
X1246952Y1351952D02*
Y1358048D01*
X1253048D01*
Y1351952D01*
X1246952D01*
X1234920Y1349920D02*
Y1360080D01*
X1245080D01*
Y1349920D01*
X1234920D01*
X1236952Y1351952D02*
Y1358048D01*
X1243048D01*
Y1351952D01*
X1236952D01*
X1224920Y1349920D02*
Y1360080D01*
X1235080D01*
Y1349920D01*
X1224920D01*
X1226952Y1351952D02*
Y1358048D01*
X1233048D01*
Y1351952D01*
X1226952D01*
X1214920Y1349920D02*
Y1360080D01*
X1225080D01*
Y1349920D01*
X1214920D01*
X1216952Y1351952D02*
Y1358048D01*
X1223048D01*
Y1351952D01*
X1216952D01*
X1204920Y1349920D02*
Y1360080D01*
X1215080D01*
Y1349920D01*
X1204920D01*
X1206952Y1351952D02*
Y1358048D01*
X1213048D01*
Y1351952D01*
X1206952D01*
X1194920Y1349920D02*
Y1360080D01*
X1205080D01*
Y1349920D01*
X1194920D01*
X1196952Y1351952D02*
Y1358048D01*
X1203048D01*
Y1351952D01*
X1196952D01*
X1184920Y1349920D02*
Y1360080D01*
X1195080D01*
Y1349920D01*
X1184920D01*
X1186952Y1351952D02*
Y1358048D01*
X1193048D01*
Y1351952D01*
X1186952D01*
X1124920Y1144920D02*
Y1155080D01*
X1135080D01*
Y1144920D01*
X1124920D01*
X1126952Y1146952D02*
Y1153048D01*
X1133048D01*
Y1146952D01*
X1126952D01*
X1109920Y1144920D02*
Y1155080D01*
X1120080D01*
Y1144920D01*
X1109920D01*
X1111952Y1146952D02*
Y1153048D01*
X1118048D01*
Y1146952D01*
X1111952D01*
X1094920Y1144920D02*
Y1155080D01*
X1105080D01*
Y1144920D01*
X1094920D01*
X1096952Y1146952D02*
Y1153048D01*
X1103048D01*
Y1146952D01*
X1096952D01*
X1094920Y1159920D02*
Y1170080D01*
X1105080D01*
Y1159920D01*
X1094920D01*
X1096952Y1161952D02*
Y1168048D01*
X1103048D01*
Y1161952D01*
X1096952D01*
X1109920Y1159920D02*
Y1170080D01*
X1120080D01*
Y1159920D01*
X1109920D01*
X1111952Y1161952D02*
Y1168048D01*
X1118048D01*
Y1161952D01*
X1111952D01*
X1124920Y1159920D02*
Y1170080D01*
X1135080D01*
Y1159920D01*
X1124920D01*
X1126952Y1161952D02*
Y1168048D01*
X1133048D01*
Y1161952D01*
X1126952D01*
X1124920Y1174920D02*
Y1185080D01*
X1135080D01*
Y1174920D01*
X1124920D01*
X1126952Y1176952D02*
Y1183048D01*
X1133048D01*
Y1176952D01*
X1126952D01*
X1109920Y1174920D02*
Y1185080D01*
X1120080D01*
Y1174920D01*
X1109920D01*
X1111952Y1176952D02*
Y1183048D01*
X1118048D01*
Y1176952D01*
X1111952D01*
X1094920Y1174920D02*
Y1185080D01*
X1105080D01*
Y1174920D01*
X1094920D01*
X1096952Y1176952D02*
Y1183048D01*
X1103048D01*
Y1176952D01*
X1096952D01*
X1194920Y1389920D02*
Y1400080D01*
X1205080D01*
Y1389920D01*
X1194920D01*
X1196952Y1391952D02*
Y1398048D01*
X1203048D01*
Y1391952D01*
X1196952D01*
X1194920Y1399920D02*
Y1410080D01*
X1205080D01*
Y1399920D01*
X1194920D01*
X1196952Y1401952D02*
Y1408048D01*
X1203048D01*
Y1401952D01*
X1196952D01*
X1184920Y1399920D02*
Y1410080D01*
X1195080D01*
Y1399920D01*
X1184920D01*
X1186952Y1401952D02*
Y1408048D01*
X1193048D01*
Y1401952D01*
X1186952D01*
X1184920Y1389920D02*
Y1400080D01*
X1195080D01*
Y1389920D01*
X1184920D01*
X1186952Y1391952D02*
Y1398048D01*
X1193048D01*
Y1391952D01*
X1186952D01*
X1184920Y1379920D02*
Y1390080D01*
X1195080D01*
Y1379920D01*
X1184920D01*
X1186952Y1381952D02*
Y1388048D01*
X1193048D01*
Y1381952D01*
X1186952D01*
X1174920Y1379920D02*
Y1390080D01*
X1185080D01*
Y1379920D01*
X1174920D01*
X1176952Y1381952D02*
Y1388048D01*
X1183048D01*
Y1381952D01*
X1176952D01*
X1174920Y1389920D02*
Y1400080D01*
X1185080D01*
Y1389920D01*
X1174920D01*
X1176952Y1391952D02*
Y1398048D01*
X1183048D01*
Y1391952D01*
X1176952D01*
X1174920Y1399920D02*
Y1410080D01*
X1185080D01*
Y1399920D01*
X1174920D01*
X1176952Y1401952D02*
Y1408048D01*
X1183048D01*
Y1401952D01*
X1176952D01*
X1164920Y1399920D02*
Y1410080D01*
X1175080D01*
Y1399920D01*
X1164920D01*
X1166952Y1401952D02*
Y1408048D01*
X1173048D01*
Y1401952D01*
X1166952D01*
X1164920Y1389920D02*
Y1400080D01*
X1175080D01*
Y1389920D01*
X1164920D01*
X1166952Y1391952D02*
Y1398048D01*
X1173048D01*
Y1391952D01*
X1166952D01*
X1164920Y1379920D02*
Y1390080D01*
X1175080D01*
Y1379920D01*
X1164920D01*
X1166952Y1381952D02*
Y1388048D01*
X1173048D01*
Y1381952D01*
X1166952D01*
X1154920Y1379920D02*
Y1390080D01*
X1165080D01*
Y1379920D01*
X1154920D01*
X1156952Y1381952D02*
Y1388048D01*
X1163048D01*
Y1381952D01*
X1156952D01*
X1154920Y1389920D02*
Y1400080D01*
X1165080D01*
Y1389920D01*
X1154920D01*
X1156952Y1391952D02*
Y1398048D01*
X1163048D01*
Y1391952D01*
X1156952D01*
X1154920Y1399920D02*
Y1410080D01*
X1165080D01*
Y1399920D01*
X1154920D01*
X1156952Y1401952D02*
Y1408048D01*
X1163048D01*
Y1401952D01*
X1156952D01*
X955470Y548560D02*
Y558720D01*
X965630D01*
Y548560D01*
X955470D01*
X957502Y550592D02*
Y556688D01*
X963598D01*
Y550592D01*
X957502D01*
X942770Y548560D02*
Y558720D01*
X952930D01*
Y548560D01*
X942770D01*
X944802Y550592D02*
Y556688D01*
X950898D01*
Y550592D01*
X944802D01*
X930070Y548560D02*
Y558720D01*
X940230D01*
Y548560D01*
X930070D01*
X932102Y550592D02*
Y556688D01*
X938198D01*
Y550592D01*
X932102D01*
X1078920Y1242420D02*
Y1252580D01*
X1089080D01*
Y1242420D01*
X1078920D01*
X1080952Y1244452D02*
Y1250548D01*
X1087048D01*
Y1244452D01*
X1080952D01*
X1017920Y1242920D02*
Y1253080D01*
X1028080D01*
Y1242920D01*
X1017920D01*
X1019952Y1244952D02*
Y1251048D01*
X1026048D01*
Y1244952D01*
X1019952D01*
X1427670Y1307170D02*
Y1317330D01*
X1437830D01*
Y1307170D01*
X1427670D01*
X1429702Y1309202D02*
Y1315298D01*
X1435798D01*
Y1309202D01*
X1429702D01*
X1449920Y1306670D02*
Y1316830D01*
X1460080D01*
Y1306670D01*
X1449920D01*
X1451952Y1308702D02*
Y1314798D01*
X1458048D01*
Y1308702D01*
X1451952D01*
X1435670Y1307170D02*
Y1317330D01*
X1445830D01*
Y1307170D01*
X1435670D01*
X1437702Y1309202D02*
Y1315298D01*
X1443798D01*
Y1309202D01*
X1437702D01*
X1442670Y1307170D02*
Y1317330D01*
X1452830D01*
Y1307170D01*
X1442670D01*
X1444702Y1309202D02*
Y1315298D01*
X1450798D01*
Y1309202D01*
X1444702D01*
X1449920Y1298670D02*
Y1308830D01*
X1460080D01*
Y1298670D01*
X1449920D01*
X1451952Y1300702D02*
Y1306798D01*
X1458048D01*
Y1300702D01*
X1451952D01*
X1442670Y1299170D02*
Y1309330D01*
X1452830D01*
Y1299170D01*
X1442670D01*
X1444702Y1301202D02*
Y1307298D01*
X1450798D01*
Y1301202D01*
X1444702D01*
X1442920Y1291670D02*
Y1301830D01*
X1453080D01*
Y1291670D01*
X1442920D01*
X1444952Y1293702D02*
Y1299798D01*
X1451048D01*
Y1293702D01*
X1444952D01*
X1435920Y1291670D02*
Y1301830D01*
X1446080D01*
Y1291670D01*
X1435920D01*
X1437952Y1293702D02*
Y1299798D01*
X1444048D01*
Y1293702D01*
X1437952D01*
X1435670Y1299170D02*
Y1309330D01*
X1445830D01*
Y1299170D01*
X1435670D01*
X1437702Y1301202D02*
Y1307298D01*
X1443798D01*
Y1301202D01*
X1437702D01*
X1434920Y1284170D02*
Y1294330D01*
X1445080D01*
Y1284170D01*
X1434920D01*
X1436952Y1286202D02*
Y1292298D01*
X1443048D01*
Y1286202D01*
X1436952D01*
X1428170Y1291670D02*
Y1301830D01*
X1438330D01*
Y1291670D01*
X1428170D01*
X1430202Y1293702D02*
Y1299798D01*
X1436298D01*
Y1293702D01*
X1430202D01*
X1427670Y1299170D02*
Y1309330D01*
X1437830D01*
Y1299170D01*
X1427670D01*
X1429702Y1301202D02*
Y1307298D01*
X1435798D01*
Y1301202D01*
X1429702D01*
X1396670Y1296170D02*
Y1306330D01*
X1406830D01*
Y1296170D01*
X1396670D01*
X1398702Y1298202D02*
Y1304298D01*
X1404798D01*
Y1298202D01*
X1398702D01*
X1396670Y1303170D02*
Y1313330D01*
X1406830D01*
Y1303170D01*
X1396670D01*
X1398702Y1305202D02*
Y1311298D01*
X1404798D01*
Y1305202D01*
X1398702D01*
X1396920Y1288670D02*
Y1298830D01*
X1407080D01*
Y1288670D01*
X1396920D01*
X1398952Y1290702D02*
Y1296798D01*
X1405048D01*
Y1290702D01*
X1398952D01*
X1389670Y1296170D02*
Y1306330D01*
X1399830D01*
Y1296170D01*
X1389670D01*
X1391702Y1298202D02*
Y1304298D01*
X1397798D01*
Y1298202D01*
X1391702D01*
X1389670Y1303170D02*
Y1313330D01*
X1399830D01*
Y1303170D01*
X1389670D01*
X1391702Y1305202D02*
Y1311298D01*
X1397798D01*
Y1305202D01*
X1391702D01*
X1389920Y1288670D02*
Y1298830D01*
X1400080D01*
Y1288670D01*
X1389920D01*
X1391952Y1290702D02*
Y1296798D01*
X1398048D01*
Y1290702D01*
X1391952D01*
X1382920Y1288670D02*
Y1298830D01*
X1393080D01*
Y1288670D01*
X1382920D01*
X1384952Y1290702D02*
Y1296798D01*
X1391048D01*
Y1290702D01*
X1384952D01*
X1382670Y1296170D02*
Y1306330D01*
X1392830D01*
Y1296170D01*
X1382670D01*
X1384702Y1298202D02*
Y1304298D01*
X1390798D01*
Y1298202D01*
X1384702D01*
X1374920Y1288670D02*
Y1298830D01*
X1385080D01*
Y1288670D01*
X1374920D01*
X1376952Y1290702D02*
Y1296798D01*
X1383048D01*
Y1290702D01*
X1376952D01*
X1472420Y1126670D02*
Y1136830D01*
X1482580D01*
Y1126670D01*
X1472420D01*
X1474452Y1128702D02*
Y1134798D01*
X1480548D01*
Y1128702D01*
X1474452D01*
X1464920Y1134170D02*
Y1144330D01*
X1475080D01*
Y1134170D01*
X1464920D01*
X1466952Y1136202D02*
Y1142298D01*
X1473048D01*
Y1136202D01*
X1466952D01*
X1465170Y1126670D02*
Y1136830D01*
X1475330D01*
Y1126670D01*
X1465170D01*
X1467202Y1128702D02*
Y1134798D01*
X1473298D01*
Y1128702D01*
X1467202D01*
X1404920Y1159170D02*
Y1169330D01*
X1415080D01*
Y1159170D01*
X1404920D01*
X1406952Y1161202D02*
Y1167298D01*
X1413048D01*
Y1161202D01*
X1406952D01*
X1412420Y1151670D02*
Y1161830D01*
X1422580D01*
Y1151670D01*
X1412420D01*
X1414452Y1153702D02*
Y1159798D01*
X1420548D01*
Y1153702D01*
X1414452D01*
X999920Y1189920D02*
Y1200080D01*
X1010080D01*
Y1189920D01*
X999920D01*
X1001952Y1191952D02*
Y1198048D01*
X1008048D01*
Y1191952D01*
X1001952D01*
X979920Y1189920D02*
Y1200080D01*
X990080D01*
Y1189920D01*
X979920D01*
X981952Y1191952D02*
Y1198048D01*
X988048D01*
Y1191952D01*
X981952D01*
X959920Y1189920D02*
Y1200080D01*
X970080D01*
Y1189920D01*
X959920D01*
X961952Y1191952D02*
Y1198048D01*
X968048D01*
Y1191952D01*
X961952D01*
X1079920Y1174920D02*
Y1185080D01*
X1090080D01*
Y1174920D01*
X1079920D01*
X1081952Y1176952D02*
Y1183048D01*
X1088048D01*
Y1176952D01*
X1081952D01*
X1079920Y1204920D02*
Y1215080D01*
X1090080D01*
Y1204920D01*
X1079920D01*
X1081952Y1206952D02*
Y1213048D01*
X1088048D01*
Y1206952D01*
X1081952D01*
X1059920Y1204920D02*
Y1215080D01*
X1070080D01*
Y1204920D01*
X1059920D01*
X1061952Y1206952D02*
Y1213048D01*
X1068048D01*
Y1206952D01*
X1061952D01*
X1039920Y1204920D02*
Y1215080D01*
X1050080D01*
Y1204920D01*
X1039920D01*
X1041952Y1206952D02*
Y1213048D01*
X1048048D01*
Y1206952D01*
X1041952D01*
X1019920Y1204920D02*
Y1215080D01*
X1030080D01*
Y1204920D01*
X1019920D01*
X1021952Y1206952D02*
Y1213048D01*
X1028048D01*
Y1206952D01*
X1021952D01*
X999920Y1204920D02*
Y1215080D01*
X1010080D01*
Y1204920D01*
X999920D01*
X1001952Y1206952D02*
Y1213048D01*
X1008048D01*
Y1206952D01*
X1001952D01*
X979920Y1204920D02*
Y1215080D01*
X990080D01*
Y1204920D01*
X979920D01*
X981952Y1206952D02*
Y1213048D01*
X988048D01*
Y1206952D01*
X981952D01*
X959920Y1204920D02*
Y1215080D01*
X970080D01*
Y1204920D01*
X959920D01*
X961952Y1206952D02*
Y1213048D01*
X968048D01*
Y1206952D01*
X961952D01*
X1284920Y1379920D02*
Y1390080D01*
X1295080D01*
Y1379920D01*
X1284920D01*
X1286952Y1381952D02*
Y1388048D01*
X1293048D01*
Y1381952D01*
X1286952D01*
X1284920Y1389920D02*
Y1400080D01*
X1295080D01*
Y1389920D01*
X1284920D01*
X1286952Y1391952D02*
Y1398048D01*
X1293048D01*
Y1391952D01*
X1286952D01*
X1284920Y1399920D02*
Y1410080D01*
X1295080D01*
Y1399920D01*
X1284920D01*
X1286952Y1401952D02*
Y1408048D01*
X1293048D01*
Y1401952D01*
X1286952D01*
X1274920Y1379920D02*
Y1390080D01*
X1285080D01*
Y1379920D01*
X1274920D01*
X1276952Y1381952D02*
Y1388048D01*
X1283048D01*
Y1381952D01*
X1276952D01*
X1274920Y1389920D02*
Y1400080D01*
X1285080D01*
Y1389920D01*
X1274920D01*
X1276952Y1391952D02*
Y1398048D01*
X1283048D01*
Y1391952D01*
X1276952D01*
X1274920Y1399920D02*
Y1410080D01*
X1285080D01*
Y1399920D01*
X1274920D01*
X1276952Y1401952D02*
Y1408048D01*
X1283048D01*
Y1401952D01*
X1276952D01*
X1264920Y1379920D02*
Y1390080D01*
X1275080D01*
Y1379920D01*
X1264920D01*
X1266952Y1381952D02*
Y1388048D01*
X1273048D01*
Y1381952D01*
X1266952D01*
X1264920Y1389920D02*
Y1400080D01*
X1275080D01*
Y1389920D01*
X1264920D01*
X1266952Y1391952D02*
Y1398048D01*
X1273048D01*
Y1391952D01*
X1266952D01*
X1264920Y1399920D02*
Y1410080D01*
X1275080D01*
Y1399920D01*
X1264920D01*
X1266952Y1401952D02*
Y1408048D01*
X1273048D01*
Y1401952D01*
X1266952D01*
X1254920Y1379920D02*
Y1390080D01*
X1265080D01*
Y1379920D01*
X1254920D01*
X1256952Y1381952D02*
Y1388048D01*
X1263048D01*
Y1381952D01*
X1256952D01*
X1254920Y1389920D02*
Y1400080D01*
X1265080D01*
Y1389920D01*
X1254920D01*
X1256952Y1391952D02*
Y1398048D01*
X1263048D01*
Y1391952D01*
X1256952D01*
X1254920Y1399920D02*
Y1410080D01*
X1265080D01*
Y1399920D01*
X1254920D01*
X1256952Y1401952D02*
Y1408048D01*
X1263048D01*
Y1401952D01*
X1256952D01*
X1244920Y1399920D02*
Y1410080D01*
X1255080D01*
Y1399920D01*
X1244920D01*
X1246952Y1401952D02*
Y1408048D01*
X1253048D01*
Y1401952D01*
X1246952D01*
X1244920Y1389920D02*
Y1400080D01*
X1255080D01*
Y1389920D01*
X1244920D01*
X1246952Y1391952D02*
Y1398048D01*
X1253048D01*
Y1391952D01*
X1246952D01*
X1244920Y1379920D02*
Y1390080D01*
X1255080D01*
Y1379920D01*
X1244920D01*
X1246952Y1381952D02*
Y1388048D01*
X1253048D01*
Y1381952D01*
X1246952D01*
X1234920Y1379920D02*
Y1390080D01*
X1245080D01*
Y1379920D01*
X1234920D01*
X1236952Y1381952D02*
Y1388048D01*
X1243048D01*
Y1381952D01*
X1236952D01*
X1234920Y1389920D02*
Y1400080D01*
X1245080D01*
Y1389920D01*
X1234920D01*
X1236952Y1391952D02*
Y1398048D01*
X1243048D01*
Y1391952D01*
X1236952D01*
X1234920Y1399920D02*
Y1410080D01*
X1245080D01*
Y1399920D01*
X1234920D01*
X1236952Y1401952D02*
Y1408048D01*
X1243048D01*
Y1401952D01*
X1236952D01*
X1224920Y1399920D02*
Y1410080D01*
X1235080D01*
Y1399920D01*
X1224920D01*
X1226952Y1401952D02*
Y1408048D01*
X1233048D01*
Y1401952D01*
X1226952D01*
X1224920Y1389920D02*
Y1400080D01*
X1235080D01*
Y1389920D01*
X1224920D01*
X1226952Y1391952D02*
Y1398048D01*
X1233048D01*
Y1391952D01*
X1226952D01*
X1224920Y1379920D02*
Y1390080D01*
X1235080D01*
Y1379920D01*
X1224920D01*
X1226952Y1381952D02*
Y1388048D01*
X1233048D01*
Y1381952D01*
X1226952D01*
X1214920Y1379920D02*
Y1390080D01*
X1225080D01*
Y1379920D01*
X1214920D01*
X1216952Y1381952D02*
Y1388048D01*
X1223048D01*
Y1381952D01*
X1216952D01*
X1214920Y1389920D02*
Y1400080D01*
X1225080D01*
Y1389920D01*
X1214920D01*
X1216952Y1391952D02*
Y1398048D01*
X1223048D01*
Y1391952D01*
X1216952D01*
X1214920Y1399920D02*
Y1410080D01*
X1225080D01*
Y1399920D01*
X1214920D01*
X1216952Y1401952D02*
Y1408048D01*
X1223048D01*
Y1401952D01*
X1216952D01*
X1204920Y1399920D02*
Y1410080D01*
X1215080D01*
Y1399920D01*
X1204920D01*
X1206952Y1401952D02*
Y1408048D01*
X1213048D01*
Y1401952D01*
X1206952D01*
X1204920Y1389920D02*
Y1400080D01*
X1215080D01*
Y1389920D01*
X1204920D01*
X1206952Y1391952D02*
Y1398048D01*
X1213048D01*
Y1391952D01*
X1206952D01*
X1204920Y1379920D02*
Y1390080D01*
X1215080D01*
Y1379920D01*
X1204920D01*
X1206952Y1381952D02*
Y1388048D01*
X1213048D01*
Y1381952D01*
X1206952D01*
X1194920Y1379920D02*
Y1390080D01*
X1205080D01*
Y1379920D01*
X1194920D01*
X1196952Y1381952D02*
Y1388048D01*
X1203048D01*
Y1381952D01*
X1196952D01*
X1284920Y1329920D02*
Y1340080D01*
X1295080D01*
Y1329920D01*
X1284920D01*
X1286952Y1331952D02*
Y1338048D01*
X1293048D01*
Y1331952D01*
X1286952D01*
X1274920Y1329920D02*
Y1340080D01*
X1285080D01*
Y1329920D01*
X1274920D01*
X1276952Y1331952D02*
Y1338048D01*
X1283048D01*
Y1331952D01*
X1276952D01*
X1264920Y1329920D02*
Y1340080D01*
X1275080D01*
Y1329920D01*
X1264920D01*
X1266952Y1331952D02*
Y1338048D01*
X1273048D01*
Y1331952D01*
X1266952D01*
X1254920Y1329920D02*
Y1340080D01*
X1265080D01*
Y1329920D01*
X1254920D01*
X1256952Y1331952D02*
Y1338048D01*
X1263048D01*
Y1331952D01*
X1256952D01*
X1244920Y1329920D02*
Y1340080D01*
X1255080D01*
Y1329920D01*
X1244920D01*
X1246952Y1331952D02*
Y1338048D01*
X1253048D01*
Y1331952D01*
X1246952D01*
X1234920Y1329920D02*
Y1340080D01*
X1245080D01*
Y1329920D01*
X1234920D01*
X1236952Y1331952D02*
Y1338048D01*
X1243048D01*
Y1331952D01*
X1236952D01*
X1224920Y1329920D02*
Y1340080D01*
X1235080D01*
Y1329920D01*
X1224920D01*
X1226952Y1331952D02*
Y1338048D01*
X1233048D01*
Y1331952D01*
X1226952D01*
X1214920Y1329920D02*
Y1340080D01*
X1225080D01*
Y1329920D01*
X1214920D01*
X1216952Y1331952D02*
Y1338048D01*
X1223048D01*
Y1331952D01*
X1216952D01*
X1204920Y1329920D02*
Y1340080D01*
X1215080D01*
Y1329920D01*
X1204920D01*
X1206952Y1331952D02*
Y1338048D01*
X1213048D01*
Y1331952D01*
X1206952D01*
X1194920Y1329920D02*
Y1340080D01*
X1205080D01*
Y1329920D01*
X1194920D01*
X1196952Y1331952D02*
Y1338048D01*
X1203048D01*
Y1331952D01*
X1196952D01*
X1184920Y1329920D02*
Y1340080D01*
X1195080D01*
Y1329920D01*
X1184920D01*
X1186952Y1331952D02*
Y1338048D01*
X1193048D01*
Y1331952D01*
X1186952D01*
X1184920Y1339920D02*
Y1350080D01*
X1195080D01*
Y1339920D01*
X1184920D01*
X1186952Y1341952D02*
Y1348048D01*
X1193048D01*
Y1341952D01*
X1186952D01*
X1194920Y1339920D02*
Y1350080D01*
X1205080D01*
Y1339920D01*
X1194920D01*
X1196952Y1341952D02*
Y1348048D01*
X1203048D01*
Y1341952D01*
X1196952D01*
X1204920Y1339920D02*
Y1350080D01*
X1215080D01*
Y1339920D01*
X1204920D01*
X1206952Y1341952D02*
Y1348048D01*
X1213048D01*
Y1341952D01*
X1206952D01*
X1214920Y1339920D02*
Y1350080D01*
X1225080D01*
Y1339920D01*
X1214920D01*
X1216952Y1341952D02*
Y1348048D01*
X1223048D01*
Y1341952D01*
X1216952D01*
X1224920Y1339920D02*
Y1350080D01*
X1235080D01*
Y1339920D01*
X1224920D01*
X1226952Y1341952D02*
Y1348048D01*
X1233048D01*
Y1341952D01*
X1226952D01*
X1234920Y1339920D02*
Y1350080D01*
X1245080D01*
Y1339920D01*
X1234920D01*
X1236952Y1341952D02*
Y1348048D01*
X1243048D01*
Y1341952D01*
X1236952D01*
X1244920Y1339920D02*
Y1350080D01*
X1255080D01*
Y1339920D01*
X1244920D01*
X1246952Y1341952D02*
Y1348048D01*
X1253048D01*
Y1341952D01*
X1246952D01*
X1254920Y1339920D02*
Y1350080D01*
X1265080D01*
Y1339920D01*
X1254920D01*
X1256952Y1341952D02*
Y1348048D01*
X1263048D01*
Y1341952D01*
X1256952D01*
X1264920Y1339920D02*
Y1350080D01*
X1275080D01*
Y1339920D01*
X1264920D01*
X1266952Y1341952D02*
Y1348048D01*
X1273048D01*
Y1341952D01*
X1266952D01*
X1274920Y1339920D02*
Y1350080D01*
X1285080D01*
Y1339920D01*
X1274920D01*
X1276952Y1341952D02*
Y1348048D01*
X1283048D01*
Y1341952D01*
X1276952D01*
X1284920Y1339920D02*
Y1350080D01*
X1295080D01*
Y1339920D01*
X1284920D01*
X1286952Y1341952D02*
Y1348048D01*
X1293048D01*
Y1341952D01*
X1286952D01*
X1274920Y1349920D02*
Y1360080D01*
X1285080D01*
Y1349920D01*
X1274920D01*
X1276952Y1351952D02*
Y1358048D01*
X1283048D01*
Y1351952D01*
X1276952D01*
X1264920Y1349920D02*
Y1360080D01*
X1275080D01*
Y1349920D01*
X1264920D01*
X1266952Y1351952D02*
Y1358048D01*
X1273048D01*
Y1351952D01*
X1266952D01*
X1094920Y1189920D02*
Y1200080D01*
X1105080D01*
Y1189920D01*
X1094920D01*
X1096952Y1191952D02*
Y1198048D01*
X1103048D01*
Y1191952D01*
X1096952D01*
X1109920Y1189920D02*
Y1200080D01*
X1120080D01*
Y1189920D01*
X1109920D01*
X1111952Y1191952D02*
Y1198048D01*
X1118048D01*
Y1191952D01*
X1111952D01*
X1124920Y1189920D02*
Y1200080D01*
X1135080D01*
Y1189920D01*
X1124920D01*
X1126952Y1191952D02*
Y1198048D01*
X1133048D01*
Y1191952D01*
X1126952D01*
X1124920Y1204920D02*
Y1215080D01*
X1135080D01*
Y1204920D01*
X1124920D01*
X1126952Y1206952D02*
Y1213048D01*
X1133048D01*
Y1206952D01*
X1126952D01*
X1109920Y1204920D02*
Y1215080D01*
X1120080D01*
Y1204920D01*
X1109920D01*
X1111952Y1206952D02*
Y1213048D01*
X1118048D01*
Y1206952D01*
X1111952D01*
X1094920Y1204920D02*
Y1215080D01*
X1105080D01*
Y1204920D01*
X1094920D01*
X1096952Y1206952D02*
Y1213048D01*
X1103048D01*
Y1206952D01*
X1096952D01*
X1059920Y1144920D02*
Y1155080D01*
X1070080D01*
Y1144920D01*
X1059920D01*
X1061952Y1146952D02*
Y1153048D01*
X1068048D01*
Y1146952D01*
X1061952D01*
X1079920Y1144920D02*
Y1155080D01*
X1090080D01*
Y1144920D01*
X1079920D01*
X1081952Y1146952D02*
Y1153048D01*
X1088048D01*
Y1146952D01*
X1081952D01*
X1079920Y1159920D02*
Y1170080D01*
X1090080D01*
Y1159920D01*
X1079920D01*
X1081952Y1161952D02*
Y1168048D01*
X1088048D01*
Y1161952D01*
X1081952D01*
X1059920Y1159920D02*
Y1170080D01*
X1070080D01*
Y1159920D01*
X1059920D01*
X1061952Y1161952D02*
Y1168048D01*
X1068048D01*
Y1161952D01*
X1061952D01*
X1039920Y1144920D02*
Y1155080D01*
X1050080D01*
Y1144920D01*
X1039920D01*
X1041952Y1146952D02*
Y1153048D01*
X1048048D01*
Y1146952D01*
X1041952D01*
X1039920Y1159920D02*
Y1170080D01*
X1050080D01*
Y1159920D01*
X1039920D01*
X1041952Y1161952D02*
Y1168048D01*
X1048048D01*
Y1161952D01*
X1041952D01*
X1019920Y1144920D02*
Y1155080D01*
X1030080D01*
Y1144920D01*
X1019920D01*
X1021952Y1146952D02*
Y1153048D01*
X1028048D01*
Y1146952D01*
X1021952D01*
X1019920Y1159920D02*
Y1170080D01*
X1030080D01*
Y1159920D01*
X1019920D01*
X1021952Y1161952D02*
Y1168048D01*
X1028048D01*
Y1161952D01*
X1021952D01*
X999920Y1144920D02*
Y1155080D01*
X1010080D01*
Y1144920D01*
X999920D01*
X1001952Y1146952D02*
Y1153048D01*
X1008048D01*
Y1146952D01*
X1001952D01*
X999920Y1159920D02*
Y1170080D01*
X1010080D01*
Y1159920D01*
X999920D01*
X1001952Y1161952D02*
Y1168048D01*
X1008048D01*
Y1161952D01*
X1001952D01*
X979920Y1159920D02*
Y1170080D01*
X990080D01*
Y1159920D01*
X979920D01*
X981952Y1161952D02*
Y1168048D01*
X988048D01*
Y1161952D01*
X981952D01*
X959920Y1159920D02*
Y1170080D01*
X970080D01*
Y1159920D01*
X959920D01*
X961952Y1161952D02*
Y1168048D01*
X968048D01*
Y1161952D01*
X961952D01*
X959920Y1174920D02*
Y1185080D01*
X970080D01*
Y1174920D01*
X959920D01*
X961952Y1176952D02*
Y1183048D01*
X968048D01*
Y1176952D01*
X961952D01*
X979920Y1174920D02*
Y1185080D01*
X990080D01*
Y1174920D01*
X979920D01*
X981952Y1176952D02*
Y1183048D01*
X988048D01*
Y1176952D01*
X981952D01*
X999920Y1174920D02*
Y1185080D01*
X1010080D01*
Y1174920D01*
X999920D01*
X1001952Y1176952D02*
Y1183048D01*
X1008048D01*
Y1176952D01*
X1001952D01*
X1019920Y1174920D02*
Y1185080D01*
X1030080D01*
Y1174920D01*
X1019920D01*
X1021952Y1176952D02*
Y1183048D01*
X1028048D01*
Y1176952D01*
X1021952D01*
X1039920Y1174920D02*
Y1185080D01*
X1050080D01*
Y1174920D01*
X1039920D01*
X1041952Y1176952D02*
Y1183048D01*
X1048048D01*
Y1176952D01*
X1041952D01*
X1059920Y1174920D02*
Y1185080D01*
X1070080D01*
Y1174920D01*
X1059920D01*
X1061952Y1176952D02*
Y1183048D01*
X1068048D01*
Y1176952D01*
X1061952D01*
X1079920Y1189920D02*
Y1200080D01*
X1090080D01*
Y1189920D01*
X1079920D01*
X1081952Y1191952D02*
Y1198048D01*
X1088048D01*
Y1191952D01*
X1081952D01*
X1059920Y1189920D02*
Y1200080D01*
X1070080D01*
Y1189920D01*
X1059920D01*
X1061952Y1191952D02*
Y1198048D01*
X1068048D01*
Y1191952D01*
X1061952D01*
X1039920Y1189920D02*
Y1200080D01*
X1050080D01*
Y1189920D01*
X1039920D01*
X1041952Y1191952D02*
Y1198048D01*
X1048048D01*
Y1191952D01*
X1041952D01*
X1019920Y1189920D02*
Y1200080D01*
X1030080D01*
Y1189920D01*
X1019920D01*
X1021952Y1191952D02*
Y1198048D01*
X1028048D01*
Y1191952D01*
X1021952D01*
X708920Y1160420D02*
Y1170580D01*
X719080D01*
Y1160420D01*
X708920D01*
X710952Y1162452D02*
Y1168548D01*
X717048D01*
Y1162452D01*
X710952D01*
X701420Y1175420D02*
Y1185580D01*
X711580D01*
Y1175420D01*
X701420D01*
X703452Y1177452D02*
Y1183548D01*
X709548D01*
Y1177452D01*
X703452D01*
X708920Y1175420D02*
Y1185580D01*
X719080D01*
Y1175420D01*
X708920D01*
X710952Y1177452D02*
Y1183548D01*
X717048D01*
Y1177452D01*
X710952D01*
X723920Y1167920D02*
Y1178080D01*
X734080D01*
Y1167920D01*
X723920D01*
X725952Y1169952D02*
Y1176048D01*
X732048D01*
Y1169952D01*
X725952D01*
X716420Y1167920D02*
Y1178080D01*
X726580D01*
Y1167920D01*
X716420D01*
X718452Y1169952D02*
Y1176048D01*
X724548D01*
Y1169952D01*
X718452D01*
X723920Y1160420D02*
Y1170580D01*
X734080D01*
Y1160420D01*
X723920D01*
X725952Y1162452D02*
Y1168548D01*
X732048D01*
Y1162452D01*
X725952D01*
X716420Y1160420D02*
Y1170580D01*
X726580D01*
Y1160420D01*
X716420D01*
X718452Y1162452D02*
Y1168548D01*
X724548D01*
Y1162452D01*
X718452D01*
X716420Y1175420D02*
Y1185580D01*
X726580D01*
Y1175420D01*
X716420D01*
X718452Y1177452D02*
Y1183548D01*
X724548D01*
Y1177452D01*
X718452D01*
X701420Y1167920D02*
Y1178080D01*
X711580D01*
Y1167920D01*
X701420D01*
X703452Y1169952D02*
Y1176048D01*
X709548D01*
Y1169952D01*
X703452D01*
X701420Y1160420D02*
Y1170580D01*
X711580D01*
Y1160420D01*
X701420D01*
X703452Y1162452D02*
Y1168548D01*
X709548D01*
Y1162452D01*
X703452D01*
X708920Y1167920D02*
Y1178080D01*
X719080D01*
Y1167920D01*
X708920D01*
X710952Y1169952D02*
Y1176048D01*
X717048D01*
Y1169952D01*
X710952D01*
X701420Y1152920D02*
Y1163080D01*
X711580D01*
Y1152920D01*
X701420D01*
X703452Y1154952D02*
Y1161048D01*
X709548D01*
Y1154952D01*
X703452D01*
X701420Y1137920D02*
Y1148080D01*
X711580D01*
Y1137920D01*
X701420D01*
X703452Y1139952D02*
Y1146048D01*
X709548D01*
Y1139952D01*
X703452D01*
X701420Y1130420D02*
Y1140580D01*
X711580D01*
Y1130420D01*
X701420D01*
X703452Y1132452D02*
Y1138548D01*
X709548D01*
Y1132452D01*
X703452D01*
X708920Y1152920D02*
Y1163080D01*
X719080D01*
Y1152920D01*
X708920D01*
X710952Y1154952D02*
Y1161048D01*
X717048D01*
Y1154952D01*
X710952D01*
X716420Y1145420D02*
Y1155580D01*
X726580D01*
Y1145420D01*
X716420D01*
X718452Y1147452D02*
Y1153548D01*
X724548D01*
Y1147452D01*
X718452D01*
X708920Y1145420D02*
Y1155580D01*
X719080D01*
Y1145420D01*
X708920D01*
X710952Y1147452D02*
Y1153548D01*
X717048D01*
Y1147452D01*
X710952D01*
X716420Y1137920D02*
Y1148080D01*
X726580D01*
Y1137920D01*
X716420D01*
X718452Y1139952D02*
Y1146048D01*
X724548D01*
Y1139952D01*
X718452D01*
X708920Y1137920D02*
Y1148080D01*
X719080D01*
Y1137920D01*
X708920D01*
X710952Y1139952D02*
Y1146048D01*
X717048D01*
Y1139952D01*
X710952D01*
X716420Y1130420D02*
Y1140580D01*
X726580D01*
Y1130420D01*
X716420D01*
X718452Y1132452D02*
Y1138548D01*
X724548D01*
Y1132452D01*
X718452D01*
X708920Y1130420D02*
Y1140580D01*
X719080D01*
Y1130420D01*
X708920D01*
X710952Y1132452D02*
Y1138548D01*
X717048D01*
Y1132452D01*
X710952D01*
X701420Y1145420D02*
Y1155580D01*
X711580D01*
Y1145420D01*
X701420D01*
X703452Y1147452D02*
Y1153548D01*
X709548D01*
Y1147452D01*
X703452D01*
X716420Y1152920D02*
Y1163080D01*
X726580D01*
Y1152920D01*
X716420D01*
X718452Y1154952D02*
Y1161048D01*
X724548D01*
Y1154952D01*
X718452D01*
X1487670Y916920D02*
Y927080D01*
X1497830D01*
Y916920D01*
X1487670D01*
X1489702Y918952D02*
Y925048D01*
X1495798D01*
Y918952D01*
X1489702D01*
X1495170Y916920D02*
Y927080D01*
X1505330D01*
Y916920D01*
X1495170D01*
X1497202Y918952D02*
Y925048D01*
X1503298D01*
Y918952D01*
X1497202D01*
X1487670Y901920D02*
Y912080D01*
X1497830D01*
Y901920D01*
X1487670D01*
X1489702Y903952D02*
Y910048D01*
X1495798D01*
Y903952D01*
X1489702D01*
X1495170Y901920D02*
Y912080D01*
X1505330D01*
Y901920D01*
X1495170D01*
X1497202Y903952D02*
Y910048D01*
X1503298D01*
Y903952D01*
X1497202D01*
X1487670Y909420D02*
Y919580D01*
X1497830D01*
Y909420D01*
X1487670D01*
X1489702Y911452D02*
Y917548D01*
X1495798D01*
Y911452D01*
X1489702D01*
X1495170Y909420D02*
Y919580D01*
X1505330D01*
Y909420D01*
X1495170D01*
X1497202Y911452D02*
Y917548D01*
X1503298D01*
Y911452D01*
X1497202D01*
X1480170Y916920D02*
Y927080D01*
X1490330D01*
Y916920D01*
X1480170D01*
X1482202Y918952D02*
Y925048D01*
X1488298D01*
Y918952D01*
X1482202D01*
X1480170Y909420D02*
Y919580D01*
X1490330D01*
Y909420D01*
X1480170D01*
X1482202Y911452D02*
Y917548D01*
X1488298D01*
Y911452D01*
X1482202D01*
X1480170Y901920D02*
Y912080D01*
X1490330D01*
Y901920D01*
X1480170D01*
X1482202Y903952D02*
Y910048D01*
X1488298D01*
Y903952D01*
X1482202D01*
X1480170Y894420D02*
Y904580D01*
X1490330D01*
Y894420D01*
X1480170D01*
X1482202Y896452D02*
Y902548D01*
X1488298D01*
Y896452D01*
X1482202D01*
X1472670Y894420D02*
Y904580D01*
X1482830D01*
Y894420D01*
X1472670D01*
X1474702Y896452D02*
Y902548D01*
X1480798D01*
Y896452D01*
X1474702D01*
X1472670Y886920D02*
Y897080D01*
X1482830D01*
Y886920D01*
X1472670D01*
X1474702Y888952D02*
Y895048D01*
X1480798D01*
Y888952D01*
X1474702D01*
X1480170Y886920D02*
Y897080D01*
X1490330D01*
Y886920D01*
X1480170D01*
X1482202Y888952D02*
Y895048D01*
X1488298D01*
Y888952D01*
X1482202D01*
X1480170Y879420D02*
Y889580D01*
X1490330D01*
Y879420D01*
X1480170D01*
X1482202Y881452D02*
Y887548D01*
X1488298D01*
Y881452D01*
X1482202D01*
X1472670Y879420D02*
Y889580D01*
X1482830D01*
Y879420D01*
X1472670D01*
X1474702Y881452D02*
Y887548D01*
X1480798D01*
Y881452D01*
X1474702D01*
X1465170Y901920D02*
Y912080D01*
X1475330D01*
Y901920D01*
X1465170D01*
X1467202Y903952D02*
Y910048D01*
X1473298D01*
Y903952D01*
X1467202D01*
X1472670Y909420D02*
Y919580D01*
X1482830D01*
Y909420D01*
X1472670D01*
X1474702Y911452D02*
Y917548D01*
X1480798D01*
Y911452D01*
X1474702D01*
X1465170Y916920D02*
Y927080D01*
X1475330D01*
Y916920D01*
X1465170D01*
X1467202Y918952D02*
Y925048D01*
X1473298D01*
Y918952D01*
X1467202D01*
X1472670Y901920D02*
Y912080D01*
X1482830D01*
Y901920D01*
X1472670D01*
X1474702Y903952D02*
Y910048D01*
X1480798D01*
Y903952D01*
X1474702D01*
X1472670Y916920D02*
Y927080D01*
X1482830D01*
Y916920D01*
X1472670D01*
X1474702Y918952D02*
Y925048D01*
X1480798D01*
Y918952D01*
X1474702D01*
X1465170Y909420D02*
Y919580D01*
X1475330D01*
Y909420D01*
X1465170D01*
X1467202Y911452D02*
Y917548D01*
X1473298D01*
Y911452D01*
X1467202D01*
X1465170Y886920D02*
Y897080D01*
X1475330D01*
Y886920D01*
X1465170D01*
X1467202Y888952D02*
Y895048D01*
X1473298D01*
Y888952D01*
X1467202D01*
X1465420Y879420D02*
Y889580D01*
X1475580D01*
Y879420D01*
X1465420D01*
X1467452Y881452D02*
Y887548D01*
X1473548D01*
Y881452D01*
X1467452D01*
X1465170Y894420D02*
Y904580D01*
X1475330D01*
Y894420D01*
X1465170D01*
X1467202Y896452D02*
Y902548D01*
X1473298D01*
Y896452D01*
X1467202D01*
X1487670Y879420D02*
Y889580D01*
X1497830D01*
Y879420D01*
X1487670D01*
X1489702Y881452D02*
Y887548D01*
X1495798D01*
Y881452D01*
X1489702D01*
X1487670Y886920D02*
Y897080D01*
X1497830D01*
Y886920D01*
X1487670D01*
X1489702Y888952D02*
Y895048D01*
X1495798D01*
Y888952D01*
X1489702D01*
X1495170Y879420D02*
Y889580D01*
X1505330D01*
Y879420D01*
X1495170D01*
X1497202Y881452D02*
Y887548D01*
X1503298D01*
Y881452D01*
X1497202D01*
X1495170Y894420D02*
Y904580D01*
X1505330D01*
Y894420D01*
X1495170D01*
X1497202Y896452D02*
Y902548D01*
X1503298D01*
Y896452D01*
X1497202D01*
X1487670Y894420D02*
Y904580D01*
X1497830D01*
Y894420D01*
X1487670D01*
X1489702Y896452D02*
Y902548D01*
X1495798D01*
Y896452D01*
X1489702D01*
X1495170Y886920D02*
Y897080D01*
X1505330D01*
Y886920D01*
X1495170D01*
X1497202Y888952D02*
Y895048D01*
X1503298D01*
Y888952D01*
X1497202D01*
X1390170Y919420D02*
Y929580D01*
X1400330D01*
Y919420D01*
X1390170D01*
X1392202Y921452D02*
Y927548D01*
X1398298D01*
Y921452D01*
X1392202D01*
X1397670Y919420D02*
Y929580D01*
X1407830D01*
Y919420D01*
X1397670D01*
X1399702Y921452D02*
Y927548D01*
X1405798D01*
Y921452D01*
X1399702D01*
X1402670Y931920D02*
Y942080D01*
X1412830D01*
Y931920D01*
X1402670D01*
X1404702Y933952D02*
Y940048D01*
X1410798D01*
Y933952D01*
X1404702D01*
X1405170Y919420D02*
Y929580D01*
X1415330D01*
Y919420D01*
X1405170D01*
X1407202Y921452D02*
Y927548D01*
X1413298D01*
Y921452D01*
X1407202D01*
X1412670Y919420D02*
Y929580D01*
X1422830D01*
Y919420D01*
X1412670D01*
X1414702Y921452D02*
Y927548D01*
X1420798D01*
Y921452D01*
X1414702D01*
X1450170Y1021920D02*
Y1032080D01*
X1460330D01*
Y1021920D01*
X1450170D01*
X1452202Y1023952D02*
Y1030048D01*
X1458298D01*
Y1023952D01*
X1452202D01*
X1450170Y1029420D02*
Y1039580D01*
X1460330D01*
Y1029420D01*
X1450170D01*
X1452202Y1031452D02*
Y1037548D01*
X1458298D01*
Y1031452D01*
X1452202D01*
X1450170Y1036920D02*
Y1047080D01*
X1460330D01*
Y1036920D01*
X1450170D01*
X1452202Y1038952D02*
Y1045048D01*
X1458298D01*
Y1038952D01*
X1452202D01*
X1472670Y1051920D02*
Y1062080D01*
X1482830D01*
Y1051920D01*
X1472670D01*
X1474702Y1053952D02*
Y1060048D01*
X1480798D01*
Y1053952D01*
X1474702D01*
X1472670Y1044420D02*
Y1054580D01*
X1482830D01*
Y1044420D01*
X1472670D01*
X1474702Y1046452D02*
Y1052548D01*
X1480798D01*
Y1046452D01*
X1474702D01*
X1472670Y1059420D02*
Y1069580D01*
X1482830D01*
Y1059420D01*
X1472670D01*
X1474702Y1061452D02*
Y1067548D01*
X1480798D01*
Y1061452D01*
X1474702D01*
X736420Y1232920D02*
Y1243080D01*
X746580D01*
Y1232920D01*
X736420D01*
X738452Y1234952D02*
Y1241048D01*
X744548D01*
Y1234952D01*
X738452D01*
X743920Y1232920D02*
Y1243080D01*
X754080D01*
Y1232920D01*
X743920D01*
X745952Y1234952D02*
Y1241048D01*
X752048D01*
Y1234952D01*
X745952D01*
X736420Y1225420D02*
Y1235580D01*
X746580D01*
Y1225420D01*
X736420D01*
X738452Y1227452D02*
Y1233548D01*
X744548D01*
Y1227452D01*
X738452D01*
X736420Y1217920D02*
Y1228080D01*
X746580D01*
Y1217920D01*
X736420D01*
X738452Y1219952D02*
Y1226048D01*
X744548D01*
Y1219952D01*
X738452D01*
X743920Y1217920D02*
Y1228080D01*
X754080D01*
Y1217920D01*
X743920D01*
X745952Y1219952D02*
Y1226048D01*
X752048D01*
Y1219952D01*
X745952D01*
X743920Y1210420D02*
Y1220580D01*
X754080D01*
Y1210420D01*
X743920D01*
X745952Y1212452D02*
Y1218548D01*
X752048D01*
Y1212452D01*
X745952D01*
X736420Y1210420D02*
Y1220580D01*
X746580D01*
Y1210420D01*
X736420D01*
X738452Y1212452D02*
Y1218548D01*
X744548D01*
Y1212452D01*
X738452D01*
X736420Y1202920D02*
Y1213080D01*
X746580D01*
Y1202920D01*
X736420D01*
X738452Y1204952D02*
Y1211048D01*
X744548D01*
Y1204952D01*
X738452D01*
X743920Y1225420D02*
Y1235580D01*
X754080D01*
Y1225420D01*
X743920D01*
X745952Y1227452D02*
Y1233548D01*
X752048D01*
Y1227452D01*
X745952D01*
X743920Y1202920D02*
Y1213080D01*
X754080D01*
Y1202920D01*
X743920D01*
X745952Y1204952D02*
Y1211048D01*
X752048D01*
Y1204952D01*
X745952D01*
X721420Y1232920D02*
Y1243080D01*
X731580D01*
Y1232920D01*
X721420D01*
X723452Y1234952D02*
Y1241048D01*
X729548D01*
Y1234952D01*
X723452D01*
X713920Y1217920D02*
Y1228080D01*
X724080D01*
Y1217920D01*
X713920D01*
X715952Y1219952D02*
Y1226048D01*
X722048D01*
Y1219952D01*
X715952D01*
X706420Y1217920D02*
Y1228080D01*
X716580D01*
Y1217920D01*
X706420D01*
X708452Y1219952D02*
Y1226048D01*
X714548D01*
Y1219952D01*
X708452D01*
X706420Y1225420D02*
Y1235580D01*
X716580D01*
Y1225420D01*
X706420D01*
X708452Y1227452D02*
Y1233548D01*
X714548D01*
Y1227452D01*
X708452D01*
X706920Y1201420D02*
Y1211580D01*
X717080D01*
Y1201420D01*
X706920D01*
X708952Y1203452D02*
Y1209548D01*
X715048D01*
Y1203452D01*
X708952D01*
X707166Y1239469D02*
Y1249629D01*
X717326D01*
Y1239469D01*
X707166D01*
X709198Y1241501D02*
Y1247597D01*
X715294D01*
Y1241501D01*
X709198D01*
X721420Y1225420D02*
Y1235580D01*
X731580D01*
Y1225420D01*
X721420D01*
X723452Y1227452D02*
Y1233548D01*
X729548D01*
Y1227452D01*
X723452D01*
X721420Y1217920D02*
Y1228080D01*
X731580D01*
Y1217920D01*
X721420D01*
X723452Y1219952D02*
Y1226048D01*
X729548D01*
Y1219952D01*
X723452D01*
X721420Y1210420D02*
Y1220580D01*
X731580D01*
Y1210420D01*
X721420D01*
X723452Y1212452D02*
Y1218548D01*
X729548D01*
Y1212452D01*
X723452D01*
X713920Y1225420D02*
Y1235580D01*
X724080D01*
Y1225420D01*
X713920D01*
X715952Y1227452D02*
Y1233548D01*
X722048D01*
Y1227452D01*
X715952D01*
X753170Y1137920D02*
Y1148080D01*
X763330D01*
Y1137920D01*
X753170D01*
X755202Y1139952D02*
Y1146048D01*
X761298D01*
Y1139952D01*
X755202D01*
X745920Y1145420D02*
Y1155580D01*
X756080D01*
Y1145420D01*
X745920D01*
X747952Y1147452D02*
Y1153548D01*
X754048D01*
Y1147452D01*
X747952D01*
X752920Y1145420D02*
Y1155580D01*
X763080D01*
Y1145420D01*
X752920D01*
X754952Y1147452D02*
Y1153548D01*
X761048D01*
Y1147452D01*
X754952D01*
X760670Y1145420D02*
Y1155580D01*
X770830D01*
Y1145420D01*
X760670D01*
X762702Y1147452D02*
Y1153548D01*
X768798D01*
Y1147452D01*
X762702D01*
X753920Y1152920D02*
Y1163080D01*
X764080D01*
Y1152920D01*
X753920D01*
X755952Y1154952D02*
Y1161048D01*
X762048D01*
Y1154952D01*
X755952D01*
X761170Y1137920D02*
Y1148080D01*
X771330D01*
Y1137920D01*
X761170D01*
X763202Y1139952D02*
Y1146048D01*
X769298D01*
Y1139952D01*
X763202D01*
X746170Y1137920D02*
Y1148080D01*
X756330D01*
Y1137920D01*
X746170D01*
X748202Y1139952D02*
Y1146048D01*
X754298D01*
Y1139952D01*
X748202D01*
X738920Y1138420D02*
Y1148580D01*
X749080D01*
Y1138420D01*
X738920D01*
X740952Y1140452D02*
Y1146548D01*
X747048D01*
Y1140452D01*
X740952D01*
X731420Y1152920D02*
Y1163080D01*
X741580D01*
Y1152920D01*
X731420D01*
X733452Y1154952D02*
Y1161048D01*
X739548D01*
Y1154952D01*
X733452D01*
X738920Y1152920D02*
Y1163080D01*
X749080D01*
Y1152920D01*
X738920D01*
X740952Y1154952D02*
Y1161048D01*
X747048D01*
Y1154952D01*
X740952D01*
X731420Y1145420D02*
Y1155580D01*
X741580D01*
Y1145420D01*
X731420D01*
X733452Y1147452D02*
Y1153548D01*
X739548D01*
Y1147452D01*
X733452D01*
X723920Y1152920D02*
Y1163080D01*
X734080D01*
Y1152920D01*
X723920D01*
X725952Y1154952D02*
Y1161048D01*
X732048D01*
Y1154952D01*
X725952D01*
X738920Y1145420D02*
Y1155580D01*
X749080D01*
Y1145420D01*
X738920D01*
X740952Y1147452D02*
Y1153548D01*
X747048D01*
Y1147452D01*
X740952D01*
X731420Y1137920D02*
Y1148080D01*
X741580D01*
Y1137920D01*
X731420D01*
X733452Y1139952D02*
Y1146048D01*
X739548D01*
Y1139952D01*
X733452D01*
X723920Y1145420D02*
Y1155580D01*
X734080D01*
Y1145420D01*
X723920D01*
X725952Y1147452D02*
Y1153548D01*
X732048D01*
Y1147452D01*
X725952D01*
X723920Y1137920D02*
Y1148080D01*
X734080D01*
Y1137920D01*
X723920D01*
X725952Y1139952D02*
Y1146048D01*
X732048D01*
Y1139952D01*
X725952D01*
X723920Y1130420D02*
Y1140580D01*
X734080D01*
Y1130420D01*
X723920D01*
X725952Y1132452D02*
Y1138548D01*
X732048D01*
Y1132452D01*
X725952D01*
X731420Y1130420D02*
Y1140580D01*
X741580D01*
Y1130420D01*
X731420D01*
X733452Y1132452D02*
Y1138548D01*
X739548D01*
Y1132452D01*
X733452D01*
X738920Y1130420D02*
Y1140580D01*
X749080D01*
Y1130420D01*
X738920D01*
X740952Y1132452D02*
Y1138548D01*
X747048D01*
Y1132452D01*
X740952D01*
X792170Y1133920D02*
Y1144080D01*
X802330D01*
Y1133920D01*
X792170D01*
X794202Y1135952D02*
Y1142048D01*
X800298D01*
Y1135952D01*
X794202D01*
X791420Y1155420D02*
Y1165580D01*
X801580D01*
Y1155420D01*
X791420D01*
X793452Y1157452D02*
Y1163548D01*
X799548D01*
Y1157452D01*
X793452D01*
X792170Y1140920D02*
Y1151080D01*
X802330D01*
Y1140920D01*
X792170D01*
X794202Y1142952D02*
Y1149048D01*
X800298D01*
Y1142952D01*
X794202D01*
X791920Y1148420D02*
Y1158580D01*
X802080D01*
Y1148420D01*
X791920D01*
X793952Y1150452D02*
Y1156548D01*
X800048D01*
Y1150452D01*
X793952D01*
X791420Y1170420D02*
Y1180580D01*
X801580D01*
Y1170420D01*
X791420D01*
X793452Y1172452D02*
Y1178548D01*
X799548D01*
Y1172452D01*
X793452D01*
X791420Y1162920D02*
Y1173080D01*
X801580D01*
Y1162920D01*
X791420D01*
X793452Y1164952D02*
Y1171048D01*
X799548D01*
Y1164952D01*
X793452D01*
X786420Y1182420D02*
Y1192580D01*
X796580D01*
Y1182420D01*
X786420D01*
X788452Y1184452D02*
Y1190548D01*
X794548D01*
Y1184452D01*
X788452D01*
X728920Y1240420D02*
Y1250580D01*
X739080D01*
Y1240420D01*
X728920D01*
X730952Y1242452D02*
Y1248548D01*
X737048D01*
Y1242452D01*
X730952D01*
X728920Y1225420D02*
Y1235580D01*
X739080D01*
Y1225420D01*
X728920D01*
X730952Y1227452D02*
Y1233548D01*
X737048D01*
Y1227452D01*
X730952D01*
X728920Y1217920D02*
Y1228080D01*
X739080D01*
Y1217920D01*
X728920D01*
X730952Y1219952D02*
Y1226048D01*
X737048D01*
Y1219952D01*
X730952D01*
X728920Y1210420D02*
Y1220580D01*
X739080D01*
Y1210420D01*
X728920D01*
X730952Y1212452D02*
Y1218548D01*
X737048D01*
Y1212452D01*
X730952D01*
X728920Y1202920D02*
Y1213080D01*
X739080D01*
Y1202920D01*
X728920D01*
X730952Y1204952D02*
Y1211048D01*
X737048D01*
Y1204952D01*
X730952D01*
X728920Y1232920D02*
Y1243080D01*
X739080D01*
Y1232920D01*
X728920D01*
X730952Y1234952D02*
Y1241048D01*
X737048D01*
Y1234952D01*
X730952D01*
X761420Y1152920D02*
Y1163080D01*
X771580D01*
Y1152920D01*
X761420D01*
X763452Y1154952D02*
Y1161048D01*
X769548D01*
Y1154952D01*
X763452D01*
X761420Y1167920D02*
Y1178080D01*
X771580D01*
Y1167920D01*
X761420D01*
X763452Y1169952D02*
Y1176048D01*
X769548D01*
Y1169952D01*
X763452D01*
X761420Y1160420D02*
Y1170580D01*
X771580D01*
Y1160420D01*
X761420D01*
X763452Y1162452D02*
Y1168548D01*
X769548D01*
Y1162452D01*
X763452D01*
X731420Y1160420D02*
Y1170580D01*
X741580D01*
Y1160420D01*
X731420D01*
X733452Y1162452D02*
Y1168548D01*
X739548D01*
Y1162452D01*
X733452D01*
X738920Y1167920D02*
Y1178080D01*
X749080D01*
Y1167920D01*
X738920D01*
X740952Y1169952D02*
Y1176048D01*
X747048D01*
Y1169952D01*
X740952D01*
X731420Y1167920D02*
Y1178080D01*
X741580D01*
Y1167920D01*
X731420D01*
X733452Y1169952D02*
Y1176048D01*
X739548D01*
Y1169952D01*
X733452D01*
X746420Y1167920D02*
Y1178080D01*
X756580D01*
Y1167920D01*
X746420D01*
X748452Y1169952D02*
Y1176048D01*
X754548D01*
Y1169952D01*
X748452D01*
X753920Y1160420D02*
Y1170580D01*
X764080D01*
Y1160420D01*
X753920D01*
X755952Y1162452D02*
Y1168548D01*
X762048D01*
Y1162452D01*
X755952D01*
X746420Y1152920D02*
Y1163080D01*
X756580D01*
Y1152920D01*
X746420D01*
X748452Y1154952D02*
Y1161048D01*
X754548D01*
Y1154952D01*
X748452D01*
X753920Y1167920D02*
Y1178080D01*
X764080D01*
Y1167920D01*
X753920D01*
X755952Y1169952D02*
Y1176048D01*
X762048D01*
Y1169952D01*
X755952D01*
X746420Y1160420D02*
Y1170580D01*
X756580D01*
Y1160420D01*
X746420D01*
X748452Y1162452D02*
Y1168548D01*
X754548D01*
Y1162452D01*
X748452D01*
X738920Y1160420D02*
Y1170580D01*
X749080D01*
Y1160420D01*
X738920D01*
X740952Y1162452D02*
Y1168548D01*
X747048D01*
Y1162452D01*
X740952D01*
X708920Y1265420D02*
Y1275580D01*
X719080D01*
Y1265420D01*
X708920D01*
X710952Y1267452D02*
Y1273548D01*
X717048D01*
Y1267452D01*
X710952D01*
X701420Y1272920D02*
Y1283080D01*
X711580D01*
Y1272920D01*
X701420D01*
X703452Y1274952D02*
Y1281048D01*
X709548D01*
Y1274952D01*
X703452D01*
X701420Y1280420D02*
Y1290580D01*
X711580D01*
Y1280420D01*
X701420D01*
X703452Y1282452D02*
Y1288548D01*
X709548D01*
Y1282452D01*
X703452D01*
X708920Y1302920D02*
Y1313080D01*
X719080D01*
Y1302920D01*
X708920D01*
X710952Y1304952D02*
Y1311048D01*
X717048D01*
Y1304952D01*
X710952D01*
X701420Y1302920D02*
Y1313080D01*
X711580D01*
Y1302920D01*
X701420D01*
X703452Y1304952D02*
Y1311048D01*
X709548D01*
Y1304952D01*
X703452D01*
X701420Y1265420D02*
Y1275580D01*
X711580D01*
Y1265420D01*
X701420D01*
X703452Y1267452D02*
Y1273548D01*
X709548D01*
Y1267452D01*
X703452D01*
X783920Y1292920D02*
Y1303080D01*
X794080D01*
Y1292920D01*
X783920D01*
X785952Y1294952D02*
Y1301048D01*
X792048D01*
Y1294952D01*
X785952D01*
X783920Y1300420D02*
Y1310580D01*
X794080D01*
Y1300420D01*
X783920D01*
X785952Y1302452D02*
Y1308548D01*
X792048D01*
Y1302452D01*
X785952D01*
X791420Y1292920D02*
Y1303080D01*
X801580D01*
Y1292920D01*
X791420D01*
X793452Y1294952D02*
Y1301048D01*
X799548D01*
Y1294952D01*
X793452D01*
X791420Y1300420D02*
Y1310580D01*
X801580D01*
Y1300420D01*
X791420D01*
X793452Y1302452D02*
Y1308548D01*
X799548D01*
Y1302452D01*
X793452D01*
X813920Y1270420D02*
Y1280580D01*
X824080D01*
Y1270420D01*
X813920D01*
X815952Y1272452D02*
Y1278548D01*
X822048D01*
Y1272452D01*
X815952D01*
X806420Y1270420D02*
Y1280580D01*
X816580D01*
Y1270420D01*
X806420D01*
X808452Y1272452D02*
Y1278548D01*
X814548D01*
Y1272452D01*
X808452D01*
X798920Y1270420D02*
Y1280580D01*
X809080D01*
Y1270420D01*
X798920D01*
X800952Y1272452D02*
Y1278548D01*
X807048D01*
Y1272452D01*
X800952D01*
X798920Y1277920D02*
Y1288080D01*
X809080D01*
Y1277920D01*
X798920D01*
X800952Y1279952D02*
Y1286048D01*
X807048D01*
Y1279952D01*
X800952D01*
X813920Y1277920D02*
Y1288080D01*
X824080D01*
Y1277920D01*
X813920D01*
X815952Y1279952D02*
Y1286048D01*
X822048D01*
Y1279952D01*
X815952D01*
X806420Y1277920D02*
Y1288080D01*
X816580D01*
Y1277920D01*
X806420D01*
X808452Y1279952D02*
Y1286048D01*
X814548D01*
Y1279952D01*
X808452D01*
X791420Y1270420D02*
Y1280580D01*
X801580D01*
Y1270420D01*
X791420D01*
X793452Y1272452D02*
Y1278548D01*
X799548D01*
Y1272452D01*
X793452D01*
X791420Y1307920D02*
Y1318080D01*
X801580D01*
Y1307920D01*
X791420D01*
X793452Y1309952D02*
Y1316048D01*
X799548D01*
Y1309952D01*
X793452D01*
X783920Y1270420D02*
Y1280580D01*
X794080D01*
Y1270420D01*
X783920D01*
X785952Y1272452D02*
Y1278548D01*
X792048D01*
Y1272452D01*
X785952D01*
X776420Y1270420D02*
Y1280580D01*
X786580D01*
Y1270420D01*
X776420D01*
X778452Y1272452D02*
Y1278548D01*
X784548D01*
Y1272452D01*
X778452D01*
X776420Y1277920D02*
Y1288080D01*
X786580D01*
Y1277920D01*
X776420D01*
X778452Y1279952D02*
Y1286048D01*
X784548D01*
Y1279952D01*
X778452D01*
X776420Y1285420D02*
Y1295580D01*
X786580D01*
Y1285420D01*
X776420D01*
X778452Y1287452D02*
Y1293548D01*
X784548D01*
Y1287452D01*
X778452D01*
X776420Y1292920D02*
Y1303080D01*
X786580D01*
Y1292920D01*
X776420D01*
X778452Y1294952D02*
Y1301048D01*
X784548D01*
Y1294952D01*
X778452D01*
X776420Y1300420D02*
Y1310580D01*
X786580D01*
Y1300420D01*
X776420D01*
X778452Y1302452D02*
Y1308548D01*
X784548D01*
Y1302452D01*
X778452D01*
X791420Y1277920D02*
Y1288080D01*
X801580D01*
Y1277920D01*
X791420D01*
X793452Y1279952D02*
Y1286048D01*
X799548D01*
Y1279952D01*
X793452D01*
X783920Y1277920D02*
Y1288080D01*
X794080D01*
Y1277920D01*
X783920D01*
X785952Y1279952D02*
Y1286048D01*
X792048D01*
Y1279952D01*
X785952D01*
X783920Y1285420D02*
Y1295580D01*
X794080D01*
Y1285420D01*
X783920D01*
X785952Y1287452D02*
Y1293548D01*
X792048D01*
Y1287452D01*
X785952D01*
X791420Y1285420D02*
Y1295580D01*
X801580D01*
Y1285420D01*
X791420D01*
X793452Y1287452D02*
Y1293548D01*
X799548D01*
Y1287452D01*
X793452D01*
X783920Y1307920D02*
Y1318080D01*
X794080D01*
Y1307920D01*
X783920D01*
X785952Y1309952D02*
Y1316048D01*
X792048D01*
Y1309952D01*
X785952D01*
X776420Y1307920D02*
Y1318080D01*
X786580D01*
Y1307920D01*
X776420D01*
X778452Y1309952D02*
Y1316048D01*
X784548D01*
Y1309952D01*
X778452D01*
X786420Y1257920D02*
Y1268080D01*
X796580D01*
Y1257920D01*
X786420D01*
X788452Y1259952D02*
Y1266048D01*
X794548D01*
Y1259952D01*
X788452D01*
X813920Y1285420D02*
Y1295580D01*
X824080D01*
Y1285420D01*
X813920D01*
X815952Y1287452D02*
Y1293548D01*
X822048D01*
Y1287452D01*
X815952D01*
X806420Y1285420D02*
Y1295580D01*
X816580D01*
Y1285420D01*
X806420D01*
X808452Y1287452D02*
Y1293548D01*
X814548D01*
Y1287452D01*
X808452D01*
X806420Y1292920D02*
Y1303080D01*
X816580D01*
Y1292920D01*
X806420D01*
X808452Y1294952D02*
Y1301048D01*
X814548D01*
Y1294952D01*
X808452D01*
X798920Y1292920D02*
Y1303080D01*
X809080D01*
Y1292920D01*
X798920D01*
X800952Y1294952D02*
Y1301048D01*
X807048D01*
Y1294952D01*
X800952D01*
X798920Y1300420D02*
Y1310580D01*
X809080D01*
Y1300420D01*
X798920D01*
X800952Y1302452D02*
Y1308548D01*
X807048D01*
Y1302452D01*
X800952D01*
X813920Y1300420D02*
Y1310580D01*
X824080D01*
Y1300420D01*
X813920D01*
X815952Y1302452D02*
Y1308548D01*
X822048D01*
Y1302452D01*
X815952D01*
X813920Y1307920D02*
Y1318080D01*
X824080D01*
Y1307920D01*
X813920D01*
X815952Y1309952D02*
Y1316048D01*
X822048D01*
Y1309952D01*
X815952D01*
X806420Y1300420D02*
Y1310580D01*
X816580D01*
Y1300420D01*
X806420D01*
X808452Y1302452D02*
Y1308548D01*
X814548D01*
Y1302452D01*
X808452D01*
X806420Y1307920D02*
Y1318080D01*
X816580D01*
Y1307920D01*
X806420D01*
X808452Y1309952D02*
Y1316048D01*
X814548D01*
Y1309952D01*
X808452D01*
X813920Y1292920D02*
Y1303080D01*
X824080D01*
Y1292920D01*
X813920D01*
X815952Y1294952D02*
Y1301048D01*
X822048D01*
Y1294952D01*
X815952D01*
X798920Y1307920D02*
Y1318080D01*
X809080D01*
Y1307920D01*
X798920D01*
X800952Y1309952D02*
Y1316048D01*
X807048D01*
Y1309952D01*
X800952D01*
X798920Y1285420D02*
Y1295580D01*
X809080D01*
Y1285420D01*
X798920D01*
X800952Y1287452D02*
Y1293548D01*
X807048D01*
Y1287452D01*
X800952D01*
X716420Y1310420D02*
Y1320580D01*
X726580D01*
Y1310420D01*
X716420D01*
X718452Y1312452D02*
Y1318548D01*
X724548D01*
Y1312452D01*
X718452D01*
X716420Y1302920D02*
Y1313080D01*
X726580D01*
Y1302920D01*
X716420D01*
X718452Y1304952D02*
Y1311048D01*
X724548D01*
Y1304952D01*
X718452D01*
X723670Y1310420D02*
Y1320580D01*
X733830D01*
Y1310420D01*
X723670D01*
X725702Y1312452D02*
Y1318548D01*
X731798D01*
Y1312452D01*
X725702D01*
X701420Y1310420D02*
Y1320580D01*
X711580D01*
Y1310420D01*
X701420D01*
X703452Y1312452D02*
Y1318548D01*
X709548D01*
Y1312452D01*
X703452D01*
X708920Y1310420D02*
Y1320580D01*
X719080D01*
Y1310420D01*
X708920D01*
X710952Y1312452D02*
Y1318548D01*
X717048D01*
Y1312452D01*
X710952D01*
X723920Y1302920D02*
Y1313080D01*
X734080D01*
Y1302920D01*
X723920D01*
X725952Y1304952D02*
Y1311048D01*
X732048D01*
Y1304952D01*
X725952D01*
X799170Y1140920D02*
Y1151080D01*
X809330D01*
Y1140920D01*
X799170D01*
X801202Y1142952D02*
Y1149048D01*
X807298D01*
Y1142952D01*
X801202D01*
X798920Y1162920D02*
Y1173080D01*
X809080D01*
Y1162920D01*
X798920D01*
X800952Y1164952D02*
Y1171048D01*
X807048D01*
Y1164952D01*
X800952D01*
X798920Y1155420D02*
Y1165580D01*
X809080D01*
Y1155420D01*
X798920D01*
X800952Y1157452D02*
Y1163548D01*
X807048D01*
Y1157452D01*
X800952D01*
X806420Y1155420D02*
Y1165580D01*
X816580D01*
Y1155420D01*
X806420D01*
X808452Y1157452D02*
Y1163548D01*
X814548D01*
Y1157452D01*
X808452D01*
X806170Y1140920D02*
Y1151080D01*
X816330D01*
Y1140920D01*
X806170D01*
X808202Y1142952D02*
Y1149048D01*
X814298D01*
Y1142952D01*
X808202D01*
X806170Y1133920D02*
Y1144080D01*
X816330D01*
Y1133920D01*
X806170D01*
X808202Y1135952D02*
Y1142048D01*
X814298D01*
Y1135952D01*
X808202D01*
X799170Y1133920D02*
Y1144080D01*
X809330D01*
Y1133920D01*
X799170D01*
X801202Y1135952D02*
Y1142048D01*
X807298D01*
Y1135952D01*
X801202D01*
X805920Y1148420D02*
Y1158580D01*
X816080D01*
Y1148420D01*
X805920D01*
X807952Y1150452D02*
Y1156548D01*
X814048D01*
Y1150452D01*
X807952D01*
X798920Y1148420D02*
Y1158580D01*
X809080D01*
Y1148420D01*
X798920D01*
X800952Y1150452D02*
Y1156548D01*
X807048D01*
Y1150452D01*
X800952D01*
X798920Y1170420D02*
Y1180580D01*
X809080D01*
Y1170420D01*
X798920D01*
X800952Y1172452D02*
Y1178548D01*
X807048D01*
Y1172452D01*
X800952D01*
X806420Y1170420D02*
Y1180580D01*
X816580D01*
Y1170420D01*
X806420D01*
X808452Y1172452D02*
Y1178548D01*
X814548D01*
Y1172452D01*
X808452D01*
X813920Y1170420D02*
Y1180580D01*
X824080D01*
Y1170420D01*
X813920D01*
X815952Y1172452D02*
Y1178548D01*
X822048D01*
Y1172452D01*
X815952D01*
X806420Y1162920D02*
Y1173080D01*
X816580D01*
Y1162920D01*
X806420D01*
X808452Y1164952D02*
Y1171048D01*
X814548D01*
Y1164952D01*
X808452D01*
X743920Y1240420D02*
Y1250580D01*
X754080D01*
Y1240420D01*
X743920D01*
X745952Y1242452D02*
Y1248548D01*
X752048D01*
Y1242452D01*
X745952D01*
X736420Y1240420D02*
Y1250580D01*
X746580D01*
Y1240420D01*
X736420D01*
X738452Y1242452D02*
Y1248548D01*
X744548D01*
Y1242452D01*
X738452D01*
X1494920Y1149170D02*
Y1159330D01*
X1505080D01*
Y1149170D01*
X1494920D01*
X1496952Y1151202D02*
Y1157298D01*
X1503048D01*
Y1151202D01*
X1496952D01*
X1479920Y1126670D02*
Y1136830D01*
X1490080D01*
Y1126670D01*
X1479920D01*
X1481952Y1128702D02*
Y1134798D01*
X1488048D01*
Y1128702D01*
X1481952D01*
X1494920Y1126670D02*
Y1136830D01*
X1505080D01*
Y1126670D01*
X1494920D01*
X1496952Y1128702D02*
Y1134798D01*
X1503048D01*
Y1128702D01*
X1496952D01*
X1494920Y1134170D02*
Y1144330D01*
X1505080D01*
Y1134170D01*
X1494920D01*
X1496952Y1136202D02*
Y1142298D01*
X1503048D01*
Y1136202D01*
X1496952D01*
X1404920Y1166670D02*
Y1176830D01*
X1415080D01*
Y1166670D01*
X1404920D01*
X1406952Y1168702D02*
Y1174798D01*
X1413048D01*
Y1168702D01*
X1406952D01*
X1412420Y1166670D02*
Y1176830D01*
X1422580D01*
Y1166670D01*
X1412420D01*
X1414452Y1168702D02*
Y1174798D01*
X1420548D01*
Y1168702D01*
X1414452D01*
X1467420Y1219170D02*
Y1229330D01*
X1477580D01*
Y1219170D01*
X1467420D01*
X1469452Y1221202D02*
Y1227298D01*
X1475548D01*
Y1221202D01*
X1469452D01*
X1459920Y1219170D02*
Y1229330D01*
X1470080D01*
Y1219170D01*
X1459920D01*
X1461952Y1221202D02*
Y1227298D01*
X1468048D01*
Y1221202D01*
X1461952D01*
X1452420Y1219170D02*
Y1229330D01*
X1462580D01*
Y1219170D01*
X1452420D01*
X1454452Y1221202D02*
Y1227298D01*
X1460548D01*
Y1221202D01*
X1454452D01*
X1459920Y1211670D02*
Y1221830D01*
X1470080D01*
Y1211670D01*
X1459920D01*
X1461952Y1213702D02*
Y1219798D01*
X1468048D01*
Y1213702D01*
X1461952D01*
X1452420Y1211670D02*
Y1221830D01*
X1462580D01*
Y1211670D01*
X1452420D01*
X1454452Y1213702D02*
Y1219798D01*
X1460548D01*
Y1213702D01*
X1454452D01*
X1444920Y1219170D02*
Y1229330D01*
X1455080D01*
Y1219170D01*
X1444920D01*
X1446952Y1221202D02*
Y1227298D01*
X1453048D01*
Y1221202D01*
X1446952D01*
X1467420Y1211670D02*
Y1221830D01*
X1477580D01*
Y1211670D01*
X1467420D01*
X1469452Y1213702D02*
Y1219798D01*
X1475548D01*
Y1213702D01*
X1469452D01*
X1444920Y1211670D02*
Y1221830D01*
X1455080D01*
Y1211670D01*
X1444920D01*
X1446952Y1213702D02*
Y1219798D01*
X1453048D01*
Y1213702D01*
X1446952D01*
X1452420Y1234170D02*
Y1244330D01*
X1462580D01*
Y1234170D01*
X1452420D01*
X1454452Y1236202D02*
Y1242298D01*
X1460548D01*
Y1236202D01*
X1454452D01*
X1467420Y1226670D02*
Y1236830D01*
X1477580D01*
Y1226670D01*
X1467420D01*
X1469452Y1228702D02*
Y1234798D01*
X1475548D01*
Y1228702D01*
X1469452D01*
X1459920Y1234170D02*
Y1244330D01*
X1470080D01*
Y1234170D01*
X1459920D01*
X1461952Y1236202D02*
Y1242298D01*
X1468048D01*
Y1236202D01*
X1461952D01*
X1444920Y1234170D02*
Y1244330D01*
X1455080D01*
Y1234170D01*
X1444920D01*
X1446952Y1236202D02*
Y1242298D01*
X1453048D01*
Y1236202D01*
X1446952D01*
X1459920Y1226670D02*
Y1236830D01*
X1470080D01*
Y1226670D01*
X1459920D01*
X1461952Y1228702D02*
Y1234798D01*
X1468048D01*
Y1228702D01*
X1461952D01*
X1452420Y1226670D02*
Y1236830D01*
X1462580D01*
Y1226670D01*
X1452420D01*
X1454452Y1228702D02*
Y1234798D01*
X1460548D01*
Y1228702D01*
X1454452D01*
X1444920Y1226670D02*
Y1236830D01*
X1455080D01*
Y1226670D01*
X1444920D01*
X1446952Y1228702D02*
Y1234798D01*
X1453048D01*
Y1228702D01*
X1446952D01*
X1412420Y1159170D02*
Y1169330D01*
X1422580D01*
Y1159170D01*
X1412420D01*
X1414452Y1161202D02*
Y1167298D01*
X1420548D01*
Y1161202D01*
X1414452D01*
X1444920Y1204170D02*
Y1214330D01*
X1455080D01*
Y1204170D01*
X1444920D01*
X1446952Y1206202D02*
Y1212298D01*
X1453048D01*
Y1206202D01*
X1446952D01*
X1452420Y1204170D02*
Y1214330D01*
X1462580D01*
Y1204170D01*
X1452420D01*
X1454452Y1206202D02*
Y1212298D01*
X1460548D01*
Y1206202D01*
X1454452D01*
X1459920Y1204170D02*
Y1214330D01*
X1470080D01*
Y1204170D01*
X1459920D01*
X1461952Y1206202D02*
Y1212298D01*
X1468048D01*
Y1206202D01*
X1461952D01*
X1459920Y1196670D02*
Y1206830D01*
X1470080D01*
Y1196670D01*
X1459920D01*
X1461952Y1198702D02*
Y1204798D01*
X1468048D01*
Y1198702D01*
X1461952D01*
X1452420Y1196670D02*
Y1206830D01*
X1462580D01*
Y1196670D01*
X1452420D01*
X1454452Y1198702D02*
Y1204798D01*
X1460548D01*
Y1198702D01*
X1454452D01*
X1467420Y1204170D02*
Y1214330D01*
X1477580D01*
Y1204170D01*
X1467420D01*
X1469452Y1206202D02*
Y1212298D01*
X1475548D01*
Y1206202D01*
X1469452D01*
X1444920Y1196670D02*
Y1206830D01*
X1455080D01*
Y1196670D01*
X1444920D01*
X1446952Y1198702D02*
Y1204798D01*
X1453048D01*
Y1198702D01*
X1446952D01*
X753170Y1129920D02*
Y1140080D01*
X763330D01*
Y1129920D01*
X753170D01*
X755202Y1131952D02*
Y1138048D01*
X761298D01*
Y1131952D01*
X755202D01*
X814170Y1133920D02*
Y1144080D01*
X824330D01*
Y1133920D01*
X814170D01*
X816202Y1135952D02*
Y1142048D01*
X822298D01*
Y1135952D01*
X816202D01*
X746170Y1129920D02*
Y1140080D01*
X756330D01*
Y1129920D01*
X746170D01*
X748202Y1131952D02*
Y1138048D01*
X754298D01*
Y1131952D01*
X748202D01*
X761170Y1129920D02*
Y1140080D01*
X771330D01*
Y1129920D01*
X761170D01*
X763202Y1131952D02*
Y1138048D01*
X769298D01*
Y1131952D01*
X763202D01*
X693920Y1137920D02*
Y1148080D01*
X704080D01*
Y1137920D01*
X693920D01*
X695952Y1139952D02*
Y1146048D01*
X702048D01*
Y1139952D01*
X695952D01*
X693920Y1130420D02*
Y1140580D01*
X704080D01*
Y1130420D01*
X693920D01*
X695952Y1132452D02*
Y1138548D01*
X702048D01*
Y1132452D01*
X695952D01*
X693920Y1145420D02*
Y1155580D01*
X704080D01*
Y1145420D01*
X693920D01*
X695952Y1147452D02*
Y1153548D01*
X702048D01*
Y1147452D01*
X695952D01*
X693920Y1160420D02*
Y1170580D01*
X704080D01*
Y1160420D01*
X693920D01*
X695952Y1162452D02*
Y1168548D01*
X702048D01*
Y1162452D01*
X695952D01*
X693920Y1152920D02*
Y1163080D01*
X704080D01*
Y1152920D01*
X693920D01*
X695952Y1154952D02*
Y1161048D01*
X702048D01*
Y1154952D01*
X695952D01*
X698920Y1225420D02*
Y1235580D01*
X709080D01*
Y1225420D01*
X698920D01*
X700952Y1227452D02*
Y1233548D01*
X707048D01*
Y1227452D01*
X700952D01*
X698920Y1217920D02*
Y1228080D01*
X709080D01*
Y1217920D01*
X698920D01*
X700952Y1219952D02*
Y1226048D01*
X707048D01*
Y1219952D01*
X700952D01*
X693920Y1175420D02*
Y1185580D01*
X704080D01*
Y1175420D01*
X693920D01*
X695952Y1177452D02*
Y1183548D01*
X702048D01*
Y1177452D01*
X695952D01*
X693920Y1167920D02*
Y1178080D01*
X704080D01*
Y1167920D01*
X693920D01*
X695952Y1169952D02*
Y1176048D01*
X702048D01*
Y1169952D01*
X695952D01*
X693920Y1302920D02*
Y1313080D01*
X704080D01*
Y1302920D01*
X693920D01*
X695952Y1304952D02*
Y1311048D01*
X702048D01*
Y1304952D01*
X695952D01*
X693920Y1295420D02*
Y1305580D01*
X704080D01*
Y1295420D01*
X693920D01*
X695952Y1297452D02*
Y1303548D01*
X702048D01*
Y1297452D01*
X695952D01*
X693920Y1272920D02*
Y1283080D01*
X704080D01*
Y1272920D01*
X693920D01*
X695952Y1274952D02*
Y1281048D01*
X702048D01*
Y1274952D01*
X695952D01*
X693920Y1265420D02*
Y1275580D01*
X704080D01*
Y1265420D01*
X693920D01*
X695952Y1267452D02*
Y1273548D01*
X702048D01*
Y1267452D01*
X695952D01*
X693920Y1310420D02*
Y1320580D01*
X704080D01*
Y1310420D01*
X693920D01*
X695952Y1312452D02*
Y1318548D01*
X702048D01*
Y1312452D01*
X695952D01*
X693920Y1287920D02*
Y1298080D01*
X704080D01*
Y1287920D01*
X693920D01*
X695952Y1289952D02*
Y1296048D01*
X702048D01*
Y1289952D01*
X695952D01*
X693920Y1280420D02*
Y1290580D01*
X704080D01*
Y1280420D01*
X693920D01*
X695952Y1282452D02*
Y1288548D01*
X702048D01*
Y1282452D01*
X695952D01*
X708920Y1280420D02*
Y1290580D01*
X719080D01*
Y1280420D01*
X708920D01*
X710952Y1282452D02*
Y1288548D01*
X717048D01*
Y1282452D01*
X710952D01*
X716420Y1272920D02*
Y1283080D01*
X726580D01*
Y1272920D01*
X716420D01*
X718452Y1274952D02*
Y1281048D01*
X724548D01*
Y1274952D01*
X718452D01*
X723920Y1280420D02*
Y1290580D01*
X734080D01*
Y1280420D01*
X723920D01*
X725952Y1282452D02*
Y1288548D01*
X732048D01*
Y1282452D01*
X725952D01*
X716420Y1280420D02*
Y1290580D01*
X726580D01*
Y1280420D01*
X716420D01*
X718452Y1282452D02*
Y1288548D01*
X724548D01*
Y1282452D01*
X718452D01*
X723920Y1295420D02*
Y1305580D01*
X734080D01*
Y1295420D01*
X723920D01*
X725952Y1297452D02*
Y1303548D01*
X732048D01*
Y1297452D01*
X725952D01*
X716420Y1295420D02*
Y1305580D01*
X726580D01*
Y1295420D01*
X716420D01*
X718452Y1297452D02*
Y1303548D01*
X724548D01*
Y1297452D01*
X718452D01*
X701420Y1295420D02*
Y1305580D01*
X711580D01*
Y1295420D01*
X701420D01*
X703452Y1297452D02*
Y1303548D01*
X709548D01*
Y1297452D01*
X703452D01*
X708920Y1295420D02*
Y1305580D01*
X719080D01*
Y1295420D01*
X708920D01*
X710952Y1297452D02*
Y1303548D01*
X717048D01*
Y1297452D01*
X710952D01*
X701420Y1287920D02*
Y1298080D01*
X711580D01*
Y1287920D01*
X701420D01*
X703452Y1289952D02*
Y1296048D01*
X709548D01*
Y1289952D01*
X703452D01*
X716420Y1287920D02*
Y1298080D01*
X726580D01*
Y1287920D01*
X716420D01*
X718452Y1289952D02*
Y1296048D01*
X724548D01*
Y1289952D01*
X718452D01*
X708920Y1287920D02*
Y1298080D01*
X719080D01*
Y1287920D01*
X708920D01*
X710952Y1289952D02*
Y1296048D01*
X717048D01*
Y1289952D01*
X710952D01*
X723920Y1287920D02*
Y1298080D01*
X734080D01*
Y1287920D01*
X723920D01*
X725952Y1289952D02*
Y1296048D01*
X732048D01*
Y1289952D01*
X725952D01*
X723920Y1272920D02*
Y1283080D01*
X734080D01*
Y1272920D01*
X723920D01*
X725952Y1274952D02*
Y1281048D01*
X732048D01*
Y1274952D01*
X725952D01*
X708920Y1272920D02*
Y1283080D01*
X719080D01*
Y1272920D01*
X708920D01*
X710952Y1274952D02*
Y1281048D01*
X717048D01*
Y1274952D01*
X710952D01*
X716420Y1265420D02*
Y1275580D01*
X726580D01*
Y1265420D01*
X716420D01*
X718452Y1267452D02*
Y1273548D01*
X724548D01*
Y1267452D01*
X718452D01*
X1494920Y1276670D02*
Y1286830D01*
X1505080D01*
Y1276670D01*
X1494920D01*
X1496952Y1278702D02*
Y1284798D01*
X1503048D01*
Y1278702D01*
X1496952D01*
X1479920Y1276670D02*
Y1286830D01*
X1490080D01*
Y1276670D01*
X1479920D01*
X1481952Y1278702D02*
Y1284798D01*
X1488048D01*
Y1278702D01*
X1481952D01*
X1457420Y1291670D02*
Y1301830D01*
X1467580D01*
Y1291670D01*
X1457420D01*
X1459452Y1293702D02*
Y1299798D01*
X1465548D01*
Y1293702D01*
X1459452D01*
X1464920Y1299170D02*
Y1309330D01*
X1475080D01*
Y1299170D01*
X1464920D01*
X1466952Y1301202D02*
Y1307298D01*
X1473048D01*
Y1301202D01*
X1466952D01*
X1464920Y1291670D02*
Y1301830D01*
X1475080D01*
Y1291670D01*
X1464920D01*
X1466952Y1293702D02*
Y1299798D01*
X1473048D01*
Y1293702D01*
X1466952D01*
X1457420Y1306670D02*
Y1316830D01*
X1467580D01*
Y1306670D01*
X1457420D01*
X1459452Y1308702D02*
Y1314798D01*
X1465548D01*
Y1308702D01*
X1459452D01*
X1472420Y1299170D02*
Y1309330D01*
X1482580D01*
Y1299170D01*
X1472420D01*
X1474452Y1301202D02*
Y1307298D01*
X1480548D01*
Y1301202D01*
X1474452D01*
X1472420Y1306670D02*
Y1316830D01*
X1482580D01*
Y1306670D01*
X1472420D01*
X1474452Y1308702D02*
Y1314798D01*
X1480548D01*
Y1308702D01*
X1474452D01*
X1472420Y1291670D02*
Y1301830D01*
X1482580D01*
Y1291670D01*
X1472420D01*
X1474452Y1293702D02*
Y1299798D01*
X1480548D01*
Y1293702D01*
X1474452D01*
X1464920Y1306670D02*
Y1316830D01*
X1475080D01*
Y1306670D01*
X1464920D01*
X1466952Y1308702D02*
Y1314798D01*
X1473048D01*
Y1308702D01*
X1466952D01*
X1457420Y1299170D02*
Y1309330D01*
X1467580D01*
Y1299170D01*
X1457420D01*
X1459452Y1301202D02*
Y1307298D01*
X1465548D01*
Y1301202D01*
X1459452D01*
X1464920Y1269170D02*
Y1279330D01*
X1475080D01*
Y1269170D01*
X1464920D01*
X1466952Y1271202D02*
Y1277298D01*
X1473048D01*
Y1271202D01*
X1466952D01*
X1457420Y1284170D02*
Y1294330D01*
X1467580D01*
Y1284170D01*
X1457420D01*
X1459452Y1286202D02*
Y1292298D01*
X1465548D01*
Y1286202D01*
X1459452D01*
X1472420Y1261670D02*
Y1271830D01*
X1482580D01*
Y1261670D01*
X1472420D01*
X1474452Y1263702D02*
Y1269798D01*
X1480548D01*
Y1263702D01*
X1474452D01*
X1457420Y1269170D02*
Y1279330D01*
X1467580D01*
Y1269170D01*
X1457420D01*
X1459452Y1271202D02*
Y1277298D01*
X1465548D01*
Y1271202D01*
X1459452D01*
X1472420Y1276670D02*
Y1286830D01*
X1482580D01*
Y1276670D01*
X1472420D01*
X1474452Y1278702D02*
Y1284798D01*
X1480548D01*
Y1278702D01*
X1474452D01*
X1472420Y1284170D02*
Y1294330D01*
X1482580D01*
Y1284170D01*
X1472420D01*
X1474452Y1286202D02*
Y1292298D01*
X1480548D01*
Y1286202D01*
X1474452D01*
X1472420Y1269170D02*
Y1279330D01*
X1482580D01*
Y1269170D01*
X1472420D01*
X1474452Y1271202D02*
Y1277298D01*
X1480548D01*
Y1271202D01*
X1474452D01*
X1464920Y1284170D02*
Y1294330D01*
X1475080D01*
Y1284170D01*
X1464920D01*
X1466952Y1286202D02*
Y1292298D01*
X1473048D01*
Y1286202D01*
X1466952D01*
X1464920Y1276670D02*
Y1286830D01*
X1475080D01*
Y1276670D01*
X1464920D01*
X1466952Y1278702D02*
Y1284798D01*
X1473048D01*
Y1278702D01*
X1466952D01*
X1457420Y1276670D02*
Y1286830D01*
X1467580D01*
Y1276670D01*
X1457420D01*
X1459452Y1278702D02*
Y1284798D01*
X1465548D01*
Y1278702D01*
X1459452D01*
X1487420Y1284170D02*
Y1294330D01*
X1497580D01*
Y1284170D01*
X1487420D01*
X1489452Y1286202D02*
Y1292298D01*
X1495548D01*
Y1286202D01*
X1489452D01*
X1494920Y1299170D02*
Y1309330D01*
X1505080D01*
Y1299170D01*
X1494920D01*
X1496952Y1301202D02*
Y1307298D01*
X1503048D01*
Y1301202D01*
X1496952D01*
X1487420Y1291670D02*
Y1301830D01*
X1497580D01*
Y1291670D01*
X1487420D01*
X1489452Y1293702D02*
Y1299798D01*
X1495548D01*
Y1293702D01*
X1489452D01*
X1479920Y1291670D02*
Y1301830D01*
X1490080D01*
Y1291670D01*
X1479920D01*
X1481952Y1293702D02*
Y1299798D01*
X1488048D01*
Y1293702D01*
X1481952D01*
X1487420Y1306670D02*
Y1316830D01*
X1497580D01*
Y1306670D01*
X1487420D01*
X1489452Y1308702D02*
Y1314798D01*
X1495548D01*
Y1308702D01*
X1489452D01*
X1479920Y1306670D02*
Y1316830D01*
X1490080D01*
Y1306670D01*
X1479920D01*
X1481952Y1308702D02*
Y1314798D01*
X1488048D01*
Y1308702D01*
X1481952D01*
X1487420Y1299170D02*
Y1309330D01*
X1497580D01*
Y1299170D01*
X1487420D01*
X1489452Y1301202D02*
Y1307298D01*
X1495548D01*
Y1301202D01*
X1489452D01*
X1494920Y1306670D02*
Y1316830D01*
X1505080D01*
Y1306670D01*
X1494920D01*
X1496952Y1308702D02*
Y1314798D01*
X1503048D01*
Y1308702D01*
X1496952D01*
X1479920Y1284170D02*
Y1294330D01*
X1490080D01*
Y1284170D01*
X1479920D01*
X1481952Y1286202D02*
Y1292298D01*
X1488048D01*
Y1286202D01*
X1481952D01*
X1479920Y1299170D02*
Y1309330D01*
X1490080D01*
Y1299170D01*
X1479920D01*
X1481952Y1301202D02*
Y1307298D01*
X1488048D01*
Y1301202D01*
X1481952D01*
X1494920Y1291670D02*
Y1301830D01*
X1505080D01*
Y1291670D01*
X1494920D01*
X1496952Y1293702D02*
Y1299798D01*
X1503048D01*
Y1293702D01*
X1496952D01*
X1494920Y1284170D02*
Y1294330D01*
X1505080D01*
Y1284170D01*
X1494920D01*
X1496952Y1286202D02*
Y1292298D01*
X1503048D01*
Y1286202D01*
X1496952D01*
X1472420Y1156670D02*
Y1166830D01*
X1482580D01*
Y1156670D01*
X1472420D01*
X1474452Y1158702D02*
Y1164798D01*
X1480548D01*
Y1158702D01*
X1474452D01*
X1464920Y1149170D02*
Y1159330D01*
X1475080D01*
Y1149170D01*
X1464920D01*
X1466952Y1151202D02*
Y1157298D01*
X1473048D01*
Y1151202D01*
X1466952D01*
X1472420Y1171670D02*
Y1181830D01*
X1482580D01*
Y1171670D01*
X1472420D01*
X1474452Y1173702D02*
Y1179798D01*
X1480548D01*
Y1173702D01*
X1474452D01*
X1464920Y1141670D02*
Y1151830D01*
X1475080D01*
Y1141670D01*
X1464920D01*
X1466952Y1143702D02*
Y1149798D01*
X1473048D01*
Y1143702D01*
X1466952D01*
X1464920Y1164170D02*
Y1174330D01*
X1475080D01*
Y1164170D01*
X1464920D01*
X1466952Y1166202D02*
Y1172298D01*
X1473048D01*
Y1166202D01*
X1466952D01*
X1472420Y1149170D02*
Y1159330D01*
X1482580D01*
Y1149170D01*
X1472420D01*
X1474452Y1151202D02*
Y1157298D01*
X1480548D01*
Y1151202D01*
X1474452D01*
X1464920Y1156670D02*
Y1166830D01*
X1475080D01*
Y1156670D01*
X1464920D01*
X1466952Y1158702D02*
Y1164798D01*
X1473048D01*
Y1158702D01*
X1466952D01*
X1472420Y1141670D02*
Y1151830D01*
X1482580D01*
Y1141670D01*
X1472420D01*
X1474452Y1143702D02*
Y1149798D01*
X1480548D01*
Y1143702D01*
X1474452D01*
X1472420Y1164170D02*
Y1174330D01*
X1482580D01*
Y1164170D01*
X1472420D01*
X1474452Y1166202D02*
Y1172298D01*
X1480548D01*
Y1166202D01*
X1474452D01*
X1487420Y1156670D02*
Y1166830D01*
X1497580D01*
Y1156670D01*
X1487420D01*
X1489452Y1158702D02*
Y1164798D01*
X1495548D01*
Y1158702D01*
X1489452D01*
X1487420Y1164170D02*
Y1174330D01*
X1497580D01*
Y1164170D01*
X1487420D01*
X1489452Y1166202D02*
Y1172298D01*
X1495548D01*
Y1166202D01*
X1489452D01*
X1494920Y1171670D02*
Y1181830D01*
X1505080D01*
Y1171670D01*
X1494920D01*
X1496952Y1173702D02*
Y1179798D01*
X1503048D01*
Y1173702D01*
X1496952D01*
X1494920Y1164170D02*
Y1174330D01*
X1505080D01*
Y1164170D01*
X1494920D01*
X1496952Y1166202D02*
Y1172298D01*
X1503048D01*
Y1166202D01*
X1496952D01*
X1494920Y1156670D02*
Y1166830D01*
X1505080D01*
Y1156670D01*
X1494920D01*
X1496952Y1158702D02*
Y1164798D01*
X1503048D01*
Y1158702D01*
X1496952D01*
X1479920Y1156670D02*
Y1166830D01*
X1490080D01*
Y1156670D01*
X1479920D01*
X1481952Y1158702D02*
Y1164798D01*
X1488048D01*
Y1158702D01*
X1481952D01*
X1374920Y1129170D02*
Y1139330D01*
X1385080D01*
Y1129170D01*
X1374920D01*
X1376952Y1131202D02*
Y1137298D01*
X1383048D01*
Y1131202D01*
X1376952D01*
X1374920Y1136670D02*
Y1146830D01*
X1385080D01*
Y1136670D01*
X1374920D01*
X1376952Y1138702D02*
Y1144798D01*
X1383048D01*
Y1138702D01*
X1376952D01*
X1374920Y1166670D02*
Y1176830D01*
X1385080D01*
Y1166670D01*
X1374920D01*
X1376952Y1168702D02*
Y1174798D01*
X1383048D01*
Y1168702D01*
X1376952D01*
X1382420Y1129170D02*
Y1139330D01*
X1392580D01*
Y1129170D01*
X1382420D01*
X1384452Y1131202D02*
Y1137298D01*
X1390548D01*
Y1131202D01*
X1384452D01*
X1412420Y1136670D02*
Y1146830D01*
X1422580D01*
Y1136670D01*
X1412420D01*
X1414452Y1138702D02*
Y1144798D01*
X1420548D01*
Y1138702D01*
X1414452D01*
X1412420Y1129170D02*
Y1139330D01*
X1422580D01*
Y1129170D01*
X1412420D01*
X1414452Y1131202D02*
Y1137298D01*
X1420548D01*
Y1131202D01*
X1414452D01*
X1404920Y1129170D02*
Y1139330D01*
X1415080D01*
Y1129170D01*
X1404920D01*
X1406952Y1131202D02*
Y1137298D01*
X1413048D01*
Y1131202D01*
X1406952D01*
X1494920Y1141670D02*
Y1151830D01*
X1505080D01*
Y1141670D01*
X1494920D01*
X1496952Y1143702D02*
Y1149798D01*
X1503048D01*
Y1143702D01*
X1496952D01*
X1479920Y1134170D02*
Y1144330D01*
X1490080D01*
Y1134170D01*
X1479920D01*
X1481952Y1136202D02*
Y1142298D01*
X1488048D01*
Y1136202D01*
X1481952D01*
X1479920Y1149170D02*
Y1159330D01*
X1490080D01*
Y1149170D01*
X1479920D01*
X1481952Y1151202D02*
Y1157298D01*
X1488048D01*
Y1151202D01*
X1481952D01*
X1487420Y1134170D02*
Y1144330D01*
X1497580D01*
Y1134170D01*
X1487420D01*
X1489452Y1136202D02*
Y1142298D01*
X1495548D01*
Y1136202D01*
X1489452D01*
X1487420Y1126670D02*
Y1136830D01*
X1497580D01*
Y1126670D01*
X1487420D01*
X1489452Y1128702D02*
Y1134798D01*
X1495548D01*
Y1128702D01*
X1489452D01*
X1487420Y1141670D02*
Y1151830D01*
X1497580D01*
Y1141670D01*
X1487420D01*
X1489452Y1143702D02*
Y1149798D01*
X1495548D01*
Y1143702D01*
X1489452D01*
X1472420Y1134170D02*
Y1144330D01*
X1482580D01*
Y1134170D01*
X1472420D01*
X1474452Y1136202D02*
Y1142298D01*
X1480548D01*
Y1136202D01*
X1474452D01*
X1479920Y1141670D02*
Y1151830D01*
X1490080D01*
Y1141670D01*
X1479920D01*
X1481952Y1143702D02*
Y1149798D01*
X1488048D01*
Y1143702D01*
X1481952D01*
X1487420Y1149170D02*
Y1159330D01*
X1497580D01*
Y1149170D01*
X1487420D01*
X1489452Y1151202D02*
Y1157298D01*
X1495548D01*
Y1151202D01*
X1489452D01*
X699170Y970420D02*
Y980580D01*
X709330D01*
Y970420D01*
X699170D01*
X701202Y972452D02*
Y978548D01*
X707298D01*
Y972452D01*
X701202D01*
X694170Y1032920D02*
Y1043080D01*
X704330D01*
Y1032920D01*
X694170D01*
X696202Y1034952D02*
Y1041048D01*
X702298D01*
Y1034952D01*
X696202D01*
X699170Y977920D02*
Y988080D01*
X709330D01*
Y977920D01*
X699170D01*
X701202Y979952D02*
Y986048D01*
X707298D01*
Y979952D01*
X701202D01*
X694170Y920420D02*
Y930580D01*
X704330D01*
Y920420D01*
X694170D01*
X696202Y922452D02*
Y928548D01*
X702298D01*
Y922452D01*
X696202D01*
X694170Y912920D02*
Y923080D01*
X704330D01*
Y912920D01*
X694170D01*
X696202Y914952D02*
Y921048D01*
X702298D01*
Y914952D01*
X696202D01*
X694170Y905420D02*
Y915580D01*
X704330D01*
Y905420D01*
X694170D01*
X696202Y907452D02*
Y913548D01*
X702298D01*
Y907452D01*
X696202D01*
X694170Y927920D02*
Y938080D01*
X704330D01*
Y927920D01*
X694170D01*
X696202Y929952D02*
Y936048D01*
X702298D01*
Y929952D01*
X696202D01*
X694170Y897920D02*
Y908080D01*
X704330D01*
Y897920D01*
X694170D01*
X696202Y899952D02*
Y906048D01*
X702298D01*
Y899952D01*
X696202D01*
X694170Y890420D02*
Y900580D01*
X704330D01*
Y890420D01*
X694170D01*
X696202Y892452D02*
Y898548D01*
X702298D01*
Y892452D01*
X696202D01*
X694170Y1047920D02*
Y1058080D01*
X704330D01*
Y1047920D01*
X694170D01*
X696202Y1049952D02*
Y1056048D01*
X702298D01*
Y1049952D01*
X696202D01*
X694170Y1055420D02*
Y1065580D01*
X704330D01*
Y1055420D01*
X694170D01*
X696202Y1057452D02*
Y1063548D01*
X702298D01*
Y1057452D01*
X696202D01*
X694170Y1040420D02*
Y1050580D01*
X704330D01*
Y1040420D01*
X694170D01*
X696202Y1042452D02*
Y1048548D01*
X702298D01*
Y1042452D01*
X696202D01*
X694170Y1062920D02*
Y1073080D01*
X704330D01*
Y1062920D01*
X694170D01*
X696202Y1064952D02*
Y1071048D01*
X702298D01*
Y1064952D01*
X696202D01*
X827420Y949920D02*
Y960080D01*
X837580D01*
Y949920D01*
X827420D01*
X829452Y951952D02*
Y958048D01*
X835548D01*
Y951952D01*
X829452D01*
X827420Y1257420D02*
Y1267580D01*
X837580D01*
Y1257420D01*
X827420D01*
X829452Y1259452D02*
Y1265548D01*
X835548D01*
Y1259452D01*
X829452D01*
X1397420Y1266670D02*
Y1276830D01*
X1407580D01*
Y1266670D01*
X1397420D01*
X1399452Y1268702D02*
Y1274798D01*
X1405548D01*
Y1268702D01*
X1399452D01*
X1374920Y1266670D02*
Y1276830D01*
X1385080D01*
Y1266670D01*
X1374920D01*
X1376952Y1268702D02*
Y1274798D01*
X1383048D01*
Y1268702D01*
X1376952D01*
X1382420Y1266670D02*
Y1276830D01*
X1392580D01*
Y1266670D01*
X1382420D01*
X1384452Y1268702D02*
Y1274798D01*
X1390548D01*
Y1268702D01*
X1384452D01*
X1389920Y1266670D02*
Y1276830D01*
X1400080D01*
Y1266670D01*
X1389920D01*
X1391952Y1268702D02*
Y1274798D01*
X1398048D01*
Y1268702D01*
X1391952D01*
X1361420Y1178920D02*
Y1189080D01*
X1371580D01*
Y1178920D01*
X1361420D01*
X1363452Y1180952D02*
Y1187048D01*
X1369548D01*
Y1180952D01*
X1363452D01*
X1361420Y1253920D02*
Y1264080D01*
X1371580D01*
Y1253920D01*
X1361420D01*
X1363452Y1255952D02*
Y1262048D01*
X1369548D01*
Y1255952D01*
X1363452D01*
X1361420Y991920D02*
Y1002080D01*
X1371580D01*
Y991920D01*
X1361420D01*
X1363452Y993952D02*
Y1000048D01*
X1369548D01*
Y993952D01*
X1363452D01*
X1374670Y1303170D02*
Y1313330D01*
X1384830D01*
Y1303170D01*
X1374670D01*
X1376702Y1305202D02*
Y1311298D01*
X1382798D01*
Y1305202D01*
X1376702D01*
X1374670Y1296170D02*
Y1306330D01*
X1384830D01*
Y1296170D01*
X1374670D01*
X1376702Y1298202D02*
Y1304298D01*
X1382798D01*
Y1298202D01*
X1376702D01*
X1382670Y1303170D02*
Y1313330D01*
X1392830D01*
Y1303170D01*
X1382670D01*
X1384702Y1305202D02*
Y1311298D01*
X1390798D01*
Y1305202D01*
X1384702D01*
X1361420Y1239420D02*
Y1249580D01*
X1371580D01*
Y1239420D01*
X1361420D01*
X1363452Y1241452D02*
Y1247548D01*
X1369548D01*
Y1241452D01*
X1363452D01*
X1361420Y1006420D02*
Y1016580D01*
X1371580D01*
Y1006420D01*
X1361420D01*
X1363452Y1008452D02*
Y1014548D01*
X1369548D01*
Y1008452D01*
X1363452D01*
X1375170Y919420D02*
Y929580D01*
X1385330D01*
Y919420D01*
X1375170D01*
X1377202Y921452D02*
Y927548D01*
X1383298D01*
Y921452D01*
X1377202D01*
X1375170Y911920D02*
Y922080D01*
X1385330D01*
Y911920D01*
X1375170D01*
X1377202Y913952D02*
Y920048D01*
X1383298D01*
Y913952D01*
X1377202D01*
X1375170Y889420D02*
Y899580D01*
X1385330D01*
Y889420D01*
X1375170D01*
X1377202Y891452D02*
Y897548D01*
X1383298D01*
Y891452D01*
X1377202D01*
X1375170Y896920D02*
Y907080D01*
X1385330D01*
Y896920D01*
X1375170D01*
X1377202Y898952D02*
Y905048D01*
X1383298D01*
Y898952D01*
X1377202D01*
X1375170Y881920D02*
Y892080D01*
X1385330D01*
Y881920D01*
X1375170D01*
X1377202Y883952D02*
Y890048D01*
X1383298D01*
Y883952D01*
X1377202D01*
X1375170Y904420D02*
Y914580D01*
X1385330D01*
Y904420D01*
X1375170D01*
X1377202Y906452D02*
Y912548D01*
X1383298D01*
Y906452D01*
X1377202D01*
X1361420Y931920D02*
Y942080D01*
X1371580D01*
Y931920D01*
X1361420D01*
X1363452Y933952D02*
Y940048D01*
X1369548D01*
Y933952D01*
X1363452D01*
X827420Y934920D02*
Y945080D01*
X837580D01*
Y934920D01*
X827420D01*
X829452Y936952D02*
Y943048D01*
X835548D01*
Y936952D01*
X829452D01*
X806670Y1022920D02*
Y1033080D01*
X816830D01*
Y1022920D01*
X806670D01*
X808702Y1024952D02*
Y1031048D01*
X814798D01*
Y1024952D01*
X808702D01*
X814170Y1022920D02*
Y1033080D01*
X824330D01*
Y1022920D01*
X814170D01*
X816202Y1024952D02*
Y1031048D01*
X822298D01*
Y1024952D01*
X816202D01*
X813920Y1155420D02*
Y1165580D01*
X824080D01*
Y1155420D01*
X813920D01*
X815952Y1157452D02*
Y1163548D01*
X822048D01*
Y1157452D01*
X815952D01*
X813920Y1148420D02*
Y1158580D01*
X824080D01*
Y1148420D01*
X813920D01*
X815952Y1150452D02*
Y1156548D01*
X822048D01*
Y1150452D01*
X815952D01*
X813920Y1162920D02*
Y1173080D01*
X824080D01*
Y1162920D01*
X813920D01*
X815952Y1164952D02*
Y1171048D01*
X822048D01*
Y1164952D01*
X815952D01*
X814170Y1140920D02*
Y1151080D01*
X824330D01*
Y1140920D01*
X814170D01*
X816202Y1142952D02*
Y1149048D01*
X822298D01*
Y1142952D01*
X816202D01*
X827420Y1197420D02*
Y1207580D01*
X837580D01*
Y1197420D01*
X827420D01*
X829452Y1199452D02*
Y1205548D01*
X835548D01*
Y1199452D01*
X829452D01*
X1096620Y1273270D02*
Y1283430D01*
X1106780D01*
Y1273270D01*
X1096620D01*
X1098652Y1275302D02*
Y1281398D01*
X1104748D01*
Y1275302D01*
X1098652D01*
X827420Y1182420D02*
Y1192580D01*
X837580D01*
Y1182420D01*
X827420D01*
X829452Y1184452D02*
Y1190548D01*
X835548D01*
Y1184452D01*
X829452D01*
X839920Y1066420D02*
Y1076580D01*
X850080D01*
Y1066420D01*
X839920D01*
X841952Y1068452D02*
Y1074548D01*
X848048D01*
Y1068452D01*
X841952D01*
X1349420Y1090420D02*
Y1100580D01*
X1359580D01*
Y1090420D01*
X1349420D01*
X1351452Y1092452D02*
Y1098548D01*
X1357548D01*
Y1092452D01*
X1351452D01*
X693920Y882420D02*
Y892580D01*
X704080D01*
Y882420D01*
X693920D01*
X695952Y884452D02*
Y890548D01*
X702048D01*
Y884452D01*
X695952D01*
X924420Y913420D02*
Y923580D01*
X934580D01*
Y913420D01*
X924420D01*
X926452Y915452D02*
Y921548D01*
X932548D01*
Y915452D01*
X926452D01*
X892420Y1004920D02*
Y1015080D01*
X902580D01*
Y1004920D01*
X892420D01*
X894452Y1006952D02*
Y1013048D01*
X900548D01*
Y1006952D01*
X894452D01*
X1234420Y1089920D02*
Y1100080D01*
X1244580D01*
Y1089920D01*
X1234420D01*
X1236452Y1091952D02*
Y1098048D01*
X1242548D01*
Y1091952D01*
X1236452D01*
X827420Y1009920D02*
Y1020080D01*
X837580D01*
Y1009920D01*
X827420D01*
X829452Y1011952D02*
Y1018048D01*
X835548D01*
Y1011952D01*
X829452D01*
X987920Y1066920D02*
Y1077080D01*
X998080D01*
Y1066920D01*
X987920D01*
X989952Y1068952D02*
Y1075048D01*
X996048D01*
Y1068952D01*
X989952D01*
X794920Y594920D02*
X797460D01*
X800000Y597460D01*
X802540Y594920D01*
X805080D01*
Y597460D01*
X802540Y600000D01*
X805080Y602540D01*
Y605080D01*
X802540D01*
X800000Y602540D01*
X797460Y605080D01*
X794920D01*
Y602540D01*
X797460Y600000D01*
X794920Y597460D01*
Y594920D01*
X805390Y749870D02*
X807930D01*
X810470Y752410D01*
X813010Y749870D01*
X815550D01*
Y752410D01*
X813010Y754950D01*
X815550Y757490D01*
Y760030D01*
X813010D01*
X810470Y757490D01*
X807930Y760030D01*
X805390D01*
Y757490D01*
X807930Y754950D01*
X805390Y752410D01*
Y749870D01*
Y1439970D02*
X807930D01*
X810470Y1442510D01*
X813010Y1439970D01*
X815550D01*
Y1442510D01*
X813010Y1445050D01*
X815550Y1447590D01*
Y1450130D01*
X813010D01*
X810470Y1447590D01*
X807930Y1450130D01*
X805390D01*
Y1447590D01*
X807930Y1445050D01*
X805390Y1442510D01*
Y1439970D01*
X794920Y1594920D02*
X797460D01*
X800000Y1597460D01*
X802540Y1594920D01*
X805080D01*
Y1597460D01*
X802540Y1600000D01*
X805080Y1602540D01*
Y1605080D01*
X802540D01*
X800000Y1602540D01*
X797460Y1605080D01*
X794920D01*
Y1602540D01*
X797460Y1600000D01*
X794920Y1597460D01*
Y1594920D01*
X1394920D02*
X1397460D01*
X1400000Y1597460D01*
X1402540Y1594920D01*
X1405080D01*
Y1597460D01*
X1402540Y1600000D01*
X1405080Y1602540D01*
Y1605080D01*
X1402540D01*
X1400000Y1602540D01*
X1397460Y1605080D01*
X1394920D01*
Y1602540D01*
X1397460Y1600000D01*
X1394920Y1597460D01*
Y1594920D01*
X1384450Y1439970D02*
X1386990D01*
X1389530Y1442510D01*
X1392070Y1439970D01*
X1394610D01*
Y1442510D01*
X1392070Y1445050D01*
X1394610Y1447590D01*
Y1450130D01*
X1392070D01*
X1389530Y1447590D01*
X1386990Y1450130D01*
X1384450D01*
Y1447590D01*
X1386990Y1445050D01*
X1384450Y1442510D01*
Y1439970D01*
X1394920Y594920D02*
X1397460D01*
X1400000Y597460D01*
X1402540Y594920D01*
X1405080D01*
Y597460D01*
X1402540Y600000D01*
X1405080Y602540D01*
Y605080D01*
X1402540D01*
X1400000Y602540D01*
X1397460Y605080D01*
X1394920D01*
Y602540D01*
X1397460Y600000D01*
X1394920Y597460D01*
Y594920D01*
X1384744Y749707D02*
X1387284D01*
X1389824Y752247D01*
X1392364Y749707D01*
X1394904D01*
Y752247D01*
X1392364Y754787D01*
X1394904Y757327D01*
Y759867D01*
X1392364D01*
X1389824Y757327D01*
X1387284Y759867D01*
X1384744D01*
Y757327D01*
X1387284Y754787D01*
X1384744Y752247D01*
Y749707D01*
X975420Y1084920D02*
Y1095080D01*
X985580D01*
Y1084920D01*
X975420D01*
X977452Y1086952D02*
Y1093048D01*
X983548D01*
Y1086952D01*
X977452D01*
D84*
X679080Y1374000D02*
G03*
X679080Y1374000I-5080J0D01*
G01*
Y1424000D02*
G03*
X679080Y1424000I-5080J0D01*
G01*
X1531080Y829000D02*
G03*
X1531080Y829000I-5080J0D01*
G01*
Y779000D02*
G03*
X1531080Y779000I-5080J0D01*
G01*
X1530080Y1372000D02*
G03*
X1530080Y1372000I-5080J0D01*
G01*
Y1422000D02*
G03*
X1530080Y1422000I-5080J0D01*
G01*
X679080Y1250500D02*
G03*
X679080Y1250500I-5080J0D01*
G01*
Y1200500D02*
G03*
X679080Y1200500I-5080J0D01*
G01*
X1530080Y1246750D02*
G03*
X1530080Y1246750I-5080J0D01*
G01*
Y1196750D02*
G03*
X1530080Y1196750I-5080J0D01*
G01*
X679330Y1003000D02*
G03*
X679330Y1003000I-5080J0D01*
G01*
Y953000D02*
G03*
X679330Y953000I-5080J0D01*
G01*
X1530330Y999500D02*
G03*
X1530330Y999500I-5080J0D01*
G01*
Y949500D02*
G03*
X1530330Y949500I-5080J0D01*
G01*
X678080Y829000D02*
G03*
X678080Y829000I-5080J0D01*
G01*
Y779000D02*
G03*
X678080Y779000I-5080J0D01*
G01*
M02*
