G04*
G04 #@! TF.GenerationSoftware,Altium Limited,Altium Designer,25.4.2 (15)*
G04*
G04 Layer_Physical_Order=2*
G04 Layer_Color=16711680*
%FSLAX44Y44*%
%MOMM*%
G71*
G04*
G04 #@! TF.SameCoordinates,CE8B7503-BC5D-454C-BBEA-07EE3AA0370F*
G04*
G04*
G04 #@! TF.FilePolarity,Positive*
G04*
G01*
G75*
%ADD13C,0.5000*%
%ADD23R,5.0000X1.2500*%
%ADD56C,1.5400*%
%ADD57R,1.5400X1.5400*%
%ADD64C,1.0000*%
%ADD65C,0.8000*%
%ADD66C,1.8000*%
%ADD67C,3.0000*%
%ADD71C,1.3080*%
%ADD72C,1.2800*%
%ADD73C,3.0000*%
%ADD74C,1.5080*%
%ADD75C,1.3700*%
%ADD76C,6.0000*%
%ADD77C,0.4500*%
%ADD78R,2.4000X0.8000*%
G36*
X897410Y1742975D02*
Y1500000D01*
X897607Y1499009D01*
X898169Y1498169D01*
X899009Y1497608D01*
X900000Y1497410D01*
X1300000D01*
X1300991Y1497608D01*
X1301831Y1498169D01*
X1302392Y1499009D01*
X1302590Y1500000D01*
Y1742975D01*
X1304789Y1744245D01*
X1364700Y1709655D01*
D01*
X1660521Y1538863D01*
Y661137D01*
X1364700Y490345D01*
X1362500Y491615D01*
Y633960D01*
X1364600D01*
X1367613Y634357D01*
X1370420Y635520D01*
X1372830Y637370D01*
X1494730Y759270D01*
X1496580Y761680D01*
X1497743Y764487D01*
X1498140Y767500D01*
X1497743Y770512D01*
X1496580Y773320D01*
X1494730Y775730D01*
X1492320Y777580D01*
X1489512Y778743D01*
X1486500Y779140D01*
X1483488Y778743D01*
X1480680Y777580D01*
X1478270Y775730D01*
X1364847Y662308D01*
X1362500Y663279D01*
Y732926D01*
X1364391Y733540D01*
X1365040Y733553D01*
X1368626Y729967D01*
X1372770Y726956D01*
X1377333Y724631D01*
X1382205Y723048D01*
X1387263Y722247D01*
X1392385D01*
X1397444Y723048D01*
X1402315Y724631D01*
X1406879Y726956D01*
X1411023Y729967D01*
X1414644Y733589D01*
X1417655Y737732D01*
X1419980Y742296D01*
X1421563Y747167D01*
X1422364Y752226D01*
Y757348D01*
X1421563Y762407D01*
X1419980Y767278D01*
X1417655Y771842D01*
X1414644Y775985D01*
X1411023Y779607D01*
X1406879Y782618D01*
X1402315Y784943D01*
X1397444Y786526D01*
X1392385Y787327D01*
X1387263D01*
X1382205Y786526D01*
X1377333Y784943D01*
X1372770Y782618D01*
X1368626Y779607D01*
X1365040Y776021D01*
X1364391Y776034D01*
X1362500Y776648D01*
Y783976D01*
X1403419Y824895D01*
X1434624D01*
X1435213Y824306D01*
X1437547Y822958D01*
X1440152Y822260D01*
X1442848D01*
X1445453Y822958D01*
X1447787Y824306D01*
X1449694Y826212D01*
X1451042Y828548D01*
X1451740Y831152D01*
Y833848D01*
X1451042Y836452D01*
X1449694Y838788D01*
X1447787Y840694D01*
X1445453Y842042D01*
X1442848Y842740D01*
X1440152D01*
X1437547Y842042D01*
X1435213Y840694D01*
X1434624Y840105D01*
X1400269D01*
X1398301Y839846D01*
X1396467Y839086D01*
X1394892Y837878D01*
X1364847Y807832D01*
X1362500Y808804D01*
Y877000D01*
X1431527D01*
X1430330Y879540D01*
X1430340Y879590D01*
X1430340Y931861D01*
X1468553D01*
X1469251Y932000D01*
X1472750D01*
X1475250Y934500D01*
X1505160D01*
Y879590D01*
X1505170Y879540D01*
X1503973Y877000D01*
X1565000D01*
Y1072500D01*
X1505250D01*
Y1069951D01*
X1505160Y1069500D01*
Y1014500D01*
X1473517D01*
X1471884Y1016134D01*
X1470217Y1017248D01*
X1468250Y1017639D01*
X1427840D01*
Y1069500D01*
X1427750Y1069951D01*
Y1072500D01*
X1362500D01*
Y1124000D01*
X1430000D01*
Y1126299D01*
X1430090Y1126750D01*
X1430090Y1179111D01*
X1468303D01*
X1469001Y1179250D01*
X1472500D01*
X1475000Y1181750D01*
X1504910D01*
Y1126750D01*
X1505000Y1126299D01*
Y1124000D01*
X1565000D01*
Y1319487D01*
X1505000D01*
Y1317201D01*
X1504910Y1316750D01*
Y1261750D01*
X1473267D01*
X1471634Y1263384D01*
X1469966Y1264498D01*
X1468000Y1264889D01*
X1427590D01*
Y1316750D01*
X1427500Y1317201D01*
Y1319487D01*
X1365991D01*
X1335000Y1319442D01*
Y1225000D01*
X872500D01*
Y1322955D01*
X805000Y1323045D01*
Y1323256D01*
X769000D01*
Y1320951D01*
X768910Y1320500D01*
X768910Y1268139D01*
X730697D01*
X729999Y1268000D01*
X726500D01*
X724000Y1265500D01*
X694090D01*
Y1320500D01*
X694000Y1320951D01*
Y1323256D01*
X635756D01*
X635000Y1322500D01*
Y1127500D01*
X694000D01*
Y1130049D01*
X694090Y1130500D01*
Y1185500D01*
X725733D01*
X727366Y1183866D01*
X729034Y1182752D01*
X731000Y1182361D01*
X771410D01*
Y1130500D01*
X771500Y1130049D01*
Y1127500D01*
X835000D01*
Y1075000D01*
X767973D01*
X769170Y1072460D01*
X769160Y1072410D01*
X769160Y1020639D01*
X730947D01*
X730249Y1020500D01*
X726750D01*
X724250Y1018000D01*
X694340D01*
Y1072410D01*
X694330Y1072460D01*
X695527Y1075000D01*
X635000D01*
Y880000D01*
X694250D01*
Y882549D01*
X694340Y883000D01*
Y938000D01*
X725983D01*
X727616Y936366D01*
X729284Y935252D01*
X731250Y934861D01*
X771660D01*
Y883000D01*
X771750Y882549D01*
Y880000D01*
X827500D01*
Y785224D01*
X825334Y783897D01*
X822961Y785106D01*
X818090Y786689D01*
X813031Y787490D01*
X807909D01*
X802850Y786689D01*
X797979Y785106D01*
X793415Y782781D01*
X789272Y779770D01*
X785650Y776148D01*
X782639Y772005D01*
X780314Y767441D01*
X778731Y762570D01*
X777930Y757511D01*
Y752389D01*
X778731Y747330D01*
X780314Y742459D01*
X782639Y737895D01*
X785650Y733752D01*
X789272Y730130D01*
X793415Y727119D01*
X797979Y724794D01*
X802850Y723211D01*
X807909Y722410D01*
X813031D01*
X818090Y723211D01*
X822961Y724794D01*
X825334Y726003D01*
X827500Y724676D01*
Y691996D01*
X762248D01*
X760605Y693640D01*
Y700350D01*
X761066Y700811D01*
X762393Y703109D01*
X763080Y705673D01*
Y708327D01*
X762393Y710891D01*
X761066Y713189D01*
X760605Y713650D01*
Y715000D01*
X760346Y716968D01*
X759586Y718802D01*
X758378Y720378D01*
X758378D01*
X756803Y721586D01*
X754968Y722346D01*
X753000Y722605D01*
X709605D01*
Y747000D01*
X709346Y748968D01*
X708901Y750043D01*
X708586Y750803D01*
X707378Y752378D01*
X688696Y771059D01*
X689866Y773884D01*
X690540Y777272D01*
Y780727D01*
X689866Y784116D01*
X688544Y787308D01*
X686624Y790181D01*
X684181Y792624D01*
X681308Y794544D01*
X678116Y795866D01*
X674727Y796540D01*
X671273D01*
X667884Y795866D01*
X664692Y794544D01*
X661819Y792624D01*
X659376Y790181D01*
X657456Y787308D01*
X656134Y784116D01*
X655460Y780727D01*
Y777272D01*
X656134Y773884D01*
X657456Y770692D01*
X659376Y767819D01*
X661819Y765376D01*
X664692Y763456D01*
X667884Y762134D01*
X671273Y761460D01*
X674727D01*
X676443Y761801D01*
X694395Y743850D01*
Y722605D01*
X651000D01*
X649032Y722346D01*
X647197Y721586D01*
X645622Y720378D01*
X644414Y718802D01*
X643654Y716968D01*
X643395Y715000D01*
X643395Y715000D01*
Y713650D01*
X642934Y713189D01*
X641607Y710891D01*
X640920Y708327D01*
Y705673D01*
X641607Y703109D01*
X642934Y700811D01*
X643395Y700350D01*
Y690000D01*
X643552Y688807D01*
X642934Y688189D01*
X641607Y685891D01*
X640920Y683327D01*
Y680673D01*
X641607Y678109D01*
X642934Y675811D01*
X644811Y673934D01*
X647109Y672607D01*
X649673Y671920D01*
X652327D01*
X654891Y672607D01*
X657189Y673934D01*
X659066Y675811D01*
X660393Y678109D01*
X661080Y680673D01*
Y683327D01*
X660393Y685891D01*
X659066Y688189D01*
X658448Y688807D01*
X658605Y690000D01*
Y700350D01*
X659066Y700811D01*
X660393Y703109D01*
X661080Y705673D01*
Y707395D01*
X691920D01*
Y705673D01*
X692607Y703109D01*
X693934Y700811D01*
X694395Y700350D01*
Y690000D01*
X694552Y688807D01*
X693934Y688189D01*
X692607Y685891D01*
X691920Y683327D01*
Y680673D01*
X692607Y678109D01*
X693934Y675811D01*
X695811Y673934D01*
X698109Y672607D01*
X700673Y671920D01*
X703327D01*
X705891Y672607D01*
X708189Y673934D01*
X710066Y675811D01*
X711393Y678109D01*
X712080Y680673D01*
Y683327D01*
X711393Y685891D01*
X710066Y688189D01*
X709448Y688807D01*
X709605Y690000D01*
Y700350D01*
X710066Y700811D01*
X711393Y703109D01*
X712080Y705673D01*
Y707395D01*
X742920D01*
Y705673D01*
X743607Y703109D01*
X744934Y700811D01*
X745395Y700350D01*
Y690000D01*
X745552Y688807D01*
X744934Y688189D01*
X743607Y685891D01*
X742920Y683327D01*
Y680673D01*
X743607Y678109D01*
X744934Y675811D01*
X746811Y673934D01*
X749109Y672607D01*
X751673Y671920D01*
X754327D01*
X756891Y672607D01*
X759189Y673934D01*
X761066Y675811D01*
X762393Y678109D01*
X762579Y678804D01*
X827500D01*
Y621620D01*
X825084Y620835D01*
X824820Y621198D01*
X821198Y624820D01*
X817055Y627831D01*
X812491Y630156D01*
X807620Y631739D01*
X802561Y632540D01*
X797439D01*
X792380Y631739D01*
X787509Y630156D01*
X782945Y627831D01*
X778802Y624820D01*
X775180Y621198D01*
X772169Y617055D01*
X769844Y612491D01*
X768261Y607620D01*
X767460Y602561D01*
Y597439D01*
X768261Y592380D01*
X769844Y587509D01*
X772169Y582945D01*
X775180Y578802D01*
X778802Y575180D01*
X782945Y572169D01*
X787509Y569844D01*
X792380Y568261D01*
X797439Y567460D01*
X802561D01*
X807620Y568261D01*
X812491Y569844D01*
X817055Y572169D01*
X821198Y575180D01*
X824820Y578802D01*
X825084Y579165D01*
X827500Y578380D01*
Y553228D01*
X785253D01*
X660655Y625575D01*
X658605Y627625D01*
Y650350D01*
X659066Y650811D01*
X660393Y653109D01*
X661080Y655673D01*
Y658327D01*
X660393Y660891D01*
X659066Y663189D01*
X657189Y665066D01*
X654891Y666393D01*
X652327Y667080D01*
X649673D01*
X647109Y666393D01*
X644811Y665066D01*
X642934Y663189D01*
X641607Y660891D01*
X640920Y658327D01*
Y655673D01*
X641607Y653109D01*
X642934Y650811D01*
X643395Y650350D01*
Y628144D01*
X643395Y624475D01*
X643654Y622506D01*
X644414Y620672D01*
X645622Y619097D01*
X650601Y614119D01*
X651382Y613519D01*
X652160Y612919D01*
X779387Y539046D01*
X779396Y539042D01*
X779403Y539036D01*
X780313Y538659D01*
X781219Y538282D01*
X781228Y538280D01*
X781237Y538277D01*
X782214Y538148D01*
X783187Y538018D01*
X783196Y538019D01*
X783206Y538018D01*
X827500D01*
Y497388D01*
X825300Y496118D01*
X539479Y661137D01*
Y1538863D01*
X802800Y1690892D01*
X803500Y1690488D01*
Y1691295D01*
X895211Y1744245D01*
X897410Y1742975D01*
D02*
G37*
G36*
X691500Y1320500D02*
Y1238451D01*
X691410Y1238000D01*
Y1228000D01*
X637590Y1228000D01*
Y1320500D01*
X691500Y1320500D01*
D02*
G37*
G36*
X1562410Y1221840D02*
X1535000Y1221840D01*
X1507590Y1221840D01*
Y1234250D01*
X1507500Y1234701D01*
Y1316750D01*
X1562410D01*
Y1221840D01*
D02*
G37*
G36*
X691410Y1213000D02*
X691500Y1212549D01*
Y1130500D01*
X637590D01*
Y1225410D01*
X691410Y1225410D01*
Y1213000D01*
D02*
G37*
G36*
X804996Y1320455D02*
X826500Y1320427D01*
Y1130500D01*
X774000Y1130500D01*
Y1182361D01*
X791500D01*
X793466Y1182752D01*
X793837Y1183000D01*
X796500D01*
Y1186803D01*
X796639Y1187500D01*
X796500Y1188197D01*
Y1193000D01*
X732767D01*
X715634Y1210134D01*
X713967Y1211248D01*
X713075Y1211425D01*
X711500Y1213000D01*
X694000Y1213000D01*
Y1238000D01*
X716500D01*
X736361Y1257861D01*
X791229D01*
X791927Y1258000D01*
X796500D01*
Y1268000D01*
X791927D01*
X791229Y1268139D01*
X771500D01*
X771500Y1320500D01*
X804774Y1320500D01*
X804996Y1320455D01*
D02*
G37*
G36*
X1237500Y1223204D02*
Y1130000D01*
X949906D01*
Y1224971D01*
X1235704Y1225000D01*
X1237500Y1223204D01*
D02*
G37*
G36*
X1562410Y1126750D02*
X1507500Y1126750D01*
Y1208799D01*
X1507590Y1209250D01*
Y1219250D01*
X1535000Y1219250D01*
X1562410Y1219250D01*
Y1126750D01*
D02*
G37*
G36*
X1425000Y1316750D02*
Y1264889D01*
X1407500D01*
X1405533Y1264498D01*
X1405163Y1264250D01*
X1402500D01*
Y1260447D01*
X1402361Y1259750D01*
X1402500Y1259053D01*
Y1254250D01*
X1466233D01*
X1483366Y1237116D01*
X1485034Y1236002D01*
X1485925Y1235825D01*
X1487500Y1234250D01*
X1505000Y1234250D01*
Y1209250D01*
X1482500D01*
X1462639Y1189389D01*
X1407771D01*
X1407073Y1189250D01*
X1402500D01*
Y1179250D01*
X1407073D01*
X1407771Y1179111D01*
X1427500D01*
X1427500Y1126750D01*
X1372500Y1126750D01*
Y1316750D01*
X1425000Y1316750D01*
D02*
G37*
G36*
X1245361Y1120071D02*
Y1108393D01*
X1245198Y1108031D01*
X1241214Y1102513D01*
X1237533Y1099748D01*
X1235866Y1098634D01*
X1235866D01*
X1234071Y1096838D01*
X1219771Y1082539D01*
X1207040D01*
Y1083940D01*
X1181801D01*
X1181075Y1084666D01*
X1179005Y1085861D01*
X1176695Y1086480D01*
X1174305D01*
X1171995Y1085861D01*
X1169925Y1084666D01*
X1168234Y1082975D01*
X1167039Y1080905D01*
X1166420Y1078595D01*
Y1076205D01*
X1167039Y1073895D01*
X1168234Y1071825D01*
X1166186Y1061683D01*
X1162821Y1058540D01*
X1143960D01*
Y1045460D01*
X1164732D01*
X1170370Y1035945D01*
X1169925Y1033866D01*
X1168234Y1032175D01*
X1167039Y1030105D01*
X1166420Y1027795D01*
Y1025405D01*
X1167039Y1023095D01*
X1168234Y1021025D01*
X1166186Y1010883D01*
X1162821Y1007740D01*
X1143960D01*
Y994660D01*
X1164732D01*
X1170370Y985145D01*
X1169925Y983066D01*
X1168234Y981375D01*
X1167039Y979305D01*
X1166420Y976995D01*
Y974605D01*
X1167039Y972295D01*
X1168234Y970225D01*
X1166186Y960083D01*
X1162821Y956940D01*
X1143960D01*
Y943860D01*
X1164732D01*
X1170370Y934345D01*
X1169925Y932266D01*
X1168234Y930575D01*
X1167039Y928505D01*
X1166420Y926195D01*
Y923805D01*
X1167039Y921495D01*
X1168234Y919425D01*
X1166186Y909283D01*
X1162821Y906140D01*
X1143960D01*
Y893060D01*
X1164732D01*
X1170370Y883545D01*
X1169925Y881466D01*
X1168234Y879775D01*
X1167039Y877705D01*
X1166420Y875395D01*
Y873005D01*
X1167039Y870695D01*
X1168234Y868625D01*
X1169925Y866934D01*
X1170141Y865926D01*
X1164986Y857937D01*
X1163153Y856405D01*
X1143300D01*
X1141332Y856146D01*
X1139498Y855386D01*
X1137922Y854178D01*
X1096622Y812878D01*
X1095414Y811302D01*
X1094654Y809468D01*
X1094395Y807500D01*
Y591887D01*
X1063954Y561446D01*
X1054540Y566174D01*
Y575940D01*
X1033868D01*
X1028230Y585455D01*
X1028675Y587534D01*
X1030366Y589225D01*
X1031561Y591295D01*
X1032180Y593605D01*
Y595995D01*
X1031561Y598305D01*
X1030366Y600375D01*
X1032414Y610517D01*
X1035779Y613660D01*
X1054540D01*
Y626740D01*
X1033868D01*
X1028230Y636255D01*
X1028675Y638334D01*
X1030366Y640025D01*
X1031561Y642095D01*
X1032180Y644405D01*
Y646795D01*
X1031561Y649105D01*
X1030366Y651175D01*
X1032414Y661317D01*
X1035779Y664460D01*
X1054540D01*
Y677540D01*
X1033868D01*
X1028230Y687055D01*
X1028675Y689134D01*
X1030366Y690825D01*
X1031561Y692895D01*
X1032180Y695205D01*
Y697595D01*
X1031561Y699905D01*
X1030366Y701975D01*
X1032414Y712117D01*
X1035779Y715260D01*
X1054540D01*
Y728340D01*
X1033868D01*
X1028230Y737855D01*
X1028675Y739934D01*
X1030366Y741625D01*
X1031561Y743695D01*
X1032180Y746005D01*
Y748395D01*
X1031561Y750705D01*
X1030366Y752775D01*
X1032414Y762917D01*
X1035779Y766060D01*
X1054540D01*
Y779140D01*
X1033868D01*
X1028230Y788655D01*
X1028675Y790734D01*
X1030366Y792425D01*
X1031561Y794495D01*
X1032180Y796805D01*
Y799195D01*
X1031561Y801505D01*
X1030366Y803575D01*
X1032414Y813717D01*
X1035779Y816860D01*
X1054540D01*
Y829940D01*
X1029401D01*
X1028675Y830666D01*
X1026605Y831861D01*
X1024295Y832480D01*
X1021905D01*
X1019595Y831861D01*
X1017525Y830666D01*
X1015834Y828975D01*
X1014639Y826905D01*
X1014020Y824595D01*
Y822205D01*
X1014639Y819895D01*
X1015834Y817825D01*
X1013785Y807683D01*
X1010421Y804540D01*
X991460D01*
Y804540D01*
X982241Y806426D01*
X874139Y914529D01*
Y992000D01*
X873748Y993967D01*
X872634Y995634D01*
X858000Y1010267D01*
Y1057667D01*
X867239Y1061494D01*
X902148Y1026585D01*
X901689Y1025003D01*
X898854Y1019996D01*
X897045Y1017545D01*
X895532Y1017346D01*
X895532Y1017346D01*
X893698Y1016586D01*
Y1016586D01*
X892122Y1015378D01*
X890914Y1013802D01*
X890154Y1011968D01*
X889895Y1010000D01*
X889895Y1010000D01*
X889992Y1009266D01*
X890154Y1008032D01*
X890154Y1008032D01*
X890437Y1007347D01*
X890914Y1006198D01*
X892122Y1004622D01*
X921895Y974850D01*
Y918500D01*
X922154Y916532D01*
X922914Y914697D01*
X924122Y913122D01*
X925697Y911914D01*
X927532Y911154D01*
X929500Y910895D01*
X931468Y911154D01*
X933303Y911914D01*
X934878Y913122D01*
X936086Y914697D01*
X936846Y916532D01*
X937105Y918500D01*
Y977486D01*
X938637Y978867D01*
X944503Y982189D01*
X946085Y982648D01*
X981966Y946766D01*
X983633Y945652D01*
X985600Y945261D01*
X991460D01*
Y943860D01*
X1012332D01*
X1017970Y934345D01*
X1017525Y932266D01*
X1015834Y930575D01*
X1014639Y928505D01*
X1014020Y926195D01*
Y923805D01*
X1014639Y921495D01*
X1015834Y919425D01*
X1013785Y909283D01*
X1010421Y906140D01*
X991460D01*
Y893060D01*
X1012332D01*
X1017970Y883545D01*
X1017525Y881466D01*
X1015834Y879775D01*
X1014639Y877705D01*
X1014020Y875395D01*
Y873005D01*
X1014639Y870695D01*
X1015834Y868625D01*
X1017525Y866934D01*
X1019595Y865739D01*
X1021905Y865120D01*
X1024295D01*
X1026605Y865739D01*
X1028675Y866934D01*
X1029401Y867660D01*
X1054540D01*
Y880740D01*
X1033868D01*
X1028230Y890255D01*
X1028675Y892334D01*
X1030366Y894025D01*
X1031561Y896095D01*
X1032180Y898405D01*
Y900795D01*
X1031561Y903105D01*
X1030366Y905175D01*
X1032414Y915317D01*
X1035779Y918460D01*
X1054540D01*
Y931540D01*
X1033868D01*
X1028230Y941055D01*
X1028675Y943134D01*
X1030366Y944825D01*
X1031561Y946895D01*
X1032180Y949205D01*
Y951595D01*
X1031561Y953905D01*
X1030366Y955975D01*
X1032414Y966117D01*
X1035779Y969260D01*
X1054540D01*
Y982340D01*
X1033868D01*
X1028230Y991855D01*
X1028675Y993934D01*
X1030366Y995625D01*
X1031561Y997695D01*
X1032180Y1000005D01*
Y1002395D01*
X1031561Y1004705D01*
X1030366Y1006775D01*
X1032414Y1016917D01*
X1035779Y1020060D01*
X1054540D01*
Y1033140D01*
X1033868D01*
X1028230Y1042655D01*
X1028675Y1044734D01*
X1030366Y1046425D01*
X1031561Y1048495D01*
X1032180Y1050805D01*
Y1053195D01*
X1031561Y1055505D01*
X1030366Y1057575D01*
X1032414Y1067717D01*
X1035779Y1070860D01*
X1054540D01*
Y1083940D01*
X1037605D01*
X1032182Y1093940D01*
X1034430Y1097395D01*
X1211000D01*
X1212968Y1097654D01*
X1214802Y1098414D01*
X1216378Y1099622D01*
X1217586Y1101198D01*
X1218346Y1103032D01*
X1218605Y1105000D01*
X1218346Y1106968D01*
X1217586Y1108802D01*
X1216378Y1110378D01*
X1214802Y1111586D01*
X1212968Y1112346D01*
X1211000Y1112605D01*
X1025000D01*
X1023032Y1112346D01*
X1021957Y1111901D01*
X1021198Y1111586D01*
X1019622Y1110378D01*
X994508Y1085263D01*
X988494Y1088475D01*
X985550Y1090447D01*
X985248Y1091966D01*
X985248Y1091966D01*
X985247Y1091967D01*
X984134Y1093634D01*
Y1093634D01*
X984134Y1093634D01*
X983942Y1093825D01*
X982275Y1094939D01*
X982275Y1094939D01*
X980309Y1095330D01*
X980309Y1095330D01*
X978437Y1095330D01*
X956169Y1117598D01*
X959991Y1126839D01*
X1145035Y1127038D01*
X1238286Y1127138D01*
X1245361Y1120071D01*
D02*
G37*
G36*
X691750Y990951D02*
X691660Y990500D01*
Y980500D01*
X647832Y980500D01*
X637590D01*
Y1072410D01*
X691750D01*
Y990951D01*
D02*
G37*
G36*
X1562410Y974590D02*
X1540297Y974590D01*
X1507840Y974590D01*
Y987000D01*
X1507750Y987451D01*
Y1069500D01*
X1562410D01*
Y974590D01*
D02*
G37*
G36*
X691660Y965500D02*
X691750Y965049D01*
Y883000D01*
X637590D01*
Y977910D01*
X647832D01*
X691660Y977910D01*
Y965500D01*
D02*
G37*
G36*
X826750Y883000D02*
X774250Y883000D01*
Y934861D01*
X791750D01*
X793717Y935252D01*
X794087Y935500D01*
X796750D01*
Y939303D01*
X796889Y940000D01*
X796750Y940697D01*
Y945500D01*
X733017D01*
X715884Y962634D01*
X714217Y963748D01*
X713325Y963925D01*
X711750Y965500D01*
X694250Y965500D01*
Y990500D01*
X716750D01*
X736611Y1010361D01*
X791479D01*
X792177Y1010500D01*
X796750D01*
Y1020500D01*
X792177D01*
X791479Y1020639D01*
X771750D01*
X771750Y1072410D01*
X826750D01*
Y883000D01*
D02*
G37*
G36*
X1562410Y879590D02*
X1507750D01*
Y961549D01*
X1507840Y962000D01*
Y972000D01*
X1540297Y972000D01*
X1562410Y972000D01*
Y879590D01*
D02*
G37*
G36*
X1425250Y1069500D02*
Y1017639D01*
X1407750D01*
X1405784Y1017248D01*
X1405413Y1017000D01*
X1402750D01*
Y1013197D01*
X1402611Y1012500D01*
X1402750Y1011803D01*
Y1007000D01*
X1466483D01*
X1483616Y989866D01*
X1485284Y988752D01*
X1486175Y988575D01*
X1487750Y987000D01*
X1505250Y987000D01*
Y962000D01*
X1482750D01*
X1462889Y942139D01*
X1408021D01*
X1407323Y942000D01*
X1402750D01*
Y932000D01*
X1407323D01*
X1408021Y931861D01*
X1427750D01*
X1427750Y879590D01*
X1372750D01*
Y1069500D01*
X1425250Y1069500D01*
D02*
G37*
G36*
X1296861Y960452D02*
Y929128D01*
X1274935Y907203D01*
X1274236Y907390D01*
X1271764D01*
X1269376Y906750D01*
X1267234Y905514D01*
X1265486Y903766D01*
X1264250Y901624D01*
X1263610Y899236D01*
Y896764D01*
X1264250Y894376D01*
X1265486Y892234D01*
X1267234Y890486D01*
X1267375Y889888D01*
Y880712D01*
X1267234Y880114D01*
X1265486Y878366D01*
X1264250Y876224D01*
X1263610Y873836D01*
Y871364D01*
X1264250Y868976D01*
X1265486Y866834D01*
X1267234Y865086D01*
X1267375Y864488D01*
Y855312D01*
X1267234Y854714D01*
X1265486Y852966D01*
X1264250Y850824D01*
X1263610Y848436D01*
Y845964D01*
X1264250Y843576D01*
X1265486Y841434D01*
X1267234Y839686D01*
X1269376Y838450D01*
X1271764Y837810D01*
X1274236D01*
X1276624Y838450D01*
X1278766Y839686D01*
X1280514Y841434D01*
X1281750Y843576D01*
X1282390Y845964D01*
Y848436D01*
X1281750Y850824D01*
X1280514Y852966D01*
X1278766Y854714D01*
X1278625Y855312D01*
Y864488D01*
X1278766Y865086D01*
X1280514Y866834D01*
X1281750Y868976D01*
X1282390Y871364D01*
Y873836D01*
X1281750Y876224D01*
X1280514Y878366D01*
X1278766Y880114D01*
X1278625Y880712D01*
Y889888D01*
X1278766Y890486D01*
X1280514Y892234D01*
X1281750Y894376D01*
X1282390Y896764D01*
Y899236D01*
X1282203Y899935D01*
X1299361Y917094D01*
X1309361Y912952D01*
Y849129D01*
X1263372Y803139D01*
X1189762D01*
X1184455Y811938D01*
X1184815Y813717D01*
X1188179Y816860D01*
X1207040D01*
Y829940D01*
X1186268D01*
X1180630Y839455D01*
X1181075Y841534D01*
X1182766Y843225D01*
X1183961Y845295D01*
X1184580Y847605D01*
Y849995D01*
X1183961Y852305D01*
X1182766Y854375D01*
X1184815Y864517D01*
X1188179Y867660D01*
X1207040D01*
Y880740D01*
X1211260Y888992D01*
X1286861Y964594D01*
X1296861Y960452D01*
D02*
G37*
G36*
X964666Y743566D02*
X966333Y742452D01*
X968300Y742061D01*
X991460D01*
Y740660D01*
X1012332D01*
X1017970Y731145D01*
X1017525Y729066D01*
X1015834Y727375D01*
X1014639Y725305D01*
X1014020Y722995D01*
Y720605D01*
X1014639Y718295D01*
X1015834Y716225D01*
X1013785Y706083D01*
X1010421Y702940D01*
X993058D01*
X993058Y702940D01*
X991460D01*
X988442Y694190D01*
X981460Y694190D01*
X935290D01*
X934960Y694190D01*
X925290D01*
X924960Y694190D01*
X870210D01*
Y691996D01*
X858000D01*
Y837167D01*
X867239Y840994D01*
X964666Y743566D01*
D02*
G37*
G36*
X1312622Y780622D02*
X1314198Y779414D01*
X1316032Y778654D01*
X1318000Y778395D01*
X1341000D01*
Y657240D01*
X1213750D01*
X1207040Y664460D01*
X1207040Y667240D01*
Y677540D01*
X1186268D01*
X1180630Y687055D01*
X1181075Y689134D01*
X1182766Y690825D01*
X1183961Y692895D01*
X1184580Y695205D01*
Y697595D01*
X1183961Y699905D01*
X1182766Y701975D01*
X1184815Y712117D01*
X1188179Y715260D01*
X1207040D01*
Y728340D01*
X1188399D01*
X1184249Y735882D01*
X1188641Y742061D01*
X1261200D01*
X1263167Y742452D01*
X1264834Y743566D01*
X1301432Y780165D01*
X1304789Y780848D01*
X1312622Y780622D01*
D02*
G37*
G36*
X1170141Y831674D02*
X1169925Y830666D01*
X1168234Y828975D01*
X1167039Y826905D01*
X1166420Y824595D01*
Y822205D01*
X1167039Y819895D01*
X1168234Y817825D01*
X1166186Y807683D01*
X1162821Y804540D01*
X1143960D01*
Y791460D01*
X1164732D01*
X1170370Y781945D01*
X1169925Y779866D01*
X1168234Y778175D01*
X1167039Y776105D01*
X1166420Y773795D01*
Y771405D01*
X1167039Y769095D01*
X1168234Y767025D01*
X1166186Y756883D01*
X1162821Y753740D01*
X1143960D01*
Y740660D01*
X1164732D01*
X1170370Y731145D01*
X1169925Y729066D01*
X1168234Y727375D01*
X1167039Y725305D01*
X1166420Y722995D01*
Y720605D01*
X1167039Y718295D01*
X1168234Y716225D01*
X1166186Y706083D01*
X1162821Y702940D01*
X1143960D01*
Y689860D01*
X1164732D01*
X1170370Y680345D01*
X1169925Y678266D01*
X1168234Y676575D01*
X1167039Y674505D01*
X1166420Y672195D01*
Y669805D01*
X1167039Y667495D01*
X1168010Y665812D01*
X1168268Y665194D01*
X1168580Y663091D01*
X1168286Y657597D01*
X1167283Y653841D01*
X1167270Y653830D01*
X1165973Y652140D01*
X1143960D01*
Y639060D01*
X1165973D01*
X1167270Y637370D01*
X1167283Y637359D01*
X1168286Y633603D01*
X1168580Y628109D01*
X1168268Y626006D01*
X1168010Y625388D01*
X1167039Y623705D01*
X1166420Y621395D01*
Y619005D01*
X1167039Y616695D01*
X1168234Y614625D01*
X1166186Y604483D01*
X1162821Y601340D01*
X1143960D01*
Y588260D01*
X1164732D01*
X1170370Y578745D01*
X1169925Y576666D01*
X1168234Y574975D01*
X1167039Y572905D01*
X1166420Y570595D01*
Y568205D01*
X1167039Y565895D01*
X1168234Y563825D01*
X1166186Y553683D01*
X1162821Y550540D01*
X1143960D01*
Y537460D01*
X1164732D01*
X1170370Y527945D01*
X1169925Y525866D01*
X1168234Y524175D01*
X1167039Y522105D01*
X1166420Y519795D01*
Y517405D01*
X1167039Y515095D01*
X1168234Y513025D01*
X1169925Y511334D01*
X1171995Y510139D01*
X1174305Y509520D01*
X1176695D01*
X1179005Y510139D01*
X1181075Y511334D01*
X1181801Y512060D01*
X1207040D01*
Y525140D01*
X1186268D01*
X1180630Y534655D01*
X1181075Y536734D01*
X1182766Y538425D01*
X1183961Y540495D01*
X1184580Y542805D01*
Y545195D01*
X1183961Y547505D01*
X1182766Y549575D01*
X1184815Y559717D01*
X1188179Y562860D01*
X1207040D01*
Y575940D01*
X1186268D01*
X1180630Y585455D01*
X1181075Y587534D01*
X1182766Y589225D01*
X1183961Y591295D01*
X1184580Y593605D01*
Y595995D01*
X1183961Y598305D01*
X1182766Y600375D01*
X1184815Y610517D01*
X1188179Y613660D01*
X1207040D01*
Y623960D01*
X1207040Y626740D01*
X1213750Y633960D01*
X1341000D01*
Y476662D01*
X1299306Y452590D01*
X900694D01*
X858000Y477239D01*
Y538018D01*
X870622D01*
X872591Y538277D01*
X874425Y539036D01*
X876000Y540245D01*
X899628Y563872D01*
X900836Y565448D01*
X901596Y567282D01*
X901855Y569250D01*
Y625810D01*
X924960D01*
X925290Y625810D01*
X934960D01*
X935290Y625810D01*
X990040D01*
X990040Y625810D01*
Y625810D01*
X997370Y619363D01*
X1000166Y616566D01*
X1001833Y615452D01*
X1003800Y615061D01*
X1008839D01*
X1014145Y606262D01*
X1013785Y604483D01*
X1010421Y601340D01*
X991460D01*
Y588260D01*
X1012332D01*
X1017970Y578745D01*
X1017525Y576666D01*
X1015834Y574975D01*
X1014639Y572905D01*
X1014020Y570595D01*
Y568205D01*
X1014639Y565895D01*
X1015834Y563825D01*
X1013785Y553683D01*
X1010421Y550540D01*
X991460D01*
Y537460D01*
X1016799D01*
X1017525Y536734D01*
X1019595Y535539D01*
X1021905Y534920D01*
X1024295D01*
X1026605Y535539D01*
X1028088Y536395D01*
X1057263D01*
X1059231Y536654D01*
X1061066Y537414D01*
X1062641Y538622D01*
X1107378Y583359D01*
X1108586Y584934D01*
X1108901Y585694D01*
X1109346Y586768D01*
X1109605Y588737D01*
Y804350D01*
X1146450Y841195D01*
X1163998D01*
X1170141Y831674D01*
D02*
G37*
%LPC*%
G36*
X803500Y1632828D02*
X803068Y1632460D01*
X802561Y1632540D01*
X797439D01*
X792380Y1631739D01*
X787509Y1630156D01*
X782945Y1627831D01*
X778802Y1624820D01*
X775180Y1621198D01*
X772169Y1617055D01*
X769844Y1612491D01*
X768261Y1607620D01*
X767460Y1602561D01*
Y1597439D01*
X768261Y1592380D01*
X769844Y1587509D01*
X772169Y1582945D01*
X775180Y1578802D01*
X778802Y1575180D01*
X782945Y1572169D01*
X787509Y1569844D01*
X792380Y1568261D01*
X797439Y1567460D01*
X802561D01*
X803068Y1567540D01*
X803500Y1567172D01*
Y1567609D01*
X807620Y1568261D01*
X812491Y1569844D01*
X817055Y1572169D01*
X821198Y1575180D01*
X824820Y1578802D01*
X827831Y1582945D01*
X830156Y1587509D01*
X831739Y1592380D01*
X832540Y1597439D01*
Y1602561D01*
X831739Y1607620D01*
X830156Y1612491D01*
X827831Y1617055D01*
X824820Y1621198D01*
X821198Y1624820D01*
X817055Y1627831D01*
X812491Y1630156D01*
X807620Y1631739D01*
X803500Y1632391D01*
Y1632828D01*
D02*
G37*
G36*
X1402561Y1632540D02*
X1397439D01*
X1392380Y1631739D01*
X1387509Y1630156D01*
X1382945Y1627831D01*
X1378802Y1624820D01*
X1375180Y1621198D01*
X1372169Y1617055D01*
X1369844Y1612491D01*
X1368261Y1607620D01*
X1367460Y1602561D01*
Y1597439D01*
X1368261Y1592380D01*
X1369844Y1587509D01*
X1372169Y1582945D01*
X1375180Y1578802D01*
X1378802Y1575180D01*
X1382945Y1572169D01*
X1387509Y1569844D01*
X1392380Y1568261D01*
X1397439Y1567460D01*
X1402561D01*
X1407620Y1568261D01*
X1412491Y1569844D01*
X1417055Y1572169D01*
X1421198Y1575180D01*
X1424820Y1578802D01*
X1427831Y1582945D01*
X1430156Y1587509D01*
X1431739Y1592380D01*
X1432540Y1597439D01*
Y1602561D01*
X1431739Y1607620D01*
X1430156Y1612491D01*
X1427831Y1617055D01*
X1424820Y1621198D01*
X1421198Y1624820D01*
X1417055Y1627831D01*
X1412491Y1630156D01*
X1407620Y1631739D01*
X1402561Y1632540D01*
D02*
G37*
G36*
X1392091Y1477590D02*
X1386969D01*
X1381910Y1476789D01*
X1377039Y1475206D01*
X1372475Y1472881D01*
X1368332Y1469870D01*
X1365040Y1466579D01*
X1364710Y1466248D01*
X1361699Y1462105D01*
X1359374Y1457541D01*
X1357791Y1452670D01*
X1356990Y1447611D01*
Y1442489D01*
X1357791Y1437430D01*
X1359374Y1432559D01*
X1361699Y1427995D01*
X1364710Y1423852D01*
X1368332Y1420230D01*
X1372034Y1417540D01*
X1371667Y1415000D01*
X828333D01*
X827966Y1417540D01*
X831668Y1420230D01*
X835290Y1423852D01*
X838301Y1427995D01*
X840626Y1432559D01*
X842209Y1437430D01*
X843010Y1442489D01*
Y1447611D01*
X842209Y1452670D01*
X840626Y1457541D01*
X838301Y1462105D01*
X835290Y1466248D01*
X831668Y1469870D01*
X827525Y1472881D01*
X822961Y1475206D01*
X818090Y1476789D01*
X813031Y1477590D01*
X807909D01*
X805431Y1477198D01*
X805000Y1477566D01*
Y1477129D01*
X802850Y1476789D01*
X797979Y1475206D01*
X793415Y1472881D01*
X789272Y1469870D01*
X785650Y1466248D01*
X782639Y1462105D01*
X780314Y1457541D01*
X778731Y1452670D01*
X777930Y1447611D01*
Y1442489D01*
X778731Y1437430D01*
X780314Y1432559D01*
X782639Y1427995D01*
X785650Y1423852D01*
X789272Y1420230D01*
X793415Y1417219D01*
X797979Y1414894D01*
X802850Y1413311D01*
X805000Y1412971D01*
Y1391625D01*
X674000D01*
X673138Y1391540D01*
X672272D01*
X671423Y1391371D01*
X670562Y1391286D01*
X669733Y1391035D01*
X668884Y1390866D01*
X668084Y1390535D01*
X667255Y1390283D01*
X666491Y1389875D01*
X665692Y1389544D01*
X664972Y1389063D01*
X664208Y1388654D01*
X663539Y1388105D01*
X662819Y1387624D01*
X662207Y1387012D01*
X661537Y1386463D01*
X660988Y1385793D01*
X660376Y1385181D01*
X659895Y1384461D01*
X659345Y1383792D01*
X658937Y1383028D01*
X658456Y1382308D01*
X658125Y1381508D01*
X657717Y1380745D01*
X657465Y1379916D01*
X657134Y1379116D01*
X656965Y1378267D01*
X656714Y1377438D01*
X656629Y1376577D01*
X656460Y1375728D01*
Y1374862D01*
X656375Y1374000D01*
X656460Y1373138D01*
Y1372272D01*
X656629Y1371423D01*
X656714Y1370562D01*
X656965Y1369733D01*
X657134Y1368884D01*
X657465Y1368084D01*
X657717Y1367255D01*
X658125Y1366492D01*
X658456Y1365692D01*
X658937Y1364972D01*
X659345Y1364208D01*
X659895Y1363539D01*
X660376Y1362819D01*
X660988Y1362207D01*
X661537Y1361537D01*
X662207Y1360988D01*
X662819Y1360376D01*
X663539Y1359895D01*
X664208Y1359346D01*
X664972Y1358937D01*
X665692Y1358456D01*
X666491Y1358125D01*
X667255Y1357717D01*
X668084Y1357465D01*
X668884Y1357134D01*
X669733Y1356965D01*
X670562Y1356714D01*
X671423Y1356629D01*
X672272Y1356460D01*
X673138D01*
X674000Y1356375D01*
X1139000D01*
X1142438Y1356714D01*
X1145745Y1357717D01*
X1148792Y1359346D01*
X1151463Y1361537D01*
X1168300Y1378375D01*
X1362500D01*
Y1378875D01*
X1499500D01*
X1502938Y1379214D01*
X1506245Y1380217D01*
X1506790Y1380508D01*
X1508789Y1378696D01*
X1508134Y1377116D01*
X1507460Y1373728D01*
Y1370273D01*
X1508134Y1366884D01*
X1509456Y1363692D01*
X1511376Y1360819D01*
X1513819Y1358376D01*
X1516692Y1356456D01*
X1519884Y1355134D01*
X1523273Y1354460D01*
X1526727D01*
X1530116Y1355134D01*
X1533308Y1356456D01*
X1536181Y1358376D01*
X1538624Y1360819D01*
X1540544Y1363692D01*
X1541866Y1366884D01*
X1542540Y1370273D01*
Y1373728D01*
X1541866Y1377116D01*
X1540544Y1380308D01*
X1538624Y1383181D01*
X1536181Y1385624D01*
X1533308Y1387544D01*
X1530116Y1388866D01*
X1526727Y1389540D01*
X1523273D01*
X1520507Y1388990D01*
X1519242Y1390886D01*
X1519138Y1391213D01*
X1537463Y1409537D01*
X1538012Y1410207D01*
X1538624Y1410819D01*
X1539105Y1411539D01*
X1539655Y1412208D01*
X1540063Y1412972D01*
X1540544Y1413692D01*
X1540875Y1414491D01*
X1541283Y1415255D01*
X1541535Y1416084D01*
X1541866Y1416884D01*
X1542035Y1417733D01*
X1542286Y1418562D01*
X1542371Y1419423D01*
X1542540Y1420273D01*
Y1421138D01*
X1542625Y1422000D01*
X1542540Y1422862D01*
Y1423728D01*
X1542371Y1424577D01*
X1542286Y1425438D01*
X1542035Y1426267D01*
X1541866Y1427116D01*
X1541535Y1427916D01*
X1541283Y1428745D01*
X1540875Y1429508D01*
X1540544Y1430308D01*
X1540063Y1431028D01*
X1539655Y1431792D01*
X1539105Y1432461D01*
X1538624Y1433181D01*
X1538012Y1433793D01*
X1537463Y1434463D01*
X1536793Y1435012D01*
X1536181Y1435624D01*
X1535461Y1436105D01*
X1534792Y1436655D01*
X1534028Y1437063D01*
X1533308Y1437544D01*
X1532508Y1437875D01*
X1531745Y1438283D01*
X1530916Y1438535D01*
X1530116Y1438866D01*
X1529267Y1439035D01*
X1528438Y1439286D01*
X1527577Y1439371D01*
X1526727Y1439540D01*
X1525862D01*
X1525000Y1439625D01*
X1524138Y1439540D01*
X1523273D01*
X1522423Y1439371D01*
X1521561Y1439286D01*
X1520733Y1439035D01*
X1519884Y1438866D01*
X1519084Y1438535D01*
X1518255Y1438283D01*
X1517491Y1437875D01*
X1516692Y1437544D01*
X1515972Y1437063D01*
X1515208Y1436655D01*
X1514539Y1436105D01*
X1513819Y1435624D01*
X1513207Y1435012D01*
X1512537Y1434463D01*
X1492200Y1414125D01*
X1406106D01*
X1405497Y1416665D01*
X1406585Y1417219D01*
X1410728Y1420230D01*
X1414350Y1423852D01*
X1417361Y1427995D01*
X1419686Y1432559D01*
X1421269Y1437430D01*
X1422070Y1442489D01*
Y1447611D01*
X1421269Y1452670D01*
X1419686Y1457541D01*
X1417361Y1462105D01*
X1414350Y1466248D01*
X1410728Y1469870D01*
X1406585Y1472881D01*
X1402021Y1475206D01*
X1397150Y1476789D01*
X1392091Y1477590D01*
D02*
G37*
G36*
X1083500Y1254596D02*
X1023000D01*
X1021293Y1254372D01*
X1019702Y1253713D01*
X1018336Y1252664D01*
X1017287Y1251298D01*
X1016628Y1249707D01*
X1016404Y1248000D01*
X1016628Y1246293D01*
X1017287Y1244702D01*
X1018336Y1243336D01*
X1019702Y1242287D01*
X1021293Y1241628D01*
X1023000Y1241404D01*
X1081628D01*
X1082293Y1241128D01*
X1084000Y1240904D01*
X1085707Y1241128D01*
X1087298Y1241787D01*
X1088664Y1242836D01*
X1089713Y1244202D01*
X1090372Y1245793D01*
X1090596Y1247500D01*
X1090372Y1249207D01*
X1089713Y1250798D01*
X1088664Y1252164D01*
X1088164Y1252664D01*
X1086798Y1253713D01*
X1085207Y1254372D01*
X1083500Y1254596D01*
D02*
G37*
G36*
X1487848Y842740D02*
X1485152D01*
X1482547Y842042D01*
X1480213Y840694D01*
X1478306Y838788D01*
X1476958Y836452D01*
X1476260Y833848D01*
Y831152D01*
X1476958Y828548D01*
X1478306Y826212D01*
X1480213Y824306D01*
X1482547Y822958D01*
X1485152Y822260D01*
X1487848D01*
X1490453Y822958D01*
X1492787Y824306D01*
X1494694Y826212D01*
X1496042Y828548D01*
X1496740Y831152D01*
Y833848D01*
X1496042Y836452D01*
X1494694Y838788D01*
X1492787Y840694D01*
X1490453Y842042D01*
X1487848Y842740D01*
D02*
G37*
G36*
X1527728Y846540D02*
X1524272D01*
X1520884Y845866D01*
X1517692Y844544D01*
X1514819Y842624D01*
X1512376Y840181D01*
X1510456Y837308D01*
X1509134Y834116D01*
X1508460Y830727D01*
Y827272D01*
X1509134Y823884D01*
X1510456Y820692D01*
X1512376Y817819D01*
X1514819Y815376D01*
X1517692Y813456D01*
X1520884Y812134D01*
X1524272Y811460D01*
X1527728D01*
X1531116Y812134D01*
X1534308Y813456D01*
X1537181Y815376D01*
X1539624Y817819D01*
X1541544Y820692D01*
X1542866Y823884D01*
X1543540Y827272D01*
Y830727D01*
X1542866Y834116D01*
X1541544Y837308D01*
X1539624Y840181D01*
X1537181Y842624D01*
X1534308Y844544D01*
X1531116Y845866D01*
X1527728Y846540D01*
D02*
G37*
G36*
X1451740Y777740D02*
X1431260D01*
Y757260D01*
X1451740D01*
Y777740D01*
D02*
G37*
G36*
X754327Y667080D02*
X751673D01*
X749109Y666393D01*
X746811Y665066D01*
X744934Y663189D01*
X743607Y660891D01*
X742920Y658327D01*
Y655673D01*
X743607Y653109D01*
X744934Y650811D01*
X746811Y648934D01*
X749109Y647607D01*
X751673Y646920D01*
X754327D01*
X756891Y647607D01*
X759189Y648934D01*
X761066Y650811D01*
X762393Y653109D01*
X763080Y655673D01*
Y658327D01*
X762393Y660891D01*
X761066Y663189D01*
X759189Y665066D01*
X756891Y666393D01*
X754327Y667080D01*
D02*
G37*
G36*
X703327D02*
X700673D01*
X698109Y666393D01*
X695811Y665066D01*
X693934Y663189D01*
X692607Y660891D01*
X691920Y658327D01*
Y655673D01*
X692607Y653109D01*
X693934Y650811D01*
X695811Y648934D01*
X698109Y647607D01*
X700673Y646920D01*
X703327D01*
X705891Y647607D01*
X708189Y648934D01*
X710066Y650811D01*
X711393Y653109D01*
X712080Y655673D01*
Y658327D01*
X711393Y660891D01*
X710066Y663189D01*
X708189Y665066D01*
X705891Y666393D01*
X703327Y667080D01*
D02*
G37*
G36*
X1540561Y702540D02*
X1535439D01*
X1530380Y701739D01*
X1525509Y700156D01*
X1520945Y697831D01*
X1516802Y694820D01*
X1513180Y691198D01*
X1510169Y687055D01*
X1507844Y682491D01*
X1506261Y677620D01*
X1505460Y672561D01*
Y667439D01*
X1506261Y662380D01*
X1507844Y657509D01*
X1510169Y652945D01*
X1513180Y648802D01*
X1516802Y645180D01*
X1520945Y642169D01*
X1525509Y639844D01*
X1530380Y638261D01*
X1535439Y637460D01*
X1540561D01*
X1545620Y638261D01*
X1550491Y639844D01*
X1555055Y642169D01*
X1559198Y645180D01*
X1562820Y648802D01*
X1565831Y652945D01*
X1568156Y657509D01*
X1569739Y662380D01*
X1570540Y667439D01*
Y672561D01*
X1569739Y677620D01*
X1568156Y682491D01*
X1565831Y687055D01*
X1562820Y691198D01*
X1559198Y694820D01*
X1555055Y697831D01*
X1550491Y700156D01*
X1545620Y701739D01*
X1540561Y702540D01*
D02*
G37*
G36*
X1402561Y632540D02*
X1397439D01*
X1392380Y631739D01*
X1387509Y630156D01*
X1382945Y627831D01*
X1378802Y624820D01*
X1375180Y621198D01*
X1372169Y617055D01*
X1369844Y612491D01*
X1368261Y607620D01*
X1367460Y602561D01*
Y597439D01*
X1368261Y592380D01*
X1369844Y587509D01*
X1372169Y582945D01*
X1375180Y578802D01*
X1378802Y575180D01*
X1382945Y572169D01*
X1387509Y569844D01*
X1392380Y568261D01*
X1397439Y567460D01*
X1402561D01*
X1407620Y568261D01*
X1412491Y569844D01*
X1417055Y572169D01*
X1421198Y575180D01*
X1424820Y578802D01*
X1427831Y582945D01*
X1430156Y587509D01*
X1431739Y592380D01*
X1432540Y597439D01*
Y602561D01*
X1431739Y607620D01*
X1430156Y612491D01*
X1427831Y617055D01*
X1424820Y621198D01*
X1421198Y624820D01*
X1417055Y627831D01*
X1412491Y630156D01*
X1407620Y631739D01*
X1402561Y632540D01*
D02*
G37*
G36*
X1024295Y502280D02*
X1021905D01*
X1019595Y501661D01*
X1017525Y500466D01*
X1016799Y499740D01*
X991460D01*
Y486660D01*
X1016799D01*
X1017525Y485934D01*
X1019595Y484739D01*
X1021905Y484120D01*
X1024295D01*
X1026605Y484739D01*
X1028675Y485934D01*
X1030366Y487625D01*
X1031561Y489695D01*
X1032180Y492005D01*
Y494395D01*
X1031561Y496705D01*
X1030366Y498775D01*
X1028675Y500466D01*
X1026605Y501661D01*
X1024295Y502280D01*
D02*
G37*
%LPD*%
D13*
X1261200Y747200D02*
X1304960Y790960D01*
Y791159D01*
X1310841Y797040D01*
X1175500Y747200D02*
X1261200D01*
X1310841Y797040D02*
X1311040D01*
X1352500Y838500D01*
Y923000D01*
X1260600Y772600D02*
X1333500Y845500D01*
Y935000D01*
X1192500Y772600D02*
X1260600D01*
X1265500Y798000D02*
X1314500Y847000D01*
Y959500D01*
X1175500Y798000D02*
X1265500D01*
X941000Y1125500D02*
Y1150000D01*
X832500Y883000D02*
X968300Y747200D01*
X1023100D01*
X1218000Y966000D02*
Y1019000D01*
X1210400Y1026600D02*
X1218000Y1019000D01*
X1192500Y1026600D02*
X1210400D01*
X1321000Y986000D02*
Y1035000D01*
X1302000Y927000D02*
Y967000D01*
X1321000Y986000D01*
X1200803Y885803D02*
X1295500Y980500D01*
Y1113000D01*
X1273000Y898000D02*
X1302000Y927000D01*
X1314500Y959500D02*
X1366500Y1011500D01*
X1200803Y875700D02*
Y885803D01*
X1192500Y925000D02*
X1200500D01*
X1202000Y926500D01*
Y930000D01*
X1250500Y978500D02*
Y1129500D01*
X1202000Y930000D02*
X1250500Y978500D01*
X1276000Y984000D02*
Y1124000D01*
X1191600Y899600D02*
X1276000Y984000D01*
X1175500Y899600D02*
X1191600D01*
X1192500Y874200D02*
X1199303D01*
X1200803Y875700D01*
X1005500Y645600D02*
X1006000D01*
X1004000Y647100D02*
Y651000D01*
Y647100D02*
X1005500Y645600D01*
X995000Y660000D02*
X1004000Y651000D01*
X962500Y660000D02*
X995000D01*
X989000Y635000D02*
X1003800Y620200D01*
X962900Y635000D02*
X989000D01*
X962500Y634600D02*
X962900Y635000D01*
X1003800Y620200D02*
X1023100D01*
X980309Y1090191D02*
X980500Y1090000D01*
X941000Y1125500D02*
X976309Y1090191D01*
X980309D01*
X1192500Y1077400D02*
X1221900D01*
X1175500D02*
X1192500D01*
X1221900D02*
X1239500Y1095000D01*
X1175500Y772600D02*
X1192500D01*
X851500Y893000D02*
X971900Y772600D01*
X1023100D01*
X983400Y798000D02*
X1023100D01*
X869000Y912400D02*
X983400Y798000D01*
X1006000Y950400D02*
X1023100D01*
X985600D02*
X1006000D01*
X845000Y1091000D02*
X985600Y950400D01*
X865000Y1094000D02*
X983200Y975800D01*
X1023100D01*
X1006000Y1001200D02*
X1023100D01*
X981800D02*
X1006000D01*
X885000Y1098000D02*
X981800Y1001200D01*
X1366500Y1214500D02*
Y1244500D01*
X1276000Y1124000D02*
X1366500Y1214500D01*
X1346000Y1225000D02*
Y1246500D01*
X1250500Y1129500D02*
X1346000Y1225000D01*
X1295500Y1113000D02*
X1366500Y1184000D01*
X832500Y1015000D02*
X846000D01*
X869000Y992000D01*
Y912400D02*
Y992000D01*
X831500Y1083000D02*
X833500D01*
X845000Y1071500D01*
X1354500Y1095500D02*
X1372000D01*
X1372500Y1095000D01*
X832500Y1187500D02*
X845000Y1175000D01*
X885000Y1098000D02*
Y1175000D01*
X832500Y1227500D02*
Y1262500D01*
Y1227500D02*
X885000Y1175000D01*
X837500Y1202500D02*
X865000Y1175000D01*
X832500Y1202500D02*
X837500D01*
X865000Y1094000D02*
Y1175000D01*
X845000Y1091000D02*
Y1175000D01*
X832500Y883000D02*
Y940000D01*
X851500Y893000D02*
Y936000D01*
X832500Y955000D02*
X851500Y936000D01*
X1358500Y1259000D02*
X1366500D01*
X1346000Y1246500D02*
X1358500Y1259000D01*
X1333500Y935000D02*
X1366500Y968000D01*
Y997000D01*
X1352500Y923000D02*
X1366500Y937000D01*
X731250Y940000D02*
X791750D01*
X730947Y1015500D02*
X791479D01*
X712496Y997049D02*
X730947Y1015500D01*
X712250Y959000D02*
X731250Y940000D01*
X1468250Y1012500D02*
X1487250Y993500D01*
X1407750Y1012500D02*
X1468250D01*
X1408021Y937000D02*
X1468553D01*
X1487004Y955451D01*
X712000Y1206500D02*
X731000Y1187500D01*
X791500D01*
X712246Y1244549D02*
X730697Y1263000D01*
X791229D01*
X1407500Y1259750D02*
X1468000D01*
X1487000Y1240750D01*
X1407771Y1184250D02*
X1468303D01*
X1486754Y1202701D01*
D23*
X962500Y634600D02*
D03*
Y685400D02*
D03*
Y660000D02*
D03*
X897750Y685400D02*
D03*
Y660000D02*
D03*
Y634600D02*
D03*
D56*
X1486500Y832500D02*
D03*
Y767500D02*
D03*
X1441500Y832500D02*
D03*
D57*
Y767500D02*
D03*
D64*
X1318000Y786000D02*
X1353769D01*
X1400269Y832500D01*
X1441500D01*
X1158500Y848800D02*
X1175500D01*
X673000Y829000D02*
X833000D01*
X670000D02*
X673000D01*
X753000Y690000D02*
Y715000D01*
X702000Y690000D02*
Y715000D01*
X651000Y690000D02*
Y715000D01*
X651000Y628144D02*
Y657000D01*
X651000Y624475D02*
X655979Y619496D01*
X783206Y545622D01*
X651000Y628144D02*
X651000Y624475D01*
X843000Y660000D02*
X897750D01*
X833000Y829000D02*
X878000Y784000D01*
X670000Y779000D02*
X702000Y747000D01*
Y715000D02*
Y747000D01*
X651000Y715000D02*
X702000D01*
X651000D02*
X651000Y715000D01*
X702000Y715000D02*
X753000D01*
X702000D02*
X702000Y715000D01*
X753000Y715000D02*
X753000Y715000D01*
X894250Y569250D02*
Y634600D01*
X783206Y545622D02*
X870622D01*
X1025000Y1105000D02*
X1211000D01*
X993000Y1073000D02*
X1025000Y1105000D01*
X993000Y1072000D02*
Y1073000D01*
X1143300Y848800D02*
X1158500D01*
X1102000Y588737D02*
Y807500D01*
X1143300Y848800D01*
X1057263Y544000D02*
X1102000Y588737D01*
X1023100Y544000D02*
X1057263D01*
X897500Y1010000D02*
X929500Y978000D01*
Y918500D02*
Y978000D01*
X870622Y545622D02*
X894250Y569250D01*
D65*
X753000Y690000D02*
X754916D01*
X759516Y685400D01*
X899400D01*
X900000Y686000D01*
X1099814Y1210186D02*
Y1216814D01*
X1101700Y1218700D01*
X1099814Y1210186D02*
X1100000Y1210000D01*
X1101700Y1218700D02*
Y1278350D01*
X1083500Y1248000D02*
X1084000Y1247500D01*
X1023000Y1248000D02*
X1083500D01*
D66*
X1364600Y645600D02*
X1486500Y767500D01*
X1175500Y645600D02*
X1364600D01*
D67*
X1160000Y1396000D02*
X1290000D01*
X1291500Y1396500D02*
X1499500D01*
X1525000Y1422000D01*
X1139000Y1374000D02*
X1160000Y1395000D01*
X674000Y1374000D02*
X1139000D01*
D71*
X1175500Y493200D02*
D03*
Y518600D02*
D03*
X1023100Y848800D02*
D03*
X1175500Y544000D02*
D03*
Y569400D02*
D03*
Y594800D02*
D03*
Y620200D02*
D03*
Y645600D02*
D03*
Y671000D02*
D03*
Y696400D02*
D03*
Y721800D02*
D03*
Y747200D02*
D03*
Y772600D02*
D03*
Y798000D02*
D03*
Y823400D02*
D03*
X1023100D02*
D03*
Y798000D02*
D03*
Y772600D02*
D03*
Y747200D02*
D03*
Y721800D02*
D03*
Y696400D02*
D03*
Y671000D02*
D03*
Y645600D02*
D03*
Y620200D02*
D03*
Y594800D02*
D03*
Y569400D02*
D03*
Y544000D02*
D03*
Y518600D02*
D03*
Y493200D02*
D03*
X1175500Y874200D02*
D03*
Y899600D02*
D03*
Y925000D02*
D03*
Y950400D02*
D03*
Y975800D02*
D03*
Y1001200D02*
D03*
Y1026600D02*
D03*
Y1052000D02*
D03*
Y1077400D02*
D03*
X1023100D02*
D03*
Y1052000D02*
D03*
Y1026600D02*
D03*
Y1001200D02*
D03*
Y975800D02*
D03*
Y950400D02*
D03*
Y925000D02*
D03*
Y899600D02*
D03*
Y874200D02*
D03*
X1175500Y848800D02*
D03*
D72*
X940000Y1199130D02*
D03*
Y1150000D02*
D03*
D73*
X674000Y1374000D02*
D03*
Y1424000D02*
D03*
X1526000Y829000D02*
D03*
Y779000D02*
D03*
X1525000Y1372000D02*
D03*
Y1422000D02*
D03*
X674000Y1250500D02*
D03*
Y1200500D02*
D03*
X1525000Y1246750D02*
D03*
Y1196750D02*
D03*
X674250Y1003000D02*
D03*
Y953000D02*
D03*
X1525250Y999500D02*
D03*
Y949500D02*
D03*
X673000Y829000D02*
D03*
Y779000D02*
D03*
D74*
X651000Y707000D02*
D03*
Y657000D02*
D03*
X651000Y682000D02*
D03*
X702000Y707000D02*
D03*
Y657000D02*
D03*
X702000Y682000D02*
D03*
X753000Y707000D02*
D03*
Y657000D02*
D03*
X753000Y682000D02*
D03*
D75*
X1273000Y923400D02*
D03*
Y847200D02*
D03*
Y872600D02*
D03*
Y898000D02*
D03*
D76*
X1466000Y670000D02*
D03*
X1538000D02*
D03*
X800000Y600000D02*
D03*
X810470Y754950D02*
D03*
Y1445050D02*
D03*
X800000Y1600000D02*
D03*
X1400000D02*
D03*
X1389530Y1445050D02*
D03*
X1400000Y600000D02*
D03*
X1389824Y754787D02*
D03*
D77*
X1318000Y786000D02*
D03*
X843000Y660000D02*
D03*
X878000Y784000D02*
D03*
X1290000Y1355000D02*
D03*
X1218000Y966000D02*
D03*
X1321000Y1035000D02*
D03*
X1211000Y1105000D02*
D03*
X965000Y1150000D02*
D03*
X985000D02*
D03*
X963000Y685000D02*
D03*
X900000Y686000D02*
D03*
X819250Y906000D02*
D03*
X819250Y928000D02*
D03*
Y913000D02*
D03*
Y920500D02*
D03*
X811750Y928000D02*
D03*
X811250Y906000D02*
D03*
X804250D02*
D03*
X804250Y913000D02*
D03*
X797250Y906000D02*
D03*
X758500Y887500D02*
D03*
X766500D02*
D03*
X751500D02*
D03*
X744250Y888000D02*
D03*
X751250Y903000D02*
D03*
X744250Y910500D02*
D03*
X744250Y896000D02*
D03*
Y903000D02*
D03*
X751500Y895500D02*
D03*
X729250Y903000D02*
D03*
Y895500D02*
D03*
Y888000D02*
D03*
X721750Y903000D02*
D03*
Y888000D02*
D03*
X736750Y903000D02*
D03*
Y888000D02*
D03*
X721750Y895500D02*
D03*
X736750D02*
D03*
X751750Y918000D02*
D03*
X766750Y925500D02*
D03*
X758500Y895500D02*
D03*
X758250Y903000D02*
D03*
X751750Y910500D02*
D03*
Y925500D02*
D03*
X766000Y903000D02*
D03*
X759250Y918000D02*
D03*
X766500Y895500D02*
D03*
X759250Y925500D02*
D03*
X766750Y910500D02*
D03*
Y918000D02*
D03*
X759250Y910500D02*
D03*
X714250Y903000D02*
D03*
X706750D02*
D03*
Y895500D02*
D03*
X714250D02*
D03*
X706750Y888000D02*
D03*
X714250Y925500D02*
D03*
Y933000D02*
D03*
X706750Y925500D02*
D03*
Y918000D02*
D03*
X714250D02*
D03*
X706750Y910500D02*
D03*
X714250Y888000D02*
D03*
Y910500D02*
D03*
X706750Y933000D02*
D03*
X819500Y891500D02*
D03*
X811500Y898500D02*
D03*
X797500D02*
D03*
Y891500D02*
D03*
X811500D02*
D03*
X804500D02*
D03*
X819500Y898500D02*
D03*
X804500D02*
D03*
X699250Y1023000D02*
D03*
Y1030500D02*
D03*
X804250Y920500D02*
D03*
X791750Y940000D02*
D03*
X706750Y1045500D02*
D03*
Y1023000D02*
D03*
Y1038000D02*
D03*
Y1060500D02*
D03*
Y1068000D02*
D03*
X714250Y1060500D02*
D03*
Y1068000D02*
D03*
Y1030500D02*
D03*
Y1023000D02*
D03*
Y1038000D02*
D03*
Y1045500D02*
D03*
Y1053000D02*
D03*
X706750D02*
D03*
Y1030500D02*
D03*
X729000Y1068000D02*
D03*
X721750Y1053000D02*
D03*
Y1068000D02*
D03*
Y1038000D02*
D03*
Y1060500D02*
D03*
Y1045500D02*
D03*
X719250Y975500D02*
D03*
X711750D02*
D03*
X719250Y983000D02*
D03*
X712496Y997049D02*
D03*
X721750Y1030500D02*
D03*
Y1023000D02*
D03*
X711750Y983000D02*
D03*
X712250Y959000D02*
D03*
X741750Y983000D02*
D03*
X726750Y990500D02*
D03*
Y983000D02*
D03*
X749250D02*
D03*
Y990500D02*
D03*
X741750D02*
D03*
X734250D02*
D03*
Y998000D02*
D03*
X741750D02*
D03*
X749250D02*
D03*
X734250Y983000D02*
D03*
X726750Y975500D02*
D03*
X734250D02*
D03*
Y968000D02*
D03*
X741750D02*
D03*
X749250D02*
D03*
Y975500D02*
D03*
X741750D02*
D03*
X736750Y918000D02*
D03*
Y925500D02*
D03*
X744250D02*
D03*
X729250Y910500D02*
D03*
X744250Y918000D02*
D03*
X721750Y933000D02*
D03*
Y910500D02*
D03*
Y925500D02*
D03*
X729250Y918000D02*
D03*
X736750Y910500D02*
D03*
X721750Y918000D02*
D03*
X729250Y925500D02*
D03*
X796750Y920500D02*
D03*
Y913000D02*
D03*
X811750D02*
D03*
Y920500D02*
D03*
X1417750Y902000D02*
D03*
Y909500D02*
D03*
X1410250Y917000D02*
D03*
X1417750D02*
D03*
X1402750Y909500D02*
D03*
Y917000D02*
D03*
Y902000D02*
D03*
Y887000D02*
D03*
X1410250Y894500D02*
D03*
X1402750D02*
D03*
X1417750D02*
D03*
Y887000D02*
D03*
X1410250D02*
D03*
X1387750Y894500D02*
D03*
X1395250Y902000D02*
D03*
Y894500D02*
D03*
Y887000D02*
D03*
X1387750D02*
D03*
X789250Y1058000D02*
D03*
X804250D02*
D03*
Y1065500D02*
D03*
X796750D02*
D03*
X811750Y1058000D02*
D03*
Y1065500D02*
D03*
X796750Y1058000D02*
D03*
X781750Y1065500D02*
D03*
X789250D02*
D03*
X819250D02*
D03*
Y1043000D02*
D03*
X811750Y1050500D02*
D03*
X804250Y1043000D02*
D03*
Y1035500D02*
D03*
X811750Y1043000D02*
D03*
X819250Y1050500D02*
D03*
X804250Y1028000D02*
D03*
X819250Y1035500D02*
D03*
X811750D02*
D03*
X804250Y1050500D02*
D03*
X741750Y960500D02*
D03*
X734250D02*
D03*
X749250D02*
D03*
X726750Y968000D02*
D03*
X781750Y1050500D02*
D03*
X796750D02*
D03*
X781750Y1043000D02*
D03*
X791750Y1015500D02*
D03*
X796750Y1035500D02*
D03*
Y1043000D02*
D03*
Y1028000D02*
D03*
X789250Y1043000D02*
D03*
Y1035500D02*
D03*
Y1028000D02*
D03*
X781750D02*
D03*
Y1035500D02*
D03*
X789250Y1050500D02*
D03*
X729250Y1053000D02*
D03*
Y1030500D02*
D03*
Y1038000D02*
D03*
X819250Y1058000D02*
D03*
X781750D02*
D03*
X729250Y1060500D02*
D03*
Y1045500D02*
D03*
X804250Y928000D02*
D03*
X796750D02*
D03*
X1380250Y1039500D02*
D03*
Y1032000D02*
D03*
X1387750Y1024500D02*
D03*
Y1032000D02*
D03*
Y1039500D02*
D03*
X1402750Y1032000D02*
D03*
Y1024500D02*
D03*
X1395250D02*
D03*
Y1032000D02*
D03*
Y1039500D02*
D03*
X1402750D02*
D03*
X1380250Y1024500D02*
D03*
X1450250Y984500D02*
D03*
Y977000D02*
D03*
Y969500D02*
D03*
Y992000D02*
D03*
Y954500D02*
D03*
X1457750Y969500D02*
D03*
Y962000D02*
D03*
Y977000D02*
D03*
Y992000D02*
D03*
Y954500D02*
D03*
X1450250Y962000D02*
D03*
X1457750Y984500D02*
D03*
X1472750Y969500D02*
D03*
Y984500D02*
D03*
X1465250Y969500D02*
D03*
X1487250Y993500D02*
D03*
X1495250Y969500D02*
D03*
X1487750D02*
D03*
X1480250D02*
D03*
Y977000D02*
D03*
X1472750D02*
D03*
X1487750D02*
D03*
X1495250D02*
D03*
X1465250D02*
D03*
X1470250Y1027000D02*
D03*
X1462750Y1034500D02*
D03*
X1470250D02*
D03*
X1462750Y1027000D02*
D03*
X1465250Y984500D02*
D03*
Y992000D02*
D03*
X1402000Y1061000D02*
D03*
Y1054000D02*
D03*
X1402250Y1046500D02*
D03*
X1395000Y1054000D02*
D03*
X1395250Y1046500D02*
D03*
X1395000Y1061000D02*
D03*
X1388250Y1046500D02*
D03*
X1388000Y1061000D02*
D03*
X1433000Y1065000D02*
D03*
X1433500Y1049500D02*
D03*
X1433000Y1057000D02*
D03*
X1380250Y1046500D02*
D03*
X1380000Y1054000D02*
D03*
X1388000D02*
D03*
X1380000Y1061000D02*
D03*
X1395250Y909500D02*
D03*
Y917000D02*
D03*
X1387750Y902000D02*
D03*
Y909500D02*
D03*
Y917000D02*
D03*
X1410250Y902000D02*
D03*
Y909500D02*
D03*
X1485250Y1049500D02*
D03*
Y1057000D02*
D03*
Y1064500D02*
D03*
X1447750Y1034500D02*
D03*
Y1042000D02*
D03*
Y1027000D02*
D03*
X1387750Y924500D02*
D03*
X1455250Y1064500D02*
D03*
X1441000Y1065000D02*
D03*
X1448000Y1057000D02*
D03*
X1455250Y1056500D02*
D03*
X1448250Y1049500D02*
D03*
X1441000Y1057000D02*
D03*
X1441250Y1049500D02*
D03*
X1448000Y1065000D02*
D03*
X1455250Y1049500D02*
D03*
X1477750Y1027000D02*
D03*
X1492750D02*
D03*
X1485250Y1019500D02*
D03*
X1492750D02*
D03*
X1485250Y1027000D02*
D03*
X1500250D02*
D03*
X1477750Y1019500D02*
D03*
X1500250D02*
D03*
X1470250Y1049500D02*
D03*
X1462750Y1064500D02*
D03*
X1470250D02*
D03*
X1462750Y1049500D02*
D03*
X1470250Y1057000D02*
D03*
X1462750D02*
D03*
X1492750Y929500D02*
D03*
X1500250D02*
D03*
X1477750D02*
D03*
X1465250Y962000D02*
D03*
Y954500D02*
D03*
X1485250Y929500D02*
D03*
X1472750Y962000D02*
D03*
X1487004Y955451D02*
D03*
X1492750Y1042000D02*
D03*
X1500250Y1064500D02*
D03*
Y1057000D02*
D03*
X1492750Y1049500D02*
D03*
Y1064500D02*
D03*
Y1057000D02*
D03*
X1500250Y1049500D02*
D03*
Y1042000D02*
D03*
X1492750Y1034500D02*
D03*
X1500250D02*
D03*
X1485250D02*
D03*
X1477750D02*
D03*
X1440250Y1042000D02*
D03*
Y1034500D02*
D03*
Y1027000D02*
D03*
X1432750Y1034500D02*
D03*
Y1027000D02*
D03*
Y1042000D02*
D03*
X1462750D02*
D03*
X1477750D02*
D03*
X1470250D02*
D03*
X1485250D02*
D03*
X1407750Y1012500D02*
D03*
X1417500Y1149250D02*
D03*
X1410000Y1141750D02*
D03*
X1402500Y1171750D02*
D03*
Y1156750D02*
D03*
Y1164250D02*
D03*
X1395000Y1171750D02*
D03*
Y1156750D02*
D03*
Y1164250D02*
D03*
X1410000Y1149250D02*
D03*
Y1156750D02*
D03*
X1402500Y1134250D02*
D03*
Y1149250D02*
D03*
X1395000D02*
D03*
X1402500Y1141750D02*
D03*
X1395000D02*
D03*
Y1134250D02*
D03*
X1387500Y1171750D02*
D03*
X1380000Y1164250D02*
D03*
X1387500Y1149250D02*
D03*
Y1156750D02*
D03*
Y1141750D02*
D03*
Y1164250D02*
D03*
X1380000Y1156750D02*
D03*
Y1149250D02*
D03*
X1486754Y1202701D02*
D03*
X1407500Y1184250D02*
D03*
X1487000Y1240750D02*
D03*
X1407500Y1259750D02*
D03*
X1487500Y1224250D02*
D03*
X1495000Y1216750D02*
D03*
X1487500D02*
D03*
X1480000D02*
D03*
X1495000Y1224250D02*
D03*
X1480000D02*
D03*
X1432500Y1274250D02*
D03*
X1492500Y1266750D02*
D03*
X1485000Y1274250D02*
D03*
Y1266750D02*
D03*
X1492500Y1176750D02*
D03*
X1485000D02*
D03*
Y1169250D02*
D03*
X1380000Y1286750D02*
D03*
Y1279250D02*
D03*
X1447500Y1289250D02*
D03*
X1455000D02*
D03*
X1455000Y1296750D02*
D03*
X1440000Y1281750D02*
D03*
X1455000Y1274250D02*
D03*
X1447500D02*
D03*
X1455000Y1281750D02*
D03*
X1447500D02*
D03*
X1440000Y1274250D02*
D03*
X1432500Y1281750D02*
D03*
Y1289250D02*
D03*
X1395000Y1279250D02*
D03*
X1387500D02*
D03*
Y1286750D02*
D03*
X1402500Y1279250D02*
D03*
X1395000Y1286750D02*
D03*
X1402500D02*
D03*
X1492500Y1274250D02*
D03*
X1500000Y1266750D02*
D03*
Y1274250D02*
D03*
X1492500Y1281750D02*
D03*
X1260000Y1355000D02*
D03*
X1250000D02*
D03*
X1240000D02*
D03*
X1230000D02*
D03*
X1220000D02*
D03*
X1210000D02*
D03*
X1200000D02*
D03*
X1190000D02*
D03*
X1130000Y1150000D02*
D03*
X1115000D02*
D03*
X1100000D02*
D03*
Y1165000D02*
D03*
X1115000D02*
D03*
X1130000D02*
D03*
Y1180000D02*
D03*
X1115000D02*
D03*
X1100000D02*
D03*
X1200000Y1395000D02*
D03*
Y1405000D02*
D03*
X1190000D02*
D03*
Y1395000D02*
D03*
Y1385000D02*
D03*
X1180000D02*
D03*
Y1395000D02*
D03*
Y1405000D02*
D03*
X1170000D02*
D03*
Y1395000D02*
D03*
Y1385000D02*
D03*
X1160000D02*
D03*
Y1395000D02*
D03*
Y1405000D02*
D03*
X960550Y553640D02*
D03*
X947850D02*
D03*
X935150D02*
D03*
X1084000Y1247500D02*
D03*
X1023000Y1248000D02*
D03*
X1432750Y1312250D02*
D03*
X1455000Y1311750D02*
D03*
X1440750Y1312250D02*
D03*
X1447750D02*
D03*
X1455000Y1303750D02*
D03*
X1447750Y1304250D02*
D03*
X1448000Y1296750D02*
D03*
X1441000D02*
D03*
X1440750Y1304250D02*
D03*
X1440000Y1289250D02*
D03*
X1433250Y1296750D02*
D03*
X1432750Y1304250D02*
D03*
X1401750Y1301250D02*
D03*
Y1308250D02*
D03*
X1402000Y1293750D02*
D03*
X1394750Y1301250D02*
D03*
Y1308250D02*
D03*
X1395000Y1293750D02*
D03*
X1388000D02*
D03*
X1387750Y1301250D02*
D03*
X1380000Y1293750D02*
D03*
X1477500Y1131750D02*
D03*
X1470000Y1139250D02*
D03*
X1470250Y1131750D02*
D03*
X1410000Y1164250D02*
D03*
X1417500Y1156750D02*
D03*
X1005000Y1195000D02*
D03*
X985000D02*
D03*
X965000D02*
D03*
X1085000Y1180000D02*
D03*
Y1210000D02*
D03*
X1065000D02*
D03*
X1045000D02*
D03*
X1025000D02*
D03*
X1005000D02*
D03*
X985000D02*
D03*
X965000D02*
D03*
X1290000Y1385000D02*
D03*
Y1395000D02*
D03*
Y1405000D02*
D03*
X1280000Y1385000D02*
D03*
Y1395000D02*
D03*
Y1405000D02*
D03*
X1270000Y1385000D02*
D03*
Y1395000D02*
D03*
Y1405000D02*
D03*
X1260000Y1385000D02*
D03*
Y1395000D02*
D03*
Y1405000D02*
D03*
X1250000D02*
D03*
Y1395000D02*
D03*
Y1385000D02*
D03*
X1240000D02*
D03*
Y1395000D02*
D03*
Y1405000D02*
D03*
X1230000D02*
D03*
Y1395000D02*
D03*
Y1385000D02*
D03*
X1220000D02*
D03*
Y1395000D02*
D03*
Y1405000D02*
D03*
X1210000D02*
D03*
Y1395000D02*
D03*
Y1385000D02*
D03*
X1200000D02*
D03*
X1290000Y1335000D02*
D03*
X1280000D02*
D03*
X1270000D02*
D03*
X1260000D02*
D03*
X1250000D02*
D03*
X1240000D02*
D03*
X1230000D02*
D03*
X1220000D02*
D03*
X1210000D02*
D03*
X1200000D02*
D03*
X1190000D02*
D03*
Y1345000D02*
D03*
X1200000D02*
D03*
X1210000D02*
D03*
X1220000D02*
D03*
X1230000D02*
D03*
X1240000D02*
D03*
X1250000D02*
D03*
X1260000D02*
D03*
X1270000D02*
D03*
X1280000D02*
D03*
X1290000D02*
D03*
X1280000Y1355000D02*
D03*
X1270000D02*
D03*
X1100000Y1195000D02*
D03*
X1115000D02*
D03*
X1130000D02*
D03*
Y1210000D02*
D03*
X1115000D02*
D03*
X1100000D02*
D03*
X1065000Y1150000D02*
D03*
X1085000D02*
D03*
Y1165000D02*
D03*
X1065000D02*
D03*
X1045000Y1150000D02*
D03*
Y1165000D02*
D03*
X1025000Y1150000D02*
D03*
Y1165000D02*
D03*
X1005000Y1150000D02*
D03*
Y1165000D02*
D03*
X985000D02*
D03*
X965000D02*
D03*
Y1180000D02*
D03*
X985000D02*
D03*
X1005000D02*
D03*
X1025000D02*
D03*
X1045000D02*
D03*
X1065000D02*
D03*
X1085000Y1195000D02*
D03*
X1065000D02*
D03*
X1045000D02*
D03*
X1025000D02*
D03*
X714000Y1165500D02*
D03*
X706500Y1180500D02*
D03*
X714000D02*
D03*
X729000Y1173000D02*
D03*
X721500D02*
D03*
X729000Y1165500D02*
D03*
X721500D02*
D03*
Y1180500D02*
D03*
X706500Y1173000D02*
D03*
Y1165500D02*
D03*
X714000Y1173000D02*
D03*
X706500Y1158000D02*
D03*
Y1143000D02*
D03*
Y1135500D02*
D03*
X714000Y1158000D02*
D03*
X721500Y1150500D02*
D03*
X714000D02*
D03*
X721500Y1143000D02*
D03*
X714000D02*
D03*
X721500Y1135500D02*
D03*
X714000D02*
D03*
X706500Y1150500D02*
D03*
X721500Y1158000D02*
D03*
X1492750Y922000D02*
D03*
X1500250D02*
D03*
X1492750Y907000D02*
D03*
X1500250D02*
D03*
X1492750Y914500D02*
D03*
X1500250D02*
D03*
X1485250Y922000D02*
D03*
Y914500D02*
D03*
Y907000D02*
D03*
Y899500D02*
D03*
X1477750D02*
D03*
Y892000D02*
D03*
X1485250D02*
D03*
Y884500D02*
D03*
X1477750D02*
D03*
X1470250Y907000D02*
D03*
X1477750Y914500D02*
D03*
X1470250Y922000D02*
D03*
X1477750Y907000D02*
D03*
Y922000D02*
D03*
X1470250Y914500D02*
D03*
Y892000D02*
D03*
X1470500Y884500D02*
D03*
X1470250Y899500D02*
D03*
X1492750Y884500D02*
D03*
Y892000D02*
D03*
X1500250Y884500D02*
D03*
Y899500D02*
D03*
X1492750D02*
D03*
X1500250Y892000D02*
D03*
X1395250Y924500D02*
D03*
X1402750D02*
D03*
X1407750Y937000D02*
D03*
X1410250Y924500D02*
D03*
X1417750D02*
D03*
X1455250Y1027000D02*
D03*
Y1034500D02*
D03*
Y1042000D02*
D03*
X1477750Y1057000D02*
D03*
Y1049500D02*
D03*
Y1064500D02*
D03*
X741500Y1238000D02*
D03*
X749000D02*
D03*
X741500Y1230500D02*
D03*
Y1223000D02*
D03*
X749000D02*
D03*
Y1215500D02*
D03*
X741500D02*
D03*
Y1208000D02*
D03*
X749000Y1230500D02*
D03*
Y1208000D02*
D03*
X726500Y1238000D02*
D03*
X719000Y1223000D02*
D03*
X711500D02*
D03*
Y1230500D02*
D03*
X712000Y1206500D02*
D03*
X712246Y1244549D02*
D03*
X726500Y1230500D02*
D03*
Y1223000D02*
D03*
Y1215500D02*
D03*
X719000Y1230500D02*
D03*
X758250Y1143000D02*
D03*
X751000Y1150500D02*
D03*
X758000D02*
D03*
X765750D02*
D03*
X759000Y1158000D02*
D03*
X766250Y1143000D02*
D03*
X751250D02*
D03*
X744000Y1143500D02*
D03*
X736500Y1158000D02*
D03*
X744000D02*
D03*
X736500Y1150500D02*
D03*
X729000Y1158000D02*
D03*
X744000Y1150500D02*
D03*
X736500Y1143000D02*
D03*
X729000Y1150500D02*
D03*
Y1143000D02*
D03*
Y1135500D02*
D03*
X736500D02*
D03*
X744000D02*
D03*
X797250Y1139000D02*
D03*
X796500Y1160500D02*
D03*
X797250Y1146000D02*
D03*
X797000Y1153500D02*
D03*
X796500Y1175500D02*
D03*
Y1168000D02*
D03*
X791500Y1187500D02*
D03*
X734000Y1245500D02*
D03*
Y1230500D02*
D03*
Y1223000D02*
D03*
Y1215500D02*
D03*
Y1208000D02*
D03*
Y1238000D02*
D03*
X766500Y1158000D02*
D03*
Y1173000D02*
D03*
Y1165500D02*
D03*
X736500D02*
D03*
X744000Y1173000D02*
D03*
X736500D02*
D03*
X751500D02*
D03*
X759000Y1165500D02*
D03*
X751500Y1158000D02*
D03*
X759000Y1173000D02*
D03*
X751500Y1165500D02*
D03*
X744000D02*
D03*
X714000Y1270500D02*
D03*
X706500Y1278000D02*
D03*
Y1285500D02*
D03*
X714000Y1308000D02*
D03*
X706500D02*
D03*
Y1270500D02*
D03*
X789000Y1298000D02*
D03*
Y1305500D02*
D03*
X796500Y1298000D02*
D03*
Y1305500D02*
D03*
X819000Y1275500D02*
D03*
X811500D02*
D03*
X804000D02*
D03*
Y1283000D02*
D03*
X819000D02*
D03*
X811500D02*
D03*
X796500Y1275500D02*
D03*
Y1313000D02*
D03*
X789000Y1275500D02*
D03*
X781500D02*
D03*
Y1283000D02*
D03*
Y1290500D02*
D03*
Y1298000D02*
D03*
Y1305500D02*
D03*
X796500Y1283000D02*
D03*
X789000D02*
D03*
Y1290500D02*
D03*
X796500D02*
D03*
X789000Y1313000D02*
D03*
X781500D02*
D03*
X791500Y1263000D02*
D03*
X819000Y1290500D02*
D03*
X811500D02*
D03*
Y1298000D02*
D03*
X804000D02*
D03*
Y1305500D02*
D03*
X819000D02*
D03*
Y1313000D02*
D03*
X811500Y1305500D02*
D03*
Y1313000D02*
D03*
X819000Y1298000D02*
D03*
X804000Y1313000D02*
D03*
Y1290500D02*
D03*
X721500Y1315500D02*
D03*
Y1308000D02*
D03*
X728750Y1315500D02*
D03*
X706500D02*
D03*
X714000D02*
D03*
X729000Y1308000D02*
D03*
X804250Y1146000D02*
D03*
X804000Y1168000D02*
D03*
Y1160500D02*
D03*
X811500D02*
D03*
X811250Y1146000D02*
D03*
Y1139000D02*
D03*
X804250D02*
D03*
X811000Y1153500D02*
D03*
X804000D02*
D03*
X804000Y1175500D02*
D03*
X811500D02*
D03*
X819000D02*
D03*
X811500Y1168000D02*
D03*
X749000Y1245500D02*
D03*
X741500D02*
D03*
X1500000Y1154250D02*
D03*
X1485000Y1131750D02*
D03*
X1500000D02*
D03*
Y1139250D02*
D03*
X1410000Y1171750D02*
D03*
X1417500D02*
D03*
X1472500Y1224250D02*
D03*
X1465000D02*
D03*
X1457500D02*
D03*
X1465000Y1216750D02*
D03*
X1457500D02*
D03*
X1450000Y1224250D02*
D03*
X1472500Y1216750D02*
D03*
X1450000D02*
D03*
X1457500Y1239250D02*
D03*
X1472500Y1231750D02*
D03*
X1465000Y1239250D02*
D03*
X1450000D02*
D03*
X1465000Y1231750D02*
D03*
X1457500D02*
D03*
X1450000D02*
D03*
X1417500Y1164250D02*
D03*
X1450000Y1209250D02*
D03*
X1457500D02*
D03*
X1465000D02*
D03*
Y1201750D02*
D03*
X1457500D02*
D03*
X1472500Y1209250D02*
D03*
X1450000Y1201750D02*
D03*
X758250Y1135000D02*
D03*
X819250Y1139000D02*
D03*
X751250Y1135000D02*
D03*
X766250D02*
D03*
X699000Y1143000D02*
D03*
Y1135500D02*
D03*
Y1150500D02*
D03*
Y1165500D02*
D03*
Y1158000D02*
D03*
X704000Y1230500D02*
D03*
Y1223000D02*
D03*
X699000Y1180500D02*
D03*
Y1173000D02*
D03*
Y1308000D02*
D03*
Y1300500D02*
D03*
Y1278000D02*
D03*
Y1270500D02*
D03*
Y1315500D02*
D03*
Y1293000D02*
D03*
Y1285500D02*
D03*
X714000D02*
D03*
X721500Y1278000D02*
D03*
X729000Y1285500D02*
D03*
X721500D02*
D03*
X729000Y1300500D02*
D03*
X721500D02*
D03*
X706500D02*
D03*
X714000D02*
D03*
X706500Y1293000D02*
D03*
X721500D02*
D03*
X714000D02*
D03*
X729000D02*
D03*
Y1278000D02*
D03*
X714000D02*
D03*
X721500Y1270500D02*
D03*
X1500000Y1281750D02*
D03*
X1485000D02*
D03*
X1462500Y1296750D02*
D03*
X1470000Y1304250D02*
D03*
Y1296750D02*
D03*
X1462500Y1311750D02*
D03*
X1477500Y1304250D02*
D03*
Y1311750D02*
D03*
Y1296750D02*
D03*
X1470000Y1311750D02*
D03*
X1462500Y1304250D02*
D03*
X1470000Y1274250D02*
D03*
X1462500Y1289250D02*
D03*
X1477500Y1266750D02*
D03*
X1462500Y1274250D02*
D03*
X1477500Y1281750D02*
D03*
Y1289250D02*
D03*
Y1274250D02*
D03*
X1470000Y1289250D02*
D03*
Y1281750D02*
D03*
X1462500D02*
D03*
X1492500Y1289250D02*
D03*
X1500000Y1304250D02*
D03*
X1492500Y1296750D02*
D03*
X1485000D02*
D03*
X1492500Y1311750D02*
D03*
X1485000D02*
D03*
X1492500Y1304250D02*
D03*
X1500000Y1311750D02*
D03*
X1485000Y1289250D02*
D03*
Y1304250D02*
D03*
X1500000Y1296750D02*
D03*
Y1289250D02*
D03*
X1477500Y1161750D02*
D03*
X1470000Y1154250D02*
D03*
X1477500Y1176750D02*
D03*
X1470000Y1146750D02*
D03*
Y1169250D02*
D03*
X1477500Y1154250D02*
D03*
X1470000Y1161750D02*
D03*
X1477500Y1146750D02*
D03*
Y1169250D02*
D03*
X1492500Y1161750D02*
D03*
Y1169250D02*
D03*
X1500000Y1176750D02*
D03*
Y1169250D02*
D03*
Y1161750D02*
D03*
X1485000D02*
D03*
X1380000Y1134250D02*
D03*
Y1141750D02*
D03*
Y1171750D02*
D03*
X1387500Y1134250D02*
D03*
X1417500Y1141750D02*
D03*
Y1134250D02*
D03*
X1410000D02*
D03*
X1500000Y1146750D02*
D03*
X1485000Y1139250D02*
D03*
Y1154250D02*
D03*
X1492500Y1139250D02*
D03*
Y1131750D02*
D03*
Y1146750D02*
D03*
X1477500Y1139250D02*
D03*
X1485000Y1146750D02*
D03*
X1492500Y1154250D02*
D03*
X704250Y975500D02*
D03*
X699250Y1038000D02*
D03*
X704250Y983000D02*
D03*
X699250Y925500D02*
D03*
Y918000D02*
D03*
Y910500D02*
D03*
Y933000D02*
D03*
Y903000D02*
D03*
Y895500D02*
D03*
Y1053000D02*
D03*
Y1060500D02*
D03*
Y1045500D02*
D03*
Y1068000D02*
D03*
X832500Y955000D02*
D03*
Y1262500D02*
D03*
X1402500Y1271750D02*
D03*
X1380000D02*
D03*
X1387500D02*
D03*
X1395000D02*
D03*
X1366500Y1184000D02*
D03*
Y1259000D02*
D03*
Y997000D02*
D03*
X1379750Y1308250D02*
D03*
Y1301250D02*
D03*
X1387750Y1308250D02*
D03*
X1366500Y1244500D02*
D03*
Y1011500D02*
D03*
X1380250Y924500D02*
D03*
Y917000D02*
D03*
Y894500D02*
D03*
Y902000D02*
D03*
Y887000D02*
D03*
Y909500D02*
D03*
X1366500Y937000D02*
D03*
X832500Y940000D02*
D03*
X811750Y1028000D02*
D03*
X819250D02*
D03*
X819000Y1160500D02*
D03*
X819000Y1153500D02*
D03*
X819000Y1168000D02*
D03*
X819250Y1146000D02*
D03*
X832500Y1202500D02*
D03*
X1101700Y1278350D02*
D03*
X832500Y1187500D02*
D03*
X845000Y1071500D02*
D03*
X1354500Y1095500D02*
D03*
X699000Y887500D02*
D03*
X929500Y918500D02*
D03*
X897500Y1010000D02*
D03*
X1239500Y1095000D02*
D03*
X832500Y1015000D02*
D03*
X993000Y1072000D02*
D03*
X980500Y1090000D02*
D03*
D78*
X1006000Y493200D02*
D03*
X1040000Y518600D02*
D03*
X1006000Y544000D02*
D03*
X1040000Y569400D02*
D03*
X1006000Y594800D02*
D03*
X1040000Y620200D02*
D03*
X1006000Y645600D02*
D03*
X1040000Y671000D02*
D03*
X1006000Y696400D02*
D03*
X1040000Y721800D02*
D03*
X1006000Y747200D02*
D03*
X1040000Y772600D02*
D03*
X1006000Y798000D02*
D03*
X1040000Y823400D02*
D03*
X1006000Y848800D02*
D03*
X1040000Y874200D02*
D03*
X1006000Y899600D02*
D03*
X1040000Y925000D02*
D03*
X1006000Y950400D02*
D03*
X1040000Y975800D02*
D03*
X1006000Y1001200D02*
D03*
X1040000Y1026600D02*
D03*
X1006000Y1052000D02*
D03*
X1040000Y1077400D02*
D03*
X1192500D02*
D03*
X1158500Y1052000D02*
D03*
X1192500Y1026600D02*
D03*
X1158500Y1001200D02*
D03*
X1192500Y975800D02*
D03*
X1158500Y950400D02*
D03*
X1192500Y925000D02*
D03*
X1158500Y899600D02*
D03*
X1192500Y874200D02*
D03*
X1158500Y848800D02*
D03*
X1192500Y823400D02*
D03*
X1158500Y798000D02*
D03*
X1192500Y772600D02*
D03*
X1158500Y747200D02*
D03*
X1192500Y721800D02*
D03*
X1158500Y696400D02*
D03*
X1192500Y671000D02*
D03*
X1158500Y645600D02*
D03*
X1192500Y620200D02*
D03*
X1158500Y594800D02*
D03*
X1192500Y569400D02*
D03*
X1158500Y544000D02*
D03*
X1192500Y518600D02*
D03*
X1158500Y493200D02*
D03*
M02*
