G04*
G04 #@! TF.GenerationSoftware,Altium Limited,Altium Designer,25.4.2 (15)*
G04*
G04 Layer_Color=16711935*
%FSLAX44Y44*%
%MOMM*%
G71*
G04*
G04 #@! TF.SameCoordinates,CE8B7503-BC5D-454C-BBEA-07EE3AA0370F*
G04*
G04*
G04 #@! TF.FilePolarity,Negative*
G04*
G01*
G75*
%ADD45R,5.2032X1.4532*%
%ADD56C,1.5400*%
%ADD57R,1.5400X1.5400*%
%ADD58C,1.5112*%
%ADD59C,1.4832*%
%ADD60C,3.2032*%
%ADD61C,1.7112*%
%ADD62C,1.5732*%
%ADD63C,6.2032*%
%ADD79R,2.6032X1.0032*%
D45*
X962500Y634600D02*
D03*
Y685400D02*
D03*
Y660000D02*
D03*
X897750Y685400D02*
D03*
Y660000D02*
D03*
Y634600D02*
D03*
D56*
X1486500Y832500D02*
D03*
Y767500D02*
D03*
X1441500Y832500D02*
D03*
D57*
Y767500D02*
D03*
D58*
X1175500Y493200D02*
D03*
Y518600D02*
D03*
X1023100Y848800D02*
D03*
X1175500Y544000D02*
D03*
Y569400D02*
D03*
Y594800D02*
D03*
Y620200D02*
D03*
Y645600D02*
D03*
Y671000D02*
D03*
Y696400D02*
D03*
Y721800D02*
D03*
Y747200D02*
D03*
Y772600D02*
D03*
Y798000D02*
D03*
Y823400D02*
D03*
X1023100D02*
D03*
Y798000D02*
D03*
Y772600D02*
D03*
Y747200D02*
D03*
Y721800D02*
D03*
Y696400D02*
D03*
Y671000D02*
D03*
Y645600D02*
D03*
Y620200D02*
D03*
Y594800D02*
D03*
Y569400D02*
D03*
Y544000D02*
D03*
Y518600D02*
D03*
Y493200D02*
D03*
X1175500Y874200D02*
D03*
Y899600D02*
D03*
Y925000D02*
D03*
Y950400D02*
D03*
Y975800D02*
D03*
Y1001200D02*
D03*
Y1026600D02*
D03*
Y1052000D02*
D03*
Y1077400D02*
D03*
X1023100D02*
D03*
Y1052000D02*
D03*
Y1026600D02*
D03*
Y1001200D02*
D03*
Y975800D02*
D03*
Y950400D02*
D03*
Y925000D02*
D03*
Y899600D02*
D03*
Y874200D02*
D03*
X1175500Y848800D02*
D03*
D59*
X940000Y1199130D02*
D03*
Y1150000D02*
D03*
D60*
X674000Y1374000D02*
D03*
Y1424000D02*
D03*
X1526000Y829000D02*
D03*
Y779000D02*
D03*
X1525000Y1372000D02*
D03*
Y1422000D02*
D03*
X674000Y1250500D02*
D03*
Y1200500D02*
D03*
X1525000Y1246750D02*
D03*
Y1196750D02*
D03*
X674250Y1003000D02*
D03*
Y953000D02*
D03*
X1525250Y999500D02*
D03*
Y949500D02*
D03*
X673000Y829000D02*
D03*
Y779000D02*
D03*
D61*
X651000Y707000D02*
D03*
Y657000D02*
D03*
X651000Y682000D02*
D03*
X702000Y707000D02*
D03*
Y657000D02*
D03*
X702000Y682000D02*
D03*
X753000Y707000D02*
D03*
Y657000D02*
D03*
X753000Y682000D02*
D03*
D62*
X1273000Y923400D02*
D03*
Y847200D02*
D03*
Y872600D02*
D03*
Y898000D02*
D03*
D63*
X1466000Y670000D02*
D03*
X1538000D02*
D03*
X800000Y600000D02*
D03*
X810470Y754950D02*
D03*
Y1445050D02*
D03*
X800000Y1600000D02*
D03*
X1400000D02*
D03*
X1389530Y1445050D02*
D03*
X1400000Y600000D02*
D03*
X1389824Y754787D02*
D03*
D79*
X1006000Y493200D02*
D03*
X1040000Y518600D02*
D03*
X1006000Y544000D02*
D03*
X1040000Y569400D02*
D03*
X1006000Y594800D02*
D03*
X1040000Y620200D02*
D03*
X1006000Y645600D02*
D03*
X1040000Y671000D02*
D03*
X1006000Y696400D02*
D03*
X1040000Y721800D02*
D03*
X1006000Y747200D02*
D03*
X1040000Y772600D02*
D03*
X1006000Y798000D02*
D03*
X1040000Y823400D02*
D03*
X1006000Y848800D02*
D03*
X1040000Y874200D02*
D03*
X1006000Y899600D02*
D03*
X1040000Y925000D02*
D03*
X1006000Y950400D02*
D03*
X1040000Y975800D02*
D03*
X1006000Y1001200D02*
D03*
X1040000Y1026600D02*
D03*
X1006000Y1052000D02*
D03*
X1040000Y1077400D02*
D03*
X1192500D02*
D03*
X1158500Y1052000D02*
D03*
X1192500Y1026600D02*
D03*
X1158500Y1001200D02*
D03*
X1192500Y975800D02*
D03*
X1158500Y950400D02*
D03*
X1192500Y925000D02*
D03*
X1158500Y899600D02*
D03*
X1192500Y874200D02*
D03*
X1158500Y848800D02*
D03*
X1192500Y823400D02*
D03*
X1158500Y798000D02*
D03*
X1192500Y772600D02*
D03*
X1158500Y747200D02*
D03*
X1192500Y721800D02*
D03*
X1158500Y696400D02*
D03*
X1192500Y671000D02*
D03*
X1158500Y645600D02*
D03*
X1192500Y620200D02*
D03*
X1158500Y594800D02*
D03*
X1192500Y569400D02*
D03*
X1158500Y544000D02*
D03*
X1192500Y518600D02*
D03*
X1158500Y493200D02*
D03*
M02*
