G04*
G04 #@! TF.GenerationSoftware,Altium Limited,Altium Designer,25.4.2 (15)*
G04*
G04 Layer_Physical_Order=1*
G04 Layer_Color=255*
%FSLAX44Y44*%
%MOMM*%
G71*
G04*
G04 #@! TF.SameCoordinates,CE8B7503-BC5D-454C-BBEA-07EE3AA0370F*
G04*
G04*
G04 #@! TF.FilePolarity,Positive*
G04*
G01*
G75*
%ADD13C,0.5000*%
%ADD14C,0.3000*%
%ADD20R,0.8500X0.9000*%
%ADD21R,2.9500X2.6000*%
%ADD22R,0.8000X3.0000*%
%ADD23R,5.0000X1.2500*%
%ADD24R,1.4605X0.5588*%
%ADD25R,3.1200X2.2900*%
%ADD26R,1.9500X2.2500*%
%ADD27R,0.9000X0.8500*%
%ADD28R,0.9500X0.9000*%
%ADD29R,0.9000X0.9500*%
%ADD30R,3.2000X1.6000*%
%ADD31R,1.2500X0.5500*%
%ADD32R,0.4100X0.8200*%
%ADD33C,3.6549*%
%ADD34R,1.2200X0.9100*%
%ADD35R,2.0000X4.1000*%
G04:AMPARAMS|DCode=36|XSize=6.4mm|YSize=8.2mm|CornerRadius=0.064mm|HoleSize=0mm|Usage=FLASHONLY|Rotation=0.000|XOffset=0mm|YOffset=0mm|HoleType=Round|Shape=RoundedRectangle|*
%AMROUNDEDRECTD36*
21,1,6.4000,8.0720,0,0,0.0*
21,1,6.2720,8.2000,0,0,0.0*
1,1,0.1280,3.1360,-4.0360*
1,1,0.1280,-3.1360,-4.0360*
1,1,0.1280,-3.1360,4.0360*
1,1,0.1280,3.1360,4.0360*
%
%ADD36ROUNDEDRECTD36*%
G04:AMPARAMS|DCode=37|XSize=1mm|YSize=4.15mm|CornerRadius=0.05mm|HoleSize=0mm|Usage=FLASHONLY|Rotation=0.000|XOffset=0mm|YOffset=0mm|HoleType=Round|Shape=RoundedRectangle|*
%AMROUNDEDRECTD37*
21,1,1.0000,4.0500,0,0,0.0*
21,1,0.9000,4.1500,0,0,0.0*
1,1,0.1000,0.4500,-2.0250*
1,1,0.1000,-0.4500,-2.0250*
1,1,0.1000,-0.4500,2.0250*
1,1,0.1000,0.4500,2.0250*
%
%ADD37ROUNDEDRECTD37*%
%ADD38R,1.2000X1.2000*%
%ADD39R,1.5000X1.6000*%
%ADD40R,1.7000X1.6800*%
%ADD41C,1.3680*%
%ADD56C,1.5400*%
%ADD57R,1.5400X1.5400*%
%ADD64C,1.0000*%
%ADD65C,0.8000*%
%ADD66C,1.8000*%
%ADD67C,3.0000*%
%ADD68C,1.2000*%
%ADD69C,2.0000*%
%ADD70C,1.7000*%
%ADD71C,1.3080*%
%ADD72C,1.2800*%
%ADD73C,3.0000*%
%ADD74C,1.5080*%
%ADD75C,1.3700*%
%ADD76C,6.0000*%
%ADD77C,0.4500*%
G36*
X1300000Y1367590D02*
X1300000Y1367590D01*
X1185036D01*
X1184593Y1367502D01*
X1184582Y1367500D01*
X1150000D01*
Y1438000D01*
X1300000D01*
Y1367590D01*
D02*
G37*
G36*
X897410Y1737515D02*
Y1500000D01*
X897607Y1499009D01*
X898169Y1498169D01*
X899009Y1497608D01*
X900000Y1497410D01*
X1300000D01*
X1300991Y1497608D01*
X1301831Y1498169D01*
X1302392Y1499009D01*
X1302590Y1500000D01*
Y1737515D01*
X1309518Y1741515D01*
X1660521Y1538863D01*
Y1365000D01*
X1660314D01*
X1660344Y1349714D01*
X1660521Y1259508D01*
Y661137D01*
X1403279Y512618D01*
X1397000Y509000D01*
X1370000D01*
Y581929D01*
X1372540Y582435D01*
X1375180Y578802D01*
X1378802Y575180D01*
X1382945Y572169D01*
X1387509Y569844D01*
X1392380Y568261D01*
X1397439Y567460D01*
X1402561D01*
X1407620Y568261D01*
X1412491Y569844D01*
X1417055Y572169D01*
X1421198Y575180D01*
X1424820Y578802D01*
X1427831Y582945D01*
X1430156Y587509D01*
X1431739Y592380D01*
X1432540Y597439D01*
Y602561D01*
X1431739Y607620D01*
X1430156Y612491D01*
X1427831Y617055D01*
X1424820Y621198D01*
X1421198Y624820D01*
X1417055Y627831D01*
X1412491Y630156D01*
X1407620Y631739D01*
X1402561Y632540D01*
X1397439D01*
X1392380Y631739D01*
X1387509Y630156D01*
X1382945Y627831D01*
X1378802Y624820D01*
X1375180Y621198D01*
X1372540Y617565D01*
X1370000Y618071D01*
Y726171D01*
X1372263Y727325D01*
X1372770Y726956D01*
X1377333Y724631D01*
X1382205Y723048D01*
X1387263Y722247D01*
X1392385D01*
X1397444Y723048D01*
X1402315Y724631D01*
X1406879Y726956D01*
X1411023Y729967D01*
X1414644Y733589D01*
X1417655Y737732D01*
X1419980Y742296D01*
X1421563Y747167D01*
X1422364Y752226D01*
Y757348D01*
X1421563Y762407D01*
X1419980Y767278D01*
X1417655Y771842D01*
X1414644Y775985D01*
X1411023Y779607D01*
X1406879Y782618D01*
X1402315Y784943D01*
X1397444Y786526D01*
X1392385Y787327D01*
X1387263D01*
X1382205Y786526D01*
X1377333Y784943D01*
X1372770Y782618D01*
X1372263Y782250D01*
X1370000Y783403D01*
Y876259D01*
X1409864D01*
X1412210Y875792D01*
Y871354D01*
X1412052Y871118D01*
X1411661Y869152D01*
X1412052Y867185D01*
X1412210Y866949D01*
Y862512D01*
X1421390D01*
Y864187D01*
X1430710D01*
Y862460D01*
X1444290D01*
Y862460D01*
X1446210D01*
Y862460D01*
X1459790D01*
Y864361D01*
X1467571D01*
X1469538Y864752D01*
X1471205Y865866D01*
X1474134Y868795D01*
X1475247Y870462D01*
X1475639Y872429D01*
Y876910D01*
X1505250D01*
X1506241Y877107D01*
X1506545Y877310D01*
X1506849Y877107D01*
X1507840Y876910D01*
X1563000D01*
X1563991Y877107D01*
X1564831Y877669D01*
X1565393Y878509D01*
X1565590Y879500D01*
Y892470D01*
X1565710Y894960D01*
X1578670D01*
X1579290Y894960D01*
X1581210D01*
X1581830Y894960D01*
X1594790D01*
Y907337D01*
X1594790Y909040D01*
X1594790D01*
X1594779Y909873D01*
X1594779D01*
Y923953D01*
X1593139D01*
Y1027547D01*
X1594801D01*
Y1041627D01*
X1581841D01*
X1581221Y1041627D01*
X1579301D01*
X1578681Y1041627D01*
X1565721D01*
X1565590Y1044113D01*
Y1069500D01*
X1565393Y1070491D01*
X1564831Y1071331D01*
X1563991Y1071893D01*
X1563000Y1072090D01*
X1507840D01*
X1506849Y1071893D01*
X1506545Y1071690D01*
X1506241Y1071893D01*
X1505250Y1072090D01*
X1415250D01*
X1414259Y1071893D01*
X1413750Y1071553D01*
X1413241Y1071893D01*
X1412250Y1072090D01*
X1372750D01*
X1371759Y1071893D01*
X1371171Y1071500D01*
X1362354D01*
Y1123259D01*
X1409510D01*
X1411960Y1123042D01*
Y1118604D01*
X1411802Y1118368D01*
X1411411Y1116402D01*
X1411802Y1114435D01*
X1411960Y1114199D01*
Y1109762D01*
X1421140D01*
Y1111437D01*
X1430460D01*
Y1109710D01*
X1444040D01*
Y1109710D01*
X1445960D01*
Y1109710D01*
X1459540D01*
Y1111611D01*
X1467321D01*
X1469288Y1112002D01*
X1470955Y1113116D01*
X1473884Y1116045D01*
X1474998Y1117712D01*
X1475389Y1119679D01*
Y1124160D01*
X1505000D01*
X1505991Y1124357D01*
X1506295Y1124560D01*
X1506599Y1124357D01*
X1507590Y1124160D01*
X1562750D01*
X1563741Y1124357D01*
X1564581Y1124919D01*
X1565143Y1125759D01*
X1565340Y1126750D01*
Y1139720D01*
X1565460Y1142210D01*
X1578420D01*
X1579040Y1142210D01*
X1580960D01*
X1581580Y1142210D01*
X1594540D01*
Y1154587D01*
X1594540Y1156290D01*
X1594540D01*
X1594529Y1157123D01*
X1594529D01*
Y1171203D01*
X1592889D01*
Y1274797D01*
X1594551D01*
Y1288877D01*
X1581591D01*
X1580971Y1288877D01*
X1579051D01*
X1578431Y1288877D01*
X1565471D01*
X1565340Y1291363D01*
Y1316750D01*
X1565143Y1317741D01*
X1564581Y1318581D01*
X1563741Y1319143D01*
X1562750Y1319340D01*
X1507590D01*
X1506599Y1319143D01*
X1506295Y1318940D01*
X1505991Y1319143D01*
X1505000Y1319340D01*
X1415000D01*
X1414009Y1319143D01*
X1413500Y1318803D01*
X1412991Y1319143D01*
X1412000Y1319340D01*
X1372500D01*
X1371509Y1319143D01*
X1370935Y1318759D01*
X1362354D01*
Y1349375D01*
X1454900D01*
X1456100Y1349493D01*
X1457300Y1349375D01*
X1520000D01*
X1523439Y1349714D01*
X1526745Y1350717D01*
X1529792Y1352345D01*
X1532463Y1354537D01*
X1537463Y1359537D01*
X1538012Y1360207D01*
X1538624Y1360819D01*
X1539105Y1361539D01*
X1539655Y1362208D01*
X1540063Y1362972D01*
X1540544Y1363692D01*
X1540875Y1364492D01*
X1541283Y1365255D01*
X1541535Y1366084D01*
X1541866Y1366884D01*
X1542035Y1367733D01*
X1542267Y1368500D01*
X1545694D01*
X1542625Y1372000D01*
X1542286Y1375438D01*
X1541283Y1378745D01*
X1539655Y1381792D01*
X1537463Y1384463D01*
X1534792Y1386655D01*
X1531745Y1388283D01*
X1528438Y1389286D01*
X1525000Y1389625D01*
X1521561Y1389286D01*
X1518255Y1388283D01*
X1515208Y1386655D01*
X1512735Y1384625D01*
X1457300D01*
X1456100Y1384507D01*
X1454900Y1384625D01*
X1341000D01*
X1337562Y1384286D01*
X1334255Y1383283D01*
X1331208Y1381655D01*
X1328537Y1379463D01*
X1310590Y1361515D01*
X1309045Y1362155D01*
X1302393Y1366599D01*
X1302590Y1367590D01*
Y1438000D01*
X1302393Y1438991D01*
X1301831Y1439831D01*
X1300991Y1440393D01*
X1300000Y1440590D01*
X1150000D01*
X1149009Y1440393D01*
X1148169Y1439831D01*
X1147607Y1438991D01*
X1147605Y1438979D01*
X1141340Y1434790D01*
X1131783D01*
X1130300Y1434985D01*
X1123950Y1434985D01*
X1123950Y1434985D01*
X1119260Y1434790D01*
Y1433857D01*
X1118382Y1433493D01*
X1116076Y1431724D01*
X1097742Y1413390D01*
X1078910D01*
Y1382310D01*
X1081168D01*
X1084481Y1374310D01*
X1076268Y1366096D01*
X1039000D01*
X1037293Y1365872D01*
X1035702Y1365213D01*
X1034336Y1364164D01*
X1018336Y1348164D01*
X1017287Y1346798D01*
X1016628Y1345207D01*
X1016404Y1343500D01*
Y1248000D01*
X1016628Y1246293D01*
X1017287Y1244702D01*
X1018336Y1243336D01*
X1019702Y1242287D01*
X1021293Y1241628D01*
X1023000Y1241404D01*
X1024707Y1241628D01*
X1026298Y1242287D01*
X1027664Y1243336D01*
X1028713Y1244702D01*
X1029372Y1246293D01*
X1029596Y1248000D01*
Y1306261D01*
X1037597Y1309575D01*
X1044376Y1302796D01*
X1045742Y1301747D01*
X1047333Y1301088D01*
X1049040Y1300863D01*
X1068794D01*
X1076600Y1299100D01*
Y1258600D01*
X1076836Y1257414D01*
X1077340Y1256661D01*
Y1252686D01*
X1077404Y1252201D01*
Y1247500D01*
X1077628Y1245793D01*
X1078287Y1244202D01*
X1079336Y1242836D01*
X1080702Y1241787D01*
X1082293Y1241128D01*
X1084000Y1240904D01*
X1085707Y1241128D01*
X1087298Y1241787D01*
X1088664Y1242836D01*
X1089713Y1244202D01*
X1090372Y1245793D01*
X1090432Y1246252D01*
X1094029Y1248218D01*
X1098596Y1249075D01*
X1104736Y1242936D01*
X1106102Y1241887D01*
X1107693Y1241228D01*
X1109400Y1241004D01*
X1164910D01*
Y1240560D01*
X1175755D01*
X1180446Y1234503D01*
X1180446Y1234503D01*
X1180669Y1234169D01*
Y1234169D01*
X1180670Y1234168D01*
X1181004Y1233945D01*
X1181004Y1233945D01*
X1181004Y1233945D01*
X1181509Y1233607D01*
Y1233607D01*
X1181853Y1233539D01*
X1181853Y1233539D01*
X1182501Y1233410D01*
X1182501Y1233410D01*
X1189800Y1233410D01*
X1225396D01*
Y1225006D01*
X1223000Y1225004D01*
Y1130000D01*
X1159000D01*
Y1225000D01*
X972740D01*
Y1307310D01*
Y1353390D01*
X947660D01*
Y1307310D01*
Y1225036D01*
X947500Y1225000D01*
X877630D01*
X871984Y1230667D01*
X872331Y1323000D01*
X826951D01*
X826500Y1323090D01*
X789117D01*
X787040Y1324208D01*
Y1328646D01*
X787198Y1328882D01*
X787589Y1330848D01*
X787198Y1332815D01*
X787040Y1333051D01*
Y1337488D01*
X777860D01*
Y1335813D01*
X768540D01*
Y1337540D01*
X754960D01*
Y1337540D01*
X753040D01*
Y1337540D01*
X739460D01*
Y1335639D01*
X731679D01*
X729713Y1335248D01*
X728045Y1334134D01*
X725116Y1331205D01*
X724003Y1329538D01*
X723611Y1327571D01*
Y1323090D01*
X694000D01*
X693009Y1322893D01*
X692705Y1322690D01*
X692401Y1322893D01*
X691410Y1323090D01*
X636250D01*
X635259Y1322893D01*
X634419Y1322331D01*
X633857Y1321491D01*
X633660Y1320500D01*
Y1307530D01*
X633540Y1305040D01*
X620580D01*
X619960Y1305040D01*
X618040D01*
X617420Y1305040D01*
X604460D01*
Y1292663D01*
X604460Y1290960D01*
X604460D01*
X604471Y1290127D01*
X604471D01*
Y1276047D01*
X606111D01*
Y1172453D01*
X604449D01*
Y1158373D01*
X617409D01*
X618029Y1158373D01*
X619949D01*
X620569Y1158373D01*
X633529D01*
X633660Y1155887D01*
Y1130500D01*
X633857Y1129509D01*
X634419Y1128669D01*
X635259Y1128107D01*
X636250Y1127910D01*
X691410D01*
X692401Y1128107D01*
X692705Y1128310D01*
X693009Y1128107D01*
X694000Y1127910D01*
X784000D01*
X784451Y1128000D01*
X786549D01*
X787000Y1127910D01*
X826500D01*
X826951Y1128000D01*
X835000D01*
Y1075500D01*
X827201D01*
X826750Y1075590D01*
X789367D01*
X787290Y1076708D01*
Y1081146D01*
X787448Y1081382D01*
X787839Y1083348D01*
X787448Y1085315D01*
X787290Y1085551D01*
Y1089988D01*
X778110D01*
Y1088313D01*
X768790D01*
Y1090040D01*
X755210D01*
Y1090040D01*
X753290D01*
Y1090040D01*
X739710D01*
Y1088139D01*
X731929D01*
X729962Y1087748D01*
X728295Y1086634D01*
X725366Y1083705D01*
X724252Y1082038D01*
X723861Y1080071D01*
Y1075590D01*
X694250D01*
X693259Y1075393D01*
X692955Y1075190D01*
X692651Y1075393D01*
X691660Y1075590D01*
X636500D01*
X635509Y1075393D01*
X634669Y1074831D01*
X634107Y1073991D01*
X633910Y1073000D01*
Y1060030D01*
X633790Y1057540D01*
X620830D01*
X620210Y1057540D01*
X618290D01*
X617670Y1057540D01*
X604710D01*
Y1045163D01*
X604710Y1043460D01*
X604710D01*
X604721Y1042627D01*
X604721D01*
Y1028547D01*
X606361D01*
Y924953D01*
X604699D01*
Y910873D01*
X617659D01*
X618279Y910873D01*
X620199D01*
X620819Y910873D01*
X633779D01*
X633910Y908387D01*
Y883000D01*
X634107Y882009D01*
X634669Y881169D01*
X635509Y880607D01*
X636500Y880410D01*
X691660D01*
X692651Y880607D01*
X692955Y880810D01*
X693259Y880607D01*
X694250Y880410D01*
X784250D01*
X784701Y880500D01*
X786799D01*
X787250Y880410D01*
X826750D01*
X827201Y880500D01*
X835000D01*
Y855000D01*
X539479D01*
Y1368000D01*
Y1538863D01*
X890482Y1741515D01*
X897410Y1737515D01*
D02*
G37*
G36*
X826500Y1306748D02*
Y1300648D01*
Y1277548D01*
Y1272448D01*
Y1269500D01*
X813540D01*
Y1270040D01*
X799960D01*
Y1270040D01*
X798040D01*
Y1270040D01*
X784460D01*
Y1269500D01*
X774536D01*
Y1275239D01*
X774090D01*
Y1275500D01*
X774000Y1275951D01*
Y1278000D01*
X771951D01*
X771500Y1278090D01*
X739090D01*
Y1308000D01*
X771500D01*
Y1320500D01*
X826500D01*
Y1306748D01*
D02*
G37*
G36*
X1412000Y1266290D02*
X1400960D01*
Y1266290D01*
X1399040D01*
Y1266290D01*
X1385460D01*
Y1265500D01*
X1372500D01*
Y1316750D01*
X1412000D01*
Y1266290D01*
D02*
G37*
G36*
X736500Y1275500D02*
X771500D01*
Y1265500D01*
X694000D01*
Y1320500D01*
X736500D01*
Y1275500D01*
D02*
G37*
G36*
X1505000Y1261750D02*
X1415000D01*
Y1316750D01*
X1505000D01*
Y1261750D01*
D02*
G37*
G36*
X1162500Y1257500D02*
X1130000D01*
Y1299500D01*
X1162500D01*
Y1257500D01*
D02*
G37*
G36*
X691410Y1265500D02*
X691500Y1265049D01*
Y1263000D01*
X693549D01*
X694000Y1262910D01*
X771500D01*
X771951Y1263000D01*
X784000D01*
Y1253000D01*
X754451D01*
X754000Y1253090D01*
X729000D01*
X728549Y1253000D01*
X726500D01*
X722664Y1249164D01*
X721036Y1249839D01*
Y1249839D01*
X703456D01*
Y1240590D01*
X694000D01*
X693549Y1240500D01*
X691500D01*
Y1238451D01*
X691410Y1238000D01*
Y1228000D01*
X636250D01*
Y1320500D01*
X691410D01*
Y1265500D01*
D02*
G37*
G36*
X1300000Y1344767D02*
X1299875Y1343500D01*
Y1298000D01*
X1243000D01*
Y1236000D01*
X1182501D01*
X1182497Y1362668D01*
X1185036Y1365000D01*
X1300000D01*
Y1344767D01*
D02*
G37*
G36*
X1477964Y1238786D02*
Y1235511D01*
X1481239D01*
X1482500Y1234250D01*
X1505000D01*
Y1209250D01*
X1482500D01*
X1481241Y1207991D01*
X1477964D01*
Y1204714D01*
X1470000Y1196750D01*
X1445000D01*
Y1219250D01*
X1442044D01*
Y1220691D01*
X1424464D01*
Y1220290D01*
X1415000D01*
Y1235662D01*
X1424464D01*
Y1235511D01*
X1442044D01*
Y1236750D01*
X1445000D01*
Y1246750D01*
X1470000D01*
X1477964Y1238786D01*
D02*
G37*
G36*
X1332500Y1225000D02*
X1282590D01*
Y1225006D01*
X1282500Y1225457D01*
Y1273323D01*
X1282590Y1273774D01*
Y1295000D01*
X1332500D01*
Y1225000D01*
D02*
G37*
G36*
X1562750Y1221840D02*
X1507590D01*
Y1234250D01*
X1507500Y1234701D01*
Y1236750D01*
X1505451D01*
X1505000Y1236840D01*
X1495544D01*
Y1246091D01*
X1477964D01*
Y1245767D01*
X1475618Y1244795D01*
X1471831Y1248581D01*
X1470991Y1249143D01*
X1470000Y1249340D01*
X1445000D01*
X1444009Y1249143D01*
X1443169Y1248581D01*
X1442947Y1248250D01*
X1415000D01*
Y1259160D01*
X1415000Y1259160D01*
X1505000D01*
X1505451Y1259250D01*
X1507500D01*
Y1261299D01*
X1507590Y1261750D01*
Y1316750D01*
X1562750D01*
Y1221840D01*
D02*
G37*
G36*
X754000Y1228000D02*
X756956D01*
Y1226559D01*
X774536D01*
Y1226960D01*
X784000D01*
Y1211588D01*
X774536D01*
Y1211739D01*
X756956D01*
Y1210500D01*
X754000D01*
Y1200500D01*
X729000D01*
X721036Y1208464D01*
Y1211739D01*
X717761D01*
X716500Y1213000D01*
X694000D01*
Y1238000D01*
X716500D01*
X717759Y1239259D01*
X721036D01*
Y1242536D01*
X729000Y1250500D01*
X754000D01*
Y1228000D01*
D02*
G37*
G36*
X1243000Y1202298D02*
X1225590D01*
Y1222455D01*
X1225884Y1222513D01*
X1226387Y1222613D01*
X1226388Y1222614D01*
X1226389Y1222614D01*
X1226799Y1222889D01*
X1227227Y1223175D01*
X1227228Y1223176D01*
X1227229Y1223176D01*
X1227515Y1223606D01*
X1227789Y1224015D01*
X1227789Y1224016D01*
X1227789Y1224017D01*
X1227889Y1224521D01*
X1227986Y1225006D01*
Y1233000D01*
X1243000D01*
Y1202298D01*
D02*
G37*
G36*
X1280000Y1273774D02*
X1279879D01*
Y1263614D01*
X1279879Y1263106D01*
X1279879Y1263106D01*
Y1261074D01*
X1279879D01*
X1279879Y1260566D01*
Y1250914D01*
X1279879Y1250406D01*
X1279879Y1250406D01*
Y1248374D01*
X1279879D01*
X1279879Y1247866D01*
Y1238214D01*
X1279879Y1237706D01*
X1279879Y1237706D01*
Y1235674D01*
X1279879D01*
X1279879Y1235166D01*
Y1225006D01*
X1280000D01*
Y1202000D01*
X1261065D01*
X1258800Y1202298D01*
X1247500D01*
Y1295000D01*
X1280000D01*
Y1273774D01*
D02*
G37*
G36*
X1562750Y1126750D02*
X1507590D01*
Y1181750D01*
X1507500Y1182201D01*
Y1184250D01*
X1505451D01*
X1505000Y1184340D01*
X1427500D01*
X1427049Y1184250D01*
X1415000D01*
Y1194250D01*
X1444549D01*
X1445000Y1194160D01*
X1470000D01*
X1470451Y1194250D01*
X1472500D01*
X1476336Y1198086D01*
X1477964Y1197411D01*
Y1197411D01*
X1495544D01*
Y1206660D01*
X1505000D01*
X1505451Y1206750D01*
X1507500D01*
Y1208799D01*
X1507590Y1209250D01*
Y1219250D01*
X1562750D01*
Y1126750D01*
D02*
G37*
G36*
X1293100Y1184550D02*
Y1184053D01*
X1292719Y1183134D01*
X1292016Y1182431D01*
X1291097Y1182050D01*
X1277303D01*
X1276384Y1182431D01*
X1275681Y1183134D01*
X1275300Y1184053D01*
Y1184550D01*
Y1197250D01*
X1293100D01*
Y1184550D01*
D02*
G37*
G36*
X1267700D02*
Y1184053D01*
X1267319Y1183134D01*
X1266616Y1182431D01*
X1265697Y1182050D01*
X1251903D01*
X1250984Y1182431D01*
X1250281Y1183134D01*
X1249900Y1184053D01*
Y1184550D01*
Y1197250D01*
X1267700D01*
Y1184550D01*
D02*
G37*
G36*
X826500Y1130500D02*
X787000D01*
Y1180960D01*
X798040D01*
Y1180960D01*
X799960D01*
Y1180960D01*
X813540D01*
Y1181500D01*
X826500D01*
Y1130500D01*
D02*
G37*
G36*
X1424464Y1172011D02*
X1424910D01*
Y1171750D01*
X1425000Y1171299D01*
Y1169250D01*
X1427049D01*
X1427500Y1169160D01*
X1459910D01*
Y1139250D01*
X1427500D01*
Y1126750D01*
X1372500D01*
Y1140502D01*
Y1146602D01*
Y1169702D01*
Y1174802D01*
Y1178000D01*
X1385460D01*
Y1177210D01*
X1399040D01*
Y1177210D01*
X1400960D01*
Y1177210D01*
X1414540D01*
Y1178000D01*
X1424464D01*
Y1172011D01*
D02*
G37*
G36*
X620375Y1275526D02*
X621611Y1273930D01*
Y1174115D01*
X620351Y1172855D01*
X617625Y1172974D01*
X616389Y1174570D01*
Y1274385D01*
X617649Y1275645D01*
X620375Y1275526D01*
D02*
G37*
G36*
X1581375Y1274276D02*
X1582611Y1272680D01*
Y1172865D01*
X1581351Y1171605D01*
X1578625Y1171724D01*
X1577389Y1173320D01*
Y1273135D01*
X1578649Y1274395D01*
X1581375Y1274276D01*
D02*
G37*
G36*
X784000Y1130500D02*
X694000D01*
Y1185500D01*
X784000D01*
Y1130500D01*
D02*
G37*
G36*
X691410Y1213000D02*
X691500Y1212549D01*
Y1210500D01*
X693549D01*
X694000Y1210410D01*
X703456D01*
Y1201159D01*
X721036D01*
Y1201483D01*
X723382Y1202455D01*
X727169Y1198669D01*
X728009Y1198107D01*
X729000Y1197910D01*
X754000D01*
X754991Y1198107D01*
X755831Y1198669D01*
X756053Y1199000D01*
X784000D01*
Y1188090D01*
X784000Y1188090D01*
X694000D01*
X693549Y1188000D01*
X691500D01*
Y1185951D01*
X691410Y1185500D01*
Y1130500D01*
X636250D01*
Y1225410D01*
X691410D01*
Y1213000D01*
D02*
G37*
G36*
X970150Y1307310D02*
Y1225000D01*
Y1220150D01*
X970000Y1220000D01*
X1155000D01*
Y1130000D01*
X950176D01*
Y1220150D01*
X950179Y1224507D01*
X950211Y1224591D01*
X950206Y1224815D01*
X950250Y1225036D01*
Y1225036D01*
Y1307310D01*
Y1350800D01*
X970150D01*
Y1307310D01*
D02*
G37*
G36*
X1505000Y1126750D02*
X1462500D01*
Y1171750D01*
X1427500D01*
Y1181750D01*
X1505000D01*
Y1126750D01*
D02*
G37*
G36*
X1292016Y1101569D02*
X1292719Y1100866D01*
X1293100Y1099947D01*
Y1099450D01*
Y1086750D01*
X1275300D01*
Y1099450D01*
Y1099947D01*
X1275681Y1100866D01*
X1276384Y1101569D01*
X1277303Y1101950D01*
X1291097D01*
X1292016Y1101569D01*
D02*
G37*
G36*
X1266616D02*
X1267319Y1100866D01*
X1267700Y1099947D01*
Y1099450D01*
Y1086750D01*
X1249900D01*
Y1099450D01*
Y1099947D01*
X1250281Y1100866D01*
X1250984Y1101569D01*
X1251903Y1101950D01*
X1265697D01*
X1266616Y1101569D01*
D02*
G37*
G36*
X826750Y1059248D02*
Y1053148D01*
Y1030048D01*
Y1024948D01*
Y1022000D01*
X813790D01*
Y1022540D01*
X800210D01*
Y1022540D01*
X798290D01*
Y1022540D01*
X784710D01*
Y1022000D01*
X774786D01*
Y1027739D01*
X774340D01*
Y1028000D01*
X774250Y1028451D01*
Y1030500D01*
X772201D01*
X771750Y1030590D01*
X739340D01*
Y1060500D01*
X771750D01*
Y1073000D01*
X826750D01*
Y1059248D01*
D02*
G37*
G36*
X1412250Y1019040D02*
X1401210D01*
Y1019040D01*
X1399290D01*
Y1019040D01*
X1385710D01*
Y1018500D01*
X1372750D01*
Y1069500D01*
X1412250D01*
Y1019040D01*
D02*
G37*
G36*
X736750Y1028000D02*
X771750D01*
Y1018000D01*
X694250D01*
Y1073000D01*
X736750D01*
Y1028000D01*
D02*
G37*
G36*
X1505250Y1014500D02*
X1415250D01*
Y1069500D01*
X1505250D01*
Y1014500D01*
D02*
G37*
G36*
X691660Y1018000D02*
X691750Y1017549D01*
Y1015500D01*
X693799D01*
X694250Y1015410D01*
X771750D01*
X772201Y1015500D01*
X784250D01*
Y1005500D01*
X754701D01*
X754250Y1005590D01*
X729250D01*
X728799Y1005500D01*
X726750D01*
X722914Y1001664D01*
X721286Y1002339D01*
Y1002339D01*
X703706D01*
Y993090D01*
X694250D01*
X693799Y993000D01*
X691750D01*
Y990951D01*
X691660Y990500D01*
Y980500D01*
X636500D01*
Y1073000D01*
X691660D01*
Y1018000D01*
D02*
G37*
G36*
X1478214Y991536D02*
Y988261D01*
X1481489D01*
X1482750Y987000D01*
X1505250D01*
Y962000D01*
X1482750D01*
X1481491Y960741D01*
X1478214D01*
Y957464D01*
X1470250Y949500D01*
X1445250D01*
Y972000D01*
X1442294D01*
Y973441D01*
X1424714D01*
Y973040D01*
X1415250D01*
Y988412D01*
X1424714D01*
Y988261D01*
X1442294D01*
Y989500D01*
X1445250D01*
Y999500D01*
X1470250D01*
X1478214Y991536D01*
D02*
G37*
G36*
X1563000Y974590D02*
X1507840D01*
Y987000D01*
X1507750Y987451D01*
Y989500D01*
X1505701D01*
X1505250Y989590D01*
X1495794D01*
Y998841D01*
X1478214D01*
Y998517D01*
X1475868Y997545D01*
X1472081Y1001331D01*
X1471241Y1001893D01*
X1470250Y1002090D01*
X1445250D01*
X1444259Y1001893D01*
X1443419Y1001331D01*
X1443197Y1001000D01*
X1415250D01*
Y1011910D01*
X1415250Y1011910D01*
X1505250D01*
X1505701Y1012000D01*
X1507750D01*
Y1014049D01*
X1507840Y1014500D01*
Y1069500D01*
X1563000D01*
Y974590D01*
D02*
G37*
G36*
X754250Y980500D02*
X757206D01*
Y979059D01*
X774786D01*
Y979460D01*
X784250D01*
Y964088D01*
X774786D01*
Y964239D01*
X757206D01*
Y963000D01*
X754250D01*
Y953000D01*
X729250D01*
X721286Y960964D01*
Y964239D01*
X718011D01*
X716750Y965500D01*
X694250D01*
Y990500D01*
X716750D01*
X718009Y991759D01*
X721286D01*
Y995036D01*
X729250Y1003000D01*
X754250D01*
Y980500D01*
D02*
G37*
G36*
X1563000Y879500D02*
X1507840D01*
Y934500D01*
X1507750Y934951D01*
Y937000D01*
X1505701D01*
X1505250Y937090D01*
X1427750D01*
X1427299Y937000D01*
X1415250D01*
Y947000D01*
X1444799D01*
X1445250Y946910D01*
X1470250D01*
X1470701Y947000D01*
X1472750D01*
X1476586Y950836D01*
X1478214Y950161D01*
Y950161D01*
X1495794D01*
Y959410D01*
X1505250D01*
X1505701Y959500D01*
X1507750D01*
Y961549D01*
X1507840Y962000D01*
Y972000D01*
X1563000D01*
Y879500D01*
D02*
G37*
G36*
X826750Y883000D02*
X787250D01*
Y933460D01*
X797670D01*
X798290Y933460D01*
X798290Y933460D01*
X800210D01*
Y933460D01*
X800830Y933460D01*
X813790D01*
Y933500D01*
X826750D01*
Y883000D01*
D02*
G37*
G36*
X620625Y1028026D02*
X621861Y1026430D01*
Y926615D01*
X620601Y925355D01*
X617875Y925474D01*
X616639Y927070D01*
Y1026885D01*
X617899Y1028145D01*
X620625Y1028026D01*
D02*
G37*
G36*
X1581625Y1027026D02*
X1582861Y1025430D01*
Y925615D01*
X1581601Y924355D01*
X1578875Y924474D01*
X1577639Y926070D01*
Y1025885D01*
X1578899Y1027145D01*
X1581625Y1027026D01*
D02*
G37*
G36*
X784250Y883000D02*
X694250D01*
Y938000D01*
X784250D01*
Y883000D01*
D02*
G37*
G36*
X691660Y965500D02*
X691750Y965049D01*
Y963000D01*
X693799D01*
X694250Y962910D01*
X703706D01*
Y953659D01*
X721286D01*
Y953983D01*
X723632Y954955D01*
X727419Y951169D01*
X728259Y950607D01*
X729250Y950410D01*
X754250D01*
X755241Y950607D01*
X756081Y951169D01*
X756303Y951500D01*
X784250D01*
Y940590D01*
X784250Y940590D01*
X694250D01*
X693799Y940500D01*
X691750D01*
Y938451D01*
X691660Y938000D01*
Y883000D01*
X636500D01*
Y977910D01*
X691660D01*
Y965500D01*
D02*
G37*
G36*
X1505250Y879500D02*
X1462750D01*
Y924500D01*
X1427750D01*
Y934500D01*
X1505250D01*
Y879500D01*
D02*
G37*
G36*
X1385710Y930500D02*
Y929960D01*
X1399290D01*
X1399290Y929960D01*
X1401210Y929960D01*
Y929960D01*
X1414790D01*
Y930500D01*
X1424714D01*
Y924761D01*
X1425160D01*
Y924500D01*
X1425250Y924049D01*
Y922000D01*
X1427299D01*
X1427750Y921910D01*
X1460160D01*
Y892000D01*
X1427750D01*
Y879500D01*
X1372750D01*
Y893252D01*
Y899352D01*
Y922452D01*
Y927552D01*
Y930500D01*
X1385710D01*
D02*
G37*
G36*
X1167000Y1074040D02*
Y1055360D01*
X1166420Y1053195D01*
Y1050805D01*
X1167000Y1048640D01*
Y1029960D01*
X1166420Y1027795D01*
Y1025405D01*
X1167000Y1023240D01*
Y1004560D01*
X1166420Y1002395D01*
Y1000005D01*
X1167000Y997840D01*
Y979160D01*
X1166420Y976995D01*
Y974605D01*
X1167000Y972440D01*
Y953760D01*
X1166420Y951595D01*
Y949205D01*
X1167000Y947040D01*
Y928360D01*
X1166420Y926195D01*
Y923805D01*
X1167000Y921640D01*
Y902960D01*
X1166420Y900795D01*
Y898405D01*
X1167000Y896240D01*
Y877560D01*
X1166420Y875395D01*
Y873005D01*
X1167000Y870840D01*
Y852160D01*
X1166420Y849995D01*
Y847605D01*
X1167000Y845440D01*
Y826760D01*
X1166420Y824595D01*
Y822205D01*
X1167000Y820040D01*
Y801360D01*
X1166420Y799195D01*
Y796805D01*
X1167000Y794640D01*
Y775960D01*
X1166420Y773795D01*
Y771405D01*
X1167000Y769240D01*
Y750560D01*
X1166420Y748395D01*
Y746005D01*
X1167000Y743840D01*
Y725160D01*
X1166420Y722995D01*
Y720605D01*
X1167000Y718440D01*
Y699760D01*
X1166420Y697595D01*
Y695205D01*
X1167000Y693040D01*
Y674360D01*
X1166420Y672195D01*
Y669805D01*
X1167000Y667640D01*
Y648960D01*
X1166420Y646795D01*
Y644405D01*
X1167000Y642240D01*
Y623560D01*
X1166420Y621395D01*
Y619005D01*
X1167000Y616840D01*
Y598160D01*
X1166420Y595995D01*
Y593605D01*
X1167000Y591440D01*
Y572760D01*
X1166420Y570595D01*
Y568205D01*
X1167000Y566040D01*
Y547360D01*
X1166420Y545195D01*
Y542805D01*
X1167000Y540640D01*
Y521960D01*
X1166420Y519795D01*
Y517405D01*
X1167000Y515240D01*
Y465000D01*
X1034000D01*
Y1075000D01*
X1166743D01*
X1167000Y1074040D01*
D02*
G37*
%LPC*%
G36*
X1400000Y1632641D02*
X1394894Y1632239D01*
X1389913Y1631043D01*
X1385181Y1629083D01*
X1380814Y1626407D01*
X1376920Y1623080D01*
X1373593Y1619186D01*
X1370917Y1614819D01*
X1368957Y1610087D01*
X1367761Y1605106D01*
X1367359Y1600000D01*
X1367761Y1594894D01*
X1368957Y1589913D01*
X1370917Y1585181D01*
X1373593Y1580814D01*
X1376920Y1576920D01*
X1380814Y1573593D01*
X1385181Y1570917D01*
X1389913Y1568957D01*
X1394894Y1567761D01*
X1400000Y1567359D01*
X1405106Y1567761D01*
X1410087Y1568957D01*
X1414819Y1570917D01*
X1419186Y1573593D01*
X1423080Y1576920D01*
X1426407Y1580814D01*
X1429083Y1585181D01*
X1431043Y1589913D01*
X1432239Y1594894D01*
X1432641Y1600000D01*
X1432239Y1605106D01*
X1431043Y1610087D01*
X1429083Y1614819D01*
X1426407Y1619186D01*
X1423080Y1623080D01*
X1419186Y1626407D01*
X1414819Y1629083D01*
X1410087Y1631043D01*
X1405106Y1632239D01*
X1400000Y1632641D01*
D02*
G37*
G36*
X800000D02*
X794894Y1632239D01*
X789913Y1631043D01*
X785182Y1629083D01*
X780814Y1626407D01*
X776920Y1623080D01*
X773593Y1619186D01*
X770917Y1614819D01*
X768957Y1610087D01*
X767761Y1605106D01*
X767359Y1600000D01*
X767761Y1594894D01*
X768957Y1589913D01*
X770917Y1585181D01*
X773593Y1580814D01*
X776920Y1576920D01*
X780814Y1573593D01*
X785182Y1570917D01*
X789913Y1568957D01*
X794894Y1567761D01*
X800000Y1567359D01*
X805106Y1567761D01*
X810087Y1568957D01*
X814818Y1570917D01*
X819186Y1573593D01*
X823080Y1576920D01*
X826407Y1580814D01*
X829083Y1585181D01*
X831043Y1589913D01*
X832239Y1594894D01*
X832641Y1600000D01*
X832239Y1605106D01*
X831043Y1610087D01*
X829083Y1614819D01*
X826407Y1619186D01*
X823080Y1623080D01*
X819186Y1626407D01*
X814818Y1629083D01*
X810087Y1631043D01*
X805106Y1632239D01*
X800000Y1632641D01*
D02*
G37*
G36*
X1512000Y1488625D02*
X1506000D01*
X1502561Y1488286D01*
X1499255Y1487283D01*
X1496208Y1485654D01*
X1495155Y1484790D01*
X1493710D01*
Y1484790D01*
X1488548Y1481596D01*
X1483483Y1483053D01*
X1482290Y1483894D01*
Y1484790D01*
X1457710D01*
Y1473671D01*
X1453536Y1469497D01*
X1451687Y1467087D01*
X1450524Y1464279D01*
X1450127Y1461267D01*
Y1447790D01*
X1437360D01*
Y1419810D01*
X1473640D01*
Y1447790D01*
X1473406D01*
Y1456446D01*
X1474171Y1457210D01*
X1482290D01*
Y1458107D01*
X1483483Y1458947D01*
X1488548Y1460404D01*
X1493710Y1457210D01*
Y1457210D01*
X1495155D01*
X1496208Y1456346D01*
X1499255Y1454717D01*
X1502561Y1453714D01*
X1504557Y1453517D01*
X1507375Y1450699D01*
Y1422000D01*
X1507714Y1418562D01*
X1508717Y1415255D01*
X1510345Y1412208D01*
X1512537Y1409537D01*
X1515208Y1407345D01*
X1518255Y1405717D01*
X1521561Y1404714D01*
X1525000Y1404375D01*
X1528438Y1404714D01*
X1531745Y1405717D01*
X1534792Y1407345D01*
X1537463Y1409537D01*
X1539655Y1412208D01*
X1541283Y1415255D01*
X1542286Y1418562D01*
X1542625Y1422000D01*
Y1458000D01*
X1542286Y1461438D01*
X1541283Y1464745D01*
X1539655Y1467792D01*
X1537463Y1470463D01*
X1524463Y1483463D01*
X1521792Y1485654D01*
X1518745Y1487283D01*
X1515438Y1488286D01*
X1512000Y1488625D01*
D02*
G37*
G36*
X1389530Y1477691D02*
X1384424Y1477289D01*
X1379444Y1476093D01*
X1374711Y1474133D01*
X1370344Y1471457D01*
X1366450Y1468130D01*
X1363123Y1464236D01*
X1360447Y1459868D01*
X1358487Y1455137D01*
X1357291Y1450156D01*
X1356889Y1445050D01*
X1357291Y1439944D01*
X1358487Y1434964D01*
X1360447Y1430231D01*
X1363123Y1425864D01*
X1366450Y1421970D01*
X1370344Y1418643D01*
X1374711Y1415967D01*
X1379444Y1414007D01*
X1384424Y1412811D01*
X1389530Y1412409D01*
X1394636Y1412811D01*
X1399617Y1414007D01*
X1404348Y1415967D01*
X1408716Y1418643D01*
X1412610Y1421970D01*
X1415937Y1425864D01*
X1418613Y1430231D01*
X1420573Y1434964D01*
X1421769Y1439944D01*
X1422171Y1445050D01*
X1421769Y1450156D01*
X1420573Y1455137D01*
X1418613Y1459868D01*
X1415937Y1464236D01*
X1412610Y1468130D01*
X1408716Y1471457D01*
X1404348Y1474133D01*
X1399617Y1476093D01*
X1394636Y1477289D01*
X1389530Y1477691D01*
D02*
G37*
G36*
X810470D02*
X805364Y1477289D01*
X800384Y1476093D01*
X795651Y1474133D01*
X791284Y1471457D01*
X787390Y1468130D01*
X784063Y1464236D01*
X781387Y1459868D01*
X779427Y1455137D01*
X778231Y1450156D01*
X777829Y1445050D01*
X778231Y1439944D01*
X779427Y1434964D01*
X781387Y1430231D01*
X784063Y1425864D01*
X787390Y1421970D01*
X791284Y1418643D01*
X795651Y1415967D01*
X800384Y1414007D01*
X805364Y1412811D01*
X810470Y1412409D01*
X815576Y1412811D01*
X820556Y1414007D01*
X825288Y1415967D01*
X829656Y1418643D01*
X833550Y1421970D01*
X836877Y1425864D01*
X839553Y1430231D01*
X841513Y1434964D01*
X842709Y1439944D01*
X843111Y1445050D01*
X842709Y1450156D01*
X841513Y1455137D01*
X839553Y1459868D01*
X836877Y1464236D01*
X833550Y1468130D01*
X829656Y1471457D01*
X825288Y1474133D01*
X820556Y1476093D01*
X815576Y1477289D01*
X810470Y1477691D01*
D02*
G37*
G36*
X674000Y1441625D02*
X670562Y1441286D01*
X667255Y1440283D01*
X664208Y1438654D01*
X661537Y1436463D01*
X659345Y1433792D01*
X657717Y1430745D01*
X656714Y1427438D01*
X656375Y1424000D01*
X656714Y1420562D01*
X657717Y1417255D01*
X659345Y1414208D01*
X661537Y1411537D01*
X664208Y1409346D01*
X667255Y1407717D01*
X670562Y1406714D01*
X674000Y1406375D01*
X677438Y1406714D01*
X680745Y1407717D01*
X683792Y1409346D01*
X686463Y1411537D01*
X688654Y1414208D01*
X690283Y1417255D01*
X691286Y1420562D01*
X691625Y1424000D01*
X691286Y1427438D01*
X690283Y1430745D01*
X688654Y1433792D01*
X686463Y1436463D01*
X683792Y1438654D01*
X680745Y1440283D01*
X677438Y1441286D01*
X674000Y1441625D01*
D02*
G37*
G36*
Y1391625D02*
X670562Y1391286D01*
X667255Y1390283D01*
X664208Y1388654D01*
X661537Y1386463D01*
X659345Y1383792D01*
X657717Y1380745D01*
X656714Y1377438D01*
X656375Y1374000D01*
X649702Y1368000D01*
X657500D01*
X658456Y1365692D01*
X660376Y1362819D01*
X662819Y1360376D01*
X665692Y1358456D01*
X668884Y1357134D01*
X672272Y1356460D01*
X675727D01*
X679116Y1357134D01*
X682308Y1358456D01*
X685181Y1360376D01*
X687624Y1362819D01*
X689544Y1365692D01*
X690500Y1368000D01*
X698298D01*
X691625Y1374000D01*
X691286Y1377438D01*
X690283Y1380745D01*
X688654Y1383792D01*
X686463Y1386463D01*
X683792Y1388654D01*
X680745Y1390283D01*
X677438Y1391286D01*
X674000Y1391625D01*
D02*
G37*
G36*
X1487848Y842740D02*
X1485152D01*
X1482547Y842042D01*
X1480213Y840694D01*
X1478306Y838788D01*
X1476958Y836452D01*
X1476260Y833848D01*
Y831152D01*
X1476958Y828548D01*
X1478306Y826212D01*
X1480213Y824306D01*
X1482547Y822958D01*
X1485152Y822260D01*
X1487848D01*
X1490453Y822958D01*
X1492787Y824306D01*
X1494694Y826212D01*
X1496042Y828548D01*
X1496740Y831152D01*
Y833848D01*
X1496042Y836452D01*
X1494694Y838788D01*
X1492787Y840694D01*
X1490453Y842042D01*
X1487848Y842740D01*
D02*
G37*
G36*
X1442848D02*
X1440152D01*
X1437547Y842042D01*
X1435213Y840694D01*
X1433306Y838788D01*
X1431958Y836452D01*
X1431260Y833848D01*
Y831152D01*
X1431958Y828548D01*
X1433306Y826212D01*
X1435213Y824306D01*
X1437547Y822958D01*
X1440152Y822260D01*
X1442848D01*
X1445453Y822958D01*
X1447787Y824306D01*
X1449694Y826212D01*
X1451042Y828548D01*
X1451740Y831152D01*
Y833848D01*
X1451042Y836452D01*
X1449694Y838788D01*
X1447787Y840694D01*
X1445453Y842042D01*
X1442848Y842740D01*
D02*
G37*
G36*
X1451740Y777740D02*
X1431260D01*
Y757260D01*
X1451740D01*
Y777740D01*
D02*
G37*
G36*
X1527728Y796540D02*
X1524272D01*
X1520884Y795866D01*
X1517692Y794544D01*
X1514819Y792624D01*
X1512376Y790181D01*
X1510456Y787308D01*
X1509134Y784116D01*
X1508460Y780727D01*
Y777272D01*
X1509134Y773884D01*
X1510456Y770692D01*
X1512376Y767819D01*
X1514819Y765376D01*
X1517692Y763456D01*
X1518395Y763165D01*
Y755150D01*
X1513850Y750605D01*
X1508750D01*
X1506782Y750346D01*
X1506043Y750040D01*
X1502580D01*
X1501960Y750040D01*
X1500040D01*
X1499420Y750040D01*
X1495539D01*
X1493096Y752482D01*
Y759615D01*
X1494694Y761212D01*
X1496042Y763548D01*
X1496740Y766152D01*
Y768848D01*
X1496042Y771452D01*
X1494694Y773788D01*
X1492787Y775694D01*
X1490453Y777042D01*
X1487848Y777740D01*
X1485152D01*
X1482547Y777042D01*
X1480213Y775694D01*
X1478306Y773788D01*
X1476958Y771452D01*
X1476260Y768848D01*
Y766152D01*
X1476958Y763548D01*
X1478306Y761212D01*
X1479904Y759615D01*
Y749750D01*
X1480128Y748043D01*
X1480787Y746452D01*
X1481836Y745086D01*
X1486460Y740461D01*
Y735960D01*
X1499420D01*
X1500040Y735960D01*
X1501960D01*
X1502580Y735960D01*
X1506043D01*
X1506782Y735654D01*
X1508750Y735395D01*
X1517000D01*
X1518968Y735654D01*
X1520802Y736414D01*
X1522378Y737622D01*
X1531378Y746622D01*
X1532586Y748197D01*
X1532901Y748957D01*
X1533346Y750032D01*
X1533605Y752000D01*
Y763165D01*
X1534308Y763456D01*
X1537181Y765376D01*
X1539624Y767819D01*
X1541544Y770692D01*
X1542866Y773884D01*
X1543540Y777272D01*
Y780727D01*
X1542866Y784116D01*
X1541544Y787308D01*
X1539624Y790181D01*
X1537181Y792624D01*
X1534308Y794544D01*
X1531116Y795866D01*
X1527728Y796540D01*
D02*
G37*
G36*
X1468561Y702540D02*
X1463439D01*
X1458380Y701739D01*
X1453509Y700156D01*
X1448945Y697831D01*
X1444802Y694820D01*
X1441180Y691198D01*
X1438169Y687055D01*
X1435844Y682491D01*
X1434261Y677620D01*
X1433460Y672561D01*
Y667439D01*
X1434261Y662380D01*
X1435844Y657509D01*
X1438169Y652945D01*
X1441180Y648802D01*
X1444802Y645180D01*
X1448945Y642169D01*
X1453509Y639844D01*
X1458380Y638261D01*
X1463439Y637460D01*
X1468561D01*
X1473620Y638261D01*
X1478491Y639844D01*
X1483055Y642169D01*
X1487198Y645180D01*
X1490820Y648802D01*
X1493831Y652945D01*
X1496156Y657509D01*
X1497739Y662380D01*
X1498540Y667439D01*
Y672561D01*
X1497739Y677620D01*
X1496156Y682491D01*
X1493831Y687055D01*
X1490820Y691198D01*
X1487198Y694820D01*
X1483055Y697831D01*
X1478491Y700156D01*
X1473620Y701739D01*
X1468561Y702540D01*
D02*
G37*
%LPD*%
D13*
X807125Y1217875D02*
X838125D01*
X845000Y1211000D02*
X933000D01*
X938106Y1204134D02*
Y1205894D01*
Y1204134D02*
X941000Y1201241D01*
X933000Y1211000D02*
X938106Y1205894D01*
X941000Y1199130D02*
Y1201241D01*
X1433254Y1266201D02*
X1486754D01*
X1361375Y1229375D02*
X1391875D01*
X1433504Y1018951D02*
X1487004D01*
X712246Y1181049D02*
X765746D01*
X712496Y933549D02*
X765996D01*
X567750Y744000D02*
X567794Y744044D01*
X592218D01*
X592261Y744087D01*
X567750Y744000D02*
X567831Y744081D01*
X1252150Y551640D02*
X1253650Y553140D01*
X1232538Y518600D02*
X1252150Y538212D01*
Y551640D01*
X1235744Y1215506D02*
X1236250Y1215000D01*
X1235744Y1215506D02*
Y1230046D01*
X1235450Y1230340D02*
X1235744Y1230046D01*
X1235238Y1230340D02*
X1235450D01*
X1175500Y950400D02*
X1177046Y948854D01*
Y943154D02*
Y948854D01*
Y943154D02*
X1273000Y847200D01*
X1218000Y927600D02*
X1273000Y872600D01*
X1218000Y927600D02*
Y966000D01*
X837750Y970250D02*
X845000Y977500D01*
Y1071500D01*
X994407Y1090000D02*
X1007007Y1077400D01*
X1023100D01*
X980500Y1090000D02*
X994407D01*
X822000Y970250D02*
X837750D01*
X1175500Y975800D02*
X1177686D01*
X1186487Y984600D01*
X1175500Y1001200D02*
X1177686D01*
X1186487Y1010000D01*
X1209750Y789150D02*
X1234000D01*
X1175500Y823400D02*
X1209750Y789150D01*
X1234000D02*
X1237750Y785400D01*
X1234000Y730850D02*
X1237750Y734600D01*
X1175500Y696400D02*
X1209950Y730850D01*
X1234000D01*
X1220150Y671000D02*
X1283750Y734600D01*
X1175500Y671000D02*
X1220150D01*
X1283750Y734600D02*
X1302500D01*
X1209950Y756250D02*
X1234000D01*
X1175500Y721800D02*
X1209950Y756250D01*
X1234000D02*
X1237750Y760000D01*
X1239450Y544000D02*
X1240950Y545500D01*
Y553140D01*
X1175500Y544000D02*
X1239450D01*
X1175500Y518600D02*
X1232538D01*
X962250Y734600D02*
X965852Y730998D01*
Y723779D02*
Y730998D01*
Y723779D02*
X1017085Y672546D01*
X1021554D02*
X1023100Y671000D01*
X1017085Y672546D02*
X1021554D01*
X997000Y722500D02*
Y744000D01*
Y722500D02*
X1023100Y696400D01*
X981000Y760000D02*
X997000Y744000D01*
X962250Y760000D02*
X981000D01*
X845000Y1071500D02*
Y1211000D01*
X807000Y1015500D02*
X831729D01*
X832229Y1015000D02*
X832500D01*
X831729Y1015500D02*
X832229Y1015000D01*
X1239500Y1095000D02*
X1258150D01*
X1186487Y984600D02*
X1237750D01*
X1186487Y1010000D02*
X1237750D01*
X838125Y1217875D02*
X845000Y1211000D01*
X1354500Y1095500D02*
Y1222500D01*
Y993000D02*
Y1095500D01*
X831729Y1188000D02*
X832229Y1187500D01*
X806750Y1188000D02*
X831729D01*
X832229Y1187500D02*
X832500D01*
X1354500Y1222500D02*
X1361375Y1229375D01*
X1365250Y982250D02*
X1377500D01*
X1354500Y993000D02*
X1365250Y982250D01*
X806750Y1203000D02*
X831729D01*
X832229Y1202500D02*
X832500D01*
X831729Y1203000D02*
X832229Y1202500D01*
X807000Y940500D02*
X831729D01*
X832229Y940000D01*
X832500D01*
X1366500Y937000D02*
X1392500D01*
X1379000Y1011500D02*
X1379500Y1012000D01*
X1366500Y1011500D02*
X1379000D01*
X1379500Y1012000D02*
X1392500D01*
X1367146Y1244125D02*
X1390500D01*
X1366500Y1244500D02*
X1366771D01*
X1367146Y1244125D01*
X1390500D02*
X1390625Y1244250D01*
X1392250D01*
X1366500Y997000D02*
X1392500D01*
X1366500Y1259000D02*
X1366625Y1259125D01*
X1392125D01*
X1392250Y1259250D01*
X1366500Y1184000D02*
X1366625Y1184125D01*
X1392125D01*
X1392250Y1184250D01*
X1392500Y997000D02*
X1392500Y997000D01*
X806750Y1263000D02*
X831729D01*
X832229Y1262500D01*
X832500D01*
X807000Y955500D02*
X831729D01*
X832229Y955000D01*
X832500D01*
X765996Y958949D02*
X788301D01*
X807250Y970500D02*
X807375Y970375D01*
X790849Y984599D02*
X791750Y985500D01*
Y970500D02*
Y985500D01*
X766246Y984599D02*
X790849D01*
X807250Y985500D02*
X807375Y985625D01*
X788299Y997049D02*
X791500Y1000250D01*
Y1000500D01*
X788301Y958949D02*
X791500Y955750D01*
Y955500D02*
Y955750D01*
X626989Y917913D02*
X627000Y917924D01*
Y1035576D01*
X611500Y917924D02*
Y1035576D01*
X627000Y917924D02*
X627076Y918000D01*
X611489Y917913D02*
X611500Y917924D01*
X627000Y1035576D02*
X627011Y1035587D01*
X611506Y1035593D02*
X611511Y1035587D01*
X611500Y1035576D02*
X611511Y1035587D01*
X611500Y1050500D02*
X611506Y1050494D01*
X627000Y1050500D02*
X656500D01*
X627076Y918000D02*
X656500D01*
X611506Y1035593D02*
Y1050494D01*
X766500Y930500D02*
X766625Y930625D01*
X729000Y930500D02*
X729125Y930625D01*
X765996Y997049D02*
X788299D01*
X761750Y1069350D02*
X761875Y1069475D01*
X765996Y984349D02*
X766246Y984599D01*
X744250Y1043000D02*
X744500Y1043250D01*
X729000Y1065500D02*
X729125Y1065625D01*
X744500Y1043250D02*
Y1068000D01*
X821875Y985625D02*
X822000Y985750D01*
X821875Y970375D02*
X822000Y970250D01*
X807375Y985625D02*
X821875D01*
X807375Y970375D02*
X821875D01*
X761875Y1069475D02*
Y1082875D01*
X729000Y1080071D02*
X731929Y1083000D01*
X782526Y1083174D02*
X782700Y1083348D01*
X762174Y1083174D02*
X782526D01*
X761875Y1082875D02*
X762000Y1083000D01*
X746375Y1082875D02*
X746500Y1083000D01*
X712496Y971649D02*
X765996D01*
X729000Y1068000D02*
Y1080071D01*
X731929Y1083000D02*
X746500D01*
X795400Y1083348D02*
X808100D01*
X820800D01*
X708746Y984099D02*
X708996Y984349D01*
X712495Y978000D02*
X712496Y977999D01*
Y984349D01*
Y971649D02*
Y977999D01*
X708996Y984349D02*
X712496D01*
X711250Y933299D02*
X711500Y933549D01*
X712496D01*
X1587994Y902006D02*
X1588000Y902000D01*
X1587989Y916913D02*
X1588000Y916924D01*
X1587994Y902006D02*
Y916907D01*
X1587989Y916913D02*
X1587994Y916907D01*
X1572500Y1034576D02*
X1572511Y1034587D01*
X1588000Y1034576D02*
X1588011Y1034587D01*
X1588000Y916924D02*
Y1034576D01*
X1391400Y869152D02*
X1404100D01*
X1416800D02*
X1416974Y869326D01*
X1437326D01*
X1467571Y869500D02*
X1470500Y872429D01*
X1453000Y869500D02*
X1467571D01*
X1470500Y872429D02*
Y884500D01*
X1453000Y869500D02*
X1453125Y869625D01*
X1437625D02*
Y883025D01*
X1437500Y869500D02*
X1437625Y869625D01*
X1408000Y952250D02*
X1411201Y955451D01*
X1408000Y952000D02*
Y952250D01*
X1378700Y869152D02*
X1391400D01*
X1377500Y966750D02*
X1377625Y966875D01*
X1543000Y1034500D02*
X1572424D01*
X1572500Y916924D02*
Y1034576D01*
X1572424Y1034500D02*
X1572500Y1034576D01*
X1572489Y916913D02*
X1572500Y916924D01*
X1437625Y883025D02*
X1437750Y883150D01*
X1543000Y902000D02*
X1572500D01*
X1408651Y967901D02*
X1433254D01*
X1433504Y968151D01*
X1411199Y993551D02*
X1433504D01*
X1432875Y1021875D02*
X1433000Y1022000D01*
X1470375Y1021875D02*
X1470500Y1022000D01*
X1411201Y955451D02*
X1433504D01*
X1490504Y968151D02*
X1490754Y968401D01*
X1487004Y968151D02*
X1490504D01*
X1487004D02*
Y974501D01*
Y980851D01*
X1488000Y1018951D02*
X1488250Y1019201D01*
X1487004Y1018951D02*
X1488000D01*
X1433504Y980851D02*
X1487004D01*
Y974501D02*
X1487005Y974500D01*
X1470375Y886875D02*
X1470500Y887000D01*
X1455000Y884500D02*
Y909250D01*
X1455250Y909500D01*
X1377500Y982250D02*
X1377625Y982125D01*
X1392125D02*
X1392250Y982000D01*
X1392125Y966875D02*
X1392250Y967000D01*
X1377625Y966875D02*
X1392125D01*
X1377625Y982125D02*
X1392125D01*
X1408000Y996750D02*
X1411199Y993551D01*
X1408000Y996750D02*
Y997000D01*
X1407750Y967000D02*
X1408651Y967901D01*
X1407750Y967000D02*
Y982000D01*
X761924Y1330674D02*
X782276D01*
X782450Y1330848D01*
X761625Y1316975D02*
Y1330375D01*
X761750Y1330500D01*
X746125Y1330375D02*
X746250Y1330500D01*
X731679D02*
X746250D01*
X761500Y1316850D02*
X761625Y1316975D01*
X728750Y1313000D02*
X728875Y1313125D01*
X728750Y1315500D02*
Y1327571D01*
X731679Y1330500D01*
X744000Y1290500D02*
X744250Y1290750D01*
Y1315500D01*
X765996Y1232099D02*
X790599D01*
X765746Y1244549D02*
X788049D01*
X791250Y1203000D02*
Y1203250D01*
X807000Y1218000D02*
X807125Y1217875D01*
X788051Y1206449D02*
X791250Y1203250D01*
X765746Y1206449D02*
X788051D01*
X791500Y1218000D02*
Y1233000D01*
X765746Y1231849D02*
X765996Y1232099D01*
X791250Y1247750D02*
Y1248000D01*
X790599Y1232099D02*
X791500Y1233000D01*
X807000D02*
X807125Y1233125D01*
X788049Y1244549D02*
X791250Y1247750D01*
X821625Y1233125D02*
X821750Y1233250D01*
X807125Y1233125D02*
X821625D01*
X807850Y1330848D02*
X820550D01*
X795150D02*
X807850D01*
X712246Y1225499D02*
Y1231849D01*
X708496Y1231599D02*
X708746Y1231849D01*
X712246D01*
X712245Y1225500D02*
X712246Y1225499D01*
Y1219149D02*
Y1225499D01*
X711000Y1180799D02*
X711250Y1181049D01*
X728750Y1178000D02*
X728875Y1178125D01*
X766250Y1178000D02*
X766375Y1178125D01*
X711250Y1181049D02*
X712246D01*
X611250Y1165424D02*
Y1283076D01*
X626750Y1165424D02*
Y1283076D01*
X611256Y1283093D02*
Y1297994D01*
X611250Y1283076D02*
X611261Y1283087D01*
X611256Y1283093D02*
X611261Y1283087D01*
X611250Y1298000D02*
X611256Y1297994D01*
X626750Y1298000D02*
X656250D01*
X626750Y1283076D02*
X626761Y1283087D01*
X712246Y1219149D02*
X765746D01*
X626826Y1165500D02*
X656250D01*
X611239Y1165413D02*
X611250Y1165424D01*
X626750D02*
X626826Y1165500D01*
X626739Y1165413D02*
X626750Y1165424D01*
X1470125Y1269125D02*
X1470250Y1269250D01*
X1486754Y1266201D02*
X1487750D01*
X1488000Y1266451D01*
X1432625Y1269125D02*
X1432750Y1269250D01*
X1486754Y1215401D02*
X1490254D01*
X1433254Y1228101D02*
X1486754D01*
Y1215401D02*
Y1221751D01*
X1486755Y1221750D01*
X1490254Y1215401D02*
X1490504Y1215651D01*
X1486754Y1221751D02*
Y1228101D01*
X1542750Y1149250D02*
X1572250D01*
X1452750Y1116750D02*
X1452875Y1116875D01*
X1407500Y1214250D02*
X1408401Y1215151D01*
X1407500Y1214250D02*
Y1229250D01*
X1408401Y1215151D02*
X1433004D01*
X1433254Y1215401D01*
X1407750Y1199250D02*
Y1199500D01*
X1410951Y1202701D01*
X1433254D01*
X1407750Y1244000D02*
Y1244250D01*
Y1244000D02*
X1410949Y1240801D01*
X1433254D01*
X1378450Y1116402D02*
X1391150D01*
X1403850D01*
X1416550D02*
X1416724Y1116576D01*
X1437076D01*
X1437375Y1116875D02*
Y1130275D01*
X1437250Y1116750D02*
X1437375Y1116875D01*
Y1130275D02*
X1437500Y1130400D01*
X1542750Y1281750D02*
X1572174D01*
X1572250Y1281826D01*
X1572239Y1164163D02*
X1572250Y1164174D01*
Y1281826D01*
X1572261Y1281837D01*
X1587744Y1149256D02*
Y1164157D01*
X1587739Y1164163D02*
X1587744Y1164157D01*
Y1149256D02*
X1587750Y1149250D01*
X1587739Y1164163D02*
X1587750Y1164174D01*
Y1281826D01*
X1587761Y1281837D01*
X1391875Y1229375D02*
X1392000Y1229250D01*
X1377250Y1214000D02*
X1377375Y1214125D01*
X1391875D01*
X1392000Y1214250D01*
X1452750Y1116750D02*
X1467321D01*
X1470250Y1119679D01*
Y1131750D01*
X1470125Y1134125D02*
X1470250Y1134250D01*
X1454750Y1131750D02*
Y1156500D01*
X1455000Y1156750D01*
X1279050Y477950D02*
Y553140D01*
X1272500Y579000D02*
X1278902Y572598D01*
Y553288D02*
X1279050Y553140D01*
X1278902Y553288D02*
Y572598D01*
X1258000Y579000D02*
X1272500D01*
X1253650Y583350D02*
Y604860D01*
Y583350D02*
X1258000Y579000D01*
X1284200Y1094350D02*
X1310100D01*
D14*
X1258150Y1095000D02*
X1258800Y1094350D01*
X1310100D02*
X1310250Y1094500D01*
D20*
X1493250Y743000D02*
D03*
X1508750D02*
D03*
X552250Y744000D02*
D03*
X567750D02*
D03*
X1236250Y1215000D02*
D03*
X1251750D02*
D03*
X1140450Y1380350D02*
D03*
X1155950D02*
D03*
X1236750Y1287500D02*
D03*
X1252250D02*
D03*
X1325750Y1094500D02*
D03*
X1310250D02*
D03*
X611250Y1298000D02*
D03*
X626750D02*
D03*
X746250Y1330500D02*
D03*
X761750D02*
D03*
X807000Y1218000D02*
D03*
X791500D02*
D03*
X807000Y1233000D02*
D03*
X791500D02*
D03*
X806750Y1248000D02*
D03*
X791250D02*
D03*
X806750Y1203000D02*
D03*
X791250D02*
D03*
X806750Y1188000D02*
D03*
X791250D02*
D03*
X806750Y1263000D02*
D03*
X791250D02*
D03*
X1392250Y1184250D02*
D03*
X1407750D02*
D03*
X807000Y1015500D02*
D03*
X791500D02*
D03*
X1392500Y937000D02*
D03*
X1408000D02*
D03*
X1392250Y1259250D02*
D03*
X1407750D02*
D03*
X807000Y940500D02*
D03*
X791500D02*
D03*
X1392500Y1012000D02*
D03*
X1408000D02*
D03*
X1392250Y1244250D02*
D03*
X1407750D02*
D03*
X807000Y955500D02*
D03*
X791500D02*
D03*
X1392500Y997000D02*
D03*
X1408000D02*
D03*
X1392250Y1199250D02*
D03*
X1407750D02*
D03*
X807000Y1000500D02*
D03*
X791500D02*
D03*
X1392500Y952000D02*
D03*
X1408000D02*
D03*
X1392000Y1214250D02*
D03*
X1407500D02*
D03*
X807250Y985500D02*
D03*
X791750D02*
D03*
X1392250Y967000D02*
D03*
X1407750D02*
D03*
X1392000Y1229250D02*
D03*
X1407500D02*
D03*
X807250Y970500D02*
D03*
X791750D02*
D03*
X1392250Y982000D02*
D03*
X1407750D02*
D03*
X1452750Y1116750D02*
D03*
X1437250D02*
D03*
X746500Y1083000D02*
D03*
X762000D02*
D03*
X1453000Y869500D02*
D03*
X1437500D02*
D03*
X1587750Y1149250D02*
D03*
X1572250D02*
D03*
X611500Y1050500D02*
D03*
X627000D02*
D03*
X1588000Y902000D02*
D03*
X1572500D02*
D03*
X611239Y1165413D02*
D03*
X626739D02*
D03*
X626761Y1283087D02*
D03*
X611261D02*
D03*
X1572239Y1164163D02*
D03*
X1587739D02*
D03*
X627011Y1035587D02*
D03*
X611511D02*
D03*
X1572489Y916913D02*
D03*
X1587989D02*
D03*
X1587761Y1281837D02*
D03*
X1572261D02*
D03*
X611489Y917913D02*
D03*
X626989D02*
D03*
X1588011Y1034587D02*
D03*
X1572511D02*
D03*
X607761Y744087D02*
D03*
X592261D02*
D03*
D21*
X1096200Y1397850D02*
D03*
X1034200D02*
D03*
D22*
X922450Y605360D02*
D03*
X935150D02*
D03*
X947850D02*
D03*
X960550D02*
D03*
X922450Y553640D02*
D03*
X935150D02*
D03*
X947850D02*
D03*
X960550D02*
D03*
X1279050Y553140D02*
D03*
X1266350D02*
D03*
X1253650D02*
D03*
X1240950D02*
D03*
X1279050Y604860D02*
D03*
X1266350D02*
D03*
X1253650D02*
D03*
X1240950D02*
D03*
D23*
X1302500Y1035400D02*
D03*
Y984600D02*
D03*
Y1010000D02*
D03*
X1237750Y984600D02*
D03*
Y1010000D02*
D03*
Y1035400D02*
D03*
X1302500Y785400D02*
D03*
Y734600D02*
D03*
Y760000D02*
D03*
X1237750Y734600D02*
D03*
Y760000D02*
D03*
Y785400D02*
D03*
X897500Y734600D02*
D03*
Y785400D02*
D03*
Y760000D02*
D03*
X962250Y785400D02*
D03*
Y760000D02*
D03*
Y734600D02*
D03*
X897500Y984600D02*
D03*
Y1035400D02*
D03*
Y1010000D02*
D03*
X962250Y1035400D02*
D03*
Y1010000D02*
D03*
Y984600D02*
D03*
D24*
X1289722Y1268440D02*
D03*
Y1255740D02*
D03*
Y1243040D02*
D03*
Y1230340D02*
D03*
X1235238D02*
D03*
Y1243040D02*
D03*
Y1255740D02*
D03*
Y1268440D02*
D03*
D25*
X1455500Y1365200D02*
D03*
Y1433800D02*
D03*
D26*
X1470000Y1471000D02*
D03*
X1506000D02*
D03*
D27*
X1036500Y1319750D02*
D03*
Y1335250D02*
D03*
X1172200Y1279600D02*
D03*
Y1295100D02*
D03*
D28*
Y1263100D02*
D03*
Y1247600D02*
D03*
X821750Y1233250D02*
D03*
Y1217750D02*
D03*
X1377250Y1214000D02*
D03*
Y1229500D02*
D03*
X822000Y985750D02*
D03*
Y970250D02*
D03*
X1377500Y966750D02*
D03*
Y982250D02*
D03*
D29*
X728750Y1315500D02*
D03*
X744250D02*
D03*
X1470250Y1131750D02*
D03*
X1454750D02*
D03*
X729000Y1068000D02*
D03*
X744500D02*
D03*
X1470500Y884500D02*
D03*
X1455000D02*
D03*
D30*
X810500Y892500D02*
D03*
X760500D02*
D03*
X1389000Y1060000D02*
D03*
X1439000D02*
D03*
X810250Y1140000D02*
D03*
X760250D02*
D03*
X1388750Y1307250D02*
D03*
X1438750D02*
D03*
D31*
X765996Y1022449D02*
D03*
Y1009749D02*
D03*
Y997049D02*
D03*
Y984349D02*
D03*
Y971649D02*
D03*
Y958949D02*
D03*
Y946249D02*
D03*
Y933549D02*
D03*
X712496D02*
D03*
Y946249D02*
D03*
Y958949D02*
D03*
Y971649D02*
D03*
Y984349D02*
D03*
Y997049D02*
D03*
Y1009749D02*
D03*
Y1022449D02*
D03*
X1433504Y930051D02*
D03*
Y942751D02*
D03*
Y955451D02*
D03*
Y968151D02*
D03*
Y980851D02*
D03*
Y993551D02*
D03*
Y1006251D02*
D03*
Y1018951D02*
D03*
X1487004D02*
D03*
Y1006251D02*
D03*
Y993551D02*
D03*
Y980851D02*
D03*
Y968151D02*
D03*
Y955451D02*
D03*
Y942751D02*
D03*
Y930051D02*
D03*
X712246Y1269949D02*
D03*
Y1181049D02*
D03*
X765746D02*
D03*
Y1269949D02*
D03*
Y1219149D02*
D03*
X712246D02*
D03*
Y1231849D02*
D03*
X765746Y1257249D02*
D03*
X712246D02*
D03*
X765746Y1193749D02*
D03*
X712246D02*
D03*
X765746Y1231849D02*
D03*
Y1244549D02*
D03*
Y1206449D02*
D03*
X712246D02*
D03*
Y1244549D02*
D03*
X1433254Y1177301D02*
D03*
Y1190001D02*
D03*
Y1202701D02*
D03*
Y1215401D02*
D03*
Y1228101D02*
D03*
Y1240801D02*
D03*
Y1253501D02*
D03*
Y1266201D02*
D03*
X1486754D02*
D03*
Y1253501D02*
D03*
Y1240801D02*
D03*
Y1228101D02*
D03*
Y1215401D02*
D03*
Y1202701D02*
D03*
Y1190001D02*
D03*
Y1177301D02*
D03*
D32*
X782700Y1083348D02*
D03*
X795400D02*
D03*
X808100D02*
D03*
X820800D02*
D03*
X1416800Y869152D02*
D03*
X1404100D02*
D03*
X1391400D02*
D03*
X1378700D02*
D03*
X820550Y1330848D02*
D03*
X807850D02*
D03*
X795150D02*
D03*
X782450D02*
D03*
X1416550Y1116402D02*
D03*
X1403850D02*
D03*
X1391150D02*
D03*
X1378450D02*
D03*
D33*
X801750Y1045500D02*
D03*
X1397750Y907000D02*
D03*
X801500Y1293000D02*
D03*
X1397500Y1154250D02*
D03*
D34*
X761750Y1069350D02*
D03*
Y1036650D02*
D03*
X1437750Y883150D02*
D03*
Y915850D02*
D03*
X761500Y1284150D02*
D03*
Y1316850D02*
D03*
X1437500Y1130400D02*
D03*
Y1163100D02*
D03*
D35*
X960200Y1330350D02*
D03*
Y1417350D02*
D03*
X1239200D02*
D03*
Y1330350D02*
D03*
D36*
X1101200Y1174350D02*
D03*
D37*
X1135200Y1278850D02*
D03*
X1118200D02*
D03*
X1084200D02*
D03*
X1067200D02*
D03*
X1101200D02*
D03*
D38*
X1098000Y1340000D02*
D03*
Y1320000D02*
D03*
X1160500Y1340000D02*
D03*
Y1320000D02*
D03*
D39*
X1065500Y1330000D02*
D03*
X1128000D02*
D03*
D40*
X1166100Y1423850D02*
D03*
X1130300D02*
D03*
D41*
X1258800Y1189650D02*
D03*
X1284200D02*
D03*
Y1094350D02*
D03*
X1258800D02*
D03*
D56*
X1486500Y832500D02*
D03*
Y767500D02*
D03*
X1441500Y832500D02*
D03*
D57*
Y767500D02*
D03*
D64*
X1508750Y743000D02*
X1517000D01*
X1526000Y752000D01*
Y779000D01*
X1243228Y848800D02*
X1303750Y788278D01*
X1175500Y848800D02*
X1243228D01*
X857000Y763650D02*
X878750Y785400D01*
X843000Y660000D02*
Y715000D01*
Y553000D02*
Y660000D01*
X753000Y761000D02*
X795757Y803757D01*
X753000Y707000D02*
Y761000D01*
X795757Y803757D02*
X897757D01*
X929500Y835500D01*
X607761Y669239D02*
X652000Y625000D01*
X701000D01*
Y634055D01*
X701405Y656405D02*
X702000Y657000D01*
X701405Y634460D02*
Y656405D01*
X701000Y634055D02*
X701405Y634460D01*
X552250Y744000D02*
Y801250D01*
X580000Y829000D02*
X670000D01*
X552250Y801250D02*
X580000Y829000D01*
X701000Y593147D02*
X897075Y478001D01*
X701000Y593147D02*
Y625000D01*
X843000Y715000D02*
X857000Y729000D01*
X843000Y553000D02*
X892700Y503300D01*
X607761Y669239D02*
Y744087D01*
X929500Y835500D02*
Y918500D01*
X1302500Y923000D02*
Y984600D01*
Y897299D02*
Y923000D01*
X1273000Y923400D02*
X1302100D01*
X1302500Y923000D01*
X1301250Y1036650D02*
X1302500Y1035400D01*
X1210500Y1105000D02*
X1278850Y1036650D01*
X1301250D01*
X897000Y717000D02*
Y729500D01*
X872500Y560427D02*
Y692500D01*
X897000Y717000D01*
X897500Y1010000D02*
Y1035858D01*
X898292Y1051792D02*
X918500Y1072000D01*
X898292Y1036650D02*
Y1051792D01*
X892700Y503300D02*
X1007800D01*
X897500Y785400D02*
X962250D01*
X1007800Y503300D02*
X1023100Y518600D01*
X1039600D01*
X878750Y785400D02*
X897500D01*
Y1035858D02*
X898292Y1036650D01*
X1039600Y518600D02*
X1040000Y519000D01*
X918500Y1072000D02*
X993000D01*
X857000Y729000D02*
Y763650D01*
X878750Y1010000D02*
X897500D01*
X1158200Y493200D02*
X1175500D01*
X1157500Y492500D02*
X1158200Y493200D01*
X1279050Y477900D02*
X1317237D01*
X1190750Y477950D02*
X1279050D01*
X1175500Y493200D02*
X1190750Y477950D01*
X1007837Y478001D02*
X1023036Y493200D01*
X897075Y478001D02*
X1007837D01*
X1023036Y493200D02*
X1023100D01*
X904227Y528700D02*
X1007800D01*
X1023100Y544000D01*
X1351014Y730236D02*
Y848785D01*
Y511677D02*
Y730236D01*
X1321250Y760000D02*
X1351014Y730236D01*
X1302500Y760000D02*
X1321250D01*
X897500Y734600D02*
Y760000D01*
X1340000Y1000500D02*
Y1088000D01*
X1303750Y985850D02*
X1325350D01*
X1340000Y1000500D01*
X1302500Y984600D02*
X1303750Y985850D01*
X1302500Y1010000D02*
Y1035400D01*
X872500Y560427D02*
X904227Y528700D01*
X1333500Y1094500D02*
X1340000Y1088000D01*
X1325750Y1094500D02*
X1333500D01*
X1302500Y897299D02*
X1351014Y848785D01*
X1317237Y477900D02*
X1351014Y511677D01*
D65*
X1486500Y749750D02*
Y767500D01*
Y749750D02*
X1493250Y743000D01*
X1251750Y1215000D02*
X1280000D01*
X1252250Y1242750D02*
X1280000Y1215000D01*
X790000Y834000D02*
X834000D01*
X860000Y860000D02*
Y1065000D01*
X834000Y834000D02*
X860000Y860000D01*
X729000Y773000D02*
X790000Y834000D01*
X729000Y681000D02*
X753000Y657000D01*
X729000Y681000D02*
Y773000D01*
X1237036Y1036114D02*
Y1048964D01*
X905000Y1110000D02*
X1176000D01*
X1237036Y1036114D02*
X1237750Y1035400D01*
X1176000Y1110000D02*
X1237036Y1048964D01*
X860000Y1065000D02*
X905000Y1110000D01*
X1282000Y1193387D02*
Y1213000D01*
X1252250Y1242750D02*
Y1287500D01*
X1282000Y1193387D02*
X1284200Y1191187D01*
Y1189650D02*
Y1191187D01*
X947850Y605360D02*
X960550D01*
Y682550D02*
X963000Y685000D01*
X960550Y605360D02*
Y682550D01*
X900000Y686000D02*
X962000D01*
X963000Y685000D01*
X1006500Y1010000D02*
X1023100Y1026600D01*
X962250Y1010000D02*
X1006500D01*
Y1035400D02*
X1023100Y1052000D01*
X962250Y1035400D02*
X1006500D01*
X962250Y1010000D02*
X962900Y1010650D01*
X1102200Y1254800D02*
Y1277850D01*
X1101700Y1278350D02*
X1102200Y1277850D01*
Y1254800D02*
X1109400Y1247600D01*
X1101200Y1278850D02*
X1101700Y1278350D01*
X1172200Y1247600D02*
X1187900D01*
X1188000Y1247500D01*
X1100200Y1279850D02*
X1101200Y1278850D01*
X1109400Y1247600D02*
X1171950D01*
X1037000Y1319500D02*
X1049040Y1307460D01*
X1036500Y1319750D02*
X1036750Y1319500D01*
X1049040Y1307460D02*
X1095514D01*
X1100200Y1279850D02*
Y1302774D01*
X1095514Y1307460D02*
X1100200Y1302774D01*
X1036750Y1319500D02*
X1037000D01*
X1084000Y1247500D02*
Y1252750D01*
X1083936Y1278586D02*
X1084200Y1278850D01*
X1083936Y1252686D02*
Y1278586D01*
Y1252686D02*
X1084000Y1252750D01*
X1023000Y1343500D02*
X1039000Y1359500D01*
X1023000Y1248000D02*
Y1343500D01*
X1079000Y1359500D02*
X1096200Y1376700D01*
X1039000Y1359500D02*
X1079000D01*
X1096200Y1376700D02*
Y1397850D01*
X1252250Y1287500D02*
X1272750D01*
X1098000Y1320000D02*
X1117200Y1300800D01*
X1172200Y1263100D02*
Y1279600D01*
X1135200Y1294100D02*
X1136200Y1295100D01*
X1172200D01*
X1135200Y1278850D02*
Y1294100D01*
X1065500Y1329500D02*
X1075000Y1320000D01*
X1065500Y1329500D02*
Y1330000D01*
X1075000Y1320000D02*
X1098000D01*
X1065500Y1330000D02*
Y1330500D01*
X1060750Y1335250D02*
X1065500Y1330500D01*
X1036500Y1335250D02*
X1060750D01*
X1117200Y1279850D02*
X1118200Y1278850D01*
X1117200Y1279850D02*
Y1300800D01*
X1140450Y1360050D02*
X1160500Y1340000D01*
X1140450Y1360050D02*
Y1380350D01*
X1128000Y1329500D02*
X1137500Y1320000D01*
X1160500D01*
X1128000Y1329500D02*
Y1330000D01*
X1118500Y1340000D02*
X1128000Y1330500D01*
Y1330000D02*
Y1330500D01*
X1098000Y1340000D02*
X1118500D01*
D66*
X1461767Y1436250D02*
Y1461267D01*
X1470000Y1469500D01*
Y1471000D01*
X1455500Y1433800D02*
X1459317D01*
X1461767Y1436250D01*
X1166100Y1423850D02*
X1172600Y1417350D01*
X1239200D01*
D67*
X1512000Y1471000D02*
X1525000Y1458000D01*
X1506000Y1471000D02*
X1512000D01*
X1525000Y1422000D02*
Y1458000D01*
X1317500Y1243000D02*
Y1343500D01*
X1341000Y1367000D01*
X1454900D01*
X1457300D02*
X1520000D01*
X1525000Y1372000D01*
D68*
X1041300Y848800D02*
X1041500Y849000D01*
X962250Y884750D02*
Y984600D01*
X1023100Y848800D02*
X1041300D01*
X962250Y884750D02*
X998200Y848800D01*
X1023100D01*
X897500Y984600D02*
X962250D01*
D69*
X1169000Y1207000D02*
X1186350Y1189650D01*
X1169000Y1207000D02*
Y1227342D01*
X1186350Y1189650D02*
X1258800D01*
D70*
X1097950Y1397850D02*
X1123950Y1423850D01*
X1130300D01*
D71*
X1175500Y493200D02*
D03*
Y518600D02*
D03*
X1023100Y848800D02*
D03*
X1175500Y544000D02*
D03*
Y569400D02*
D03*
Y594800D02*
D03*
Y620200D02*
D03*
Y645600D02*
D03*
Y671000D02*
D03*
Y696400D02*
D03*
Y721800D02*
D03*
Y747200D02*
D03*
Y772600D02*
D03*
Y798000D02*
D03*
Y823400D02*
D03*
X1023100D02*
D03*
Y798000D02*
D03*
Y772600D02*
D03*
Y747200D02*
D03*
Y721800D02*
D03*
Y696400D02*
D03*
Y671000D02*
D03*
Y645600D02*
D03*
Y620200D02*
D03*
Y594800D02*
D03*
Y569400D02*
D03*
Y544000D02*
D03*
Y518600D02*
D03*
Y493200D02*
D03*
X1175500Y874200D02*
D03*
Y899600D02*
D03*
Y925000D02*
D03*
Y950400D02*
D03*
Y975800D02*
D03*
Y1001200D02*
D03*
Y1026600D02*
D03*
Y1052000D02*
D03*
Y1077400D02*
D03*
X1023100D02*
D03*
Y1052000D02*
D03*
Y1026600D02*
D03*
Y1001200D02*
D03*
Y975800D02*
D03*
Y950400D02*
D03*
Y925000D02*
D03*
Y899600D02*
D03*
Y874200D02*
D03*
X1175500Y848800D02*
D03*
D72*
X940000Y1199130D02*
D03*
Y1150000D02*
D03*
D73*
X674000Y1374000D02*
D03*
Y1424000D02*
D03*
X1526000Y829000D02*
D03*
Y779000D02*
D03*
X1525000Y1372000D02*
D03*
Y1422000D02*
D03*
X674000Y1250500D02*
D03*
Y1200500D02*
D03*
X1525000Y1246750D02*
D03*
Y1196750D02*
D03*
X674250Y1003000D02*
D03*
Y953000D02*
D03*
X1525250Y999500D02*
D03*
Y949500D02*
D03*
X673000Y829000D02*
D03*
Y779000D02*
D03*
D74*
X651000Y707000D02*
D03*
Y657000D02*
D03*
X651000Y682000D02*
D03*
X702000Y707000D02*
D03*
Y657000D02*
D03*
X702000Y682000D02*
D03*
X753000Y707000D02*
D03*
Y657000D02*
D03*
X753000Y682000D02*
D03*
D75*
X1273000Y923400D02*
D03*
Y847200D02*
D03*
Y872600D02*
D03*
Y898000D02*
D03*
D76*
X1466000Y670000D02*
D03*
X1538000D02*
D03*
X800000Y600000D02*
D03*
X810470Y754950D02*
D03*
Y1445050D02*
D03*
X800000Y1600000D02*
D03*
X1400000D02*
D03*
X1389530Y1445050D02*
D03*
X1400000Y600000D02*
D03*
X1389824Y754787D02*
D03*
D77*
X1318000Y786000D02*
D03*
X843000Y660000D02*
D03*
X878000Y784000D02*
D03*
X1290000Y1355000D02*
D03*
X1218000Y966000D02*
D03*
X1321000Y1035000D02*
D03*
X1211000Y1105000D02*
D03*
X965000Y1150000D02*
D03*
X985000D02*
D03*
X963000Y685000D02*
D03*
X900000Y686000D02*
D03*
X819250Y906000D02*
D03*
X819250Y928000D02*
D03*
Y913000D02*
D03*
Y920500D02*
D03*
X811750Y928000D02*
D03*
X811250Y906000D02*
D03*
X804250D02*
D03*
X804250Y913000D02*
D03*
X797250Y906000D02*
D03*
X758500Y887500D02*
D03*
X766500D02*
D03*
X751500D02*
D03*
X744250Y888000D02*
D03*
X751250Y903000D02*
D03*
X744250Y910500D02*
D03*
X744250Y896000D02*
D03*
Y903000D02*
D03*
X751500Y895500D02*
D03*
X729250Y903000D02*
D03*
Y895500D02*
D03*
Y888000D02*
D03*
X721750Y903000D02*
D03*
Y888000D02*
D03*
X736750Y903000D02*
D03*
Y888000D02*
D03*
X721750Y895500D02*
D03*
X736750D02*
D03*
X751750Y918000D02*
D03*
X766750Y925500D02*
D03*
X758500Y895500D02*
D03*
X758250Y903000D02*
D03*
X751750Y910500D02*
D03*
Y925500D02*
D03*
X766000Y903000D02*
D03*
X759250Y918000D02*
D03*
X766500Y895500D02*
D03*
X759250Y925500D02*
D03*
X766750Y910500D02*
D03*
Y918000D02*
D03*
X759250Y910500D02*
D03*
X714250Y903000D02*
D03*
X706750D02*
D03*
Y895500D02*
D03*
X714250D02*
D03*
X706750Y888000D02*
D03*
X714250Y925500D02*
D03*
Y933000D02*
D03*
X706750Y925500D02*
D03*
Y918000D02*
D03*
X714250D02*
D03*
X706750Y910500D02*
D03*
X714250Y888000D02*
D03*
Y910500D02*
D03*
X706750Y933000D02*
D03*
X819500Y891500D02*
D03*
X811500Y898500D02*
D03*
X797500D02*
D03*
Y891500D02*
D03*
X811500D02*
D03*
X804500D02*
D03*
X819500Y898500D02*
D03*
X804500D02*
D03*
X699250Y1023000D02*
D03*
Y1030500D02*
D03*
X804250Y920500D02*
D03*
X791750Y940000D02*
D03*
X706750Y1045500D02*
D03*
Y1023000D02*
D03*
Y1038000D02*
D03*
Y1060500D02*
D03*
Y1068000D02*
D03*
X714250Y1060500D02*
D03*
Y1068000D02*
D03*
Y1030500D02*
D03*
Y1023000D02*
D03*
Y1038000D02*
D03*
Y1045500D02*
D03*
Y1053000D02*
D03*
X706750D02*
D03*
Y1030500D02*
D03*
X729000Y1068000D02*
D03*
X721750Y1053000D02*
D03*
Y1068000D02*
D03*
Y1038000D02*
D03*
Y1060500D02*
D03*
Y1045500D02*
D03*
X719250Y975500D02*
D03*
X711750D02*
D03*
X719250Y983000D02*
D03*
X712496Y997049D02*
D03*
X721750Y1030500D02*
D03*
Y1023000D02*
D03*
X711750Y983000D02*
D03*
X712250Y959000D02*
D03*
X741750Y983000D02*
D03*
X726750Y990500D02*
D03*
Y983000D02*
D03*
X749250D02*
D03*
Y990500D02*
D03*
X741750D02*
D03*
X734250D02*
D03*
Y998000D02*
D03*
X741750D02*
D03*
X749250D02*
D03*
X734250Y983000D02*
D03*
X726750Y975500D02*
D03*
X734250D02*
D03*
Y968000D02*
D03*
X741750D02*
D03*
X749250D02*
D03*
Y975500D02*
D03*
X741750D02*
D03*
X736750Y918000D02*
D03*
Y925500D02*
D03*
X744250D02*
D03*
X729250Y910500D02*
D03*
X744250Y918000D02*
D03*
X721750Y933000D02*
D03*
Y910500D02*
D03*
Y925500D02*
D03*
X729250Y918000D02*
D03*
X736750Y910500D02*
D03*
X721750Y918000D02*
D03*
X729250Y925500D02*
D03*
X796750Y920500D02*
D03*
Y913000D02*
D03*
X811750D02*
D03*
Y920500D02*
D03*
X1417750Y902000D02*
D03*
Y909500D02*
D03*
X1410250Y917000D02*
D03*
X1417750D02*
D03*
X1402750Y909500D02*
D03*
Y917000D02*
D03*
Y902000D02*
D03*
Y887000D02*
D03*
X1410250Y894500D02*
D03*
X1402750D02*
D03*
X1417750D02*
D03*
Y887000D02*
D03*
X1410250D02*
D03*
X1387750Y894500D02*
D03*
X1395250Y902000D02*
D03*
Y894500D02*
D03*
Y887000D02*
D03*
X1387750D02*
D03*
X789250Y1058000D02*
D03*
X804250D02*
D03*
Y1065500D02*
D03*
X796750D02*
D03*
X811750Y1058000D02*
D03*
Y1065500D02*
D03*
X796750Y1058000D02*
D03*
X781750Y1065500D02*
D03*
X789250D02*
D03*
X819250D02*
D03*
Y1043000D02*
D03*
X811750Y1050500D02*
D03*
X804250Y1043000D02*
D03*
Y1035500D02*
D03*
X811750Y1043000D02*
D03*
X819250Y1050500D02*
D03*
X804250Y1028000D02*
D03*
X819250Y1035500D02*
D03*
X811750D02*
D03*
X804250Y1050500D02*
D03*
X741750Y960500D02*
D03*
X734250D02*
D03*
X749250D02*
D03*
X726750Y968000D02*
D03*
X781750Y1050500D02*
D03*
X796750D02*
D03*
X781750Y1043000D02*
D03*
X791750Y1015500D02*
D03*
X796750Y1035500D02*
D03*
Y1043000D02*
D03*
Y1028000D02*
D03*
X789250Y1043000D02*
D03*
Y1035500D02*
D03*
Y1028000D02*
D03*
X781750D02*
D03*
Y1035500D02*
D03*
X789250Y1050500D02*
D03*
X729250Y1053000D02*
D03*
Y1030500D02*
D03*
Y1038000D02*
D03*
X819250Y1058000D02*
D03*
X781750D02*
D03*
X729250Y1060500D02*
D03*
Y1045500D02*
D03*
X804250Y928000D02*
D03*
X796750D02*
D03*
X1380250Y1039500D02*
D03*
Y1032000D02*
D03*
X1387750Y1024500D02*
D03*
Y1032000D02*
D03*
Y1039500D02*
D03*
X1402750Y1032000D02*
D03*
Y1024500D02*
D03*
X1395250D02*
D03*
Y1032000D02*
D03*
Y1039500D02*
D03*
X1402750D02*
D03*
X1380250Y1024500D02*
D03*
X1450250Y984500D02*
D03*
Y977000D02*
D03*
Y969500D02*
D03*
Y992000D02*
D03*
Y954500D02*
D03*
X1457750Y969500D02*
D03*
Y962000D02*
D03*
Y977000D02*
D03*
Y992000D02*
D03*
Y954500D02*
D03*
X1450250Y962000D02*
D03*
X1457750Y984500D02*
D03*
X1472750Y969500D02*
D03*
Y984500D02*
D03*
X1465250Y969500D02*
D03*
X1487250Y993500D02*
D03*
X1495250Y969500D02*
D03*
X1487750D02*
D03*
X1480250D02*
D03*
Y977000D02*
D03*
X1472750D02*
D03*
X1487750D02*
D03*
X1495250D02*
D03*
X1465250D02*
D03*
X1470250Y1027000D02*
D03*
X1462750Y1034500D02*
D03*
X1470250D02*
D03*
X1462750Y1027000D02*
D03*
X1465250Y984500D02*
D03*
Y992000D02*
D03*
X1402000Y1061000D02*
D03*
Y1054000D02*
D03*
X1402250Y1046500D02*
D03*
X1395000Y1054000D02*
D03*
X1395250Y1046500D02*
D03*
X1395000Y1061000D02*
D03*
X1388250Y1046500D02*
D03*
X1388000Y1061000D02*
D03*
X1433000Y1065000D02*
D03*
X1433500Y1049500D02*
D03*
X1433000Y1057000D02*
D03*
X1380250Y1046500D02*
D03*
X1380000Y1054000D02*
D03*
X1388000D02*
D03*
X1380000Y1061000D02*
D03*
X1395250Y909500D02*
D03*
Y917000D02*
D03*
X1387750Y902000D02*
D03*
Y909500D02*
D03*
Y917000D02*
D03*
X1410250Y902000D02*
D03*
Y909500D02*
D03*
X1485250Y1049500D02*
D03*
Y1057000D02*
D03*
Y1064500D02*
D03*
X1447750Y1034500D02*
D03*
Y1042000D02*
D03*
Y1027000D02*
D03*
X1387750Y924500D02*
D03*
X1455250Y1064500D02*
D03*
X1441000Y1065000D02*
D03*
X1448000Y1057000D02*
D03*
X1455250Y1056500D02*
D03*
X1448250Y1049500D02*
D03*
X1441000Y1057000D02*
D03*
X1441250Y1049500D02*
D03*
X1448000Y1065000D02*
D03*
X1455250Y1049500D02*
D03*
X1477750Y1027000D02*
D03*
X1492750D02*
D03*
X1485250Y1019500D02*
D03*
X1492750D02*
D03*
X1485250Y1027000D02*
D03*
X1500250D02*
D03*
X1477750Y1019500D02*
D03*
X1500250D02*
D03*
X1470250Y1049500D02*
D03*
X1462750Y1064500D02*
D03*
X1470250D02*
D03*
X1462750Y1049500D02*
D03*
X1470250Y1057000D02*
D03*
X1462750D02*
D03*
X1492750Y929500D02*
D03*
X1500250D02*
D03*
X1477750D02*
D03*
X1465250Y962000D02*
D03*
Y954500D02*
D03*
X1485250Y929500D02*
D03*
X1472750Y962000D02*
D03*
X1487004Y955451D02*
D03*
X1492750Y1042000D02*
D03*
X1500250Y1064500D02*
D03*
Y1057000D02*
D03*
X1492750Y1049500D02*
D03*
Y1064500D02*
D03*
Y1057000D02*
D03*
X1500250Y1049500D02*
D03*
Y1042000D02*
D03*
X1492750Y1034500D02*
D03*
X1500250D02*
D03*
X1485250D02*
D03*
X1477750D02*
D03*
X1440250Y1042000D02*
D03*
Y1034500D02*
D03*
Y1027000D02*
D03*
X1432750Y1034500D02*
D03*
Y1027000D02*
D03*
Y1042000D02*
D03*
X1462750D02*
D03*
X1477750D02*
D03*
X1470250D02*
D03*
X1485250D02*
D03*
X1407750Y1012500D02*
D03*
X1417500Y1149250D02*
D03*
X1410000Y1141750D02*
D03*
X1402500Y1171750D02*
D03*
Y1156750D02*
D03*
Y1164250D02*
D03*
X1395000Y1171750D02*
D03*
Y1156750D02*
D03*
Y1164250D02*
D03*
X1410000Y1149250D02*
D03*
Y1156750D02*
D03*
X1402500Y1134250D02*
D03*
Y1149250D02*
D03*
X1395000D02*
D03*
X1402500Y1141750D02*
D03*
X1395000D02*
D03*
Y1134250D02*
D03*
X1387500Y1171750D02*
D03*
X1380000Y1164250D02*
D03*
X1387500Y1149250D02*
D03*
Y1156750D02*
D03*
Y1141750D02*
D03*
Y1164250D02*
D03*
X1380000Y1156750D02*
D03*
Y1149250D02*
D03*
X1486754Y1202701D02*
D03*
X1407500Y1184250D02*
D03*
X1487000Y1240750D02*
D03*
X1407500Y1259750D02*
D03*
X1487500Y1224250D02*
D03*
X1495000Y1216750D02*
D03*
X1487500D02*
D03*
X1480000D02*
D03*
X1495000Y1224250D02*
D03*
X1480000D02*
D03*
X1432500Y1274250D02*
D03*
X1492500Y1266750D02*
D03*
X1485000Y1274250D02*
D03*
Y1266750D02*
D03*
X1492500Y1176750D02*
D03*
X1485000D02*
D03*
Y1169250D02*
D03*
X1380000Y1286750D02*
D03*
Y1279250D02*
D03*
X1447500Y1289250D02*
D03*
X1455000D02*
D03*
X1455000Y1296750D02*
D03*
X1440000Y1281750D02*
D03*
X1455000Y1274250D02*
D03*
X1447500D02*
D03*
X1455000Y1281750D02*
D03*
X1447500D02*
D03*
X1440000Y1274250D02*
D03*
X1432500Y1281750D02*
D03*
Y1289250D02*
D03*
X1395000Y1279250D02*
D03*
X1387500D02*
D03*
Y1286750D02*
D03*
X1402500Y1279250D02*
D03*
X1395000Y1286750D02*
D03*
X1402500D02*
D03*
X1492500Y1274250D02*
D03*
X1500000Y1266750D02*
D03*
Y1274250D02*
D03*
X1492500Y1281750D02*
D03*
X1260000Y1355000D02*
D03*
X1250000D02*
D03*
X1240000D02*
D03*
X1230000D02*
D03*
X1220000D02*
D03*
X1210000D02*
D03*
X1200000D02*
D03*
X1190000D02*
D03*
X1130000Y1150000D02*
D03*
X1115000D02*
D03*
X1100000D02*
D03*
Y1165000D02*
D03*
X1115000D02*
D03*
X1130000D02*
D03*
Y1180000D02*
D03*
X1115000D02*
D03*
X1100000D02*
D03*
X1200000Y1395000D02*
D03*
Y1405000D02*
D03*
X1190000D02*
D03*
Y1395000D02*
D03*
Y1385000D02*
D03*
X1180000D02*
D03*
Y1395000D02*
D03*
Y1405000D02*
D03*
X1170000D02*
D03*
Y1395000D02*
D03*
Y1385000D02*
D03*
X1160000D02*
D03*
Y1395000D02*
D03*
Y1405000D02*
D03*
X960550Y553640D02*
D03*
X947850D02*
D03*
X935150D02*
D03*
X1084000Y1247500D02*
D03*
X1023000Y1248000D02*
D03*
X1432750Y1312250D02*
D03*
X1455000Y1311750D02*
D03*
X1440750Y1312250D02*
D03*
X1447750D02*
D03*
X1455000Y1303750D02*
D03*
X1447750Y1304250D02*
D03*
X1448000Y1296750D02*
D03*
X1441000D02*
D03*
X1440750Y1304250D02*
D03*
X1440000Y1289250D02*
D03*
X1433250Y1296750D02*
D03*
X1432750Y1304250D02*
D03*
X1401750Y1301250D02*
D03*
Y1308250D02*
D03*
X1402000Y1293750D02*
D03*
X1394750Y1301250D02*
D03*
Y1308250D02*
D03*
X1395000Y1293750D02*
D03*
X1388000D02*
D03*
X1387750Y1301250D02*
D03*
X1380000Y1293750D02*
D03*
X1477500Y1131750D02*
D03*
X1470000Y1139250D02*
D03*
X1470250Y1131750D02*
D03*
X1410000Y1164250D02*
D03*
X1417500Y1156750D02*
D03*
X1005000Y1195000D02*
D03*
X985000D02*
D03*
X965000D02*
D03*
X1085000Y1180000D02*
D03*
Y1210000D02*
D03*
X1065000D02*
D03*
X1045000D02*
D03*
X1025000D02*
D03*
X1005000D02*
D03*
X985000D02*
D03*
X965000D02*
D03*
X1290000Y1385000D02*
D03*
Y1395000D02*
D03*
Y1405000D02*
D03*
X1280000Y1385000D02*
D03*
Y1395000D02*
D03*
Y1405000D02*
D03*
X1270000Y1385000D02*
D03*
Y1395000D02*
D03*
Y1405000D02*
D03*
X1260000Y1385000D02*
D03*
Y1395000D02*
D03*
Y1405000D02*
D03*
X1250000D02*
D03*
Y1395000D02*
D03*
Y1385000D02*
D03*
X1240000D02*
D03*
Y1395000D02*
D03*
Y1405000D02*
D03*
X1230000D02*
D03*
Y1395000D02*
D03*
Y1385000D02*
D03*
X1220000D02*
D03*
Y1395000D02*
D03*
Y1405000D02*
D03*
X1210000D02*
D03*
Y1395000D02*
D03*
Y1385000D02*
D03*
X1200000D02*
D03*
X1290000Y1335000D02*
D03*
X1280000D02*
D03*
X1270000D02*
D03*
X1260000D02*
D03*
X1250000D02*
D03*
X1240000D02*
D03*
X1230000D02*
D03*
X1220000D02*
D03*
X1210000D02*
D03*
X1200000D02*
D03*
X1190000D02*
D03*
Y1345000D02*
D03*
X1200000D02*
D03*
X1210000D02*
D03*
X1220000D02*
D03*
X1230000D02*
D03*
X1240000D02*
D03*
X1250000D02*
D03*
X1260000D02*
D03*
X1270000D02*
D03*
X1280000D02*
D03*
X1290000D02*
D03*
X1280000Y1355000D02*
D03*
X1270000D02*
D03*
X1100000Y1195000D02*
D03*
X1115000D02*
D03*
X1130000D02*
D03*
Y1210000D02*
D03*
X1115000D02*
D03*
X1100000D02*
D03*
X1065000Y1150000D02*
D03*
X1085000D02*
D03*
Y1165000D02*
D03*
X1065000D02*
D03*
X1045000Y1150000D02*
D03*
Y1165000D02*
D03*
X1025000Y1150000D02*
D03*
Y1165000D02*
D03*
X1005000Y1150000D02*
D03*
Y1165000D02*
D03*
X985000D02*
D03*
X965000D02*
D03*
Y1180000D02*
D03*
X985000D02*
D03*
X1005000D02*
D03*
X1025000D02*
D03*
X1045000D02*
D03*
X1065000D02*
D03*
X1085000Y1195000D02*
D03*
X1065000D02*
D03*
X1045000D02*
D03*
X1025000D02*
D03*
X714000Y1165500D02*
D03*
X706500Y1180500D02*
D03*
X714000D02*
D03*
X729000Y1173000D02*
D03*
X721500D02*
D03*
X729000Y1165500D02*
D03*
X721500D02*
D03*
Y1180500D02*
D03*
X706500Y1173000D02*
D03*
Y1165500D02*
D03*
X714000Y1173000D02*
D03*
X706500Y1158000D02*
D03*
Y1143000D02*
D03*
Y1135500D02*
D03*
X714000Y1158000D02*
D03*
X721500Y1150500D02*
D03*
X714000D02*
D03*
X721500Y1143000D02*
D03*
X714000D02*
D03*
X721500Y1135500D02*
D03*
X714000D02*
D03*
X706500Y1150500D02*
D03*
X721500Y1158000D02*
D03*
X1492750Y922000D02*
D03*
X1500250D02*
D03*
X1492750Y907000D02*
D03*
X1500250D02*
D03*
X1492750Y914500D02*
D03*
X1500250D02*
D03*
X1485250Y922000D02*
D03*
Y914500D02*
D03*
Y907000D02*
D03*
Y899500D02*
D03*
X1477750D02*
D03*
Y892000D02*
D03*
X1485250D02*
D03*
Y884500D02*
D03*
X1477750D02*
D03*
X1470250Y907000D02*
D03*
X1477750Y914500D02*
D03*
X1470250Y922000D02*
D03*
X1477750Y907000D02*
D03*
Y922000D02*
D03*
X1470250Y914500D02*
D03*
Y892000D02*
D03*
X1470500Y884500D02*
D03*
X1470250Y899500D02*
D03*
X1492750Y884500D02*
D03*
Y892000D02*
D03*
X1500250Y884500D02*
D03*
Y899500D02*
D03*
X1492750D02*
D03*
X1500250Y892000D02*
D03*
X1395250Y924500D02*
D03*
X1402750D02*
D03*
X1407750Y937000D02*
D03*
X1410250Y924500D02*
D03*
X1417750D02*
D03*
X1455250Y1027000D02*
D03*
Y1034500D02*
D03*
Y1042000D02*
D03*
X1477750Y1057000D02*
D03*
Y1049500D02*
D03*
Y1064500D02*
D03*
X741500Y1238000D02*
D03*
X749000D02*
D03*
X741500Y1230500D02*
D03*
Y1223000D02*
D03*
X749000D02*
D03*
Y1215500D02*
D03*
X741500D02*
D03*
Y1208000D02*
D03*
X749000Y1230500D02*
D03*
Y1208000D02*
D03*
X726500Y1238000D02*
D03*
X719000Y1223000D02*
D03*
X711500D02*
D03*
Y1230500D02*
D03*
X712000Y1206500D02*
D03*
X712246Y1244549D02*
D03*
X726500Y1230500D02*
D03*
Y1223000D02*
D03*
Y1215500D02*
D03*
X719000Y1230500D02*
D03*
X758250Y1143000D02*
D03*
X751000Y1150500D02*
D03*
X758000D02*
D03*
X765750D02*
D03*
X759000Y1158000D02*
D03*
X766250Y1143000D02*
D03*
X751250D02*
D03*
X744000Y1143500D02*
D03*
X736500Y1158000D02*
D03*
X744000D02*
D03*
X736500Y1150500D02*
D03*
X729000Y1158000D02*
D03*
X744000Y1150500D02*
D03*
X736500Y1143000D02*
D03*
X729000Y1150500D02*
D03*
Y1143000D02*
D03*
Y1135500D02*
D03*
X736500D02*
D03*
X744000D02*
D03*
X797250Y1139000D02*
D03*
X796500Y1160500D02*
D03*
X797250Y1146000D02*
D03*
X797000Y1153500D02*
D03*
X796500Y1175500D02*
D03*
Y1168000D02*
D03*
X791500Y1187500D02*
D03*
X734000Y1245500D02*
D03*
Y1230500D02*
D03*
Y1223000D02*
D03*
Y1215500D02*
D03*
Y1208000D02*
D03*
Y1238000D02*
D03*
X766500Y1158000D02*
D03*
Y1173000D02*
D03*
Y1165500D02*
D03*
X736500D02*
D03*
X744000Y1173000D02*
D03*
X736500D02*
D03*
X751500D02*
D03*
X759000Y1165500D02*
D03*
X751500Y1158000D02*
D03*
X759000Y1173000D02*
D03*
X751500Y1165500D02*
D03*
X744000D02*
D03*
X714000Y1270500D02*
D03*
X706500Y1278000D02*
D03*
Y1285500D02*
D03*
X714000Y1308000D02*
D03*
X706500D02*
D03*
Y1270500D02*
D03*
X789000Y1298000D02*
D03*
Y1305500D02*
D03*
X796500Y1298000D02*
D03*
Y1305500D02*
D03*
X819000Y1275500D02*
D03*
X811500D02*
D03*
X804000D02*
D03*
Y1283000D02*
D03*
X819000D02*
D03*
X811500D02*
D03*
X796500Y1275500D02*
D03*
Y1313000D02*
D03*
X789000Y1275500D02*
D03*
X781500D02*
D03*
Y1283000D02*
D03*
Y1290500D02*
D03*
Y1298000D02*
D03*
Y1305500D02*
D03*
X796500Y1283000D02*
D03*
X789000D02*
D03*
Y1290500D02*
D03*
X796500D02*
D03*
X789000Y1313000D02*
D03*
X781500D02*
D03*
X791500Y1263000D02*
D03*
X819000Y1290500D02*
D03*
X811500D02*
D03*
Y1298000D02*
D03*
X804000D02*
D03*
Y1305500D02*
D03*
X819000D02*
D03*
Y1313000D02*
D03*
X811500Y1305500D02*
D03*
Y1313000D02*
D03*
X819000Y1298000D02*
D03*
X804000Y1313000D02*
D03*
Y1290500D02*
D03*
X721500Y1315500D02*
D03*
Y1308000D02*
D03*
X728750Y1315500D02*
D03*
X706500D02*
D03*
X714000D02*
D03*
X729000Y1308000D02*
D03*
X804250Y1146000D02*
D03*
X804000Y1168000D02*
D03*
Y1160500D02*
D03*
X811500D02*
D03*
X811250Y1146000D02*
D03*
Y1139000D02*
D03*
X804250D02*
D03*
X811000Y1153500D02*
D03*
X804000D02*
D03*
X804000Y1175500D02*
D03*
X811500D02*
D03*
X819000D02*
D03*
X811500Y1168000D02*
D03*
X749000Y1245500D02*
D03*
X741500D02*
D03*
X1500000Y1154250D02*
D03*
X1485000Y1131750D02*
D03*
X1500000D02*
D03*
Y1139250D02*
D03*
X1410000Y1171750D02*
D03*
X1417500D02*
D03*
X1472500Y1224250D02*
D03*
X1465000D02*
D03*
X1457500D02*
D03*
X1465000Y1216750D02*
D03*
X1457500D02*
D03*
X1450000Y1224250D02*
D03*
X1472500Y1216750D02*
D03*
X1450000D02*
D03*
X1457500Y1239250D02*
D03*
X1472500Y1231750D02*
D03*
X1465000Y1239250D02*
D03*
X1450000D02*
D03*
X1465000Y1231750D02*
D03*
X1457500D02*
D03*
X1450000D02*
D03*
X1417500Y1164250D02*
D03*
X1450000Y1209250D02*
D03*
X1457500D02*
D03*
X1465000D02*
D03*
Y1201750D02*
D03*
X1457500D02*
D03*
X1472500Y1209250D02*
D03*
X1450000Y1201750D02*
D03*
X758250Y1135000D02*
D03*
X819250Y1139000D02*
D03*
X751250Y1135000D02*
D03*
X766250D02*
D03*
X699000Y1143000D02*
D03*
Y1135500D02*
D03*
Y1150500D02*
D03*
Y1165500D02*
D03*
Y1158000D02*
D03*
X704000Y1230500D02*
D03*
Y1223000D02*
D03*
X699000Y1180500D02*
D03*
Y1173000D02*
D03*
Y1308000D02*
D03*
Y1300500D02*
D03*
Y1278000D02*
D03*
Y1270500D02*
D03*
Y1315500D02*
D03*
Y1293000D02*
D03*
Y1285500D02*
D03*
X714000D02*
D03*
X721500Y1278000D02*
D03*
X729000Y1285500D02*
D03*
X721500D02*
D03*
X729000Y1300500D02*
D03*
X721500D02*
D03*
X706500D02*
D03*
X714000D02*
D03*
X706500Y1293000D02*
D03*
X721500D02*
D03*
X714000D02*
D03*
X729000D02*
D03*
Y1278000D02*
D03*
X714000D02*
D03*
X721500Y1270500D02*
D03*
X1500000Y1281750D02*
D03*
X1485000D02*
D03*
X1462500Y1296750D02*
D03*
X1470000Y1304250D02*
D03*
Y1296750D02*
D03*
X1462500Y1311750D02*
D03*
X1477500Y1304250D02*
D03*
Y1311750D02*
D03*
Y1296750D02*
D03*
X1470000Y1311750D02*
D03*
X1462500Y1304250D02*
D03*
X1470000Y1274250D02*
D03*
X1462500Y1289250D02*
D03*
X1477500Y1266750D02*
D03*
X1462500Y1274250D02*
D03*
X1477500Y1281750D02*
D03*
Y1289250D02*
D03*
Y1274250D02*
D03*
X1470000Y1289250D02*
D03*
Y1281750D02*
D03*
X1462500D02*
D03*
X1492500Y1289250D02*
D03*
X1500000Y1304250D02*
D03*
X1492500Y1296750D02*
D03*
X1485000D02*
D03*
X1492500Y1311750D02*
D03*
X1485000D02*
D03*
X1492500Y1304250D02*
D03*
X1500000Y1311750D02*
D03*
X1485000Y1289250D02*
D03*
Y1304250D02*
D03*
X1500000Y1296750D02*
D03*
Y1289250D02*
D03*
X1477500Y1161750D02*
D03*
X1470000Y1154250D02*
D03*
X1477500Y1176750D02*
D03*
X1470000Y1146750D02*
D03*
Y1169250D02*
D03*
X1477500Y1154250D02*
D03*
X1470000Y1161750D02*
D03*
X1477500Y1146750D02*
D03*
Y1169250D02*
D03*
X1492500Y1161750D02*
D03*
Y1169250D02*
D03*
X1500000Y1176750D02*
D03*
Y1169250D02*
D03*
Y1161750D02*
D03*
X1485000D02*
D03*
X1380000Y1134250D02*
D03*
Y1141750D02*
D03*
Y1171750D02*
D03*
X1387500Y1134250D02*
D03*
X1417500Y1141750D02*
D03*
Y1134250D02*
D03*
X1410000D02*
D03*
X1500000Y1146750D02*
D03*
X1485000Y1139250D02*
D03*
Y1154250D02*
D03*
X1492500Y1139250D02*
D03*
Y1131750D02*
D03*
Y1146750D02*
D03*
X1477500Y1139250D02*
D03*
X1485000Y1146750D02*
D03*
X1492500Y1154250D02*
D03*
X704250Y975500D02*
D03*
X699250Y1038000D02*
D03*
X704250Y983000D02*
D03*
X699250Y925500D02*
D03*
Y918000D02*
D03*
Y910500D02*
D03*
Y933000D02*
D03*
Y903000D02*
D03*
Y895500D02*
D03*
Y1053000D02*
D03*
Y1060500D02*
D03*
Y1045500D02*
D03*
Y1068000D02*
D03*
X832500Y955000D02*
D03*
Y1262500D02*
D03*
X1402500Y1271750D02*
D03*
X1380000D02*
D03*
X1387500D02*
D03*
X1395000D02*
D03*
X1366500Y1184000D02*
D03*
Y1259000D02*
D03*
Y997000D02*
D03*
X1379750Y1308250D02*
D03*
Y1301250D02*
D03*
X1387750Y1308250D02*
D03*
X1366500Y1244500D02*
D03*
Y1011500D02*
D03*
X1380250Y924500D02*
D03*
Y917000D02*
D03*
Y894500D02*
D03*
Y902000D02*
D03*
Y887000D02*
D03*
Y909500D02*
D03*
X1366500Y937000D02*
D03*
X832500Y940000D02*
D03*
X811750Y1028000D02*
D03*
X819250D02*
D03*
X819000Y1160500D02*
D03*
X819000Y1153500D02*
D03*
X819000Y1168000D02*
D03*
X819250Y1146000D02*
D03*
X832500Y1202500D02*
D03*
X1101700Y1278350D02*
D03*
X832500Y1187500D02*
D03*
X845000Y1071500D02*
D03*
X1354500Y1095500D02*
D03*
X699000Y887500D02*
D03*
X929500Y918500D02*
D03*
X897500Y1010000D02*
D03*
X1239500Y1095000D02*
D03*
X832500Y1015000D02*
D03*
X993000Y1072000D02*
D03*
X980500Y1090000D02*
D03*
M02*
