G04*
G04 #@! TF.GenerationSoftware,Altium Limited,Altium Designer,24.5.2 (23)*
G04*
G04 Layer_Color=8421504*
%FSLAX44Y44*%
%MOMM*%
G71*
G04*
G04 #@! TF.SameCoordinates,EC07AE21-C10E-4B47-8BBD-F1AFCD56138C*
G04*
G04*
G04 #@! TF.FilePolarity,Positive*
G04*
G01*
G75*
G04:AMPARAMS|DCode=14|XSize=1mm|YSize=1.5mm|CornerRadius=0mm|HoleSize=0mm|Usage=FLASHONLY|Rotation=110.000|XOffset=0mm|YOffset=0mm|HoleType=Round|Shape=Rectangle|*
%AMROTATEDRECTD14*
4,1,4,0.8758,-0.2133,-0.5338,-0.7264,-0.8758,0.2133,0.5338,0.7264,0.8758,-0.2133,0.0*
%
%ADD14ROTATEDRECTD14*%

%ADD15R,1.5000X1.0000*%
G04:AMPARAMS|DCode=16|XSize=1mm|YSize=1.5mm|CornerRadius=0mm|HoleSize=0mm|Usage=FLASHONLY|Rotation=70.000|XOffset=0mm|YOffset=0mm|HoleType=Round|Shape=Rectangle|*
%AMROTATEDRECTD16*
4,1,4,0.5338,-0.7264,-0.8758,-0.2133,-0.5338,0.7264,0.8758,0.2133,0.5338,-0.7264,0.0*
%
%ADD16ROTATEDRECTD16*%

G04:AMPARAMS|DCode=17|XSize=1mm|YSize=1.5mm|CornerRadius=0mm|HoleSize=0mm|Usage=FLASHONLY|Rotation=130.000|XOffset=0mm|YOffset=0mm|HoleType=Round|Shape=Rectangle|*
%AMROTATEDRECTD17*
4,1,4,0.8959,0.0991,-0.2531,-0.8651,-0.8959,-0.0991,0.2531,0.8651,0.8959,0.0991,0.0*
%
%ADD17ROTATEDRECTD17*%

G04:AMPARAMS|DCode=18|XSize=1mm|YSize=1.5mm|CornerRadius=0mm|HoleSize=0mm|Usage=FLASHONLY|Rotation=150.000|XOffset=0mm|YOffset=0mm|HoleType=Round|Shape=Rectangle|*
%AMROTATEDRECTD18*
4,1,4,0.8080,0.3995,0.0580,-0.8995,-0.8080,-0.3995,-0.0580,0.8995,0.8080,0.3995,0.0*
%
%ADD18ROTATEDRECTD18*%

G04:AMPARAMS|DCode=19|XSize=1mm|YSize=1.5mm|CornerRadius=0mm|HoleSize=0mm|Usage=FLASHONLY|Rotation=170.000|XOffset=0mm|YOffset=0mm|HoleType=Round|Shape=Rectangle|*
%AMROTATEDRECTD19*
4,1,4,0.6226,0.6518,0.3622,-0.8254,-0.6226,-0.6518,-0.3622,0.8254,0.6226,0.6518,0.0*
%
%ADD19ROTATEDRECTD19*%

G04:AMPARAMS|DCode=20|XSize=1mm|YSize=1.5mm|CornerRadius=0mm|HoleSize=0mm|Usage=FLASHONLY|Rotation=190.000|XOffset=0mm|YOffset=0mm|HoleType=Round|Shape=Rectangle|*
%AMROTATEDRECTD20*
4,1,4,0.3622,0.8254,0.6226,-0.6518,-0.3622,-0.8254,-0.6226,0.6518,0.3622,0.8254,0.0*
%
%ADD20ROTATEDRECTD20*%

G04:AMPARAMS|DCode=21|XSize=1mm|YSize=1.5mm|CornerRadius=0mm|HoleSize=0mm|Usage=FLASHONLY|Rotation=210.000|XOffset=0mm|YOffset=0mm|HoleType=Round|Shape=Rectangle|*
%AMROTATEDRECTD21*
4,1,4,0.0580,0.8995,0.8080,-0.3995,-0.0580,-0.8995,-0.8080,0.3995,0.0580,0.8995,0.0*
%
%ADD21ROTATEDRECTD21*%

G04:AMPARAMS|DCode=22|XSize=1mm|YSize=1.5mm|CornerRadius=0mm|HoleSize=0mm|Usage=FLASHONLY|Rotation=230.000|XOffset=0mm|YOffset=0mm|HoleType=Round|Shape=Rectangle|*
%AMROTATEDRECTD22*
4,1,4,-0.2531,0.8651,0.8959,-0.0991,0.2531,-0.8651,-0.8959,0.0991,-0.2531,0.8651,0.0*
%
%ADD22ROTATEDRECTD22*%

D14*
X1327085Y547721D02*
D03*
X1281040Y530962D02*
D03*
X1316141Y577791D02*
D03*
X1270096Y561032D02*
D03*
X872915Y1652279D02*
D03*
X918960Y1669038D02*
D03*
X883859Y1622209D02*
D03*
X929904Y1638968D02*
D03*
D15*
X1124500Y503360D02*
D03*
X1075500D02*
D03*
X1124500Y535360D02*
D03*
X1075500D02*
D03*
Y1696640D02*
D03*
X1124500D02*
D03*
X1075500Y1664640D02*
D03*
X1124500D02*
D03*
D16*
X918960Y530962D02*
D03*
X872915Y547721D02*
D03*
X929904Y561032D02*
D03*
X883859Y577791D02*
D03*
X1281040Y1669038D02*
D03*
X1327085Y1652279D02*
D03*
X1270096Y1638968D02*
D03*
X1316141Y1622209D02*
D03*
D17*
X1502281Y658696D02*
D03*
X1464745Y627199D02*
D03*
X1481712Y683209D02*
D03*
X1444176Y651712D02*
D03*
X697719Y1541304D02*
D03*
X735255Y1572801D02*
D03*
X718288Y1516791D02*
D03*
X755825Y1548288D02*
D03*
D18*
X1628955Y822898D02*
D03*
X1604455Y780462D02*
D03*
X1601243Y838898D02*
D03*
X1576743Y796462D02*
D03*
X571045Y1377102D02*
D03*
X595545Y1419538D02*
D03*
X598757Y1361102D02*
D03*
X623257Y1403538D02*
D03*
D19*
X1691830Y1020522D02*
D03*
X1683321Y972267D02*
D03*
X1660316Y1026079D02*
D03*
X1651807Y977823D02*
D03*
X508170Y1179478D02*
D03*
X516679Y1227733D02*
D03*
X539684Y1173921D02*
D03*
X548192Y1222177D02*
D03*
D20*
X1683321Y1227733D02*
D03*
X1691830Y1179478D02*
D03*
X1651808Y1222177D02*
D03*
X1660316Y1173921D02*
D03*
X516679Y972267D02*
D03*
X508170Y1020522D02*
D03*
X548193Y977823D02*
D03*
X539684Y1026079D02*
D03*
D21*
X1604455Y1419538D02*
D03*
X1628955Y1377102D02*
D03*
X1576743Y1403538D02*
D03*
X1601243Y1361102D02*
D03*
X595545Y780462D02*
D03*
X571045Y822898D02*
D03*
X623257Y796462D02*
D03*
X598757Y838898D02*
D03*
D22*
X1464745Y1572801D02*
D03*
X1502281Y1541304D02*
D03*
X1444176Y1548288D02*
D03*
X1481712Y1516791D02*
D03*
X735255Y627199D02*
D03*
X697719Y658696D02*
D03*
X755825Y651712D02*
D03*
X718288Y683209D02*
D03*
M02*
