G04*
G04 #@! TF.GenerationSoftware,Altium Limited,Altium Designer,24.5.2 (23)*
G04*
G04 Layer_Color=0*
%FSLAX44Y44*%
%MOMM*%
G71*
G04*
G04 #@! TF.SameCoordinates,EC07AE21-C10E-4B47-8BBD-F1AFCD56138C*
G04*
G04*
G04 #@! TF.FilePolarity,Positive*
G04*
G01*
G75*
%ADD35C,0.0254*%
G36*
X679621Y747260D02*
X825617Y624755D01*
X1004708Y559571D01*
X1050000D01*
Y609571D01*
X1150000D01*
Y559571D01*
X1195292D01*
X1374383Y624755D01*
X1520379Y747260D01*
X1615671Y912311D01*
X1648766Y1100000D01*
X1615671Y1287689D01*
X1520379Y1452740D01*
X1374383Y1575245D01*
X1195292Y1640429D01*
X1004708D01*
X825617Y1575245D01*
X679621Y1452740D01*
X584329Y1287689D01*
X551234Y1100000D01*
X584329Y912311D01*
X679621Y747260D01*
D02*
G37*
D35*
X617392Y695044D02*
X507994Y884527D01*
X470000Y1100000D01*
X507994Y1315473D01*
X617392Y1504956D01*
X785000Y1645596D01*
X990602Y1720429D01*
X1209398D01*
X1415000Y1645596D01*
X1582608Y1504956D01*
X1692006Y1315473D01*
X1730000Y1100000D01*
X1692006Y884527D01*
X1582608Y695044D01*
X1415000Y554404D01*
X1209398Y479571D01*
X990602D01*
X785000Y554404D01*
X617392Y695044D01*
M02*
