G04*
G04 #@! TF.GenerationSoftware,Altium Limited,Altium Designer,24.5.2 (23)*
G04*
G04 Layer_Color=8388736*
%FSLAX44Y44*%
%MOMM*%
G71*
G04*
G04 #@! TF.SameCoordinates,EC07AE21-C10E-4B47-8BBD-F1AFCD56138C*
G04*
G04*
G04 #@! TF.FilePolarity,Negative*
G04*
G01*
G75*
G04:AMPARAMS|DCode=23|XSize=1.2032mm|YSize=1.7032mm|CornerRadius=0mm|HoleSize=0mm|Usage=FLASHONLY|Rotation=110.000|XOffset=0mm|YOffset=0mm|HoleType=Round|Shape=Rectangle|*
%AMROTATEDRECTD23*
4,1,4,1.0060,-0.2741,-0.5945,-0.8566,-1.0060,0.2741,0.5945,0.8566,1.0060,-0.2741,0.0*
%
%ADD23ROTATEDRECTD23*%

%ADD24R,1.7032X1.2032*%
G04:AMPARAMS|DCode=25|XSize=1.2032mm|YSize=1.7032mm|CornerRadius=0mm|HoleSize=0mm|Usage=FLASHONLY|Rotation=70.000|XOffset=0mm|YOffset=0mm|HoleType=Round|Shape=Rectangle|*
%AMROTATEDRECTD25*
4,1,4,0.5945,-0.8566,-1.0060,-0.2741,-0.5945,0.8566,1.0060,0.2741,0.5945,-0.8566,0.0*
%
%ADD25ROTATEDRECTD25*%

G04:AMPARAMS|DCode=26|XSize=1.2032mm|YSize=1.7032mm|CornerRadius=0mm|HoleSize=0mm|Usage=FLASHONLY|Rotation=130.000|XOffset=0mm|YOffset=0mm|HoleType=Round|Shape=Rectangle|*
%AMROTATEDRECTD26*
4,1,4,1.0391,0.0866,-0.2657,-1.0083,-1.0391,-0.0866,0.2657,1.0083,1.0391,0.0866,0.0*
%
%ADD26ROTATEDRECTD26*%

G04:AMPARAMS|DCode=27|XSize=1.2032mm|YSize=1.7032mm|CornerRadius=0mm|HoleSize=0mm|Usage=FLASHONLY|Rotation=150.000|XOffset=0mm|YOffset=0mm|HoleType=Round|Shape=Rectangle|*
%AMROTATEDRECTD27*
4,1,4,0.9468,0.4367,0.0952,-1.0383,-0.9468,-0.4367,-0.0952,1.0383,0.9468,0.4367,0.0*
%
%ADD27ROTATEDRECTD27*%

G04:AMPARAMS|DCode=28|XSize=1.2032mm|YSize=1.7032mm|CornerRadius=0mm|HoleSize=0mm|Usage=FLASHONLY|Rotation=170.000|XOffset=0mm|YOffset=0mm|HoleType=Round|Shape=Rectangle|*
%AMROTATEDRECTD28*
4,1,4,0.7403,0.7342,0.4446,-0.9431,-0.7403,-0.7342,-0.4446,0.9431,0.7403,0.7342,0.0*
%
%ADD28ROTATEDRECTD28*%

G04:AMPARAMS|DCode=29|XSize=1.2032mm|YSize=1.7032mm|CornerRadius=0mm|HoleSize=0mm|Usage=FLASHONLY|Rotation=190.000|XOffset=0mm|YOffset=0mm|HoleType=Round|Shape=Rectangle|*
%AMROTATEDRECTD29*
4,1,4,0.4446,0.9431,0.7403,-0.7342,-0.4446,-0.9431,-0.7403,0.7342,0.4446,0.9431,0.0*
%
%ADD29ROTATEDRECTD29*%

G04:AMPARAMS|DCode=30|XSize=1.2032mm|YSize=1.7032mm|CornerRadius=0mm|HoleSize=0mm|Usage=FLASHONLY|Rotation=210.000|XOffset=0mm|YOffset=0mm|HoleType=Round|Shape=Rectangle|*
%AMROTATEDRECTD30*
4,1,4,0.0952,1.0383,0.9468,-0.4367,-0.0952,-1.0383,-0.9468,0.4367,0.0952,1.0383,0.0*
%
%ADD30ROTATEDRECTD30*%

G04:AMPARAMS|DCode=31|XSize=1.2032mm|YSize=1.7032mm|CornerRadius=0mm|HoleSize=0mm|Usage=FLASHONLY|Rotation=230.000|XOffset=0mm|YOffset=0mm|HoleType=Round|Shape=Rectangle|*
%AMROTATEDRECTD31*
4,1,4,-0.2657,1.0083,1.0391,-0.0866,0.2657,-1.0083,-1.0391,0.0866,-0.2657,1.0083,0.0*
%
%ADD31ROTATEDRECTD31*%

%ADD32C,1.5732*%
D23*
X1327085Y547721D02*
D03*
X1281040Y530962D02*
D03*
X1316141Y577791D02*
D03*
X1270096Y561032D02*
D03*
X872915Y1652279D02*
D03*
X918960Y1669038D02*
D03*
X883859Y1622209D02*
D03*
X929904Y1638968D02*
D03*
D24*
X1124500Y503360D02*
D03*
X1075500D02*
D03*
X1124500Y535360D02*
D03*
X1075500D02*
D03*
Y1696640D02*
D03*
X1124500D02*
D03*
X1075500Y1664640D02*
D03*
X1124500D02*
D03*
D25*
X918960Y530962D02*
D03*
X872915Y547721D02*
D03*
X929904Y561032D02*
D03*
X883859Y577791D02*
D03*
X1281040Y1669038D02*
D03*
X1327085Y1652279D02*
D03*
X1270096Y1638968D02*
D03*
X1316141Y1622209D02*
D03*
D26*
X1502281Y658696D02*
D03*
X1464745Y627199D02*
D03*
X1481712Y683209D02*
D03*
X1444176Y651712D02*
D03*
X697719Y1541304D02*
D03*
X735255Y1572801D02*
D03*
X718288Y1516791D02*
D03*
X755825Y1548288D02*
D03*
D27*
X1628955Y822898D02*
D03*
X1604455Y780462D02*
D03*
X1601243Y838898D02*
D03*
X1576743Y796462D02*
D03*
X571045Y1377102D02*
D03*
X595545Y1419538D02*
D03*
X598757Y1361102D02*
D03*
X623257Y1403538D02*
D03*
D28*
X1691830Y1020522D02*
D03*
X1683321Y972267D02*
D03*
X1660316Y1026079D02*
D03*
X1651807Y977823D02*
D03*
X508170Y1179478D02*
D03*
X516679Y1227733D02*
D03*
X539684Y1173921D02*
D03*
X548192Y1222177D02*
D03*
D29*
X1683321Y1227733D02*
D03*
X1691830Y1179478D02*
D03*
X1651808Y1222177D02*
D03*
X1660316Y1173921D02*
D03*
X516679Y972267D02*
D03*
X508170Y1020522D02*
D03*
X548193Y977823D02*
D03*
X539684Y1026079D02*
D03*
D30*
X1604455Y1419538D02*
D03*
X1628955Y1377102D02*
D03*
X1576743Y1403538D02*
D03*
X1601243Y1361102D02*
D03*
X595545Y780462D02*
D03*
X571045Y822898D02*
D03*
X623257Y796462D02*
D03*
X598757Y838898D02*
D03*
D31*
X1464745Y1572801D02*
D03*
X1502281Y1541304D02*
D03*
X1444176Y1548288D02*
D03*
X1481712Y1516791D02*
D03*
X735255Y627199D02*
D03*
X697719Y658696D02*
D03*
X755825Y651712D02*
D03*
X718288Y683209D02*
D03*
D32*
X1061900Y595000D02*
D03*
X1138100D02*
D03*
X1112700D02*
D03*
X1087300D02*
D03*
M02*
