M48
;Layer_Color=9474304
;FILE_FORMAT=4:4
METRIC,LZ
;TYPE=PLATED
T01F00S00C0.3000
T02F00S00C1.0200
%
T01
X01316141Y00577791
X01481712Y00683209
X011245Y0053536
X00929904Y00561032
X00755825Y00651712
X00623257Y00796462
X00548193Y00977823
X00539684Y01173921
X01660316Y01026079
X01601243Y00838898
X01651808Y01222177
X01576743Y01403538
X01444176Y01548288
X00718288Y01516791
X00598757Y01361102
X00883859Y01622209
X010755Y0166464
X01270096Y01638968
T02
X010619Y00595
X010873
X011127
X011381
M30
