G04*
G04 #@! TF.GenerationSoftware,Altium Limited,Altium Designer,24.5.2 (23)*
G04*
G04 Layer_Physical_Order=1*
G04 Layer_Color=255*
%FSLAX44Y44*%
%MOMM*%
G71*
G04*
G04 #@! TF.SameCoordinates,EC07AE21-C10E-4B47-8BBD-F1AFCD56138C*
G04*
G04*
G04 #@! TF.FilePolarity,Positive*
G04*
G01*
G75*
%ADD12C,0.3000*%
G04:AMPARAMS|DCode=14|XSize=1mm|YSize=1.5mm|CornerRadius=0mm|HoleSize=0mm|Usage=FLASHONLY|Rotation=110.000|XOffset=0mm|YOffset=0mm|HoleType=Round|Shape=Rectangle|*
%AMROTATEDRECTD14*
4,1,4,0.8758,-0.2133,-0.5338,-0.7264,-0.8758,0.2133,0.5338,0.7264,0.8758,-0.2133,0.0*
%
%ADD14ROTATEDRECTD14*%

%ADD15R,1.5000X1.0000*%
G04:AMPARAMS|DCode=16|XSize=1mm|YSize=1.5mm|CornerRadius=0mm|HoleSize=0mm|Usage=FLASHONLY|Rotation=70.000|XOffset=0mm|YOffset=0mm|HoleType=Round|Shape=Rectangle|*
%AMROTATEDRECTD16*
4,1,4,0.5338,-0.7264,-0.8758,-0.2133,-0.5338,0.7264,0.8758,0.2133,0.5338,-0.7264,0.0*
%
%ADD16ROTATEDRECTD16*%

G04:AMPARAMS|DCode=17|XSize=1mm|YSize=1.5mm|CornerRadius=0mm|HoleSize=0mm|Usage=FLASHONLY|Rotation=130.000|XOffset=0mm|YOffset=0mm|HoleType=Round|Shape=Rectangle|*
%AMROTATEDRECTD17*
4,1,4,0.8959,0.0991,-0.2531,-0.8651,-0.8959,-0.0991,0.2531,0.8651,0.8959,0.0991,0.0*
%
%ADD17ROTATEDRECTD17*%

G04:AMPARAMS|DCode=18|XSize=1mm|YSize=1.5mm|CornerRadius=0mm|HoleSize=0mm|Usage=FLASHONLY|Rotation=150.000|XOffset=0mm|YOffset=0mm|HoleType=Round|Shape=Rectangle|*
%AMROTATEDRECTD18*
4,1,4,0.8080,0.3995,0.0580,-0.8995,-0.8080,-0.3995,-0.0580,0.8995,0.8080,0.3995,0.0*
%
%ADD18ROTATEDRECTD18*%

G04:AMPARAMS|DCode=19|XSize=1mm|YSize=1.5mm|CornerRadius=0mm|HoleSize=0mm|Usage=FLASHONLY|Rotation=170.000|XOffset=0mm|YOffset=0mm|HoleType=Round|Shape=Rectangle|*
%AMROTATEDRECTD19*
4,1,4,0.6226,0.6518,0.3622,-0.8254,-0.6226,-0.6518,-0.3622,0.8254,0.6226,0.6518,0.0*
%
%ADD19ROTATEDRECTD19*%

G04:AMPARAMS|DCode=20|XSize=1mm|YSize=1.5mm|CornerRadius=0mm|HoleSize=0mm|Usage=FLASHONLY|Rotation=190.000|XOffset=0mm|YOffset=0mm|HoleType=Round|Shape=Rectangle|*
%AMROTATEDRECTD20*
4,1,4,0.3622,0.8254,0.6226,-0.6518,-0.3622,-0.8254,-0.6226,0.6518,0.3622,0.8254,0.0*
%
%ADD20ROTATEDRECTD20*%

G04:AMPARAMS|DCode=21|XSize=1mm|YSize=1.5mm|CornerRadius=0mm|HoleSize=0mm|Usage=FLASHONLY|Rotation=210.000|XOffset=0mm|YOffset=0mm|HoleType=Round|Shape=Rectangle|*
%AMROTATEDRECTD21*
4,1,4,0.0580,0.8995,0.8080,-0.3995,-0.0580,-0.8995,-0.8080,0.3995,0.0580,0.8995,0.0*
%
%ADD21ROTATEDRECTD21*%

G04:AMPARAMS|DCode=22|XSize=1mm|YSize=1.5mm|CornerRadius=0mm|HoleSize=0mm|Usage=FLASHONLY|Rotation=230.000|XOffset=0mm|YOffset=0mm|HoleType=Round|Shape=Rectangle|*
%AMROTATEDRECTD22*
4,1,4,-0.2531,0.8651,0.8959,-0.0991,0.2531,-0.8651,-0.8959,0.0991,-0.2531,0.8651,0.0*
%
%ADD22ROTATEDRECTD22*%

%ADD33C,1.3700*%
%ADD34C,0.4500*%
G36*
X1413685Y1643319D02*
X1580594Y1503266D01*
X1689535Y1314573D01*
X1727370Y1100000D01*
X1689535Y885427D01*
X1580594Y696734D01*
X1413685Y556681D01*
X1208942Y482161D01*
X991058D01*
X786315Y556681D01*
X619406Y696734D01*
X510465Y885427D01*
X472630Y1100000D01*
X510465Y1314573D01*
X619406Y1503266D01*
X786315Y1643319D01*
X991058Y1717839D01*
X1208942D01*
X1413685Y1643319D01*
D02*
G37*
%LPC*%
G36*
X1085540Y1704180D02*
X1065460D01*
Y1700939D01*
X1064685Y1700837D01*
X1064251Y1700657D01*
X1063878Y1700587D01*
X932815Y1648133D01*
X932634Y1648015D01*
X932427Y1647954D01*
X932328Y1647874D01*
X917891Y1642619D01*
X923048Y1628448D01*
X941917Y1635316D01*
X939508Y1641938D01*
X1063357Y1691505D01*
X1065460Y1690081D01*
Y1689100D01*
X1085540D01*
Y1704180D01*
D02*
G37*
G36*
X1274185Y1679557D02*
X1272860Y1675917D01*
X1271561Y1676088D01*
X1271523Y1676083D01*
X1271401Y1676104D01*
X1271390Y1676104D01*
X1271378Y1676101D01*
X1271367Y1676103D01*
X1130388Y1672258D01*
X1130169Y1672208D01*
X1129944Y1672222D01*
X1129824Y1672180D01*
X1114460D01*
Y1657100D01*
X1134540D01*
Y1664130D01*
X1267656Y1667761D01*
X1269141Y1665700D01*
X1269027Y1665386D01*
X1287896Y1658519D01*
X1293054Y1672689D01*
X1274185Y1679557D01*
D02*
G37*
G36*
X1085540Y1672180D02*
X1065460D01*
Y1657100D01*
X1085540D01*
Y1672180D01*
D02*
G37*
G36*
X879770Y1662798D02*
X860901Y1655930D01*
X862123Y1652573D01*
X862019Y1652530D01*
X861259Y1651947D01*
X861237Y1651934D01*
X860837Y1651699D01*
X755433Y1557903D01*
X755299Y1557726D01*
X755122Y1557595D01*
X755056Y1557486D01*
X743287Y1547610D01*
X752980Y1536058D01*
X768362Y1548965D01*
X763839Y1554356D01*
X863391Y1642944D01*
X865854Y1642323D01*
X866059Y1641760D01*
X884928Y1648627D01*
X879770Y1662798D01*
D02*
G37*
G36*
X1263240Y1649487D02*
X1258083Y1635316D01*
X1276952Y1628448D01*
X1282109Y1642619D01*
X1263240Y1649487D01*
D02*
G37*
G36*
X890715Y1632728D02*
X871846Y1625860D01*
X877004Y1611689D01*
X895873Y1618557D01*
X890715Y1632728D01*
D02*
G37*
G36*
X1309285Y1632728D02*
X1304127Y1618557D01*
X1322996Y1611689D01*
X1325403Y1618301D01*
X1451880Y1576358D01*
X1452573Y1573914D01*
X1452207Y1573479D01*
X1467589Y1560571D01*
X1477282Y1572123D01*
X1461900Y1585031D01*
X1459495Y1582164D01*
X1459096Y1582471D01*
X1458243Y1582824D01*
X1457821Y1583067D01*
X1457809Y1583071D01*
X1457797Y1583073D01*
X1457786Y1583079D01*
X1324272Y1627355D01*
X1324053Y1627383D01*
X1323849Y1627471D01*
X1323722Y1627473D01*
X1309285Y1632728D01*
D02*
G37*
G36*
X1441331Y1560517D02*
X1431638Y1548965D01*
X1447020Y1536058D01*
X1456713Y1547610D01*
X1441331Y1560517D01*
D02*
G37*
G36*
X700564Y1553534D02*
X685181Y1540627D01*
X686945Y1538524D01*
X686154Y1537493D01*
X686123Y1537417D01*
X686023Y1537295D01*
X686019Y1537287D01*
X686019Y1537287D01*
X686019Y1537287D01*
X619590Y1412418D01*
X619529Y1412218D01*
X619414Y1412043D01*
X619389Y1411918D01*
X611708Y1398613D01*
X624767Y1391073D01*
X634807Y1408463D01*
X628694Y1411992D01*
X691426Y1529910D01*
X693952Y1530175D01*
X694875Y1529075D01*
X710257Y1541982D01*
X700564Y1553534D01*
D02*
G37*
G36*
X721133Y1529021D02*
X705751Y1516113D01*
X715444Y1504561D01*
X730826Y1517469D01*
X721133Y1529021D01*
D02*
G37*
G36*
X1478867D02*
X1469174Y1517469D01*
X1484556Y1504561D01*
X1489086Y1509960D01*
X1593966Y1427504D01*
X1593785Y1424970D01*
X1592906Y1424462D01*
X1602946Y1407073D01*
X1616005Y1414613D01*
X1605965Y1432003D01*
X1603175Y1430392D01*
X1602664Y1431058D01*
X1602307Y1431332D01*
X1602069Y1431613D01*
X1602061Y1431619D01*
X1602051Y1431624D01*
X1602043Y1431633D01*
X1491104Y1518854D01*
X1490912Y1518951D01*
X1490755Y1519099D01*
X1490636Y1519145D01*
X1478867Y1529021D01*
D02*
G37*
G36*
X1578252Y1416003D02*
X1565193Y1408463D01*
X1575233Y1391073D01*
X1588292Y1398613D01*
X1578252Y1416003D01*
D02*
G37*
G36*
X569535Y1389567D02*
X559495Y1372177D01*
X562899Y1370212D01*
X562844Y1370058D01*
X541714Y1229305D01*
X541725Y1229076D01*
X541672Y1228854D01*
X541692Y1228729D01*
X539024Y1213598D01*
X553875Y1210980D01*
X557361Y1230755D01*
X550445Y1231974D01*
X570201Y1363573D01*
X572489Y1364675D01*
X572554Y1364637D01*
X582594Y1382027D01*
X569535Y1389567D01*
D02*
G37*
G36*
X597248Y1373567D02*
X587208Y1356178D01*
X600267Y1348638D01*
X610307Y1366027D01*
X597248Y1373567D01*
D02*
G37*
G36*
X1602752D02*
X1589693Y1366027D01*
X1599733Y1348638D01*
X1605820Y1352152D01*
X1675517Y1238685D01*
X1674475Y1236368D01*
X1674153Y1236311D01*
X1677639Y1216536D01*
X1692490Y1219155D01*
X1689003Y1238930D01*
X1685364Y1238288D01*
X1685281Y1238488D01*
X1685258Y1238518D01*
X1685216Y1238635D01*
X1685209Y1238645D01*
X1685202Y1238654D01*
X1685198Y1238664D01*
X1610784Y1359812D01*
X1610631Y1359977D01*
X1610530Y1360178D01*
X1610434Y1360262D01*
X1602752Y1373567D01*
D02*
G37*
G36*
X1657489Y1233373D02*
X1642639Y1230755D01*
X1646125Y1210980D01*
X1660976Y1213598D01*
X1657489Y1233373D01*
D02*
G37*
G36*
X502488Y1190674D02*
X499001Y1170900D01*
X502053Y1170361D01*
X502104Y1169974D01*
X502110Y1169477D01*
X531163Y1030537D01*
X531248Y1030338D01*
X531272Y1030124D01*
X531334Y1030013D01*
X534002Y1014882D01*
X548853Y1017501D01*
X545366Y1037276D01*
X538426Y1036052D01*
X511123Y1166626D01*
X512890Y1168450D01*
X513852Y1168281D01*
X517339Y1188056D01*
X502488Y1190674D01*
D02*
G37*
G36*
X534002Y1185118D02*
X530515Y1165343D01*
X545366Y1162724D01*
X548853Y1182499D01*
X534002Y1185118D01*
D02*
G37*
G36*
X1665998D02*
X1651147Y1182499D01*
X1654634Y1162724D01*
X1661574Y1163948D01*
X1688877Y1033374D01*
X1687110Y1031550D01*
X1686148Y1031719D01*
X1682661Y1011944D01*
X1697512Y1009326D01*
X1700999Y1029100D01*
X1697946Y1029639D01*
X1697897Y1030010D01*
X1697895Y1030496D01*
X1697894Y1030504D01*
X1697889Y1030514D01*
X1697889Y1030526D01*
X1668837Y1169463D01*
X1668752Y1169662D01*
X1668728Y1169876D01*
X1668666Y1169987D01*
X1665998Y1185118D01*
D02*
G37*
G36*
X1654634Y1037276D02*
X1651147Y1017501D01*
X1665998Y1014882D01*
X1669485Y1034657D01*
X1654634Y1037276D01*
D02*
G37*
G36*
X553875Y989020D02*
X539024Y986402D01*
X542510Y966627D01*
X557361Y969245D01*
X553875Y989020D01*
D02*
G37*
G36*
X522361Y983464D02*
X507510Y980845D01*
X510997Y961070D01*
X514256Y961645D01*
X514732Y960495D01*
X514771Y960443D01*
X514822Y960307D01*
X514829Y960297D01*
X514829Y960297D01*
X589224Y840175D01*
X589373Y840016D01*
X589470Y839822D01*
X589566Y839738D01*
X597248Y826433D01*
X610307Y833973D01*
X600267Y851363D01*
X594167Y847841D01*
X523949Y961218D01*
X524986Y963537D01*
X525848Y963689D01*
X522361Y983464D01*
D02*
G37*
G36*
X1599733Y851363D02*
X1589693Y833973D01*
X1602752Y826433D01*
X1612792Y843822D01*
X1599733Y851363D01*
D02*
G37*
G36*
X1646125Y989020D02*
X1642639Y969245D01*
X1649550Y968027D01*
X1629654Y836426D01*
X1627446Y835362D01*
X1627446D01*
X1617406Y817973D01*
X1630465Y810433D01*
X1640505Y827822D01*
X1636893Y829908D01*
X1636963Y830079D01*
X1637018Y830498D01*
X1637141Y830834D01*
X1637142Y830840D01*
X1637142Y830846D01*
X1637144Y830852D01*
X1658285Y970691D01*
X1658275Y970922D01*
X1658328Y971146D01*
X1658308Y971271D01*
X1660976Y986402D01*
X1646125Y989020D01*
D02*
G37*
G36*
X624767Y808927D02*
X611708Y801387D01*
X621748Y783997D01*
X634807Y791537D01*
X624767Y808927D01*
D02*
G37*
G36*
X1484556Y695439D02*
X1469174Y682531D01*
X1478867Y670979D01*
X1494249Y683887D01*
X1484556Y695439D01*
D02*
G37*
G36*
X597054Y792927D02*
X583995Y785387D01*
X594035Y767998D01*
X597363Y769919D01*
X597622Y769720D01*
X597862Y769437D01*
X708879Y681160D01*
X709080Y681057D01*
X709245Y680901D01*
X709363Y680855D01*
X721133Y670979D01*
X730826Y682531D01*
X715444Y695439D01*
X710928Y690056D01*
X606736Y772906D01*
X606924Y775439D01*
X607094Y775537D01*
X597054Y792927D01*
D02*
G37*
G36*
X1575233Y808927D02*
X1565193Y791537D01*
X1571294Y788015D01*
X1508257Y670465D01*
X1505730Y670204D01*
X1505125Y670925D01*
X1489743Y658018D01*
X1499436Y646466D01*
X1514819Y659373D01*
X1512669Y661935D01*
X1513788Y663395D01*
X1513817Y663464D01*
X1513913Y663580D01*
X1580404Y787570D01*
X1580467Y787776D01*
X1580586Y787957D01*
X1580611Y788082D01*
X1588292Y801387D01*
X1575233Y808927D01*
D02*
G37*
G36*
X752980Y663942D02*
X743287Y652390D01*
X758669Y639483D01*
X768362Y651035D01*
X752980Y663942D01*
D02*
G37*
G36*
X1195292Y1643019D02*
X1004708D01*
X1004267Y1642931D01*
X1003822Y1642863D01*
X824731Y1577679D01*
X824347Y1577445D01*
X823952Y1577229D01*
X677956Y1454724D01*
X677675Y1454373D01*
X677378Y1454035D01*
X582086Y1288984D01*
X581941Y1288558D01*
X581778Y1288139D01*
X548684Y1100450D01*
X548694Y1100000D01*
X548684Y1099550D01*
X581778Y911861D01*
X581941Y911442D01*
X582086Y911016D01*
X677378Y745965D01*
X677675Y745627D01*
X677956Y745276D01*
X823952Y622771D01*
X824347Y622555D01*
X824731Y622321D01*
X1003822Y557137D01*
X1004267Y557069D01*
X1004708Y556981D01*
X1050000D01*
X1050991Y557178D01*
X1051831Y557740D01*
X1052393Y558580D01*
X1052590Y559571D01*
Y587439D01*
X1055130Y588491D01*
X1056134Y587486D01*
X1058276Y586250D01*
X1060664Y585610D01*
X1063136D01*
X1065524Y586250D01*
X1067666Y587486D01*
X1069414Y589234D01*
X1070650Y591376D01*
X1071290Y593764D01*
Y596236D01*
X1070650Y598624D01*
X1069414Y600766D01*
X1067666Y602514D01*
X1065524Y603750D01*
X1063136Y604390D01*
X1060664D01*
X1058276Y603750D01*
X1056134Y602514D01*
X1055130Y601509D01*
X1052590Y602561D01*
Y606981D01*
X1147410D01*
Y602561D01*
X1144870Y601509D01*
X1143866Y602514D01*
X1141724Y603750D01*
X1139336Y604390D01*
X1136864D01*
X1134476Y603750D01*
X1132334Y602514D01*
X1130586Y600766D01*
X1129350Y598624D01*
X1128710Y596236D01*
Y593764D01*
X1129350Y591376D01*
X1130586Y589234D01*
X1132334Y587486D01*
X1133981Y586536D01*
Y542900D01*
X1114460D01*
Y527820D01*
X1133981D01*
Y516166D01*
X1128715Y510900D01*
X1114460D01*
Y495820D01*
X1134540D01*
Y505075D01*
X1141013Y511547D01*
X1141906Y512884D01*
X1142219Y514460D01*
Y586536D01*
X1143866Y587486D01*
X1144870Y588491D01*
X1147410Y587439D01*
Y559571D01*
X1147607Y558580D01*
X1148169Y557740D01*
X1149009Y557178D01*
X1150000Y556981D01*
X1195292D01*
X1195733Y557069D01*
X1196178Y557137D01*
X1375269Y622321D01*
X1375653Y622555D01*
X1376048Y622771D01*
X1522044Y745276D01*
X1522325Y745627D01*
X1522622Y745965D01*
X1617914Y911016D01*
X1618059Y911442D01*
X1618222Y911861D01*
X1651316Y1099550D01*
X1651306Y1100000D01*
X1651316Y1100450D01*
X1618222Y1288139D01*
X1618059Y1288558D01*
X1617914Y1288984D01*
X1522622Y1454035D01*
X1522325Y1454373D01*
X1522044Y1454724D01*
X1376048Y1577229D01*
X1375653Y1577445D01*
X1375269Y1577679D01*
X1196178Y1642863D01*
X1195733Y1642931D01*
X1195292Y1643019D01*
D02*
G37*
G36*
X732411Y639428D02*
X722718Y627877D01*
X738100Y614969D01*
X743366Y621246D01*
X871285Y577909D01*
X872384Y575620D01*
X871846Y574140D01*
X890715Y567272D01*
X895873Y581443D01*
X877004Y588311D01*
X875824Y585070D01*
X743950Y629746D01*
X732411Y639428D01*
D02*
G37*
G36*
X1322996Y588311D02*
X1304127Y581443D01*
X1309285Y567272D01*
X1328154Y574140D01*
X1322996Y588311D01*
D02*
G37*
G36*
X1447020Y663942D02*
X1431638Y651035D01*
X1436162Y645643D01*
X1336638Y556976D01*
X1334175Y557597D01*
X1333941Y558240D01*
X1315072Y551373D01*
X1320230Y537202D01*
X1339099Y544070D01*
X1337957Y547206D01*
X1338250Y547378D01*
X1444569Y642099D01*
X1444702Y642274D01*
X1444878Y642405D01*
X1444944Y642514D01*
X1456713Y652390D01*
X1447020Y663942D01*
D02*
G37*
G36*
X1276952Y571552D02*
X1258083Y564684D01*
X1263240Y550513D01*
X1282109Y557381D01*
X1276952Y571552D01*
D02*
G37*
G36*
X923048D02*
X917891Y557381D01*
X936760Y550513D01*
X941917Y564684D01*
X923048Y571552D01*
D02*
G37*
G36*
X1085540Y542900D02*
X1065460D01*
Y535871D01*
X932344Y532239D01*
X930859Y534300D01*
X930973Y534614D01*
X927292Y535953D01*
X926668Y536225D01*
X926541Y536227D01*
X912104Y541481D01*
X906946Y527311D01*
X925815Y520443D01*
X927140Y524083D01*
X928439Y523912D01*
X928496Y523920D01*
X928633Y523897D01*
X1069612Y527742D01*
X1069832Y527792D01*
X1070056Y527779D01*
X1070176Y527820D01*
X1085540D01*
Y542900D01*
D02*
G37*
%LPD*%
D12*
X1334540Y549875D02*
G03*
X1335510Y550454I-1026J2819D01*
G01*
X1509567Y664647D02*
G03*
X1510283Y665527I-1928J2298D01*
G01*
X1632702Y830416D02*
G03*
X1633070Y831462I-2598J1500D01*
G01*
X1693875Y1028547D02*
G03*
X1693859Y1029674I-2955J521D01*
G01*
X1682086Y1235459D02*
G03*
X1681694Y1236497I-2955J-521D01*
G01*
X1600241Y1427537D02*
G03*
X1599505Y1428389I-2598J-1500D01*
G01*
X1457474Y1578620D02*
G03*
X1456501Y1579165I-1928J-2298D01*
G01*
X1272587Y1671806D02*
G03*
X1271491Y1671986I-1026J-2819D01*
G01*
X1066523Y1696978D02*
G03*
X1065408Y1696763I0J-3000D01*
G01*
X863577Y1648624D02*
G03*
X863575Y1648622I1992J-2243D01*
G01*
X864543Y1649200D02*
G03*
X863577Y1648624I1026J-2819D01*
G01*
X690376Y1536241D02*
G03*
X689660Y1535360I1928J-2298D01*
G01*
X567286Y1370501D02*
G03*
X566917Y1369447I2598J-1500D01*
G01*
X506125Y1171452D02*
G03*
X506141Y1170328I2955J-521D01*
G01*
X517927Y963524D02*
G03*
X518324Y962477I2955J521D01*
G01*
X599697Y773508D02*
G03*
X600422Y772665I2598J1500D01*
G01*
X927413Y528194D02*
G03*
X928516Y528014I1026J2819D01*
G01*
X875034Y580988D02*
G03*
X874978Y581007I-1026J-2819D01*
G01*
X1332903Y549279D02*
X1334540Y549875D01*
X1335510Y550454D02*
X1441829Y645174D01*
X1327085Y547721D02*
X1332903Y549279D01*
X1441829Y645174D02*
X1444176Y651712D01*
X1510283Y665527D02*
X1576774Y789516D01*
X1502281Y658696D02*
X1506957Y662457D01*
X1509567Y664647D01*
X1576743Y796462D02*
X1576774Y789516D01*
X1633070Y831462D02*
X1633071Y831468D01*
X1628955Y822898D02*
X1631510Y828351D01*
X1632702Y830416D01*
X1633071Y831468D02*
X1654212Y971307D01*
X1651807Y977823D02*
X1654212Y971307D01*
X1693857Y1029682D02*
X1693859Y1029674D01*
X1693483Y1026323D02*
X1693875Y1028547D01*
X1664805Y1168620D02*
X1693857Y1029682D01*
X1691830Y1020522D02*
X1693483Y1026323D01*
X1660316Y1173921D02*
X1664805Y1168620D01*
X1681688Y1236508D02*
X1681694Y1236497D01*
X1607274Y1357656D02*
X1681688Y1236508D01*
X1682403Y1233664D02*
X1683321Y1227733D01*
X1682086Y1235459D02*
X1682403Y1233664D01*
X1601243Y1361102D02*
X1607274Y1357656D01*
X1599497Y1428395D02*
X1599505Y1428389D01*
X1601759Y1424909D02*
X1604455Y1419538D01*
X1488558Y1515616D02*
X1599497Y1428395D01*
X1600241Y1427537D02*
X1601759Y1424909D01*
X1481712Y1516791D02*
X1488558Y1515616D01*
X1456490Y1579169D02*
X1456501Y1579165D01*
X1457474Y1578620D02*
X1460009Y1576492D01*
X1322976Y1623445D02*
X1456490Y1579169D01*
X1460009Y1576492D02*
X1464745Y1572801D01*
X1316141Y1622209D02*
X1322976Y1623445D01*
X1271479Y1671986D02*
X1271491Y1671986D01*
X1130500Y1668140D02*
X1271479Y1671986D01*
X1275303Y1670817D02*
X1281040Y1669038D01*
X1272587Y1671806D02*
X1275303Y1670817D01*
X1124500Y1664640D02*
X1130500Y1668140D01*
X1066523Y1696978D02*
X1069500D01*
X934345Y1644309D02*
X1065408Y1696763D01*
X1069500Y1696978D02*
X1075500Y1696640D01*
X929904Y1638968D02*
X934345Y1644309D01*
X863575Y1648622D02*
X863577Y1648624D01*
X758171Y1554825D02*
X863575Y1648622D01*
X867287Y1650198D02*
X872915Y1652279D01*
X864543Y1649200D02*
X867287Y1650198D01*
X755825Y1548288D02*
X758171Y1554825D01*
X689655Y1535352D02*
X689660Y1535360D01*
X690376Y1536241D02*
X692582Y1538093D01*
X623226Y1410484D02*
X689655Y1535352D01*
X692582Y1538093D02*
X697719Y1541304D01*
X623226Y1410484D02*
X623257Y1403538D01*
X545788Y1228693D02*
X566917Y1369447D01*
X567286Y1370501D02*
X571045Y1377102D01*
X545788Y1228693D02*
X548192Y1222177D01*
X506141Y1170328D02*
X506143Y1170318D01*
X506125Y1171452D02*
X506517Y1173677D01*
X508170Y1179478D01*
X506143Y1170318D02*
X535195Y1031380D01*
X539684Y1026079D01*
X517436Y966308D02*
X517927Y963524D01*
X518324Y962477D02*
X518331Y962466D01*
X516679Y972267D02*
X517436Y966308D01*
X518331Y962466D02*
X592726Y842344D01*
X598757Y838898D01*
X598648Y775326D02*
X599697Y773508D01*
X600422Y772665D02*
X600428Y772660D01*
X711442Y684385D01*
X595545Y780462D02*
X598648Y775326D01*
X711442Y684385D02*
X718288Y683209D01*
X924697Y529183D02*
X927413Y528194D01*
X928516Y528014D02*
X928521Y528014D01*
X918960Y530962D02*
X924697Y529183D01*
X928521Y528014D02*
X1069500Y531860D01*
X1075500Y535360D01*
X874970Y581010D02*
X874978Y581007D01*
X878216Y579829D02*
X883859Y577791D01*
X875034Y580988D02*
X878216Y579829D01*
X742101Y626023D02*
X874970Y581010D01*
X735255Y627199D02*
X742101Y626023D01*
X1069500Y532199D02*
X1075500Y535360D01*
X918960Y530962D02*
X925795Y532199D01*
X1124500Y503360D02*
X1127000D01*
X1138100Y514460D02*
Y595000D01*
X1127000Y503360D02*
X1138100Y514460D01*
X1061900Y595000D02*
X1062360D01*
X1122000Y535360D02*
X1124500D01*
D14*
X1327085Y547721D02*
D03*
X1281040Y530962D02*
D03*
X1316141Y577791D02*
D03*
X1270096Y561032D02*
D03*
X872915Y1652279D02*
D03*
X918960Y1669038D02*
D03*
X883859Y1622209D02*
D03*
X929904Y1638968D02*
D03*
D15*
X1124500Y503360D02*
D03*
X1075500D02*
D03*
X1124500Y535360D02*
D03*
X1075500D02*
D03*
Y1696640D02*
D03*
X1124500D02*
D03*
X1075500Y1664640D02*
D03*
X1124500D02*
D03*
D16*
X918960Y530962D02*
D03*
X872915Y547721D02*
D03*
X929904Y561032D02*
D03*
X883859Y577791D02*
D03*
X1281040Y1669038D02*
D03*
X1327085Y1652279D02*
D03*
X1270096Y1638968D02*
D03*
X1316141Y1622209D02*
D03*
D17*
X1502281Y658696D02*
D03*
X1464745Y627199D02*
D03*
X1481712Y683209D02*
D03*
X1444176Y651712D02*
D03*
X697719Y1541304D02*
D03*
X735255Y1572801D02*
D03*
X718288Y1516791D02*
D03*
X755825Y1548288D02*
D03*
D18*
X1628955Y822898D02*
D03*
X1604455Y780462D02*
D03*
X1601243Y838898D02*
D03*
X1576743Y796462D02*
D03*
X571045Y1377102D02*
D03*
X595545Y1419538D02*
D03*
X598757Y1361102D02*
D03*
X623257Y1403538D02*
D03*
D19*
X1691830Y1020522D02*
D03*
X1683321Y972267D02*
D03*
X1660316Y1026079D02*
D03*
X1651807Y977823D02*
D03*
X508170Y1179478D02*
D03*
X516679Y1227733D02*
D03*
X539684Y1173921D02*
D03*
X548192Y1222177D02*
D03*
D20*
X1683321Y1227733D02*
D03*
X1691830Y1179478D02*
D03*
X1651808Y1222177D02*
D03*
X1660316Y1173921D02*
D03*
X516679Y972267D02*
D03*
X508170Y1020522D02*
D03*
X548193Y977823D02*
D03*
X539684Y1026079D02*
D03*
D21*
X1604455Y1419538D02*
D03*
X1628955Y1377102D02*
D03*
X1576743Y1403538D02*
D03*
X1601243Y1361102D02*
D03*
X595545Y780462D02*
D03*
X571045Y822898D02*
D03*
X623257Y796462D02*
D03*
X598757Y838898D02*
D03*
D22*
X1464745Y1572801D02*
D03*
X1502281Y1541304D02*
D03*
X1444176Y1548288D02*
D03*
X1481712Y1516791D02*
D03*
X735255Y627199D02*
D03*
X697719Y658696D02*
D03*
X755825Y651712D02*
D03*
X718288Y683209D02*
D03*
D33*
X1061900Y595000D02*
D03*
X1138100D02*
D03*
X1112700D02*
D03*
X1087300D02*
D03*
D34*
X755825Y651712D02*
D03*
X883859Y1622209D02*
D03*
X623257Y796462D02*
D03*
X929904Y561032D02*
D03*
X718288Y1516791D02*
D03*
X598757Y1361102D02*
D03*
X1651808Y1222177D02*
D03*
X1576743Y1403538D02*
D03*
X1444176Y1548288D02*
D03*
X1075500Y1664640D02*
D03*
X548193Y977823D02*
D03*
X539684Y1173921D02*
D03*
X1270096Y1638968D02*
D03*
X1660316Y1026079D02*
D03*
X1124500Y535360D02*
D03*
X1316141Y577791D02*
D03*
X1481712Y683209D02*
D03*
X1601243Y838898D02*
D03*
M02*
